<?xml version="1.0" encoding="utf-8"?>
<!-- Generator: Adobe Illustrator 23.0.1, SVG Export Plug-In . SVG Version: 6.00 Build 0)  -->
<svg version="1.1" xmlns="http://www.w3.org/2000/svg" xmlns:xlink="http://www.w3.org/1999/xlink" x="0px" y="0px"
	 viewBox="0 0 566 467" style="enable-background:new 0 0 566 467;" xml:space="preserve">
<style type="text/css">
	.st0{fill:#1B2029;}
	.st1{fill:none;stroke:#FFFFFF;stroke-linecap:round;stroke-miterlimit:10;stroke-dasharray:0,10;}
	.st2{enable-background:new    ;}
	.st3{fill:#FF3603;}
	.st4{fill:#FFFFFF;}
	.st5{fill:#606060;}
	.st6{opacity:0.2;fill:#FF3603;}
	.st7{fill:#FFFFFF;stroke:#FFFFFF;stroke-miterlimit:10;}
	.st8{fill:none;stroke:#606060;stroke-miterlimit:10;}
</style>
<g id="Livello_1">
	<g id="BG">
		<g>
			<g>
				<rect class="st0" width="830" height="1080"/>
			</g>
		</g>
	</g>
</g>
<g id="Livello_2">
	<line class="st1" x1="259.5" y1="86.5" x2="259.5" y2="358.5"/>
	<g class="st2">
		<path class="st3" d="M31.9,157.4l2.6,7.3h0.1v-7.3h1.2v8.4h-2.2l-2.6-7.3h-0.1v7.3h-1.2v-8.4H31.9z"/>
		<path class="st3" d="M42.9,157.4v1.1h-4.2v2.5h3.8v1.1h-3.8v2.6H43v1.1h-5.4v-8.4H42.9z"/>
		<path class="st3" d="M45,157.4l1,7.3h0.1l1.3-7.3h1.9l1.3,7.3h0.1l1-7.3h1.2l-1.2,8.4h-2.1l-1.3-7.3h-0.1l-1.3,7.3h-2.1l-1.2-8.4
			H45z"/>
		<path class="st3" d="M59.8,159.8v0.4h-1.2v-0.3c0-1.1-0.8-1.7-1.9-1.7c-0.9,0-1.6,0.5-1.6,1.2c0,0.8,0.5,1.1,1.7,1.3l0.6,0.1
			c1.6,0.3,2.5,1,2.5,2.4c0,1.5-1.3,2.5-3,2.5c-2.1,0-3.3-1.2-3.3-3v-0.4h1.2v0.3c0,1.3,0.8,2.1,2.1,2.1c1.1,0,1.8-0.6,1.8-1.4
			s-0.5-1.1-1.6-1.4l-0.6-0.1c-1.5-0.3-2.6-0.9-2.6-2.4c0-1.4,1.2-2.3,2.8-2.3C58.5,157.2,59.8,158.1,59.8,159.8z"/>
		<path class="st3" d="M64.5,157.4c1.5,0,2.6,1,2.6,2.5s-1.1,2.5-2.6,2.5h-2.1v3.4h-1.2v-8.4H64.5z M62.5,161.3h1.9
			c1,0,1.5-0.5,1.5-1.4c0-0.9-0.5-1.4-1.5-1.4h-1.9V161.3z"/>
		<path class="st3" d="M71.4,157.4l2.6,8.4h-1.3l-0.6-2h-3.4l-0.6,2h-1.3l2.6-8.4H71.4z M71.9,162.6l-1.3-4.2h-0.1l-1.3,4.2H71.9z"
			/>
		<path class="st3" d="M78.4,157.4c1.5,0,2.6,1,2.6,2.5s-1.1,2.5-2.6,2.5h-2.1v3.4h-1.2v-8.4H78.4z M76.4,161.3h1.9
			c1,0,1.5-0.5,1.5-1.4c0-0.9-0.5-1.4-1.5-1.4h-1.9V161.3z"/>
		<path class="st3" d="M87.6,157.4v1.1h-4.2v2.5h3.8v1.1h-3.8v2.6h4.2v1.1h-5.4v-8.4H87.6z"/>
		<path class="st3" d="M93,162.3l1.9,3.5h-1.3l-1.8-3.4h-1.7v3.4H89v-8.4h3.5c1.5,0,2.6,1,2.6,2.5C95,161.1,94.2,162,93,162.3z
			 M90.2,161.2h2.2c1,0,1.5-0.5,1.5-1.4c0-0.9-0.5-1.4-1.5-1.4h-2.2V161.2z"/>
	</g>
	<g class="st2">
		<path class="st4" d="M62.5,380.1v8.4h-1.2v-8.4H62.5z"/>
		<path class="st4" d="M66.4,380.1l2.1,7.1h0.1l2.1-7.1h2.2v8.4h-1.2v-7.1h-0.1l-2.1,7.1h-1.8l-2.1-7.1h-0.1v7.1h-1.2v-8.4H66.4z"/>
		<path class="st4" d="M78.5,380.1l2.6,8.4h-1.3l-0.6-2h-3.4l-0.6,2H74l2.6-8.4H78.5z M79,385.4l-1.3-4.2h-0.1l-1.3,4.2H79z"/>
		<path class="st4" d="M81.8,383.4c0-2.2,1.2-3.4,3.3-3.4c2,0,3.1,1.2,3.1,3.1v0.1h-1.2V383c0-1.2-0.6-2-1.9-2
			c-1.3,0-2.1,0.8-2.1,2.3v2c0,1.5,0.7,2.3,2.1,2.3c1.3,0,1.9-0.8,1.9-2v-0.1h-2.3v-1.1h3.5v1.2c0,1.9-1.1,3.1-3.1,3.1
			c-2.1,0-3.3-1.2-3.3-3.4V383.4z"/>
		<path class="st4" d="M94.9,380.1v1.1h-4.2v2.5h3.8v1.1h-3.8v2.6H95v1.1h-5.4v-8.4H94.9z"/>
		<path class="st4" d="M41.5,394.3c2,0,3.1,1.2,3.1,3v0.2h-1.2v-0.2c0-1.2-0.6-2-1.9-2s-2.1,0.8-2.1,2.3v2c0,1.5,0.7,2.3,2.1,2.3
			s1.9-0.8,1.9-2v-0.2h1.2v0.2c0,1.9-1.1,3.1-3.1,3.1c-2.1,0-3.3-1.2-3.3-3.4v-1.9C38.2,395.6,39.5,394.3,41.5,394.3z"/>
		<path class="st4" d="M49.7,394.5l2.6,8.4h-1.3l-0.6-2h-3.4l-0.6,2h-1.3l2.6-8.4H49.7z M50.1,399.8l-1.3-4.2h-0.1l-1.3,4.2H50.1z"
			/>
		<path class="st4" d="M58.7,394.5v1.1H56v7.3h-1.2v-7.3h-2.7v-1.1H58.7z"/>
		<path class="st4" d="M65.2,394.5v1.1H61v2.5h3.8v1.1H61v2.6h4.2v1.1h-5.4v-8.4H65.2z"/>
		<path class="st4" d="M66.3,397.8c0-2.2,1.2-3.4,3.3-3.4c2,0,3.1,1.2,3.1,3.1v0.1h-1.2v-0.1c0-1.2-0.6-2-1.9-2
			c-1.3,0-2.1,0.8-2.1,2.3v2c0,1.5,0.7,2.3,2.1,2.3c1.3,0,1.9-0.8,1.9-2v-0.1h-2.3v-1.1h3.5v1.2c0,1.9-1.1,3.1-3.1,3.1
			c-2.1,0-3.3-1.2-3.3-3.4V397.8z"/>
		<path class="st4" d="M77.1,394.3c2,0,3.3,1.3,3.3,3.4v1.9c0,2.2-1.2,3.4-3.3,3.4s-3.3-1.3-3.3-3.4v-1.9
			C73.8,395.6,75,394.3,77.1,394.3z M75,399.7c0,1.5,0.7,2.3,2.1,2.3s2.1-0.8,2.1-2.3v-1.9c0-1.5-0.7-2.3-2.1-2.3s-2.1,0.8-2.1,2.3
			V399.7z"/>
		<path class="st4" d="M85.9,399.4l1.9,3.5h-1.3l-1.8-3.4H83v3.4h-1.2v-8.4h3.5c1.5,0,2.6,1,2.6,2.5
			C87.9,398.3,87.1,399.2,85.9,399.4z M83,398.4h2.2c1,0,1.5-0.5,1.5-1.4c0-0.9-0.5-1.4-1.5-1.4H83V398.4z"/>
		<path class="st4" d="M89.6,394.5l2.1,3.9h0.1l2.1-3.9h1.4l-3,5.3v3.1h-1.2v-3.1l-3-5.3H89.6z"/>
		<path class="st5" d="M69,408.9v1.1h-2.7v7.3h-1.2V410h-2.7v-1.1H69z"/>
		<path class="st5" d="M72.9,408.7c2,0,3.3,1.3,3.3,3.4v1.9c0,2.2-1.2,3.4-3.3,3.4s-3.3-1.3-3.3-3.4v-1.9
			C69.6,410,70.9,408.7,72.9,408.7z M70.8,414.1c0,1.5,0.7,2.3,2.1,2.3s2.1-0.8,2.1-2.3v-1.9c0-1.5-0.7-2.3-2.1-2.3
			s-2.1,0.8-2.1,2.3V414.1z"/>
		<path class="st5" d="M83.4,408.9v1.1h-2.7v7.3h-1.2V410h-2.7v-1.1H83.4z"/>
		<path class="st5" d="M89.5,411.3v-2.4h1.1v2.4h1.5v-2.4h1.1v2.4h1.5v1.1h-1.5v1.5h1.5v1.1h-1.5v2.4h-1.1v-2.4h-1.5v2.4h-1.1v-2.4
			H88v-1.1h1.5v-1.5H88v-1.1H89.5z M90.6,413.9h1.5v-1.5h-1.5V413.9z"/>
	</g>
	<rect x="230" y="118" class="st3" width="59" height="29"/>
	<path class="st6" d="M168,207c42,0,15-60,62-60v-29c-47,0-20,0-62,0"/>
	<g>
		<g>
			<path class="st4" d="M128.9,72.5c1.7,0,2.9,1.1,2.9,2.7c0,1.8-1.3,2.5-3,3c-1.2,0.4-1.8,0.7-1.8,1.6v0.1h4.6V81h-5.8V80
				c0-1.6,1-2.2,2.5-2.7c1.4-0.5,2.3-0.9,2.3-2.1c0-1-0.7-1.6-1.7-1.6c-1.2,0-1.9,0.6-1.9,1.8v0.3h-1.2v-0.3
				C125.8,73.6,127,72.5,128.9,72.5z"/>
			<path class="st4" d="M135.9,72.5c1.9,0,3.1,1.3,3.1,3.4v1.9c0,2.2-1.2,3.4-3.1,3.4c-1.9,0-3.1-1.3-3.1-3.4v-1.9
				C132.8,73.7,134,72.5,135.9,72.5z M134,77.8c0,1.5,0.6,2.3,1.9,2.3c1.3,0,1.9-0.8,1.9-2.3v-1.9c0-1.5-0.6-2.3-1.9-2.3
				c-1.3,0-1.9,0.8-1.9,2.3V77.8z"/>
			<path class="st4" d="M143.9,72.6V81h-1.2v-7.3h-0.1l-1.6,2.6h-1.3l2.4-3.7H143.9z"/>
			<path class="st4" d="M148.4,72.5c1.7,0,2.9,1.1,2.9,2.7c0,1.8-1.3,2.5-3,3c-1.2,0.4-1.8,0.7-1.8,1.6v0.1h4.6V81h-5.8V80
				c0-1.6,1-2.2,2.5-2.7c1.4-0.5,2.3-0.9,2.3-2.1c0-1-0.7-1.6-1.7-1.6c-1.2,0-1.9,0.6-1.9,1.8v0.3h-1.2v-0.3
				C145.3,73.6,146.6,72.5,148.4,72.5z"/>
		</g>
	</g>
	<g>
		<g>
			<path class="st4" d="M249.8,72.5c1.7,0,2.9,1.1,2.9,2.7c0,1.8-1.3,2.5-3,3c-1.2,0.4-1.8,0.7-1.8,1.6v0.1h4.6V81h-5.8V80
				c0-1.6,1-2.2,2.5-2.7c1.4-0.5,2.3-0.9,2.3-2.1c0-1-0.7-1.6-1.7-1.6c-1.2,0-1.9,0.6-1.9,1.8v0.3h-1.2v-0.3
				C246.8,73.6,248,72.5,249.8,72.5z"/>
			<path class="st4" d="M256.9,72.5c1.9,0,3.1,1.3,3.1,3.4v1.9c0,2.2-1.2,3.4-3.1,3.4s-3.1-1.3-3.1-3.4v-1.9
				C253.8,73.7,255,72.5,256.9,72.5z M255,77.8c0,1.5,0.6,2.3,1.9,2.3s1.9-0.8,1.9-2.3v-1.9c0-1.5-0.6-2.3-1.9-2.3s-1.9,0.8-1.9,2.3
				V77.8z"/>
			<path class="st4" d="M264.9,72.6V81h-1.2v-7.3h-0.1l-1.6,2.6h-1.3l2.4-3.7H264.9z"/>
			<path class="st4" d="M272.1,72.6v1.1l-2.5,2.2V76h0.3c1.3,0,2.3,1,2.3,2.4c0,1.6-1.3,2.7-3,2.7c-1.8,0-3.1-1.2-3.1-2.8v-0.6h1.2
				v0.5c0,1.1,0.7,1.8,1.9,1.8c1.1,0,1.8-0.7,1.8-1.7c0-0.9-0.7-1.5-1.6-1.5h-1.3v-1.1l2.3-2.1h-4v-1.1H272.1z"/>
		</g>
	</g>
	<line class="st7" x1="109" y1="86" x2="168" y2="86"/>
	<line class="st7" x1="230" y1="86.5" x2="289" y2="86.5"/>
	<line class="st1" x1="138.5" y1="86" x2="138.5" y2="358.5"/>
	<rect x="109" y="118" class="st3" width="59" height="89"/>
	<g>
		<path class="st4" d="M136.6,159.7v-2.4h1.1v2.4h1.5v-2.4h1.1v2.4h1.5v1.1h-1.5v1.5h1.5v1.1h-1.5v2.4h-1.1v-2.4h-1.5v2.4h-1.1v-2.4
			h-1.5v-1.1h1.5v-1.5h-1.5v-1.1H136.6z M137.8,162.3h1.5v-1.5h-1.5V162.3z"/>
	</g>
	<g>
		<path class="st4" d="M257.6,129.7v-2.4h1.1v2.4h1.5v-2.4h1.1v2.4h1.5v1.1h-1.5v1.5h1.5v1.1h-1.5v2.4h-1.1v-2.4h-1.5v2.4h-1.1v-2.4
			h-1.5v-1.1h1.5v-1.5h-1.5v-1.1H257.6z M258.8,132.3h1.5v-1.5h-1.5V132.3z"/>
	</g>
	<g>
		<path class="st4" d="M343.9,129.7v-2.4h1.1v2.4h1.5v-2.4h1.1v2.4h1.5v1.1h-1.5v1.5h1.5v1.1h-1.5v2.4h-1.1v-2.4h-1.5v2.4h-1.1v-2.4
			h-1.5v-1.1h1.5v-1.5h-1.5v-1.1H343.9z M345.1,132.3h1.5v-1.5h-1.5V132.3z"/>
		<path class="st4" d="M369.7,130.3v0.8l-2.8,2.8l-0.7-0.7l1.6-1.6l0.3-0.3l0-0.1l-0.4,0h-6.4v-1.1h6.4l0.4,0l0-0.1l-0.3-0.3
			l-1.6-1.6l0.7-0.7L369.7,130.3z"/>
		<path class="st4" d="M380.8,127.4l2.6,7.3h0.1v-7.3h1.2v8.4h-2.2l-2.6-7.3h-0.1v7.3h-1.2v-8.4H380.8z"/>
		<path class="st4" d="M387.6,127.4v5.6c0,1.2,0.6,1.9,1.9,1.9c1.3,0,1.9-0.7,1.9-1.9v-5.6h1.2v5.6c0,1.9-1.2,3-3.1,3
			c-2,0-3.1-1.1-3.1-3v-5.6H387.6z"/>
		<path class="st4" d="M396.6,127.4l2.1,7.1h0.1l2.1-7.1h2.2v8.4H402v-7.1h-0.1l-2.1,7.1h-1.8l-2.1-7.1h-0.1v7.1h-1.2v-8.4H396.6z"
			/>
		<path class="st4" d="M408.4,127.4c1.5,0,2.5,0.8,2.5,2.3c0,1-0.6,1.6-1.4,1.9v0.1c0.8,0.2,1.4,0.9,1.4,1.9c0,1.4-1,2.3-2.5,2.3
			h-3.5v-8.4H408.4z M406.1,131h2.2c0.9,0,1.4-0.5,1.4-1.3c0-0.8-0.6-1.2-1.4-1.2h-2.2V131z M406.1,134.6h2.2c0.9,0,1.4-0.5,1.4-1.3
			c0-0.8-0.6-1.3-1.4-1.3h-2.2V134.6z"/>
		<path class="st4" d="M417.6,127.4v1.1h-4.2v2.5h3.8v1.1h-3.8v2.6h4.2v1.1h-5.4v-8.4H417.6z"/>
		<path class="st4" d="M423.1,132.3l1.9,3.5h-1.3l-1.8-3.4h-1.7v3.4H419v-8.4h3.5c1.5,0,2.6,1,2.6,2.5
			C425.1,131.1,424.3,132,423.1,132.3z M420.2,131.2h2.2c1,0,1.5-0.5,1.5-1.4c0-0.9-0.5-1.4-1.5-1.4h-2.2V131.2z"/>
		<path class="st4" d="M433,127.2c2,0,3.3,1.3,3.3,3.4v1.9c0,2.2-1.2,3.4-3.3,3.4s-3.3-1.3-3.3-3.4v-1.9
			C429.7,128.5,431,127.2,433,127.2z M430.9,132.5c0,1.5,0.7,2.3,2.1,2.3s2.1-0.8,2.1-2.3v-1.9c0-1.5-0.7-2.3-2.1-2.3
			s-2.1,0.8-2.1,2.3V132.5z"/>
		<path class="st4" d="M442.9,127.4v1.1h-4v2.5h3.8v1.1h-3.8v3.7h-1.2v-8.4H442.9z"/>
		<path class="st4" d="M449.9,127.4l2.6,7.3h0.1v-7.3h1.2v8.4h-2.2l-2.6-7.3h-0.1v7.3h-1.2v-8.4H449.9z"/>
		<path class="st4" d="M460.9,127.4v1.1h-4.2v2.5h3.8v1.1h-3.8v2.6h4.2v1.1h-5.4v-8.4H460.9z"/>
		<path class="st4" d="M463,127.4l1,7.3h0.1l1.3-7.3h1.9l1.3,7.3h0.1l1-7.3h1.2l-1.2,8.4h-2.1l-1.3-7.3h-0.1l-1.3,7.3H463l-1.2-8.4
			H463z"/>
		<path class="st4" d="M477.8,129.8v0.4h-1.2v-0.3c0-1.1-0.8-1.7-1.9-1.7c-0.9,0-1.6,0.5-1.6,1.2c0,0.8,0.5,1.1,1.7,1.3l0.6,0.1
			c1.6,0.3,2.5,1,2.5,2.4c0,1.5-1.3,2.5-3,2.5c-2.1,0-3.3-1.2-3.3-3v-0.4h1.2v0.3c0,1.3,0.8,2.1,2.1,2.1c1.1,0,1.8-0.6,1.8-1.4
			c0-0.8-0.5-1.1-1.6-1.4l-0.6-0.1c-1.5-0.3-2.6-0.9-2.6-2.4c0-1.4,1.2-2.3,2.8-2.3C476.5,127.2,477.8,128.1,477.8,129.8z"/>
		<path class="st4" d="M381.5,141.6c2,0,3.3,1.3,3.3,3.4v1.9c0,2.2-1.2,3.4-3.3,3.4c-2,0-3.3-1.3-3.3-3.4V145
			C378.3,142.9,379.5,141.6,381.5,141.6z M379.5,146.9c0,1.5,0.7,2.3,2.1,2.3c1.4,0,2.1-0.8,2.1-2.3V145c0-1.5-0.7-2.3-2.1-2.3
			c-1.4,0-2.1,0.8-2.1,2.3V146.9z"/>
		<path class="st4" d="M388.5,141.8l2.6,7.3h0.1v-7.3h1.2v8.4h-2.2l-2.6-7.3h-0.1v7.3h-1.2v-8.4H388.5z"/>
		<path class="st4" d="M397.5,145c0-2.2,1.2-3.4,3.3-3.4c2,0,3.1,1.2,3.1,3.1v0.1h-1.2v-0.1c0-1.2-0.6-2-1.9-2
			c-1.3,0-2.1,0.8-2.1,2.3v2c0,1.5,0.7,2.3,2.1,2.3c1.3,0,1.9-0.8,1.9-2v-0.1h-2.3V146h3.5v1.2c0,1.9-1.1,3.1-3.1,3.1
			c-2.1,0-3.3-1.2-3.3-3.4V145z"/>
		<path class="st4" d="M408.2,141.6c2,0,3.3,1.3,3.3,3.4v1.9c0,2.2-1.2,3.4-3.3,3.4s-3.3-1.3-3.3-3.4V145
			C405,142.9,406.2,141.6,408.2,141.6z M406.2,146.9c0,1.5,0.7,2.3,2.1,2.3s2.1-0.8,2.1-2.3V145c0-1.5-0.7-2.3-2.1-2.3
			s-2.1,0.8-2.1,2.3V146.9z"/>
		<path class="st4" d="M415.9,141.6c2,0,3.3,1.3,3.3,3.4v1.9c0,2.2-1.2,3.4-3.3,3.4s-3.3-1.3-3.3-3.4V145
			C412.6,142.9,413.9,141.6,415.9,141.6z M413.8,146.9c0,1.5,0.7,2.3,2.1,2.3s2.1-0.8,2.1-2.3V145c0-1.5-0.7-2.3-2.1-2.3
			s-2.1,0.8-2.1,2.3V146.9z"/>
		<path class="st4" d="M420.3,145c0-2.2,1.2-3.4,3.3-3.4c2,0,3.1,1.2,3.1,3.1v0.1h-1.2v-0.1c0-1.2-0.6-2-1.9-2
			c-1.3,0-2.1,0.8-2.1,2.3v2c0,1.5,0.7,2.3,2.1,2.3c1.3,0,1.9-0.8,1.9-2v-0.1h-2.3V146h3.5v1.2c0,1.9-1.1,3.1-3.1,3.1
			c-2.1,0-3.3-1.2-3.3-3.4V145z"/>
		<path class="st4" d="M429.3,141.8v7.3h4.1v1.1h-5.3v-8.4H429.3z"/>
		<path class="st4" d="M439.9,141.8v1.1h-4.2v2.5h3.8v1.1h-3.8v2.6h4.2v1.1h-5.4v-8.4H439.9z"/>
		<path class="st4" d="M447.1,141.8l2.6,7.3h0.1v-7.3h1.2v8.4h-2.2l-2.6-7.3h-0.1v7.3h-1.2v-8.4H447.1z"/>
		<path class="st4" d="M458.2,141.8v1.1H454v2.5h3.8v1.1H454v2.6h4.2v1.1h-5.4v-8.4H458.2z"/>
		<path class="st4" d="M460.3,141.8l1,7.3h0.1l1.3-7.3h1.9l1.3,7.3h0.1l1-7.3h1.2l-1.2,8.4h-2.1l-1.3-7.3h-0.1l-1.3,7.3h-2.1
			l-1.2-8.4H460.3z"/>
		<path class="st4" d="M475.1,144.2v0.4h-1.2v-0.3c0-1.1-0.8-1.7-1.9-1.7c-0.9,0-1.6,0.5-1.6,1.2c0,0.8,0.5,1.1,1.7,1.3l0.6,0.1
			c1.6,0.3,2.5,1,2.5,2.4c0,1.5-1.3,2.5-3,2.5c-2.1,0-3.3-1.2-3.3-3v-0.4h1.2v0.3c0,1.3,0.8,2.1,2.1,2.1c1.1,0,1.8-0.6,1.8-1.4
			c0-0.8-0.5-1.1-1.6-1.4l-0.6-0.1c-1.5-0.3-2.6-0.9-2.6-2.4c0-1.4,1.2-2.3,2.8-2.3C473.7,141.6,475.1,142.5,475.1,144.2z"/>
	</g>
	<g>
		<path class="st4" d="M35.1,30.8v1.1h-4v2.5h3.8v1.1h-3.8v3.7h-1.2v-8.4H35.1z"/>
		<path class="st4" d="M38.1,30.8v8.4h-1.2v-8.4H38.1z"/>
		<path class="st4" d="M44.7,35.7l1.9,3.5h-1.3l-1.8-3.4h-1.7v3.4h-1.2v-8.4h3.5c1.5,0,2.6,1,2.6,2.5C46.7,34.6,45.9,35.5,44.7,35.7
			z M41.8,34.7H44c1,0,1.5-0.5,1.5-1.4c0-0.9-0.5-1.4-1.5-1.4h-2.2V34.7z"/>
		<path class="st4" d="M54.5,33.3v0.4h-1.2v-0.3c0-1.1-0.8-1.7-1.9-1.7c-0.9,0-1.6,0.5-1.6,1.2c0,0.8,0.5,1.1,1.7,1.3l0.6,0.1
			c1.6,0.3,2.5,1,2.5,2.4c0,1.5-1.3,2.5-3,2.5c-2.1,0-3.3-1.2-3.3-3v-0.4h1.2v0.3c0,1.3,0.8,2.1,2.1,2.1c1.1,0,1.8-0.6,1.8-1.4
			c0-0.8-0.5-1.1-1.6-1.4l-0.6-0.1c-1.5-0.3-2.6-0.9-2.6-2.4c0-1.4,1.2-2.3,2.8-2.3C53.2,30.6,54.5,31.6,54.5,33.3z"/>
		<path class="st4" d="M62.5,30.8v1.1h-2.7v7.3h-1.2v-7.3h-2.7v-1.1H62.5z"/>
		<path class="st4" d="M69.3,30.8l2.2,7.3h0.1l2.2-7.3h1.3l-2.6,8.4h-1.9L68,30.8H69.3z"/>
		<path class="st4" d="M78,30.8v8.4h-1.2v-8.4H78z"/>
		<path class="st4" d="M85.9,30.8v1.1l-4.4,6.2H86v1.1h-5.9v-1.1l4.4-6.2h-4.3v-1.1H85.9z"/>
	</g>
	<line class="st7" x1="29" y1="53" x2="483" y2="53"/>
	<g>
		<path class="st4" d="M35.6,271.8v0.4h-1.2v-0.3c0-1.1-0.8-1.7-1.9-1.7c-0.9,0-1.6,0.5-1.6,1.2c0,0.8,0.5,1.1,1.7,1.3l0.6,0.1
			c1.6,0.3,2.5,1,2.5,2.4c0,1.5-1.3,2.5-3,2.5c-2.1,0-3.3-1.2-3.3-3v-0.4h1.2v0.3c0,1.3,0.8,2.1,2.1,2.1c1.1,0,1.8-0.6,1.8-1.4
			c0-0.8-0.5-1.1-1.6-1.4l-0.6-0.1c-1.5-0.3-2.6-0.9-2.6-2.4c0-1.4,1.2-2.3,2.8-2.3C34.3,269.1,35.6,270.1,35.6,271.8z"/>
		<path class="st4" d="M43.2,269.3v1.1H39v2.5h3.8v1.1H39v2.6h4.2v1.1h-5.4v-8.4H43.2z"/>
		<path class="st4" d="M48.3,269.1c2,0,3.1,1.2,3.1,3v0.2h-1.2v-0.2c0-1.2-0.6-2-1.9-2s-2.1,0.8-2.1,2.3v2c0,1.5,0.7,2.3,2.1,2.3
			s1.9-0.8,1.9-2v-0.2h1.2v0.2c0,1.9-1.1,3.1-3.1,3.1c-2.1,0-3.3-1.2-3.3-3.4v-1.9C45,270.4,46.3,269.1,48.3,269.1z"/>
		<path class="st4" d="M56.5,269.1c2,0,3.3,1.3,3.3,3.4v1.9c0,2.2-1.2,3.4-3.3,3.4s-3.3-1.3-3.3-3.4v-1.9
			C53.3,270.4,54.5,269.1,56.5,269.1z M54.5,274.5c0,1.5,0.7,2.3,2.1,2.3s2.1-0.8,2.1-2.3v-1.9c0-1.5-0.7-2.3-2.1-2.3
			s-2.1,0.8-2.1,2.3V274.5z"/>
		<path class="st4" d="M64.2,269.3l2.6,7.3h0.1v-7.3h1.2v8.4h-2.2l-2.6-7.3h-0.1v7.3H62v-8.4H64.2z"/>
		<path class="st4" d="M73.2,269.3c2.1,0,3.4,1.1,3.4,3.3v1.9c0,2.2-1.3,3.3-3.4,3.3h-2.6v-8.4H73.2z M71.8,276.6h1.4
			c1.5,0,2.2-0.6,2.2-2.2v-1.8c0-1.5-0.8-2.2-2.2-2.2h-1.4V276.6z"/>
		<path class="st4" d="M83.6,269.3l2.2,7.3h0.1l2.2-7.3h1.3l-2.6,8.4h-1.9l-2.6-8.4H83.6z"/>
		<path class="st4" d="M92.4,269.3v8.4h-1.2v-8.4H92.4z"/>
		<path class="st4" d="M100.3,269.3v1.1l-4.4,6.2h4.4v1.1h-5.9v-1.1l4.4-6.2h-4.3v-1.1H100.3z"/>
	</g>
	<line class="st7" x1="29" y1="291.5" x2="482" y2="291.5"/>
	<g>
		<path class="st4" d="M291.2,358.5V421h-62.5v-62.5H291.2 M292.2,357.5h-1h-62.5h-1v1V421v1h1h62.5h1v-1v-62.5V357.5L292.2,357.5z"
			/>
	</g>
	<g>
		<g>
			<rect x="107.5" y="358.2" class="st3" width="7.4" height="7.4"/>
			<path class="st0" d="M114.7,358.5v6.9h-6.9v-6.9H114.7 M115.2,358h-0.5h-6.9h-0.5v0.5v6.9v0.5h0.5h6.9h0.5v-0.5v-6.9V358
				L115.2,358z"/>
		</g>
		<g>
			<rect x="107.5" y="365.2" class="st3" width="7.4" height="7.4"/>
			<path class="st0" d="M114.7,365.4v6.9h-6.9v-6.9H114.7 M115.2,364.9h-0.5h-6.9h-0.5v0.5v6.9v0.5h0.5h6.9h0.5v-0.5v-6.9V364.9
				L115.2,364.9z"/>
		</g>
		<g>
			<rect x="107.5" y="372.1" class="st3" width="7.4" height="7.4"/>
			<path class="st0" d="M114.7,372.4v6.9h-6.9v-6.9H114.7 M115.2,371.9h-0.5h-6.9h-0.5v0.5v6.9v0.5h0.5h6.9h0.5v-0.5v-6.9V371.9
				L115.2,371.9z"/>
		</g>
		<g>
			<rect x="107.5" y="379.1" class="st3" width="7.4" height="7.4"/>
			<path class="st0" d="M114.7,379.3v6.9h-6.9v-6.9H114.7 M115.2,378.8h-0.5h-6.9h-0.5v0.5v6.9v0.5h0.5h6.9h0.5v-0.5v-6.9V378.8
				L115.2,378.8z"/>
		</g>
		<g>
			<rect x="107.5" y="386" class="st3" width="7.4" height="7.4"/>
			<path class="st0" d="M114.7,386.3v6.9h-6.9v-6.9H114.7 M115.2,385.8h-0.5h-6.9h-0.5v0.5v6.9v0.5h0.5h6.9h0.5v-0.5v-6.9V385.8
				L115.2,385.8z"/>
		</g>
		<g>
			<rect x="107.5" y="393" class="st3" width="7.4" height="7.4"/>
			<path class="st0" d="M114.7,393.2v6.9h-6.9v-6.9H114.7 M115.2,392.7h-0.5h-6.9h-0.5v0.5v6.9v0.5h0.5h6.9h0.5v-0.5v-6.9V392.7
				L115.2,392.7z"/>
		</g>
		<g>
			<rect x="107.5" y="399.9" class="st3" width="7.4" height="7.4"/>
			<path class="st0" d="M114.7,400.2v6.9h-6.9v-6.9H114.7 M115.2,399.7h-0.5h-6.9h-0.5v0.5v6.9v0.5h0.5h6.9h0.5v-0.5v-6.9V399.7
				L115.2,399.7z"/>
		</g>
		<g>
			<rect x="107.5" y="406.9" class="st3" width="7.4" height="7.4"/>
			<path class="st0" d="M114.7,407.1v6.9h-6.9v-6.9H114.7 M115.2,406.6h-0.5h-6.9h-0.5v0.5v6.9v0.5h0.5h6.9h0.5v-0.5v-6.9V406.6
				L115.2,406.6z"/>
		</g>
		<g>
			<rect x="107.5" y="413.8" class="st3" width="7.4" height="7.4"/>
			<path class="st0" d="M114.7,414.1v6.9h-6.9v-6.9H114.7 M115.2,413.6h-0.5h-6.9h-0.5v0.5v6.9v0.5h0.5h6.9h0.5V421v-6.9V413.6
				L115.2,413.6z"/>
		</g>
	</g>
	<g>
		<g>
			<rect x="114.5" y="358.2" class="st3" width="7.4" height="7.4"/>
			<path class="st0" d="M121.7,358.5v6.9h-6.9v-6.9H121.7 M122.2,358h-0.5h-6.9h-0.5v0.5v6.9v0.5h0.5h6.9h0.5v-0.5v-6.9V358
				L122.2,358z"/>
		</g>
		<g>
			<rect x="114.5" y="365.2" class="st3" width="7.4" height="7.4"/>
			<path class="st0" d="M121.7,365.4v6.9h-6.9v-6.9H121.7 M122.2,364.9h-0.5h-6.9h-0.5v0.5v6.9v0.5h0.5h6.9h0.5v-0.5v-6.9V364.9
				L122.2,364.9z"/>
		</g>
		<g>
			<rect x="114.5" y="372.1" class="st3" width="7.4" height="7.4"/>
			<path class="st0" d="M121.7,372.4v6.9h-6.9v-6.9H121.7 M122.2,371.9h-0.5h-6.9h-0.5v0.5v6.9v0.5h0.5h6.9h0.5v-0.5v-6.9V371.9
				L122.2,371.9z"/>
		</g>
		<g>
			<rect x="114.5" y="379.1" class="st3" width="7.4" height="7.4"/>
			<path class="st0" d="M121.7,379.3v6.9h-6.9v-6.9H121.7 M122.2,378.8h-0.5h-6.9h-0.5v0.5v6.9v0.5h0.5h6.9h0.5v-0.5v-6.9V378.8
				L122.2,378.8z"/>
		</g>
		<g>
			<rect x="114.5" y="386" class="st3" width="7.4" height="7.4"/>
			<path class="st0" d="M121.7,386.3v6.9h-6.9v-6.9H121.7 M122.2,385.8h-0.5h-6.9h-0.5v0.5v6.9v0.5h0.5h6.9h0.5v-0.5v-6.9V385.8
				L122.2,385.8z"/>
		</g>
		<g>
			<rect x="114.5" y="393" class="st3" width="7.4" height="7.4"/>
			<path class="st0" d="M121.7,393.2v6.9h-6.9v-6.9H121.7 M122.2,392.7h-0.5h-6.9h-0.5v0.5v6.9v0.5h0.5h6.9h0.5v-0.5v-6.9V392.7
				L122.2,392.7z"/>
		</g>
	</g>
	<g>
		<path class="st4" d="M170.2,358.5V421h-62.5v-62.5H170.2 M171.2,357.5h-1h-62.5h-1v1V421v1h1h62.5h1v-1v-62.5V357.5L171.2,357.5z"
			/>
	</g>
	<g>
		<path class="st5" d="M160.3,411.3v-2.4h1.1v2.4h1.5v-2.4h1.1v2.4h1.5v1.1H164v1.5h1.5v1.1H164v2.4h-1.1v-2.4h-1.5v2.4h-1.1v-2.4
			h-1.5v-1.1h1.5v-1.5h-1.5v-1.1H160.3z M161.4,413.9h1.5v-1.5h-1.5V413.9z"/>
	</g>
	<g>
		<path class="st5" d="M160.3,411.3v-2.4h1.1v2.4h1.5v-2.4h1.1v2.4h1.5v1.1H164v1.5h1.5v1.1H164v2.4h-1.1v-2.4h-1.5v2.4h-1.1v-2.4
			h-1.5v-1.1h1.5v-1.5h-1.5v-1.1H160.3z M161.4,413.9h1.5v-1.5h-1.5V413.9z"/>
	</g>
	<g>
		<g>
			<path class="st4" d="M346.7,391.8v-2.4h1.1v2.4h1.5v-2.4h1.1v2.4h1.5v1.1h-1.5v1.5h1.5v1.1h-1.5v2.4h-1.1v-2.4h-1.5v2.4h-1.1
				v-2.4h-1.5v-1.1h1.5v-1.5h-1.5v-1.1H346.7z M347.8,394.4h1.5v-1.5h-1.5V394.4z"/>
			<path class="st4" d="M372.4,392.4v0.8l-2.8,2.8l-0.7-0.7l1.6-1.6l0.3-0.3l0-0.1l-0.4,0H364v-1.1h6.4l0.4,0l0-0.1l-0.3-0.3
				l-1.6-1.6l0.7-0.7L372.4,392.4z"/>
			<path class="st4" d="M383.5,389.4l2.6,7.3h0.1v-7.3h1.2v8.4h-2.2l-2.6-7.3h-0.1v7.3h-1.2v-8.4H383.5z"/>
			<path class="st4" d="M390.4,389.4v5.6c0,1.2,0.6,1.9,1.9,1.9c1.3,0,1.9-0.7,1.9-1.9v-5.6h1.2v5.6c0,1.9-1.2,3-3.1,3
				c-2,0-3.1-1.1-3.1-3v-5.6H390.4z"/>
			<path class="st4" d="M399.3,389.4l2.1,7.1h0.1l2.1-7.1h2.2v8.4h-1.2v-7.1h-0.1l-2.1,7.1h-1.8l-2.1-7.1h-0.1v7.1h-1.2v-8.4H399.3z
				"/>
			<path class="st4" d="M411.1,389.4c1.5,0,2.5,0.8,2.5,2.3c0,1-0.6,1.6-1.4,1.9v0.1c0.8,0.2,1.4,0.9,1.4,1.9c0,1.4-1,2.3-2.5,2.3
				h-3.5v-8.4H411.1z M408.8,393h2.2c0.9,0,1.4-0.5,1.4-1.3c0-0.8-0.6-1.2-1.4-1.2h-2.2V393z M408.8,396.7h2.2
				c0.9,0,1.4-0.5,1.4-1.3c0-0.8-0.6-1.3-1.4-1.3h-2.2V396.7z"/>
			<path class="st4" d="M420.4,389.4v1.1h-4.2v2.5h3.8v1.1h-3.8v2.6h4.2v1.1H415v-8.4H420.4z"/>
			<path class="st4" d="M425.8,394.3l1.9,3.5h-1.3l-1.8-3.4H423v3.4h-1.2v-8.4h3.5c1.5,0,2.6,1,2.6,2.5
				C427.9,393.2,427,394.1,425.8,394.3z M423,393.3h2.2c1,0,1.5-0.5,1.5-1.4c0-0.9-0.5-1.4-1.5-1.4H423V393.3z"/>
			<path class="st4" d="M435.7,389.2c2,0,3.3,1.3,3.3,3.4v1.9c0,2.2-1.2,3.4-3.3,3.4s-3.3-1.3-3.3-3.4v-1.9
				C432.5,390.5,433.7,389.2,435.7,389.2z M433.7,394.6c0,1.5,0.7,2.3,2.1,2.3s2.1-0.8,2.1-2.3v-1.9c0-1.5-0.7-2.3-2.1-2.3
				s-2.1,0.8-2.1,2.3V394.6z"/>
			<path class="st4" d="M445.7,389.4v1.1h-4v2.5h3.8v1.1h-3.8v3.7h-1.2v-8.4H445.7z"/>
			<path class="st4" d="M453.4,389.2c2,0,3.1,1.2,3.1,3v0.2h-1.2v-0.2c0-1.2-0.6-2-1.9-2c-1.3,0-2.1,0.8-2.1,2.3v2
				c0,1.5,0.7,2.3,2.1,2.3c1.3,0,1.9-0.8,1.9-2v-0.2h1.2v0.2c0,1.9-1.1,3.1-3.1,3.1c-2.1,0-3.3-1.2-3.3-3.4v-1.9
				C450.1,390.5,451.3,389.2,453.4,389.2z"/>
			<path class="st4" d="M460.9,389.2c2,0,3.3,1.3,3.3,3.4v1.9c0,2.2-1.2,3.4-3.3,3.4s-3.3-1.3-3.3-3.4v-1.9
				C457.6,390.5,458.8,389.2,460.9,389.2z M458.8,394.6c0,1.5,0.7,2.3,2.1,2.3s2.1-0.8,2.1-2.3v-1.9c0-1.5-0.7-2.3-2.1-2.3
				s-2.1,0.8-2.1,2.3V394.6z"/>
			<path class="st4" d="M466.1,389.4l2.2,7.3h0.1l2.2-7.3h1.3l-2.6,8.4h-1.9l-2.6-8.4H466.1z"/>
			<path class="st4" d="M478.2,389.4v1.1h-4.2v2.5h3.8v1.1h-3.8v2.6h4.2v1.1h-5.4v-8.4H478.2z"/>
			<path class="st4" d="M483.7,394.3l1.9,3.5h-1.3l-1.8-3.4h-1.7v3.4h-1.2v-8.4h3.5c1.5,0,2.6,1,2.6,2.5
				C485.7,393.2,484.9,394.1,483.7,394.3z M480.8,393.3h2.2c1,0,1.5-0.5,1.5-1.4c0-0.9-0.5-1.4-1.5-1.4h-2.2V393.3z"/>
			<path class="st4" d="M492.8,391.9v0.4h-1.2V392c0-1.1-0.8-1.7-1.9-1.7c-0.9,0-1.6,0.5-1.6,1.2c0,0.8,0.5,1.1,1.7,1.3l0.6,0.1
				c1.6,0.3,2.5,1,2.5,2.4c0,1.5-1.3,2.5-3,2.5c-2.1,0-3.3-1.2-3.3-3v-0.4h1.2v0.3c0,1.3,0.8,2.1,2.1,2.1c1.1,0,1.8-0.6,1.8-1.4
				s-0.5-1.1-1.6-1.4l-0.6-0.1c-1.5-0.3-2.6-0.9-2.6-2.4c0-1.4,1.2-2.3,2.8-2.3C491.5,389.2,492.8,390.2,492.8,391.9z"/>
			<path class="st4" d="M384.3,403.6c2,0,3.3,1.3,3.3,3.4v1.9c0,2.2-1.2,3.4-3.3,3.4c-2,0-3.3-1.3-3.3-3.4v-1.9
				C381,404.9,382.2,403.6,384.3,403.6z M382.2,409c0,1.5,0.7,2.3,2.1,2.3c1.4,0,2.1-0.8,2.1-2.3V407c0-1.5-0.7-2.3-2.1-2.3
				c-1.4,0-2.1,0.8-2.1,2.3V409z"/>
			<path class="st4" d="M391.2,403.8l2.6,7.3h0.1v-7.3h1.2v8.4h-2.2l-2.6-7.3h-0.1v7.3H389v-8.4H391.2z"/>
			<path class="st4" d="M400.2,407.1c0-2.2,1.2-3.4,3.3-3.4c2,0,3.1,1.2,3.1,3.1v0.1h-1.2v-0.1c0-1.2-0.6-2-1.9-2
				c-1.3,0-2.1,0.8-2.1,2.3v2c0,1.5,0.7,2.3,2.1,2.3c1.3,0,1.9-0.8,1.9-2v-0.1h-2.3v-1.1h3.5v1.2c0,1.9-1.1,3.1-3.1,3.1
				c-2.1,0-3.3-1.2-3.3-3.4V407.1z"/>
			<path class="st4" d="M411,403.6c2,0,3.3,1.3,3.3,3.4v1.9c0,2.2-1.2,3.4-3.3,3.4s-3.3-1.3-3.3-3.4v-1.9
				C407.7,404.9,408.9,403.6,411,403.6z M408.9,409c0,1.5,0.7,2.3,2.1,2.3s2.1-0.8,2.1-2.3V407c0-1.5-0.7-2.3-2.1-2.3
				s-2.1,0.8-2.1,2.3V409z"/>
			<path class="st4" d="M418.6,403.6c2,0,3.3,1.3,3.3,3.4v1.9c0,2.2-1.2,3.4-3.3,3.4s-3.3-1.3-3.3-3.4v-1.9
				C415.4,404.9,416.6,403.6,418.6,403.6z M416.6,409c0,1.5,0.7,2.3,2.1,2.3s2.1-0.8,2.1-2.3V407c0-1.5-0.7-2.3-2.1-2.3
				s-2.1,0.8-2.1,2.3V409z"/>
			<path class="st4" d="M423.1,407.1c0-2.2,1.2-3.4,3.3-3.4c2,0,3.1,1.2,3.1,3.1v0.1h-1.2v-0.1c0-1.2-0.6-2-1.9-2
				c-1.3,0-2.1,0.8-2.1,2.3v2c0,1.5,0.7,2.3,2.1,2.3c1.3,0,1.9-0.8,1.9-2v-0.1h-2.3v-1.1h3.5v1.2c0,1.9-1.1,3.1-3.1,3.1
				c-2.1,0-3.3-1.2-3.3-3.4V407.1z"/>
			<path class="st4" d="M432.1,403.8v7.3h4.1v1.1h-5.3v-8.4H432.1z"/>
			<path class="st4" d="M442.7,403.8v1.1h-4.2v2.5h3.8v1.1h-3.8v2.6h4.2v1.1h-5.4v-8.4H442.7z"/>
			<path class="st4" d="M449.9,403.8l2.6,7.3h0.1v-7.3h1.2v8.4h-2.2l-2.6-7.3h-0.1v7.3h-1.2v-8.4H449.9z"/>
			<path class="st4" d="M460.9,403.8v1.1h-4.2v2.5h3.8v1.1h-3.8v2.6h4.2v1.1h-5.4v-8.4H460.9z"/>
			<path class="st4" d="M463,403.8l1,7.3h0.1l1.3-7.3h1.9l1.3,7.3h0.1l1-7.3h1.2l-1.2,8.4h-2.1l-1.3-7.3h-0.1l-1.3,7.3H463l-1.2-8.4
				H463z"/>
			<path class="st4" d="M477.8,406.3v0.4h-1.2v-0.3c0-1.1-0.8-1.7-1.9-1.7c-0.9,0-1.6,0.5-1.6,1.2c0,0.8,0.5,1.1,1.7,1.3l0.6,0.1
				c1.6,0.3,2.5,1,2.5,2.4c0,1.5-1.3,2.5-3,2.5c-2.1,0-3.3-1.2-3.3-3v-0.4h1.2v0.3c0,1.3,0.8,2.1,2.1,2.1c1.1,0,1.8-0.6,1.8-1.4
				c0-0.8-0.5-1.1-1.6-1.4l-0.6-0.1c-1.5-0.3-2.6-0.9-2.6-2.4c0-1.4,1.2-2.3,2.8-2.3C476.5,403.6,477.8,404.6,477.8,406.3z"/>
		</g>
		<g>
			<path class="st4" d="M371.4,370.4v0.8l-2.8,2.8l-0.7-0.7l1.6-1.6l0.3-0.3l0-0.1l-0.4,0H363v-1.1h6.4l0.4,0l0-0.1l-0.3-0.3
				l-1.6-1.6l0.7-0.7L371.4,370.4z"/>
			<path class="st4" d="M383.5,367.4l2.6,7.3h0.1v-7.3h1.2v8.4h-2.2l-2.6-7.3h-0.1v7.3h-1.2v-8.4H383.5z"/>
			<path class="st4" d="M394.6,367.4v1.1h-4.2v2.5h3.8v1.1h-3.8v2.6h4.2v1.1h-5.4v-8.4H394.6z"/>
			<path class="st4" d="M396.7,367.4l1,7.3h0.1l1.3-7.3h1.9l1.3,7.3h0.1l1-7.3h1.2l-1.2,8.4h-2.1l-1.3-7.3h-0.1l-1.3,7.3h-2.1
				l-1.2-8.4H396.7z"/>
			<path class="st4" d="M411.4,369.9v0.4h-1.2V370c0-1.1-0.8-1.7-1.9-1.7c-0.9,0-1.6,0.5-1.6,1.2c0,0.8,0.5,1.1,1.7,1.3l0.6,0.1
				c1.6,0.3,2.5,1,2.5,2.4c0,1.5-1.3,2.5-3,2.5c-2.1,0-3.3-1.2-3.3-3v-0.4h1.2v0.3c0,1.3,0.8,2.1,2.1,2.1c1.1,0,1.8-0.6,1.8-1.4
				s-0.5-1.1-1.6-1.4l-0.6-0.1c-1.5-0.3-2.6-0.9-2.6-2.4c0-1.4,1.2-2.3,2.8-2.3C410.1,367.2,411.4,368.2,411.4,369.9z"/>
			<path class="st4" d="M419.5,367.2c2,0,3.1,1.2,3.1,3v0.2h-1.2v-0.2c0-1.2-0.6-2-1.9-2c-1.3,0-2.1,0.8-2.1,2.3v2
				c0,1.5,0.7,2.3,2.1,2.3c1.3,0,1.9-0.8,1.9-2v-0.2h1.2v0.2c0,1.9-1.1,3.1-3.1,3.1c-2.1,0-3.3-1.2-3.3-3.4v-1.9
				C416.2,368.5,417.4,367.2,419.5,367.2z"/>
			<path class="st4" d="M427,367.2c2,0,3.3,1.3,3.3,3.4v1.9c0,2.2-1.2,3.4-3.3,3.4s-3.3-1.3-3.3-3.4v-1.9
				C423.7,368.5,425,367.2,427,367.2z M424.9,372.6c0,1.5,0.7,2.3,2.1,2.3s2.1-0.8,2.1-2.3v-1.9c0-1.5-0.7-2.3-2.1-2.3
				s-2.1,0.8-2.1,2.3V372.6z"/>
			<path class="st4" d="M432.2,367.4l2.2,7.3h0.1l2.2-7.3h1.3l-2.6,8.4h-1.9l-2.6-8.4H432.2z"/>
			<path class="st4" d="M444.3,367.4v1.1h-4.2v2.5h3.8v1.1h-3.8v2.6h4.2v1.1H439v-8.4H444.3z"/>
			<path class="st4" d="M449.8,372.3l1.9,3.5h-1.3l-1.8-3.4h-1.7v3.4h-1.2v-8.4h3.5c1.5,0,2.6,1,2.6,2.5
				C451.8,371.2,451,372.1,449.8,372.3z M446.9,371.3h2.2c1,0,1.5-0.5,1.5-1.4c0-0.9-0.5-1.4-1.5-1.4h-2.2V371.3z"/>
		</g>
		<rect x="343.4" y="365.8" class="st3" width="9.2" height="9.2"/>
	</g>
	<g>
		<g>
			<line class="st8" x1="235.7" y1="365.7" x2="284.3" y2="414.3"/>
			<g>
				<polygon class="st5" points="235.1,370.9 236.1,370.9 235.9,365.9 240.9,366.1 240.9,365.1 234.9,364.9 				"/>
			</g>
			<g>
				<polygon class="st5" points="279.1,414.9 279.1,413.9 284.1,414.1 283.9,409.1 284.9,409.1 285.1,415.1 				"/>
			</g>
		</g>
	</g>
	<g>
		<g>
			<line class="st8" x1="284.3" y1="365.7" x2="235.7" y2="414.3"/>
			<g>
				<polygon class="st5" points="279.1,365.1 279.1,366.1 284.1,365.9 283.9,370.9 284.9,370.9 285.1,364.9 				"/>
			</g>
			<g>
				<polygon class="st5" points="235.1,409.1 236.1,409.1 235.9,414.1 240.9,413.9 240.9,414.9 234.9,415.1 				"/>
			</g>
		</g>
	</g>
	<rect x="239" y="369" transform="matrix(0.7071 0.7071 -0.7071 0.7071 351.4239 -69.4123)" class="st0" width="41" height="41"/>
	<g>
		<path class="st5" d="M253.2,380v7h-1v-6.1h-0.1l-1.3,2.1h-1.1l2-3.1H253.2z"/>
		<path class="st5" d="M257,379.9c1.6,0,2.6,1.1,2.6,2.9v1.6c0,1.8-1,2.9-2.6,2.9s-2.6-1.1-2.6-2.9v-1.6
			C254.4,380.9,255.4,379.9,257,379.9z M255.4,384.3c0,1.2,0.5,1.9,1.6,1.9c1.1,0,1.6-0.7,1.6-1.9v-1.6c0-1.2-0.5-1.9-1.6-1.9
			c-1.1,0-1.6,0.7-1.6,1.9V384.3z"/>
		<path class="st5" d="M263.2,379.9c1.6,0,2.6,1.1,2.6,2.9v1.6c0,1.8-1,2.9-2.6,2.9s-2.6-1.1-2.6-2.9v-1.6
			C260.6,380.9,261.6,379.9,263.2,379.9z M261.6,384.3c0,1.2,0.5,1.9,1.6,1.9c1.1,0,1.6-0.7,1.6-1.9v-1.6c0-1.2-0.5-1.9-1.6-1.9
			c-1.1,0-1.6,0.7-1.6,1.9V384.3z"/>
		<path class="st5" d="M243.6,390.4v7h-1v-7H243.6z"/>
		<path class="st5" d="M246.8,390.4l1.8,6h0.1l1.8-6h1.8v7h-1v-5.9h-0.1l-1.8,5.9h-1.5l-1.8-5.9H246v5.9h-1v-7H246.8z"/>
		<path class="st5" d="M257,390.4l2.2,7h-1.1l-0.5-1.7h-2.8l-0.5,1.7h-1.1l2.2-7H257z M257.3,394.8l-1.1-3.5h-0.1l-1.1,3.5H257.3z"
			/>
		<path class="st5" d="M259.7,393.1c0-1.8,1-2.9,2.7-2.9c1.7,0,2.6,1,2.6,2.6v0.1h-1v-0.1c0-1-0.5-1.6-1.6-1.6
			c-1.1,0-1.7,0.7-1.7,1.9v1.6c0,1.2,0.6,1.9,1.7,1.9c1.1,0,1.6-0.7,1.6-1.6v-0.1h-1.9V394h2.9v1c0,1.6-0.9,2.6-2.6,2.6
			c-1.7,0-2.7-1-2.7-2.9V393.1z"/>
		<path class="st5" d="M270.7,390.4v0.9h-3.5v2.1h3.2v0.9h-3.2v2.1h3.5v0.9h-4.5v-7H270.7z"/>
		<path class="st5" d="M276.6,392.5v0.3h-1v-0.2c0-0.9-0.6-1.4-1.6-1.4c-0.8,0-1.3,0.4-1.3,1c0,0.6,0.4,0.9,1.4,1.1l0.5,0.1
			c1.3,0.3,2.1,0.8,2.1,2c0,1.3-1.1,2.1-2.5,2.1c-1.7,0-2.8-1-2.8-2.5v-0.3h1v0.2c0,1.1,0.6,1.7,1.8,1.7c0.9,0,1.5-0.5,1.5-1.2
			c0-0.7-0.4-0.9-1.3-1.1l-0.5-0.1c-1.2-0.3-2.2-0.7-2.2-2c0-1.2,1-1.9,2.3-1.9C275.5,390.3,276.6,391,276.6,392.5z"/>
	</g>
</g>
</svg>
