<svg id="Livello_1" data-name="Livello 1" xmlns="http://www.w3.org/2000/svg" viewBox="0 0 830 453.89"><defs><style>.cls-1{fill:#f6f6f6;}.cls-2{fill:#e73f20;}.cls-3{fill:#fff;}.cls-4{fill:#1e1e1c;}.cls-5,.cls-6{fill:none;stroke-miterlimit:10;}.cls-5{stroke:#e73f20;}.cls-6{stroke:#c7c6c6;}.cls-7{fill:#b3b2b2;}.cls-8{fill:#c7c6c6;}</style></defs><title>Tavola disegno 1</title><rect class="cls-1" y="226.44" width="621.2" height="136.47"/><rect class="cls-2" x="11" y="237.9" width="127" height="20.9"/><path class="cls-3" d="M21.9,244.2c2.2,0,3.4,1.1,3.4,3.3v1.7c0,2.2-1.2,3.3-3.4,3.3H19.2v-8.4h2.7Zm-1.4,7.1h1.3c1.4,0,2-.7,2-2.1v-1.8c0-1.4-.6-2.1-2-2.1H20.5Z"/><path class="cls-3" d="M30.9,244.2l2.5,8.4H31.9l-.6-1.9H28.1l-.6,1.9H26l2.5-8.4Zm.1,5.2-1.2-4h-.1l-1.2,4Z"/><path class="cls-3" d="M40,244.2v1.3H37.4v7.1H36v-7.1H33.4v-1.3Z"/><path class="cls-3" d="M44.8,244.2l2.5,8.4H45.8l-.6-1.9H42l-.6,1.9H39.9l2.5-8.4Zm.1,5.2-1.2-4h-.1l-1.2,4Z"/><path class="cls-3" d="M58,244.2v1.3H53.9v2.3h3.8v1.3H54v2.3h4.1v1.3H52.6v-8.4H58Z"/><path class="cls-3" d="M60.7,244.2l1.9,3.2h.2l1.8-3.2h1.6l-2.4,4.1v.2l2.4,4.2H64.6l-1.9-3.2h-.2l-1.9,3.2H59l2.5-4.2v-.2l-2.4-4.1Z"/><path class="cls-3" d="M71,244.2a2.42,2.42,0,0,1,2.6,2.6,2.47,2.47,0,0,1-2.6,2.6H69v3.2H67.7v-8.4Zm-1.9,3.9h1.8a1.3,1.3,0,1,0,0-2.6H69.1Z"/><path class="cls-3" d="M76.5,244.2v7.1h4v1.3H75.1v-8.4Z"/><path class="cls-3" d="M85.1,244a3.18,3.18,0,0,1,3.4,3.5v1.8a3.4,3.4,0,1,1-6.8,0v-1.8A3.18,3.18,0,0,1,85.1,244Zm-2,5.3c0,1.3.6,2.1,2,2.1s2-.8,2-2.1v-1.9a2,2,0,1,0-4,0Z"/><path class="cls-3" d="M94.5,249.2l1.8,3.4H94.7L93,249.3H91.5v3.3H90.1v-8.4h3.6a2.42,2.42,0,0,1,2.6,2.6A2.28,2.28,0,0,1,94.5,249.2Zm-3-1.2h2.1a1.3,1.3,0,1,0,0-2.6H91.5Z"/><path class="cls-3" d="M102,244.2l2.5,8.4H103l-.6-1.9H99.2l-.6,1.9H97.1l2.5-8.4Zm.1,5.2-1.2-4h-.1l-1.2,4Z"/><path class="cls-3" d="M111.2,244.2v1.3h-2.6v7.1h-1.4v-7.1h-2.6v-1.3Z"/><path class="cls-3" d="M114,244.2v8.4h-1.4v-8.4Z"/><path class="cls-3" d="M119.1,244a3.18,3.18,0,0,1,3.4,3.5v1.8a3.4,3.4,0,1,1-6.8,0v-1.8A3.18,3.18,0,0,1,119.1,244Zm-2,5.3c0,1.3.6,2.1,2,2.1s2-.8,2-2.1v-1.9a2,2,0,1,0-4,0Z"/><path class="cls-3" d="M126.7,244.2l2.3,7.1h.1v-7.1h1.4v8.4H128l-2.3-7.1h-.1v7.1h-1.4v-8.4Z"/><rect class="cls-4" x="359.36" y="287.32" width="1" height="13.28"/><polygon class="cls-4" points="355.77 297.29 356.5 296.61 359.86 300.22 363.21 296.61 363.95 297.29 359.86 301.69 355.77 297.29"/><rect class="cls-4" x="359.33" y="362.9" width="1" height="13.28"/><polygon class="cls-4" points="355.74 372.87 356.47 372.19 359.83 375.8 363.19 372.19 363.92 372.87 359.83 377.27 355.74 372.87"/><rect class="cls-1" width="621.2" height="211.94"/><line class="cls-5" x1="335.72" y1="45.7" x2="384.08" y2="45.7"/><rect class="cls-2" x="10.9" y="10.9" width="118.9" height="20.9"/><path class="cls-3" d="M20.6,17.2c2.2,0,3.4,1.1,3.4,3.3v1.7c0,2.2-1.2,3.3-3.4,3.3H17.9V17.1h2.7Zm-1.4,7.1h1.4c1.4,0,2-.7,2-2.1V20.4c0-1.4-.6-2.1-2-2.1H19.3v6Z"/><path class="cls-3" d="M29.6,17.2l2.5,8.4H30.6L30,23.7H26.8l-.6,1.9H24.7l2.5-8.4Zm.1,5.2-1.2-4h-.1l-1.2,4Z"/><path class="cls-3" d="M38.8,17.2v1.3H36.2v7.1H34.8V18.5H32.2V17.2Z"/><path class="cls-3" d="M43.5,17.2,46,25.6H44.5l-.6-1.9H40.7l-.6,1.9H38.6l2.5-8.4Zm.1,5.2-1.2-4h-.1l-1.2,4Z"/><path class="cls-3" d="M54.3,17c2.1,0,3.2,1.2,3.2,3v.3H56.1v-.2a1.63,1.63,0,0,0-1.8-1.8,1.87,1.87,0,0,0-2,2.1v2a1.87,1.87,0,0,0,2,2.1,1.59,1.59,0,0,0,1.8-1.8v-.2h1.5v.2a2.87,2.87,0,0,1-3.2,3.1A3.1,3.1,0,0,1,51,22.4V20.5A3.06,3.06,0,0,1,54.3,17Z"/><path class="cls-3" d="M62.3,17a3.18,3.18,0,0,1,3.4,3.5v1.8a3.4,3.4,0,1,1-6.8,0V20.5A3.18,3.18,0,0,1,62.3,17Zm-2,5.4c0,1.3.6,2.1,2,2.1s2-.8,2-2.1V20.5a2,2,0,1,0-4,0Z"/><path class="cls-3" d="M68.8,17.2v7.1h4v1.3H67.4V17.2Z"/><path class="cls-3" d="M75.6,17.2v7.1h4v1.3H74.2V17.2Z"/><path class="cls-3" d="M86.5,17.2v1.3H82.4v2.3h3.7v1.3H82.4v2.3h4.1v1.3H81V17.3h5.5Z"/><path class="cls-3" d="M91.3,17c2.1,0,3.2,1.2,3.2,3v.3H93.1v-.2a1.63,1.63,0,0,0-1.8-1.8,1.87,1.87,0,0,0-2,2.1v2a1.87,1.87,0,0,0,2,2.1,1.59,1.59,0,0,0,1.8-1.8v-.2h1.4v.2a2.87,2.87,0,0,1-3.2,3.1,3.1,3.1,0,0,1-3.4-3.4V20.5A3.18,3.18,0,0,1,91.3,17Z"/><path class="cls-3" d="M102.1,17.2v1.3H99.5v7.1H98.1V18.5H95.5V17.2Z"/><path class="cls-3" d="M104.9,17.2v8.4h-1.4V17.2Z"/><path class="cls-3" d="M110,17a3.18,3.18,0,0,1,3.4,3.5v1.8a3.4,3.4,0,1,1-6.8,0V20.5A3.18,3.18,0,0,1,110,17Zm-2,5.4c0,1.3.6,2.1,2,2.1s2-.8,2-2.1V20.5a2,2,0,1,0-4,0Z"/><path class="cls-3" d="M117.6,17.2l2.3,7.1h.1V17.2h1.4v8.4h-2.5l-2.3-7.1h-.1v7.1h-1.4V17.2Z"/><line class="cls-6" x1="634.28" y1="8.27" x2="634.28" y2="52.66"/><path class="cls-7" d="M645.9,22a3.67,3.67,0,0,1,4-4,3.38,3.38,0,0,1,3.74,3.62v.11H652v-.13a1.91,1.91,0,0,0-2.11-2.13,2.23,2.23,0,0,0-2.33,2.46v2.35a2.18,2.18,0,0,0,2.33,2.45,1.87,1.87,0,0,0,2.11-2.1v-.13h-2.51V23h4.14v1.54c0,2.25-1.32,3.61-3.74,3.61a3.64,3.64,0,0,1-4-4Z"/><path class="cls-7" d="M659.16,18a3.68,3.68,0,0,1,3.92,4v2.13c0,2.55-1.47,4-3.92,4s-3.93-1.48-3.93-4V22A3.68,3.68,0,0,1,659.16,18Zm-2.3,6.22c0,1.57.74,2.51,2.3,2.51s2.29-1,2.29-2.51V21.94c0-1.57-.8-2.51-2.29-2.51s-2.3,1-2.3,2.51Z"/><path class="cls-7" d="M668.65,18a3.68,3.68,0,0,1,3.92,4v2.13c0,2.55-1.47,4-3.92,4s-3.92-1.48-3.92-4V22C664.73,19.48,666.21,18,668.65,18Zm-2.3,6.22c0,1.57.74,2.51,2.3,2.51s2.29-1,2.29-2.51V21.94c0-1.57-.79-2.51-2.29-2.51s-2.3,1-2.3,2.51Z"/><path class="cls-7" d="M674.22,22a3.67,3.67,0,0,1,3.95-4,3.38,3.38,0,0,1,3.74,3.62v.11h-1.63v-.13a1.91,1.91,0,0,0-2.11-2.13,2.23,2.23,0,0,0-2.33,2.46v2.35a2.18,2.18,0,0,0,2.33,2.45,1.87,1.87,0,0,0,2.11-2.1v-.13h-2.5V23h4.13v1.54c0,2.25-1.32,3.61-3.74,3.61a3.64,3.64,0,0,1-3.95-4Z"/><path class="cls-7" d="M685.54,18.16v8.32h4.68V28h-6.3v-9.8Z"/><path class="cls-7" d="M698.27,18.16v1.48h-4.73v2.65h4.34v1.49h-4.34v2.7h4.8V28h-6.43v-9.8Z"/><path class="cls-7" d="M711.7,21.06v.43h-1.6v-.32c0-1.19-.8-1.76-2-1.76-1,0-1.74.53-1.74,1.3s.73,1.16,2,1.46l.38.08c1.92.42,3.07,1.16,3.07,2.9,0,1.89-1.52,3-3.56,3-2.4,0-3.92-1.34-3.92-3.57v-.38H706v.29a2.06,2.06,0,0,0,2.34,2.22c1.24,0,1.91-.67,1.91-1.5s-.67-1.23-1.94-1.5l-.38-.08c-1.89-.42-3.14-1.1-3.14-2.9S706.24,18,708.1,18C710.16,18,711.7,19.07,711.7,21.06Z"/><path class="cls-7" d="M720.21,18.16v1.48h-4.73v2.65h4.34v1.49h-4.34v2.7h4.8V28h-6.43v-9.8Z"/><path class="cls-7" d="M726.94,18.16l2.89,9.8h-1.7l-.64-2.26h-3.68L723.15,28h-1.7l2.9-9.8Zm.14,6.05-1.35-4.66h-.17l-1.35,4.66Z"/><path class="cls-7" d="M736.49,24,738.58,28h-1.79l-1.95-3.82h-1.78V28h-1.62v-9.8h4.2a2.88,2.88,0,0,1,3.08,3A2.82,2.82,0,0,1,736.49,24Zm-3.43-1.38h2.41a1.51,1.51,0,1,0,0-3h-2.41Z"/><path class="cls-7" d="M744.21,18c2.42,0,3.76,1.4,3.76,3.55v.29h-1.62v-.28a1.92,1.92,0,0,0-2.14-2.09,2.22,2.22,0,0,0-2.33,2.46v2.35a2.18,2.18,0,0,0,2.33,2.45,1.9,1.9,0,0,0,2.14-2.09v-.28H748v.27c0,2.17-1.29,3.57-3.76,3.57a3.65,3.65,0,0,1-4-4V22A3.68,3.68,0,0,1,744.21,18Z"/><path class="cls-7" d="M751.54,18.16v4.15h4V18.16h1.62V28h-1.62V23.79h-4V28h-1.62v-9.8Z"/><path class="cls-7" d="M648.21,34.94a2.28,2.28,0,0,1,2.36,2.43v.41h-4a1.63,1.63,0,0,0,1.72,1.64,1.56,1.56,0,0,0,1.51-1l.67.35a2.33,2.33,0,0,1-2.17,1.29,2.48,2.48,0,0,1-2.53-2.61A2.44,2.44,0,0,1,648.21,34.94Zm1.56,2.21a1.45,1.45,0,0,0-1.56-1.53,1.55,1.55,0,0,0-1.63,1.53Z"/><path class="cls-7" d="M652.85,35.09V36H653a1.75,1.75,0,0,1,1.71-1,1.85,1.85,0,0,1,1.93,2V40h-.77V37.08a1.24,1.24,0,0,0-1.37-1.4,1.57,1.57,0,0,0-1.62,1.78V40h-.76V35.09Z"/><path class="cls-7" d="M663.11,35.09v4.7a2.23,2.23,0,0,1-2.37,2.31,2.79,2.79,0,0,1-2.51-1.36l.7-.39a1.9,1.9,0,0,0,1.76,1.06,1.53,1.53,0,0,0,1.66-1.68V39h-.12a1.89,1.89,0,0,1-1.78,1,2.54,2.54,0,0,1,0-5,1.88,1.88,0,0,1,1.78,1h.14v-.84Zm-.76,2.39a1.72,1.72,0,1,0-3.44,0,1.72,1.72,0,1,0,3.44,0Z"/><path class="cls-7" d="M665.77,40H665V33h.76Z"/><path class="cls-7" d="M668.05,32.92a.65.65,0,1,1-.66.65A.64.64,0,0,1,668.05,32.92Zm.38,7h-.76V35.09h.76Z"/><path class="cls-7" d="M672.07,35a2.93,2.93,0,0,1,2.42,1.29l-.59.4a2.2,2.2,0,0,0-1.82-1c-.63,0-1.09.26-1.09.75s.53.63,1.13.72l.46.07c1.13.17,1.93.46,1.93,1.4s-.86,1.56-2.13,1.56a2.69,2.69,0,0,1-2.53-1.59l.69-.35a1.91,1.91,0,0,0,1.86,1.27c.8,0,1.34-.35,1.34-.87s-.61-.63-1.25-.72l-.46-.07c-1.07-.15-1.8-.49-1.8-1.41S671.07,35,672.07,35Z"/><path class="cls-7" d="M676.8,33v3h.12a1.75,1.75,0,0,1,1.71-1,1.85,1.85,0,0,1,1.93,2V40h-.77V37.08a1.24,1.24,0,0,0-1.37-1.4,1.57,1.57,0,0,0-1.62,1.78V40H676V33Z"/><path class="cls-7" d="M686.67,40h-.76V33h.76Z"/><path class="cls-7" d="M690.74,35a1.9,1.9,0,0,1,2.12,1.94V40h-.75v-.81H692a1.91,1.91,0,0,1-1.84,1c-1.06,0-1.82-.56-1.82-1.43s.73-1.34,1.86-1.45L692.1,37v-.19c0-.74-.5-1.21-1.38-1.21a1.69,1.69,0,0,0-1.67,1.09l-.67-.31A2.53,2.53,0,0,1,690.74,35Zm-.51,4.51a1.67,1.67,0,0,0,1.87-1.7v-.1l-1.83.17c-.68.06-1.19.27-1.19.82S689.55,39.46,690.23,39.46Z"/><path class="cls-7" d="M695.44,35.09V36h.14a1.75,1.75,0,0,1,1.71-1,1.85,1.85,0,0,1,1.93,2V40h-.77V37.08a1.24,1.24,0,0,0-1.37-1.4,1.57,1.57,0,0,0-1.62,1.78V40h-.76V35.09Z"/><path class="cls-7" d="M705.7,35.09v4.7a2.23,2.23,0,0,1-2.37,2.31,2.79,2.79,0,0,1-2.51-1.36l.7-.39a1.9,1.9,0,0,0,1.76,1.06,1.53,1.53,0,0,0,1.66-1.68V39h-.12A1.89,1.89,0,0,1,703,40a2.54,2.54,0,0,1,0-5,1.88,1.88,0,0,1,1.78,1H705v-.84Zm-.76,2.39a1.72,1.72,0,1,0-3.44,0,1.72,1.72,0,1,0,3.44,0Z"/><path class="cls-7" d="M711.31,40v-.87h-.14a1.74,1.74,0,0,1-1.71,1,1.84,1.84,0,0,1-1.92-2v-3h.76V38a1.25,1.25,0,0,0,1.37,1.4,1.58,1.58,0,0,0,1.62-1.78V35.09h.77V40Z"/><path class="cls-7" d="M716.12,35a1.9,1.9,0,0,1,2.12,1.94V40h-.75v-.81h-.14a1.91,1.91,0,0,1-1.84,1c-1.06,0-1.82-.56-1.82-1.43s.73-1.34,1.86-1.45l1.93-.18v-.19c0-.74-.5-1.21-1.38-1.21a1.69,1.69,0,0,0-1.67,1.09l-.67-.31A2.53,2.53,0,0,1,716.12,35Zm-.51,4.51a1.67,1.67,0,0,0,1.87-1.7v-.1l-1.83.17c-.68.06-1.19.27-1.19.82S714.93,39.46,715.61,39.46Z"/><path class="cls-7" d="M724.73,35.09v4.7a2.23,2.23,0,0,1-2.37,2.31,2.79,2.79,0,0,1-2.51-1.36l.7-.39a1.9,1.9,0,0,0,1.76,1.06A1.53,1.53,0,0,0,724,39.73V39h-.12a1.89,1.89,0,0,1-1.78,1,2.54,2.54,0,0,1,0-5,1.88,1.88,0,0,1,1.78,1H724v-.84ZM724,37.48a1.72,1.72,0,1,0-3.44,0,1.72,1.72,0,1,0,3.44,0Z"/><path class="cls-7" d="M728.74,34.94a2.28,2.28,0,0,1,2.36,2.43v.41h-4a1.63,1.63,0,0,0,1.72,1.64,1.56,1.56,0,0,0,1.51-1l.67.35a2.33,2.33,0,0,1-2.17,1.29,2.48,2.48,0,0,1-2.53-2.61A2.44,2.44,0,0,1,728.74,34.94Zm1.56,2.21a1.45,1.45,0,0,0-1.56-1.53,1.55,1.55,0,0,0-1.63,1.53Z"/><path class="cls-8" d="M645.9,22a3.67,3.67,0,0,1,4-4,3.38,3.38,0,0,1,3.74,3.62v.11H652v-.13a1.91,1.91,0,0,0-2.11-2.13,2.23,2.23,0,0,0-2.33,2.46v2.35a2.18,2.18,0,0,0,2.33,2.45,1.87,1.87,0,0,0,2.11-2.1v-.13h-2.51V23h4.14v1.54c0,2.25-1.32,3.61-3.74,3.61a3.64,3.64,0,0,1-4-4Z"/><path class="cls-8" d="M659.16,18a3.68,3.68,0,0,1,3.92,4v2.13c0,2.55-1.47,4-3.92,4s-3.93-1.48-3.93-4V22A3.68,3.68,0,0,1,659.16,18Zm-2.3,6.22c0,1.57.74,2.51,2.3,2.51s2.29-1,2.29-2.51V21.94c0-1.57-.8-2.51-2.29-2.51s-2.3,1-2.3,2.51Z"/><path class="cls-8" d="M668.65,18a3.68,3.68,0,0,1,3.92,4v2.13c0,2.55-1.47,4-3.92,4s-3.92-1.48-3.92-4V22C664.73,19.48,666.21,18,668.65,18Zm-2.3,6.22c0,1.57.74,2.51,2.3,2.51s2.29-1,2.29-2.51V21.94c0-1.57-.79-2.51-2.29-2.51s-2.3,1-2.3,2.51Z"/><path class="cls-8" d="M674.22,22a3.67,3.67,0,0,1,3.95-4,3.38,3.38,0,0,1,3.74,3.62v.11h-1.63v-.13a1.91,1.91,0,0,0-2.11-2.13,2.23,2.23,0,0,0-2.33,2.46v2.35a2.18,2.18,0,0,0,2.33,2.45,1.87,1.87,0,0,0,2.11-2.1v-.13h-2.5V23h4.13v1.54c0,2.25-1.32,3.61-3.74,3.61a3.64,3.64,0,0,1-3.95-4Z"/><path class="cls-8" d="M685.54,18.16v8.32h4.68V28h-6.3v-9.8Z"/><path class="cls-8" d="M698.27,18.16v1.48h-4.73v2.65h4.34v1.49h-4.34v2.7h4.8V28h-6.43v-9.8Z"/><path class="cls-8" d="M711.7,21.06v.43h-1.6v-.32c0-1.19-.8-1.76-2-1.76-1,0-1.74.53-1.74,1.3s.73,1.16,2,1.46l.38.08c1.92.42,3.07,1.16,3.07,2.9,0,1.89-1.52,3-3.56,3-2.4,0-3.92-1.34-3.92-3.57v-.38H706v.29a2.06,2.06,0,0,0,2.34,2.22c1.24,0,1.91-.67,1.91-1.5s-.67-1.23-1.94-1.5l-.38-.08c-1.89-.42-3.14-1.1-3.14-2.9S706.24,18,708.1,18C710.16,18,711.7,19.07,711.7,21.06Z"/><path class="cls-8" d="M720.21,18.16v1.48h-4.73v2.65h4.34v1.49h-4.34v2.7h4.8V28h-6.43v-9.8Z"/><path class="cls-8" d="M726.94,18.16l2.89,9.8h-1.7l-.64-2.26h-3.68L723.15,28h-1.7l2.9-9.8Zm.14,6.05-1.35-4.66h-.17l-1.35,4.66Z"/><path class="cls-8" d="M736.49,24,738.58,28h-1.79l-1.95-3.82h-1.78V28h-1.62v-9.8h4.2a2.88,2.88,0,0,1,3.08,3A2.82,2.82,0,0,1,736.49,24Zm-3.43-1.38h2.41a1.51,1.51,0,1,0,0-3h-2.41Z"/><path class="cls-8" d="M744.21,18c2.42,0,3.76,1.4,3.76,3.55v.29h-1.62v-.28a1.92,1.92,0,0,0-2.14-2.09,2.22,2.22,0,0,0-2.33,2.46v2.35a2.18,2.18,0,0,0,2.33,2.45,1.9,1.9,0,0,0,2.14-2.09v-.28H748v.27c0,2.17-1.29,3.57-3.76,3.57a3.65,3.65,0,0,1-4-4V22A3.68,3.68,0,0,1,744.21,18Z"/><path class="cls-8" d="M751.54,18.16v4.15h4V18.16h1.62V28h-1.62V23.79h-4V28h-1.62v-9.8Z"/><path class="cls-8" d="M648.21,34.94a2.28,2.28,0,0,1,2.36,2.43v.41h-4a1.63,1.63,0,0,0,1.72,1.64,1.56,1.56,0,0,0,1.51-1l.67.35a2.33,2.33,0,0,1-2.17,1.29,2.48,2.48,0,0,1-2.53-2.61A2.44,2.44,0,0,1,648.21,34.94Zm1.56,2.21a1.45,1.45,0,0,0-1.56-1.53,1.55,1.55,0,0,0-1.63,1.53Z"/><path class="cls-8" d="M652.85,35.09V36H653a1.75,1.75,0,0,1,1.71-1,1.85,1.85,0,0,1,1.93,2V40h-.77V37.08a1.24,1.24,0,0,0-1.37-1.4,1.57,1.57,0,0,0-1.62,1.78V40h-.76V35.09Z"/><path class="cls-8" d="M663.11,35.09v4.7a2.23,2.23,0,0,1-2.37,2.31,2.79,2.79,0,0,1-2.51-1.36l.7-.39a1.9,1.9,0,0,0,1.76,1.06,1.53,1.53,0,0,0,1.66-1.68V39h-.12a1.89,1.89,0,0,1-1.78,1,2.54,2.54,0,0,1,0-5,1.88,1.88,0,0,1,1.78,1h.14v-.84Zm-.76,2.39a1.72,1.72,0,1,0-3.44,0,1.72,1.72,0,1,0,3.44,0Z"/><path class="cls-8" d="M665.77,40H665V33h.76Z"/><path class="cls-8" d="M668.05,32.92a.65.65,0,1,1-.66.65A.64.64,0,0,1,668.05,32.92Zm.38,7h-.76V35.09h.76Z"/><path class="cls-8" d="M672.07,35a2.93,2.93,0,0,1,2.42,1.29l-.59.4a2.2,2.2,0,0,0-1.82-1c-.63,0-1.09.26-1.09.75s.53.63,1.13.72l.46.07c1.13.17,1.93.46,1.93,1.4s-.86,1.56-2.13,1.56a2.69,2.69,0,0,1-2.53-1.59l.69-.35a1.91,1.91,0,0,0,1.86,1.27c.8,0,1.34-.35,1.34-.87s-.61-.63-1.25-.72l-.46-.07c-1.07-.15-1.8-.49-1.8-1.41S671.07,35,672.07,35Z"/><path class="cls-8" d="M676.8,33v3h.12a1.75,1.75,0,0,1,1.71-1,1.85,1.85,0,0,1,1.93,2V40h-.77V37.08a1.24,1.24,0,0,0-1.37-1.4,1.57,1.57,0,0,0-1.62,1.78V40H676V33Z"/><path class="cls-8" d="M686.67,40h-.76V33h.76Z"/><path class="cls-8" d="M690.74,35a1.9,1.9,0,0,1,2.12,1.94V40h-.75v-.81H692a1.91,1.91,0,0,1-1.84,1c-1.06,0-1.82-.56-1.82-1.43s.73-1.34,1.86-1.45L692.1,37v-.19c0-.74-.5-1.21-1.38-1.21a1.69,1.69,0,0,0-1.67,1.09l-.67-.31A2.53,2.53,0,0,1,690.74,35Zm-.51,4.51a1.67,1.67,0,0,0,1.87-1.7v-.1l-1.83.17c-.68.06-1.19.27-1.19.82S689.55,39.46,690.23,39.46Z"/><path class="cls-8" d="M695.44,35.09V36h.14a1.75,1.75,0,0,1,1.71-1,1.85,1.85,0,0,1,1.93,2V40h-.77V37.08a1.24,1.24,0,0,0-1.37-1.4,1.57,1.57,0,0,0-1.62,1.78V40h-.76V35.09Z"/><path class="cls-8" d="M705.7,35.09v4.7a2.23,2.23,0,0,1-2.37,2.31,2.79,2.79,0,0,1-2.51-1.36l.7-.39a1.9,1.9,0,0,0,1.76,1.06,1.53,1.53,0,0,0,1.66-1.68V39h-.12A1.89,1.89,0,0,1,703,40a2.54,2.54,0,0,1,0-5,1.88,1.88,0,0,1,1.78,1H705v-.84Zm-.76,2.39a1.72,1.72,0,1,0-3.44,0,1.72,1.72,0,1,0,3.44,0Z"/><path class="cls-8" d="M711.31,40v-.87h-.14a1.74,1.74,0,0,1-1.71,1,1.84,1.84,0,0,1-1.92-2v-3h.76V38a1.25,1.25,0,0,0,1.37,1.4,1.58,1.58,0,0,0,1.62-1.78V35.09h.77V40Z"/><path class="cls-8" d="M716.12,35a1.9,1.9,0,0,1,2.12,1.94V40h-.75v-.81h-.14a1.91,1.91,0,0,1-1.84,1c-1.06,0-1.82-.56-1.82-1.43s.73-1.34,1.86-1.45l1.93-.18v-.19c0-.74-.5-1.21-1.38-1.21a1.69,1.69,0,0,0-1.67,1.09l-.67-.31A2.53,2.53,0,0,1,716.12,35Zm-.51,4.51a1.67,1.67,0,0,0,1.87-1.7v-.1l-1.83.17c-.68.06-1.19.27-1.19.82S714.93,39.46,715.61,39.46Z"/><path class="cls-8" d="M724.73,35.09v4.7a2.23,2.23,0,0,1-2.37,2.31,2.79,2.79,0,0,1-2.51-1.36l.7-.39a1.9,1.9,0,0,0,1.76,1.06A1.53,1.53,0,0,0,724,39.73V39h-.12a1.89,1.89,0,0,1-1.78,1,2.54,2.54,0,0,1,0-5,1.88,1.88,0,0,1,1.78,1H724v-.84ZM724,37.48a1.72,1.72,0,1,0-3.44,0,1.72,1.72,0,1,0,3.44,0Z"/><path class="cls-8" d="M728.74,34.94a2.28,2.28,0,0,1,2.36,2.43v.41h-4a1.63,1.63,0,0,0,1.72,1.64,1.56,1.56,0,0,0,1.51-1l.67.35a2.33,2.33,0,0,1-2.17,1.29,2.48,2.48,0,0,1-2.53-2.61A2.44,2.44,0,0,1,728.74,34.94Zm1.56,2.21a1.45,1.45,0,0,0-1.56-1.53,1.55,1.55,0,0,0-1.63,1.53Z"/><path class="cls-7" d="M338.88,20.35l.9,4.06h.13L341,20.35h1.13l1.07,4.06h.13l.9-4.06h.8l-1.16,4.88h-1.17l-1.07-4.06h-.13l-1.09,4.06h-1.15l-1.16-4.88Z"/><path class="cls-7" d="M346.52,18.18a.65.65,0,1,1-.66.65A.64.64,0,0,1,346.52,18.18Zm.38,7.05h-.76V20.35h.76Z"/><path class="cls-7" d="M350.82,22.27l2.21,3h-.93l-1.84-2.48-1.1.93v1.55h-.76v-7h.76v4.4h.12l2.64-2.28h1.15Z"/><path class="cls-7" d="M354.38,18.18a.65.65,0,1,1-.66.65A.64.64,0,0,1,354.38,18.18Zm.38,7.05H354V20.35h.76Z"/><path class="cls-7" d="M356.26,20.35H357v.84h.14a1.88,1.88,0,0,1,1.78-1,2.38,2.38,0,0,1,2.31,2.58,2.38,2.38,0,0,1-2.31,2.58,1.89,1.89,0,0,1-1.78-1H357v2.83h-.76Zm4.2,2.44a1.73,1.73,0,1,0-3.44,0,1.73,1.73,0,1,0,3.44,0Z"/><path class="cls-7" d="M364.52,20.2a2.28,2.28,0,0,1,2.36,2.43V23h-4a1.64,1.64,0,0,0,1.72,1.65,1.56,1.56,0,0,0,1.51-1l.67.35a2.32,2.32,0,0,1-2.17,1.3,2.48,2.48,0,0,1-2.53-2.62A2.44,2.44,0,0,1,364.52,20.2Zm1.56,2.21a1.45,1.45,0,0,0-1.56-1.53,1.55,1.55,0,0,0-1.63,1.53Z"/><path class="cls-7" d="M372.67,25.23h-.74v-.84h-.14a1.88,1.88,0,0,1-1.78,1,2.38,2.38,0,0,1-2.31-2.58A2.38,2.38,0,0,1,370,20.21a1.89,1.89,0,0,1,1.78,1h.12V18.23h.76Zm-4.2-2.44a1.73,1.73,0,1,0,3.44,0,1.73,1.73,0,1,0-3.44,0Z"/><path class="cls-7" d="M374.55,18.18a.65.65,0,1,1-.66.65A.64.64,0,0,1,374.55,18.18Zm.38,7.05h-.76V20.35h.76Z"/><path class="cls-7" d="M378.6,20.21a1.9,1.9,0,0,1,2.12,1.94v3.08H380v-.82h-.14a1.91,1.91,0,0,1-1.84,1c-1.06,0-1.82-.56-1.82-1.44s.73-1.34,1.86-1.45L380,22.3v-.19c0-.74-.5-1.21-1.38-1.21A1.69,1.69,0,0,0,376.91,22l-.67-.31A2.53,2.53,0,0,1,378.6,20.21Zm-.51,4.51A1.67,1.67,0,0,0,380,23v-.1l-1.83.17c-.68.06-1.19.27-1.19.82S377.41,24.72,378.09,24.72Z"/><path class="cls-4" d="M339,33.2a4.07,4.07,0,0,1,3.39,1.8l-.82.56A3.09,3.09,0,0,0,339,34.11c-.89,0-1.53.36-1.53,1s.74.88,1.58,1l.65.09c1.58.24,2.7.65,2.7,2s-1.2,2.19-3,2.19a3.78,3.78,0,0,1-3.55-2.24l1-.49a2.68,2.68,0,0,0,2.61,1.8c1.12,0,1.87-.49,1.87-1.24s-.85-.88-1.75-1l-.64-.1c-1.5-.21-2.52-.69-2.52-2S337.57,33.2,339,33.2Z"/><path class="cls-4" d="M347.48,33.18a3.2,3.2,0,0,1,3.31,3.41v.57H345.2a2.3,2.3,0,0,0,2.41,2.31,2.18,2.18,0,0,0,2.12-1.36l.93.49a3.23,3.23,0,0,1-3,1.82,3.48,3.48,0,0,1-3.54-3.67A3.41,3.41,0,0,1,347.48,33.18Zm2.19,3.1a2,2,0,0,0-2.19-2.14,2.17,2.17,0,0,0-2.28,2.14Z"/><path class="cls-4" d="M353.5,33.39l2,2.65h.17l2-2.65H359l-2.62,3.34,2.73,3.5h-1.33l-2.12-2.8h-.17l-2.12,2.8h-1.32l2.73-3.5-2.62-3.34Z"/><path class="cls-4" d="M361.76,30.35a.91.91,0,1,1-.92.91A.91.91,0,0,1,361.76,30.35Zm.54,9.88h-1.07V33.39h1.07Z"/><path class="cls-4" d="M367.39,33.2a4.07,4.07,0,0,1,3.39,1.8l-.82.56a3.09,3.09,0,0,0-2.55-1.45c-.89,0-1.53.36-1.53,1s.74.88,1.58,1l.65.09c1.58.24,2.7.65,2.7,2s-1.2,2.19-3,2.19a3.78,3.78,0,0,1-3.55-2.24l1-.49a2.67,2.67,0,0,0,2.6,1.8c1.13,0,1.88-.49,1.88-1.24s-.85-.88-1.75-1l-.64-.1c-1.5-.21-2.52-.69-2.52-2S366,33.2,367.39,33.2Z"/><path class="cls-4" d="M374,33.39v.93h.19a2.1,2.1,0,0,1,1.93-1,2,2,0,0,1,1.95,1.21h.2a2.14,2.14,0,0,1,2.07-1.21,2.21,2.21,0,0,1,2.33,2.26v4.69h-1.08V35.62A1.39,1.39,0,0,0,380,34.21,1.62,1.62,0,0,0,378.34,36v4.23h-1.08V35.62a1.36,1.36,0,0,0-1.51-1.41A1.65,1.65,0,0,0,374,36v4.23H373V33.39Z"/><rect class="cls-4" x="359.3" y="60.9" width="1" height="13.1"/><polygon class="cls-4" points="355.7 70.7 356.4 70 359.8 73.6 363.2 70 363.9 70.7 359.8 75.1 355.7 70.7"/><line class="cls-6" x1="634.28" y1="83.47" x2="634.28" y2="127.86"/><path class="cls-7" d="M653.12,91.26v.43h-1.59v-.32c0-1.19-.8-1.76-2-1.76-1,0-1.73.53-1.73,1.3s.73,1.16,2,1.46l.38.08c1.92.42,3.07,1.16,3.07,2.9,0,1.89-1.51,3-3.56,3-2.39,0-3.92-1.34-3.92-3.57v-.38h1.61v.29a2.07,2.07,0,0,0,2.34,2.22c1.25,0,1.92-.67,1.92-1.5s-.67-1.23-1.95-1.5l-.38-.08c-1.89-.42-3.13-1.1-3.13-2.9s1.48-2.78,3.34-2.78C651.58,88.16,653.12,89.27,653.12,91.26Z"/><path class="cls-7" d="M661.64,88.36v1.48H656.9v2.65h4.34V94H656.9v2.7h4.81v1.48h-6.43v-9.8Z"/><path class="cls-7" d="M670,88.36v1.48h-4.74v2.65h4.35V94h-4.35v2.7h4.81v1.48h-6.43v-9.8Z"/><path class="cls-7" d="M676.74,88.36l2.89,9.8h-1.7l-.64-2.26H673.6l-.66,2.26h-1.69l2.9-9.8Zm.14,6-1.36-4.66h-.17L674,94.41Z"/><path class="cls-7" d="M682.86,88.36v8.32h4.68v1.48h-6.31v-9.8Z"/><path class="cls-7" d="M696.09,91.26v.43h-1.6v-.32c0-1.19-.8-1.76-2-1.76-1,0-1.74.53-1.74,1.3s.73,1.16,2,1.46l.38.08c1.92.42,3.07,1.16,3.07,2.9,0,1.89-1.52,3-3.56,3-2.4,0-3.92-1.34-3.92-3.57v-.38h1.61v.29a2.07,2.07,0,0,0,2.34,2.22c1.24,0,1.91-.67,1.91-1.5s-.67-1.23-1.94-1.5l-.38-.08c-1.89-.42-3.14-1.1-3.14-2.9s1.49-2.78,3.35-2.78C694.55,88.16,696.09,89.27,696.09,91.26Z"/><path class="cls-7" d="M701.8,88.16a3.68,3.68,0,0,1,3.92,4v2.13c0,2.55-1.47,4-3.92,4s-3.92-1.48-3.92-4V92.2C697.88,89.68,699.36,88.16,701.8,88.16Zm-2.3,6.22c0,1.57.74,2.51,2.3,2.51s2.3-1,2.3-2.51V92.14c0-1.57-.8-2.51-2.3-2.51a2.2,2.2,0,0,0-2.3,2.51Z"/><path class="cls-7" d="M709.36,88.36v8.32H714v1.48h-6.31v-9.8Z"/><path class="cls-7" d="M719.29,88.16a3.68,3.68,0,0,1,3.92,4v2.13c0,2.55-1.47,4-3.92,4s-3.93-1.48-3.93-4V92.2A3.68,3.68,0,0,1,719.29,88.16ZM717,94.38c0,1.57.74,2.51,2.3,2.51s2.29-1,2.29-2.51V92.14c0-1.57-.8-2.51-2.29-2.51s-2.3,1-2.3,2.51Z"/><path class="cls-7" d="M724.85,92.16a3.68,3.68,0,0,1,4-4,3.37,3.37,0,0,1,3.73,3.62v.11h-1.62v-.13a1.91,1.91,0,0,0-2.11-2.13,2.22,2.22,0,0,0-2.33,2.46v2.35a2.18,2.18,0,0,0,2.33,2.45,1.87,1.87,0,0,0,2.11-2.1v-.13h-2.51V93.21h4.13v1.54c0,2.25-1.31,3.61-3.73,3.61a3.65,3.65,0,0,1-4-4Z"/><path class="cls-7" d="M735.16,88.36l2.31,4.36h.21l2.3-4.36h1.85l-3.45,6.33v3.47h-1.62V94.69l-3.45-6.33Z"/><path class="cls-7" d="M650.75,110.16H650v-.83h-.14a1.89,1.89,0,0,1-1.78,1,2.59,2.59,0,0,1,0-5.15,1.89,1.89,0,0,1,1.78,1H650v-3h.76Zm-4.2-2.43a1.73,1.73,0,1,0,1.72-1.89A1.68,1.68,0,0,0,646.55,107.73Z"/><path class="cls-7" d="M653,103.12a.65.65,0,1,1-.66.65A.64.64,0,0,1,653,103.12Zm.38,7h-.76v-4.87h.76Z"/><path class="cls-7" d="M657.05,105.15a2.93,2.93,0,0,1,2.42,1.29l-.59.4a2.2,2.2,0,0,0-1.82-1c-.63,0-1.09.26-1.09.75s.53.63,1.13.72l.46.07c1.13.17,1.93.46,1.93,1.4s-.86,1.56-2.13,1.56a2.69,2.69,0,0,1-2.53-1.59l.69-.35a1.9,1.9,0,0,0,1.86,1.27c.8,0,1.34-.34,1.34-.87s-.61-.63-1.25-.72L657,108c-1.07-.15-1.8-.49-1.8-1.41S656.05,105.15,657.05,105.15Z"/><path class="cls-7" d="M661.89,105.29v-1.76h.77v1.76h1.55V106h-1.55v3.25c0,.19.08.29.26.29h1v.66h-1.29a.71.71,0,0,1-.75-.76V106h-1.48v-.67Z"/><path class="cls-7" d="M667.86,105.15a1.9,1.9,0,0,1,2.12,1.94v3.07h-.75v-.81h-.14a1.93,1.93,0,0,1-1.84,1c-1.06,0-1.82-.56-1.82-1.43s.73-1.34,1.86-1.45l1.93-.18v-.19c0-.74-.5-1.21-1.38-1.21a1.69,1.69,0,0,0-1.67,1.09l-.67-.31A2.53,2.53,0,0,1,667.86,105.15Zm-.51,4.5a1.66,1.66,0,0,0,1.87-1.69v-.1l-1.83.17c-.68.06-1.19.27-1.19.82S666.67,109.65,667.35,109.65Z"/><path class="cls-7" d="M672.56,105.29v.87h.14a1.75,1.75,0,0,1,1.71-1,1.85,1.85,0,0,1,1.93,2v2.94h-.77v-2.88a1.24,1.24,0,0,0-1.37-1.4,1.57,1.57,0,0,0-1.62,1.78v2.5h-.76v-4.87Z"/><path class="cls-7" d="M680.37,105.15A2.25,2.25,0,0,1,682.7,107l-.76.15a1.47,1.47,0,0,0-1.57-1.32,1.87,1.87,0,0,0,0,3.74,1.49,1.49,0,0,0,1.57-1.32l.76.15a2.27,2.27,0,0,1-2.33,1.87,2.58,2.58,0,0,1,0-5.15Z"/><path class="cls-7" d="M686.37,105.14a2.28,2.28,0,0,1,2.36,2.43V108h-4a1.63,1.63,0,0,0,1.72,1.64,1.56,1.56,0,0,0,1.51-1l.67.35a2.33,2.33,0,0,1-2.17,1.29,2.47,2.47,0,0,1-2.53-2.61A2.44,2.44,0,0,1,686.37,105.14Zm1.56,2.21a1.45,1.45,0,0,0-1.56-1.53,1.55,1.55,0,0,0-1.63,1.53Z"/><path class="cls-7" d="M694.55,110.16h-.76v-7h.76Z"/><path class="cls-7" d="M698.56,105.14a2.28,2.28,0,0,1,2.36,2.43V108h-4a1.63,1.63,0,0,0,1.72,1.64,1.56,1.56,0,0,0,1.51-1l.67.35a2.33,2.33,0,0,1-2.17,1.29,2.47,2.47,0,0,1-2.53-2.61A2.44,2.44,0,0,1,698.56,105.14Zm1.56,2.21a1.45,1.45,0,0,0-1.56-1.53,1.55,1.55,0,0,0-1.63,1.53Z"/><path class="cls-7" d="M702.69,105.29l1.53,4.13h.12l1.53-4.13h.83l-1.88,4.87h-1.08l-1.88-4.87Z"/><path class="cls-7" d="M710.11,105.14a2.28,2.28,0,0,1,2.36,2.43V108h-4a1.63,1.63,0,0,0,1.72,1.64,1.56,1.56,0,0,0,1.51-1l.67.35a2.33,2.33,0,0,1-2.17,1.29,2.47,2.47,0,0,1-2.53-2.61A2.44,2.44,0,0,1,710.11,105.14Zm1.56,2.21a1.45,1.45,0,0,0-1.56-1.53,1.55,1.55,0,0,0-1.63,1.53Z"/><path class="cls-7" d="M714.77,110.16H714v-7h.76Z"/><path class="cls-7" d="M722.46,103a2.21,2.21,0,0,1,2.38,2.25c0,1.41-1,2-2.37,2.43-1.12.34-1.72.59-1.72,1.54v.17h4v.74h-4.88v-.81c0-1.38.86-1.91,2.19-2.3s1.91-.79,1.91-1.8a1.43,1.43,0,0,0-1.56-1.47,1.55,1.55,0,0,0-1.71,1.68v.21h-.82v-.26A2.32,2.32,0,0,1,722.46,103Z"/><path class="cls-7" d="M646.1,117.29h.74v.84H647a1.88,1.88,0,0,1,1.78-1,2.59,2.59,0,0,1,0,5.15,1.89,1.89,0,0,1-1.78-1h-.12v2.83h-.76Zm4.2,2.44a1.73,1.73,0,1,0-1.72,1.88A1.69,1.69,0,0,0,650.3,119.73Z"/><path class="cls-7" d="M654.78,117.15a1.9,1.9,0,0,1,2.12,1.94v3.07h-.75v-.81H656a1.93,1.93,0,0,1-1.84,1c-1.06,0-1.82-.56-1.82-1.43s.73-1.34,1.86-1.45l1.93-.18v-.19c0-.74-.5-1.21-1.38-1.21a1.69,1.69,0,0,0-1.67,1.09l-.67-.31A2.53,2.53,0,0,1,654.78,117.15Zm-.51,4.5a1.66,1.66,0,0,0,1.87-1.69v-.1l-1.83.17c-.68.06-1.19.27-1.19.82S653.59,121.65,654.27,121.65Z"/><path class="cls-7" d="M659.47,118h.14a1.16,1.16,0,0,1,1.26-.75h.61V118h-.84a1.06,1.06,0,0,0-1.14,1.22v2.93h-.76v-4.87h.73Z"/><path class="cls-7" d="M664.68,117.14a2.28,2.28,0,0,1,2.36,2.43V120h-4a1.63,1.63,0,0,0,1.72,1.64,1.56,1.56,0,0,0,1.51-1l.67.35a2.33,2.33,0,0,1-2.17,1.29,2.47,2.47,0,0,1-2.53-2.61A2.44,2.44,0,0,1,664.68,117.14Zm1.56,2.21a1.45,1.45,0,0,0-1.56-1.53,1.55,1.55,0,0,0-1.63,1.53Z"/><path class="cls-7" d="M669.32,117.29v.87h.14a1.75,1.75,0,0,1,1.71-1,1.85,1.85,0,0,1,1.93,2v2.94h-.77v-2.88a1.24,1.24,0,0,0-1.37-1.4,1.57,1.57,0,0,0-1.62,1.78v2.5h-.76v-4.87Z"/><path class="cls-7" d="M675.7,117.29v-1.76h.77v1.76H678V118h-1.55v3.25c0,.19.08.29.26.29h1v.66h-1.29a.71.71,0,0,1-.75-.76V118h-1.48v-.67Z"/><path class="cls-7" d="M683.78,122.16H683v-7h.76Z"/><path class="cls-7" d="M686.06,115.12a.65.65,0,1,1-.66.65A.64.64,0,0,1,686.06,115.12Zm.38,7h-.76v-4.87h.76Z"/><path class="cls-7" d="M689.08,117.29v.87h.14a1.75,1.75,0,0,1,1.71-1,1.85,1.85,0,0,1,1.93,2v2.94h-.77v-2.88a1.24,1.24,0,0,0-1.37-1.4,1.57,1.57,0,0,0-1.62,1.78v2.5h-.76v-4.87Z"/><path class="cls-7" d="M697.11,119.21l2.21,3h-.93l-1.84-2.47-1.1.93v1.54h-.76v-7h.76v4.4h.12l2.64-2.28h1.15Z"/><path class="cls-7" d="M702.43,117.15a2.93,2.93,0,0,1,2.42,1.29l-.59.4a2.2,2.2,0,0,0-1.82-1c-.63,0-1.09.26-1.09.75s.53.63,1.13.72l.46.07c1.13.17,1.93.46,1.93,1.4s-.86,1.56-2.13,1.56a2.69,2.69,0,0,1-2.53-1.59l.69-.35a1.9,1.9,0,0,0,1.86,1.27c.8,0,1.34-.34,1.34-.87s-.61-.63-1.25-.72l-.46-.07c-1.07-.15-1.8-.49-1.8-1.41S701.43,117.15,702.43,117.15Z"/><path class="cls-7" d="M712,117.14a2.28,2.28,0,0,1,2.36,2.43V120h-4a1.63,1.63,0,0,0,1.72,1.64,1.56,1.56,0,0,0,1.51-1l.67.35a2.33,2.33,0,0,1-2.17,1.29,2.47,2.47,0,0,1-2.53-2.61A2.44,2.44,0,0,1,712,117.14Zm1.56,2.21a1.45,1.45,0,0,0-1.56-1.53,1.55,1.55,0,0,0-1.63,1.53Z"/><path class="cls-7" d="M716.67,117.29v.87h.14a1.75,1.75,0,0,1,1.71-1,1.85,1.85,0,0,1,1.93,2v2.94h-.77v-2.88a1.24,1.24,0,0,0-1.37-1.4,1.57,1.57,0,0,0-1.62,1.78v2.5h-.76v-4.87Z"/><path class="cls-7" d="M724.45,117.15a1.9,1.9,0,0,1,2.12,1.94v3.07h-.75v-.81h-.14a1.93,1.93,0,0,1-1.84,1c-1.06,0-1.82-.56-1.82-1.43s.73-1.34,1.86-1.45l1.93-.18v-.19c0-.74-.5-1.21-1.38-1.21a1.69,1.69,0,0,0-1.67,1.09l-.67-.31A2.53,2.53,0,0,1,724.45,117.15Zm-.51,4.5a1.66,1.66,0,0,0,1.87-1.69v-.1L724,120c-.68.06-1.19.27-1.19.82S723.26,121.65,723.94,121.65Z"/><path class="cls-7" d="M729.17,115.17v3h.12a1.88,1.88,0,0,1,1.78-1,2.59,2.59,0,0,1,0,5.15,1.89,1.89,0,0,1-1.78-1h-.14v.83h-.74v-7Zm0,4.56a1.73,1.73,0,1,0,1.72-1.89A1.69,1.69,0,0,0,729.17,119.73Z"/><path class="cls-7" d="M735.72,122.16H735v-7h.76Z"/><path class="cls-7" d="M739.73,117.14a2.28,2.28,0,0,1,2.36,2.43V120h-4a1.63,1.63,0,0,0,1.72,1.64,1.56,1.56,0,0,0,1.51-1l.67.35a2.33,2.33,0,0,1-2.17,1.29,2.47,2.47,0,0,1-2.53-2.61A2.44,2.44,0,0,1,739.73,117.14Zm1.56,2.21a1.45,1.45,0,0,0-1.56-1.53,1.55,1.55,0,0,0-1.63,1.53Z"/><path class="cls-7" d="M748.28,122.16h-.74v-.83h-.14a1.89,1.89,0,0,1-1.78,1,2.59,2.59,0,0,1,0-5.15,1.89,1.89,0,0,1,1.78,1h.12v-3h.76Zm-4.2-2.43a1.73,1.73,0,1,0,1.72-1.89A1.68,1.68,0,0,0,744.08,119.73Z"/><path class="cls-8" d="M653.12,91.26v.43h-1.59v-.32c0-1.19-.8-1.76-2-1.76-1,0-1.73.53-1.73,1.3s.73,1.16,2,1.46l.38.08c1.92.42,3.07,1.16,3.07,2.9,0,1.89-1.51,3-3.56,3-2.39,0-3.92-1.34-3.92-3.57v-.38h1.61v.29a2.07,2.07,0,0,0,2.34,2.22c1.25,0,1.92-.67,1.92-1.5s-.67-1.23-1.95-1.5l-.38-.08c-1.89-.42-3.13-1.1-3.13-2.9s1.48-2.78,3.34-2.78C651.58,88.16,653.12,89.27,653.12,91.26Z"/><path class="cls-8" d="M661.64,88.36v1.48H656.9v2.65h4.34V94H656.9v2.7h4.81v1.48h-6.43v-9.8Z"/><path class="cls-8" d="M670,88.36v1.48h-4.74v2.65h4.35V94h-4.35v2.7h4.81v1.48h-6.43v-9.8Z"/><path class="cls-8" d="M676.74,88.36l2.89,9.8h-1.7l-.64-2.26H673.6l-.66,2.26h-1.69l2.9-9.8Zm.14,6-1.36-4.66h-.17L674,94.41Z"/><path class="cls-8" d="M682.86,88.36v8.32h4.68v1.48h-6.31v-9.8Z"/><path class="cls-8" d="M696.09,91.26v.43h-1.6v-.32c0-1.19-.8-1.76-2-1.76-1,0-1.74.53-1.74,1.3s.73,1.16,2,1.46l.38.08c1.92.42,3.07,1.16,3.07,2.9,0,1.89-1.52,3-3.56,3-2.4,0-3.92-1.34-3.92-3.57v-.38h1.61v.29a2.07,2.07,0,0,0,2.34,2.22c1.24,0,1.91-.67,1.91-1.5s-.67-1.23-1.94-1.5l-.38-.08c-1.89-.42-3.14-1.1-3.14-2.9s1.49-2.78,3.35-2.78C694.55,88.16,696.09,89.27,696.09,91.26Z"/><path class="cls-8" d="M701.8,88.16a3.68,3.68,0,0,1,3.92,4v2.13c0,2.55-1.47,4-3.92,4s-3.92-1.48-3.92-4V92.2C697.88,89.68,699.36,88.16,701.8,88.16Zm-2.3,6.22c0,1.57.74,2.51,2.3,2.51s2.3-1,2.3-2.51V92.14c0-1.57-.8-2.51-2.3-2.51a2.2,2.2,0,0,0-2.3,2.51Z"/><path class="cls-8" d="M709.36,88.36v8.32H714v1.48h-6.31v-9.8Z"/><path class="cls-8" d="M719.29,88.16a3.68,3.68,0,0,1,3.92,4v2.13c0,2.55-1.47,4-3.92,4s-3.93-1.48-3.93-4V92.2A3.68,3.68,0,0,1,719.29,88.16ZM717,94.38c0,1.57.74,2.51,2.3,2.51s2.29-1,2.29-2.51V92.14c0-1.57-.8-2.51-2.29-2.51s-2.3,1-2.3,2.51Z"/><path class="cls-8" d="M724.85,92.16a3.68,3.68,0,0,1,4-4,3.37,3.37,0,0,1,3.73,3.62v.11h-1.62v-.13a1.91,1.91,0,0,0-2.11-2.13,2.22,2.22,0,0,0-2.33,2.46v2.35a2.18,2.18,0,0,0,2.33,2.45,1.87,1.87,0,0,0,2.11-2.1v-.13h-2.51V93.21h4.13v1.54c0,2.25-1.31,3.61-3.73,3.61a3.65,3.65,0,0,1-4-4Z"/><path class="cls-8" d="M735.16,88.36l2.31,4.36h.21l2.3-4.36h1.85l-3.45,6.33v3.47h-1.62V94.69l-3.45-6.33Z"/><path class="cls-8" d="M650.75,110.16H650v-.83h-.14a1.89,1.89,0,0,1-1.78,1,2.59,2.59,0,0,1,0-5.15,1.89,1.89,0,0,1,1.78,1H650v-3h.76Zm-4.2-2.43a1.73,1.73,0,1,0,1.72-1.89A1.68,1.68,0,0,0,646.55,107.73Z"/><path class="cls-8" d="M653,103.12a.65.65,0,1,1-.66.65A.64.64,0,0,1,653,103.12Zm.38,7h-.76v-4.87h.76Z"/><path class="cls-8" d="M657.05,105.15a2.93,2.93,0,0,1,2.42,1.29l-.59.4a2.2,2.2,0,0,0-1.82-1c-.63,0-1.09.26-1.09.75s.53.63,1.13.72l.46.07c1.13.17,1.93.46,1.93,1.4s-.86,1.56-2.13,1.56a2.69,2.69,0,0,1-2.53-1.59l.69-.35a1.9,1.9,0,0,0,1.86,1.27c.8,0,1.34-.34,1.34-.87s-.61-.63-1.25-.72L657,108c-1.07-.15-1.8-.49-1.8-1.41S656.05,105.15,657.05,105.15Z"/><path class="cls-8" d="M661.89,105.29v-1.76h.77v1.76h1.55V106h-1.55v3.25c0,.19.08.29.26.29h1v.66h-1.29a.71.71,0,0,1-.75-.76V106h-1.48v-.67Z"/><path class="cls-8" d="M667.86,105.15a1.9,1.9,0,0,1,2.12,1.94v3.07h-.75v-.81h-.14a1.93,1.93,0,0,1-1.84,1c-1.06,0-1.82-.56-1.82-1.43s.73-1.34,1.86-1.45l1.93-.18v-.19c0-.74-.5-1.21-1.38-1.21a1.69,1.69,0,0,0-1.67,1.09l-.67-.31A2.53,2.53,0,0,1,667.86,105.15Zm-.51,4.5a1.66,1.66,0,0,0,1.87-1.69v-.1l-1.83.17c-.68.06-1.19.27-1.19.82S666.67,109.65,667.35,109.65Z"/><path class="cls-8" d="M672.56,105.29v.87h.14a1.75,1.75,0,0,1,1.71-1,1.85,1.85,0,0,1,1.93,2v2.94h-.77v-2.88a1.24,1.24,0,0,0-1.37-1.4,1.57,1.57,0,0,0-1.62,1.78v2.5h-.76v-4.87Z"/><path class="cls-8" d="M680.37,105.15A2.25,2.25,0,0,1,682.7,107l-.76.15a1.47,1.47,0,0,0-1.57-1.32,1.87,1.87,0,0,0,0,3.74,1.49,1.49,0,0,0,1.57-1.32l.76.15a2.27,2.27,0,0,1-2.33,1.87,2.58,2.58,0,0,1,0-5.15Z"/><path class="cls-8" d="M686.37,105.14a2.28,2.28,0,0,1,2.36,2.43V108h-4a1.63,1.63,0,0,0,1.72,1.64,1.56,1.56,0,0,0,1.51-1l.67.35a2.33,2.33,0,0,1-2.17,1.29,2.47,2.47,0,0,1-2.53-2.61A2.44,2.44,0,0,1,686.37,105.14Zm1.56,2.21a1.45,1.45,0,0,0-1.56-1.53,1.55,1.55,0,0,0-1.63,1.53Z"/><path class="cls-8" d="M694.55,110.16h-.76v-7h.76Z"/><path class="cls-8" d="M698.56,105.14a2.28,2.28,0,0,1,2.36,2.43V108h-4a1.63,1.63,0,0,0,1.72,1.64,1.56,1.56,0,0,0,1.51-1l.67.35a2.33,2.33,0,0,1-2.17,1.29,2.47,2.47,0,0,1-2.53-2.61A2.44,2.44,0,0,1,698.56,105.14Zm1.56,2.21a1.45,1.45,0,0,0-1.56-1.53,1.55,1.55,0,0,0-1.63,1.53Z"/><path class="cls-8" d="M702.69,105.29l1.53,4.13h.12l1.53-4.13h.83l-1.88,4.87h-1.08l-1.88-4.87Z"/><path class="cls-8" d="M710.11,105.14a2.28,2.28,0,0,1,2.36,2.43V108h-4a1.63,1.63,0,0,0,1.72,1.64,1.56,1.56,0,0,0,1.51-1l.67.35a2.33,2.33,0,0,1-2.17,1.29,2.47,2.47,0,0,1-2.53-2.61A2.44,2.44,0,0,1,710.11,105.14Zm1.56,2.21a1.45,1.45,0,0,0-1.56-1.53,1.55,1.55,0,0,0-1.63,1.53Z"/><path class="cls-8" d="M714.77,110.16H714v-7h.76Z"/><path class="cls-8" d="M722.46,103a2.21,2.21,0,0,1,2.38,2.25c0,1.41-1,2-2.37,2.43-1.12.34-1.72.59-1.72,1.54v.17h4v.74h-4.88v-.81c0-1.38.86-1.91,2.19-2.3s1.91-.79,1.91-1.8a1.43,1.43,0,0,0-1.56-1.47,1.55,1.55,0,0,0-1.71,1.68v.21h-.82v-.26A2.32,2.32,0,0,1,722.46,103Z"/><path class="cls-8" d="M646.1,117.29h.74v.84H647a1.88,1.88,0,0,1,1.78-1,2.59,2.59,0,0,1,0,5.15,1.89,1.89,0,0,1-1.78-1h-.12v2.83h-.76Zm4.2,2.44a1.73,1.73,0,1,0-1.72,1.88A1.69,1.69,0,0,0,650.3,119.73Z"/><path class="cls-8" d="M654.78,117.15a1.9,1.9,0,0,1,2.12,1.94v3.07h-.75v-.81H656a1.93,1.93,0,0,1-1.84,1c-1.06,0-1.82-.56-1.82-1.43s.73-1.34,1.86-1.45l1.93-.18v-.19c0-.74-.5-1.21-1.38-1.21a1.69,1.69,0,0,0-1.67,1.09l-.67-.31A2.53,2.53,0,0,1,654.78,117.15Zm-.51,4.5a1.66,1.66,0,0,0,1.87-1.69v-.1l-1.83.17c-.68.06-1.19.27-1.19.82S653.59,121.65,654.27,121.65Z"/><path class="cls-8" d="M659.47,118h.14a1.16,1.16,0,0,1,1.26-.75h.61V118h-.84a1.06,1.06,0,0,0-1.14,1.22v2.93h-.76v-4.87h.73Z"/><path class="cls-8" d="M664.68,117.14a2.28,2.28,0,0,1,2.36,2.43V120h-4a1.63,1.63,0,0,0,1.72,1.64,1.56,1.56,0,0,0,1.51-1l.67.35a2.33,2.33,0,0,1-2.17,1.29,2.47,2.47,0,0,1-2.53-2.61A2.44,2.44,0,0,1,664.68,117.14Zm1.56,2.21a1.45,1.45,0,0,0-1.56-1.53,1.55,1.55,0,0,0-1.63,1.53Z"/><path class="cls-8" d="M669.32,117.29v.87h.14a1.75,1.75,0,0,1,1.71-1,1.85,1.85,0,0,1,1.93,2v2.94h-.77v-2.88a1.24,1.24,0,0,0-1.37-1.4,1.57,1.57,0,0,0-1.62,1.78v2.5h-.76v-4.87Z"/><path class="cls-8" d="M675.7,117.29v-1.76h.77v1.76H678V118h-1.55v3.25c0,.19.08.29.26.29h1v.66h-1.29a.71.71,0,0,1-.75-.76V118h-1.48v-.67Z"/><path class="cls-8" d="M683.78,122.16H683v-7h.76Z"/><path class="cls-8" d="M686.06,115.12a.65.65,0,1,1-.66.65A.64.64,0,0,1,686.06,115.12Zm.38,7h-.76v-4.87h.76Z"/><path class="cls-8" d="M689.08,117.29v.87h.14a1.75,1.75,0,0,1,1.71-1,1.85,1.85,0,0,1,1.93,2v2.94h-.77v-2.88a1.24,1.24,0,0,0-1.37-1.4,1.57,1.57,0,0,0-1.62,1.78v2.5h-.76v-4.87Z"/><path class="cls-8" d="M697.11,119.21l2.21,3h-.93l-1.84-2.47-1.1.93v1.54h-.76v-7h.76v4.4h.12l2.64-2.28h1.15Z"/><path class="cls-8" d="M702.43,117.15a2.93,2.93,0,0,1,2.42,1.29l-.59.4a2.2,2.2,0,0,0-1.82-1c-.63,0-1.09.26-1.09.75s.53.63,1.13.72l.46.07c1.13.17,1.93.46,1.93,1.4s-.86,1.56-2.13,1.56a2.69,2.69,0,0,1-2.53-1.59l.69-.35a1.9,1.9,0,0,0,1.86,1.27c.8,0,1.34-.34,1.34-.87s-.61-.63-1.25-.72l-.46-.07c-1.07-.15-1.8-.49-1.8-1.41S701.43,117.15,702.43,117.15Z"/><path class="cls-8" d="M712,117.14a2.28,2.28,0,0,1,2.36,2.43V120h-4a1.63,1.63,0,0,0,1.72,1.64,1.56,1.56,0,0,0,1.51-1l.67.35a2.33,2.33,0,0,1-2.17,1.29,2.47,2.47,0,0,1-2.53-2.61A2.44,2.44,0,0,1,712,117.14Zm1.56,2.21a1.45,1.45,0,0,0-1.56-1.53,1.55,1.55,0,0,0-1.63,1.53Z"/><path class="cls-8" d="M716.67,117.29v.87h.14a1.75,1.75,0,0,1,1.71-1,1.85,1.85,0,0,1,1.93,2v2.94h-.77v-2.88a1.24,1.24,0,0,0-1.37-1.4,1.57,1.57,0,0,0-1.62,1.78v2.5h-.76v-4.87Z"/><path class="cls-8" d="M724.45,117.15a1.9,1.9,0,0,1,2.12,1.94v3.07h-.75v-.81h-.14a1.93,1.93,0,0,1-1.84,1c-1.06,0-1.82-.56-1.82-1.43s.73-1.34,1.86-1.45l1.93-.18v-.19c0-.74-.5-1.21-1.38-1.21a1.69,1.69,0,0,0-1.67,1.09l-.67-.31A2.53,2.53,0,0,1,724.45,117.15Zm-.51,4.5a1.66,1.66,0,0,0,1.87-1.69v-.1L724,120c-.68.06-1.19.27-1.19.82S723.26,121.65,723.94,121.65Z"/><path class="cls-8" d="M729.17,115.17v3h.12a1.88,1.88,0,0,1,1.78-1,2.59,2.59,0,0,1,0,5.15,1.89,1.89,0,0,1-1.78-1h-.14v.83h-.74v-7Zm0,4.56a1.73,1.73,0,1,0,1.72-1.89A1.69,1.69,0,0,0,729.17,119.73Z"/><path class="cls-8" d="M735.72,122.16H735v-7h.76Z"/><path class="cls-8" d="M739.73,117.14a2.28,2.28,0,0,1,2.36,2.43V120h-4a1.63,1.63,0,0,0,1.72,1.64,1.56,1.56,0,0,0,1.51-1l.67.35a2.33,2.33,0,0,1-2.17,1.29,2.47,2.47,0,0,1-2.53-2.61A2.44,2.44,0,0,1,739.73,117.14Zm1.56,2.21a1.45,1.45,0,0,0-1.56-1.53,1.55,1.55,0,0,0-1.63,1.53Z"/><path class="cls-8" d="M748.28,122.16h-.74v-.83h-.14a1.89,1.89,0,0,1-1.78,1,2.59,2.59,0,0,1,0-5.15,1.89,1.89,0,0,1,1.78,1h.12v-3h.76Zm-4.2-2.43a1.73,1.73,0,1,0,1.72-1.89A1.68,1.68,0,0,0,744.08,119.73Z"/><rect class="cls-4" x="359.2" y="136.3" width="1" height="13.1"/><polygon class="cls-4" points="355.6 146.1 356.3 145.4 359.7 149 363.1 145.4 363.8 146.1 359.7 150.5 355.6 146.1"/><rect class="cls-4" x="359.23" y="211.94" width="1" height="13.1"/><polygon class="cls-4" points="355.63 221.74 356.33 221.04 359.73 224.64 363.13 221.04 363.83 221.74 359.73 226.14 355.63 221.74"/><path class="cls-2" d="M316.12,95.45v6.83H315V96.39h-3v5.89H311V96.39h-2.08v-.94H311V93.57A1,1,0,0,1,312,92.48h1.64v.94h-1.26c-.25,0-.38.12-.38.4v1.63Zm.39-2.13a.93.93,0,1,1-.93-.91A.91.91,0,0,1,316.51,93.32Z"/><path class="cls-2" d="M319.81,95.45v1.22H320a2.45,2.45,0,0,1,2.4-1.34,2.6,2.6,0,0,1,2.7,2.82v4.13H324v-4a1.74,1.74,0,0,0-1.91-2,2.2,2.2,0,0,0-2.27,2.5v3.51h-1.07V95.45Z"/><path class="cls-2" d="M334.18,102.28h-1v-1.17h-.2a2.63,2.63,0,0,1-2.49,1.37,3.64,3.64,0,0,1,0-7.23,2.64,2.64,0,0,1,2.49,1.36h.17V92.48h1.07Zm-5.89-3.42a2.42,2.42,0,1,0,2.41-2.64A2.37,2.37,0,0,0,328.29,98.86Z"/><path class="cls-4" d="M343,95.45V93h1.08v2.47h2.17v.94h-2.17v4.55c0,.28.11.4.36.4h1.42v.94H344a1,1,0,0,1-1-1.08V96.39h-2.07v-.94Z"/><path class="cls-4" d="M349.36,92.48v4.19h.17a2.45,2.45,0,0,1,2.4-1.34,2.6,2.6,0,0,1,2.7,2.82v4.13h-1.08v-4a1.74,1.74,0,0,0-1.92-2,2.21,2.21,0,0,0-2.27,2.5v3.51H348.3v-9.8Z"/><path class="cls-4" d="M360.14,95.24a3.19,3.19,0,0,1,3.31,3.4v.57h-5.59a2.3,2.3,0,0,0,2.41,2.32,2.17,2.17,0,0,0,2.11-1.36l.94.49a3.25,3.25,0,0,1-3,1.82,3.47,3.47,0,0,1-3.54-3.67A3.41,3.41,0,0,1,360.14,95.24Zm2.19,3.09a2,2,0,0,0-2.19-2.14,2.17,2.17,0,0,0-2.28,2.14Z"/><path class="cls-4" d="M371.59,102.28h-1.06v-9.8h1.06Z"/><path class="cls-4" d="M374.79,92.41a.91.91,0,1,1-.93.91A.9.9,0,0,1,374.79,92.41Zm.53,9.87h-1.07V95.45h1.07Z"/><path class="cls-4" d="M379,95.45v1.22h.2a2.44,2.44,0,0,1,2.39-1.34,2.6,2.6,0,0,1,2.71,2.82v4.13h-1.08v-4a1.74,1.74,0,0,0-1.92-2,2.21,2.21,0,0,0-2.27,2.5v3.51H378V95.45Z"/><path class="cls-4" d="M390.26,98.14l3.09,4.14h-1.3l-2.58-3.47-1.54,1.3v2.17h-1.06v-9.8h1.06v6.16h.17l3.7-3.19h1.61Z"/><path class="cls-4" d="M397.66,95.24a3.19,3.19,0,0,1,3.31,3.4v.57h-5.59a2.3,2.3,0,0,0,2.41,2.32,2.17,2.17,0,0,0,2.11-1.36l.94.49a3.25,3.25,0,0,1-3,1.82,3.47,3.47,0,0,1-3.54-3.67A3.41,3.41,0,0,1,397.66,95.24Zm2.19,3.09a2,2,0,0,0-2.19-2.14,2.17,2.17,0,0,0-2.28,2.14Z"/><path class="cls-4" d="M409.63,102.28h-1v-1.17h-.2a2.63,2.63,0,0,1-2.49,1.37,3.64,3.64,0,0,1,0-7.23,2.64,2.64,0,0,1,2.49,1.36h.17V92.48h1.06Zm-5.88-3.42a2.42,2.42,0,1,0,2.41-2.64A2.37,2.37,0,0,0,403.75,98.86Z"/><path class="cls-4" d="M304.42,110.45l1.26,5.68h.18l1.5-5.68h1.58l1.5,5.68h.18l1.26-5.68H313l-1.62,6.83h-1.64l-1.5-5.68h-.18l-1.53,5.68h-1.61l-1.63-6.83Z"/><path class="cls-4" d="M315.67,107.41a.91.91,0,1,1-.92.91A.91.91,0,0,1,315.67,107.41Zm.53,9.87h-1.06v-6.83h1.06Z"/><path class="cls-4" d="M322.25,113.14l3.1,4.14h-1.3l-2.58-3.47-1.54,1.3v2.17h-1.07v-9.8h1.07v6.16h.17l3.69-3.19h1.61Z"/><path class="cls-4" d="M327.8,107.41a.91.91,0,1,1-.93.91A.9.9,0,0,1,327.8,107.41Zm.53,9.87h-1.07v-6.83h1.07Z"/><path class="cls-4" d="M331,110.45h1v1.17h.2a2.63,2.63,0,0,1,2.49-1.37,3.64,3.64,0,0,1,0,7.23,2.64,2.64,0,0,1-2.49-1.36h-.17v4H331Zm5.88,3.41a2.42,2.42,0,1,0-2.41,2.65A2.37,2.37,0,0,0,336.87,113.86Z"/><path class="cls-4" d="M343.11,110.24a3.19,3.19,0,0,1,3.31,3.4v.57h-5.59a2.3,2.3,0,0,0,2.41,2.32,2.17,2.17,0,0,0,2.11-1.36l.94.49a3.25,3.25,0,0,1-3,1.82,3.47,3.47,0,0,1-3.54-3.67A3.41,3.41,0,0,1,343.11,110.24Zm2.19,3.09a2,2,0,0,0-2.19-2.14,2.17,2.17,0,0,0-2.28,2.14Z"/><path class="cls-4" d="M355.08,117.28h-1v-1.17h-.2a2.63,2.63,0,0,1-2.49,1.37,3.64,3.64,0,0,1,0-7.23,2.64,2.64,0,0,1,2.49,1.36H354v-4.13h1.06Zm-5.88-3.42a2.42,2.42,0,1,0,2.41-2.64A2.37,2.37,0,0,0,349.2,113.86Z"/><path class="cls-4" d="M358.27,107.41a.91.91,0,1,1-.92.91A.91.91,0,0,1,358.27,107.41Zm.54,9.87h-1.07v-6.83h1.07Z"/><path class="cls-4" d="M364.5,110.25a2.66,2.66,0,0,1,3,2.72v4.31h-1.05v-1.15h-.19a2.69,2.69,0,0,1-2.58,1.35c-1.48,0-2.55-.79-2.55-2s1-1.88,2.61-2l2.7-.25v-.27c0-1-.7-1.69-1.93-1.69a2.37,2.37,0,0,0-2.34,1.52l-.94-.43A3.55,3.55,0,0,1,364.5,110.25Zm-.71,6.32a2.34,2.34,0,0,0,2.62-2.38v-.14l-2.56.23c-1,.09-1.67.38-1.67,1.15S362.84,116.57,363.79,116.57Z"/><path class="cls-4" d="M375,110.45h1v1.17h.2a2.63,2.63,0,0,1,2.49-1.37,3.64,3.64,0,0,1,0,7.23,2.64,2.64,0,0,1-2.49-1.36H376v4H375Zm5.89,3.41a2.42,2.42,0,1,0-2.41,2.65A2.37,2.37,0,0,0,380.86,113.86Z"/><path class="cls-4" d="M387.13,110.25a2.66,2.66,0,0,1,3,2.72v4.31h-1.05v-1.15h-.2a2.69,2.69,0,0,1-2.58,1.35c-1.48,0-2.55-.79-2.55-2s1-1.88,2.61-2l2.7-.25v-.27c0-1-.7-1.69-1.93-1.69a2.38,2.38,0,0,0-2.34,1.52l-.94-.43A3.57,3.57,0,0,1,387.13,110.25Zm-.72,6.32a2.33,2.33,0,0,0,2.62-2.38v-.14l-2.56.23c-1,.09-1.67.38-1.67,1.15S385.46,116.57,386.41,116.57Z"/><path class="cls-4" d="M399.18,110.45V117a3.12,3.12,0,0,1-3.32,3.25,3.9,3.9,0,0,1-3.51-1.9l1-.55a2.65,2.65,0,0,0,2.46,1.48,2.15,2.15,0,0,0,2.33-2.35v-1H398a2.63,2.63,0,0,1-2.49,1.37,3.56,3.56,0,0,1,0-7.09,2.63,2.63,0,0,1,2.49,1.37h.2v-1.17Zm-1.06,3.34a2.41,2.41,0,1,0-2.41,2.57A2.34,2.34,0,0,0,398.12,113.79Z"/><path class="cls-4" d="M404.8,110.24a3.19,3.19,0,0,1,3.3,3.4v.57h-5.59a2.3,2.3,0,0,0,2.41,2.32,2.19,2.19,0,0,0,2.12-1.36l.94.49a3.26,3.26,0,0,1-3,1.82,3.48,3.48,0,0,1-3.55-3.67A3.42,3.42,0,0,1,404.8,110.24Zm2.18,3.09a2,2,0,0,0-2.18-2.14,2.18,2.18,0,0,0-2.29,2.14Z"/><path class="cls-4" d="M412.61,110.25a4.11,4.11,0,0,1,3.39,1.81l-.83.56a3.09,3.09,0,0,0-2.55-1.46c-.88,0-1.53.36-1.53,1s.75.88,1.59,1l.64.1c1.58.24,2.71.64,2.71,2s-1.21,2.2-3,2.2a3.77,3.77,0,0,1-3.54-2.24l1-.49a2.69,2.69,0,0,0,2.61,1.79c1.12,0,1.88-.49,1.88-1.23s-.86-.89-1.75-1l-.65-.1c-1.5-.21-2.52-.69-2.52-2S411.21,110.25,412.61,110.25Z"/><path class="cls-2" d="M269.4,321.88a4.09,4.09,0,0,1,3.39,1.81l-.82.56a3.09,3.09,0,0,0-2.55-1.45c-.88,0-1.53.36-1.53,1.05s.74.88,1.58,1l.65.1c1.58.24,2.7.65,2.7,2s-1.2,2.2-3,2.2a3.78,3.78,0,0,1-3.55-2.24l1-.49a2.67,2.67,0,0,0,2.61,1.79c1.12,0,1.87-.49,1.87-1.23s-.85-.88-1.75-1l-.64-.1c-1.5-.21-2.52-.68-2.52-2S268,321.88,269.4,321.88Z"/><path class="cls-2" d="M277.92,321.87a3.19,3.19,0,0,1,3.3,3.4v.58h-5.59a2.3,2.3,0,0,0,2.41,2.31,2.18,2.18,0,0,0,2.12-1.36l.94.49a3.27,3.27,0,0,1-3,1.82,3.48,3.48,0,0,1-3.55-3.67A3.42,3.42,0,0,1,277.92,321.87Zm2.18,3.1a2,2,0,0,0-2.18-2.15,2.18,2.18,0,0,0-2.29,2.15Z"/><path class="cls-2" d="M284.44,328.92h-1.07v-9.81h1.07Z"/><path class="cls-2" d="M290.05,321.87a3.2,3.2,0,0,1,3.31,3.4v.58h-5.59a2.29,2.29,0,0,0,2.41,2.31,2.16,2.16,0,0,0,2.11-1.36l.94.49a3.25,3.25,0,0,1-3,1.82,3.47,3.47,0,0,1-3.54-3.67A3.41,3.41,0,0,1,290.05,321.87Zm2.19,3.1a2,2,0,0,0-2.19-2.15,2.17,2.17,0,0,0-2.28,2.15Z"/><path class="cls-2" d="M298.59,321.88a3.16,3.16,0,0,1,3.27,2.64l-1.07.21a2,2,0,0,0-2.2-1.85,2.63,2.63,0,0,0,0,5.25,2.09,2.09,0,0,0,2.2-1.86l1.06.21a3.18,3.18,0,0,1-3.26,2.63,3.62,3.62,0,0,1,0-7.23Z"/><path class="cls-2" d="M305.19,322.08v-2.46h1.07v2.46h2.18V323h-2.18v4.55c0,.28.12.41.37.41H308v.94h-1.8a1,1,0,0,1-1.05-1.08V323h-2.08v-.94Z"/><path class="cls-4" d="M316.65,322.08v-2.46h1.08v2.46h2.17V323h-2.17v4.55c0,.28.11.41.36.41h1.42v.94H317.7a1,1,0,0,1-1.05-1.08V323h-2.07v-.94Z"/><path class="cls-4" d="M323,319.11v4.19h.16a2.46,2.46,0,0,1,2.4-1.33,2.59,2.59,0,0,1,2.7,2.81v4.14h-1.08v-4.05a1.74,1.74,0,0,0-1.92-2A2.2,2.2,0,0,0,323,325.4v3.52H322v-9.81Z"/><path class="cls-4" d="M333.82,321.87a3.19,3.19,0,0,1,3.3,3.4v.58h-5.59a2.3,2.3,0,0,0,2.41,2.31,2.18,2.18,0,0,0,2.12-1.36l.94.49a3.25,3.25,0,0,1-3,1.82,3.48,3.48,0,0,1-3.55-3.67A3.42,3.42,0,0,1,333.82,321.87ZM336,325a2,2,0,0,0-2.18-2.15,2.18,2.18,0,0,0-2.29,2.15Z"/><path class="cls-4" d="M347.28,321.88a3.16,3.16,0,0,1,3.27,2.64l-1.07.21a2,2,0,0,0-2.2-1.85,2.63,2.63,0,0,0,0,5.25,2.08,2.08,0,0,0,2.2-1.86l1.07.21a3.19,3.19,0,0,1-3.27,2.63,3.62,3.62,0,0,1,0-7.23Z"/><path class="cls-4" d="M355.71,321.88a2.66,2.66,0,0,1,3,2.72v4.32h-1.05v-1.15h-.19a2.68,2.68,0,0,1-2.58,1.34c-1.49,0-2.55-.78-2.55-2s1-1.88,2.6-2l2.71-.25v-.26c0-1-.7-1.7-1.94-1.7a2.36,2.36,0,0,0-2.33,1.53l-.94-.44A3.54,3.54,0,0,1,355.71,321.88ZM355,328.2a2.33,2.33,0,0,0,2.62-2.38v-.14l-2.57.24c-.95.08-1.66.38-1.66,1.15S354.05,328.2,355,328.2Z"/><path class="cls-4" d="M362.33,322.08v-2.46h1.08v2.46h2.17V323h-2.17v4.55c0,.28.11.41.37.41h1.41v.94h-1.81a1,1,0,0,1-1.05-1.08V323h-2.07v-.94Z"/><path class="cls-4" d="M370.54,321.87a3.19,3.19,0,0,1,3.3,3.4v.58h-5.58a2.28,2.28,0,0,0,2.4,2.31,2.17,2.17,0,0,0,2.12-1.36l.94.49a3.25,3.25,0,0,1-3,1.82,3.48,3.48,0,0,1-3.55-3.67A3.42,3.42,0,0,1,370.54,321.87Zm2.18,3.1a2,2,0,0,0-2.18-2.15,2.17,2.17,0,0,0-2.28,2.15Z"/><path class="cls-4" d="M382.51,322.08v6.58a3.12,3.12,0,0,1-3.32,3.25,3.92,3.92,0,0,1-3.52-1.9l1-.55a2.67,2.67,0,0,0,2.47,1.49,2.16,2.16,0,0,0,2.33-2.36v-1h-.17a2.62,2.62,0,0,1-2.5,1.37,3.56,3.56,0,0,1,0-7.09,2.63,2.63,0,0,1,2.5,1.38h.19v-1.18Zm-1.06,3.35a2.42,2.42,0,1,0-4.82,0,2.41,2.41,0,1,0,4.82,0Z"/><path class="cls-4" d="M388.21,321.88a3.62,3.62,0,1,1-3.49,3.62A3.41,3.41,0,0,1,388.21,321.88Zm0,6.25a2.63,2.63,0,1,0-2.43-2.63A2.38,2.38,0,0,0,388.21,328.13Z"/><path class="cls-4" d="M394.91,323.1h.2a1.63,1.63,0,0,1,1.76-1.05h.86v1h-1.18a1.49,1.49,0,0,0-1.6,1.71v4.12h-1.06v-6.84h1Z"/><path class="cls-4" d="M400.16,319a.91.91,0,1,1-.92.91A.9.9,0,0,1,400.16,319Zm.53,9.88h-1.06v-6.84h1.06Z"/><path class="cls-4" d="M406.31,321.87a3.19,3.19,0,0,1,3.3,3.4v.58H404a2.3,2.3,0,0,0,2.41,2.31,2.18,2.18,0,0,0,2.12-1.36l.94.49a3.25,3.25,0,0,1-3,1.82,3.48,3.48,0,0,1-3.55-3.67A3.42,3.42,0,0,1,406.31,321.87Zm2.18,3.1a2,2,0,0,0-2.18-2.15A2.18,2.18,0,0,0,404,325Z"/><path class="cls-4" d="M414.12,321.88a4.11,4.11,0,0,1,3.39,1.81l-.83.56a3.08,3.08,0,0,0-2.55-1.45c-.88,0-1.52.36-1.52,1.05s.74.88,1.58,1l.64.1c1.59.24,2.71.65,2.71,2s-1.21,2.2-3,2.2a3.77,3.77,0,0,1-3.54-2.24l1-.49a2.65,2.65,0,0,0,2.6,1.79c1.12,0,1.88-.49,1.88-1.23s-.86-.88-1.75-1l-.65-.1c-1.5-.21-2.52-.68-2.52-2S412.72,321.88,414.12,321.88Z"/><path class="cls-4" d="M425.22,322.08l1.26,5.69h.18l1.5-5.69h1.58l1.5,5.69h.19l1.26-5.69h1.12l-1.63,6.84h-1.64l-1.5-5.69h-.18l-1.52,5.69h-1.62l-1.62-6.84Z"/><path class="cls-4" d="M436.48,319a.91.91,0,1,1-.93.91A.9.9,0,0,1,436.48,319Zm.53,9.88h-1.07v-6.84H437Z"/><path class="cls-4" d="M440.89,322.08v-2.46H442v2.46h2.18V323H442v4.55c0,.28.12.41.37.41h1.41v.94h-1.8a1,1,0,0,1-1.05-1.08V323h-2.08v-.94Z"/><path class="cls-4" d="M447.27,319.11v4.19h.17a2.45,2.45,0,0,1,2.39-1.33,2.59,2.59,0,0,1,2.71,2.81v4.14h-1.08v-4.05a1.74,1.74,0,0,0-1.92-2,2.2,2.2,0,0,0-2.27,2.49v3.52h-1.06v-9.81Z"/><path class="cls-4" d="M291.44,337.08V338h.2a2.1,2.1,0,0,1,1.93-1,2,2,0,0,1,1.95,1.2h.2a2.13,2.13,0,0,1,2.07-1.2,2.21,2.21,0,0,1,2.33,2.25v4.7H299v-4.61a1.4,1.4,0,0,0-1.56-1.42,1.62,1.62,0,0,0-1.68,1.8v4.23h-1.08v-4.61a1.37,1.37,0,0,0-1.51-1.42,1.66,1.66,0,0,0-1.74,1.8v4.23h-1.06v-6.84Z"/><path class="cls-4" d="M305.73,336.88a3.62,3.62,0,1,1-3.49,3.62A3.41,3.41,0,0,1,305.73,336.88Zm0,6.25a2.63,2.63,0,1,0-2.43-2.63A2.38,2.38,0,0,0,305.73,343.13Z"/><path class="cls-4" d="M312.43,338.1h.2a1.63,1.63,0,0,1,1.76-1.05h.86v1h-1.18a1.49,1.49,0,0,0-1.6,1.71v4.12h-1.06v-6.84h1Z"/><path class="cls-4" d="M319.73,336.87a3.19,3.19,0,0,1,3.3,3.4v.58h-5.59a2.3,2.3,0,0,0,2.41,2.31A2.18,2.18,0,0,0,322,341.8l.94.49a3.26,3.26,0,0,1-3,1.82,3.48,3.48,0,0,1-3.55-3.67A3.42,3.42,0,0,1,319.73,336.87Zm2.18,3.1a2,2,0,0,0-2.18-2.15,2.18,2.18,0,0,0-2.29,2.15Z"/><path class="cls-4" d="M331.33,337.08v-2.46h1.08v2.46h2.17V338h-2.17v4.55c0,.28.11.41.36.41h1.42v.94h-1.81a1,1,0,0,1-1.05-1.08V338h-2.07v-.94Z"/><path class="cls-4" d="M337.71,334.11v4.19h.17a2.46,2.46,0,0,1,2.4-1.33,2.59,2.59,0,0,1,2.7,2.81v4.14H341.9v-4.05a1.74,1.74,0,0,0-1.92-2,2.2,2.2,0,0,0-2.27,2.49v3.52h-1.06v-9.81Z"/><path class="cls-4" d="M348.58,336.88a2.66,2.66,0,0,1,3,2.72v4.32H350.5v-1.15h-.2a2.66,2.66,0,0,1-2.57,1.34c-1.49,0-2.55-.78-2.55-2s1-1.88,2.6-2l2.7-.25v-.26c0-1-.7-1.7-1.93-1.7a2.37,2.37,0,0,0-2.34,1.53l-.94-.44A3.57,3.57,0,0,1,348.58,336.88Zm-.71,6.32a2.33,2.33,0,0,0,2.61-2.38v-.14l-2.56.24c-.95.08-1.67.38-1.67,1.15S346.91,343.2,347.87,343.2Z"/><path class="cls-4" d="M355.16,337.08v1.22h.19a2.46,2.46,0,0,1,2.4-1.33,2.59,2.59,0,0,1,2.7,2.81v4.14h-1.08v-4.05a1.74,1.74,0,0,0-1.91-2,2.2,2.2,0,0,0-2.27,2.49v3.52h-1.07v-6.84Z"/><path class="cls-4" d="M371.6,334.11l0,9.81h-1.15v-8.69h-.17l-2,3.11H367l2.8-4.23Z"/><path class="cls-4" d="M377.57,333.92c2.22,0,3.59,1.44,3.59,4v2.19c0,2.56-1.35,4-3.59,4s-3.6-1.44-3.6-4v-2.19C374,335.36,375.32,333.92,377.57,333.92Zm-2.45,6.23c0,1.85.81,2.91,2.45,2.91S380,342,380,340.15v-2.27c0-1.85-.81-2.91-2.44-2.91s-2.45,1.06-2.45,2.91Z"/><path class="cls-4" d="M388.46,337.08h1v1.18h.2a2.61,2.61,0,0,1,2.49-1.38,3.64,3.64,0,0,1,0,7.23,2.62,2.62,0,0,1-2.49-1.36h-.17v4h-1.07Zm5.89,3.42a2.42,2.42,0,1,0-2.41,2.65A2.38,2.38,0,0,0,394.35,340.5Z"/><path class="cls-4" d="M400.62,336.88a2.66,2.66,0,0,1,3,2.72v4.32h-1v-1.15h-.2a2.68,2.68,0,0,1-2.58,1.34c-1.48,0-2.55-.78-2.55-2s1-1.88,2.61-2l2.7-.25v-.26c0-1-.7-1.7-1.93-1.7a2.37,2.37,0,0,0-2.34,1.53l-.94-.44A3.56,3.56,0,0,1,400.62,336.88Zm-.72,6.32a2.33,2.33,0,0,0,2.62-2.38v-.14l-2.56.24c-.95.08-1.67.38-1.67,1.15S399,343.2,399.9,343.2Z"/><path class="cls-4" d="M412.67,337.08v6.58a3.12,3.12,0,0,1-3.32,3.25,3.9,3.9,0,0,1-3.51-1.9l1-.55a2.64,2.64,0,0,0,2.46,1.49,2.16,2.16,0,0,0,2.33-2.36v-1h-.17A2.62,2.62,0,0,1,409,344a3.56,3.56,0,0,1,0-7.09,2.62,2.62,0,0,1,2.49,1.38h.2v-1.18Zm-1.06,3.35a2.42,2.42,0,1,0-4.82,0,2.41,2.41,0,1,0,4.82,0Z"/><path class="cls-4" d="M418.28,336.87a3.19,3.19,0,0,1,3.31,3.4v.58H416a2.3,2.3,0,0,0,2.41,2.31,2.18,2.18,0,0,0,2.12-1.36l.93.49a3.25,3.25,0,0,1-3,1.82,3.48,3.48,0,0,1-3.54-3.67A3.41,3.41,0,0,1,418.28,336.87Zm2.19,3.1a2,2,0,0,0-2.19-2.15A2.18,2.18,0,0,0,416,340Z"/><path class="cls-4" d="M426.1,336.88a4.11,4.11,0,0,1,3.39,1.81l-.83.56a3.09,3.09,0,0,0-2.55-1.45c-.88,0-1.53.36-1.53,1.05s.75.88,1.59,1l.64.1c1.58.24,2.7.65,2.7,2s-1.2,2.2-3,2.2a3.77,3.77,0,0,1-3.54-2.24l1-.49a2.68,2.68,0,0,0,2.61,1.79c1.12,0,1.88-.49,1.88-1.23s-.86-.88-1.76-1l-.64-.1c-1.5-.21-2.52-.68-2.52-2S424.7,336.88,426.1,336.88Z"/><path class="cls-2" d="M282.91,171.14a3.2,3.2,0,0,1,3.3,3.41v.57h-5.58a2.28,2.28,0,0,0,2.41,2.31,2.17,2.17,0,0,0,2.11-1.36l.94.49a3.23,3.23,0,0,1-3,1.82,3.47,3.47,0,0,1-3.54-3.67A3.41,3.41,0,0,1,282.91,171.14Zm2.18,3.1a2,2,0,0,0-2.18-2.15,2.17,2.17,0,0,0-2.28,2.15Z"/><path class="cls-2" d="M288.93,171.35l2,2.65h.17l2-2.65h1.32l-2.62,3.34,2.73,3.5h-1.33l-2.11-2.8H291l-2.13,2.8h-1.32l2.73-3.5-2.62-3.34Z"/><path class="cls-2" d="M297.87,171.35v-2.46H299v2.46h2.17v.94H299v4.55c0,.28.11.41.37.41h1.41v.94h-1.81a1,1,0,0,1-1.05-1.08v-4.82H295.8v-.94Z"/><path class="cls-2" d="M304.22,172.38h.19a1.64,1.64,0,0,1,1.77-1.06H307v1h-1.18a1.49,1.49,0,0,0-1.59,1.71v4.12h-1.07v-6.84h1Z"/><path class="cls-2" d="M311.9,171.16a2.65,2.65,0,0,1,3,2.71v4.32h-1.05V177h-.19a2.68,2.68,0,0,1-2.58,1.34c-1.49,0-2.55-.78-2.55-2s1-1.88,2.6-2l2.71-.26v-.26c0-1-.7-1.7-1.94-1.7a2.36,2.36,0,0,0-2.33,1.53l-.94-.43A3.53,3.53,0,0,1,311.9,171.16Zm-.71,6.31a2.33,2.33,0,0,0,2.62-2.38V175l-2.57.24c-.95.08-1.66.38-1.66,1.15S310.24,177.47,311.19,177.47Z"/><path class="cls-2" d="M320.53,171.16a3.14,3.14,0,0,1,3.26,2.63l-1.06.21a2.07,2.07,0,0,0-2.2-1.85,2.63,2.63,0,0,0,0,5.25,2.08,2.08,0,0,0,2.2-1.86l1.07.21a3.19,3.19,0,0,1-3.27,2.63,3.61,3.61,0,0,1,0-7.22Z"/><path class="cls-2" d="M327.12,171.35v-2.46h1.08v2.46h2.17v.94H328.2v4.55c0,.28.11.41.36.41H330v.94h-1.81a1,1,0,0,1-1.05-1.08v-4.82h-2.07v-.94Z"/><path class="cls-4" d="M338.59,171.35v-2.46h1.07v2.46h2.18v.94h-2.18v4.55c0,.28.12.41.37.41h1.41v.94h-1.8a1,1,0,0,1-1.05-1.08v-4.82h-2.08v-.94Z"/><path class="cls-4" d="M345,168.38v4.19h.17a2.45,2.45,0,0,1,2.39-1.33,2.59,2.59,0,0,1,2.71,2.82v4.13h-1.08v-4.05a1.74,1.74,0,0,0-1.92-2,2.2,2.2,0,0,0-2.27,2.49v3.52H343.9v-9.81Z"/><path class="cls-4" d="M355.75,171.14a3.2,3.2,0,0,1,3.31,3.41v.57h-5.59a2.28,2.28,0,0,0,2.41,2.31,2.17,2.17,0,0,0,2.11-1.36l.94.49a3.23,3.23,0,0,1-3,1.82,3.47,3.47,0,0,1-3.54-3.67A3.41,3.41,0,0,1,355.75,171.14Zm2.19,3.1a2,2,0,0,0-2.19-2.15,2.17,2.17,0,0,0-2.28,2.15Z"/><path class="cls-4" d="M369.22,171.16a3.14,3.14,0,0,1,3.26,2.63l-1.06.21a2.07,2.07,0,0,0-2.2-1.85,2.63,2.63,0,0,0,0,5.25,2.09,2.09,0,0,0,2.2-1.86l1.06.21a3.18,3.18,0,0,1-3.26,2.63,3.61,3.61,0,0,1,0-7.22Z"/><path class="cls-4" d="M377.65,171.16a2.65,2.65,0,0,1,3,2.71v4.32h-1.06V177h-.19a2.68,2.68,0,0,1-2.58,1.34c-1.48,0-2.55-.78-2.55-2s1-1.88,2.61-2l2.7-.26v-.26c0-1-.7-1.7-1.93-1.7a2.37,2.37,0,0,0-2.34,1.53l-.94-.43A3.54,3.54,0,0,1,377.65,171.16Zm-.72,6.31a2.33,2.33,0,0,0,2.62-2.38V175l-2.56.24c-.95.08-1.67.38-1.67,1.15S376,177.47,376.93,177.47Z"/><path class="cls-4" d="M384.27,171.35v-2.46h1.08v2.46h2.17v.94h-2.17v4.55c0,.28.11.41.36.41h1.41v.94h-1.8a1,1,0,0,1-1.05-1.08v-4.82h-2.08v-.94Z"/><path class="cls-4" d="M392.47,171.14a3.2,3.2,0,0,1,3.31,3.41v.57h-5.59a2.28,2.28,0,0,0,2.41,2.31,2.17,2.17,0,0,0,2.11-1.36l.94.49a3.23,3.23,0,0,1-3,1.82,3.47,3.47,0,0,1-3.54-3.67A3.41,3.41,0,0,1,392.47,171.14Zm2.19,3.1a2,2,0,0,0-2.19-2.15,2.17,2.17,0,0,0-2.28,2.15Z"/><path class="cls-4" d="M404.44,171.35v6.59a3.12,3.12,0,0,1-3.32,3.25,3.91,3.91,0,0,1-3.51-1.91l1-.55a2.64,2.64,0,0,0,2.46,1.49,2.15,2.15,0,0,0,2.33-2.35v-1h-.17a2.62,2.62,0,0,1-2.49,1.37,3.55,3.55,0,0,1,0-7.08,2.62,2.62,0,0,1,2.49,1.37h.2v-1.18Zm-1.06,3.35a2.42,2.42,0,1,0-4.82,0,2.41,2.41,0,1,0,4.82,0Z"/><path class="cls-4" d="M410.14,171.16a3.61,3.61,0,1,1-3.49,3.61A3.4,3.4,0,0,1,410.14,171.16Zm0,6.24a2.63,2.63,0,1,0-2.42-2.63A2.38,2.38,0,0,0,410.14,177.4Z"/><path class="cls-4" d="M416.84,172.38h.2a1.63,1.63,0,0,1,1.77-1.06h.85v1h-1.18c-1,0-1.59.58-1.59,1.71v4.12h-1.07v-6.84h1Z"/><path class="cls-4" d="M422.09,168.31a.91.91,0,1,1-.92.91A.91.91,0,0,1,422.09,168.31Zm.54,9.88h-1.07v-6.84h1.07Z"/><path class="cls-4" d="M428.24,171.14a3.2,3.2,0,0,1,3.31,3.41v.57H426a2.28,2.28,0,0,0,2.41,2.31,2.17,2.17,0,0,0,2.11-1.36l.94.49a3.23,3.23,0,0,1-3,1.82,3.47,3.47,0,0,1-3.54-3.67A3.41,3.41,0,0,1,428.24,171.14Zm2.19,3.1a2,2,0,0,0-2.19-2.15,2.17,2.17,0,0,0-2.28,2.15Z"/><path class="cls-4" d="M436.05,171.16a4.07,4.07,0,0,1,3.39,1.8l-.82.56a3.09,3.09,0,0,0-2.55-1.45c-.89,0-1.53.36-1.53,1.05s.74.88,1.58,1l.65.09c1.58.24,2.7.65,2.7,2s-1.2,2.19-3,2.19a3.78,3.78,0,0,1-3.55-2.24l1-.49a2.68,2.68,0,0,0,2.61,1.8c1.12,0,1.87-.49,1.87-1.24s-.85-.88-1.75-1l-.64-.09c-1.5-.21-2.52-.69-2.52-2S434.65,171.16,436.05,171.16Z"/><path class="cls-4" d="M314.22,186.16a3.61,3.61,0,1,1-3.49,3.61A3.4,3.4,0,0,1,314.22,186.16Zm0,6.24a2.63,2.63,0,1,0-2.42-2.63A2.38,2.38,0,0,0,314.22,192.4Z"/><path class="cls-4" d="M321.11,186.35v-1.87a1,1,0,0,1,1.06-1.1h1.75v.94h-1.37c-.25,0-.38.13-.38.41v1.62h2.12v.94h-2.12v5.9h-1.06v-5.9H319v-.94Z"/><path class="cls-4" d="M334.07,186.14a3.2,3.2,0,0,1,3.31,3.41v.57h-5.59a2.28,2.28,0,0,0,2.41,2.31,2.17,2.17,0,0,0,2.11-1.36l.94.49a3.23,3.23,0,0,1-3,1.82,3.47,3.47,0,0,1-3.54-3.67A3.41,3.41,0,0,1,334.07,186.14Zm2.19,3.1a2,2,0,0,0-2.19-2.15,2.17,2.17,0,0,0-2.28,2.15Z"/><path class="cls-4" d="M339.85,186.35l2.15,5.79h.16l2.15-5.79h1.16l-2.63,6.84h-1.52l-2.63-6.84Z"/><path class="cls-4" d="M350.24,186.14a3.2,3.2,0,0,1,3.31,3.41v.57H348a2.28,2.28,0,0,0,2.41,2.31,2.17,2.17,0,0,0,2.11-1.36l.94.49a3.23,3.23,0,0,1-3,1.82,3.47,3.47,0,0,1-3.54-3.67A3.41,3.41,0,0,1,350.24,186.14Zm2.19,3.1a2,2,0,0,0-2.19-2.15,2.17,2.17,0,0,0-2.28,2.15Z"/><path class="cls-4" d="M356.72,187.38h.2a1.62,1.62,0,0,1,1.76-1.06h.86v1h-1.18a1.49,1.49,0,0,0-1.6,1.71v4.12H355.7v-6.84h1Z"/><path class="cls-4" d="M368.22,186.35,364.09,196h-1.17l1.21-2.7-3-6.94h1.16l2.28,5.48h.17l2.29-5.48Z"/><path class="cls-4" d="M375.1,186.35h1v1.18h.2a2.61,2.61,0,0,1,2.49-1.37,3.63,3.63,0,0,1,0,7.22,2.63,2.63,0,0,1-2.49-1.35h-.17v4H375.1Zm5.89,3.42a2.42,2.42,0,1,0-2.41,2.65A2.38,2.38,0,0,0,381,189.77Z"/><path class="cls-4" d="M387.26,186.16a2.65,2.65,0,0,1,3,2.71v4.32h-1.05V192H389a2.68,2.68,0,0,1-2.58,1.34c-1.48,0-2.55-.78-2.55-2s1-1.88,2.61-2l2.7-.26v-.26c0-1-.7-1.7-1.93-1.7a2.37,2.37,0,0,0-2.34,1.53l-.94-.43A3.55,3.55,0,0,1,387.26,186.16Zm-.72,6.31a2.33,2.33,0,0,0,2.62-2.38V190l-2.56.24c-1,.08-1.67.38-1.67,1.15S385.59,192.47,386.54,192.47Z"/><path class="cls-4" d="M399.31,186.35v6.59a3.12,3.12,0,0,1-3.32,3.25,3.91,3.91,0,0,1-3.51-1.91l1-.55a2.64,2.64,0,0,0,2.46,1.49,2.15,2.15,0,0,0,2.33-2.35v-1h-.17a2.62,2.62,0,0,1-2.49,1.37,3.55,3.55,0,0,1,0-7.08,2.62,2.62,0,0,1,2.49,1.37h.2v-1.18Zm-1.06,3.35a2.42,2.42,0,1,0-4.82,0,2.41,2.41,0,1,0,4.82,0Z"/><path class="cls-4" d="M404.92,186.14a3.2,3.2,0,0,1,3.31,3.41v.57h-5.59a2.3,2.3,0,0,0,2.41,2.31,2.18,2.18,0,0,0,2.12-1.36l.93.49a3.23,3.23,0,0,1-3,1.82,3.48,3.48,0,0,1-3.54-3.67A3.41,3.41,0,0,1,404.92,186.14Zm2.19,3.1a2,2,0,0,0-2.19-2.15,2.18,2.18,0,0,0-2.28,2.15Z"/><path class="cls-2" d="M306,246.76a4.11,4.11,0,0,1,3.39,1.81l-.83.56a3.05,3.05,0,0,0-2.55-1.46c-.88,0-1.52.36-1.52,1.05s.74.88,1.58,1l.64.1c1.59.24,2.71.64,2.71,2s-1.21,2.2-3,2.2a3.78,3.78,0,0,1-3.55-2.24l1-.49a2.68,2.68,0,0,0,2.6,1.79c1.12,0,1.88-.49,1.88-1.23s-.85-.89-1.75-1l-.65-.1c-1.49-.21-2.52-.69-2.52-2S304.56,246.76,306,246.76Z"/><path class="cls-2" d="M314.47,246.75a3.19,3.19,0,0,1,3.31,3.4v.57h-5.59A2.3,2.3,0,0,0,314.6,253a2.17,2.17,0,0,0,2.11-1.36l.94.49a3.25,3.25,0,0,1-3,1.82,3.47,3.47,0,0,1-3.54-3.67A3.41,3.41,0,0,1,314.47,246.75Zm2.19,3.09a2,2,0,0,0-2.19-2.14,2.17,2.17,0,0,0-2.28,2.14Z"/><path class="cls-2" d="M321,253.79h-1.07V244H321Z"/><path class="cls-2" d="M326.61,246.75a3.19,3.19,0,0,1,3.31,3.4v.57h-5.59a2.29,2.29,0,0,0,2.41,2.32,2.18,2.18,0,0,0,2.11-1.36l.94.49a3.25,3.25,0,0,1-3,1.82,3.47,3.47,0,0,1-3.54-3.67A3.41,3.41,0,0,1,326.61,246.75Zm2.19,3.09a2,2,0,0,0-2.19-2.14,2.17,2.17,0,0,0-2.28,2.14Z"/><path class="cls-2" d="M335.15,246.76a3.15,3.15,0,0,1,3.26,2.63l-1.06.21a2.07,2.07,0,0,0-2.2-1.85,2.64,2.64,0,0,0,0,5.26,2.1,2.1,0,0,0,2.2-1.87l1.06.21a3.19,3.19,0,0,1-3.26,2.64,3.62,3.62,0,0,1,0-7.23Z"/><path class="cls-2" d="M341.74,247v-2.47h1.08V247H345v.93h-2.17v4.56c0,.28.11.4.37.4h1.41v.94h-1.81a1,1,0,0,1-1.05-1.08v-4.82h-2.07V247Z"/><path class="cls-4" d="M353.21,247v-2.47h1.08V247h2.17v.93h-2.17v4.56c0,.28.11.4.36.4h1.42v.94h-1.81a1,1,0,0,1-1.05-1.08v-4.82h-2.07V247Z"/><path class="cls-4" d="M359.59,244v4.18h.17a2.46,2.46,0,0,1,2.4-1.33,2.6,2.6,0,0,1,2.7,2.82v4.13h-1.08v-4a1.74,1.74,0,0,0-1.92-2,2.21,2.21,0,0,0-2.27,2.5v3.51h-1.06V244Z"/><path class="cls-4" d="M370.37,246.75a3.19,3.19,0,0,1,3.31,3.4v.57h-5.59A2.3,2.3,0,0,0,370.5,253a2.19,2.19,0,0,0,2.12-1.36l.93.49a3.25,3.25,0,0,1-3,1.82,3.47,3.47,0,0,1-3.54-3.67A3.41,3.41,0,0,1,370.37,246.75Zm2.19,3.09a2,2,0,0,0-2.19-2.14,2.17,2.17,0,0,0-2.28,2.14Z"/><path class="cls-4" d="M381.8,247v.92H382a2.11,2.11,0,0,1,1.94-1,2,2,0,0,1,1.94,1.21h.2a2.15,2.15,0,0,1,2.07-1.21,2.22,2.22,0,0,1,2.33,2.26v4.69h-1.08v-4.61a1.39,1.39,0,0,0-1.56-1.41,1.62,1.62,0,0,0-1.68,1.79v4.23h-1.08v-4.61a1.36,1.36,0,0,0-1.51-1.41,1.65,1.65,0,0,0-1.73,1.79v4.23h-1.07V247Z"/><path class="cls-4" d="M396.08,246.76a2.66,2.66,0,0,1,3,2.72v4.31H398v-1.15h-.2a2.69,2.69,0,0,1-2.58,1.35c-1.48,0-2.55-.79-2.55-2s1-1.88,2.61-2l2.7-.25v-.27c0-1-.7-1.69-1.93-1.69a2.38,2.38,0,0,0-2.34,1.52l-.94-.43A3.55,3.55,0,0,1,396.08,246.76Zm-.72,6.32A2.33,2.33,0,0,0,398,250.7v-.14l-2.56.23c-.95.09-1.67.38-1.67,1.15S394.41,253.08,395.36,253.08Z"/><path class="cls-4" d="M402.15,243.92a.91.91,0,1,1-.92.91A.91.91,0,0,1,402.15,243.92Zm.53,9.87h-1.06V247h1.06Z"/><path class="cls-4" d="M406.38,247v1.21h.2a2.44,2.44,0,0,1,2.39-1.33,2.6,2.6,0,0,1,2.7,2.82v4.13H410.6v-4a1.74,1.74,0,0,0-1.92-2,2.2,2.2,0,0,0-2.27,2.5v3.51h-1.07V247Z"/><path class="cls-2" d="M416.08,244v4.9h-.95v-3.77H415l-.71,1h-.93V246l1.46-2Z"/><path class="cls-4" d="M277,261.76a3.16,3.16,0,0,1,3.27,2.63l-1.07.21a2.06,2.06,0,0,0-2.2-1.85,2.64,2.64,0,0,0,0,5.26,2.1,2.1,0,0,0,2.2-1.87l1.07.21a3.2,3.2,0,0,1-3.27,2.64,3.62,3.62,0,0,1,0-7.23Z"/><path class="cls-4" d="M285.45,261.76a2.66,2.66,0,0,1,3,2.72v4.31h-1.05v-1.15h-.2A2.66,2.66,0,0,1,284.6,269c-1.49,0-2.55-.79-2.55-2s1-1.88,2.6-2l2.71-.25v-.27c0-1-.7-1.69-1.94-1.69a2.38,2.38,0,0,0-2.34,1.52l-.93-.43A3.53,3.53,0,0,1,285.45,261.76Zm-.71,6.32a2.34,2.34,0,0,0,2.62-2.38v-.14l-2.57.23c-1,.09-1.66.38-1.66,1.15S283.78,268.08,284.74,268.08Z"/><path class="cls-4" d="M292.07,262v-2.47h1.08V262h2.17v.93h-2.17v4.56c0,.28.11.4.37.4h1.41v.94h-1.81a1,1,0,0,1-1.05-1.08v-4.82H290V262Z"/><path class="cls-4" d="M300.28,261.75a3.19,3.19,0,0,1,3.3,3.4v.57H298A2.3,2.3,0,0,0,300.4,268a2.19,2.19,0,0,0,2.12-1.36l.94.49a3.25,3.25,0,0,1-3,1.82,3.48,3.48,0,0,1-3.55-3.67A3.41,3.41,0,0,1,300.28,261.75Zm2.18,3.09a2,2,0,0,0-2.18-2.14,2.18,2.18,0,0,0-2.29,2.14Z"/><path class="cls-4" d="M312.25,262v6.58a3.13,3.13,0,0,1-3.32,3.25,3.91,3.91,0,0,1-3.52-1.91l1-.54a2.67,2.67,0,0,0,2.47,1.48,2.14,2.14,0,0,0,2.32-2.35v-1H311a2.64,2.64,0,0,1-2.5,1.38,3.56,3.56,0,0,1,0-7.09,2.65,2.65,0,0,1,2.5,1.37h.19V262Zm-1.07,3.34a2.41,2.41,0,1,0-2.4,2.57A2.33,2.33,0,0,0,311.18,265.3Z"/><path class="cls-4" d="M318,261.76a3.62,3.62,0,1,1-3.49,3.61A3.4,3.4,0,0,1,318,261.76Zm0,6.25a2.64,2.64,0,1,0-2.43-2.64A2.38,2.38,0,0,0,318,268Z"/><path class="cls-4" d="M324.65,263h.2a1.62,1.62,0,0,1,1.76-1.05h.86v1h-1.18a1.49,1.49,0,0,0-1.6,1.71v4.12h-1.06V262h1Z"/><path class="cls-4" d="M336.15,262,332,271.59h-1.16l1.21-2.7-3-6.93h1.16l2.28,5.47h.17L335,262Z"/><path class="cls-4" d="M344.31,262v-1.88a1,1,0,0,1,1.06-1.09h1.75v.93h-1.37c-.25,0-.38.13-.38.41V262h2.12v.93h-2.12v5.9h-1.06v-5.9h-2.08V262Z"/><path class="cls-4" d="M352.36,261.76a3.62,3.62,0,1,1-3.49,3.61A3.4,3.4,0,0,1,352.36,261.76Zm0,6.25a2.64,2.64,0,1,0-2.43-2.64A2.39,2.39,0,0,0,352.36,268Z"/><path class="cls-4" d="M359.06,263h.2a1.62,1.62,0,0,1,1.76-1.05h.86v1H360.7a1.49,1.49,0,0,0-1.6,1.71v4.12H358V262h1Z"/><path class="cls-4" d="M371.66,261.75a3.19,3.19,0,0,1,3.31,3.4v.57h-5.59a2.3,2.3,0,0,0,2.41,2.32,2.17,2.17,0,0,0,2.11-1.36l.94.49a3.25,3.25,0,0,1-3,1.82,3.47,3.47,0,0,1-3.54-3.67A3.41,3.41,0,0,1,371.66,261.75Zm2.19,3.09a2,2,0,0,0-2.19-2.14,2.17,2.17,0,0,0-2.28,2.14Z"/><path class="cls-4" d="M377.44,262l2.15,5.78h.16L381.9,262h1.16l-2.63,6.83h-1.52L376.28,262Z"/><path class="cls-4" d="M387.83,261.75a3.19,3.19,0,0,1,3.31,3.4v.57h-5.59A2.29,2.29,0,0,0,388,268a2.17,2.17,0,0,0,2.11-1.36l.94.49a3.25,3.25,0,0,1-3,1.82,3.47,3.47,0,0,1-3.54-3.67A3.41,3.41,0,0,1,387.83,261.75Zm2.19,3.09a2,2,0,0,0-2.19-2.14,2.17,2.17,0,0,0-2.28,2.14Z"/><path class="cls-4" d="M394.31,263h.2a1.62,1.62,0,0,1,1.76-1.05h.86v1H396c-1,0-1.59.58-1.59,1.71v4.12h-1.07V262h1Z"/><path class="cls-4" d="M405.81,262l-4.13,9.63h-1.16l1.2-2.7-3-6.93h1.16l2.29,5.47h.16l2.29-5.47Z"/><path class="cls-4" d="M412.69,262h1v1.17h.2a2.63,2.63,0,0,1,2.49-1.37,3.64,3.64,0,0,1,0,7.23,2.64,2.64,0,0,1-2.49-1.36h-.17v4h-1.07Zm5.89,3.41a2.42,2.42,0,1,0-2.41,2.65A2.37,2.37,0,0,0,418.58,265.37Z"/><path class="cls-4" d="M424.85,261.76a2.66,2.66,0,0,1,3,2.72v4.31h-1.05v-1.15h-.2A2.69,2.69,0,0,1,424,269c-1.48,0-2.55-.79-2.55-2s1-1.88,2.61-2l2.7-.25v-.27c0-1-.7-1.69-1.93-1.69a2.38,2.38,0,0,0-2.34,1.52l-.94-.43A3.55,3.55,0,0,1,424.85,261.76Zm-.72,6.32a2.33,2.33,0,0,0,2.62-2.38v-.14l-2.56.23c-.95.09-1.67.38-1.67,1.15S423.18,268.08,424.13,268.08Z"/><path class="cls-4" d="M436.9,262v6.58a3.12,3.12,0,0,1-3.32,3.25,3.89,3.89,0,0,1-3.51-1.91l1-.54a2.66,2.66,0,0,0,2.46,1.48,2.15,2.15,0,0,0,2.33-2.35v-1h-.17a2.62,2.62,0,0,1-2.49,1.38,3.56,3.56,0,0,1,0-7.09,2.63,2.63,0,0,1,2.49,1.37h.2V262Zm-1.06,3.34a2.41,2.41,0,1,0-2.41,2.57A2.34,2.34,0,0,0,435.84,265.3Z"/><path class="cls-4" d="M442.52,261.75a3.19,3.19,0,0,1,3.3,3.4v.57h-5.59a2.3,2.3,0,0,0,2.41,2.32,2.19,2.19,0,0,0,2.12-1.36l.94.49a3.26,3.26,0,0,1-3,1.82,3.48,3.48,0,0,1-3.55-3.67A3.41,3.41,0,0,1,442.52,261.75Zm2.18,3.09a2,2,0,0,0-2.18-2.14,2.18,2.18,0,0,0-2.29,2.14Z"/><line class="cls-6" x1="634.28" y1="158.62" x2="634.28" y2="203.01"/><path class="cls-7" d="M650.48,167.61a2.59,2.59,0,0,1,2.89,2.64,2.13,2.13,0,0,1-1.63,2.17v.16a2.16,2.16,0,0,1,1.65,2.19,2.63,2.63,0,0,1-2.9,2.65h-4.27v-9.81Zm-2.64,4.15h2.49a1.31,1.31,0,0,0,1.49-1.35c0-.85-.6-1.31-1.5-1.31h-2.48Zm0,4.17h2.49c.9,0,1.5-.47,1.5-1.33a1.31,1.31,0,0,0-1.48-1.36h-2.51Z"/><path class="cls-7" d="M661.73,167.61v1.49H657v2.64h4.34v1.49H657v2.7h4.8v1.49h-6.43v-9.81Z"/><path class="cls-7" d="M668.46,167.61l2.89,9.81h-1.69l-.65-2.27h-3.68l-.66,2.27H663l2.9-9.81Zm.14,6L667.25,169h-.17l-1.35,4.66Z"/><path class="cls-7" d="M674.4,167.61v6.46a2.13,2.13,0,0,0,4.26,0v-6.46h1.62V174c0,2.25-1.36,3.58-3.75,3.58s-3.76-1.33-3.76-3.58v-6.42Z"/><path class="cls-7" d="M689.66,167.61v1.49h-3.07v8.32H685V169.1H681.9v-1.49Z"/><path class="cls-7" d="M693,167.61v9.81h-1.63v-9.81Z"/><path class="cls-7" d="M701.51,167.61v1.49H697v2.66h4.29v1.48H697v4.18h-1.62v-9.81Z"/><path class="cls-7" d="M704.85,167.61v6.46a2.13,2.13,0,0,0,4.26,0v-6.46h1.62V174c0,2.25-1.36,3.58-3.75,3.58s-3.76-1.33-3.76-3.58v-6.42Z"/><path class="cls-7" d="M714.69,167.61v8.32h4.68v1.49h-6.3v-9.81Z"/><path class="cls-7" d="M653.08,187.31v.44h-1.6v-.33c0-1.19-.79-1.76-2-1.76-1,0-1.74.53-1.74,1.3s.73,1.16,2,1.46l.38.08c1.92.42,3.07,1.17,3.07,2.9,0,1.89-1.52,3-3.56,3-2.4,0-3.92-1.34-3.92-3.57v-.38h1.61v.3a2.06,2.06,0,0,0,2.34,2.21c1.24,0,1.92-.67,1.92-1.5s-.68-1.23-2-1.5l-.38-.08c-1.89-.42-3.14-1.09-3.14-2.9s1.49-2.77,3.35-2.77C651.54,184.22,653.08,185.32,653.08,187.31Z"/><path class="cls-7" d="M658.79,184.22a3.67,3.67,0,0,1,3.92,4v2.13c0,2.55-1.47,4-3.92,4s-3.92-1.48-3.92-4v-2.13A3.66,3.66,0,0,1,658.79,184.22Zm-2.3,6.22c0,1.56.75,2.5,2.3,2.5s2.3-1,2.3-2.5v-2.25c0-1.57-.8-2.5-2.3-2.5a2.19,2.19,0,0,0-2.3,2.5Z"/><path class="cls-7" d="M666.31,184.41v6.46a2.13,2.13,0,0,0,4.26,0v-6.46h1.62v6.42c0,2.25-1.36,3.58-3.75,3.58s-3.76-1.33-3.76-3.58v-6.42Z"/><path class="cls-7" d="M678.45,184.41a3,3,0,1,1,0,6.05h-2.3v3.76h-1.63v-9.81Zm-2.3,4.57h2.13a1.54,1.54,0,1,0,0-3.08h-2.13Z"/><path class="cls-8" d="M650.48,167.61a2.59,2.59,0,0,1,2.89,2.64,2.13,2.13,0,0,1-1.63,2.17v.16a2.16,2.16,0,0,1,1.65,2.19,2.63,2.63,0,0,1-2.9,2.65h-4.27v-9.81Zm-2.64,4.15h2.49a1.31,1.31,0,0,0,1.49-1.35c0-.85-.6-1.31-1.5-1.31h-2.48Zm0,4.17h2.49c.9,0,1.5-.47,1.5-1.33a1.31,1.31,0,0,0-1.48-1.36h-2.51Z"/><path class="cls-8" d="M661.73,167.61v1.49H657v2.64h4.34v1.49H657v2.7h4.8v1.49h-6.43v-9.81Z"/><path class="cls-8" d="M668.46,167.61l2.89,9.81h-1.69l-.65-2.27h-3.68l-.66,2.27H663l2.9-9.81Zm.14,6L667.25,169h-.17l-1.35,4.66Z"/><path class="cls-8" d="M674.4,167.61v6.46a2.13,2.13,0,0,0,4.26,0v-6.46h1.62V174c0,2.25-1.36,3.58-3.75,3.58s-3.76-1.33-3.76-3.58v-6.42Z"/><path class="cls-8" d="M689.66,167.61v1.49h-3.07v8.32H685V169.1H681.9v-1.49Z"/><path class="cls-8" d="M693,167.61v9.81h-1.63v-9.81Z"/><path class="cls-8" d="M701.51,167.61v1.49H697v2.66h4.29v1.48H697v4.18h-1.62v-9.81Z"/><path class="cls-8" d="M704.85,167.61v6.46a2.13,2.13,0,0,0,4.26,0v-6.46h1.62V174c0,2.25-1.36,3.58-3.75,3.58s-3.76-1.33-3.76-3.58v-6.42Z"/><path class="cls-8" d="M714.69,167.61v8.32h4.68v1.49h-6.3v-9.81Z"/><path class="cls-8" d="M653.08,187.31v.44h-1.6v-.33c0-1.19-.79-1.76-2-1.76-1,0-1.74.53-1.74,1.3s.73,1.16,2,1.46l.38.08c1.92.42,3.07,1.17,3.07,2.9,0,1.89-1.52,3-3.56,3-2.4,0-3.92-1.34-3.92-3.57v-.38h1.61v.3a2.06,2.06,0,0,0,2.34,2.21c1.24,0,1.92-.67,1.92-1.5s-.68-1.23-2-1.5l-.38-.08c-1.89-.42-3.14-1.09-3.14-2.9s1.49-2.77,3.35-2.77C651.54,184.22,653.08,185.32,653.08,187.31Z"/><path class="cls-8" d="M658.79,184.22a3.67,3.67,0,0,1,3.92,4v2.13c0,2.55-1.47,4-3.92,4s-3.92-1.48-3.92-4v-2.13A3.66,3.66,0,0,1,658.79,184.22Zm-2.3,6.22c0,1.56.75,2.5,2.3,2.5s2.3-1,2.3-2.5v-2.25c0-1.57-.8-2.5-2.3-2.5a2.19,2.19,0,0,0-2.3,2.5Z"/><path class="cls-8" d="M666.31,184.41v6.46a2.13,2.13,0,0,0,4.26,0v-6.46h1.62v6.42c0,2.25-1.36,3.58-3.75,3.58s-3.76-1.33-3.76-3.58v-6.42Z"/><path class="cls-8" d="M678.45,184.41a3,3,0,1,1,0,6.05h-2.3v3.76h-1.63v-9.81Zm-2.3,4.57h2.13a1.54,1.54,0,1,0,0-3.08h-2.13Z"/><line class="cls-6" x1="634.28" y1="385.54" x2="634.28" y2="429.93"/><path class="cls-7" d="M649.41,402.83c2.56,0,4,1.28,4,3.9v2c0,2.61-1.44,3.9-4,3.9h-3.2v-9.81Zm-1.57,8.32h1.57a2.08,2.08,0,0,0,2.38-2.39v-2.05a2.08,2.08,0,0,0-2.38-2.39h-1.57Z"/><path class="cls-7" d="M662,402.83v1.43l-2.8,2.37v.17h.36a2.6,2.6,0,0,1,2.64,2.78,3.3,3.3,0,0,1-3.6,3.25c-2.23,0-3.71-1.37-3.71-3.3V409h1.62v.46a1.87,1.87,0,0,0,2.07,1.9,1.79,1.79,0,0,0,2-1.79,1.56,1.56,0,0,0-1.73-1.58h-1.63v-1.47l2.58-2.2H655.2v-1.49Z"/><path class="cls-7" d="M665.07,410.41a1.21,1.21,0,0,1,0,2.42,1.21,1.21,0,1,1,0-2.42Z"/><path class="cls-7" d="M674.25,409.7a2.82,2.82,0,0,1-3.11,3.13c-2.06,0-3.31-1.14-3.31-3.13v-.87h1.62v.87a1.5,1.5,0,0,0,1.64,1.65c1.07,0,1.53-.63,1.53-1.65v-6.87h1.63Z"/><path class="cls-7" d="M683.44,405.73v.44h-1.59v-.33c0-1.19-.8-1.76-2-1.76-1,0-1.73.53-1.73,1.3s.72,1.16,2,1.46l.38.08c1.92.42,3.07,1.17,3.07,2.9,0,1.89-1.51,3-3.56,3-2.39,0-3.92-1.34-3.92-3.57v-.38h1.61v.3a2.06,2.06,0,0,0,2.34,2.21c1.25,0,1.92-.67,1.92-1.5s-.67-1.23-2-1.5l-.38-.08c-1.89-.42-3.13-1.09-3.13-2.9s1.48-2.77,3.34-2.77C681.9,402.64,683.44,403.74,683.44,405.73Z"/><path class="cls-8" d="M649.41,402.83c2.56,0,4,1.28,4,3.9v2c0,2.61-1.44,3.9-4,3.9h-3.2v-9.81Zm-1.57,8.32h1.57a2.08,2.08,0,0,0,2.38-2.39v-2.05a2.08,2.08,0,0,0-2.38-2.39h-1.57Z"/><path class="cls-8" d="M662,402.83v1.43l-2.8,2.37v.17h.36a2.6,2.6,0,0,1,2.64,2.78,3.3,3.3,0,0,1-3.6,3.25c-2.23,0-3.71-1.37-3.71-3.3V409h1.62v.46a1.87,1.87,0,0,0,2.07,1.9,1.79,1.79,0,0,0,2-1.79,1.56,1.56,0,0,0-1.73-1.58h-1.63v-1.47l2.58-2.2H655.2v-1.49Z"/><path class="cls-8" d="M665.07,410.41a1.21,1.21,0,0,1,0,2.42,1.21,1.21,0,1,1,0-2.42Z"/><path class="cls-8" d="M674.25,409.7a2.82,2.82,0,0,1-3.11,3.13c-2.06,0-3.31-1.14-3.31-3.13v-.87h1.62v.87a1.5,1.5,0,0,0,1.64,1.65c1.07,0,1.53-.63,1.53-1.65v-6.87h1.63Z"/><path class="cls-8" d="M683.44,405.73v.44h-1.59v-.33c0-1.19-.8-1.76-2-1.76-1,0-1.73.53-1.73,1.3s.72,1.16,2,1.46l.38.08c1.92.42,3.07,1.17,3.07,2.9,0,1.89-1.51,3-3.56,3-2.39,0-3.92-1.34-3.92-3.57v-.38h1.61v.3a2.06,2.06,0,0,0,2.34,2.21c1.25,0,1.92-.67,1.92-1.5s-.67-1.23-2-1.5l-.38-.08c-1.89-.42-3.13-1.09-3.13-2.9s1.48-2.77,3.34-2.77C681.9,402.64,683.44,403.74,683.44,405.73Z"/><rect class="cls-1" y="377.27" width="621.2" height="62.02"/><rect class="cls-2" x="10.95" y="388.25" width="101.3" height="20.9"/><path class="cls-3" d="M19,394.25l2,7.1h.1l2-7.1h1.5l-2.5,8.4h-2.2l-2.5-8.4Z"/><path class="cls-3" d="M27.35,394.25v8.4H26v-8.4Z"/><path class="cls-3" d="M35.25,396.75v.4h-1.4v-.3c0-1-.7-1.5-1.7-1.5s-1.5.5-1.5,1.1c0,.8.6,1,1.7,1.2l.3.1c1.6.4,2.6,1,2.6,2.5s-1.3,2.6-3,2.6c-2.1,0-3.4-1.2-3.4-3.1v-.3h1.4v.3a1.77,1.77,0,0,0,2,1.9c1.1,0,1.6-.6,1.6-1.3s-.6-1.1-1.7-1.3l-.3-.1c-1.6-.4-2.7-.9-2.7-2.5s1.3-2.4,2.9-2.4C34,394.05,35.25,395.05,35.25,396.75Z"/><path class="cls-3" d="M38.45,394.25v5.5a1.63,1.63,0,0,0,1.8,1.8,1.59,1.59,0,0,0,1.8-1.8v-5.5h1.4v5.5a2.92,2.92,0,0,1-3.2,3.1,2.87,2.87,0,0,1-3.2-3.1v-5.5Z"/><path class="cls-3" d="M49.45,394.25l2.5,8.4h-1.5l-.6-1.9h-3.2l-.6,1.9h-1.5l2.5-8.4Zm.1,5.2-1.2-4h-.1l-1.2,4Z"/><path class="cls-3" d="M54.65,394.25v7.1h4v1.3h-5.4v-8.4Z"/><path class="cls-3" d="M61.55,394.25v8.4h-1.4v-8.4Z"/><path class="cls-3" d="M69.15,394.25v1.2l-4.3,5.9h4.3v1.3h-6v-1.2l4.3-5.9h-4.1v-1.3Z"/><path class="cls-3" d="M75,394.25l2.5,8.4H76l-.6-1.9h-3.2l-.6,1.9h-1.5l2.5-8.4Zm.1,5.2-1.2-4h-.1l-1.2,4Z"/><path class="cls-3" d="M84.15,394.25v1.3h-2.6v7.1h-1.4v-7.1h-2.6v-1.3Z"/><path class="cls-3" d="M87,394.25v8.4h-1.4v-8.4Z"/><path class="cls-3" d="M92.05,394.05a3.18,3.18,0,0,1,3.4,3.5v1.8a3.4,3.4,0,1,1-6.8,0v-1.8A3.18,3.18,0,0,1,92.05,394.05Zm-2,5.4c0,1.3.6,2.1,2,2.1s2-.8,2-2.1v-1.9a2,2,0,1,0-4,0Z"/><path class="cls-3" d="M99.65,394.25l2.3,7.1h.1v-7.1h1.4v8.4H101l-2.3-7.1h-.1v7.1h-1.4v-8.4Z"/><rect class="cls-5" x="293.45" y="388.74" width="132.96" height="37.8"/><path class="cls-4" d="M311.32,397.33v.92h.2a2.07,2.07,0,0,1,1.93-1,2,2,0,0,1,1.95,1.2h.2a2.12,2.12,0,0,1,2.07-1.2,2.2,2.2,0,0,1,2.32,2.25v4.7h-1.07v-4.61a1.4,1.4,0,0,0-1.56-1.42,1.62,1.62,0,0,0-1.68,1.79v4.24H314.6v-4.61a1.37,1.37,0,0,0-1.51-1.42,1.66,1.66,0,0,0-1.74,1.79v4.24h-1.06v-6.84Z"/><path class="cls-4" d="M325.6,397.13a2.66,2.66,0,0,1,3,2.72v4.32h-1.05V403h-.19a2.7,2.7,0,0,1-2.58,1.34c-1.48,0-2.55-.78-2.55-2s1-1.87,2.61-2l2.7-.25v-.27c0-1-.7-1.69-1.93-1.69a2.36,2.36,0,0,0-2.34,1.53l-.94-.44A3.55,3.55,0,0,1,325.6,397.13Zm-.71,6.32a2.34,2.34,0,0,0,2.62-2.38v-.14l-2.56.24c-1,.08-1.67.38-1.67,1.15S323.94,403.45,324.89,403.45Z"/><path class="cls-4" d="M334.23,397.13a3.15,3.15,0,0,1,3.26,2.64l-1.06.21a2.06,2.06,0,0,0-2.2-1.85,2.63,2.63,0,0,0,0,5.25,2.09,2.09,0,0,0,2.2-1.86l1.06.21a3.18,3.18,0,0,1-3.26,2.63,3.62,3.62,0,0,1,0-7.23Z"/><path class="cls-4" d="M340.7,398.35h.19a1.64,1.64,0,0,1,1.77-1.05h.85v1h-1.18c-1,0-1.59.57-1.59,1.71v4.12h-1.07v-6.84h1Z"/><path class="cls-4" d="M348.07,397.13a3.62,3.62,0,1,1-3.48,3.62A3.41,3.41,0,0,1,348.07,397.13Zm0,6.25a2.63,2.63,0,1,0-2.42-2.63A2.38,2.38,0,0,0,348.07,403.38Z"/><path class="cls-4" d="M359.9,397.33v-2.47H361v2.47h2.17v.94H361v4.55c0,.28.11.41.37.41h1.41v.94H361a1,1,0,0,1-1.05-1.08v-4.82h-2.07v-.94Z"/><path class="cls-4" d="M366.29,394.36v4.19h.17a2.44,2.44,0,0,1,2.39-1.33,2.59,2.59,0,0,1,2.7,2.81v4.14h-1.07v-4.05a1.74,1.74,0,0,0-1.92-2,2.19,2.19,0,0,0-2.27,2.49v3.52h-1.07v-9.81Z"/><path class="cls-4" d="M377.07,397.12a3.19,3.19,0,0,1,3.3,3.4v.58h-5.58a2.28,2.28,0,0,0,2.4,2.31,2.19,2.19,0,0,0,2.12-1.36l.94.49a3.25,3.25,0,0,1-3,1.82,3.48,3.48,0,0,1-3.55-3.67A3.42,3.42,0,0,1,377.07,397.12Zm2.18,3.09a2,2,0,0,0-2.18-2.14,2.17,2.17,0,0,0-2.28,2.14Z"/><path class="cls-4" d="M383.56,397.33v.92h.2a2.07,2.07,0,0,1,1.93-1,2,2,0,0,1,1.95,1.2h.19a2.15,2.15,0,0,1,2.08-1.2,2.2,2.2,0,0,1,2.32,2.25v4.7h-1.08v-4.61a1.39,1.39,0,0,0-1.55-1.42,1.62,1.62,0,0,0-1.68,1.79v4.24h-1.08v-4.61a1.37,1.37,0,0,0-1.51-1.42,1.66,1.66,0,0,0-1.74,1.79v4.24h-1.06v-6.84Z"/><path class="cls-4" d="M397.76,397.12a3.2,3.2,0,0,1,3.31,3.4v.58h-5.59a2.28,2.28,0,0,0,2.41,2.31,2.18,2.18,0,0,0,2.11-1.36l.94.49a3.25,3.25,0,0,1-3,1.82,3.47,3.47,0,0,1-3.54-3.67A3.41,3.41,0,0,1,397.76,397.12Zm2.18,3.09a2,2,0,0,0-2.18-2.14,2.17,2.17,0,0,0-2.28,2.14Z"/><path class="cls-4" d="M405.57,397.13a4.11,4.11,0,0,1,3.39,1.81l-.83.56a3.07,3.07,0,0,0-2.54-1.46c-.89,0-1.53.37-1.53,1s.74.89,1.58,1l.65.1c1.58.24,2.7.65,2.7,2s-1.21,2.2-3,2.2a3.78,3.78,0,0,1-3.55-2.24l1-.49a2.68,2.68,0,0,0,2.6,1.79c1.12,0,1.88-.49,1.88-1.23s-.85-.88-1.75-1l-.64-.1c-1.5-.21-2.53-.68-2.53-2S404.17,397.13,405.57,397.13Z"/><path class="cls-4" d="M312.13,413.93a2.66,2.66,0,0,1,3,2.72V421h-1.05v-1.14h-.2a2.67,2.67,0,0,1-2.57,1.34c-1.49,0-2.55-.78-2.55-2s1-1.87,2.6-2l2.7-.25v-.27c0-1-.7-1.69-1.93-1.69a2.37,2.37,0,0,0-2.34,1.53l-.94-.44A3.57,3.57,0,0,1,312.13,413.93Zm-.71,6.32a2.33,2.33,0,0,0,2.61-2.38v-.14l-2.56.24c-1,.08-1.67.38-1.67,1.15S310.46,420.25,311.42,420.25Z"/><path class="cls-4" d="M318.69,415.15h.2a1.64,1.64,0,0,1,1.77-1h.85v1h-1.18c-1,0-1.59.57-1.59,1.71V421h-1.07v-6.83h1Z"/><path class="cls-4" d="M326.07,413.93a3.62,3.62,0,1,1-3.48,3.62A3.42,3.42,0,0,1,326.07,413.93Zm0,6.25a2.63,2.63,0,1,0-2.42-2.63A2.38,2.38,0,0,0,326.07,420.18Z"/><path class="cls-4" d="M337,421v-1.21h-.19a2.46,2.46,0,0,1-2.4,1.34,2.58,2.58,0,0,1-2.69-2.81v-4.15h1.07v4.05a1.74,1.74,0,0,0,1.92,2,2.2,2.2,0,0,0,2.26-2.49v-3.52H338V421Z"/><path class="cls-4" d="M341.68,414.13v1.22h.2a2.45,2.45,0,0,1,2.39-1.33,2.59,2.59,0,0,1,2.71,2.81V421H345.9v-4a1.74,1.74,0,0,0-1.92-2,2.19,2.19,0,0,0-2.27,2.49V421h-1.06v-6.83Z"/><path class="cls-4" d="M356.05,421h-1v-1.17h-.19a2.65,2.65,0,0,1-2.5,1.37,3.64,3.64,0,0,1,0-7.23,2.66,2.66,0,0,1,2.5,1.36H355v-4.13h1.07Zm-5.88-3.41a2.42,2.42,0,1,0,2.41-2.65A2.36,2.36,0,0,0,350.17,417.55Z"/><path class="cls-4" d="M366.07,413.93a4.11,4.11,0,0,1,3.39,1.81l-.83.56a3.08,3.08,0,0,0-2.55-1.46c-.88,0-1.52.37-1.52,1.05s.74.89,1.58,1l.65.1c1.58.24,2.7.65,2.7,2s-1.21,2.2-3,2.2a3.78,3.78,0,0,1-3.55-2.24l1-.49a2.68,2.68,0,0,0,2.6,1.79c1.12,0,1.88-.49,1.88-1.23s-.85-.88-1.75-1l-.65-.1c-1.49-.21-2.52-.68-2.52-2S364.67,413.93,366.07,413.93Z"/><path class="cls-4" d="M374.58,413.92a3.2,3.2,0,0,1,3.31,3.4v.58H372.3a2.29,2.29,0,0,0,2.41,2.31,2.17,2.17,0,0,0,2.11-1.36l.94.49a3.25,3.25,0,0,1-3,1.82,3.47,3.47,0,0,1-3.54-3.67A3.41,3.41,0,0,1,374.58,413.92Zm2.19,3.09a2,2,0,0,0-2.19-2.14A2.17,2.17,0,0,0,372.3,417Z"/><path class="cls-4" d="M380.6,414.13l2,2.65h.17l2-2.65h1.31l-2.61,3.33,2.73,3.5h-1.33l-2.12-2.8h-.17L380.5,421h-1.31l2.73-3.5-2.62-3.33Z"/><path class="cls-4" d="M388.86,411.09a.91.91,0,1,1-.92.91A.91.91,0,0,1,388.86,411.09Zm.53,9.87h-1.06v-6.83h1.06Z"/><path class="cls-4" d="M394.49,413.93a4.11,4.11,0,0,1,3.39,1.81l-.83.56a3.08,3.08,0,0,0-2.55-1.46c-.88,0-1.52.37-1.52,1.05s.74.89,1.58,1l.64.1c1.59.24,2.71.65,2.71,2s-1.21,2.2-3,2.2a3.77,3.77,0,0,1-3.54-2.24l1-.49a2.68,2.68,0,0,0,2.6,1.79c1.12,0,1.88-.49,1.88-1.23s-.85-.88-1.75-1l-.65-.1c-1.49-.21-2.52-.68-2.52-2S393.09,413.93,394.49,413.93Z"/><path class="cls-4" d="M401.08,414.13v.92h.2a2.07,2.07,0,0,1,1.93-1,2,2,0,0,1,2,1.2h.2a2.12,2.12,0,0,1,2.07-1.2,2.2,2.2,0,0,1,2.32,2.25V421h-1.07v-4.6a1.4,1.4,0,0,0-1.56-1.42,1.62,1.62,0,0,0-1.68,1.79V421h-1.08v-4.6a1.37,1.37,0,0,0-1.51-1.42,1.66,1.66,0,0,0-1.74,1.79V421h-1.06v-6.83Z"/><line class="cls-6" x1="634.28" y1="237.29" x2="634.28" y2="351.41"/><path class="cls-7" d="M649.77,289.55a3.67,3.67,0,0,1,3.92,4v2.13c0,2.55-1.47,4-3.92,4s-3.92-1.48-3.92-4v-2.13A3.66,3.66,0,0,1,649.77,289.55Zm-2.29,6.22c0,1.56.74,2.5,2.29,2.5s2.3-1,2.3-2.5v-2.25a2.18,2.18,0,0,0-2.3-2.5c-1.51,0-2.29,1-2.29,2.5Z"/><path class="cls-7" d="M659.63,289.74a3,3,0,1,1,0,6.05h-2.3v3.76h-1.62v-9.81Zm-2.3,4.57h2.13a1.54,1.54,0,1,0,0-3.08h-2.13Z"/><path class="cls-7" d="M670.8,289.74v1.49h-4.73v2.65h4.34v1.48h-4.34v2.7h4.8v1.49h-6.43v-9.81Z"/><path class="cls-7" d="M675.74,289.74l2.65,8.31h.17v-8.31h1.62v9.81h-2.94l-2.63-8.31h-.17v8.31h-1.63v-9.81Z"/><path class="cls-7" d="M692.16,295.63l2.09,3.92h-1.79l-2-3.83h-1.78v3.83h-1.62v-9.81h4.2a2.88,2.88,0,0,1,3.08,3A2.83,2.83,0,0,1,692.16,295.63Zm-3.43-1.39h2.41a1.51,1.51,0,1,0,0-3h-2.41Z"/><path class="cls-7" d="M702.65,289.74v1.49h-4.73v2.65h4.34v1.48h-4.34v2.7h4.8v1.49h-6.43v-9.81Z"/><path class="cls-7" d="M710.84,289.74v1.49h-4.55v2.66h4.28v1.48h-4.28v4.18h-1.63v-9.81Z"/><path class="cls-7" d="M714.23,289.74v9.81H712.6v-9.81Z"/><path class="cls-7" d="M719.53,289.74l2.65,8.31h.17v-8.31H724v9.81H721l-2.63-8.31h-.17v8.31h-1.62v-9.81Z"/><path class="cls-7" d="M732.71,289.74v1.49H728v2.65h4.35v1.48H728v2.7h4.81v1.49h-6.43v-9.81Z"/><path class="cls-8" d="M649.77,289.55a3.67,3.67,0,0,1,3.92,4v2.13c0,2.55-1.47,4-3.92,4s-3.92-1.48-3.92-4v-2.13A3.66,3.66,0,0,1,649.77,289.55Zm-2.29,6.22c0,1.56.74,2.5,2.29,2.5s2.3-1,2.3-2.5v-2.25a2.18,2.18,0,0,0-2.3-2.5c-1.51,0-2.29,1-2.29,2.5Z"/><path class="cls-8" d="M659.63,289.74a3,3,0,1,1,0,6.05h-2.3v3.76h-1.62v-9.81Zm-2.3,4.57h2.13a1.54,1.54,0,1,0,0-3.08h-2.13Z"/><path class="cls-8" d="M670.8,289.74v1.49h-4.73v2.65h4.34v1.48h-4.34v2.7h4.8v1.49h-6.43v-9.81Z"/><path class="cls-8" d="M675.74,289.74l2.65,8.31h.17v-8.31h1.62v9.81h-2.94l-2.63-8.31h-.17v8.31h-1.63v-9.81Z"/><path class="cls-8" d="M692.16,295.63l2.09,3.92h-1.79l-2-3.83h-1.78v3.83h-1.62v-9.81h4.2a2.88,2.88,0,0,1,3.08,3A2.83,2.83,0,0,1,692.16,295.63Zm-3.43-1.39h2.41a1.51,1.51,0,1,0,0-3h-2.41Z"/><path class="cls-8" d="M702.65,289.74v1.49h-4.73v2.65h4.34v1.48h-4.34v2.7h4.8v1.49h-6.43v-9.81Z"/><path class="cls-8" d="M710.84,289.74v1.49h-4.55v2.66h4.28v1.48h-4.28v4.18h-1.63v-9.81Z"/><path class="cls-8" d="M714.23,289.74v9.81H712.6v-9.81Z"/><path class="cls-8" d="M719.53,289.74l2.65,8.31h.17v-8.31H724v9.81H721l-2.63-8.31h-.17v8.31h-1.62v-9.81Z"/><path class="cls-8" d="M732.71,289.74v1.49H728v2.65h4.35v1.48H728v2.7h4.81v1.49h-6.43v-9.81Z"/><path class="cls-2" d="M14,270v4.91H13v-3.77h-.14l-.71,1h-.93v-.14L12.7,270Z"/><path class="cls-4" d="M19.6,274.9v.69h.14a1.51,1.51,0,0,1,2.66.06h.14a1.43,1.43,0,0,1,1.41-.83,1.61,1.61,0,0,1,1.65,1.67v3.34H24.5v-3.26a.8.8,0,0,0-.91-.8.92.92,0,0,0-1,1v3H21.52v-3.26a.79.79,0,0,0-.89-.8.94.94,0,0,0-1,1v3h-1.1V274.9Z"/><path class="cls-4" d="M29.44,274.76a2,2,0,0,1,2.2,1.94v3.13H30.56v-.74h-.14a1.62,1.62,0,0,1-1.63.88c-1.11,0-1.84-.6-1.84-1.52s.65-1.35,1.76-1.46l1.84-.19v-.13c0-.57-.4-.95-1.15-.95a1.49,1.49,0,0,0-1.43.91l-.92-.52A2.67,2.67,0,0,1,29.44,274.76Zm-.42,4.3a1.36,1.36,0,0,0,1.53-1.37v-.08l-1.6.17c-.52.05-.86.22-.86.62S28.42,279.06,29,279.06Z"/><path class="cls-4" d="M33.8,272.63a.8.8,0,1,1,0,1.6.8.8,0,1,1,0-1.6Zm.55,7.2h-1.1V274.9h1.1Z"/><path class="cls-4" d="M37.09,274.9v.81h.14a1.6,1.6,0,0,1,1.6-.89,1.87,1.87,0,0,1,1.92,2.05v3h-1.1V277a1.08,1.08,0,0,0-1.19-1.19c-.86,0-1.35.54-1.35,1.49v2.56H36V274.9Z"/><path class="cls-4" d="M47.85,274.76a2.33,2.33,0,0,1,2.44,1.9l-1.08.25a1.26,1.26,0,0,0-1.34-1.16,1.62,1.62,0,0,0,0,3.23,1.28,1.28,0,0,0,1.35-1.16l1.07.25a2.34,2.34,0,0,1-2.43,1.9,2.61,2.61,0,0,1,0-5.21Z"/><path class="cls-4" d="M53.83,274.76A2,2,0,0,1,56,276.7v3.13H55v-.74h-.14a1.62,1.62,0,0,1-1.63.88c-1.11,0-1.84-.6-1.84-1.52S52,277.1,53.1,277l1.84-.19v-.13c0-.57-.41-.95-1.15-.95a1.48,1.48,0,0,0-1.43.91l-.92-.52A2.67,2.67,0,0,1,53.83,274.76Zm-.43,4.3a1.36,1.36,0,0,0,1.54-1.37v-.08l-1.6.17c-.53.05-.86.22-.86.62S52.81,279.06,53.4,279.06Z"/><path class="cls-4" d="M58.31,274.9v-1.62h1.1v1.62H60.8v1H59.41v2.74c0,.2.09.29.27.29h.84v.95H59.21a.87.87,0,0,1-.9-.9v-3.08H57v-1Z"/><path class="cls-4" d="M64.23,274.75a2.33,2.33,0,0,1,2.39,2.49v.48H62.9a1.33,1.33,0,0,0,1.4,1.3,1.37,1.37,0,0,0,1.31-.81l.91.52a2.44,2.44,0,0,1-2.2,1.24,2.53,2.53,0,0,1-2.56-2.65A2.44,2.44,0,0,1,64.23,274.75Zm1.26,2.15a1.18,1.18,0,0,0-1.27-1.2,1.24,1.24,0,0,0-1.32,1.2Z"/><path class="cls-4" d="M72.76,274.9v4.77a2.27,2.27,0,0,1-2.48,2.3,2.86,2.86,0,0,1-2.58-1.38l1-.57a1.7,1.7,0,0,0,1.56,1,1.3,1.3,0,0,0,1.45-1.39V279h-.12a1.73,1.73,0,0,1-1.63.88,2.55,2.55,0,0,1,0-5.07,1.74,1.74,0,0,1,1.63.87h.14v-.73Zm-1.1,2.39a1.47,1.47,0,1,0-1.46,1.56A1.41,1.41,0,0,0,71.66,277.29Z"/><path class="cls-4" d="M76.68,274.76a2.61,2.61,0,1,1-2.56,2.6A2.49,2.49,0,0,1,76.68,274.76Zm0,4.22a1.62,1.62,0,1,0-1.46-1.62A1.45,1.45,0,0,0,76.68,279Z"/><path class="cls-4" d="M81.66,275.66h.14a1.15,1.15,0,0,1,1.26-.78h.51v1h-.8A1,1,0,0,0,81.69,277v2.83h-1.1V274.9h1.07Z"/><path class="cls-4" d="M89.82,274.9,87,281.83H85.83l.77-1.8-2.08-5.13h1.19l1.41,3.64h.11l1.4-3.64Z"/><path class="cls-4" d="M16.77,284.83v.75H14.44v6.25h-.82v-6.25H11.29v-.75Z"/><path class="cls-4" d="M18.89,284.83v3H19a1.74,1.74,0,0,1,1.7-.95,1.85,1.85,0,0,1,1.93,2v2.95h-.77v-2.89a1.24,1.24,0,0,0-1.37-1.4,1.57,1.57,0,0,0-1.61,1.78v2.51h-.76v-7Z"/><path class="cls-4" d="M26.58,286.8a2.28,2.28,0,0,1,2.36,2.43v.41H25a1.63,1.63,0,0,0,1.71,1.65,1.56,1.56,0,0,0,1.51-1l.67.35a2.32,2.32,0,0,1-2.17,1.3,2.48,2.48,0,0,1-2.52-2.62A2.43,2.43,0,0,1,26.58,286.8ZM28.14,289a1.45,1.45,0,0,0-1.56-1.53A1.54,1.54,0,0,0,25,289Z"/><path class="cls-4" d="M34,287h.74v.84h.14a1.86,1.86,0,0,1,1.77-1,2.6,2.6,0,0,1,0,5.16,1.87,1.87,0,0,1-1.77-1h-.12v2.83H34Zm4.19,2.44a1.72,1.72,0,1,0-1.72,1.89A1.69,1.69,0,0,0,38.2,289.39Z"/><path class="cls-4" d="M42.68,286.81a1.9,1.9,0,0,1,2.12,1.94v3.08h-.75V291h-.14a1.91,1.91,0,0,1-1.84,1c-1,0-1.81-.56-1.81-1.44s.73-1.34,1.85-1.45L44,288.9v-.19c0-.74-.5-1.21-1.38-1.21A1.67,1.67,0,0,0,41,288.59l-.67-.31A2.53,2.53,0,0,1,42.68,286.81Zm-.51,4.51a1.67,1.67,0,0,0,1.87-1.7v-.1l-1.83.17c-.68.06-1.18.27-1.18.82S41.5,291.32,42.17,291.32Z"/><path class="cls-4" d="M51.29,287v4.7A2.23,2.23,0,0,1,48.92,294a2.79,2.79,0,0,1-2.5-1.36l.7-.39a1.88,1.88,0,0,0,1.75,1.06,1.53,1.53,0,0,0,1.66-1.68v-.71h-.12a1.88,1.88,0,0,1-1.78,1,2.54,2.54,0,0,1,0-5.06,1.88,1.88,0,0,1,1.78,1h.14V287Zm-.76,2.39a1.72,1.72,0,1,0-1.72,1.83A1.67,1.67,0,0,0,50.53,289.34Z"/><path class="cls-4" d="M55.3,286.8a2.28,2.28,0,0,1,2.36,2.43v.41h-4a1.62,1.62,0,0,0,1.71,1.65,1.56,1.56,0,0,0,1.51-1l.67.35A2.32,2.32,0,0,1,55.4,292a2.48,2.48,0,0,1-2.52-2.62A2.43,2.43,0,0,1,55.3,286.8ZM56.86,289a1.45,1.45,0,0,0-1.56-1.53A1.54,1.54,0,0,0,53.68,289Z"/><path class="cls-4" d="M60.88,286.81a2.93,2.93,0,0,1,2.42,1.29l-.59.4a2.2,2.2,0,0,0-1.81-1c-.63,0-1.09.26-1.09.75s.52.63,1.13.72l.45.07c1.13.17,1.93.46,1.93,1.4S62.46,292,61.19,292a2.68,2.68,0,0,1-2.52-1.6l.68-.35a1.92,1.92,0,0,0,1.86,1.28c.8,0,1.34-.35,1.34-.88s-.61-.63-1.25-.72l-.46-.07c-1.07-.15-1.79-.49-1.79-1.41S59.89,286.81,60.88,286.81Z"/><path class="cls-4" d="M68.81,287l.9,4.06h.13L70.91,287H72L73.11,291h.13l.9-4.06h.8l-1.16,4.88H72.61l-1.07-4.06h-.13l-1.09,4.06H69.17L68,287Z"/><path class="cls-4" d="M76.85,284.78a.65.65,0,1,1-.65.65A.65.65,0,0,1,76.85,284.78Zm.38,7.05h-.75V287h.75Z"/><path class="cls-4" d="M80,287v-1.76h.76V287h1.55v.67H80.77v3.25c0,.2.08.29.26.29h1v.67H80.76a.71.71,0,0,1-.75-.77v-3.44H78.53V287Z"/><path class="cls-4" d="M84.56,284.83v3h.13a1.73,1.73,0,0,1,1.7-.95,1.85,1.85,0,0,1,1.93,2v2.95h-.77v-2.89a1.24,1.24,0,0,0-1.37-1.4,1.58,1.58,0,0,0-1.62,1.78v2.51h-.75v-7Z"/><path class="cls-4" d="M94.41,287v.66h.14a1.49,1.49,0,0,1,1.38-.74,1.42,1.42,0,0,1,1.39.86h.14a1.53,1.53,0,0,1,1.48-.86,1.58,1.58,0,0,1,1.66,1.61v3.35h-.77v-3.29a1,1,0,0,0-1.11-1,1.16,1.16,0,0,0-1.2,1.28v3h-.77v-3.29a1,1,0,0,0-1.08-1,1.18,1.18,0,0,0-1.24,1.28v3h-.75V287Z"/><path class="cls-4" d="M106.15,291.83V291H106a1.75,1.75,0,0,1-1.71,1,1.84,1.84,0,0,1-1.91-2v-3h.76v2.89a1.24,1.24,0,0,0,1.36,1.4,1.57,1.57,0,0,0,1.62-1.78V287h.77v4.88Z"/><path class="cls-4" d="M109.55,291.83h-.75v-7h.75Z"/><path class="cls-4" d="M112.32,287v-1.76h.77V287h1.55v.67h-1.55v3.25c0,.2.08.29.26.29h1v.67h-1.29a.71.71,0,0,1-.75-.77v-3.44h-1.47V287Z"/><path class="cls-4" d="M116.5,284.78a.65.65,0,1,1-.65.65A.64.64,0,0,1,116.5,284.78Zm.38,7.05h-.75V287h.75Z"/><path class="cls-4" d="M118.78,287h.74v.84h.14a1.88,1.88,0,0,1,1.78-1,2.6,2.6,0,0,1,0,5.16,1.89,1.89,0,0,1-1.78-1h-.12v2.83h-.76Zm4.2,2.44a1.73,1.73,0,1,0-1.72,1.89A1.69,1.69,0,0,0,123,289.39Z"/><path class="cls-4" d="M126.09,291.83h-.75v-7h.75Z"/><path class="cls-4" d="M130.1,286.8a2.28,2.28,0,0,1,2.36,2.43v.41h-4a1.64,1.64,0,0,0,1.72,1.65,1.56,1.56,0,0,0,1.51-1l.67.35a2.32,2.32,0,0,1-2.17,1.3,2.48,2.48,0,0,1-2.53-2.62A2.44,2.44,0,0,1,130.1,286.8Zm1.56,2.21a1.45,1.45,0,0,0-1.56-1.53,1.55,1.55,0,0,0-1.63,1.53Z"/><path class="cls-4" d="M14,298.81a2.25,2.25,0,0,1,2.33,1.88l-.76.15A1.47,1.47,0,0,0,14,299.52a1.88,1.88,0,0,0,0,3.75,1.49,1.49,0,0,0,1.56-1.33l.76.15A2.27,2.27,0,0,1,14.05,304a2.58,2.58,0,0,1,0-5.16Z"/><path class="cls-4" d="M20,298.81a1.9,1.9,0,0,1,2.12,1.94v3.08h-.75V303h-.14a1.91,1.91,0,0,1-1.83,1c-1.06,0-1.82-.56-1.82-1.44s.73-1.34,1.86-1.45l1.92-.18v-.19c0-.74-.5-1.21-1.38-1.21a1.69,1.69,0,0,0-1.66,1.09l-.67-.31A2.53,2.53,0,0,1,20,298.81Zm-.51,4.51a1.67,1.67,0,0,0,1.87-1.7v-.1l-1.83.17c-.67.06-1.18.27-1.18.82S18.86,303.32,19.53,303.32Z"/><path class="cls-4" d="M24.78,299v-1.76h.77V299h1.54v.67H25.55v3.25c0,.2.08.29.26.29h1v.67H25.53a.71.71,0,0,1-.75-.77v-3.44H23.3V299Z"/><path class="cls-4" d="M30.64,298.8A2.28,2.28,0,0,1,33,301.23v.41H29a1.64,1.64,0,0,0,1.72,1.65,1.55,1.55,0,0,0,1.5-1l.67.35a2.32,2.32,0,0,1-2.17,1.3,2.48,2.48,0,0,1-2.52-2.62A2.44,2.44,0,0,1,30.64,298.8ZM32.19,301a1.44,1.44,0,0,0-1.55-1.53A1.55,1.55,0,0,0,29,301Z"/><path class="cls-4" d="M39.18,299v4.7A2.23,2.23,0,0,1,36.81,306a2.79,2.79,0,0,1-2.5-1.36l.7-.39a1.9,1.9,0,0,0,1.76,1.06,1.53,1.53,0,0,0,1.65-1.68v-.71H38.3a1.88,1.88,0,0,1-1.78,1,2.54,2.54,0,0,1,0-5.06,1.88,1.88,0,0,1,1.78,1h.14V299Zm-.76,2.39a1.72,1.72,0,1,0-1.72,1.83A1.67,1.67,0,0,0,38.42,301.34Z"/><path class="cls-4" d="M43.25,298.81a2.58,2.58,0,1,1-2.48,2.58A2.43,2.43,0,0,1,43.25,298.81Zm0,4.46a1.88,1.88,0,1,0-1.72-1.88A1.7,1.7,0,0,0,43.25,303.27Z"/><path class="cls-4" d="M48.05,299.68h.14a1.14,1.14,0,0,1,1.25-.75h.61v.74h-.84a1.06,1.06,0,0,0-1.14,1.22v2.94h-.75V299h.73Z"/><path class="cls-4" d="M51.8,296.78a.65.65,0,1,1-.66.65A.64.64,0,0,1,51.8,296.78Zm.38,7.05h-.76V299h.76Z"/><path class="cls-4" d="M56.19,298.8a2.28,2.28,0,0,1,2.35,2.43v.41h-4a1.63,1.63,0,0,0,1.71,1.65,1.56,1.56,0,0,0,1.51-1l.67.35a2.32,2.32,0,0,1-2.17,1.3,2.48,2.48,0,0,1-2.52-2.62A2.44,2.44,0,0,1,56.19,298.8ZM57.74,301a1.44,1.44,0,0,0-1.55-1.53A1.55,1.55,0,0,0,54.56,301Z"/><path class="cls-4" d="M61.76,298.81a2.93,2.93,0,0,1,2.42,1.29l-.59.4a2.2,2.2,0,0,0-1.82-1c-.62,0-1.08.26-1.08.75s.52.63,1.12.72l.46.07c1.13.17,1.93.46,1.93,1.4S63.34,304,62.07,304a2.68,2.68,0,0,1-2.52-1.6l.69-.35a1.9,1.9,0,0,0,1.85,1.28c.8,0,1.34-.35,1.34-.88s-.61-.63-1.25-.72l-.46-.07c-1.07-.15-1.79-.49-1.79-1.41S60.77,298.81,61.76,298.81Z"/><path class="cls-4" d="M69.7,299l.9,4.06h.13L71.79,299h1.13L74,303h.13L75,299h.8l-1.16,4.88H73.49l-1.07-4.06h-.13l-1.09,4.06H70.06L68.9,299Z"/><path class="cls-4" d="M79.41,298.8a2.28,2.28,0,0,1,2.36,2.43v.41h-4a1.63,1.63,0,0,0,1.71,1.65,1.56,1.56,0,0,0,1.51-1l.67.35a2.32,2.32,0,0,1-2.17,1.3A2.48,2.48,0,0,1,77,301.35,2.43,2.43,0,0,1,79.41,298.8ZM81,301a1.45,1.45,0,0,0-1.56-1.53A1.54,1.54,0,0,0,77.79,301Z"/><path class="cls-4" d="M84.05,299.68h.14a1.14,1.14,0,0,1,1.25-.75h.61v.74h-.84a1.06,1.06,0,0,0-1.14,1.22v2.94h-.75V299h.73Z"/><path class="cls-4" d="M89.25,298.8a2.28,2.28,0,0,1,2.36,2.43v.41h-4a1.63,1.63,0,0,0,1.71,1.65,1.56,1.56,0,0,0,1.51-1l.67.35a2.32,2.32,0,0,1-2.17,1.3,2.48,2.48,0,0,1-2.52-2.62A2.43,2.43,0,0,1,89.25,298.8ZM90.81,301a1.45,1.45,0,0,0-1.56-1.53A1.54,1.54,0,0,0,87.63,301Z"/><path class="cls-4" d="M98.87,298.81a2.25,2.25,0,0,1,2.33,1.88l-.76.15a1.47,1.47,0,0,0-1.57-1.32,1.88,1.88,0,0,0,0,3.75,1.49,1.49,0,0,0,1.57-1.33l.76.15A2.28,2.28,0,0,1,98.89,304a2.58,2.58,0,0,1,0-5.16Z"/><path class="cls-4" d="M104.93,298.81a2.58,2.58,0,1,1-2.49,2.58A2.43,2.43,0,0,1,104.93,298.81Zm0,4.46a1.88,1.88,0,1,0-1.73-1.88A1.7,1.7,0,0,0,104.93,303.27Z"/><path class="cls-4" d="M112.7,303.83V303h-.14a1.75,1.75,0,0,1-1.71,1,1.84,1.84,0,0,1-1.91-2v-3h.75v2.89a1.24,1.24,0,0,0,1.37,1.4,1.57,1.57,0,0,0,1.62-1.78V299h.77v4.88Z"/><path class="cls-4" d="M116.08,299v.87h.14a1.75,1.75,0,0,1,1.71-.95,1.85,1.85,0,0,1,1.93,2v2.95h-.77v-2.89a1.24,1.24,0,0,0-1.37-1.4,1.57,1.57,0,0,0-1.62,1.78v2.51h-.75V299Z"/><path class="cls-4" d="M122.46,299v-1.76h.77V299h1.55v.67h-1.55v3.25c0,.2.08.29.26.29h1v.67h-1.29a.71.71,0,0,1-.75-.77v-3.44H121V299Z"/><path class="cls-4" d="M128.32,298.8a2.28,2.28,0,0,1,2.36,2.43v.41h-4a1.64,1.64,0,0,0,1.72,1.65,1.56,1.56,0,0,0,1.51-1l.67.35a2.32,2.32,0,0,1-2.17,1.3,2.47,2.47,0,0,1-2.52-2.62A2.43,2.43,0,0,1,128.32,298.8Zm1.56,2.21a1.45,1.45,0,0,0-1.56-1.53,1.55,1.55,0,0,0-1.63,1.53Z"/><path class="cls-4" d="M136.87,303.83h-.74V303H136a1.88,1.88,0,0,1-1.78,1,2.6,2.6,0,0,1,0-5.16,1.89,1.89,0,0,1,1.78,1h.12v-2.95h.76Zm-4.2-2.44a1.73,1.73,0,1,0,1.72-1.89A1.69,1.69,0,0,0,132.67,301.39Z"/><path class="cls-4" d="M12.21,308.78a.65.65,0,1,1-.66.65A.64.64,0,0,1,12.21,308.78Zm.38,7.05h-.76V311h.76Z"/><path class="cls-4" d="M15.23,311v.87h.14a1.74,1.74,0,0,1,1.7-.95,1.85,1.85,0,0,1,1.93,2v2.95h-.77v-2.89a1.24,1.24,0,0,0-1.37-1.4,1.57,1.57,0,0,0-1.61,1.78v2.51h-.76V311Z"/><path class="cls-4" d="M25.23,311v-1.76H26V311h1.54v.67H26v3.25c0,.2.08.29.26.29h1v.67H26a.71.71,0,0,1-.75-.77v-3.44H23.75V311Z"/><path class="cls-4" d="M29.78,308.83v3h.12a1.75,1.75,0,0,1,1.71-.95,1.85,1.85,0,0,1,1.93,2v2.95h-.77v-2.89a1.24,1.24,0,0,0-1.37-1.4,1.57,1.57,0,0,0-1.62,1.78v2.51H29v-7Z"/><path class="cls-4" d="M37.48,310.8a2.28,2.28,0,0,1,2.36,2.43v.41h-4a1.63,1.63,0,0,0,1.71,1.65,1.56,1.56,0,0,0,1.51-1l.67.35a2.32,2.32,0,0,1-2.17,1.3,2.48,2.48,0,0,1-2.52-2.62A2.43,2.43,0,0,1,37.48,310.8ZM39,313a1.45,1.45,0,0,0-1.56-1.53A1.54,1.54,0,0,0,35.86,313Z"/><path class="cls-4" d="M45.66,308.83v3h.12a1.88,1.88,0,0,1,1.78-1,2.6,2.6,0,0,1,0,5.16,1.89,1.89,0,0,1-1.78-1h-.13v.83h-.74v-7Zm0,4.56a1.73,1.73,0,1,0,1.72-1.89A1.7,1.7,0,0,0,45.66,313.39Z"/><path class="cls-4" d="M51.83,308.78a.65.65,0,1,1-.65.65A.64.64,0,0,1,51.83,308.78Zm.38,7.05h-.75V311h.75Z"/><path class="cls-4" d="M58.76,311v4.7A2.23,2.23,0,0,1,56.39,318a2.77,2.77,0,0,1-2.5-1.36l.7-.39a1.88,1.88,0,0,0,1.75,1.06A1.53,1.53,0,0,0,58,315.6v-.71h-.12a1.88,1.88,0,0,1-1.78,1,2.54,2.54,0,0,1,0-5.06,1.88,1.88,0,0,1,1.78,1H58V311ZM58,313.34a1.72,1.72,0,1,0-1.72,1.83A1.67,1.67,0,0,0,58,313.34Z"/><path class="cls-4" d="M65.31,311v4.7A2.23,2.23,0,0,1,62.94,318a2.77,2.77,0,0,1-2.5-1.36l.7-.39a1.87,1.87,0,0,0,1.75,1.06,1.53,1.53,0,0,0,1.66-1.68v-.71h-.12a1.88,1.88,0,0,1-1.78,1,2.54,2.54,0,0,1,0-5.06,1.88,1.88,0,0,1,1.78,1h.14V311Zm-.76,2.39a1.72,1.72,0,1,0-1.72,1.83A1.67,1.67,0,0,0,64.55,313.34Z"/><path class="cls-4" d="M69.32,310.8a2.28,2.28,0,0,1,2.36,2.43v.41h-4a1.64,1.64,0,0,0,1.72,1.65,1.56,1.56,0,0,0,1.51-1l.67.35a2.32,2.32,0,0,1-2.17,1.3,2.47,2.47,0,0,1-2.52-2.62A2.43,2.43,0,0,1,69.32,310.8ZM70.88,313a1.45,1.45,0,0,0-1.56-1.53A1.55,1.55,0,0,0,67.69,313Z"/><path class="cls-4" d="M74.9,310.81a2.93,2.93,0,0,1,2.42,1.29l-.59.4a2.2,2.2,0,0,0-1.82-1c-.63,0-1.09.26-1.09.75s.53.63,1.13.72l.46.07c1.13.17,1.93.46,1.93,1.4S76.48,316,75.21,316a2.68,2.68,0,0,1-2.52-1.6l.68-.35a1.91,1.91,0,0,0,1.86,1.28c.8,0,1.34-.35,1.34-.88s-.61-.63-1.25-.72l-.46-.07c-1.07-.15-1.8-.49-1.8-1.41S73.9,310.81,74.9,310.81Z"/><path class="cls-4" d="M79.74,311v-1.76h.77V311h1.55v.67H80.51v3.25c0,.2.08.29.26.29h1v.67H80.49a.71.71,0,0,1-.75-.77v-3.44H78.27V311Z"/><path class="cls-4" d="M89.23,310.81a2.58,2.58,0,1,1-2.49,2.58A2.43,2.43,0,0,1,89.23,310.81Zm0,4.46a1.88,1.88,0,1,0-1.73-1.88A1.7,1.7,0,0,0,89.23,315.27Z"/><path class="cls-4" d="M94,311v.87h.14a1.75,1.75,0,0,1,1.71-.95,1.85,1.85,0,0,1,1.93,2v2.95H97v-2.89a1.24,1.24,0,0,0-1.37-1.4,1.57,1.57,0,0,0-1.62,1.78v2.51H93.3V311Z"/><path class="cls-4" d="M101.75,310.8a2.28,2.28,0,0,1,2.36,2.43v.41h-4a1.64,1.64,0,0,0,1.72,1.65,1.56,1.56,0,0,0,1.51-1l.67.35a2.32,2.32,0,0,1-2.17,1.3,2.48,2.48,0,0,1-2.53-2.62A2.44,2.44,0,0,1,101.75,310.8Zm1.56,2.21a1.45,1.45,0,0,0-1.56-1.53,1.55,1.55,0,0,0-1.63,1.53Z"/></svg>