<?xml version="1.0" encoding="utf-8"?>
<!-- Generator: Adobe Illustrator 23.0.1, SVG Export Plug-In . SVG Version: 6.00 Build 0)  -->
<svg version="1.1" xmlns="http://www.w3.org/2000/svg" xmlns:xlink="http://www.w3.org/1999/xlink" x="0px" y="0px"
	 viewBox="0 0 865.6 920.4" style="enable-background:new 0 0 865.6 920.4;" xml:space="preserve">
<style type="text/css">
	.st0{fill:#FFFFFF;}
	.st1{fill:none;stroke:#000000;stroke-miterlimit:10;}
	.st2{fill:none;stroke:#000000;stroke-miterlimit:10;stroke-dasharray:7,7;}
	.st3{fill:#C6C6C6;}
	.st4{font-family:'SpaceGrotesk-SemiBold';}
	.st5{font-size:14.8021px;}
	.st6{fill:#FF3603;}
	.st7{font-size:8px;}
	.st8{fill:none;stroke:#C6C6C6;stroke-miterlimit:10;}
	.st9{fill:#E74013;}
	.st10{font-family:'SpaceGrotesk-Regular';}
	.st11{font-size:12px;}
	.st12{fill:#F6F6F6;}
	.st13{fill:#1D1D1B;}
</style>
<g id="tick">
	<g>
		<line class="st0" x1="374.8" y1="106.2" x2="374.8" y2="124.9"/>
		<g>
			<line class="st1" x1="374.8" y1="106.2" x2="374.8" y2="123.8"/>
			<g>
				<polygon points="370.7,120.5 371.4,119.8 374.8,123.4 378.1,119.8 378.8,120.5 374.8,124.9 				"/>
			</g>
		</g>
	</g>
	<g>
		<line class="st0" x1="373.5" y1="206.5" x2="373.5" y2="325.1"/>
		<g>
			<line class="st1" x1="373.5" y1="206.5" x2="373.5" y2="324.1"/>
			<g>
				<polygon points="369.5,320.7 370.2,320.1 373.5,323.7 376.9,320.1 377.6,320.7 373.5,325.1 				"/>
			</g>
		</g>
	</g>
	<g>
		<line class="st0" x1="374.8" y1="406.5" x2="374.8" y2="425.1"/>
		<g>
			<line class="st1" x1="374.8" y1="406.5" x2="374.8" y2="424"/>
			<g>
				<polygon points="370.7,420.7 371.4,420 374.8,423.6 378.1,420 378.8,420.7 374.8,425.1 				"/>
			</g>
		</g>
	</g>
	<g>
		<line class="st0" x1="374.8" y1="506.4" x2="374.8" y2="525.1"/>
		<g>
			<line class="st1" x1="374.8" y1="506.4" x2="374.8" y2="524"/>
			<g>
				<polygon points="370.7,520.7 371.4,520 374.8,523.6 378.1,520 378.8,520.7 374.8,525.1 				"/>
			</g>
		</g>
	</g>
	<g>
		<line class="st0" x1="374.8" y1="606.4" x2="374.8" y2="625"/>
		<g>
			<line class="st1" x1="374.8" y1="606.4" x2="374.8" y2="624"/>
			<g>
				<polygon points="370.7,620.7 371.4,620 374.8,623.6 378.1,620 378.8,620.7 374.8,625 				"/>
			</g>
		</g>
	</g>
	<g>
		<line class="st0" x1="374.8" y1="706.4" x2="374.8" y2="725"/>
		<g>
			<line class="st1" x1="374.8" y1="706.4" x2="374.8" y2="723.9"/>
			<g>
				<polygon points="370.7,720.6 371.4,719.9 374.8,723.6 378.1,719.9 378.8,720.6 374.8,725 				"/>
			</g>
		</g>
	</g>
	<g>
		<g>
			<polyline class="st1" points="374.8,114.2 605,114.2 605,224.4 			"/>
			<g>
				<polygon points="600.9,221.1 601.6,220.4 605,224 608.3,220.4 609.1,221.1 605,225.5 				"/>
			</g>
		</g>
	</g>
	<g>
		<g>
			<polyline class="st2" points="605,305.7 605,365.8 567.7,365.8 			"/>
			<g>
				<polygon points="571,361.7 571.6,362.4 568,365.8 571.6,369.2 571,369.9 566.6,365.8 				"/>
			</g>
		</g>
	</g>
	<g>
		<text transform="matrix(1 0 0 1 141.0541 76.3834)" class="st3 st4 st5">sexism</text>
	</g>
	<g>
		<text transform="matrix(1 0 0 1 121.2855 162.9561)"><tspan x="0" y="0" class="st3 st4 st5">interest on</tspan><tspan x="11.2" y="17.8" class="st3 st4 st5">feminism</tspan></text>
	</g>
	<g>
		<text transform="matrix(1 0 0 1 115.6469 262.6102)"><tspan x="0" y="0" class="st3 st4 st5">focus on the</tspan><tspan x="1.1" y="17.8" class="st3 st4 st5">fourth wave</tspan></text>
	</g>
	<g>
		<text transform="matrix(1 0 0 1 139.7809 420.1942)" class="st3 st4 st5">actors</text>
	</g>
	<g>
		<text transform="matrix(1 0 0 1 117.319 620.4008)" class="st3 st4 st5">involvement</text>
	</g>
	<g>
		<text transform="matrix(1 0 0 1 140.7946 764.4441)"><tspan x="0" y="0" class="st3 st4 st5">verbal</tspan><tspan x="-10.6" y="17.8" class="st3 st4 st5">language</tspan></text>
	</g>
	<g>
		<text transform="matrix(1 0 0 1 142.8522 858.3138)"><tspan x="0" y="0" class="st3 st4 st5">visual</tspan><tspan x="-12.6" y="17.8" class="st3 st4 st5">language</tspan></text>
	</g>
	<text transform="matrix(1 0 0 1 524.087 227.9531)" class="st6 st4 st7">WIKIPEDIA</text>
	<text transform="matrix(1 0 0 1 294.5319 128.6259)" class="st6 st4 st7">Google</text>
	<text transform="matrix(1 0 0 1 294.7209 41.1545)" class="st6 st4 st7">Wikipedia</text>
	<text transform="matrix(1 0 0 1 294.7206 328.4574)" class="st6 st4 st7">google news</text>
	<text transform="matrix(1 0 0 1 294.5319 528.5253)" class="st6 st4 st7">youtube</text>
	<text transform="matrix(1 0 0 1 294.5319 428.0241)" class="st6 st4 st7">youtube</text>
	<text transform="matrix(1 0 0 1 294.5321 628.4449)" class="st6 st4 st7">reddit</text>
	<text transform="matrix(1 0 0 1 294.5324 727.4603)" class="st6 st4 st7">MGTOW</text>
	<text transform="matrix(1 0 0 1 487.2887 827.4771)" class="st6 st4 st7">Facebook</text>
	<g>
		<g>
			<polyline class="st1" points="374.8,714.4 605,714.4 605,824.7 			"/>
			<g>
				<polygon points="600.9,821.4 601.7,820.7 605,824.3 608.4,820.7 609.1,821.4 605,825.8 				"/>
			</g>
		</g>
	</g>
	<g>
		<g>
			<line class="st8" x1="168.4" y1="88.1" x2="168.4" y2="139.1"/>
			<g>
				<polygon class="st3" points="164.3,135.8 165,135.1 168.4,138.7 171.7,135.1 172.4,135.8 168.4,140.2 				"/>
			</g>
		</g>
	</g>
	<g>
		<g>
			<line class="st8" x1="168.4" y1="192.7" x2="168.4" y2="239.4"/>
			<g>
				<polygon class="st3" points="164.3,236.1 165,235.4 168.4,239 171.7,235.4 172.4,236.1 168.4,240.5 				"/>
			</g>
		</g>
	</g>
	<g>
		<g>
			<line class="st8" x1="168.4" y1="794.2" x2="168.4" y2="833.4"/>
			<g>
				<polygon class="st3" points="164.3,830.1 165,829.4 168.4,833 171.7,829.4 172.4,830.1 168.4,834.5 				"/>
			</g>
		</g>
	</g>
	<g>
		<g>
			<line class="st8" x1="168.4" y1="431.9" x2="168.4" y2="597.3"/>
			<g>
				<polygon class="st3" points="164.3,594 165,593.3 168.4,596.9 171.7,593.3 172.4,594 168.4,598.4 				"/>
			</g>
		</g>
	</g>
	<g>
		<g>
			<line class="st8" x1="168.4" y1="292.1" x2="168.4" y2="397.1"/>
			<g>
				<polygon class="st3" points="164.3,393.8 165,393.1 168.4,396.7 171.7,393.1 172.4,393.8 168.4,398.2 				"/>
			</g>
		</g>
	</g>
	<g>
		<g>
			<line class="st8" x1="168.4" y1="632.1" x2="168.4" y2="741.1"/>
			<g>
				<polygon class="st3" points="164.3,737.8 165,737.1 168.4,740.7 171.7,737.1 172.4,737.8 168.4,742.2 				"/>
			</g>
		</g>
	</g>
</g>
<g id="questions">
	<g id="question01_2_">
		<text transform="matrix(1 0 0 1 279.1498 67.3563)" class="st9 st10 st11">1.</text>
		<rect x="294.8" y="45.4" class="st12" width="159.9" height="52.5"/>
		<text transform="matrix(1 0 0 1 310.3515 67.3561)"><tspan x="0" y="0" class="st13 st10 st11">Which are the topics</tspan><tspan x="0" y="14.4" class="st13 st10 st11">linked to sexism?</tspan></text>
	</g>
	<g id="question02_2_">
		<text transform="matrix(1 0 0 1 278.1173 156.4399)" class="st9 st10 st11">2.</text>
		<rect x="294.5" y="133.5" class="st12" width="241.8" height="64.7"/>
		<text transform="matrix(1 0 0 1 311.8708 156.44)"><tspan x="0" y="0" class="st13 st10 st11">Which are the sources that</tspan><tspan x="0" y="14.4" class="st13 st10 st11">talk about the gender-based hate</tspan><tspan x="0" y="28.8" class="st13 st10 st11">and what is their orientation?</tspan></text>
	</g>
	<g id="question03_2_">
		<text transform="matrix(1 0 0 1 507.6723 256.4098)" class="st9 st10 st11">3.</text>
		<rect x="524.1" y="233.5" class="st12" width="179.3" height="64.7"/>
		<text transform="matrix(1 0 0 1 540.4257 256.4099)"><tspan x="0" y="0" class="st13 st10 st11">What is the evolution</tspan><tspan x="0" y="14.4" class="st13 st10 st11">of feminism throughout</tspan><tspan x="0" y="28.8" class="st13 st10 st11">its four waves?</tspan></text>
	</g>
	<g id="question04_2_">
		<text transform="matrix(1 0 0 1 278.039 355.3797)" class="st9 st10 st11">4.</text>
		<rect x="294.5" y="333.4" class="st12" width="266.3" height="64.7"/>
		<text transform="matrix(1 0 0 1 311.3698 355.3799)"><tspan x="0" y="0" class="st13 st10 st11">Which are the most involved</tspan><tspan x="0" y="14.4" class="st13 st10 st11">newspapers and which are the images</tspan><tspan x="0" y="28.8" class="st13 st10 st11">they push to the mainstream?</tspan></text>
	</g>
	<g id="question05_2_">
		<text transform="matrix(1 0 0 1 278.088 455.3524)" class="st9 st10 st11">5.</text>
		<rect x="294.5" y="433.4" class="st12" width="238.7" height="64.7"/>
		<text transform="matrix(1 0 0 1 311.37 455.3498)"><tspan x="0" y="0" class="st13 st10 st11">Who are the main actors that talk</tspan><tspan x="0" y="14.4" class="st13 st10 st11">about feminism and which are</tspan><tspan x="0" y="28.8" class="st13 st10 st11">the themes they treat? </tspan></text>
	</g>
	<g id="question06_2_">
		<text transform="matrix(1 0 0 1 278.0941 555.4125)" class="st9 st10 st11">6.</text>
		<rect x="294.5" y="533.4" class="st12" width="300.1" height="64.7"/>
		<text transform="matrix(1 0 0 1 311.37 555.3197)"><tspan x="0" y="0" class="st13 st10 st11">Which is the orientation of the most viewed</tspan><tspan x="0" y="14.4" class="st13 st10 st11">videos about feminism and which is</tspan><tspan x="0" y="28.8" class="st13 st10 st11">the reaction of the users?</tspan></text>
	</g>
	<g id="question07_2_">
		<text transform="matrix(1 0 0 1 277.6584 655.2895)" class="st9 st10 st11">7.</text>
		<rect x="294.7" y="633.3" class="st12" width="203.9" height="64.7"/>
		<text transform="matrix(1 0 0 1 310.6591 655.2896)"><tspan x="0" y="0" class="st13 st10 st11">Which are the most popular</tspan><tspan x="0" y="14.4" class="st13 st10 st11">anti-feminist platforms</tspan><tspan x="0" y="28.8" class="st13 st10 st11">and which are their topics?</tspan></text>
	</g>
	<g id="question08_2_">
		<text transform="matrix(1 0 0 1 278.0756 755.2597)" class="st9 st10 st11">8.</text>
		<rect x="294.5" y="733.3" class="st12" width="259.9" height="64.7"/>
		<text transform="matrix(1 0 0 1 311.3703 755.2596)"><tspan x="0" y="0" class="st13 st10 st11">Which is the language used</tspan><tspan x="0" y="14.4" class="st13 st10 st11">in the MGTOW forums and how much</tspan><tspan x="0" y="28.8" class="st13 st10 st11">is it spread by the users?</tspan></text>
	</g>
	<g id="question09_2_">
		<text transform="matrix(1 0 0 1 468.0158 855.0438)" class="st9 st10 st11">9.</text>
		<rect x="487.3" y="833.3" class="st12" width="259.9" height="50.1"/>
		<text transform="matrix(1 0 0 1 504.1266 854.7773)"><tspan x="0" y="0" class="st13 st10 st11">Which are the arguments of</tspan><tspan x="0" y="14.4" class="st13 st10 st11">the visual language of antifeminists? </tspan></text>
	</g>
</g>
</svg>
