<?xml version="1.0" encoding="utf-8"?>
<!-- Generator: Adobe Illustrator 23.0.1, SVG Export Plug-In . SVG Version: 6.00 Build 0)  -->
<svg version="1.1" id="Livello_1" xmlns="http://www.w3.org/2000/svg" xmlns:xlink="http://www.w3.org/1999/xlink" x="0px" y="0px"
	 viewBox="0 0 1953 125" style="enable-background:new 0 0 1953 125;" xml:space="preserve">
<style type="text/css">
	.st0{fill:#1B2029;}
	.st1{fill:#FFFFFF;}
	.st2{fill:#58626B;}
	.st3{fill:#4A74FF;}
	.st4{fill:#FF3603;}
	.st5{fill:#F2D51E;}
</style>
<g>
	<rect x="1" y="0" class="st0" width="1952.2" height="125"/>
</g>
<g>
	<path class="st1" d="M7.6,20.4l4.6,14.6H10l-1-3.5H3.2l-1,3.5H0l4.6-14.6H7.6z M8.4,29.5l-2.3-7.3H5.8l-2.3,7.3H8.4z"/>
	<path class="st1" d="M19.5,20.4L24,33h0.3V20.4h2v14.6h-3.9L18,22.3h-0.3v12.7h-2V20.4H19.5z"/>
	<path class="st1" d="M41.4,20.4v1.9h-4.7v12.7h-2V22.3H30v-1.9H41.4z"/>
	<path class="st1" d="M47.1,20.4v14.6h-2V20.4H47.1z"/>
	<path class="st1" d="M60.9,20.4v1.9h-7v4.4h6.6v1.9h-6.6v6.3h-2.2V20.4H60.9z"/>
	<path class="st1" d="M73.8,20.4v1.9h-7.2v4.4h6.7v1.9h-6.7V33h7.3v1.9h-9.5V20.4H73.8z"/>
	<path class="st1" d="M81.6,20.4l3.7,12.4h0.3l3.7-12.4H93v14.6h-2V22.5h-0.3l-3.7,12.4h-3.2l-3.7-12.4H80v12.4h-2V20.4H81.6z"/>
	<path class="st1" d="M99.7,20.4v14.6h-2V20.4H99.7z"/>
	<path class="st1" d="M108.2,20.4l4.6,12.7h0.3V20.4h2v14.6h-3.8l-4.4-12.7h-0.3v12.7h-2V20.4H108.2z"/>
	<path class="st1" d="M121.9,20.4v14.6h-2V20.4H121.9z"/>
	<path class="st1" d="M136.5,24.7v0.6h-2v-0.5c0-1.9-1.4-2.9-3.3-2.9c-1.6,0-2.8,0.9-2.8,2.2c0,1.4,0.9,1.9,2.9,2.3l1,0.3
		c2.7,0.6,4.3,1.8,4.3,4.3c0,2.7-2.2,4.4-5.2,4.4c-3.5,0-5.8-2-5.8-5.3v-0.6h2v0.5c0,2.3,1.4,3.5,3.7,3.5c1.9,0,3-1,3-2.4
		c0-1.4-0.9-1.9-2.8-2.4l-1-0.3c-2.7-0.5-4.4-1.5-4.4-4.3c0-2.5,2.2-4,4.8-4C134.3,20.1,136.5,21.6,136.5,24.7z"/>
	<path class="st1" d="M151,20.4v1.9h-4.7v12.7h-2.2V22.3h-4.7v-1.9H151z"/>
	<path class="st2" d="M7.2,77.9c0.3,0,0.4-0.1,0.6-0.3l1.8-1.4l1,1.3l-2.2,1.6c-0.4,0.4-0.9,0.6-1.5,0.6c-1,0-1.4-0.5-1.8-1.3
		c-0.1-0.4-0.3-0.6-0.6-0.6c-0.3,0-0.4,0.1-0.6,0.3l-1.8,1.4l-1-1.3l2.2-1.6C3.7,76.3,4.2,76,4.8,76c1,0,1.4,0.5,1.8,1.3
		C6.7,77.6,6.8,77.9,7.2,77.9z"/>
	<path class="st2" d="M20.2,70c2.9,0,4.9,1.9,4.9,4.7c0,3.2-2.3,4.3-5.1,5.2c-2,0.6-3,1.1-3,2.8v0.3h8v1.9H14.9v-1.9
		c0-2.8,1.6-3.9,4.3-4.7c2.4-0.8,3.9-1.5,3.9-3.7c0-1.8-1.3-2.7-2.9-2.7c-2,0-3.3,1.1-3.3,3.2v0.5h-2v-0.6C14.9,72,17.1,70,20.2,70z
		"/>
	<path class="st2" d="M38.2,70.4v1.8l-5.7,12.8h-2.3l5.7-12.7h-8v-1.9H38.2z"/>
	<path class="st2" d="M47.3,70.4v14.6h-2V72.3H45l-2.7,4.4h-2.3l4-6.3H47.3z"/>
	<path class="st2" d="M53.1,81.9c0.9,0,1.6,0.8,1.6,1.6s-0.8,1.6-1.6,1.6c-0.9,0-1.6-0.8-1.6-1.6S52.3,81.9,53.1,81.9z"/>
	<path class="st2" d="M64.9,70.4v14.6h-2V72.3h-0.3L60,76.7h-2.3l4-6.3H64.9z"/>
	<path class="st2" d="M74.5,70c3.3,0,5.4,2.2,5.4,5.9v3.3c0,3.8-2,5.9-5.4,5.9c-3.4,0-5.4-2.2-5.4-5.9v-3.3
		C69.1,72.3,71.1,70,74.5,70z M71.1,79.2c0,2.5,1.1,4,3.4,4c2.3,0,3.4-1.4,3.4-4v-3.3c0-2.5-1.1-4-3.4-4c-2.3,0-3.4,1.4-3.4,4V79.2z
		"/>
	<path class="st2" d="M89.1,70c3.3,0,5.4,2.2,5.4,5.9v3.3c0,3.8-2,5.9-5.4,5.9c-3.4,0-5.4-2.2-5.4-5.9v-3.3
		C83.6,72.3,85.7,70,89.1,70z M85.7,79.2c0,2.5,1.1,4,3.4,4c2.3,0,3.4-1.4,3.4-4v-3.3c0-2.5-1.1-4-3.4-4c-2.3,0-3.4,1.4-3.4,4V79.2z
		"/>
	<path class="st2" d="M104.4,76.2l6.2,8.7h-2.5l-5.2-7.3l-2.2,2v5.3h-2V70.4h2v6.5h0.3l6.8-6.5h2.9L104.4,76.2z"/>
	<path class="st2" d="M9,91l3.8,12.7H13L16.8,91h2.3l-4.4,14.6h-3.3L7,91H9z"/>
	<path class="st2" d="M24.4,91v14.6h-2V91H24.4z"/>
	<path class="st2" d="M38.5,91v1.9h-7.2v4.4H38v1.9h-6.7v4.4h7.3v1.9h-9.4V91H38.5z"/>
	<path class="st2" d="M43.8,91l1.6,12.7h0.3L47.8,91h3.4l2.2,12.7h0.3L55.3,91h2.2l-2,14.6h-3.7l-2.2-12.7h-0.3l-2.2,12.7h-3.5
		l-2-14.6H43.8z"/>
	<path class="st2" d="M71,95.1v0.6h-2v-0.5c0-1.9-1.4-2.9-3.3-2.9c-1.6,0-2.8,0.9-2.8,2.2c0,1.4,0.9,1.9,2.9,2.3l1,0.3
		c2.7,0.6,4.3,1.8,4.3,4.3c0,2.7-2.2,4.4-5.2,4.4c-3.5,0-5.8-2-5.8-5.3v-0.6h2v0.5c0,2.3,1.4,3.5,3.7,3.5c1.9,0,3-1,3-2.4
		s-0.9-1.9-2.8-2.4l-1-0.3c-2.7-0.5-4.4-1.5-4.4-4.3c0-2.5,2.2-4,4.8-4C68.7,90.6,71,92.2,71,95.1z"/>
	<path class="st1" d="M1840.9,19.9l4.6,12.7h0.3V19.9h2v14.6h-3.9l-4.4-12.7h-0.3v12.7h-2V19.9H1840.9z"/>
	<path class="st1" d="M1861.6,19.9v1.9h-7.2v4.4h6.7v1.9h-6.7v4.4h7.3v1.9h-9.4V19.9H1861.6z"/>
	<path class="st1" d="M1867.8,19.9v9.6c0,2.2,1.1,3.3,3.4,3.3c2.3,0,3.4-1.1,3.4-3.3v-9.6h2v9.6c0,3.4-2,5.2-5.4,5.2
		s-5.4-1.8-5.4-5.2v-9.6H1867.8z"/>
	<path class="st1" d="M1891.6,19.9v1.9h-4.7v12.7h-2V21.8h-4.7v-1.9H1891.6z"/>
	<path class="st1" d="M1902.3,28.3l3.3,6.1h-2.3l-3-5.9h-2.9v5.9h-2V19.9h6.1c2.7,0,4.4,1.6,4.4,4.3
		C1905.8,26.3,1904.4,28,1902.3,28.3z M1897.3,26.6h3.8c1.6,0,2.7-0.9,2.7-2.4c0-1.5-0.9-2.4-2.7-2.4h-3.8V26.6z"/>
	<path class="st1" d="M1916.3,19.9l4.6,14.6h-2.2l-1-3.5h-5.8l-1,3.5h-2.2l4.6-14.6H1916.3z M1917.1,29l-2.3-7.3h-0.3l-2.3,7.3
		H1917.1z"/>
	<path class="st1" d="M1926.6,19.9v12.7h7.2v1.9h-9.2V19.9H1926.6z"/>
	<path class="st2" d="M1843.3,77.3c0.3,0,0.4-0.1,0.6-0.3l1.8-1.4l1,1.3l-2.2,1.6c-0.4,0.4-0.9,0.6-1.5,0.6c-1,0-1.4-0.5-1.8-1.3
		c-0.1-0.4-0.3-0.6-0.6-0.6c-0.3,0-0.4,0.1-0.6,0.3l-1.8,1.4l-1-1.3l2.2-1.6c0.4-0.4,0.9-0.6,1.5-0.6c1,0,1.4,0.5,1.8,1.3
		C1842.8,77.1,1842.9,77.3,1843.3,77.3z"/>
	<path class="st2" d="M1861.1,69.7v1.9l-4.3,3.8v0.3h0.5c2.2,0,4,1.6,4,4.3c0,2.8-2.3,4.8-5.2,4.8c-3.2,0-5.4-2-5.4-4.8v-1h2v0.9
		c0,1.9,1.3,3,3.3,3c1.9,0,3.2-1.3,3.2-2.9s-1.3-2.7-2.8-2.7h-2.3v-1.9l4-3.5h-7V70h9.9V69.7z"/>
	<path class="st2" d="M1873.8,69.7v9.9h2.4v1.9h-2.4v2.8h-2v-2.8h-7.2v-1.8l5.8-9.9h3.4V69.7z M1866.7,79.6h4.9v-8.2h-0.3
		L1866.7,79.6z"/>
	<path class="st2" d="M1880.7,81.4c0.9,0,1.6,0.8,1.6,1.6s-0.8,1.6-1.6,1.6s-1.6-0.8-1.6-1.6S1879.9,81.4,1880.7,81.4z"/>
	<path class="st2" d="M1896.2,69.7v1.9h-7.6v4.6h0.3c0.6-1,1.5-1.8,3.4-1.8c2.5,0,4.4,1.9,4.4,4.8c0,3-2.2,5.3-5.3,5.3
		s-5.4-2-5.4-5.2v-0.3h2v0.3c0,2,1.1,3.3,3.3,3.3c2,0,3.2-1.4,3.2-3.4c0-1.9-1.1-2.9-2.8-2.9c-1.3,0-1.9,0.8-2.2,1.3h-3.2v-7.8
		L1896.2,69.7L1896.2,69.7z"/>
	<path class="st2" d="M1905.5,69.5c3.3,0,5.4,2.2,5.4,5.9v3.3c0,3.8-2,5.9-5.4,5.9s-5.4-2.2-5.4-5.9v-3.3
		C1900.1,71.6,1902.1,69.5,1905.5,69.5z M1902.1,78.7c0,2.5,1.1,4,3.4,4c2.3,0,3.4-1.4,3.4-4v-3.3c0-2.5-1.1-4-3.4-4
		c-2.3,0-3.4,1.4-3.4,4V78.7z"/>
	<path class="st2" d="M1920.1,69.5c3.3,0,5.4,2.2,5.4,5.9v3.3c0,3.8-2,5.9-5.4,5.9c-3.4,0-5.4-2.2-5.4-5.9v-3.3
		C1914.7,71.6,1916.7,69.5,1920.1,69.5z M1916.7,78.7c0,2.5,1.1,4,3.4,4c2.3,0,3.4-1.4,3.4-4v-3.3c0-2.5-1.1-4-3.4-4s-3.4,1.4-3.4,4
		V78.7z"/>
	<path class="st2" d="M1935.4,75.5l6.2,8.7h-2.5l-5.2-7.3l-2.2,2v5.3h-2V69.7h2v6.5h0.3l6.8-6.5h2.9L1935.4,75.5z"/>
	<path class="st2" d="M1840,90.3l3.8,12.7h0.3l3.8-12.7h2.3l-4.4,14.6h-3.3l-4.4-14.6H1840z"/>
	<path class="st2" d="M1855.4,90.3v14.6h-2V90.3H1855.4z"/>
	<path class="st2" d="M1869.5,90.3v1.9h-7.2v4.4h6.7v1.9h-6.7v4.4h7.3v1.9h-9.4V90.3H1869.5z"/>
	<path class="st2" d="M1874.8,90.3l1.6,12.7h0.3l2.2-12.7h3.4l2.2,12.7h0.3l1.6-12.7h2.2l-2,14.6h-3.5l-2.2-12.7h-0.3l-2.2,12.7
		h-3.5l-2-14.6H1874.8z"/>
	<path class="st2" d="M1902,94.6v0.6h-2v-0.5c0-1.9-1.4-2.9-3.3-2.9c-1.6,0-2.8,0.9-2.8,2.2c0,1.4,0.9,1.9,2.9,2.3l1,0.3
		c2.7,0.6,4.3,1.8,4.3,4.3c0,2.7-2.2,4.4-5.2,4.4c-3.5,0-5.8-2-5.8-5.3v-0.6h2v0.5c0,2.3,1.4,3.5,3.7,3.5c1.9,0,3-1,3-2.4
		s-0.9-1.9-2.8-2.4l-1-0.3c-2.7-0.5-4.4-1.5-4.4-4.3c0-2.5,2.2-4,4.8-4C1899.7,90.1,1902,91.7,1902,94.6z"/>
	<path class="st1" d="M1582.9,19.6v1.9h-7v4.4h6.6v1.9h-6.6v6.3h-2V19.6H1582.9z"/>
	<path class="st1" d="M1595.9,19.6v1.9h-7.2v4.4h6.7v1.9h-6.7v4.4h7.3v1.9h-9.4V19.6H1595.9z"/>
	<path class="st1" d="M1603.8,19.6l3.7,12.4h0.3l3.7-12.4h3.8v14.6h-2V21.8h-0.3l-3.7,12.4h-3.2l-3.7-12.4h-0.3v12.4h-2V19.6H1603.8
		z"/>
	<path class="st1" d="M1621.8,19.6v14.6h-2V19.6H1621.8z"/>
	<path class="st1" d="M1630.3,19.6l4.6,12.7h0.3V19.6h2v14.6h-3.9l-4.4-12.7h-0.3v12.7h-2V19.6H1630.3z"/>
	<path class="st1" d="M1644,19.6v14.6h-2V19.6H1644z"/>
	<path class="st1" d="M1658.7,23.9v0.6h-2V24c0-1.9-1.4-2.9-3.3-2.9c-1.6,0-2.8,0.9-2.8,2.2c0,1.4,0.9,1.9,2.9,2.3l1,0.3
		c2.7,0.6,4.3,1.8,4.3,4.3c0,2.7-2.2,4.4-5.2,4.4c-3.5,0-5.8-2-5.8-5.3v-0.6h2v0.5c0,2.3,1.4,3.5,3.7,3.5c1.9,0,3-1,3-2.4
		c0-1.4-0.9-1.9-2.8-2.4l-1-0.3c-2.7-0.5-4.4-1.5-4.4-4.3c0-2.5,2.2-4,4.8-4C1656.3,19.4,1658.7,21,1658.7,23.9z"/>
	<path class="st1" d="M1673,19.6v1.9h-4.7v12.7h-2V21.5h-4.7v-1.9H1673z"/>
	<path class="st2" d="M1580.2,77.2c0.3,0,0.4-0.1,0.6-0.3l1.8-1.4l1,1.3l-2.2,1.6c-0.4,0.4-0.9,0.6-1.5,0.6c-1,0-1.4-0.5-1.8-1.3
		c-0.1-0.4-0.3-0.6-0.6-0.6c-0.3,0-0.4,0.1-0.6,0.3l-1.8,1.4l-1-1.3l2.2-1.6c0.4-0.4,0.9-0.6,1.5-0.6c1,0,1.4,0.5,1.8,1.3
		C1579.7,76.9,1579.8,77.2,1580.2,77.2z"/>
	<path class="st2" d="M1597.9,69.6v1.9l-4.3,3.8v0.3h0.5c2.2,0,4,1.6,4,4.3c0,2.8-2.3,4.8-5.2,4.8c-3.2,0-5.4-2-5.4-4.8v-1h2v0.9
		c0,1.9,1.3,3,3.3,3c1.9,0,3.2-1.3,3.2-2.9s-1.3-2.7-2.8-2.7h-2.3v-1.9l4-3.5h-7v-1.9h9.9V69.6z"/>
	<path class="st2" d="M1612,69.6v1.9h-7.6V76h0.3c0.6-1,1.5-1.8,3.4-1.8c2.5,0,4.4,1.9,4.4,4.8c0,3-2.2,5.3-5.3,5.3
		c-3.2,0-5.4-2-5.4-5.2V79h2v0.3c0,2,1.1,3.3,3.3,3.3c2,0,3.2-1.4,3.2-3.4c0-1.9-1.1-2.9-2.8-2.9c-1.3,0-1.9,0.8-2.2,1.3h-3.2v-7.8
		L1612,69.6L1612,69.6z"/>
	<path class="st2" d="M1617.4,81.1c0.9,0,1.6,0.8,1.6,1.6c0,0.9-0.8,1.6-1.6,1.6c-0.9,0-1.6-0.8-1.6-1.6
		C1615.8,81.9,1616.5,81.1,1617.4,81.1z"/>
	<path class="st2" d="M1628,69.2c2.9,0,4.9,1.9,4.9,4.7c0,3.2-2.3,4.3-5.1,5.2c-2,0.6-3,1.1-3,2.8v0.3h8V84h-10.1v-1.9
		c0-2.8,1.6-3.9,4.3-4.7c2.4-0.8,3.9-1.5,3.9-3.7c0-1.8-1.3-2.7-2.9-2.7c-2,0-3.3,1.1-3.3,3.2v0.5h-2v-0.6
		C1622.7,71.2,1624.9,69.2,1628,69.2z"/>
	<path class="st2" d="M1642,69.2c3.3,0,5.4,2.2,5.4,5.9v3.3c0,3.8-2,5.9-5.4,5.9s-5.4-2.2-5.4-5.9v-3.3
		C1636.5,71.5,1638.7,69.2,1642,69.2z M1638.7,78.5c0,2.5,1.1,4,3.4,4c2.3,0,3.4-1.4,3.4-4v-3.3c0-2.5-1.1-4-3.4-4s-3.4,1.4-3.4,4
		V78.5z"/>
	<path class="st2" d="M1656.5,69.2c3.3,0,5.4,2.2,5.4,5.9v3.3c0,3.8-2,5.9-5.4,5.9c-3.4,0-5.4-2.2-5.4-5.9v-3.3
		C1651.1,71.5,1653.2,69.2,1656.5,69.2z M1653.2,78.5c0,2.5,1.1,4,3.4,4s3.4-1.4,3.4-4v-3.3c0-2.5-1.1-4-3.4-4s-3.4,1.4-3.4,4V78.5z
		"/>
	<path class="st2" d="M1672,75.4l6.2,8.7h-2.5l-5.2-7.3l-2.2,2v5.3h-2V69.6h2V76h0.3l6.8-6.5h2.9L1672,75.4z"/>
	<path class="st2" d="M1576.4,90.2l3.8,12.7h0.3l3.8-12.7h2.3l-4.4,14.6h-3.3l-4.4-14.6H1576.4z"/>
	<path class="st2" d="M1592,90.2v14.6h-2V90.2H1592z"/>
	<path class="st2" d="M1605.9,90.2v1.9h-7.2v4.4h6.7v1.9h-6.7v4.4h7.3v1.9h-9.4V90.2H1605.9z"/>
	<path class="st2" d="M1611.2,90.2l1.6,12.7h0.3l2.2-12.7h3.4l2.2,12.7h0.3l1.6-12.7h2.2l-2,14.6h-3.5l-2.2-12.7h-0.3l-2.2,12.7
		h-3.5l-2-14.6H1611.2z"/>
	<path class="st2" d="M1638.6,94.5v0.6h-2v-0.5c0-1.9-1.4-2.9-3.3-2.9c-1.6,0-2.8,0.9-2.8,2.2c0,1.4,0.9,1.9,2.9,2.3l1,0.3
		c2.7,0.6,4.3,1.8,4.3,4.3c0,2.7-2.2,4.4-5.2,4.4c-3.5,0-5.8-2-5.8-5.3v-0.6h2v0.5c0,2.3,1.4,3.5,3.7,3.5c1.9,0,3-1,3-2.4
		c0-1.4-0.9-1.9-2.8-2.4l-1-0.3c-2.7-0.5-4.4-1.5-4.4-4.3c0-2.5,2.2-4,4.8-4C1636.1,89.8,1638.6,91.5,1638.6,94.5z"/>
	<rect x="0.9" y="52.3" class="st3" width="1501.8" height="4.3"/>
	<rect x="1572.9" y="52.1" class="st4" width="192" height="4.6"/>
	<rect x="1835.8" y="52.1" class="st5" width="117.2" height="4.9"/>
</g>
<g>
</g>
<g>
</g>
<g>
</g>
<g>
</g>
<g>
</g>
<g>
</g>
<g>
</g>
<g>
</g>
<g>
</g>
<g>
</g>
<g>
</g>
<g>
</g>
<g>
</g>
<g>
</g>
<g>
</g>
</svg>
