<?xml version="1.0" encoding="utf-8"?>
<!-- Generator: Adobe Illustrator 23.0.1, SVG Export Plug-In . SVG Version: 6.00 Build 0)  -->
<svg version="1.1" id="Livello_1" xmlns="http://www.w3.org/2000/svg" xmlns:xlink="http://www.w3.org/1999/xlink" x="0px" y="0px"
	 viewBox="0 0 830.1 404.9" style="enable-background:new 0 0 830.1 404.9;" xml:space="preserve">
<style type="text/css">
	.st0{fill:#F6F6F6;}
	.st1{fill:#FF3603;}
	.st2{fill:#FFFFFF;}
	.st3{fill:#666666;}
	.st4{fill:none;stroke:#FF3603;stroke-miterlimit:10;}
	.st5{fill:#B2B2B2;}
	.st6{fill:#1D1D1B;}
	.st7{fill:none;stroke:#1D1D1B;stroke-miterlimit:10;}
	.st8{fill:none;stroke:#C6C6C6;stroke-miterlimit:10;}
	.st9{fill:#C6C6C6;}
	.st10{fill:none;}
</style>
<title>Tavola disegno 1</title>
<rect x="0.2" y="322.4" class="st0" width="659.2" height="65.4"/>
<rect x="0.2" y="242" class="st0" width="659.2" height="65.4"/>
<rect x="0.2" y="0.2" class="st0" width="658.1" height="226.8"/>
<g>
	<rect x="11.7" y="11.6" class="st1" width="125.7" height="22.1"/>
	<g>
		<path class="st2" d="M22,18.1c2.3,0,3.6,1.2,3.6,3.5v1.8c0,2.3-1.3,3.5-3.6,3.5h-2.9V18H22V18.1z M20.5,25.7H22
			c1.5,0,2.1-0.7,2.1-2.2v-1.9c0-1.5-0.6-2.2-2.1-2.2h-1.4v6.3H20.5z"/>
		<path class="st2" d="M31.5,18.1l2.6,8.9h-1.6l-0.6-2h-3.4l-0.6,2h-1.6l2.6-8.9H31.5z M31.6,23.6l-1.3-4.2h-0.1l-1.3,4.2H31.6z"/>
		<path class="st2" d="M41.2,18.1v1.4h-2.7V27H37v-7.5h-2.7v-1.4H41.2z"/>
		<path class="st2" d="M46.2,18.1l2.6,8.9h-1.6l-0.6-2h-3.4l-0.6,2H41l2.6-8.9H46.2z M46.3,23.6L45,19.4h-0.1l-1.3,4.2H46.3z"/>
		<path class="st2" d="M57.6,17.9c2.2,0,3.4,1.3,3.4,3.2v0.3h-1.5v-0.2c0-1.2-0.6-1.9-1.9-1.9c-1.4,0-2.1,0.8-2.1,2.2v2.1
			c0,1.4,0.7,2.2,2.1,2.2c1.4,0,1.9-0.7,1.9-1.9v-0.2h1.6V24c0,2-1.2,3.3-3.4,3.3c-2.2,0-3.6-1.3-3.6-3.6v-2
			C54,19.3,55.4,17.9,57.6,17.9z"/>
		<path class="st2" d="M66.1,17.9c2.2,0,3.6,1.4,3.6,3.7v1.9c0,2.3-1.4,3.7-3.6,3.7c-2.2,0-3.6-1.4-3.6-3.7v-1.9
			C62.5,19.3,63.8,17.9,66.1,17.9z M63.9,23.6c0,1.4,0.6,2.2,2.1,2.2s2.1-0.8,2.1-2.2v-2c0-1.4-0.7-2.2-2.1-2.2s-2.1,0.8-2.1,2.2
			V23.6z"/>
		<path class="st2" d="M72.9,18.1v7.5h4.2V27h-5.7v-8.9H72.9z"/>
		<path class="st2" d="M80.1,18.1v7.5h4.2V27h-5.7v-8.9H80.1z"/>
		<path class="st2" d="M91.6,18.1v1.4h-4.3V22h3.9v1.4h-3.9v2.4h4.3v1.4h-5.8v-8.9h5.8V18.1z"/>
		<path class="st2" d="M96.7,17.9c2.2,0,3.4,1.3,3.4,3.2v0.3h-1.5v-0.2c0-1.2-0.6-1.9-1.9-1.9c-1.4,0-2.1,0.8-2.1,2.2v2.1
			c0,1.4,0.7,2.2,2.1,2.2c1.4,0,1.9-0.7,1.9-1.9v-0.2h1.5V24c0,2-1.2,3.3-3.4,3.3c-2.2,0-3.6-1.3-3.6-3.6v-2
			C93.1,19.3,94.5,17.9,96.7,17.9z"/>
		<path class="st2" d="M108.1,18.1v1.4h-2.7V27h-1.5v-7.5h-2.7v-1.4H108.1z"/>
		<path class="st2" d="M111.1,18.1V27h-1.5v-8.9H111.1z"/>
		<path class="st2" d="M116.5,17.9c2.2,0,3.6,1.4,3.6,3.7v1.9c0,2.3-1.4,3.7-3.6,3.7c-2.2,0-3.6-1.4-3.6-3.7v-1.9
			C112.9,19.3,114.3,17.9,116.5,17.9z M114.4,23.6c0,1.4,0.6,2.2,2.1,2.2s2.1-0.8,2.1-2.2v-2c0-1.4-0.7-2.2-2.1-2.2
			c-1.4,0-2.1,0.8-2.1,2.2L114.4,23.6z"/>
		<path class="st2" d="M124.5,18.1l2.4,7.5h0.1v-7.5h1.5V27h-2.6l-2.4-7.5h-0.1V27h-1.5v-8.9H124.5z"/>
	</g>
</g>
<g>
	<path class="st1" d="M14.8,47v5.2h-1v-4h-0.1l-0.8,1.1h-1v-0.1l1.5-2.2H14.8z"/>
	<path class="st3" d="M26.9,57.4h-1.3v-0.9h-0.2c-0.3,0.5-0.9,1.1-2,1.1c-1.5,0-2.7-1.3-2.7-3.1s1.2-3.1,2.7-3.1c1.1,0,1.6,0.5,2,1
		h0.1V49h1.3V57.4z M22.1,54.4c0,1.2,0.8,2,1.8,2c1,0,1.8-0.7,1.8-2c0-1.2-0.7-1.9-1.8-1.9C22.8,52.5,22.1,53.2,22.1,54.4z"/>
	<path class="st3" d="M31.6,51.3c1.6,0,2.6,0.9,2.6,2.3v3.8h-1.3v-0.9h-0.2c-0.2,0.5-0.7,1.1-2,1.1c-1.3,0-2.2-0.7-2.2-1.8
		c0-1,0.8-1.6,2.1-1.8l2.2-0.2v-0.2c0-0.7-0.5-1.1-1.4-1.1c-0.9,0-1.4,0.4-1.7,1.1l-1.1-0.6C29.3,52,30.1,51.3,31.6,51.3z
		 M31.1,56.5c1.2,0,1.8-0.7,1.8-1.6v-0.1L31,54.9c-0.6,0.1-1,0.3-1,0.7S30.3,56.5,31.1,56.5z"/>
	<path class="st3" d="M36.9,51.5v-1.9h1.3v1.9h1.7v1.1h-1.7v3.3c0,0.2,0.1,0.3,0.3,0.3h1v1.1H38c-0.6,0-1.1-0.4-1.1-1.1v-3.7h-1.6
		v-1.1H36.9z"/>
	<path class="st3" d="M44.2,51.3c1.6,0,2.6,0.9,2.6,2.3v3.8h-1.3v-0.9h-0.2c-0.2,0.5-0.7,1.1-2,1.1c-1.3,0-2.2-0.7-2.2-1.8
		c0-1,0.8-1.6,2.1-1.8l2.2-0.2v-0.2c0-0.7-0.5-1.1-1.4-1.1c-0.9,0-1.4,0.4-1.7,1.1l-1.1-0.6C41.9,52,42.8,51.3,44.2,51.3z
		 M43.7,56.5c1.2,0,1.8-0.7,1.8-1.6v-0.1l-1.9,0.2c-0.6,0.1-1,0.3-1,0.7S43,56.5,43.7,56.5z"/>
	<path class="st3" d="M18.6,63.4v0.9h-2.8v7.5h-1v-7.5H12v-0.9H18.6z"/>
	<path class="st3" d="M20.6,63.3c0.4,0,0.8,0.3,0.8,0.8c0,0.4-0.3,0.8-0.8,0.8c-0.4,0-0.8-0.3-0.8-0.8
		C19.8,63.7,20.2,63.3,20.6,63.3z M21.1,71.8h-0.9v-5.9h0.9V71.8z"/>
	<path class="st3" d="M24.4,65.9v-2.1h0.9v2.1h1.9v0.8h-1.9v3.9c0,0.2,0.1,0.3,0.3,0.3h1.2v0.8h-1.5c-0.5,0-0.9-0.4-0.9-0.9v-4.1
		h-1.8v-0.8H24.4z"/>
	<path class="st3" d="M29.9,71.8H29v-8.4h0.9V71.8z"/>
	<path class="st3" d="M34.7,65.8c1.7,0,2.8,1.2,2.8,2.9v0.5h-4.8c0.1,1.2,0.9,2,2.1,2c1,0,1.5-0.5,1.8-1.2l0.8,0.4
		C37,71.2,36.3,72,34.8,72c-1.8,0-3-1.4-3-3.1C31.8,67.1,33,65.8,34.7,65.8z M36.6,68.4c0-1.2-0.8-1.8-1.9-1.8c-1.1,0-1.8,0.7-2,1.8
		H36.6z"/>
	<path class="st3" d="M39.8,70.3c0.5,0,0.8,0.3,0.8,0.8v1.2c0,0.6-0.4,0.9-0.9,0.9H39v-0.6h0.6c0.2,0,0.3-0.1,0.3-0.3v-0.4
		c0,0-0.1,0-0.2,0c-0.4,0-0.8-0.3-0.8-0.8C39,70.6,39.3,70.3,39.8,70.3z"/>
	<path class="st3" d="M47.2,65.9l1.8,5h0.1l1.8-5h1l-2.3,5.9h-1.3l-2.3-5.9H47.2z"/>
	<path class="st3" d="M54.2,63.3c0.4,0,0.8,0.3,0.8,0.8c0,0.4-0.3,0.8-0.8,0.8c-0.4,0-0.8-0.3-0.8-0.8
		C53.4,63.7,53.8,63.3,54.2,63.3z M54.7,71.8h-0.9v-5.9h0.9V71.8z"/>
	<path class="st3" d="M59.5,65.8c1.7,0,2.8,1.2,2.8,2.9v0.5h-4.8c0.1,1.2,0.9,2,2.1,2c1,0,1.5-0.5,1.8-1.2l0.8,0.4
		C61.8,71.2,61,72,59.6,72c-1.8,0-3-1.4-3-3.1C56.5,67.1,57.8,65.8,59.5,65.8z M61.3,68.4c0-1.2-0.8-1.8-1.9-1.8
		c-1.1,0-1.8,0.7-2,1.8H61.3z"/>
	<path class="st3" d="M64.6,65.9l1.1,4.9h0.2l1.3-4.9h1.4l1.3,4.9h0.2l1.1-4.9h1l-1.4,5.9h-1.4l-1.3-4.9h-0.2l-1.3,4.9H65l-1.4-5.9
		H64.6z"/>
	<path class="st3" d="M75.8,65.8c1.2,0,2,0.5,2.9,1.5L78,67.8c-0.6-0.9-1.4-1.2-2.2-1.2c-0.8,0-1.3,0.3-1.3,0.9
		c0,0.6,0.6,0.8,1.4,0.9l0.6,0.1c1.4,0.2,2.3,0.6,2.3,1.7c0,1.1-1,1.9-2.6,1.9c-1.7,0-2.6-1-3-1.9l0.8-0.4c0.4,1,1.2,1.5,2.2,1.5
		c1,0,1.6-0.4,1.6-1.1c0-0.6-0.7-0.8-1.5-0.9l-0.6-0.1c-1.3-0.2-2.2-0.6-2.2-1.7C73.6,66.4,74.6,65.8,75.8,65.8z"/>
	<path class="st3" d="M81.1,70.3c0.5,0,0.8,0.3,0.8,0.8v1.2c0,0.6-0.4,0.9-0.9,0.9h-0.7v-0.6H81c0.2,0,0.3-0.1,0.3-0.3v-0.4
		c0,0-0.1,0-0.2,0c-0.4,0-0.8-0.3-0.8-0.8C80.3,70.6,80.7,70.3,81.1,70.3z"/>
	<path class="st3" d="M89.1,71.8h-0.9v-8.4h0.9V71.8z"/>
	<path class="st3" d="M91.9,63.3c0.4,0,0.8,0.3,0.8,0.8c0,0.4-0.3,0.8-0.8,0.8c-0.4,0-0.8-0.3-0.8-0.8
		C91.1,63.7,91.4,63.3,91.9,63.3z M92.3,71.8h-0.9v-5.9h0.9V71.8z"/>
	<path class="st3" d="M97.5,68.2l2.7,3.5H99l-2.2-3l-1.3,1.1v1.9h-0.9v-8.4h0.9v5.3h0.1l3.2-2.7h1.4L97.5,68.2z"/>
	<path class="st3" d="M103.9,65.8c1.7,0,2.8,1.2,2.8,2.9v0.5h-4.8c0.1,1.2,0.9,2,2.1,2c1,0,1.5-0.5,1.8-1.2l0.8,0.4
		c-0.4,0.8-1.1,1.6-2.6,1.6c-1.8,0-3-1.4-3-3.1C100.9,67.1,102.2,65.8,103.9,65.8z M105.7,68.4c0-1.2-0.8-1.8-1.9-1.8
		c-1.1,0-1.8,0.7-2,1.8H105.7z"/>
	<path class="st3" d="M110.5,65.8c1.2,0,2,0.5,2.9,1.5l-0.7,0.5c-0.6-0.9-1.4-1.2-2.2-1.2c-0.8,0-1.3,0.3-1.3,0.9
		c0,0.6,0.6,0.8,1.4,0.9l0.6,0.1c1.4,0.2,2.3,0.6,2.3,1.7c0,1.1-1,1.9-2.6,1.9c-1.7,0-2.6-1-3-1.9l0.8-0.4c0.4,1,1.2,1.5,2.2,1.5
		c1,0,1.6-0.4,1.6-1.1c0-0.6-0.7-0.8-1.5-0.9l-0.6-0.1c-1.3-0.2-2.2-0.6-2.2-1.7C108.3,66.4,109.3,65.8,110.5,65.8z"/>
	<path class="st3" d="M115.9,70.3c0.5,0,0.8,0.3,0.8,0.8v1.2c0,0.6-0.4,0.9-0.9,0.9h-0.7v-0.6h0.6c0.2,0,0.3-0.1,0.3-0.3v-0.4
		c0,0-0.1,0-0.2,0c-0.4,0-0.8-0.3-0.8-0.8C115,70.6,115.4,70.3,115.9,70.3z"/>
	<path class="st3" d="M18.2,86.2h-0.9v-1h-0.2c-0.3,0.6-0.9,1.2-2.1,1.2c-1.6,0-2.8-1.3-2.8-3.1s1.2-3.1,2.8-3.1
		c1.2,0,1.8,0.6,2.1,1.2h0.1v-3.5h0.9V86.2z M13.2,83.3c0,1.4,0.9,2.3,2.1,2.3c1.2,0,2.1-0.9,2.1-2.3c0-1.4-0.8-2.3-2.1-2.3
		C14,81,13.2,81.8,13.2,83.3z"/>
	<path class="st3" d="M20.9,77.7c0.4,0,0.8,0.3,0.8,0.8c0,0.4-0.3,0.8-0.8,0.8c-0.4,0-0.8-0.3-0.8-0.8
		C20.1,78.1,20.5,77.7,20.9,77.7z M21.4,86.2h-0.9v-5.9h0.9V86.2z"/>
	<path class="st3" d="M25.8,80.2c1.2,0,2,0.5,2.9,1.5L28,82.2c-0.6-0.9-1.4-1.2-2.2-1.2c-0.8,0-1.3,0.3-1.3,0.9
		c0,0.6,0.6,0.8,1.4,0.9l0.6,0.1c1.4,0.2,2.3,0.6,2.3,1.7s-1,1.9-2.6,1.9c-1.7,0-2.6-1-3-1.9l0.8-0.4c0.4,1,1.2,1.5,2.2,1.5
		c1,0,1.6-0.4,1.6-1.1c0-0.6-0.7-0.8-1.5-0.9l-0.6-0.1c-1.3-0.2-2.2-0.6-2.2-1.7C23.5,80.8,24.6,80.2,25.8,80.2z"/>
	<path class="st3" d="M31.4,86.2h-0.9v-8.4h0.9V86.2z"/>
	<path class="st3" d="M34.2,77.7c0.4,0,0.8,0.3,0.8,0.8c0,0.4-0.3,0.8-0.8,0.8c-0.4,0-0.8-0.3-0.8-0.8
		C33.4,78.1,33.7,77.7,34.2,77.7z M34.6,86.2h-0.9v-5.9h0.9V86.2z"/>
	<path class="st3" d="M39.8,82.6l2.7,3.5h-1.1l-2.2-3l-1.3,1.1v1.9h-0.9v-8.4h0.9v5.3H38l3.2-2.7h1.4L39.8,82.6z"/>
	<path class="st3" d="M46.2,80.2c1.7,0,2.8,1.2,2.8,2.9v0.5h-4.8c0.1,1.2,0.9,2,2.1,2c1,0,1.5-0.5,1.8-1.2l0.8,0.4
		c-0.4,0.8-1.1,1.6-2.6,1.6c-1.8,0-3-1.4-3-3.1C43.2,81.5,44.5,80.2,46.2,80.2z M48,82.8c0-1.2-0.8-1.8-1.9-1.8
		c-1.1,0-1.8,0.7-2,1.8H48z"/>
	<path class="st3" d="M52.9,80.2c1.2,0,2,0.5,2.9,1.5L55,82.2c-0.6-0.9-1.4-1.2-2.2-1.2c-0.8,0-1.3,0.3-1.3,0.9
		c0,0.6,0.6,0.8,1.4,0.9l0.6,0.1c1.4,0.2,2.3,0.6,2.3,1.7s-1,1.9-2.6,1.9c-1.7,0-2.6-1-3-1.9L51,84c0.4,1,1.2,1.5,2.2,1.5
		c1,0,1.6-0.4,1.6-1.1c0-0.6-0.7-0.8-1.5-0.9l-0.6-0.1c-1.3-0.2-2.2-0.6-2.2-1.7C50.6,80.8,51.7,80.2,52.9,80.2z"/>
	<path class="st3" d="M58.2,84.7c0.5,0,0.8,0.3,0.8,0.8v1.2c0,0.6-0.4,0.9-0.9,0.9h-0.7v-0.6H58c0.2,0,0.3-0.1,0.3-0.3v-0.4
		c0,0-0.1,0-0.2,0c-0.4,0-0.8-0.3-0.8-0.8C57.3,85,57.7,84.7,58.2,84.7z"/>
	<path class="st3" d="M67.3,80.2c1.2,0,2,0.5,2.9,1.5l-0.7,0.5c-0.6-0.9-1.4-1.2-2.2-1.2c-0.8,0-1.3,0.3-1.3,0.9
		c0,0.6,0.6,0.8,1.4,0.9l0.6,0.1c1.4,0.2,2.3,0.6,2.3,1.7s-1,1.9-2.6,1.9c-1.7,0-2.6-1-3-1.9l0.8-0.4c0.4,1,1.2,1.5,2.2,1.5
		c1,0,1.6-0.4,1.6-1.1c0-0.6-0.7-0.8-1.5-0.9l-0.6-0.1c-1.3-0.2-2.2-0.6-2.2-1.7C65.1,80.8,66.1,80.2,67.3,80.2z"/>
	<path class="st3" d="M74.7,80.2c1.7,0,3,1.3,3,3.1c0,1.8-1.2,3.1-3,3.1c-1.8,0-3-1.3-3-3.1C71.7,81.5,72.9,80.2,74.7,80.2z
		 M74.7,85.5c1.2,0,2.1-0.9,2.1-2.3S75.9,81,74.7,81c-1.2,0-2.1,0.9-2.1,2.2C72.6,84.7,73.4,85.5,74.7,85.5z"/>
	<path class="st3" d="M84,86.2v-1h-0.2c-0.3,0.6-0.9,1.2-2.1,1.2c-1.2,0-2.3-0.8-2.3-2.4v-3.5h0.9v3.5c0,1.1,0.6,1.7,1.6,1.7
		c1.2,0,1.9-0.7,1.9-2.1v-3h0.9v5.9H84z"/>
	<path class="st3" d="M88.1,81.2h0.2c0.2-0.6,0.7-0.9,1.5-0.9h0.7v0.9h-1c-0.9,0-1.4,0.5-1.4,1.5v3.5h-0.9v-5.9h0.9V81.2z"/>
	<path class="st3" d="M94.4,80.2c1.5,0,2.6,1,2.8,2.3l-0.9,0.2c-0.1-0.9-0.8-1.6-1.9-1.6c-1.2,0-2.1,0.9-2.1,2.2
		c0,1.3,0.9,2.3,2.1,2.3c1.2,0,1.7-0.7,1.9-1.6l0.9,0.2c-0.2,1.2-1.2,2.3-2.8,2.3c-1.8,0-3-1.3-3-3.1C91.4,81.5,92.7,80.2,94.4,80.2
		z"/>
	<path class="st3" d="M101.6,80.2c1.7,0,2.8,1.2,2.8,2.9v0.5h-4.8c0.1,1.2,0.9,2,2.1,2c1,0,1.5-0.5,1.8-1.2l0.8,0.4
		c-0.4,0.8-1.1,1.6-2.6,1.6c-1.8,0-3-1.4-3-3.1C98.7,81.5,99.9,80.2,101.6,80.2z M103.5,82.8c0-1.2-0.8-1.8-1.9-1.8
		c-1.1,0-1.8,0.7-2,1.8H103.5z"/>
</g>
<line class="st4" x1="337.1" y1="49" x2="404.5" y2="49"/>
<g>
	<path class="st5" d="M361.3,28.7v-3h-0.1c-0.3,0.5-0.8,1-1.9,1c-1.4,0-2.4-1.1-2.4-2.7c0-1.6,1.1-2.7,2.4-2.7c1.1,0,1.6,0.5,1.9,1
		h0.1v-0.9h0.8v7.3H361.3z M361.3,24c0-1.2-0.7-2-1.8-2c-1.1,0-1.8,0.8-1.8,2c0,1.3,0.8,2,1.8,2C360.6,26,361.3,25.2,361.3,24z"/>
	<path class="st5" d="M367.6,26.6v-0.9h-0.1c-0.3,0.5-0.8,1-1.8,1c-1.1,0-2-0.7-2-2.1v-3.1h0.8v3.1c0,1,0.5,1.5,1.4,1.5
		c1,0,1.7-0.7,1.7-1.9v-2.7h0.8v5.2H367.6z"/>
	<path class="st5" d="M372.2,21.3c1.5,0,2.5,1,2.5,2.6v0.4h-4.2c0.1,1.1,0.8,1.7,1.8,1.7c0.8,0,1.3-0.4,1.6-1l0.7,0.4
		c-0.4,0.7-1,1.4-2.3,1.4c-1.6,0-2.7-1.2-2.7-2.8C369.6,22.4,370.7,21.3,372.2,21.3z M373.8,23.6c0-1-0.7-1.6-1.6-1.6
		c-1,0-1.6,0.6-1.7,1.6H373.8z"/>
	<path class="st5" d="M376.7,22.2h0.1c0.2-0.5,0.6-0.8,1.3-0.8h0.6v0.8h-0.9c-0.8,0-1.2,0.4-1.2,1.3v3.1h-0.8v-5.2h0.8V22.2z"/>
	<path class="st5" d="M384.9,21.4l-3.1,7.3h-0.9l0.9-2l-2.2-5.2h0.9l1.7,4.1h0.1l1.7-4.1H384.9z"/>
	<path class="st6" d="M339.9,35.2v-2c0-0.7,0.4-1.2,1.1-1.2h1.8v1h-1.5c-0.3,0-0.4,0.1-0.4,0.4v1.7h2.2v1H341v6.2h-1.1v-6.2h-2.2v-1
		H339.9z"/>
	<path class="st6" d="M348.3,35c2.1,0,3.5,1.5,3.5,3.6v0.6h-5.9c0.1,1.5,1.1,2.4,2.5,2.4c1.2,0,1.8-0.6,2.2-1.4l1,0.5
		c-0.5,0.9-1.4,1.9-3.2,1.9c-2.2,0-3.7-1.7-3.7-3.9C344.8,36.7,346.3,35,348.3,35z M350.7,38.3c0-1.4-0.9-2.3-2.3-2.3
		c-1.4,0-2.3,0.8-2.4,2.3H350.7z"/>
	<path class="st6" d="M355.2,35.2v1h0.2c0.4-0.7,1.1-1.1,2-1.1c1.1,0,1.7,0.5,2.1,1.3h0.2c0.4-0.7,1.1-1.3,2.2-1.3
		c1.4,0,2.5,0.9,2.5,2.4v5h-1.1v-4.9c0-0.9-0.7-1.5-1.6-1.5c-1,0-1.8,0.7-1.8,1.9v4.5h-1.1v-4.9c0-0.9-0.6-1.5-1.6-1.5
		c-1,0-1.8,0.7-1.8,1.9v4.5h-1.1v-7.2H355.2z"/>
	<path class="st6" d="M367.7,32c0.5,0,1,0.4,1,1s-0.4,1-1,1c-0.5,0-1-0.4-1-1S367.1,32,367.7,32z M368.2,42.4h-1.1v-7.2h1.1V42.4z"
		/>
	<path class="st6" d="M372.1,35.2v1.3h0.2c0.4-0.7,1.1-1.4,2.5-1.4c1.5,0,2.9,1,2.9,3v4.4h-1.1v-4.3c0-1.4-0.8-2.1-2-2.1
		c-1.4,0-2.4,0.9-2.4,2.6v3.7H371v-7.2H372.1z"/>
	<path class="st6" d="M381,32c0.5,0,1,0.4,1,1s-0.4,1-1,1c-0.5,0-1-0.4-1-1S380.5,32,381,32z M381.6,42.4h-1.1v-7.2h1.1V42.4z"/>
	<path class="st6" d="M386.9,35c1.5,0,2.5,0.6,3.6,1.9l-0.9,0.6c-0.8-1.1-1.7-1.5-2.7-1.5c-0.9,0-1.6,0.4-1.6,1.1
		c0,0.8,0.8,0.9,1.7,1.1l0.7,0.1c1.7,0.3,2.9,0.7,2.9,2.1c0,1.4-1.3,2.3-3.2,2.3c-2,0-3.2-1.2-3.7-2.4l1-0.5
		c0.5,1.2,1.5,1.9,2.8,1.9c1.2,0,2-0.5,2-1.3c0-0.8-0.9-0.9-1.9-1.1l-0.7-0.1c-1.6-0.2-2.7-0.7-2.7-2.1
		C384.2,35.8,385.5,35,386.9,35z"/>
	<path class="st6" d="M393.9,35.2v1h0.2c0.4-0.7,1.1-1.1,2-1.1c1.1,0,1.7,0.5,2.1,1.3h0.2c0.4-0.7,1.1-1.3,2.2-1.3
		c1.4,0,2.5,0.9,2.5,2.4v5h-1.1v-4.9c0-0.9-0.7-1.5-1.6-1.5c-1,0-1.8,0.7-1.8,1.9v4.5h-1.1v-4.9c0-0.9-0.6-1.5-1.6-1.5
		c-1,0-1.8,0.7-1.8,1.9v4.5h-1.1v-7.2H393.9z"/>
</g>
<g>
	<line class="st7" x1="370.3" y1="65.7" x2="370.3" y2="79.5"/>
	<g>
		<polygon class="st6" points="366,76 366.7,75.3 370.3,79.1 373.9,75.3 374.6,76 370.3,80.7 		"/>
	</g>
</g>
<g>
	<path class="st1" d="M311.7,101.1c2.1,0,3.7,1.6,3.7,3.8s-1.5,3.8-3.7,3.8c-2.2,0-3.7-1.6-3.7-3.8S309.5,101.1,311.7,101.1z
		 M311.7,107.7c1.5,0,2.5-1.1,2.5-2.8c0-1.7-1-2.8-2.5-2.8c-1.5,0-2.6,1.1-2.6,2.8C309.1,106.7,310.1,107.7,311.7,107.7z"/>
	<path class="st1" d="M318.8,102.4h0.2c0.3-0.7,0.8-1.1,1.9-1.1h0.9v1.1h-1.2c-1.1,0-1.7,0.6-1.7,1.8v4.4h-1.1v-7.2h1.1V102.4z"/>
	<path class="st1" d="M330.2,108.6h-1.1v-1.2h-0.2c-0.4,0.7-1.1,1.5-2.6,1.5c-1.9,0-3.4-1.6-3.4-3.8s1.5-3.8,3.4-3.8
		c1.5,0,2.2,0.7,2.6,1.4h0.2v-4.4h1.1V108.6z M324,104.9c0,1.7,1.1,2.8,2.5,2.8c1.5,0,2.5-1.1,2.5-2.8c0-1.7-1-2.8-2.5-2.8
		C325.1,102.2,324,103.2,324,104.9z"/>
	<path class="st1" d="M336.2,101.1c2.1,0,3.5,1.5,3.5,3.6v0.6h-5.9c0.1,1.5,1.1,2.4,2.5,2.4c1.2,0,1.8-0.6,2.2-1.4l1,0.5
		c-0.5,0.9-1.4,1.9-3.2,1.9c-2.2,0-3.7-1.7-3.7-3.9C332.6,102.8,334.1,101.1,336.2,101.1z M338.5,104.4c0-1.4-0.9-2.3-2.3-2.3
		c-1.4,0-2.3,0.8-2.4,2.3H338.5z"/>
	<path class="st1" d="M343,102.4h0.2c0.3-0.7,0.8-1.1,1.9-1.1h0.9v1.1h-1.2c-1.1,0-1.7,0.6-1.7,1.8v4.4h-1.1v-7.2h1.1V102.4z"/>
	<path class="st6" d="M354.3,98.2v4.4h0.2c0.4-0.7,1.1-1.5,2.6-1.5c1.9,0,3.4,1.6,3.4,3.8s-1.5,3.8-3.4,3.8c-1.5,0-2.2-0.7-2.6-1.4
		h-0.2v1.2h-1.1V98.2H354.3z M354.3,104.9c0,1.7,1,2.8,2.5,2.8c1.5,0,2.5-1,2.5-2.8c0-1.7-1-2.8-2.5-2.8
		C355.4,102.2,354.3,103.2,354.3,104.9z"/>
	<path class="st6" d="M369.5,101.3l-4.4,10.2h-1.2l1.3-2.9l-3.1-7.3h1.2l2.4,5.8h0.2l2.4-5.8H369.5z"/>
	<path class="st6" d="M377.9,101.3v1.3h0.2c0.4-0.7,1.1-1.4,2.5-1.4c1.5,0,2.9,1,2.9,3v4.4h-1.1v-4.3c0-1.4-0.8-2.1-2-2.1
		c-1.4,0-2.4,0.9-2.4,2.6v3.7h-1.1v-7.2H377.9z"/>
	<path class="st6" d="M391.6,108.6v-1.3h-0.2c-0.4,0.7-1.1,1.4-2.5,1.4c-1.5,0-2.8-1-2.8-3v-4.4h1.1v4.3c0,1.4,0.8,2.1,2,2.1
		c1.4,0,2.4-0.9,2.4-2.6v-3.7h1.1v7.2H391.6z"/>
	<path class="st6" d="M396.6,101.3v1h0.2c0.4-0.7,1.1-1.1,2-1.1c1.1,0,1.7,0.5,2.1,1.3h0.2c0.4-0.7,1.1-1.3,2.2-1.3
		c1.4,0,2.5,0.9,2.5,2.4v5h-1.1v-4.9c0-0.9-0.7-1.5-1.6-1.5c-1,0-1.8,0.7-1.8,1.9v4.5h-1.1v-4.9c0-0.9-0.6-1.5-1.6-1.5
		c-1,0-1.8,0.7-1.8,1.9v4.5h-1.1v-7.2H396.6z"/>
	<path class="st6" d="M409.6,98.2v4.4h0.2c0.4-0.7,1.1-1.5,2.6-1.5c1.9,0,3.4,1.6,3.4,3.8s-1.5,3.8-3.4,3.8c-1.5,0-2.2-0.7-2.6-1.4
		h-0.2v1.2h-1.1V98.2H409.6z M409.6,104.9c0,1.7,1,2.8,2.5,2.8c1.5,0,2.5-1,2.5-2.8c0-1.7-1-2.8-2.5-2.8
		C410.6,102.2,409.6,103.2,409.6,104.9z"/>
	<path class="st6" d="M421.3,101.1c2.1,0,3.5,1.5,3.5,3.6v0.6h-5.9c0.1,1.5,1.1,2.4,2.5,2.4c1.2,0,1.8-0.6,2.2-1.4l1,0.5
		c-0.5,0.9-1.4,1.9-3.2,1.9c-2.2,0-3.7-1.7-3.7-3.9C417.7,102.8,419.2,101.1,421.3,101.1z M423.6,104.4c0-1.4-0.9-2.3-2.3-2.3
		c-1.4,0-2.3,0.8-2.4,2.3H423.6z"/>
	<path class="st6" d="M428.2,102.4h0.2c0.3-0.7,0.8-1.1,1.9-1.1h0.9v1.1h-1.2c-1.1,0-1.7,0.6-1.7,1.8v4.4h-1.1v-7.2h1.1V102.4z"/>
	<path class="st6" d="M342.7,117c2.1,0,3.7,1.6,3.7,3.8s-1.5,3.8-3.7,3.8c-2.2,0-3.7-1.6-3.7-3.8S340.5,117,342.7,117z M342.7,123.6
		c1.5,0,2.5-1.1,2.5-2.8c0-1.7-1-2.8-2.5-2.8c-1.5,0-2.6,1.1-2.6,2.8C340.1,122.5,341.1,123.6,342.7,123.6z"/>
	<path class="st6" d="M349.9,117.2v-2c0-0.7,0.4-1.2,1.1-1.2h1.8v1h-1.5c-0.3,0-0.4,0.1-0.4,0.4v1.7h2.2v1h-2.2v6.2h-1.1v-6.2h-2.2
		v-1H349.9z"/>
	<path class="st6" d="M361,117.2l2.3,6.1h0.2l2.3-6.1h1.2l-2.8,7.2h-1.6l-2.8-7.2H361z"/>
	<path class="st6" d="M369.6,114c0.5,0,1,0.4,1,1s-0.4,1-1,1c-0.5,0-1-0.4-1-1S369,114,369.6,114z M370.1,124.4H369v-7.2h1.1V124.4z
		"/>
	<path class="st6" d="M376.1,117c2.1,0,3.5,1.5,3.5,3.6v0.6h-5.9c0.1,1.5,1.1,2.4,2.5,2.4c1.2,0,1.8-0.6,2.2-1.4l1,0.5
		c-0.5,0.9-1.4,1.9-3.2,1.9c-2.2,0-3.7-1.7-3.7-3.9C372.5,118.6,374,117,376.1,117z M378.4,120.2c0-1.4-0.9-2.3-2.3-2.3
		c-1.4,0-2.3,0.8-2.4,2.3H378.4z"/>
	<path class="st6" d="M382.4,117.2l1.3,6h0.2l1.6-6h1.7l1.6,6h0.2l1.3-6h1.2l-1.7,7.2h-1.7l-1.6-6h-0.2l-1.6,6H383l-1.7-7.2H382.4z"
		/>
	<path class="st6" d="M396.3,117c1.5,0,2.5,0.6,3.6,1.9l-0.9,0.6c-0.8-1.1-1.7-1.5-2.7-1.5c-0.9,0-1.6,0.4-1.6,1.1
		c0,0.8,0.8,0.9,1.7,1.1l0.7,0.1c1.7,0.3,2.9,0.7,2.9,2.1c0,1.4-1.3,2.3-3.2,2.3c-2,0-3.2-1.2-3.7-2.4l1-0.5
		c0.5,1.2,1.5,1.9,2.8,1.9c1.2,0,2-0.5,2-1.3c0-0.8-0.9-0.9-1.9-1.1l-0.7-0.1c-1.6-0.2-2.7-0.7-2.7-2.1
		C393.5,117.7,394.8,117,396.3,117z"/>
</g>
<g>
	<line class="st7" x1="370.3" y1="143.8" x2="370.3" y2="157.7"/>
	<g>
		<polygon class="st6" points="366,154.2 366.7,153.5 370.3,157.3 373.9,153.5 374.6,154.2 370.3,158.9 		"/>
	</g>
</g>
<g>
	<line class="st7" x1="370.3" y1="227" x2="370.3" y2="240.8"/>
	<g>
		<polygon class="st6" points="366,237.3 366.7,236.6 370.3,240.4 373.9,236.6 374.6,237.3 370.3,242 		"/>
	</g>
</g>
<g>
	<path class="st1" d="M304.2,179.3c2.1,0,3.5,1.5,3.5,3.6v0.6h-5.9c0.1,1.5,1.1,2.4,2.5,2.4c1.2,0,1.8-0.6,2.2-1.4l1,0.5
		c-0.5,0.9-1.4,1.9-3.2,1.9c-2.2,0-3.7-1.7-3.7-3.9C300.6,181,302.1,179.3,304.2,179.3z M306.5,182.6c0-1.4-0.9-2.3-2.3-2.3
		c-1.4,0-2.3,0.8-2.4,2.3H306.5z"/>
	<path class="st1" d="M310.5,179.5l2.1,2.8h0.2l2.1-2.8h1.4l-2.8,3.5l2.9,3.7h-1.4l-2.2-3h-0.2l-2.2,3H309l2.9-3.7l-2.8-3.5H310.5z"
		/>
	<path class="st1" d="M320,179.5v-2.6h1.1v2.6h2.3v1h-2.3v4.8c0,0.3,0.1,0.4,0.4,0.4h1.5v1h-1.9c-0.7,0-1.1-0.4-1.1-1.1v-5.1h-2.2
		v-1H320z"/>
	<path class="st1" d="M326.7,180.6h0.2c0.3-0.7,0.8-1.1,1.9-1.1h0.9v1.1h-1.2c-1.1,0-1.7,0.6-1.7,1.8v4.4h-1.1v-7.2h1.1V180.6z"/>
	<path class="st1" d="M334.8,179.3c2,0,3.1,1.1,3.1,2.9v4.6h-1.1v-1.2h-0.2c-0.4,0.7-1.2,1.4-2.7,1.4c-1.6,0-2.7-0.8-2.7-2.1
		c0-1.3,1.1-2,2.8-2.1l2.9-0.3v-0.3c0-1.1-0.7-1.8-2-1.8c-1.3,0-2.1,0.7-2.5,1.6l-1-0.5C331.8,180.4,333,179.3,334.8,179.3z
		 M334.1,186c1.7,0,2.8-1,2.8-2.5v-0.1l-2.7,0.3c-1,0.1-1.8,0.4-1.8,1.2C332.3,185.6,333,186,334.1,186z"/>
	<path class="st1" d="M343.9,179.3c1.9,0,3.2,1.2,3.4,2.8l-1.1,0.2c-0.1-1.1-1-2-2.3-2c-1.5,0-2.6,1.1-2.6,2.8
		c0,1.6,1.1,2.8,2.6,2.8c1.5,0,2.1-0.9,2.3-2l1.1,0.2c-0.3,1.4-1.4,2.8-3.4,2.8c-2.2,0-3.8-1.6-3.8-3.8S341.8,179.3,343.9,179.3z"/>
	<path class="st1" d="M350.9,179.5v-2.6h1.1v2.6h2.3v1H352v4.8c0,0.3,0.1,0.4,0.4,0.4h1.5v1H352c-0.7,0-1.1-0.4-1.1-1.1v-5.1h-2.2
		v-1H350.9z"/>
	<path class="st6" d="M368.6,186.7h-1.1v-1.2h-0.2c-0.4,0.7-1.1,1.5-2.6,1.5c-1.9,0-3.4-1.6-3.4-3.8s1.5-3.8,3.4-3.8
		c1.5,0,2.2,0.7,2.6,1.4h0.2v-4.4h1.1V186.7z M362.4,183.1c0,1.7,1.1,2.8,2.5,2.8c1.5,0,2.5-1.1,2.5-2.8c0-1.7-1-2.8-2.5-2.8
		C363.4,180.3,362.4,181.4,362.4,183.1z"/>
	<path class="st6" d="M374.6,179.3c2,0,3.1,1.1,3.1,2.9v4.6h-1.1v-1.2h-0.2c-0.4,0.7-1.2,1.4-2.7,1.4c-1.6,0-2.7-0.8-2.7-2.1
		c0-1.3,1.1-2,2.8-2.1l2.9-0.3v-0.3c0-1.1-0.7-1.8-2-1.8c-1.3,0-2.1,0.7-2.5,1.6l-1-0.5C371.7,180.4,372.8,179.3,374.6,179.3z
		 M373.9,186c1.7,0,2.8-1,2.8-2.5v-0.1l-2.7,0.3c-1,0.1-1.8,0.4-1.8,1.2C372.2,185.6,372.9,186,373.9,186z"/>
	<path class="st6" d="M381.6,179.5v-2.6h1.1v2.6h2.3v1h-2.3v4.8c0,0.3,0.1,0.4,0.4,0.4h1.5v1h-1.9c-0.7,0-1.1-0.4-1.1-1.1v-5.1h-2.2
		v-1H381.6z"/>
	<path class="st6" d="M390.5,179.3c2,0,3.1,1.1,3.1,2.9v4.6h-1.1v-1.2h-0.2c-0.4,0.7-1.2,1.4-2.7,1.4c-1.6,0-2.7-0.8-2.7-2.1
		c0-1.3,1.1-2,2.8-2.1l2.9-0.3v-0.3c0-1.1-0.7-1.8-2-1.8c-1.3,0-2.1,0.7-2.5,1.6l-1-0.5C387.5,180.4,388.7,179.3,390.5,179.3z
		 M389.7,186c1.7,0,2.8-1,2.8-2.5v-0.1l-2.7,0.3c-1,0.1-1.8,0.4-1.8,1.2C388,185.6,388.7,186,389.7,186z"/>
	<path class="st1" d="M398.3,176.3v5.2h-1v-4h-0.1l-0.8,1.1h-1v-0.1l1.5-2.2H398.3z"/>
	<path class="st6" d="M407.3,179.5v-2c0-0.7,0.4-1.2,1.1-1.2h1.8v1h-1.5c-0.3,0-0.4,0.1-0.4,0.4v1.7h2.2v1h-2.2v6.2h-1.1v-6.2h-2.2
		v-1H407.3z"/>
	<path class="st6" d="M413.8,180.6h0.2c0.3-0.7,0.8-1.1,1.9-1.1h0.9v1.1h-1.2c-1.1,0-1.7,0.6-1.7,1.8v4.4h-1.1v-7.2h1.1V180.6z"/>
	<path class="st6" d="M421.6,179.3c2.1,0,3.7,1.6,3.7,3.8s-1.5,3.8-3.7,3.8c-2.2,0-3.7-1.6-3.7-3.8S419.4,179.3,421.6,179.3z
		 M421.6,185.9c1.5,0,2.5-1.1,2.5-2.8c0-1.7-1-2.8-2.5-2.8c-1.5,0-2.6,1.1-2.6,2.8C419,184.8,420,185.9,421.6,185.9z"/>
	<path class="st6" d="M428.7,179.5v1h0.2c0.4-0.7,1.1-1.1,2-1.1c1.1,0,1.7,0.5,2.1,1.3h0.2c0.4-0.7,1.1-1.3,2.2-1.3
		c1.4,0,2.5,0.9,2.5,2.4v5h-1.1v-4.9c0-0.9-0.7-1.5-1.6-1.5c-1,0-1.8,0.7-1.8,1.9v4.5h-1.1v-4.9c0-0.9-0.6-1.5-1.6-1.5
		c-1,0-1.8,0.7-1.8,1.9v4.5h-1.1v-7.2H428.7z"/>
	<path class="st6" d="M298.8,195.4v-2.6h1.1v2.6h2.3v1h-2.3v4.8c0,0.3,0.1,0.4,0.4,0.4h1.5v1h-1.9c-0.7,0-1.1-0.4-1.1-1.1v-5.1h-2.2
		v-1H298.8z"/>
	<path class="st6" d="M305.5,192.2v4.4h0.2c0.4-0.7,1.1-1.4,2.5-1.4c1.5,0,2.9,1,2.9,3v4.4h-1.1v-4.3c0-1.4-0.8-2.1-2-2.1
		c-1.4,0-2.4,0.9-2.4,2.6v3.7h-1.1v-10.4H305.5z"/>
	<path class="st6" d="M316.9,195.2c2.1,0,3.5,1.5,3.5,3.6v0.6h-5.9c0.1,1.5,1.1,2.4,2.5,2.4c1.2,0,1.8-0.6,2.2-1.4l1,0.5
		c-0.5,0.9-1.4,1.9-3.2,1.9c-2.2,0-3.7-1.7-3.7-3.9C313.3,196.8,314.8,195.2,316.9,195.2z M319.2,198.4c0-1.4-0.9-2.3-2.3-2.3
		c-1.4,0-2.3,0.8-2.4,2.3H319.2z"/>
	<path class="st6" d="M334.7,195.4v7.2h-1.1v-6.2h-3.2v6.2h-1.1v-6.2H327v-1h2.2v-2c0-0.7,0.4-1.2,1.1-1.2h1.7v1h-1.3
		c-0.3,0-0.4,0.1-0.4,0.4v1.7H334.7z M335.1,193.1c0,0.5-0.4,1-1,1c-0.6,0-1-0.4-1-1s0.4-1,1-1C334.7,192.2,335.1,192.6,335.1,193.1
		z"/>
	<path class="st6" d="M338.6,196.5h0.2c0.3-0.7,0.8-1.1,1.9-1.1h0.9v1.1h-1.2c-1.1,0-1.7,0.6-1.7,1.8v4.4h-1.1v-7.2h1.1V196.5z"/>
	<path class="st6" d="M346,195.2c1.5,0,2.5,0.6,3.6,1.9l-0.9,0.6c-0.8-1.1-1.7-1.5-2.7-1.5c-0.9,0-1.6,0.4-1.6,1.1
		c0,0.8,0.8,0.9,1.7,1.1l0.7,0.1c1.7,0.3,2.9,0.7,2.9,2.1c0,1.4-1.3,2.3-3.2,2.3c-2,0-3.2-1.2-3.7-2.4l1-0.5
		c0.5,1.2,1.5,1.9,2.8,1.9c1.2,0,2-0.5,2-1.3c0-0.8-0.9-0.9-1.9-1.1l-0.7-0.1c-1.6-0.2-2.7-0.7-2.7-2.1
		C343.3,195.9,344.5,195.2,346,195.2z"/>
	<path class="st6" d="M353.2,195.4v-2.6h1.1v2.6h2.3v1h-2.3v4.8c0,0.3,0.1,0.4,0.4,0.4h1.5v1h-1.9c-0.7,0-1.1-0.4-1.1-1.1v-5.1H351
		v-1H353.2z"/>
	<path class="st6" d="M367.9,192.2l0,10.4h-1.2v-9.2h-0.2l-2.1,3.3H363l3-4.5H367.9z"/>
	<path class="st6" d="M374.2,192c2.3,0,3.8,1.5,3.8,4.2v2.3c0,2.7-1.4,4.2-3.8,4.2c-2.4,0-3.8-1.5-3.8-4.2v-2.3
		C370.4,193.6,371.8,192,374.2,192z M371.6,198.6c0,2,0.9,3.1,2.6,3.1c1.7,0,2.6-1.1,2.6-3.1v-2.4c0-2-0.9-3.1-2.6-3.1
		c-1.7,0-2.6,1.1-2.6,3.1V198.6z"/>
	<path class="st6" d="M384,192c2.3,0,3.8,1.5,3.8,4.2v2.3c0,2.7-1.4,4.2-3.8,4.2c-2.4,0-3.8-1.5-3.8-4.2v-2.3
		C380.2,193.6,381.6,192,384,192z M381.4,198.6c0,2,0.9,3.1,2.6,3.1c1.7,0,2.6-1.1,2.6-3.1v-2.4c0-2-0.9-3.1-2.6-3.1
		c-1.7,0-2.6,1.1-2.6,3.1V198.6z"/>
	<path class="st6" d="M396,195.4l2.3,6.1h0.2l2.3-6.1h1.2l-2.8,7.2h-1.6l-2.8-7.2H396z"/>
	<path class="st6" d="M404.6,192.2c0.5,0,1,0.4,1,1s-0.4,1-1,1c-0.5,0-1-0.4-1-1S404,192.2,404.6,192.2z M405.1,202.6H404v-7.2h1.1
		V202.6z"/>
	<path class="st6" d="M414.8,202.6h-1.1v-1.2h-0.2c-0.4,0.7-1.1,1.5-2.6,1.5c-1.9,0-3.4-1.6-3.4-3.8s1.5-3.8,3.4-3.8
		c1.5,0,2.2,0.7,2.6,1.4h0.2v-4.4h1.1V202.6z M408.6,199c0,1.7,1.1,2.8,2.5,2.8c1.5,0,2.5-1.1,2.5-2.8c0-1.7-1-2.8-2.5-2.8
		C409.7,196.2,408.6,197.2,408.6,199z"/>
	<path class="st6" d="M420.8,195.2c2.1,0,3.5,1.5,3.5,3.6v0.6h-5.9c0.1,1.5,1.1,2.4,2.5,2.4c1.2,0,1.8-0.6,2.2-1.4l1,0.5
		c-0.5,0.9-1.4,1.9-3.2,1.9c-2.2,0-3.7-1.7-3.7-3.9C417.2,196.8,418.7,195.2,420.8,195.2z M423.1,198.4c0-1.4-0.9-2.3-2.3-2.3
		c-1.4,0-2.3,0.8-2.4,2.3H423.1z"/>
	<path class="st6" d="M429.7,195.2c2.1,0,3.7,1.6,3.7,3.8s-1.5,3.8-3.7,3.8c-2.2,0-3.7-1.6-3.7-3.8S427.6,195.2,429.7,195.2z
		 M429.7,201.8c1.5,0,2.5-1.1,2.5-2.8c0-1.7-1-2.8-2.5-2.8c-1.5,0-2.6,1.1-2.6,2.8C427.2,200.7,428.2,201.8,429.7,201.8z"/>
	<path class="st6" d="M438.2,195.2c1.5,0,2.5,0.6,3.6,1.9l-0.9,0.6c-0.8-1.1-1.7-1.5-2.7-1.5c-0.9,0-1.6,0.4-1.6,1.1
		c0,0.8,0.8,0.9,1.7,1.1l0.7,0.1c1.7,0.3,2.9,0.7,2.9,2.1c0,1.4-1.3,2.3-3.2,2.3c-2,0-3.2-1.2-3.7-2.4l1-0.5
		c0.5,1.2,1.5,1.9,2.8,1.9c1.2,0,2-0.5,2-1.3c0-0.8-0.9-0.9-1.9-1.1l-0.7-0.1c-1.6-0.2-2.7-0.7-2.7-2.1
		C435.5,195.9,436.8,195.2,438.2,195.2z"/>
</g>
<line class="st8" x1="671.1" y1="9.7" x2="671.1" y2="218.5"/>
<g>
	<g>
		<path class="st5" d="M686.6,99.4l2.4,4.6h0.2l2.4-4.6h2l-3.6,6.7v3.7h-1.7v-3.7l-3.6-6.7H686.6z"/>
		<path class="st5" d="M698.6,99.2c2.6,0,4.1,1.6,4.1,4.3v2.2c0,2.7-1.6,4.3-4.1,4.3c-2.6,0-4.1-1.6-4.1-4.3v-2.2
			C694.5,100.8,696,99.2,698.6,99.2z M696.2,105.8c0,1.7,0.8,2.6,2.4,2.6c1.7,0,2.4-1,2.4-2.6v-2.4c0-1.7-0.8-2.6-2.4-2.6
			c-1.6,0-2.4,1-2.4,2.6V105.8z"/>
		<path class="st5" d="M706.6,99.4v6.8c0,1.4,0.8,2.2,2.2,2.2c1.5,0,2.2-0.8,2.2-2.2v-6.8h1.7v6.8c0,2.4-1.4,3.8-4,3.8
			c-2.5,0-4-1.4-4-3.8v-6.8H706.6z"/>
		<path class="st5" d="M722.7,99.4v1.6h-3.2v8.8h-1.7V101h-3.2v-1.6H722.7z"/>
		<path class="st5" d="M726.1,99.4v6.8c0,1.4,0.8,2.2,2.2,2.2c1.5,0,2.2-0.8,2.2-2.2v-6.8h1.7v6.8c0,2.4-1.4,3.8-4,3.8
			c-2.5,0-4-1.4-4-3.8v-6.8H726.1z"/>
		<path class="st5" d="M739.3,99.4c1.8,0,3.1,1,3.1,2.8c0,1.2-0.7,2-1.7,2.3v0.2c1,0.3,1.7,1.1,1.7,2.3c0,1.7-1.3,2.8-3.1,2.8h-4.5
			V99.4H739.3z M736.5,103.8h2.6c0.9,0,1.6-0.5,1.6-1.4c0-0.9-0.6-1.4-1.6-1.4h-2.6V103.8z M736.5,108.2h2.6c0.9,0,1.6-0.5,1.6-1.4
			c0-0.9-0.6-1.4-1.6-1.4h-2.6V108.2z"/>
		<path class="st5" d="M751.2,99.4v1.6h-5v2.8h4.6v1.6h-4.6v2.9h5.1v1.6h-6.8V99.4H751.2z"/>
		<path class="st5" d="M687.7,117.1c1.5,0,2.5,1,2.5,2.6v0.4h-4.2c0.1,1.1,0.8,1.7,1.8,1.7c0.8,0,1.3-0.4,1.6-1l0.7,0.4
			c-0.4,0.7-1,1.4-2.3,1.4c-1.6,0-2.7-1.2-2.7-2.8C685.1,118.3,686.2,117.1,687.7,117.1z M689.3,119.5c0-1-0.7-1.6-1.6-1.6
			c-1,0-1.6,0.6-1.7,1.6H689.3z"/>
		<path class="st5" d="M692.6,117.3v0.9h0.1c0.3-0.5,0.8-1,1.8-1c1.1,0,2,0.7,2,2.1v3.1h-0.8v-3.1c0-1-0.5-1.5-1.4-1.5
			c-1,0-1.7,0.7-1.7,1.9v2.7h-0.8v-5.2H692.6z"/>
		<path class="st5" d="M703.4,117.3v5c0,1.4-1,2.5-2.5,2.5c-1.4,0-2.2-0.7-2.7-1.4l0.7-0.4c0.3,0.6,0.9,1.1,1.9,1.1
			c1,0,1.8-0.6,1.8-1.8v-0.8h-0.1c-0.3,0.5-0.8,1-1.9,1c-1.4,0-2.4-1.1-2.4-2.7s1.1-2.7,2.4-2.7c1.1,0,1.6,0.5,1.9,1h0.1v-0.9H703.4
			z M702.6,119.8c0-1.2-0.7-1.9-1.8-1.9c-1.1,0-1.8,0.7-1.8,1.9c0,1.2,0.8,1.9,1.8,1.9C701.9,121.7,702.6,121,702.6,119.8z"/>
		<path class="st5" d="M706.2,122.4h-0.8V115h0.8V122.4z"/>
		<path class="st5" d="M708.6,115c0.4,0,0.7,0.3,0.7,0.7s-0.3,0.7-0.7,0.7c-0.4,0-0.7-0.3-0.7-0.7S708.2,115,708.6,115z M709,122.4
			h-0.8v-5.2h0.8V122.4z"/>
		<path class="st5" d="M712.9,117.1c1,0,1.8,0.4,2.6,1.4l-0.6,0.4c-0.5-0.8-1.2-1.1-1.9-1.1c-0.7,0-1.2,0.3-1.2,0.8
			c0,0.6,0.6,0.7,1.2,0.8l0.5,0.1c1.2,0.2,2,0.5,2,1.5s-0.9,1.7-2.3,1.7c-1.5,0-2.3-0.9-2.7-1.7l0.7-0.4c0.3,0.9,1,1.4,2,1.4
			c0.8,0,1.4-0.4,1.4-0.9c0-0.6-0.6-0.7-1.3-0.8l-0.5-0.1c-1.1-0.2-1.9-0.5-1.9-1.5C710.9,117.7,711.8,117.1,712.9,117.1z"/>
		<path class="st5" d="M717.9,115v3.2h0.1c0.3-0.5,0.8-1,1.8-1c1.1,0,2,0.7,2,2.1v3.1H721v-3.1c0-1-0.5-1.5-1.4-1.5
			c-1,0-1.7,0.7-1.7,1.9v2.7h-0.8V115H717.9z"/>
		<path class="st5" d="M728.3,122.4h-0.8V115h0.8V122.4z"/>
		<path class="st5" d="M732.6,117.1c1.4,0,2.2,0.8,2.2,2.1v3.3h-0.8v-0.9h-0.1c-0.3,0.5-0.8,1-1.9,1c-1.1,0-1.9-0.6-1.9-1.5
			c0-0.9,0.8-1.4,2-1.5l2-0.2v-0.2c0-0.8-0.5-1.3-1.5-1.3s-1.5,0.5-1.8,1.2l-0.7-0.3C730.5,117.9,731.3,117.1,732.6,117.1z
			 M732.1,121.9c1.2,0,2-0.7,2-1.8V120l-1.9,0.2c-0.7,0.1-1.3,0.3-1.3,0.9C730.9,121.6,731.4,121.9,732.1,121.9z"/>
		<path class="st5" d="M737.6,117.3v0.9h0.1c0.3-0.5,0.8-1,1.8-1c1.1,0,2,0.7,2,2.1v3.1h-0.8v-3.1c0-1-0.5-1.5-1.4-1.5
			c-1,0-1.7,0.7-1.7,1.9v2.7h-0.8v-5.2H737.6z"/>
		<path class="st5" d="M748.4,117.3v5c0,1.4-1,2.5-2.5,2.5c-1.4,0-2.2-0.7-2.7-1.4l0.7-0.4c0.3,0.6,0.9,1.1,1.9,1.1
			c1,0,1.8-0.6,1.8-1.8v-0.8h-0.1c-0.3,0.5-0.8,1-1.9,1c-1.4,0-2.4-1.1-2.4-2.7s1.1-2.7,2.4-2.7c1.1,0,1.6,0.5,1.9,1h0.1v-0.9H748.4
			z M747.6,119.8c0-1.2-0.7-1.9-1.8-1.9c-1.1,0-1.8,0.7-1.8,1.9c0,1.2,0.8,1.9,1.8,1.9C746.9,121.7,747.6,121,747.6,119.8z"/>
		<path class="st5" d="M754.4,122.4v-0.9h-0.1c-0.3,0.5-0.8,1-1.8,1c-1.1,0-2-0.7-2-2.1v-3.1h0.8v3.1c0,1,0.5,1.5,1.4,1.5
			c1,0,1.7-0.7,1.7-1.9v-2.7h0.8v5.2H754.4z"/>
		<path class="st5" d="M759.5,117.1c1.4,0,2.2,0.8,2.2,2.1v3.3h-0.8v-0.9h-0.1c-0.3,0.5-0.8,1-1.9,1c-1.1,0-1.9-0.6-1.9-1.5
			c0-0.9,0.8-1.4,2-1.5l2-0.2v-0.2c0-0.8-0.5-1.3-1.5-1.3s-1.5,0.5-1.8,1.2l-0.7-0.3C757.3,117.9,758.2,117.1,759.5,117.1z
			 M758.9,121.9c1.2,0,2-0.7,2-1.8V120l-1.9,0.2c-0.7,0.1-1.3,0.3-1.3,0.9C757.7,121.6,758.2,121.9,758.9,121.9z"/>
		<path class="st5" d="M768.6,117.3v5c0,1.4-1,2.5-2.5,2.5c-1.4,0-2.2-0.7-2.7-1.4l0.7-0.4c0.3,0.6,0.9,1.1,1.9,1.1
			c1,0,1.8-0.6,1.8-1.8v-0.8h-0.1c-0.3,0.5-0.8,1-1.9,1c-1.4,0-2.4-1.1-2.4-2.7s1.1-2.7,2.4-2.7c1.1,0,1.6,0.5,1.9,1h0.1v-0.9H768.6
			z M767.8,119.8c0-1.2-0.7-1.9-1.8-1.9c-1.1,0-1.8,0.7-1.8,1.9c0,1.2,0.8,1.9,1.8,1.9C767,121.7,767.8,121,767.8,119.8z"/>
		<path class="st5" d="M772.8,117.1c1.5,0,2.5,1,2.5,2.6v0.4h-4.2c0.1,1.1,0.8,1.7,1.8,1.7c0.8,0,1.3-0.4,1.6-1l0.7,0.4
			c-0.4,0.7-1,1.4-2.3,1.4c-1.6,0-2.7-1.2-2.7-2.8C770.2,118.3,771.3,117.1,772.8,117.1z M774.5,119.5c0-1-0.7-1.6-1.6-1.6
			c-1,0-1.6,0.6-1.7,1.6H774.5z"/>
	</g>
	<g>
		<path class="st9" d="M686.6,99.4l2.4,4.6h0.2l2.4-4.6h2l-3.6,6.7v3.7h-1.7v-3.7l-3.6-6.7H686.6z"/>
		<path class="st9" d="M698.6,99.2c2.6,0,4.1,1.6,4.1,4.3v2.2c0,2.7-1.6,4.3-4.1,4.3c-2.6,0-4.1-1.6-4.1-4.3v-2.2
			C694.5,100.8,696,99.2,698.6,99.2z M696.2,105.8c0,1.7,0.8,2.6,2.4,2.6c1.7,0,2.4-1,2.4-2.6v-2.4c0-1.7-0.8-2.6-2.4-2.6
			c-1.6,0-2.4,1-2.4,2.6V105.8z"/>
		<path class="st9" d="M706.6,99.4v6.8c0,1.4,0.8,2.2,2.2,2.2c1.5,0,2.2-0.8,2.2-2.2v-6.8h1.7v6.8c0,2.4-1.4,3.8-4,3.8
			c-2.5,0-4-1.4-4-3.8v-6.8H706.6z"/>
		<path class="st9" d="M722.7,99.4v1.6h-3.2v8.8h-1.7V101h-3.2v-1.6H722.7z"/>
		<path class="st9" d="M726.1,99.4v6.8c0,1.4,0.8,2.2,2.2,2.2c1.5,0,2.2-0.8,2.2-2.2v-6.8h1.7v6.8c0,2.4-1.4,3.8-4,3.8
			c-2.5,0-4-1.4-4-3.8v-6.8H726.1z"/>
		<path class="st9" d="M739.3,99.4c1.8,0,3.1,1,3.1,2.8c0,1.2-0.7,2-1.7,2.3v0.2c1,0.3,1.7,1.1,1.7,2.3c0,1.7-1.3,2.8-3.1,2.8h-4.5
			V99.4H739.3z M736.5,103.8h2.6c0.9,0,1.6-0.5,1.6-1.4c0-0.9-0.6-1.4-1.6-1.4h-2.6V103.8z M736.5,108.2h2.6c0.9,0,1.6-0.5,1.6-1.4
			c0-0.9-0.6-1.4-1.6-1.4h-2.6V108.2z"/>
		<path class="st9" d="M751.2,99.4v1.6h-5v2.8h4.6v1.6h-4.6v2.9h5.1v1.6h-6.8V99.4H751.2z"/>
		<path class="st9" d="M687.7,117.1c1.5,0,2.5,1,2.5,2.6v0.4h-4.2c0.1,1.1,0.8,1.7,1.8,1.7c0.8,0,1.3-0.4,1.6-1l0.7,0.4
			c-0.4,0.7-1,1.4-2.3,1.4c-1.6,0-2.7-1.2-2.7-2.8C685.1,118.3,686.2,117.1,687.7,117.1z M689.3,119.5c0-1-0.7-1.6-1.6-1.6
			c-1,0-1.6,0.6-1.7,1.6H689.3z"/>
		<path class="st9" d="M692.6,117.3v0.9h0.1c0.3-0.5,0.8-1,1.8-1c1.1,0,2,0.7,2,2.1v3.1h-0.8v-3.1c0-1-0.5-1.5-1.4-1.5
			c-1,0-1.7,0.7-1.7,1.9v2.7h-0.8v-5.2H692.6z"/>
		<path class="st9" d="M703.4,117.3v5c0,1.4-1,2.5-2.5,2.5c-1.4,0-2.2-0.7-2.7-1.4l0.7-0.4c0.3,0.6,0.9,1.1,1.9,1.1
			c1,0,1.8-0.6,1.8-1.8v-0.8h-0.1c-0.3,0.5-0.8,1-1.9,1c-1.4,0-2.4-1.1-2.4-2.7s1.1-2.7,2.4-2.7c1.1,0,1.6,0.5,1.9,1h0.1v-0.9H703.4
			z M702.6,119.8c0-1.2-0.7-1.9-1.8-1.9c-1.1,0-1.8,0.7-1.8,1.9c0,1.2,0.8,1.9,1.8,1.9C701.9,121.7,702.6,121,702.6,119.8z"/>
		<path class="st9" d="M706.2,122.4h-0.8V115h0.8V122.4z"/>
		<path class="st9" d="M708.6,115c0.4,0,0.7,0.3,0.7,0.7s-0.3,0.7-0.7,0.7c-0.4,0-0.7-0.3-0.7-0.7S708.2,115,708.6,115z M709,122.4
			h-0.8v-5.2h0.8V122.4z"/>
		<path class="st9" d="M712.9,117.1c1,0,1.8,0.4,2.6,1.4l-0.6,0.4c-0.5-0.8-1.2-1.1-1.9-1.1c-0.7,0-1.2,0.3-1.2,0.8
			c0,0.6,0.6,0.7,1.2,0.8l0.5,0.1c1.2,0.2,2,0.5,2,1.5s-0.9,1.7-2.3,1.7c-1.5,0-2.3-0.9-2.7-1.7l0.7-0.4c0.3,0.9,1,1.4,2,1.4
			c0.8,0,1.4-0.4,1.4-0.9c0-0.6-0.6-0.7-1.3-0.8l-0.5-0.1c-1.1-0.2-1.9-0.5-1.9-1.5C710.9,117.7,711.8,117.1,712.9,117.1z"/>
		<path class="st9" d="M717.9,115v3.2h0.1c0.3-0.5,0.8-1,1.8-1c1.1,0,2,0.7,2,2.1v3.1H721v-3.1c0-1-0.5-1.5-1.4-1.5
			c-1,0-1.7,0.7-1.7,1.9v2.7h-0.8V115H717.9z"/>
		<path class="st9" d="M728.3,122.4h-0.8V115h0.8V122.4z"/>
		<path class="st9" d="M732.6,117.1c1.4,0,2.2,0.8,2.2,2.1v3.3h-0.8v-0.9h-0.1c-0.3,0.5-0.8,1-1.9,1c-1.1,0-1.9-0.6-1.9-1.5
			c0-0.9,0.8-1.4,2-1.5l2-0.2v-0.2c0-0.8-0.5-1.3-1.5-1.3s-1.5,0.5-1.8,1.2l-0.7-0.3C730.5,117.9,731.3,117.1,732.6,117.1z
			 M732.1,121.9c1.2,0,2-0.7,2-1.8V120l-1.9,0.2c-0.7,0.1-1.3,0.3-1.3,0.9C730.9,121.6,731.4,121.9,732.1,121.9z"/>
		<path class="st9" d="M737.6,117.3v0.9h0.1c0.3-0.5,0.8-1,1.8-1c1.1,0,2,0.7,2,2.1v3.1h-0.8v-3.1c0-1-0.5-1.5-1.4-1.5
			c-1,0-1.7,0.7-1.7,1.9v2.7h-0.8v-5.2H737.6z"/>
		<path class="st9" d="M748.4,117.3v5c0,1.4-1,2.5-2.5,2.5c-1.4,0-2.2-0.7-2.7-1.4l0.7-0.4c0.3,0.6,0.9,1.1,1.9,1.1
			c1,0,1.8-0.6,1.8-1.8v-0.8h-0.1c-0.3,0.5-0.8,1-1.9,1c-1.4,0-2.4-1.1-2.4-2.7s1.1-2.7,2.4-2.7c1.1,0,1.6,0.5,1.9,1h0.1v-0.9H748.4
			z M747.6,119.8c0-1.2-0.7-1.9-1.8-1.9c-1.1,0-1.8,0.7-1.8,1.9c0,1.2,0.8,1.9,1.8,1.9C746.9,121.7,747.6,121,747.6,119.8z"/>
		<path class="st9" d="M754.4,122.4v-0.9h-0.1c-0.3,0.5-0.8,1-1.8,1c-1.1,0-2-0.7-2-2.1v-3.1h0.8v3.1c0,1,0.5,1.5,1.4,1.5
			c1,0,1.7-0.7,1.7-1.9v-2.7h0.8v5.2H754.4z"/>
		<path class="st9" d="M759.5,117.1c1.4,0,2.2,0.8,2.2,2.1v3.3h-0.8v-0.9h-0.1c-0.3,0.5-0.8,1-1.9,1c-1.1,0-1.9-0.6-1.9-1.5
			c0-0.9,0.8-1.4,2-1.5l2-0.2v-0.2c0-0.8-0.5-1.3-1.5-1.3s-1.5,0.5-1.8,1.2l-0.7-0.3C757.3,117.9,758.2,117.1,759.5,117.1z
			 M758.9,121.9c1.2,0,2-0.7,2-1.8V120l-1.9,0.2c-0.7,0.1-1.3,0.3-1.3,0.9C757.7,121.6,758.2,121.9,758.9,121.9z"/>
		<path class="st9" d="M768.6,117.3v5c0,1.4-1,2.5-2.5,2.5c-1.4,0-2.2-0.7-2.7-1.4l0.7-0.4c0.3,0.6,0.9,1.1,1.9,1.1
			c1,0,1.8-0.6,1.8-1.8v-0.8h-0.1c-0.3,0.5-0.8,1-1.9,1c-1.4,0-2.4-1.1-2.4-2.7s1.1-2.7,2.4-2.7c1.1,0,1.6,0.5,1.9,1h0.1v-0.9H768.6
			z M767.8,119.8c0-1.2-0.7-1.9-1.8-1.9c-1.1,0-1.8,0.7-1.8,1.9c0,1.2,0.8,1.9,1.8,1.9C767,121.7,767.8,121,767.8,119.8z"/>
		<path class="st9" d="M772.8,117.1c1.5,0,2.5,1,2.5,2.6v0.4h-4.2c0.1,1.1,0.8,1.7,1.8,1.7c0.8,0,1.3-0.4,1.6-1l0.7,0.4
			c-0.4,0.7-1,1.4-2.3,1.4c-1.6,0-2.7-1.2-2.7-2.8C770.2,118.3,771.3,117.1,772.8,117.1z M774.5,119.5c0-1-0.7-1.6-1.6-1.6
			c-1,0-1.6,0.6-1.7,1.6H774.5z"/>
	</g>
</g>
<g>
	<g>
		<path class="st5" d="M687.3,345.8v10.4h-1.7v-10.4H687.3z"/>
		<path class="st5" d="M691.5,345.8v8.8h4.9v1.6h-6.7v-10.4H691.5z"/>
		<path class="st5" d="M700,345.8v8.8h4.9v1.6h-6.7v-10.4H700z"/>
		<path class="st5" d="M708.4,345.8v6.8c0,1.4,0.8,2.2,2.2,2.2c1.5,0,2.2-0.8,2.2-2.2v-6.8h1.7v6.8c0,2.4-1.4,3.8-4,3.8
			c-2.5,0-4-1.4-4-3.8v-6.8H708.4z"/>
		<path class="st5" d="M724.3,348.9v0.5h-1.7V349c0-1.3-0.8-1.9-2.1-1.9c-1.1,0-1.8,0.6-1.8,1.4c0,1,0.8,1.2,2.1,1.5l0.4,0.1
			c2,0.4,3.2,1.2,3.2,3.1c0,2-1.6,3.2-3.8,3.2c-2.5,0-4.1-1.4-4.1-3.8v-0.4h1.7v0.3c0,1.5,0.8,2.3,2.5,2.3c1.3,0,2-0.7,2-1.6
			c0-0.9-0.7-1.3-2.1-1.6l-0.4-0.1c-2-0.4-3.3-1.2-3.3-3.1c0-1.8,1.6-2.9,3.5-2.9C722.7,345.6,724.3,346.8,724.3,348.9z"/>
		<path class="st5" d="M733.9,345.8v1.6h-3.2v8.8H729v-8.8h-3.2v-1.6H733.9z"/>
		<path class="st5" d="M741,352l2.2,4.1h-1.9l-2.1-4h-1.9v4h-1.7v-10.4h4.4c1.9,0,3.3,1.3,3.3,3.2C743.4,350.6,742.5,351.7,741,352z
			 M737.4,350.6h2.5c1.1,0,1.7-0.6,1.7-1.6c0-1-0.6-1.6-1.7-1.6h-2.5V350.6z"/>
		<path class="st5" d="M750.3,345.8l3,10.4h-1.8l-0.7-2.4H747l-0.7,2.4h-1.8l3.1-10.4H750.3z M750.5,352.2l-1.4-4.9h-0.2l-1.4,4.9
			H750.5z"/>
		<path class="st5" d="M761.6,345.8v1.6h-3.2v8.8h-1.7v-8.8h-3.2v-1.6H761.6z"/>
		<path class="st5" d="M766.9,345.6c2.6,0,4.1,1.6,4.1,4.3v2.2c0,2.7-1.6,4.3-4.1,4.3c-2.6,0-4.1-1.6-4.1-4.3v-2.2
			C762.8,347.2,764.4,345.6,766.9,345.6z M764.5,352.2c0,1.7,0.8,2.6,2.4,2.6c1.7,0,2.4-1,2.4-2.6v-2.4c0-1.7-0.8-2.6-2.4-2.6
			c-1.6,0-2.4,1-2.4,2.6V352.2z"/>
		<path class="st5" d="M778.6,352l2.2,4.1h-1.9l-2.1-4h-1.9v4h-1.7v-10.4h4.4c1.9,0,3.3,1.3,3.3,3.2
			C780.9,350.6,780,351.7,778.6,352z M774.9,350.6h2.5c1.1,0,1.7-0.6,1.7-1.6c0-1-0.6-1.6-1.7-1.6h-2.5V350.6z"/>
	</g>
	<g>
		<path class="st9" d="M687.3,345.8v10.4h-1.7v-10.4H687.3z"/>
		<path class="st9" d="M691.5,345.8v8.8h4.9v1.6h-6.7v-10.4H691.5z"/>
		<path class="st9" d="M700,345.8v8.8h4.9v1.6h-6.7v-10.4H700z"/>
		<path class="st9" d="M708.4,345.8v6.8c0,1.4,0.8,2.2,2.2,2.2c1.5,0,2.2-0.8,2.2-2.2v-6.8h1.7v6.8c0,2.4-1.4,3.8-4,3.8
			c-2.5,0-4-1.4-4-3.8v-6.8H708.4z"/>
		<path class="st9" d="M724.3,348.9v0.5h-1.7V349c0-1.3-0.8-1.9-2.1-1.9c-1.1,0-1.8,0.6-1.8,1.4c0,1,0.8,1.2,2.1,1.5l0.4,0.1
			c2,0.4,3.2,1.2,3.2,3.1c0,2-1.6,3.2-3.8,3.2c-2.5,0-4.1-1.4-4.1-3.8v-0.4h1.7v0.3c0,1.5,0.8,2.3,2.5,2.3c1.3,0,2-0.7,2-1.6
			c0-0.9-0.7-1.3-2.1-1.6l-0.4-0.1c-2-0.4-3.3-1.2-3.3-3.1c0-1.8,1.6-2.9,3.5-2.9C722.7,345.6,724.3,346.8,724.3,348.9z"/>
		<path class="st9" d="M733.9,345.8v1.6h-3.2v8.8H729v-8.8h-3.2v-1.6H733.9z"/>
		<path class="st9" d="M741,352l2.2,4.1h-1.9l-2.1-4h-1.9v4h-1.7v-10.4h4.4c1.9,0,3.3,1.3,3.3,3.2C743.4,350.6,742.5,351.7,741,352z
			 M737.4,350.6h2.5c1.1,0,1.7-0.6,1.7-1.6c0-1-0.6-1.6-1.7-1.6h-2.5V350.6z"/>
		<path class="st9" d="M750.3,345.8l3,10.4h-1.8l-0.7-2.4H747l-0.7,2.4h-1.8l3.1-10.4H750.3z M750.5,352.2l-1.4-4.9h-0.2l-1.4,4.9
			H750.5z"/>
		<path class="st9" d="M761.6,345.8v1.6h-3.2v8.8h-1.7v-8.8h-3.2v-1.6H761.6z"/>
		<path class="st9" d="M766.9,345.6c2.6,0,4.1,1.6,4.1,4.3v2.2c0,2.7-1.6,4.3-4.1,4.3c-2.6,0-4.1-1.6-4.1-4.3v-2.2
			C762.8,347.2,764.4,345.6,766.9,345.6z M764.5,352.2c0,1.7,0.8,2.6,2.4,2.6c1.7,0,2.4-1,2.4-2.6v-2.4c0-1.7-0.8-2.6-2.4-2.6
			c-1.6,0-2.4,1-2.4,2.6V352.2z"/>
		<path class="st9" d="M778.6,352l2.2,4.1h-1.9l-2.1-4h-1.9v4h-1.7v-10.4h4.4c1.9,0,3.3,1.3,3.3,3.2
			C780.9,350.6,780,351.7,778.6,352z M774.9,350.6h2.5c1.1,0,1.7-0.6,1.7-1.6c0-1-0.6-1.6-1.7-1.6h-2.5V350.6z"/>
	</g>
</g>
<g>
	<rect x="11.7" y="252.4" class="st1" width="134.6" height="22.2"/>
	<g>
		<path class="st2" d="M23.3,259.4c2.3,0,3.6,1.2,3.6,3.5v1.8c0,2.3-1.3,3.5-3.6,3.5h-2.9v-8.9h2.9V259.4z M21.8,267h1.4
			c1.5,0,2.1-0.7,2.1-2.2v-1.9c0-1.5-0.6-2.2-2.1-2.2h-1.4V267z"/>
		<path class="st2" d="M32.8,259.4l2.7,8.9h-1.6l-0.6-2h-3.4l-0.6,2h-1.6l2.7-8.9H32.8z M32.9,264.9l-1.3-4.2h-0.1l-1.3,4.2H32.9z"
			/>
		<path class="st2" d="M42.5,259.4v1.4h-2.8v7.5h-1.5v-7.5h-2.8v-1.4H42.5z"/>
		<path class="st2" d="M47.6,259.4l2.7,8.9h-1.6l-0.6-2h-3.4l-0.6,2h-1.6l2.7-8.9H47.6z M47.7,264.9l-1.3-4.2h-0.1l-1.3,4.2H47.7z"
			/>
		<path class="st2" d="M61.5,259.4v1.4h-4.3v2.4h4v1.4h-3.9v2.4h4.3v1.4h-5.8v-8.9h5.7V259.4z"/>
		<path class="st2" d="M64.4,259.4l2,3.4h0.2l1.9-3.4h1.7l-2.5,4.3v0.2l2.5,4.5h-1.7l-2-3.4h-0.2l-2,3.4h-1.7l2.7-4.5v-0.2l-2.5-4.3
			H64.4z"/>
		<path class="st2" d="M75.3,259.4c1.7,0,2.8,1.1,2.8,2.8c0,1.7-1.2,2.8-2.8,2.8h-2.1v3.4h-1.4v-8.9H75.3L75.3,259.4z M73.3,263.6
			h1.9c1,0,1.5-0.5,1.5-1.4s-0.5-1.4-1.5-1.4h-1.9V263.6z"/>
		<path class="st2" d="M81.2,259.4v7.5h4.2v1.4h-5.7v-8.9H81.2L81.2,259.4z"/>
		<path class="st2" d="M90.3,259.2c2.2,0,3.6,1.4,3.6,3.7v1.9c0,2.3-1.4,3.7-3.6,3.7s-3.6-1.4-3.6-3.7v-1.9
			C86.7,260.6,88,259.2,90.3,259.2z M88.2,264.8c0,1.4,0.6,2.2,2.1,2.2c1.5,0,2.1-0.8,2.1-2.2v-2c0-1.4-0.7-2.2-2.1-2.2
			s-2.1,0.8-2.1,2.2V264.8z"/>
		<path class="st2" d="M100.2,264.7l1.9,3.6h-1.7l-1.8-3.5h-1.6v3.5h-1.5v-8.9h3.8c1.7,0,2.8,1.1,2.8,2.8
			C102.3,263.5,101.4,264.4,100.2,264.7z M97.1,263.5h2.2c1,0,1.5-0.5,1.5-1.4s-0.5-1.4-1.5-1.4h-2.2V263.5z"/>
		<path class="st2" d="M108.2,259.4l2.7,8.9h-1.6l-0.6-2h-3.4l-0.6,2H103l2.7-8.9H108.2z M108.3,264.9l-1.3-4.2h-0.1l-1.3,4.2H108.3
			z"/>
		<path class="st2" d="M117.9,259.4v1.4h-2.8v7.5h-1.5v-7.5h-2.8v-1.4H117.9z"/>
		<path class="st2" d="M120.9,259.4v8.9h-1.5v-8.9H120.9z"/>
		<path class="st2" d="M126.3,259.2c2.2,0,3.6,1.4,3.6,3.7v1.9c0,2.3-1.4,3.7-3.6,3.7c-2.2,0-3.6-1.4-3.6-3.7v-1.9
			C122.7,260.6,124.1,259.2,126.3,259.2z M124.2,264.8c0,1.4,0.6,2.2,2.1,2.2s2.1-0.8,2.1-2.2v-2c0-1.4-0.7-2.2-2.1-2.2
			s-2.1,0.8-2.1,2.2V264.8z"/>
		<path class="st2" d="M134.4,259.4l2.4,7.5h0.1v-7.5h1.5v8.9h-2.7l-2.4-7.5h-0.1v7.5h-1.5v-8.9H134.4z"/>
	</g>
</g>
<g>
	<path class="st1" d="M264.7,263.9c1.9,0,3.2,1.2,3.5,2.8l-1.1,0.2c-0.1-1.1-1-2-2.3-2c-1.5,0-2.6,1.1-2.6,2.8
		c0,1.6,1.1,2.8,2.6,2.8c1.5,0,2.1-0.9,2.3-2l1.1,0.2c-0.3,1.4-1.4,2.8-3.5,2.8c-2.2,0-3.8-1.6-3.8-3.8
		C260.9,265.5,262.5,263.9,264.7,263.9z"/>
	<path class="st1" d="M271.6,271.3h-1.1v-10.4h1.1V271.3z"/>
	<path class="st1" d="M279.9,271.3V270h-0.2c-0.4,0.7-1.1,1.4-2.5,1.4c-1.5,0-2.9-1-2.9-3v-4.4h1.1v4.3c0,1.4,0.8,2.1,2,2.1
		c1.4,0,2.4-0.9,2.4-2.6v-3.7h1.1v7.2H279.9z"/>
	<path class="st1" d="M286.4,263.9c1.5,0,2.5,0.6,3.6,1.9l-0.9,0.6c-0.8-1.1-1.7-1.5-2.7-1.5c-0.9,0-1.6,0.4-1.6,1.1
		c0,0.8,0.8,0.9,1.7,1.1l0.7,0.1c1.7,0.3,2.9,0.7,2.9,2.1s-1.3,2.3-3.2,2.3c-2,0-3.2-1.2-3.8-2.4l1-0.5c0.5,1.2,1.5,1.9,2.8,1.9
		c1.2,0,2-0.5,2-1.3c0-0.8-0.9-0.9-1.9-1.1l-0.7-0.1c-1.6-0.2-2.7-0.7-2.7-2.1C283.7,264.6,284.9,263.9,286.4,263.9z"/>
	<path class="st1" d="M293.6,264.1v-2.6h1.1v2.6h2.3v1h-2.3v4.8c0,0.3,0.1,0.4,0.4,0.4h1.5v1h-1.9c-0.7,0-1.1-0.4-1.1-1.1v-5.1h-2.2
		v-1H293.6z"/>
	<path class="st1" d="M302.3,263.8c2.1,0,3.5,1.5,3.5,3.6v0.6h-5.9c0.1,1.5,1.1,2.4,2.6,2.4c1.2,0,1.8-0.6,2.2-1.4l1,0.5
		c-0.5,0.9-1.4,1.9-3.2,1.9c-2.3,0-3.8-1.7-3.8-3.9C298.7,265.5,300.2,263.8,302.3,263.8z M304.6,267.1c0-1.4-0.9-2.3-2.3-2.3
		c-1.4,0-2.3,0.8-2.4,2.3H304.6z"/>
	<path class="st1" d="M309.1,265.1h0.2c0.3-0.7,0.8-1.1,1.9-1.1h0.9v1.1h-1.2c-1.1,0-1.7,0.6-1.7,1.8v4.4h-1.1v-7.2h1.1V265.1z"/>
	<path class="st6" d="M320.7,264.1v-2.6h1.1v2.6h2.3v1h-2.3v4.8c0,0.3,0.1,0.4,0.4,0.4h1.5v1h-1.9c-0.7,0-1.1-0.4-1.1-1.1v-5.1h-2.2
		v-1H320.7z"/>
	<path class="st6" d="M327.4,260.9v4.4h0.2c0.4-0.7,1.1-1.4,2.5-1.4c1.5,0,2.9,1,2.9,3v4.4h-1.1V267c0-1.4-0.8-2.1-2-2.1
		c-1.4,0-2.4,0.9-2.4,2.6v3.7h-1.1v-10.4H327.4z"/>
	<path class="st6" d="M338.9,263.8c2.1,0,3.5,1.5,3.5,3.6v0.6h-5.9c0.1,1.5,1.1,2.4,2.6,2.4c1.2,0,1.8-0.6,2.2-1.4l1,0.5
		c-0.5,0.9-1.4,1.9-3.2,1.9c-2.3,0-3.8-1.7-3.8-3.9C335.3,265.5,336.8,263.8,338.9,263.8z M341.2,267.1c0-1.4-0.9-2.3-2.3-2.3
		c-1.4,0-2.3,0.8-2.4,2.3H341.2z"/>
	<path class="st6" d="M345.7,264.1v1h0.2c0.4-0.7,1.1-1.1,2-1.1c1.1,0,1.7,0.5,2.1,1.3h0.2c0.4-0.7,1.1-1.3,2.2-1.3
		c1.4,0,2.5,0.9,2.5,2.4v5h-1.1v-4.9c0-0.9-0.7-1.5-1.6-1.5c-1,0-1.8,0.7-1.8,1.9v4.5h-1.1v-4.9c0-0.9-0.6-1.5-1.6-1.5
		c-1,0-1.8,0.7-1.8,1.9v4.5h-1.1v-7.2H345.7z"/>
	<path class="st6" d="M364,260.9v4.4h0.2c0.4-0.7,1.1-1.5,2.6-1.5c1.9,0,3.4,1.6,3.4,3.8s-1.5,3.8-3.4,3.8c-1.5,0-2.2-0.7-2.6-1.4
		H364v1.2h-1.1v-10.4H364z M364,267.7c0,1.7,1,2.8,2.6,2.8c1.5,0,2.6-1,2.6-2.8c0-1.8-1-2.8-2.6-2.8C365,264.9,364,266,364,267.7z"
		/>
	<path class="st6" d="M379.2,264.1l-4.4,10.2h-1.2l1.3-2.9l-3.1-7.3h1.2l2.4,5.8h0.2l2.4-5.8H379.2z"/>
	<path class="st6" d="M389.7,263.9c2.2,0,3.7,1.6,3.7,3.8c0,2.2-1.5,3.8-3.7,3.8c-2.2,0-3.7-1.6-3.7-3.8
		C386,265.4,387.6,263.9,389.7,263.9z M389.7,270.5c1.5,0,2.6-1.1,2.6-2.8s-1-2.8-2.6-2.8c-1.5,0-2.6,1.1-2.6,2.8
		C387.2,269.4,388.2,270.5,389.7,270.5z"/>
	<path class="st6" d="M396.8,265.1h0.2c0.3-0.7,0.8-1.1,1.9-1.1h0.9v1.1h-1.2c-1.1,0-1.7,0.6-1.7,1.8v4.4h-1.1v-7.2h1.1V265.1z"/>
	<path class="st6" d="M402.4,260.8c0.5,0,1,0.4,1,1c0,0.5-0.4,1-1,1c-0.5,0-1-0.4-1-1C401.4,261.3,401.8,260.8,402.4,260.8z
		 M403,271.3h-1.1v-7.2h1.1V271.3z"/>
	<path class="st6" d="M408.9,263.8c2.1,0,3.5,1.5,3.5,3.6v0.6h-5.9c0.1,1.5,1.1,2.4,2.6,2.4c1.2,0,1.8-0.6,2.2-1.4l1,0.5
		c-0.5,0.9-1.4,1.9-3.2,1.9c-2.3,0-3.8-1.7-3.8-3.9C405.3,265.5,406.8,263.8,408.9,263.8z M411.2,267.1c0-1.4-0.9-2.3-2.3-2.3
		c-1.4,0-2.3,0.8-2.4,2.3H411.2z"/>
	<path class="st6" d="M415.8,264.1v1.3h0.2c0.4-0.7,1.1-1.4,2.5-1.4c1.5,0,2.9,1,2.9,3v4.4h-1.1V267c0-1.4-0.8-2.1-2-2.1
		c-1.4,0-2.4,0.9-2.4,2.6v3.7h-1.1v-7.2H415.8z"/>
	<path class="st6" d="M425.3,264.1v-2.6h1.1v2.6h2.3v1h-2.3v4.8c0,0.3,0.1,0.4,0.4,0.4h1.5v1h-1.9c-0.7,0-1.1-0.4-1.1-1.1v-5.1h-2.2
		v-1H425.3z"/>
	<path class="st6" d="M434.1,263.9c2,0,3.1,1.1,3.1,2.9v4.6h-1.1v-1.2H436c-0.4,0.7-1.2,1.4-2.7,1.4c-1.6,0-2.7-0.8-2.7-2.1
		c0-1.3,1.1-2,2.8-2.2l2.9-0.3v-0.3c0-1.1-0.7-1.8-2-1.8s-2.1,0.7-2.5,1.6l-1-0.5C431.2,264.9,432.3,263.9,434.1,263.9z
		 M433.4,270.6c1.8,0,2.8-1,2.8-2.5v-0.1l-2.7,0.3c-1,0.1-1.8,0.4-1.8,1.2C431.7,270.1,432.4,270.6,433.4,270.6z"/>
	<path class="st6" d="M441.1,264.1v1.3h0.2c0.4-0.7,1.1-1.4,2.5-1.4c1.5,0,2.9,1,2.9,3v4.4h-1.1V267c0-1.4-0.8-2.1-2-2.1
		c-1.4,0-2.4,0.9-2.4,2.6v3.7H440v-7.2H441.1z"/>
	<path class="st6" d="M450.6,264.1v-2.6h1.1v2.6h2.3v1h-2.3v4.8c0,0.3,0.1,0.4,0.4,0.4h1.5v1h-1.9c-0.7,0-1.1-0.4-1.1-1.1v-5.1h-2.2
		v-1H450.6z"/>
	<path class="st6" d="M456.8,260.8c0.5,0,1,0.4,1,1c0,0.5-0.4,1-1,1s-1-0.4-1-1C455.8,261.3,456.2,260.8,456.8,260.8z M457.3,271.3
		h-1.1v-7.2h1.1V271.3z"/>
	<path class="st6" d="M463.4,263.9c2.2,0,3.7,1.6,3.7,3.8c0,2.2-1.5,3.8-3.7,3.8c-2.2,0-3.7-1.6-3.7-3.8
		C459.7,265.4,461.2,263.9,463.4,263.9z M463.4,270.5c1.5,0,2.6-1.1,2.6-2.8s-1-2.8-2.6-2.8c-1.5,0-2.6,1.1-2.6,2.8
		C460.8,269.4,461.8,270.5,463.4,270.5z"/>
	<path class="st6" d="M470.5,264.1v1.3h0.2c0.4-0.7,1.1-1.4,2.5-1.4c1.5,0,2.9,1,2.9,3v4.4H475V267c0-1.4-0.8-2.1-2-2.1
		c-1.4,0-2.4,0.9-2.4,2.6v3.7h-1.1v-7.2H470.5z"/>
	<path class="st6" d="M479.5,263.7c0.6,0,1,0.4,1,1s-0.4,1-1,1c-0.6,0-1-0.4-1-1S479,263.7,479.5,263.7z M479.5,269.5
		c0.6,0,1,0.4,1,1s-0.4,1-1,1c-0.6,0-1-0.4-1-1S479,269.5,479.5,269.5z"/>
	<path class="st6" d="M263.3,280v-2c0-0.7,0.4-1.2,1.1-1.2h1.9v1h-1.5c-0.3,0-0.4,0.1-0.4,0.4v1.7h2.2v1h-2.2v6.2h-1.1V281h-2.2v-1
		H263.3z"/>
	<path class="st6" d="M271.8,279.7c2.1,0,3.5,1.5,3.5,3.6v0.6h-5.9c0.1,1.5,1.1,2.4,2.6,2.4c1.2,0,1.8-0.6,2.2-1.4l1,0.5
		c-0.5,0.9-1.4,1.9-3.2,1.9c-2.3,0-3.8-1.7-3.8-3.9C268.2,281.4,269.7,279.7,271.8,279.7z M274.1,283c0-1.4-0.9-2.3-2.3-2.3
		c-1.4,0-2.3,0.8-2.4,2.3H274.1z"/>
	<path class="st6" d="M278.7,280v1h0.2c0.4-0.7,1.1-1.1,2-1.1c1.1,0,1.7,0.5,2.1,1.3h0.2c0.4-0.7,1.1-1.3,2.2-1.3
		c1.4,0,2.5,0.9,2.5,2.4v5h-1.1v-4.9c0-0.9-0.7-1.5-1.6-1.5c-1,0-1.8,0.7-1.8,1.9v4.5h-1.1v-4.9c0-0.9-0.6-1.5-1.6-1.5
		c-1,0-1.8,0.7-1.8,1.9v4.5h-1.1V280H278.7z"/>
	<path class="st6" d="M291.1,276.7c0.5,0,1,0.4,1,1c0,0.5-0.4,1-1,1c-0.5,0-1-0.4-1-1C290.2,277.2,290.6,276.7,291.1,276.7z
		 M291.7,287.2h-1.1V280h1.1V287.2z"/>
	<path class="st6" d="M295.6,280v1.3h0.2c0.4-0.7,1.1-1.4,2.5-1.4c1.5,0,2.9,1,2.9,3v4.4h-1.1v-4.3c0-1.4-0.8-2.1-2-2.1
		c-1.4,0-2.4,0.9-2.4,2.6v3.7h-1.1V280H295.6z"/>
	<path class="st6" d="M304.5,276.7c0.5,0,1,0.4,1,1c0,0.5-0.4,1-1,1c-0.5,0-1-0.4-1-1C303.5,277.2,304,276.7,304.5,276.7z
		 M305.1,287.2H304V280h1.1V287.2z"/>
	<path class="st6" d="M310.5,279.8c1.5,0,2.5,0.6,3.6,1.9l-0.9,0.6c-0.8-1.1-1.7-1.5-2.7-1.5c-0.9,0-1.6,0.4-1.6,1.1
		c0,0.8,0.8,0.9,1.7,1.1l0.7,0.1c1.7,0.3,2.9,0.7,2.9,2.1s-1.3,2.3-3.2,2.3c-2,0-3.2-1.2-3.8-2.4l1-0.5c0.5,1.2,1.5,1.9,2.8,1.9
		c1.2,0,2-0.5,2-1.3c0-0.8-0.9-0.9-1.9-1.1l-0.7-0.1c-1.6-0.2-2.7-0.7-2.7-2.1C307.8,280.5,309,279.8,310.5,279.8z"/>
	<path class="st6" d="M317.7,280v-2.6h1.1v2.6h2.3v1h-2.3v4.8c0,0.3,0.1,0.4,0.4,0.4h1.5v1h-1.9c-0.7,0-1.1-0.4-1.1-1.1V281h-2.2v-1
		H317.7z"/>
	<path class="st6" d="M328.2,276.8l-4.4,13.4h-1.2l4.4-13.4H328.2z"/>
	<path class="st6" d="M333.9,279.8c2,0,3.1,1.1,3.1,2.9v4.6H336V286h-0.2c-0.4,0.7-1.2,1.4-2.7,1.4c-1.6,0-2.7-0.8-2.7-2.1
		c0-1.3,1.1-2,2.8-2.2l2.9-0.3v-0.3c0-1.1-0.7-1.8-2-1.8s-2.1,0.7-2.5,1.6l-1-0.5C331,280.8,332.1,279.8,333.9,279.8z M333.2,286.5
		c1.8,0,2.8-1,2.8-2.5v-0.1l-2.7,0.3c-1,0.1-1.8,0.4-1.8,1.2C331.5,286,332.2,286.5,333.2,286.5z"/>
	<path class="st6" d="M340.9,280v1.3h0.2c0.4-0.7,1.1-1.4,2.5-1.4c1.5,0,2.9,1,2.9,3v4.4h-1.1v-4.3c0-1.4-0.8-2.1-2-2.1
		c-1.4,0-2.4,0.9-2.4,2.6v3.7h-1.1V280H340.9z"/>
	<path class="st6" d="M350.4,280v-2.6h1.1v2.6h2.3v1h-2.3v4.8c0,0.3,0.1,0.4,0.4,0.4h1.5v1h-1.9c-0.7,0-1.1-0.4-1.1-1.1V281h-2.2v-1
		H350.4z"/>
	<path class="st6" d="M356.6,276.7c0.5,0,1,0.4,1,1c0,0.5-0.4,1-1,1c-0.5,0-1-0.4-1-1C355.6,277.2,356,276.7,356.6,276.7z
		 M357.1,287.2H356V280h1.1V287.2z"/>
	<path class="st6" d="M361.3,280v-2c0-0.7,0.4-1.2,1.1-1.2h1.9v1h-1.5c-0.3,0-0.4,0.1-0.4,0.4v1.7h2.2v1h-2.2v6.2h-1.1V281h-2.2v-1
		H361.3z"/>
	<path class="st6" d="M369.8,279.7c2.1,0,3.5,1.5,3.5,3.6v0.6h-5.9c0.1,1.5,1.1,2.4,2.6,2.4c1.2,0,1.8-0.6,2.2-1.4l1,0.5
		c-0.5,0.9-1.4,1.9-3.2,1.9c-2.3,0-3.8-1.7-3.8-3.9C366.2,281.4,367.7,279.7,369.8,279.7z M372.1,283c0-1.4-0.9-2.3-2.3-2.3
		c-1.4,0-2.3,0.8-2.4,2.3H372.1z"/>
	<path class="st6" d="M376.6,280v1h0.2c0.4-0.7,1.1-1.1,2-1.1c1.1,0,1.7,0.5,2.1,1.3h0.2c0.4-0.7,1.1-1.3,2.2-1.3
		c1.4,0,2.5,0.9,2.5,2.4v5h-1.1v-4.9c0-0.9-0.7-1.5-1.6-1.5c-1,0-1.8,0.7-1.8,1.9v4.5h-1.1v-4.9c0-0.9-0.6-1.5-1.6-1.5
		c-1,0-1.8,0.7-1.8,1.9v4.5h-1.1V280H376.6z"/>
	<path class="st6" d="M389.1,276.7c0.5,0,1,0.4,1,1c0,0.5-0.4,1-1,1c-0.5,0-1-0.4-1-1C388.1,277.2,388.6,276.7,389.1,276.7z
		 M389.7,287.2h-1.1V280h1.1V287.2z"/>
	<path class="st6" d="M393.6,280v1.3h0.2c0.4-0.7,1.1-1.4,2.5-1.4c1.5,0,2.9,1,2.9,3v4.4h-1.1v-4.3c0-1.4-0.8-2.1-2-2.1
		c-1.4,0-2.4,0.9-2.4,2.6v3.7h-1.1V280H393.6z"/>
	<path class="st6" d="M402.5,276.7c0.5,0,1,0.4,1,1c0,0.5-0.4,1-1,1c-0.5,0-1-0.4-1-1C401.5,277.2,402,276.7,402.5,276.7z
		 M403.1,287.2h-1.1V280h1.1V287.2z"/>
	<path class="st6" d="M408.5,279.8c1.5,0,2.5,0.6,3.6,1.9l-0.9,0.6c-0.8-1.1-1.7-1.5-2.7-1.5c-0.9,0-1.6,0.4-1.6,1.1
		c0,0.8,0.8,0.9,1.7,1.1l0.7,0.1c1.7,0.3,2.9,0.7,2.9,2.1s-1.3,2.3-3.2,2.3c-2,0-3.2-1.2-3.8-2.4l1-0.5c0.5,1.2,1.5,1.9,2.8,1.9
		c1.2,0,2-0.5,2-1.3c0-0.8-0.9-0.9-1.9-1.1l-0.7-0.1c-1.6-0.2-2.7-0.7-2.7-2.1C405.7,280.5,407,279.8,408.5,279.8z"/>
	<path class="st6" d="M415.7,280v-2.6h1.1v2.6h2.3v1h-2.3v4.8c0,0.3,0.1,0.4,0.4,0.4h1.5v1h-1.9c-0.7,0-1.1-0.4-1.1-1.1V281h-2.2v-1
		H415.7z"/>
	<path class="st6" d="M426.2,276.8l-4.4,13.4h-1.2l4.4-13.4H426.2z"/>
	<path class="st6" d="M429.8,280v1.3h0.2c0.4-0.7,1.1-1.4,2.5-1.4c1.5,0,2.9,1,2.9,3v4.4h-1.1v-4.3c0-1.4-0.8-2.1-2-2.1
		c-1.4,0-2.4,0.9-2.4,2.6v3.7h-1.1V280H429.8z"/>
	<path class="st6" d="M441.3,279.7c2.1,0,3.5,1.5,3.5,3.6v0.6h-5.9c0.1,1.5,1.1,2.4,2.6,2.4c1.2,0,1.8-0.6,2.2-1.4l1,0.5
		c-0.5,0.9-1.4,1.9-3.2,1.9c-2.3,0-3.8-1.7-3.8-3.9C437.6,281.4,439.2,279.7,441.3,279.7z M443.6,283c0-1.4-0.9-2.3-2.3-2.3
		c-1.4,0-2.3,0.8-2.4,2.3H443.6z"/>
	<path class="st6" d="M452.6,287.2v-1.3h-0.2c-0.4,0.7-1.1,1.4-2.5,1.4c-1.5,0-2.9-1-2.9-3V280h1.1v4.3c0,1.4,0.8,2.1,2,2.1
		c1.4,0,2.4-0.9,2.4-2.6V280h1.1v7.2H452.6z"/>
	<path class="st6" d="M457.8,280v-2.6h1.1v2.6h2.3v1h-2.3v4.8c0,0.3,0.1,0.4,0.4,0.4h1.5v1h-1.9c-0.7,0-1.1-0.4-1.1-1.1V281h-2.2v-1
		H457.8z"/>
	<path class="st6" d="M464.5,281h0.2c0.3-0.7,0.8-1.1,1.9-1.1h0.9v1.1h-1.2c-1.1,0-1.7,0.6-1.7,1.8v4.4h-1.1V280h1.1V281z"/>
	<path class="st6" d="M472.6,279.8c2,0,3.1,1.1,3.1,2.9v4.6h-1.1V286h-0.2c-0.4,0.7-1.2,1.4-2.7,1.4c-1.6,0-2.7-0.8-2.7-2.1
		c0-1.3,1.1-2,2.8-2.2l2.9-0.3v-0.3c0-1.1-0.7-1.8-2-1.8s-2.1,0.7-2.5,1.6l-1-0.5C469.7,280.8,470.8,279.8,472.6,279.8z
		 M471.9,286.5c1.8,0,2.8-1,2.8-2.5v-0.1l-2.7,0.3c-1,0.1-1.8,0.4-1.8,1.2C470.2,286,470.9,286.5,471.9,286.5z"/>
	<path class="st6" d="M479.6,287.2h-1.1v-10.4h1.1V287.2z"/>
</g>
<g>
	<path class="st6" d="M285.4,348.8h-1.1v-10.4h1.1V348.8z"/>
	<path class="st6" d="M288.7,338.3c0.5,0,1,0.4,1,1c0,0.5-0.4,1-1,1c-0.5,0-1-0.4-1-1C287.8,338.7,288.2,338.3,288.7,338.3z
		 M289.3,348.8h-1.1v-7.2h1.1V348.8z"/>
	<path class="st6" d="M295.7,344.4l3.3,4.4h-1.4l-2.7-3.7l-1.6,1.4v2.3h-1.1v-10.4h1.1v6.5h0.2l3.9-3.4h1.7L295.7,344.4z"/>
	<path class="st6" d="M303.6,341.3c2.1,0,3.5,1.5,3.5,3.6v0.6h-5.9c0.1,1.5,1.1,2.4,2.6,2.4c1.2,0,1.8-0.6,2.2-1.4l1,0.5
		c-0.5,0.9-1.4,1.9-3.2,1.9c-2.3,0-3.8-1.7-3.8-3.9C300,343,301.5,341.3,303.6,341.3z M305.9,344.6c0-1.4-0.9-2.3-2.3-2.3
		c-1.4,0-2.3,0.8-2.4,2.3H305.9z"/>
	<path class="st6" d="M309.9,347c0.6,0,1,0.4,1,1v1.5c0,0.7-0.5,1.1-1.1,1.1h-0.9v-0.7h0.8c0.3,0,0.4-0.1,0.4-0.4v-0.5
		c-0.1,0-0.1,0-0.3,0c-0.5,0-1-0.4-1-1C308.8,347.4,309.3,347,309.9,347z"/>
	<path class="st6" d="M325.5,348.8h-1.1v-1.2h-0.2c-0.4,0.7-1.1,1.5-2.6,1.5c-1.9,0-3.4-1.6-3.4-3.8s1.5-3.8,3.4-3.8
		c1.5,0,2.2,0.7,2.6,1.4h0.2v-4.4h1.1V348.8z M319.3,345.2c0,1.8,1.1,2.8,2.6,2.8c1.5,0,2.6-1.1,2.6-2.8c0-1.7-1-2.8-2.6-2.8
		C320.3,342.4,319.3,343.4,319.3,345.2z"/>
	<path class="st6" d="M328.9,338.3c0.5,0,1,0.4,1,1c0,0.5-0.4,1-1,1c-0.5,0-1-0.4-1-1C327.9,338.7,328.3,338.3,328.9,338.3z
		 M329.5,348.8h-1.1v-7.2h1.1V348.8z"/>
	<path class="st6" d="M334.9,341.3c1.5,0,2.5,0.6,3.6,1.9l-0.9,0.6c-0.8-1.1-1.7-1.5-2.7-1.5c-0.9,0-1.6,0.4-1.6,1.1
		c0,0.8,0.8,0.9,1.7,1.1l0.7,0.1c1.7,0.3,2.9,0.7,2.9,2.1c0,1.4-1.3,2.3-3.2,2.3c-2,0-3.2-1.2-3.8-2.4l1-0.5
		c0.5,1.2,1.5,1.9,2.8,1.9c1.2,0,2-0.5,2-1.3c0-0.8-0.9-0.9-1.9-1.1l-0.7-0.1c-1.6-0.2-2.7-0.7-2.7-2.1
		C332.1,342.1,333.4,341.3,334.9,341.3z"/>
	<path class="st6" d="M341.9,348.8h-1.1v-10.4h1.1V348.8z"/>
	<path class="st6" d="M345.3,338.3c0.5,0,1,0.4,1,1c0,0.5-0.4,1-1,1c-0.5,0-1-0.4-1-1C344.3,338.7,344.7,338.3,345.3,338.3z
		 M345.8,348.8h-1.1v-7.2h1.1V348.8z"/>
	<path class="st6" d="M352.2,344.4l3.3,4.4h-1.4l-2.7-3.7l-1.6,1.4v2.3h-1.1v-10.4h1.1v6.5h0.2l3.9-3.4h1.7L352.2,344.4z"/>
	<path class="st6" d="M360.1,341.3c2.1,0,3.5,1.5,3.5,3.6v0.6h-5.9c0.1,1.5,1.1,2.4,2.6,2.4c1.2,0,1.8-0.6,2.2-1.4l1,0.5
		c-0.5,0.9-1.4,1.9-3.2,1.9c-2.3,0-3.8-1.7-3.8-3.9C356.5,343,358,341.3,360.1,341.3z M362.4,344.6c0-1.4-0.9-2.3-2.3-2.3
		c-1.4,0-2.3,0.8-2.4,2.3H362.4z"/>
	<path class="st6" d="M366.4,347c0.6,0,1,0.4,1,1v1.5c0,0.7-0.5,1.1-1.1,1.1h-0.9v-0.7h0.8c0.3,0,0.4-0.1,0.4-0.4v-0.5
		c-0.1,0-0.1,0-0.3,0c-0.5,0-1-0.4-1-1C365.4,347.4,365.8,347,366.4,347z"/>
	<path class="st6" d="M378.3,341.3c2.2,0,3.7,1.6,3.7,3.8s-1.5,3.8-3.7,3.8c-2.2,0-3.7-1.6-3.7-3.8S376.2,341.3,378.3,341.3z
		 M378.3,348c1.5,0,2.6-1.1,2.6-2.8s-1-2.8-2.6-2.8c-1.5,0-2.6,1.1-2.6,2.8C375.8,346.9,376.8,348,378.3,348z"/>
	<path class="st6" d="M385.5,342.6h0.2c0.3-0.7,0.8-1.1,1.9-1.1h0.9v1.1h-1.2c-1.1,0-1.7,0.6-1.7,1.8v4.4h-1.1v-7.2h1.1V342.6z"/>
	<path class="st6" d="M391,338.3c0.5,0,1,0.4,1,1c0,0.5-0.4,1-1,1c-0.5,0-1-0.4-1-1C390,338.7,390.5,338.3,391,338.3z M391.6,348.8
		h-1.1v-7.2h1.1V348.8z"/>
	<path class="st6" d="M397.5,341.3c2.1,0,3.5,1.5,3.5,3.6v0.6h-5.9c0.1,1.5,1.1,2.4,2.6,2.4c1.2,0,1.8-0.6,2.2-1.4l1,0.5
		c-0.5,0.9-1.4,1.9-3.2,1.9c-2.3,0-3.8-1.7-3.8-3.9C393.9,343,395.4,341.3,397.5,341.3z M399.8,344.6c0-1.4-0.9-2.3-2.3-2.3
		c-1.4,0-2.3,0.8-2.4,2.3H399.8z"/>
	<path class="st6" d="M404.4,341.6v1.3h0.2c0.4-0.7,1.1-1.4,2.5-1.4c1.5,0,2.9,1,2.9,3v4.4h-1.1v-4.3c0-1.4-0.8-2.1-2-2.1
		c-1.4,0-2.4,0.9-2.4,2.6v3.7h-1.1v-7.2H404.4z"/>
	<path class="st6" d="M413.9,341.6v-2.6h1.1v2.6h2.3v1H415v4.8c0,0.3,0.1,0.4,0.4,0.4h1.5v1H415c-0.7,0-1.1-0.4-1.1-1.1v-5.1h-2.2
		v-1H413.9z"/>
	<path class="st6" d="M422.7,341.3c2,0,3.1,1.1,3.1,2.9v4.6h-1.1v-1.2h-0.2c-0.4,0.7-1.2,1.4-2.7,1.4c-1.6,0-2.7-0.8-2.7-2.1
		c0-1.3,1.1-2,2.8-2.2l2.9-0.3v-0.3c0-1.1-0.7-1.8-2-1.8s-2.1,0.7-2.5,1.6l-1-0.5C419.8,342.4,420.9,341.3,422.7,341.3z M422,348
		c1.8,0,2.8-1,2.8-2.5v-0.1l-2.7,0.3c-1,0.1-1.8,0.4-1.8,1.2C420.3,347.6,421,348,422,348z"/>
	<path class="st6" d="M429.8,341.6v-2.6h1.1v2.6h2.3v1h-2.3v4.8c0,0.3,0.1,0.4,0.4,0.4h1.5v1h-1.9c-0.7,0-1.1-0.4-1.1-1.1v-5.1h-2.2
		v-1H429.8z"/>
	<path class="st6" d="M436,338.3c0.5,0,1,0.4,1,1c0,0.5-0.4,1-1,1c-0.6,0-1-0.4-1-1C435,338.7,435.4,338.3,436,338.3z M436.5,348.8
		h-1.1v-7.2h1.1V348.8z"/>
	<path class="st6" d="M442.6,341.3c2.2,0,3.7,1.6,3.7,3.8s-1.5,3.8-3.7,3.8c-2.2,0-3.7-1.6-3.7-3.8S440.4,341.3,442.6,341.3z
		 M442.6,348c1.5,0,2.6-1.1,2.6-2.8s-1-2.8-2.6-2.8c-1.5,0-2.6,1.1-2.6,2.8C440,346.9,441,348,442.6,348z"/>
	<path class="st6" d="M449.7,341.6v1.3h0.2c0.4-0.7,1.1-1.4,2.5-1.4c1.5,0,2.9,1,2.9,3v4.4h-1.1v-4.3c0-1.4-0.8-2.1-2-2.1
		c-1.4,0-2.4,0.9-2.4,2.6v3.7h-1.1v-7.2H449.7z"/>
	<path class="st6" d="M283.9,357.2c2,0,3.1,1.1,3.1,2.9v4.6H286v-1.2h-0.2c-0.4,0.7-1.2,1.4-2.7,1.4c-1.6,0-2.7-0.8-2.7-2.1
		c0-1.3,1.1-2,2.8-2.2l2.9-0.3v-0.3c0-1.1-0.7-1.8-2-1.8s-2.1,0.7-2.5,1.6l-1-0.5C281,358.3,282.1,357.2,283.9,357.2z M283.2,363.9
		c1.8,0,2.8-1,2.8-2.5v-0.1l-2.7,0.3c-1,0.1-1.8,0.4-1.8,1.2C281.5,363.5,282.2,363.9,283.2,363.9z"/>
	<path class="st6" d="M290.9,357.5v1.3h0.2c0.4-0.7,1.1-1.4,2.5-1.4c1.5,0,2.9,1,2.9,3v4.4h-1.1v-4.3c0-1.4-0.8-2.1-2-2.1
		c-1.4,0-2.4,0.9-2.4,2.6v3.7h-1.1v-7.2H290.9z"/>
	<path class="st6" d="M306.2,364.7h-1.1v-1.2h-0.2c-0.4,0.7-1.1,1.5-2.6,1.5c-1.9,0-3.4-1.6-3.4-3.8s1.5-3.8,3.4-3.8
		c1.5,0,2.2,0.7,2.6,1.4h0.2v-4.4h1.1V364.7z M299.9,361.1c0,1.8,1.1,2.8,2.6,2.8c1.5,0,2.6-1.1,2.6-2.8c0-1.7-1-2.8-2.6-2.8
		C301,358.3,299.9,359.3,299.9,361.1z"/>
	<path class="st6" d="M314.7,357.5l2.3,6.1h0.2l2.3-6.1h1.2l-2.8,7.2h-1.6l-2.8-7.2H314.7z"/>
	<path class="st6" d="M323.3,354.2c0.5,0,1,0.4,1,1c0,0.5-0.4,1-1,1c-0.5,0-1-0.4-1-1C322.3,354.6,322.7,354.2,323.3,354.2z
		 M323.8,364.7h-1.1v-7.2h1.1V364.7z"/>
	<path class="st6" d="M329.8,357.2c2.1,0,3.5,1.5,3.5,3.6v0.6h-5.9c0.1,1.5,1.1,2.4,2.6,2.4c1.2,0,1.8-0.6,2.2-1.4l1,0.5
		c-0.5,0.9-1.4,1.9-3.2,1.9c-2.3,0-3.8-1.7-3.8-3.9C326.2,358.9,327.7,357.2,329.8,357.2z M332.1,360.5c0-1.4-0.9-2.3-2.3-2.3
		c-1.4,0-2.3,0.8-2.4,2.3H332.1z"/>
	<path class="st6" d="M336.2,357.5l1.3,6h0.2l1.6-6h1.7l1.6,6h0.2l1.3-6h1.2l-1.7,7.2h-1.7l-1.6-6H340l-1.6,6h-1.7l-1.7-7.2H336.2z"
		/>
	<path class="st6" d="M350,357.2c1.5,0,2.5,0.6,3.6,1.9l-0.9,0.6c-0.8-1.1-1.7-1.5-2.7-1.5c-0.9,0-1.6,0.4-1.6,1.1
		c0,0.8,0.8,0.9,1.7,1.1l0.7,0.1c1.7,0.3,2.9,0.7,2.9,2.1c0,1.4-1.3,2.3-3.2,2.3c-2,0-3.2-1.2-3.8-2.4l1-0.5
		c0.5,1.2,1.5,1.9,2.8,1.9c1.2,0,2-0.5,2-1.3c0-0.8-0.9-0.9-1.9-1.1l-0.7-0.1c-1.6-0.2-2.7-0.7-2.7-2.1
		C347.3,358,348.6,357.2,350,357.2z"/>
	<path class="st6" d="M364.4,357.2c2.2,0,3.7,1.6,3.7,3.8s-1.5,3.8-3.7,3.8c-2.2,0-3.7-1.6-3.7-3.8S362.2,357.2,364.4,357.2z
		 M364.4,363.9c1.5,0,2.6-1.1,2.6-2.8s-1-2.8-2.6-2.8c-1.5,0-2.6,1.1-2.6,2.8C361.8,362.8,362.8,363.9,364.4,363.9z"/>
	<path class="st6" d="M371.7,357.5v-2c0-0.7,0.4-1.2,1.1-1.2h1.9v1h-1.5c-0.3,0-0.4,0.1-0.4,0.4v1.7h2.2v1h-2.2v6.3h-1.1v-6.3h-2.2
		v-1H371.7z"/>
	<path class="st6" d="M383.6,357.5v-2.6h1.1v2.6h2.3v1h-2.3v4.8c0,0.3,0.1,0.4,0.4,0.4h1.5v1h-1.9c-0.7,0-1.1-0.4-1.1-1.1v-5.1h-2.2
		v-1H383.6z"/>
	<path class="st6" d="M390.3,354.3v4.4h0.2c0.4-0.7,1.1-1.4,2.5-1.4c1.5,0,2.9,1,2.9,3v4.4h-1.1v-4.3c0-1.4-0.8-2.1-2-2.1
		c-1.4,0-2.4,0.9-2.4,2.6v3.7h-1.1v-10.4H390.3z"/>
	<path class="st6" d="M401.8,357.2c2.1,0,3.5,1.5,3.5,3.6v0.6h-5.9c0.1,1.5,1.1,2.4,2.6,2.4c1.2,0,1.8-0.6,2.2-1.4l1,0.5
		c-0.5,0.9-1.4,1.9-3.2,1.9c-2.3,0-3.8-1.7-3.8-3.9C398.2,358.9,399.7,357.2,401.8,357.2z M404.1,360.5c0-1.4-0.9-2.3-2.3-2.3
		c-1.4,0-2.3,0.8-2.4,2.3H404.1z"/>
	<path class="st6" d="M413.3,357.5l2.3,6.1h0.2l2.3-6.1h1.2l-2.8,7.2h-1.6l-2.8-7.2H413.3z"/>
	<path class="st6" d="M421.9,354.2c0.5,0,1,0.4,1,1c0,0.5-0.4,1-1,1c-0.6,0-1-0.4-1-1C420.9,354.6,421.3,354.2,421.9,354.2z
		 M422.4,364.7h-1.1v-7.2h1.1V364.7z"/>
	<path class="st6" d="M432.2,364.7h-1.1v-1.2h-0.2c-0.4,0.7-1.1,1.5-2.6,1.5c-1.9,0-3.4-1.6-3.4-3.8s1.5-3.8,3.4-3.8
		c1.5,0,2.2,0.7,2.6,1.4h0.2v-4.4h1.1V364.7z M425.9,361.1c0,1.8,1.1,2.8,2.6,2.8c1.5,0,2.6-1.1,2.6-2.8c0-1.7-1-2.8-2.6-2.8
		C427,358.3,425.9,359.3,425.9,361.1z"/>
	<path class="st6" d="M438.1,357.2c2.1,0,3.5,1.5,3.5,3.6v0.6h-5.9c0.1,1.5,1.1,2.4,2.6,2.4c1.2,0,1.8-0.6,2.2-1.4l1,0.5
		c-0.5,0.9-1.4,1.9-3.2,1.9c-2.3,0-3.8-1.7-3.8-3.9C434.5,358.9,436,357.2,438.1,357.2z M440.4,360.5c0-1.4-0.9-2.3-2.3-2.3
		c-1.4,0-2.3,0.8-2.4,2.3H440.4z"/>
	<path class="st6" d="M447.1,357.2c2.2,0,3.7,1.6,3.7,3.8s-1.5,3.8-3.7,3.8c-2.2,0-3.7-1.6-3.7-3.8S445,357.2,447.1,357.2z
		 M447.1,363.9c1.5,0,2.6-1.1,2.6-2.8s-1-2.8-2.6-2.8c-1.5,0-2.6,1.1-2.6,2.8C444.6,362.8,445.6,363.9,447.1,363.9z"/>
	<path class="st6" d="M455.6,357.2c1.5,0,2.5,0.6,3.6,1.9l-0.9,0.6c-0.8-1.1-1.7-1.5-2.7-1.5c-0.9,0-1.6,0.4-1.6,1.1
		c0,0.8,0.8,0.9,1.7,1.1l0.7,0.1c1.7,0.3,2.9,0.7,2.9,2.1c0,1.4-1.3,2.3-3.2,2.3c-2,0-3.2-1.2-3.8-2.4l1-0.5
		c0.5,1.2,1.5,1.9,2.8,1.9c1.2,0,2-0.5,2-1.3c0-0.8-0.9-0.9-1.9-1.1l-0.7-0.1c-1.6-0.2-2.7-0.7-2.7-2.1
		C452.9,358,454.2,357.2,455.6,357.2z"/>
</g>
<g>
	<line class="st7" x1="370.8" y1="307.4" x2="370.8" y2="321.2"/>
	<g>
		<polygon class="st6" points="366.5,317.7 367.2,317 370.8,320.8 374.4,317 375.1,317.7 370.8,322.4 		"/>
	</g>
</g>
<polygon class="st10" points="101.3,83.3 105.6,83.3 105.6,83.3 101.3,83.3 "/>
<g>
	<g>
		<path class="st5" d="M688.6,258.2l2.4,8.6h0.2l2.4-8.6h3v10.4h-1.7V260h-0.2l-2.4,8.6h-2.6l-2.4-8.6h-0.2v8.6h-1.7v-10.4H688.6z"
			/>
		<path class="st5" d="M704.1,258.2l3.1,10.4h-1.8l-0.7-2.4h-3.9l-0.7,2.4h-1.8l3.1-10.4H704.1z M704.3,264.6l-1.4-4.9h-0.2
			l-1.4,4.9H704.3z"/>
		<path class="st5" d="M712,258.2l2.8,8.8h0.2v-8.8h1.7v10.4h-3.1l-2.8-8.8h-0.2v8.8h-1.7v-10.4H712z"/>
		<path class="st5" d="M720.9,258.2v6.8c0,1.4,0.8,2.2,2.3,2.2c1.5,0,2.3-0.8,2.3-2.2v-6.8h1.7v6.8c0,2.4-1.4,3.8-4,3.8
			c-2.5,0-4-1.4-4-3.8v-6.8H720.9z"/>
		<path class="st5" d="M734.5,258.2l3.1,10.4h-1.8l-0.7-2.4h-3.9l-0.7,2.4h-1.8l3.1-10.4H734.5z M734.6,264.6l-1.4-4.9H733l-1.4,4.9
			H734.6z"/>
		<path class="st5" d="M741,258.2v8.8h5v1.6h-6.7v-10.4H741z"/>
		<path class="st5" d="M690.5,276l3.1,10.4h-1.8l-0.7-2.4h-3.9l-0.7,2.4h-1.8l3.1-10.4H690.5z M690.7,282.4l-1.4-4.9h-0.2l-1.4,4.9
			H690.7z"/>
		<path class="st5" d="M698.4,276l2.8,8.8h0.2V276h1.7v10.4H700l-2.8-8.8H697v8.8h-1.7V276H698.4z"/>
		<path class="st5" d="M710.6,276l3.1,10.4h-1.8l-0.7-2.4h-3.9l-0.7,2.4h-1.8l3.1-10.4H710.6z M710.8,282.4l-1.4-4.9h-0.2l-1.4,4.9
			H710.8z"/>
		<path class="st5" d="M717.1,276v8.8h5v1.6h-6.7V276H717.1z"/>
		<path class="st5" d="M722.8,276l2.5,4.6h0.2l2.4-4.6h2l-3.7,6.7v3.7h-1.7v-3.7l-3.7-6.7H722.8z"/>
		<path class="st5" d="M738.2,279.1v0.5h-1.7v-0.3c0-1.3-0.8-1.9-2.1-1.9c-1.1,0-1.8,0.6-1.8,1.4c0,1,0.8,1.2,2.1,1.5l0.4,0.1
			c2,0.4,3.3,1.2,3.3,3.1c0,2-1.6,3.2-3.8,3.2c-2.5,0-4.2-1.4-4.2-3.8v-0.4h1.7v0.3c0,1.5,0.8,2.3,2.5,2.3c1.3,0,2-0.7,2-1.6
			c0-1-0.7-1.3-2.1-1.6l-0.4-0.1c-2-0.4-3.3-1.2-3.3-3.1c0-1.8,1.6-2.9,3.5-2.9C736.6,275.8,738.2,277,738.2,279.1z"/>
		<path class="st5" d="M742.2,276v10.4h-1.7V276H742.2z"/>
		<path class="st5" d="M752,279.1v0.5h-1.7v-0.3c0-1.3-0.8-1.9-2.1-1.9c-1.1,0-1.8,0.6-1.8,1.4c0,1,0.8,1.2,2.1,1.5l0.4,0.1
			c2,0.4,3.3,1.2,3.3,3.1c0,2-1.6,3.2-3.8,3.2c-2.5,0-4.2-1.4-4.2-3.8v-0.4h1.7v0.3c0,1.5,0.8,2.3,2.5,2.3c1.3,0,2-0.7,2-1.6
			c0-1-0.7-1.3-2.1-1.6l-0.4-0.1c-2-0.4-3.3-1.2-3.3-3.1c0-1.8,1.6-2.9,3.5-2.9C750.4,275.8,752,277,752,279.1z"/>
	</g>
	<g>
		<path class="st9" d="M688.6,258.2l2.4,8.6h0.2l2.4-8.6h3v10.4h-1.7V260h-0.2l-2.4,8.6h-2.6l-2.4-8.6h-0.2v8.6h-1.7v-10.4H688.6z"
			/>
		<path class="st9" d="M704.1,258.2l3.1,10.4h-1.8l-0.7-2.4h-3.9l-0.7,2.4h-1.8l3.1-10.4H704.1z M704.3,264.6l-1.4-4.9h-0.2
			l-1.4,4.9H704.3z"/>
		<path class="st9" d="M712,258.2l2.8,8.8h0.2v-8.8h1.7v10.4h-3.1l-2.8-8.8h-0.2v8.8h-1.7v-10.4H712z"/>
		<path class="st9" d="M720.9,258.2v6.8c0,1.4,0.8,2.2,2.3,2.2c1.5,0,2.3-0.8,2.3-2.2v-6.8h1.7v6.8c0,2.4-1.4,3.8-4,3.8
			c-2.5,0-4-1.4-4-3.8v-6.8H720.9z"/>
		<path class="st9" d="M734.5,258.2l3.1,10.4h-1.8l-0.7-2.4h-3.9l-0.7,2.4h-1.8l3.1-10.4H734.5z M734.6,264.6l-1.4-4.9H733l-1.4,4.9
			H734.6z"/>
		<path class="st9" d="M741,258.2v8.8h5v1.6h-6.7v-10.4H741z"/>
		<path class="st9" d="M690.5,276l3.1,10.4h-1.8l-0.7-2.4h-3.9l-0.7,2.4h-1.8l3.1-10.4H690.5z M690.7,282.4l-1.4-4.9h-0.2l-1.4,4.9
			H690.7z"/>
		<path class="st9" d="M698.4,276l2.8,8.8h0.2V276h1.7v10.4H700l-2.8-8.8H697v8.8h-1.7V276H698.4z"/>
		<path class="st9" d="M710.6,276l3.1,10.4h-1.8l-0.7-2.4h-3.9l-0.7,2.4h-1.8l3.1-10.4H710.6z M710.8,282.4l-1.4-4.9h-0.2l-1.4,4.9
			H710.8z"/>
		<path class="st9" d="M717.1,276v8.8h5v1.6h-6.7V276H717.1z"/>
		<path class="st9" d="M722.8,276l2.5,4.6h0.2l2.4-4.6h2l-3.7,6.7v3.7h-1.7v-3.7l-3.7-6.7H722.8z"/>
		<path class="st9" d="M738.2,279.1v0.5h-1.7v-0.3c0-1.3-0.8-1.9-2.1-1.9c-1.1,0-1.8,0.6-1.8,1.4c0,1,0.8,1.2,2.1,1.5l0.4,0.1
			c2,0.4,3.3,1.2,3.3,3.1c0,2-1.6,3.2-3.8,3.2c-2.5,0-4.2-1.4-4.2-3.8v-0.4h1.7v0.3c0,1.5,0.8,2.3,2.5,2.3c1.3,0,2-0.7,2-1.6
			c0-1-0.7-1.3-2.1-1.6l-0.4-0.1c-2-0.4-3.3-1.2-3.3-3.1c0-1.8,1.6-2.9,3.5-2.9C736.6,275.8,738.2,277,738.2,279.1z"/>
		<path class="st9" d="M742.2,276v10.4h-1.7V276H742.2z"/>
		<path class="st9" d="M752,279.1v0.5h-1.7v-0.3c0-1.3-0.8-1.9-2.1-1.9c-1.1,0-1.8,0.6-1.8,1.4c0,1,0.8,1.2,2.1,1.5l0.4,0.1
			c2,0.4,3.3,1.2,3.3,3.1c0,2-1.6,3.2-3.8,3.2c-2.5,0-4.2-1.4-4.2-3.8v-0.4h1.7v0.3c0,1.5,0.8,2.3,2.5,2.3c1.3,0,2-0.7,2-1.6
			c0-1-0.7-1.3-2.1-1.6l-0.4-0.1c-2-0.4-3.3-1.2-3.3-3.1c0-1.8,1.6-2.9,3.5-2.9C750.4,275.8,752,277,752,279.1z"/>
	</g>
</g>
<line class="st8" x1="671.4" y1="249.6" x2="671.4" y2="296.6"/>
<line class="st8" x1="671.4" y1="329" x2="671.4" y2="376"/>
<rect x="11.8" y="334.2" class="st1" width="107.4" height="22.2"/>
<g>
	<path class="st2" d="M20.3,340.7l2.1,7.5h0.1l2.1-7.5h1.6l-2.7,8.9h-2.3l-2.7-8.9H20.3z"/>
	<path class="st2" d="M29.2,340.7v8.9h-1.5v-8.9H29.2z"/>
	<path class="st2" d="M37.5,343.3v0.4h-1.5v-0.3c0-1.1-0.7-1.6-1.8-1.6c-1,0-1.6,0.5-1.6,1.2c0,0.8,0.6,1.1,1.8,1.3l0.3,0.1
		c1.7,0.4,2.8,1.1,2.8,2.7c0,1.7-1.4,2.8-3.2,2.8c-2.2,0-3.6-1.3-3.6-3.3v-0.3h1.5v0.3c0,1.3,0.7,2,2.1,2c1.2,0,1.7-0.6,1.7-1.4
		c0-0.8-0.6-1.2-1.8-1.4l-0.3-0.1c-1.7-0.4-2.9-1-2.9-2.7c0-1.6,1.4-2.5,3.1-2.5C36.2,340.4,37.5,341.5,37.5,343.3z"/>
	<path class="st2" d="M40.9,340.7v5.8c0,1.2,0.6,1.9,1.9,1.9c1.3,0,1.9-0.6,1.9-1.9v-5.8h1.5v5.8c0,2-1.3,3.3-3.4,3.3
		c-2.1,0-3.4-1.2-3.4-3.3v-5.8H40.9z"/>
	<path class="st2" d="M52.6,340.7l2.7,8.9h-1.6l-0.6-2h-3.4l-0.6,2h-1.6l2.7-8.9H52.6z M52.7,346.2l-1.3-4.2h-0.1l-1.3,4.2H52.7z"/>
	<path class="st2" d="M58.1,340.7v7.5h4.2v1.4h-5.7v-8.9H58.1z"/>
	<path class="st2" d="M65.4,340.7v8.9h-1.5v-8.9H65.4z"/>
	<path class="st2" d="M73.5,340.7v1.3l-4.6,6.3h4.6v1.4h-6.4v-1.3l4.6-6.3h-4.3v-1.4H73.5z"/>
	<path class="st2" d="M79.6,340.7l2.7,8.9h-1.6l-0.6-2h-3.4l-0.6,2h-1.6l2.7-8.9H79.6z M79.7,346.2l-1.3-4.2h-0.1l-1.3,4.2H79.7z"/>
	<path class="st2" d="M89.4,340.7v1.4h-2.8v7.5h-1.5V342h-2.8v-1.4H89.4z"/>
	<path class="st2" d="M92.4,340.7v8.9h-1.5v-8.9H92.4z"/>
	<path class="st2" d="M97.8,340.4c2.2,0,3.6,1.4,3.6,3.7v1.9c0,2.3-1.4,3.7-3.6,3.7s-3.6-1.4-3.6-3.7v-1.9
		C94.2,341.8,95.5,340.4,97.8,340.4z M95.6,346.2c0,1.4,0.6,2.2,2.1,2.2c1.5,0,2.1-0.8,2.1-2.2v-2c0-1.4-0.7-2.2-2.1-2.2
		s-2.1,0.8-2.1,2.2V346.2z"/>
	<path class="st2" d="M105.8,340.7l2.4,7.5h0.1v-7.5h1.5v8.9h-2.7l-2.4-7.5h-0.1v7.5h-1.5v-8.9H105.8z"/>
</g>
<rect x="256.3" y="332.5" class="st4" width="226.2" height="40.1"/>
</svg>
