<?xml version="1.0" encoding="utf-8"?>
<!-- Generator: Adobe Illustrator 22.1.0, SVG Export Plug-In . SVG Version: 6.00 Build 0)  -->
<svg version="1.1" id="Livello_1" xmlns="http://www.w3.org/2000/svg" xmlns:xlink="http://www.w3.org/1999/xlink" x="0px" y="0px"
	 viewBox="0 0 830.1 640.9" style="enable-background:new 0 0 830.1 640.9;" xml:space="preserve">
<style type="text/css">
	.st0{fill:#F6F6F6;}
	.st1{fill:#FF3603;}
	.st2{fill:#FFFFFF;}
	.st3{fill:#B2B2B2;}
	.st4{fill:#1D1D1B;}
	.st5{fill:none;stroke:#FF3603;stroke-miterlimit:10;}
	.st6{fill:none;stroke:#C6C6C6;stroke-miterlimit:10;}
	.st7{fill:#C6C6C6;}
	.st8{fill:none;stroke:#1D1D1B;stroke-miterlimit:10;}
</style>
<title>Tavola disegno 1</title>
<rect class="st0" width="659.1" height="225.2"/>
<rect y="558.8" class="st0" width="659.1" height="65.3"/>
<rect x="12.7" y="11.4" class="st1" width="125.9" height="22.1"/>
<g>
	<path class="st2" d="M23,17.8c2.3,0,3.6,1.2,3.6,3.5v1.8c0,2.3-1.3,3.5-3.6,3.5h-2.9v-8.9H23V17.8z M21.5,25.4H23
		c1.5,0,2.1-0.7,2.1-2.2v-1.9c0-1.5-0.6-2.2-2.1-2.2h-1.4v6.4H21.5z"/>
	<path class="st2" d="M32.5,17.8l2.6,8.9h-1.6l-0.6-2h-3.4l-0.6,2h-1.6l2.6-8.9H32.5z M32.6,23.4l-1.3-4.2h-0.1L30,23.4H32.6z"/>
	<path class="st2" d="M42.2,17.8v1.4h-2.8v7.5H38v-7.5h-2.8v-1.4H42.2z"/>
	<path class="st2" d="M47.2,17.8l2.6,8.9h-1.6l-0.6-2h-3.4l-0.6,2H42l2.6-8.9H47.2z M47.3,23.4l-1.3-4.2H46l-1.3,4.2H47.3z"/>
	<path class="st2" d="M58.7,17.6c2.2,0,3.4,1.3,3.4,3.2v0.3h-1.5v-0.2c0-1.2-0.6-1.9-1.9-1.9c-1.4,0-2.1,0.8-2.1,2.2v2.1
		c0,1.4,0.7,2.2,2.1,2.2c1.4,0,1.9-0.7,1.9-1.9v-0.2h1.6v0.2c0,2-1.2,3.3-3.4,3.3s-3.6-1.3-3.6-3.6v-2C55.1,19,56.4,17.6,58.7,17.6z
		"/>
	<path class="st2" d="M67.1,17.6c2.2,0,3.6,1.4,3.6,3.7v1.9c0,2.3-1.4,3.7-3.6,3.7c-2.2,0-3.6-1.4-3.6-3.7v-1.9
		C63.5,19,64.9,17.6,67.1,17.6z M65,23.4c0,1.4,0.6,2.2,2.1,2.2c1.5,0,2.1-0.8,2.1-2.2v-2c0-1.4-0.7-2.2-2.1-2.2
		c-1.4,0-2.1,0.8-2.1,2.2V23.4z"/>
	<path class="st2" d="M74,17.8v7.5h4.2v1.4h-5.7v-8.9H74z"/>
	<path class="st2" d="M81.2,17.8v7.5h4.2v1.4h-5.7v-8.9H81.2z"/>
	<path class="st2" d="M92.8,17.8v1.4h-4.3v2.4h3.9V23h-3.9v2.4h4.3v1.4h-5.8V18h5.8V17.8z"/>
	<path class="st2" d="M97.8,17.6c2.2,0,3.4,1.3,3.4,3.2v0.3h-1.5v-0.2c0-1.2-0.6-1.9-1.9-1.9c-1.4,0-2.1,0.8-2.1,2.2v2.1
		c0,1.4,0.7,2.2,2.1,2.2c1.4,0,1.9-0.7,1.9-1.9v-0.2h1.5v0.2c0,2-1.2,3.3-3.4,3.3c-2.2,0-3.6-1.3-3.6-3.6v-2
		C94.2,19,95.6,17.6,97.8,17.6z"/>
	<path class="st2" d="M109.3,17.8v1.4h-2.8v7.5H105v-7.5h-2.8v-1.4H109.3z"/>
	<path class="st2" d="M112.2,17.8v8.9h-1.5v-8.9H112.2z"/>
	<path class="st2" d="M117.6,17.6c2.2,0,3.6,1.4,3.6,3.7v1.9c0,2.3-1.4,3.7-3.6,3.7c-2.2,0-3.6-1.4-3.6-3.7v-1.9
		C114,19,115.4,17.6,117.6,17.6z M115.5,23.4c0,1.4,0.6,2.2,2.1,2.2c1.5,0,2.1-0.8,2.1-2.2v-2c0-1.4-0.7-2.2-2.1-2.2
		c-1.4,0-2.1,0.8-2.1,2.2L115.5,23.4z"/>
	<path class="st2" d="M125.7,17.8l2.4,7.5h0.1v-7.5h1.5v8.9h-2.6l-2.4-7.5h-0.1v7.5H123v-8.9H125.7z"/>
</g>
<g>
	<path class="st3" d="M219.6,28.3v-3h-0.1c-0.3,0.5-0.8,1-1.9,1c-1.4,0-2.4-1.1-2.4-2.7s1.1-2.7,2.4-2.7c1.1,0,1.6,0.5,1.9,1h0.1V21
		h0.8v7.3H219.6z M219.6,23.6c0-1.2-0.7-2-1.8-2c-1.1,0-1.8,0.8-1.8,2c0,1.3,0.8,2,1.8,2C218.8,25.6,219.6,24.8,219.6,23.6z"/>
	<path class="st3" d="M225.9,26.2v-0.9h-0.1c-0.3,0.5-0.8,1-1.8,1c-1.1,0-2-0.7-2-2.1V21h0.8v3.1c0,1,0.6,1.5,1.5,1.5
		c1,0,1.7-0.7,1.7-1.9V21h0.8v5.2H225.9z"/>
	<path class="st3" d="M230.5,20.8c1.5,0,2.5,1,2.5,2.6v0.4h-4.2c0.1,1.1,0.8,1.7,1.8,1.7c0.8,0,1.3-0.4,1.6-1l0.7,0.4
		c-0.4,0.7-1,1.4-2.3,1.4c-1.6,0-2.7-1.2-2.7-2.8C227.9,22,229,20.8,230.5,20.8z M232.1,23.2c0-1-0.7-1.6-1.7-1.6
		c-1,0-1.6,0.6-1.7,1.6H232.1z"/>
	<path class="st3" d="M235,21.8h0.1c0.2-0.5,0.6-0.8,1.3-0.8h0.6v0.8h-0.9c-0.8,0-1.2,0.4-1.2,1.3v3.1h-0.8V21h0.8V21.8z"/>
	<path class="st3" d="M243.2,21l-3.1,7.3h-0.9l0.9-2l-2.2-5.2h0.9l1.7,4.1h0.1l1.7-4.1H243.2z"/>
	<path class="st4" d="M177.4,34.6c1.5,0,2.5,0.6,3.6,1.9l-0.9,0.6c-0.8-1.1-1.7-1.5-2.7-1.5c-0.9,0-1.6,0.4-1.6,1.1
		c0,0.8,0.8,0.9,1.7,1.1l0.7,0.1c1.7,0.3,2.9,0.7,2.9,2.1c0,1.4-1.3,2.3-3.2,2.3c-2,0-3.2-1.2-3.8-2.4l1-0.5
		c0.5,1.2,1.5,1.9,2.8,1.9c1.2,0,2-0.5,2-1.3c0-0.8-0.9-0.9-1.9-1.1l-0.7-0.1c-1.6-0.2-2.7-0.7-2.7-2.1
		C174.7,35.4,176,34.6,177.4,34.6z"/>
	<path class="st4" d="M186.5,34.6c2.1,0,3.5,1.5,3.5,3.6v0.6H184c0.1,1.5,1.1,2.4,2.6,2.4c1.2,0,1.8-0.6,2.2-1.4l1,0.5
		c-0.5,0.9-1.4,1.9-3.2,1.9c-2.3,0-3.8-1.7-3.8-3.9C182.9,36.2,184.4,34.6,186.5,34.6z M188.8,37.9c0-1.4-0.9-2.3-2.3-2.3
		c-1.4,0-2.3,0.8-2.4,2.3H188.8z"/>
	<path class="st4" d="M192.8,34.8l2.2,2.8h0.2l2.1-2.8h1.4l-2.8,3.5l2.9,3.7h-1.4l-2.2-3H195l-2.3,3h-1.4l2.9-3.7l-2.8-3.5H192.8z"
		/>
	<path class="st4" d="M201.6,31.6c0.5,0,1,0.4,1,1s-0.4,1-1,1c-0.5,0-1-0.4-1-1S201,31.6,201.6,31.6z M202.1,42H201v-7.2h1.1V42z"/>
	<path class="st4" d="M207.5,34.6c1.5,0,2.5,0.6,3.6,1.9l-0.9,0.6c-0.8-1.1-1.7-1.5-2.7-1.5c-0.9,0-1.6,0.4-1.6,1.1
		c0,0.8,0.8,0.9,1.7,1.1l0.7,0.1c1.7,0.3,2.9,0.7,2.9,2.1c0,1.4-1.3,2.3-3.2,2.3c-2,0-3.2-1.2-3.8-2.4l1-0.5
		c0.5,1.2,1.5,1.9,2.8,1.9c1.2,0,2-0.5,2-1.3c0-0.8-0.9-0.9-1.9-1.1l-0.7-0.1c-1.6-0.2-2.7-0.7-2.7-2.1
		C204.8,35.4,206.1,34.6,207.5,34.6z"/>
	<path class="st4" d="M214.5,34.8v1h0.2c0.4-0.7,1.1-1.1,2-1.1c1.1,0,1.7,0.5,2.1,1.3h0.2c0.4-0.7,1.1-1.3,2.2-1.3
		c1.4,0,2.5,0.9,2.5,2.4v5h-1.1v-4.9c0-0.9-0.7-1.5-1.6-1.5c-1,0-1.8,0.7-1.8,1.9V42H218v-4.9c0-0.9-0.6-1.5-1.6-1.5
		c-1,0-1.8,0.7-1.8,1.9V42h-1.1v-7.2H214.5z"/>
	<path class="st4" d="M234.2,34.6c1.5,0,2.5,0.6,3.6,1.9l-0.9,0.6c-0.8-1.1-1.7-1.5-2.7-1.5c-0.9,0-1.6,0.4-1.6,1.1
		c0,0.8,0.8,0.9,1.7,1.1l0.7,0.1c1.7,0.3,2.9,0.7,2.9,2.1c0,1.4-1.3,2.3-3.2,2.3c-2,0-3.2-1.2-3.8-2.4l1-0.5
		c0.5,1.2,1.5,1.9,2.8,1.9c1.2,0,2-0.5,2-1.3c0-0.8-0.9-0.9-1.9-1.1l-0.7-0.1c-1.6-0.2-2.7-0.7-2.7-2.1
		C231.5,35.4,232.7,34.6,234.2,34.6z"/>
	<path class="st4" d="M240.1,34.8h1.1v1.2h0.2c0.4-0.7,1.1-1.5,2.6-1.5c1.9,0,3.4,1.6,3.4,3.8c0,2.3-1.5,3.8-3.4,3.8
		c-1.5,0-2.2-0.7-2.6-1.4h-0.2V45h-1.1V34.8z M246.3,38.4c0-1.8-1-2.8-2.6-2.8c-1.5,0-2.6,1.1-2.6,2.8c0,1.7,1,2.8,2.6,2.8
		C245.3,41.2,246.3,40.2,246.3,38.4z"/>
	<path class="st4" d="M253,34.6c2.1,0,3.5,1.5,3.5,3.6v0.6h-5.9c0.1,1.5,1.1,2.4,2.6,2.4c1.2,0,1.8-0.6,2.2-1.4l1,0.5
		c-0.5,0.9-1.4,1.9-3.2,1.9c-2.3,0-3.8-1.7-3.8-3.9C249.3,36.2,250.9,34.6,253,34.6z M255.3,37.9c0-1.4-0.9-2.3-2.3-2.3
		c-1.4,0-2.3,0.8-2.4,2.3H255.3z"/>
	<path class="st4" d="M261.9,34.6c2.1,0,3.5,1.5,3.5,3.6v0.6h-5.9c0.1,1.5,1.1,2.4,2.6,2.4c1.2,0,1.8-0.6,2.2-1.4l1,0.5
		c-0.5,0.9-1.4,1.9-3.2,1.9c-2.3,0-3.8-1.7-3.8-3.9C258.3,36.2,259.8,34.6,261.9,34.6z M264.2,37.9c0-1.4-0.9-2.3-2.3-2.3
		c-1.4,0-2.3,0.8-2.4,2.3H264.2z"/>
	<path class="st4" d="M270.9,34.6c1.9,0,3.2,1.2,3.5,2.8l-1.1,0.2c-0.1-1.1-1-2-2.3-2c-1.5,0-2.6,1.1-2.6,2.8c0,1.6,1.1,2.8,2.6,2.8
		c1.5,0,2.1-0.9,2.3-2l1.1,0.2c-0.3,1.4-1.4,2.8-3.5,2.8c-2.2,0-3.8-1.6-3.8-3.8C267.2,36.2,268.8,34.6,270.9,34.6z"/>
	<path class="st4" d="M277.8,31.7v4.4h0.2c0.4-0.7,1.1-1.4,2.5-1.4c1.5,0,2.9,1,2.9,3V42h-1.1v-4.3c0-1.4-0.8-2.1-2-2.1
		c-1.4,0-2.4,0.9-2.4,2.6V42h-1.1V31.7H277.8z"/>
</g>
<line class="st5" x1="319.9" y1="48.6" x2="472.1" y2="48.6"/>
<line class="st5" x1="510.1" y1="48.6" x2="612.3" y2="48.6"/>
<line class="st5" x1="179.8" y1="48.6" x2="278.3" y2="48.6"/>
<g>
	<path class="st3" d="M386.5,29v-3h-0.1c-0.3,0.5-0.8,1-1.9,1c-1.4,0-2.4-1.1-2.4-2.7s1.1-2.7,2.4-2.7c1.1,0,1.6,0.5,1.9,1h0.1v-0.9
		h0.8V29H386.5z M386.5,24.3c0-1.2-0.7-2-1.8-2c-1.1,0-1.8,0.8-1.8,2c0,1.3,0.8,2,1.8,2C385.7,26.3,386.5,25.5,386.5,24.3z"/>
	<path class="st3" d="M392.8,26.9V26h-0.1c-0.3,0.5-0.8,1-1.8,1c-1.1,0-2-0.7-2-2.1v-3.1h0.8v3.1c0,1,0.6,1.5,1.5,1.5
		c1,0,1.7-0.7,1.7-1.9v-2.7h0.8v5.2H392.8z"/>
	<path class="st3" d="M397.4,21.6c1.5,0,2.5,1,2.5,2.6v0.4h-4.2c0.1,1.1,0.8,1.7,1.8,1.7c0.8,0,1.3-0.4,1.6-1l0.7,0.4
		c-0.4,0.7-1,1.4-2.3,1.4c-1.6,0-2.7-1.2-2.7-2.8C394.8,22.8,395.9,21.6,397.4,21.6z M399.1,23.9c0-1-0.7-1.6-1.7-1.6
		c-1,0-1.6,0.6-1.7,1.6H399.1z"/>
	<path class="st3" d="M401.9,22.5h0.1c0.2-0.5,0.6-0.8,1.3-0.8h0.6v0.8h-0.9c-0.8,0-1.2,0.4-1.2,1.3v3.1h-0.8v-5.2h0.8V22.5z"/>
	<path class="st3" d="M410.2,21.7L407,29h-0.9l0.9-2l-2.2-5.2h0.9l1.7,4.1h0.1l1.7-4.1H410.2z"/>
	<path class="st4" d="M315.7,35.3c1.5,0,2.5,0.6,3.6,1.9l-0.9,0.6c-0.8-1.1-1.7-1.5-2.7-1.5c-0.9,0-1.6,0.4-1.6,1.1
		c0,0.8,0.8,0.9,1.7,1.1l0.7,0.1c1.7,0.3,2.9,0.7,2.9,2.1c0,1.4-1.3,2.3-3.2,2.3c-2,0-3.2-1.2-3.8-2.4l1-0.5
		c0.5,1.2,1.5,1.9,2.8,1.9c1.2,0,2-0.5,2-1.3c0-0.8-0.9-0.9-1.9-1.1l-0.7-0.1c-1.6-0.2-2.7-0.7-2.7-2.1
		C313,36.1,314.2,35.3,315.7,35.3z"/>
	<path class="st4" d="M324.7,35.3c2.1,0,3.5,1.5,3.5,3.6v0.6h-5.9c0.1,1.5,1.1,2.4,2.6,2.4c1.2,0,1.8-0.6,2.2-1.4l1,0.5
		c-0.5,0.9-1.4,1.9-3.2,1.9c-2.3,0-3.8-1.7-3.8-3.9C321.1,37,322.6,35.3,324.7,35.3z M327,38.6c0-1.4-0.9-2.3-2.3-2.3
		c-1.4,0-2.3,0.8-2.4,2.3H327z"/>
	<path class="st4" d="M331.1,35.5l2.2,2.8h0.2l2.1-2.8h1.4l-2.8,3.5l2.9,3.7h-1.4l-2.2-3h-0.2l-2.3,3h-1.4l2.9-3.7l-2.8-3.5H331.1z"
		/>
	<path class="st4" d="M344.7,42.8v-1.3h-0.2c-0.4,0.7-1.1,1.4-2.5,1.4c-1.5,0-2.8-1-2.8-3v-4.4h1.1v4.3c0,1.4,0.8,2.1,2,2.1
		c1.4,0,2.4-0.9,2.4-2.6v-3.7h1.1v7.2H344.7z"/>
	<path class="st4" d="M351.8,35.3c2,0,3.1,1.1,3.1,2.9v4.6h-1.1v-1.2h-0.2c-0.4,0.7-1.2,1.4-2.7,1.4c-1.6,0-2.7-0.8-2.7-2.1
		c0-1.3,1.1-2,2.8-2.2l2.9-0.3v-0.3c0-1.1-0.7-1.8-2-1.8s-2.1,0.7-2.5,1.6l-1-0.5C348.9,36.4,350,35.3,351.8,35.3z M351.1,42
		c1.8,0,2.8-1,2.8-2.5v-0.1l-2.7,0.3c-1,0.1-1.8,0.4-1.8,1.2C349.4,41.6,350.1,42,351.1,42z"/>
	<path class="st4" d="M358.8,42.8h-1.1V32.4h1.1V42.8z"/>
	<path class="st4" d="M370.1,35.3c2,0,3.1,1.1,3.1,2.9v4.6h-1.1v-1.2h-0.2c-0.4,0.7-1.2,1.4-2.7,1.4c-1.6,0-2.7-0.8-2.7-2.1
		c0-1.3,1.1-2,2.8-2.2l2.9-0.3v-0.3c0-1.1-0.7-1.8-2-1.8S368,37,367.6,38l-1-0.5C367.1,36.4,368.3,35.3,370.1,35.3z M369.3,42
		c1.8,0,2.8-1,2.8-2.5v-0.1l-2.7,0.3c-1,0.1-1.8,0.4-1.8,1.2C367.6,41.6,368.3,42,369.3,42z"/>
	<path class="st4" d="M378.5,35.3c1.5,0,2.5,0.6,3.6,1.9l-0.9,0.6c-0.8-1.1-1.7-1.5-2.7-1.5c-0.9,0-1.6,0.4-1.6,1.1
		c0,0.8,0.8,0.9,1.7,1.1l0.7,0.1c1.7,0.3,2.9,0.7,2.9,2.1c0,1.4-1.3,2.3-3.2,2.3c-2,0-3.2-1.2-3.8-2.4l1-0.5
		c0.5,1.2,1.5,1.9,2.8,1.9c1.2,0,2-0.5,2-1.3c0-0.8-0.9-0.9-1.9-1.1l-0.7-0.1c-1.6-0.2-2.7-0.7-2.7-2.1
		C375.8,36.1,377.1,35.3,378.5,35.3z"/>
	<path class="st4" d="M386.8,35.3c1.5,0,2.5,0.6,3.6,1.9l-0.9,0.6c-0.8-1.1-1.7-1.5-2.7-1.5c-0.9,0-1.6,0.4-1.6,1.1
		c0,0.8,0.8,0.9,1.7,1.1l0.7,0.1c1.7,0.3,2.9,0.7,2.9,2.1c0,1.4-1.3,2.3-3.2,2.3c-2,0-3.2-1.2-3.8-2.4l1-0.5
		c0.5,1.2,1.5,1.9,2.8,1.9c1.2,0,2-0.5,2-1.3c0-0.8-0.9-0.9-1.9-1.1l-0.7-0.1c-1.6-0.2-2.7-0.7-2.7-2.1
		C384.1,36.1,385.3,35.3,386.8,35.3z"/>
	<path class="st4" d="M395.9,35.3c2,0,3.1,1.1,3.1,2.9v4.6H398v-1.2h-0.2c-0.4,0.7-1.2,1.4-2.7,1.4c-1.6,0-2.7-0.8-2.7-2.1
		c0-1.3,1.1-2,2.8-2.2l2.9-0.3v-0.3c0-1.1-0.7-1.8-2-1.8s-2.1,0.7-2.5,1.6l-1-0.5C393,36.4,394.1,35.3,395.9,35.3z M395.2,42
		c1.8,0,2.8-1,2.8-2.5v-0.1l-2.7,0.3c-1,0.1-1.8,0.4-1.8,1.2C393.5,41.6,394.2,42,395.2,42z"/>
	<path class="st4" d="M407.2,42.8v-1.3H407c-0.4,0.7-1.1,1.4-2.5,1.4c-1.5,0-2.8-1-2.8-3v-4.4h1.1v4.3c0,1.4,0.8,2.1,2,2.1
		c1.4,0,2.4-0.9,2.4-2.6v-3.7h1.1v7.2H407.2z"/>
	<path class="st4" d="M412.3,42.8h-1.1V32.4h1.1V42.8z"/>
	<path class="st4" d="M416.4,35.5v-2.6h1.1v2.6h2.3v1h-2.3v4.8c0,0.3,0.1,0.4,0.4,0.4h1.5v1h-1.9c-0.7,0-1.1-0.4-1.1-1.1v-5.1h-2.2
		v-1H416.4z"/>
	<path class="st4" d="M429.8,35.3c1.5,0,2.5,0.6,3.6,1.9l-0.9,0.6c-0.8-1.1-1.7-1.5-2.7-1.5c-0.9,0-1.6,0.4-1.6,1.1
		c0,0.8,0.8,0.9,1.7,1.1l0.7,0.1c1.7,0.3,2.9,0.7,2.9,2.1c0,1.4-1.3,2.3-3.2,2.3c-2,0-3.2-1.2-3.8-2.4l1-0.5
		c0.5,1.2,1.5,1.9,2.8,1.9c1.2,0,2-0.5,2-1.3c0-0.8-0.9-0.9-1.9-1.1l-0.7-0.1c-1.6-0.2-2.7-0.7-2.7-2.1
		C427.1,36.1,428.3,35.3,429.8,35.3z"/>
	<path class="st4" d="M435.7,35.5h1.1v1.2h0.2c0.4-0.7,1.1-1.5,2.6-1.5c1.9,0,3.4,1.6,3.4,3.8c0,2.3-1.5,3.8-3.4,3.8
		c-1.5,0-2.2-0.7-2.6-1.4h-0.2v4.2h-1.1V35.5z M441.9,39.2c0-1.8-1-2.8-2.6-2.8c-1.5,0-2.6,1.1-2.6,2.8c0,1.7,1,2.8,2.6,2.8
		C440.9,42,441.9,40.9,441.9,39.2z"/>
	<path class="st4" d="M448.5,35.3c2.1,0,3.5,1.5,3.5,3.6v0.6h-5.9c0.1,1.5,1.1,2.4,2.6,2.4c1.2,0,1.8-0.6,2.2-1.4l1,0.5
		c-0.5,0.9-1.4,1.9-3.2,1.9c-2.3,0-3.8-1.7-3.8-3.9C444.9,37,446.4,35.3,448.5,35.3z M450.9,38.6c0-1.4-0.9-2.3-2.3-2.3
		c-1.4,0-2.3,0.8-2.4,2.3H450.9z"/>
	<path class="st4" d="M457.4,35.3c2.1,0,3.5,1.5,3.5,3.6v0.6H455c0.1,1.5,1.1,2.4,2.6,2.4c1.2,0,1.8-0.6,2.2-1.4l1,0.5
		c-0.5,0.9-1.4,1.9-3.2,1.9c-2.3,0-3.8-1.7-3.8-3.9C453.8,37,455.4,35.3,457.4,35.3z M459.8,38.6c0-1.4-0.9-2.3-2.3-2.3
		c-1.4,0-2.3,0.8-2.4,2.3H459.8z"/>
	<path class="st4" d="M466.5,35.3c1.9,0,3.2,1.2,3.5,2.8l-1.1,0.2c-0.1-1.1-1-2-2.3-2c-1.5,0-2.6,1.1-2.6,2.8c0,1.6,1.1,2.8,2.6,2.8
		c1.5,0,2.1-0.9,2.3-2l1.1,0.2c-0.3,1.4-1.4,2.8-3.5,2.8c-2.2,0-3.8-1.6-3.8-3.8C462.8,36.9,464.4,35.3,466.5,35.3z"/>
	<path class="st4" d="M473.4,32.4v4.4h0.2c0.4-0.7,1.1-1.4,2.5-1.4c1.5,0,2.9,1,2.9,3v4.4h-1.1v-4.3c0-1.4-0.8-2.1-2-2.1
		c-1.4,0-2.4,0.9-2.4,2.6v3.7h-1.1V32.4H473.4z"/>
</g>
<g>
	<path class="st3" d="M552,29.2v-3h-0.1c-0.3,0.5-0.8,1-1.9,1c-1.4,0-2.4-1.1-2.4-2.7s1.1-2.7,2.4-2.7c1.1,0,1.6,0.5,1.9,1h0.1v-0.9
		h0.8v7.3H552z M552,24.5c0-1.2-0.7-2-1.8-2c-1.1,0-1.8,0.8-1.8,2c0,1.3,0.8,2,1.8,2C551.2,26.5,552,25.8,552,24.5z"/>
	<path class="st3" d="M558.3,27.1v-0.9h-0.1c-0.3,0.5-0.8,1-1.8,1c-1.1,0-2-0.7-2-2.1v-3.1h0.8V25c0,1,0.6,1.5,1.5,1.5
		c1,0,1.7-0.7,1.7-1.9v-2.7h0.8v5.2H558.3z"/>
	<path class="st3" d="M562.9,21.8c1.5,0,2.5,1,2.5,2.6v0.4h-4.2c0.1,1.1,0.8,1.7,1.8,1.7c0.8,0,1.3-0.4,1.6-1l0.7,0.4
		c-0.4,0.7-1,1.4-2.3,1.4c-1.6,0-2.7-1.2-2.7-2.8C560.3,23,561.4,21.8,562.9,21.8z M564.5,24.1c0-1-0.7-1.6-1.7-1.6
		c-1,0-1.6,0.6-1.7,1.6H564.5z"/>
	<path class="st3" d="M567.4,22.7h0.1c0.2-0.5,0.6-0.8,1.3-0.8h0.6v0.8h-0.9c-0.8,0-1.2,0.4-1.2,1.3v3.1h-0.8v-5.2h0.8V22.7z"/>
	<path class="st3" d="M575.6,21.9l-3.1,7.3h-0.9l0.9-2l-2.2-5.2h0.9l1.7,4.1h0.1l1.7-4.1H575.6z"/>
	<path class="st4" d="M503.8,35.8v-2c0-0.7,0.4-1.2,1.1-1.2h1.9v1h-1.5c-0.3,0-0.4,0.1-0.4,0.4v1.7h2.2v1h-2.2V43h-1.1v-6.2h-2.2v-1
		H503.8z"/>
	<path class="st4" d="M512.2,35.5c2.1,0,3.5,1.5,3.5,3.6v0.6h-5.9c0.1,1.5,1.1,2.4,2.6,2.4c1.2,0,1.8-0.6,2.2-1.4l1,0.5
		c-0.5,0.9-1.4,1.9-3.2,1.9c-2.3,0-3.8-1.7-3.8-3.9C508.6,37.2,510.1,35.5,512.2,35.5z M514.5,38.8c0-1.4-0.9-2.3-2.3-2.3
		c-1.4,0-2.3,0.8-2.4,2.3H514.5z"/>
	<path class="st4" d="M519.1,35.8v1h0.2c0.4-0.7,1.1-1.1,2-1.1c1.1,0,1.7,0.5,2.1,1.3h0.2c0.4-0.7,1.1-1.3,2.2-1.3
		c1.4,0,2.5,0.9,2.5,2.4v5h-1.1v-4.9c0-0.9-0.7-1.5-1.6-1.5c-1,0-1.8,0.7-1.8,1.9V43h-1.1v-4.9c0-0.9-0.6-1.5-1.6-1.5
		c-1,0-1.8,0.7-1.8,1.9V43H518v-7.2H519.1z"/>
	<path class="st4" d="M531.6,32.5c0.5,0,1,0.4,1,1s-0.4,1-1,1s-1-0.4-1-1S531,32.5,531.6,32.5z M532.1,43H531v-7.2h1.1V43z"/>
	<path class="st4" d="M536,35.8V37h0.2c0.4-0.7,1.1-1.4,2.5-1.4c1.5,0,2.9,1,2.9,3V43h-1.1v-4.3c0-1.4-0.8-2.1-2-2.1
		c-1.4,0-2.4,0.9-2.4,2.6V43h-1.1v-7.2H536z"/>
	<path class="st4" d="M544.9,32.5c0.5,0,1,0.4,1,1s-0.4,1-1,1s-1-0.4-1-1S544.4,32.5,544.9,32.5z M545.5,43h-1.1v-7.2h1.1V43z"/>
	<path class="st4" d="M550.9,35.6c1.5,0,2.5,0.6,3.6,1.9l-0.9,0.6c-0.8-1.1-1.7-1.5-2.7-1.5c-0.9,0-1.6,0.4-1.6,1.1
		c0,0.8,0.8,0.9,1.7,1.1l0.7,0.1c1.7,0.3,2.9,0.7,2.9,2.1c0,1.4-1.3,2.3-3.2,2.3c-2,0-3.2-1.2-3.8-2.4l1-0.5
		c0.5,1.2,1.5,1.9,2.8,1.9c1.2,0,2-0.5,2-1.3c0-0.8-0.9-0.9-1.9-1.1l-0.7-0.1c-1.6-0.2-2.7-0.7-2.7-2.1
		C548.1,36.3,549.4,35.6,550.9,35.6z"/>
	<path class="st4" d="M558,35.8v-2.6h1.1v2.6h2.3v1h-2.3v4.8c0,0.3,0.1,0.4,0.4,0.4h1.5v1h-1.9c-0.7,0-1.1-0.4-1.1-1.1v-5.1h-2.2v-1
		H558z"/>
	<path class="st4" d="M571.5,35.6c1.5,0,2.5,0.6,3.6,1.9l-0.9,0.6c-0.8-1.1-1.7-1.5-2.7-1.5c-0.9,0-1.6,0.4-1.6,1.1
		c0,0.8,0.8,0.9,1.7,1.1l0.7,0.1c1.7,0.3,2.9,0.7,2.9,2.1c0,1.4-1.3,2.3-3.2,2.3c-2,0-3.2-1.2-3.8-2.4l1-0.5
		c0.5,1.2,1.5,1.9,2.8,1.9c1.2,0,2-0.5,2-1.3c0-0.8-0.9-0.9-1.9-1.1l-0.7-0.1c-1.6-0.2-2.7-0.7-2.7-2.1
		C568.7,36.3,570,35.6,571.5,35.6z"/>
	<path class="st4" d="M577.4,35.8h1.1V37h0.2c0.4-0.7,1.1-1.5,2.6-1.5c1.9,0,3.4,1.6,3.4,3.8c0,2.3-1.5,3.8-3.4,3.8
		c-1.5,0-2.2-0.7-2.6-1.4h-0.2V46h-1.1V35.8z M583.6,39.4c0-1.8-1-2.8-2.6-2.8c-1.5,0-2.6,1.1-2.6,2.8c0,1.7,1,2.8,2.6,2.8
		C582.6,42.2,583.6,41.1,583.6,39.4z"/>
	<path class="st4" d="M590.2,35.5c2.1,0,3.5,1.5,3.5,3.6v0.6h-5.9c0.1,1.5,1.1,2.4,2.6,2.4c1.2,0,1.8-0.6,2.2-1.4l1,0.5
		c-0.5,0.9-1.4,1.9-3.2,1.9c-2.3,0-3.8-1.7-3.8-3.9C586.6,37.2,588.1,35.5,590.2,35.5z M592.5,38.8c0-1.4-0.9-2.3-2.3-2.3
		c-1.4,0-2.3,0.8-2.4,2.3H592.5z"/>
	<path class="st4" d="M599.1,35.5c2.1,0,3.5,1.5,3.5,3.6v0.6h-5.9c0.1,1.5,1.1,2.4,2.6,2.4c1.2,0,1.8-0.6,2.2-1.4l1,0.5
		c-0.5,0.9-1.4,1.9-3.2,1.9c-2.3,0-3.8-1.7-3.8-3.9C595.5,37.2,597,35.5,599.1,35.5z M601.4,38.8c0-1.4-0.9-2.3-2.3-2.3
		c-1.4,0-2.3,0.8-2.4,2.3H601.4z"/>
	<path class="st4" d="M608.2,35.6c1.9,0,3.2,1.2,3.5,2.8l-1.1,0.2c-0.1-1.1-1-2-2.3-2c-1.5,0-2.6,1.1-2.6,2.8c0,1.6,1.1,2.8,2.6,2.8
		c1.5,0,2.1-0.9,2.3-2l1.1,0.2c-0.3,1.4-1.4,2.8-3.5,2.8c-2.2,0-3.8-1.6-3.8-3.8C604.4,37.2,606,35.6,608.2,35.6z"/>
	<path class="st4" d="M615,32.6V37h0.2c0.4-0.7,1.1-1.4,2.5-1.4c1.5,0,2.9,1,2.9,3V43h-1.1v-4.3c0-1.4-0.8-2.1-2-2.1
		c-1.4,0-2.4,0.9-2.4,2.6V43h-1.1V32.6H615z"/>
</g>
<line class="st6" x1="672.8" y1="9.2" x2="672.8" y2="135.9"/>
<g>
	<path class="st3" d="M688,59.9l2.4,4.6h0.2l2.4-4.6h2l-3.6,6.7v3.7h-1.7v-3.7l-3.6-6.7H688z"/>
	<path class="st3" d="M700,59.7c2.6,0,4.2,1.6,4.2,4.3v2.3c0,2.7-1.6,4.3-4.2,4.3c-2.6,0-4.2-1.6-4.2-4.3v-2.3
		C695.9,61.3,697.5,59.7,700,59.7z M697.6,66.2c0,1.7,0.8,2.7,2.4,2.7c1.7,0,2.4-1,2.4-2.7v-2.4c0-1.7-0.8-2.7-2.4-2.7
		c-1.6,0-2.4,1-2.4,2.7V66.2z"/>
	<path class="st3" d="M708,59.9v6.8c0,1.4,0.8,2.2,2.3,2.2c1.5,0,2.3-0.8,2.3-2.2v-6.8h1.7v6.8c0,2.4-1.4,3.8-4,3.8
		c-2.5,0-4-1.4-4-3.8v-6.8H708z"/>
	<path class="st3" d="M724.2,59.9v1.6h-3.2v8.8h-1.7v-8.8h-3.2v-1.6H724.2z"/>
	<path class="st3" d="M727.6,59.9v6.8c0,1.4,0.8,2.2,2.3,2.2c1.5,0,2.3-0.8,2.3-2.2v-6.8h1.7v6.8c0,2.4-1.4,3.8-4,3.8
		c-2.5,0-4-1.4-4-3.8v-6.8H727.6z"/>
	<path class="st3" d="M740.8,59.9c1.8,0,3.1,1,3.1,2.8c0,1.2-0.7,2-1.7,2.3v0.2c1,0.3,1.8,1.1,1.8,2.3c0,1.7-1.3,2.8-3.1,2.8h-4.5
		V59.9H740.8z M738,64.3h2.6c0.9,0,1.6-0.5,1.6-1.4c0-0.9-0.6-1.4-1.6-1.4H738V64.3z M738,68.7h2.6c0.9,0,1.6-0.5,1.6-1.4
		c0-0.9-0.6-1.4-1.6-1.4H738V68.7z"/>
	<path class="st3" d="M752.7,59.9v1.6h-5v2.8h4.6v1.6h-4.6v2.9h5.1v1.6H746V59.9H752.7z"/>
	<path class="st3" d="M689.1,77.6c1.5,0,2.5,1,2.5,2.6v0.4h-4.2c0.1,1.1,0.8,1.7,1.8,1.7c0.8,0,1.3-0.4,1.6-1l0.7,0.4
		c-0.4,0.7-1,1.4-2.3,1.4c-1.6,0-2.7-1.2-2.7-2.8C686.5,78.8,687.6,77.6,689.1,77.6z M690.7,80c0-1-0.7-1.6-1.7-1.6
		c-1,0-1.6,0.6-1.7,1.6H690.7z"/>
	<path class="st3" d="M694,77.8v0.9h0.1c0.3-0.5,0.8-1,1.8-1c1.1,0,2,0.7,2,2.1V83h-0.8v-3.1c0-1-0.6-1.5-1.5-1.5
		c-1,0-1.7,0.7-1.7,1.9V83h-0.8v-5.2H694z"/>
	<path class="st3" d="M704.8,77.8v5c0,1.4-1,2.5-2.5,2.5c-1.4,0-2.2-0.7-2.7-1.4l0.7-0.4c0.3,0.6,0.9,1.1,1.9,1.1
		c1,0,1.8-0.6,1.8-1.8V82h-0.1c-0.3,0.5-0.8,1-1.9,1c-1.4,0-2.4-1.1-2.4-2.7s1.1-2.7,2.4-2.7c1.1,0,1.6,0.5,1.9,1h0.1v-0.9H704.8z
		 M704,80.3c0-1.2-0.7-1.9-1.8-1.9c-1.1,0-1.8,0.7-1.8,1.9s0.8,1.9,1.8,1.9C703.3,82.3,704,81.5,704,80.3z"/>
	<path class="st3" d="M707.7,83h-0.8v-7.4h0.8V83z"/>
	<path class="st3" d="M710.1,75.5c0.4,0,0.7,0.3,0.7,0.7s-0.3,0.7-0.7,0.7c-0.4,0-0.7-0.3-0.7-0.7S709.7,75.5,710.1,75.5z M710.5,83
		h-0.8v-5.2h0.8V83z"/>
	<path class="st3" d="M714.3,77.6c1,0,1.8,0.4,2.6,1.4l-0.6,0.4c-0.6-0.8-1.2-1.1-1.9-1.1c-0.7,0-1.2,0.3-1.2,0.8
		c0,0.6,0.6,0.7,1.2,0.8l0.5,0.1c1.2,0.2,2,0.5,2,1.5c0,1-0.9,1.7-2.3,1.7c-1.5,0-2.3-0.9-2.7-1.7l0.7-0.4c0.3,0.9,1,1.4,2,1.4
		c0.8,0,1.4-0.4,1.4-0.9c0-0.6-0.6-0.7-1.3-0.8l-0.5-0.1c-1.1-0.2-1.9-0.5-1.9-1.5C712.4,78.2,713.3,77.6,714.3,77.6z"/>
	<path class="st3" d="M719.3,75.5v3.2h0.1c0.3-0.5,0.8-1,1.8-1c1.1,0,2,0.7,2,2.1V83h-0.8v-3.1c0-1-0.6-1.5-1.5-1.5
		c-1,0-1.7,0.7-1.7,1.9V83h-0.8v-7.4H719.3z"/>
	<path class="st3" d="M729.8,83H729v-7.4h0.8V83z"/>
	<path class="st3" d="M734.1,77.6c1.4,0,2.2,0.8,2.2,2.1V83h-0.8v-0.9h-0.1c-0.3,0.5-0.8,1-1.9,1c-1.1,0-1.9-0.6-1.9-1.5
		c0-0.9,0.8-1.4,2-1.5l2-0.2v-0.2c0-0.8-0.5-1.3-1.5-1.3c-0.9,0-1.5,0.5-1.8,1.2l-0.7-0.3C732,78.4,732.8,77.6,734.1,77.6z
		 M733.6,82.4c1.2,0,2-0.7,2-1.8v-0.1l-1.9,0.2c-0.7,0.1-1.3,0.3-1.3,0.9C732.3,82.1,732.8,82.4,733.6,82.4z"/>
	<path class="st3" d="M739.1,77.8v0.9h0.1c0.3-0.5,0.8-1,1.8-1c1.1,0,2,0.7,2,2.1V83h-0.8v-3.1c0-1-0.6-1.5-1.5-1.5
		c-1,0-1.7,0.7-1.7,1.9V83h-0.8v-5.2H739.1z"/>
	<path class="st3" d="M749.9,77.8v5c0,1.4-1,2.5-2.5,2.5c-1.4,0-2.2-0.7-2.7-1.4l0.7-0.4c0.3,0.6,0.9,1.1,1.9,1.1
		c1,0,1.8-0.6,1.8-1.8V82H749c-0.3,0.5-0.8,1-1.9,1c-1.4,0-2.4-1.1-2.4-2.7s1.1-2.7,2.4-2.7c1.1,0,1.6,0.5,1.9,1h0.1v-0.9H749.9z
		 M749.1,80.3c0-1.2-0.7-1.9-1.8-1.9c-1.1,0-1.8,0.7-1.8,1.9s0.8,1.9,1.8,1.9C748.4,82.3,749.1,81.5,749.1,80.3z"/>
	<path class="st3" d="M755.9,83V82h-0.1c-0.3,0.5-0.8,1-1.8,1c-1.1,0-2-0.7-2-2.1v-3.1h0.8v3.1c0,1,0.6,1.5,1.5,1.5
		c1,0,1.7-0.7,1.7-1.9v-2.7h0.8V83H755.9z"/>
	<path class="st3" d="M761,77.6c1.4,0,2.2,0.8,2.2,2.1V83h-0.8v-0.9h-0.1c-0.3,0.5-0.8,1-1.9,1c-1.1,0-1.9-0.6-1.9-1.5
		c0-0.9,0.8-1.4,2-1.5l2-0.2v-0.2c0-0.8-0.5-1.3-1.5-1.3c-0.9,0-1.5,0.5-1.8,1.2l-0.7-0.3C758.9,78.4,759.7,77.6,761,77.6z
		 M760.4,82.4c1.2,0,2-0.7,2-1.8v-0.1l-1.9,0.2c-0.7,0.1-1.3,0.3-1.3,0.9C759.2,82.1,759.7,82.4,760.4,82.4z"/>
	<path class="st3" d="M770.1,77.8v5c0,1.4-1,2.5-2.5,2.5c-1.4,0-2.2-0.7-2.7-1.4l0.7-0.4c0.3,0.6,0.9,1.1,1.9,1.1
		c1,0,1.8-0.6,1.8-1.8V82h-0.1c-0.3,0.5-0.8,1-1.9,1c-1.4,0-2.4-1.1-2.4-2.7s1.1-2.7,2.4-2.7c1.1,0,1.6,0.5,1.9,1h0.1v-0.9H770.1z
		 M769.3,80.3c0-1.2-0.7-1.9-1.8-1.9c-1.1,0-1.8,0.7-1.8,1.9s0.8,1.9,1.8,1.9C768.6,82.3,769.3,81.5,769.3,80.3z"/>
	<path class="st3" d="M774.3,77.6c1.5,0,2.5,1,2.5,2.6v0.4h-4.2c0.1,1.1,0.8,1.7,1.8,1.7c0.8,0,1.3-0.4,1.6-1l0.7,0.4
		c-0.4,0.7-1,1.4-2.3,1.4c-1.6,0-2.7-1.2-2.7-2.8C771.8,78.8,772.8,77.6,774.3,77.6z M776,80c0-1-0.7-1.6-1.7-1.6
		c-1,0-1.6,0.6-1.7,1.6H776z"/>
</g>
<g>
	<path class="st7" d="M688,59.9l2.4,4.6h0.2l2.4-4.6h2l-3.6,6.7v3.7h-1.7v-3.7l-3.6-6.7H688z"/>
	<path class="st7" d="M700,59.7c2.6,0,4.2,1.6,4.2,4.3v2.3c0,2.7-1.6,4.3-4.2,4.3c-2.6,0-4.2-1.6-4.2-4.3v-2.3
		C695.9,61.3,697.5,59.7,700,59.7z M697.6,66.2c0,1.7,0.8,2.7,2.4,2.7c1.7,0,2.4-1,2.4-2.7v-2.4c0-1.7-0.8-2.7-2.4-2.7
		c-1.6,0-2.4,1-2.4,2.7V66.2z"/>
	<path class="st7" d="M708,59.9v6.8c0,1.4,0.8,2.2,2.3,2.2c1.5,0,2.3-0.8,2.3-2.2v-6.8h1.7v6.8c0,2.4-1.4,3.8-4,3.8
		c-2.5,0-4-1.4-4-3.8v-6.8H708z"/>
	<path class="st7" d="M724.2,59.9v1.6h-3.2v8.8h-1.7v-8.8h-3.2v-1.6H724.2z"/>
	<path class="st7" d="M727.6,59.9v6.8c0,1.4,0.8,2.2,2.3,2.2c1.5,0,2.3-0.8,2.3-2.2v-6.8h1.7v6.8c0,2.4-1.4,3.8-4,3.8
		c-2.5,0-4-1.4-4-3.8v-6.8H727.6z"/>
	<path class="st7" d="M740.8,59.9c1.8,0,3.1,1,3.1,2.8c0,1.2-0.7,2-1.7,2.3v0.2c1,0.3,1.8,1.1,1.8,2.3c0,1.7-1.3,2.8-3.1,2.8h-4.5
		V59.9H740.8z M738,64.3h2.6c0.9,0,1.6-0.5,1.6-1.4c0-0.9-0.6-1.4-1.6-1.4H738V64.3z M738,68.7h2.6c0.9,0,1.6-0.5,1.6-1.4
		c0-0.9-0.6-1.4-1.6-1.4H738V68.7z"/>
	<path class="st7" d="M752.7,59.9v1.6h-5v2.8h4.6v1.6h-4.6v2.9h5.1v1.6H746V59.9H752.7z"/>
	<path class="st7" d="M689.1,77.6c1.5,0,2.5,1,2.5,2.6v0.4h-4.2c0.1,1.1,0.8,1.7,1.8,1.7c0.8,0,1.3-0.4,1.6-1l0.7,0.4
		c-0.4,0.7-1,1.4-2.3,1.4c-1.6,0-2.7-1.2-2.7-2.8C686.5,78.8,687.6,77.6,689.1,77.6z M690.7,80c0-1-0.7-1.6-1.7-1.6
		c-1,0-1.6,0.6-1.7,1.6H690.7z"/>
	<path class="st7" d="M694,77.8v0.9h0.1c0.3-0.5,0.8-1,1.8-1c1.1,0,2,0.7,2,2.1V83h-0.8v-3.1c0-1-0.6-1.5-1.5-1.5
		c-1,0-1.7,0.7-1.7,1.9V83h-0.8v-5.2H694z"/>
	<path class="st7" d="M704.8,77.8v5c0,1.4-1,2.5-2.5,2.5c-1.4,0-2.2-0.7-2.7-1.4l0.7-0.4c0.3,0.6,0.9,1.1,1.9,1.1
		c1,0,1.8-0.6,1.8-1.8V82h-0.1c-0.3,0.5-0.8,1-1.9,1c-1.4,0-2.4-1.1-2.4-2.7s1.1-2.7,2.4-2.7c1.1,0,1.6,0.5,1.9,1h0.1v-0.9H704.8z
		 M704,80.3c0-1.2-0.7-1.9-1.8-1.9c-1.1,0-1.8,0.7-1.8,1.9s0.8,1.9,1.8,1.9C703.3,82.3,704,81.5,704,80.3z"/>
	<path class="st7" d="M707.7,83h-0.8v-7.4h0.8V83z"/>
	<path class="st7" d="M710.1,75.5c0.4,0,0.7,0.3,0.7,0.7s-0.3,0.7-0.7,0.7c-0.4,0-0.7-0.3-0.7-0.7S709.7,75.5,710.1,75.5z M710.5,83
		h-0.8v-5.2h0.8V83z"/>
	<path class="st7" d="M714.3,77.6c1,0,1.8,0.4,2.6,1.4l-0.6,0.4c-0.6-0.8-1.2-1.1-1.9-1.1c-0.7,0-1.2,0.3-1.2,0.8
		c0,0.6,0.6,0.7,1.2,0.8l0.5,0.1c1.2,0.2,2,0.5,2,1.5c0,1-0.9,1.7-2.3,1.7c-1.5,0-2.3-0.9-2.7-1.7l0.7-0.4c0.3,0.9,1,1.4,2,1.4
		c0.8,0,1.4-0.4,1.4-0.9c0-0.6-0.6-0.7-1.3-0.8l-0.5-0.1c-1.1-0.2-1.9-0.5-1.9-1.5C712.4,78.2,713.3,77.6,714.3,77.6z"/>
	<path class="st7" d="M719.3,75.5v3.2h0.1c0.3-0.5,0.8-1,1.8-1c1.1,0,2,0.7,2,2.1V83h-0.8v-3.1c0-1-0.6-1.5-1.5-1.5
		c-1,0-1.7,0.7-1.7,1.9V83h-0.8v-7.4H719.3z"/>
	<path class="st7" d="M729.8,83H729v-7.4h0.8V83z"/>
	<path class="st7" d="M734.1,77.6c1.4,0,2.2,0.8,2.2,2.1V83h-0.8v-0.9h-0.1c-0.3,0.5-0.8,1-1.9,1c-1.1,0-1.9-0.6-1.9-1.5
		c0-0.9,0.8-1.4,2-1.5l2-0.2v-0.2c0-0.8-0.5-1.3-1.5-1.3c-0.9,0-1.5,0.5-1.8,1.2l-0.7-0.3C732,78.4,732.8,77.6,734.1,77.6z
		 M733.6,82.4c1.2,0,2-0.7,2-1.8v-0.1l-1.9,0.2c-0.7,0.1-1.3,0.3-1.3,0.9C732.3,82.1,732.8,82.4,733.6,82.4z"/>
	<path class="st7" d="M739.1,77.8v0.9h0.1c0.3-0.5,0.8-1,1.8-1c1.1,0,2,0.7,2,2.1V83h-0.8v-3.1c0-1-0.6-1.5-1.5-1.5
		c-1,0-1.7,0.7-1.7,1.9V83h-0.8v-5.2H739.1z"/>
	<path class="st7" d="M749.9,77.8v5c0,1.4-1,2.5-2.5,2.5c-1.4,0-2.2-0.7-2.7-1.4l0.7-0.4c0.3,0.6,0.9,1.1,1.9,1.1
		c1,0,1.8-0.6,1.8-1.8V82H749c-0.3,0.5-0.8,1-1.9,1c-1.4,0-2.4-1.1-2.4-2.7s1.1-2.7,2.4-2.7c1.1,0,1.6,0.5,1.9,1h0.1v-0.9H749.9z
		 M749.1,80.3c0-1.2-0.7-1.9-1.8-1.9c-1.1,0-1.8,0.7-1.8,1.9s0.8,1.9,1.8,1.9C748.4,82.3,749.1,81.5,749.1,80.3z"/>
	<path class="st7" d="M755.9,83V82h-0.1c-0.3,0.5-0.8,1-1.8,1c-1.1,0-2-0.7-2-2.1v-3.1h0.8v3.1c0,1,0.6,1.5,1.5,1.5
		c1,0,1.7-0.7,1.7-1.9v-2.7h0.8V83H755.9z"/>
	<path class="st7" d="M761,77.6c1.4,0,2.2,0.8,2.2,2.1V83h-0.8v-0.9h-0.1c-0.3,0.5-0.8,1-1.9,1c-1.1,0-1.9-0.6-1.9-1.5
		c0-0.9,0.8-1.4,2-1.5l2-0.2v-0.2c0-0.8-0.5-1.3-1.5-1.3c-0.9,0-1.5,0.5-1.8,1.2l-0.7-0.3C758.9,78.4,759.7,77.6,761,77.6z
		 M760.4,82.4c1.2,0,2-0.7,2-1.8v-0.1l-1.9,0.2c-0.7,0.1-1.3,0.3-1.3,0.9C759.2,82.1,759.7,82.4,760.4,82.4z"/>
	<path class="st7" d="M770.1,77.8v5c0,1.4-1,2.5-2.5,2.5c-1.4,0-2.2-0.7-2.7-1.4l0.7-0.4c0.3,0.6,0.9,1.1,1.9,1.1
		c1,0,1.8-0.6,1.8-1.8V82h-0.1c-0.3,0.5-0.8,1-1.9,1c-1.4,0-2.4-1.1-2.4-2.7s1.1-2.7,2.4-2.7c1.1,0,1.6,0.5,1.9,1h0.1v-0.9H770.1z
		 M769.3,80.3c0-1.2-0.7-1.9-1.8-1.9c-1.1,0-1.8,0.7-1.8,1.9s0.8,1.9,1.8,1.9C768.6,82.3,769.3,81.5,769.3,80.3z"/>
	<path class="st7" d="M774.3,77.6c1.5,0,2.5,1,2.5,2.6v0.4h-4.2c0.1,1.1,0.8,1.7,1.8,1.7c0.8,0,1.3-0.4,1.6-1l0.7,0.4
		c-0.4,0.7-1,1.4-2.3,1.4c-1.6,0-2.7-1.2-2.7-2.8C771.8,78.8,772.8,77.6,774.3,77.6z M776,80c0-1-0.7-1.6-1.7-1.6
		c-1,0-1.6,0.6-1.7,1.6H776z"/>
</g>
<g>
	<g>
		<path class="st3" d="M689.5,297.2l2.4,8.6h0.2l2.4-8.6h3v10.4h-1.7v-8.6h-0.2l-2.4,8.6h-2.6l-2.4-8.6h-0.2v8.6h-1.7v-10.4H689.5z"
			/>
		<path class="st3" d="M705.1,297.2l3.1,10.4h-1.8l-0.7-2.4h-3.9l-0.7,2.4h-1.8l3.1-10.4H705.1z M705.2,303.6l-1.4-4.9h-0.2
			l-1.4,4.9H705.2z"/>
		<path class="st3" d="M712.9,297.2l2.8,8.8h0.2v-8.8h1.7v10.4h-3.1l-2.8-8.8h-0.2v8.8h-1.7v-10.4H712.9z"/>
		<path class="st3" d="M721.8,297.2v6.8c0,1.4,0.8,2.2,2.3,2.2c1.5,0,2.3-0.8,2.3-2.2v-6.8h1.7v6.8c0,2.4-1.4,3.8-4,3.8
			c-2.5,0-4-1.4-4-3.8v-6.8H721.8z"/>
		<path class="st3" d="M735.4,297.2l3.1,10.4h-1.8l-0.7-2.4H732l-0.7,2.4h-1.8l3.1-10.4H735.4z M735.5,303.6l-1.4-4.9h-0.2l-1.4,4.9
			H735.5z"/>
		<path class="st3" d="M741.8,297.2v8.8h5v1.6h-6.7v-10.4H741.8z"/>
		<path class="st3" d="M691.5,315l3.1,10.4h-1.8l-0.7-2.4h-3.9l-0.7,2.4h-1.8l3.1-10.4H691.5z M691.6,321.4l-1.4-4.9H690l-1.4,4.9
			H691.6z"/>
		<path class="st3" d="M699.3,315l2.8,8.8h0.2V315h1.7v10.4h-3.1l-2.8-8.8H698v8.8h-1.7V315H699.3z"/>
		<path class="st3" d="M711.5,315l3.1,10.4h-1.8l-0.7-2.4h-3.9l-0.7,2.4h-1.8l3.1-10.4H711.5z M711.7,321.4l-1.4-4.9h-0.2l-1.4,4.9
			H711.7z"/>
		<path class="st3" d="M718,315v8.8h5v1.6h-6.7V315H718z"/>
		<path class="st3" d="M723.7,315l2.4,4.6h0.2l2.4-4.6h2l-3.6,6.7v3.7h-1.7v-3.7l-3.6-6.7H723.7z"/>
		<path class="st3" d="M739.1,318.1v0.5h-1.7v-0.3c0-1.3-0.8-1.9-2.1-1.9c-1.1,0-1.8,0.6-1.8,1.4c0,1,0.8,1.2,2.1,1.5l0.4,0.1
			c2,0.4,3.2,1.2,3.2,3.1c0,2-1.6,3.2-3.8,3.2c-2.5,0-4.2-1.4-4.2-3.8v-0.4h1.7v0.3c0,1.5,0.8,2.3,2.5,2.3c1.3,0,2-0.7,2-1.6
			c0-0.9-0.7-1.3-2.1-1.6l-0.4-0.1c-2-0.4-3.3-1.2-3.3-3.1c0-1.8,1.6-2.9,3.5-2.9C737.5,314.8,739.1,316,739.1,318.1z"/>
		<path class="st3" d="M743.1,315v10.4h-1.7V315H743.1z"/>
		<path class="st3" d="M752.9,318.1v0.5h-1.7v-0.3c0-1.3-0.8-1.9-2.1-1.9c-1.1,0-1.8,0.6-1.8,1.4c0,1,0.8,1.2,2.1,1.5l0.4,0.1
			c2,0.4,3.2,1.2,3.2,3.1c0,2-1.6,3.2-3.8,3.2c-2.5,0-4.2-1.4-4.2-3.8v-0.4h1.7v0.3c0,1.5,0.8,2.3,2.5,2.3c1.3,0,2-0.7,2-1.6
			c0-0.9-0.7-1.3-2.1-1.6l-0.4-0.1c-2-0.4-3.3-1.2-3.3-3.1c0-1.8,1.6-2.9,3.5-2.9C751.2,314.8,752.9,316,752.9,318.1z"/>
	</g>
	<g>
		<path class="st7" d="M689.5,297.2l2.4,8.6h0.2l2.4-8.6h3v10.4h-1.7v-8.6h-0.2l-2.4,8.6h-2.6l-2.4-8.6h-0.2v8.6h-1.7v-10.4H689.5z"
			/>
		<path class="st7" d="M705.1,297.2l3.1,10.4h-1.8l-0.7-2.4h-3.9l-0.7,2.4h-1.8l3.1-10.4H705.1z M705.2,303.6l-1.4-4.9h-0.2
			l-1.4,4.9H705.2z"/>
		<path class="st7" d="M712.9,297.2l2.8,8.8h0.2v-8.8h1.7v10.4h-3.1l-2.8-8.8h-0.2v8.8h-1.7v-10.4H712.9z"/>
		<path class="st7" d="M721.8,297.2v6.8c0,1.4,0.8,2.2,2.3,2.2c1.5,0,2.3-0.8,2.3-2.2v-6.8h1.7v6.8c0,2.4-1.4,3.8-4,3.8
			c-2.5,0-4-1.4-4-3.8v-6.8H721.8z"/>
		<path class="st7" d="M735.4,297.2l3.1,10.4h-1.8l-0.7-2.4H732l-0.7,2.4h-1.8l3.1-10.4H735.4z M735.5,303.6l-1.4-4.9h-0.2l-1.4,4.9
			H735.5z"/>
		<path class="st7" d="M741.8,297.2v8.8h5v1.6h-6.7v-10.4H741.8z"/>
		<path class="st7" d="M691.5,315l3.1,10.4h-1.8l-0.7-2.4h-3.9l-0.7,2.4h-1.8l3.1-10.4H691.5z M691.6,321.4l-1.4-4.9H690l-1.4,4.9
			H691.6z"/>
		<path class="st7" d="M699.3,315l2.8,8.8h0.2V315h1.7v10.4h-3.1l-2.8-8.8H698v8.8h-1.7V315H699.3z"/>
		<path class="st7" d="M711.5,315l3.1,10.4h-1.8l-0.7-2.4h-3.9l-0.7,2.4h-1.8l3.1-10.4H711.5z M711.7,321.4l-1.4-4.9h-0.2l-1.4,4.9
			H711.7z"/>
		<path class="st7" d="M718,315v8.8h5v1.6h-6.7V315H718z"/>
		<path class="st7" d="M723.7,315l2.4,4.6h0.2l2.4-4.6h2l-3.6,6.7v3.7h-1.7v-3.7l-3.6-6.7H723.7z"/>
		<path class="st7" d="M739.1,318.1v0.5h-1.7v-0.3c0-1.3-0.8-1.9-2.1-1.9c-1.1,0-1.8,0.6-1.8,1.4c0,1,0.8,1.2,2.1,1.5l0.4,0.1
			c2,0.4,3.2,1.2,3.2,3.1c0,2-1.6,3.2-3.8,3.2c-2.5,0-4.2-1.4-4.2-3.8v-0.4h1.7v0.3c0,1.5,0.8,2.3,2.5,2.3c1.3,0,2-0.7,2-1.6
			c0-0.9-0.7-1.3-2.1-1.6l-0.4-0.1c-2-0.4-3.3-1.2-3.3-3.1c0-1.8,1.6-2.9,3.5-2.9C737.5,314.8,739.1,316,739.1,318.1z"/>
		<path class="st7" d="M743.1,315v10.4h-1.7V315H743.1z"/>
		<path class="st7" d="M752.9,318.1v0.5h-1.7v-0.3c0-1.3-0.8-1.9-2.1-1.9c-1.1,0-1.8,0.6-1.8,1.4c0,1,0.8,1.2,2.1,1.5l0.4,0.1
			c2,0.4,3.2,1.2,3.2,3.1c0,2-1.6,3.2-3.8,3.2c-2.5,0-4.2-1.4-4.2-3.8v-0.4h1.7v0.3c0,1.5,0.8,2.3,2.5,2.3c1.3,0,2-0.7,2-1.6
			c0-0.9-0.7-1.3-2.1-1.6l-0.4-0.1c-2-0.4-3.3-1.2-3.3-3.1c0-1.8,1.6-2.9,3.5-2.9C751.2,314.8,752.9,316,752.9,318.1z"/>
	</g>
</g>
<g>
	<g>
		<path class="st3" d="M690.2,456.8c2.6,0,4.2,1.6,4.2,4.3v2.3c0,2.7-1.6,4.3-4.2,4.3c-2.6,0-4.2-1.6-4.2-4.3v-2.3
			C686.1,458.4,687.6,456.8,690.2,456.8z M687.8,463.4c0,1.7,0.8,2.7,2.4,2.7c1.7,0,2.4-1,2.4-2.7V461c0-1.7-0.8-2.7-2.4-2.7
			c-1.6,0-2.4,1-2.4,2.7V463.4z"/>
		<path class="st3" d="M700.7,457c1.9,0,3.3,1.3,3.3,3.2c0,1.9-1.4,3.2-3.3,3.2h-2.4v4h-1.7V457H700.7z M698.2,461.8h2.3
			c1.1,0,1.7-0.6,1.7-1.6c0-1-0.6-1.6-1.7-1.6h-2.3V461.8z"/>
		<path class="st3" d="M712.5,457v1.6h-5v2.8h4.6v1.6h-4.6v2.9h5.1v1.6h-6.8V457H712.5z"/>
		<path class="st3" d="M717.7,457l2.8,8.8h0.2V457h1.7v10.4h-3.1l-2.8-8.8h-0.2v8.8h-1.7V457H717.7z"/>
		<path class="st3" d="M735.1,463.2l2.2,4.2h-1.9l-2.1-4h-1.9v4h-1.7V457h4.4c1.9,0,3.3,1.3,3.3,3.2
			C737.5,461.8,736.5,462.9,735.1,463.2z M731.5,461.8h2.6c1.1,0,1.7-0.6,1.7-1.6c0-1-0.6-1.6-1.7-1.6h-2.6V461.8z"/>
		<path class="st3" d="M746.2,457v1.6h-5v2.8h4.6v1.6h-4.6v2.9h5.1v1.6h-6.8V457H746.2z"/>
		<path class="st3" d="M754.9,457v1.6h-4.8v2.8h4.5v1.6h-4.5v4.4h-1.7V457H754.9z"/>
		<path class="st3" d="M758.5,457v10.4h-1.7V457H758.5z"/>
		<path class="st3" d="M764.1,457l2.8,8.8h0.2V457h1.7v10.4h-3.1l-2.8-8.8h-0.2v8.8H761V457H764.1z"/>
		<path class="st3" d="M778,457v1.6h-5v2.8h4.6v1.6H773v2.9h5.1v1.6h-6.8V457H778z"/>
		<path class="st3" d="M687.5,479.5v-0.2c-0.4-0.6-0.7-1.2-0.7-1.9v-0.1c0-1.7,1.3-2.8,3.1-2.8c1.9,0,3.1,1.2,3.1,2.9v0.3h-1.7v-0.3
			c0-0.8-0.5-1.4-1.4-1.4c-0.9,0-1.4,0.5-1.4,1.2v0.1c0,0.8,0.6,1.4,1.7,2.4l1.7,1.7h0.3l1.4-2.4h1.8l-2.1,3.6v0.3l2.2,2.2h-2.2
			l-0.9-0.9h-0.2c-0.7,0.7-1.5,1.2-2.7,1.2c-2.1,0-3.4-1.4-3.4-3.2C686,481.1,686.7,480.2,687.5,479.5z M689.5,483.8
			c0.7,0,1.2-0.3,1.5-0.6v-0.2l-2.3-2.3h-0.2c-0.5,0.3-0.8,0.8-0.8,1.4v0.1C687.7,483,688.4,483.8,689.5,483.8z"/>
		<path class="st3" d="M708.8,474.8v1.6h-5v2.8h4.6v1.6h-4.6v2.9h5.1v1.6h-6.8v-10.4H708.8z"/>
		<path class="st3" d="M712.2,474.8l2.3,3.9h0.2l2.3-3.9h1.9l-3,5v0.2l3,5.1H717l-2.3-4h-0.2l-2.3,4h-2l3-5.1v-0.2l-3-5H712.2z"/>
		<path class="st3" d="M724.3,474.6c2.6,0,4,1.5,4,3.8v0.3h-1.7v-0.3c0-1.3-0.7-2.2-2.3-2.2c-1.6,0-2.5,1-2.5,2.6v2.5
			c0,1.6,0.9,2.6,2.5,2.6c1.6,0,2.3-0.9,2.3-2.2v-0.3h1.7v0.3c0,2.3-1.4,3.8-4,3.8c-2.6,0-4.2-1.5-4.2-4.2v-2.3
			C720.1,476.2,721.7,474.6,724.3,474.6z"/>
		<path class="st3" d="M737.1,474.8v1.6h-5v2.8h4.6v1.6H732v2.9h5.1v1.6h-6.8v-10.4H737.1z"/>
		<path class="st3" d="M740.9,474.8v8.8h5v1.6h-6.7v-10.4H740.9z"/>
	</g>
	<g>
		<path class="st7" d="M690.2,456.8c2.6,0,4.2,1.6,4.2,4.3v2.3c0,2.7-1.6,4.3-4.2,4.3c-2.6,0-4.2-1.6-4.2-4.3v-2.3
			C686.1,458.4,687.6,456.8,690.2,456.8z M687.8,463.4c0,1.7,0.8,2.7,2.4,2.7c1.7,0,2.4-1,2.4-2.7V461c0-1.7-0.8-2.7-2.4-2.7
			c-1.6,0-2.4,1-2.4,2.7V463.4z"/>
		<path class="st7" d="M700.7,457c1.9,0,3.3,1.3,3.3,3.2c0,1.9-1.4,3.2-3.3,3.2h-2.4v4h-1.7V457H700.7z M698.2,461.8h2.3
			c1.1,0,1.7-0.6,1.7-1.6c0-1-0.6-1.6-1.7-1.6h-2.3V461.8z"/>
		<path class="st7" d="M712.5,457v1.6h-5v2.8h4.6v1.6h-4.6v2.9h5.1v1.6h-6.8V457H712.5z"/>
		<path class="st7" d="M717.7,457l2.8,8.8h0.2V457h1.7v10.4h-3.1l-2.8-8.8h-0.2v8.8h-1.7V457H717.7z"/>
		<path class="st7" d="M735.1,463.2l2.2,4.2h-1.9l-2.1-4h-1.9v4h-1.7V457h4.4c1.9,0,3.3,1.3,3.3,3.2
			C737.5,461.8,736.5,462.9,735.1,463.2z M731.5,461.8h2.6c1.1,0,1.7-0.6,1.7-1.6c0-1-0.6-1.6-1.7-1.6h-2.6V461.8z"/>
		<path class="st7" d="M746.2,457v1.6h-5v2.8h4.6v1.6h-4.6v2.9h5.1v1.6h-6.8V457H746.2z"/>
		<path class="st7" d="M754.9,457v1.6h-4.8v2.8h4.5v1.6h-4.5v4.4h-1.7V457H754.9z"/>
		<path class="st7" d="M758.5,457v10.4h-1.7V457H758.5z"/>
		<path class="st7" d="M764.1,457l2.8,8.8h0.2V457h1.7v10.4h-3.1l-2.8-8.8h-0.2v8.8H761V457H764.1z"/>
		<path class="st7" d="M778,457v1.6h-5v2.8h4.6v1.6H773v2.9h5.1v1.6h-6.8V457H778z"/>
		<path class="st7" d="M687.5,479.5v-0.2c-0.4-0.6-0.7-1.2-0.7-1.9v-0.1c0-1.7,1.3-2.8,3.1-2.8c1.9,0,3.1,1.2,3.1,2.9v0.3h-1.7v-0.3
			c0-0.8-0.5-1.4-1.4-1.4c-0.9,0-1.4,0.5-1.4,1.2v0.1c0,0.8,0.6,1.4,1.7,2.4l1.7,1.7h0.3l1.4-2.4h1.8l-2.1,3.6v0.3l2.2,2.2h-2.2
			l-0.9-0.9h-0.2c-0.7,0.7-1.5,1.2-2.7,1.2c-2.1,0-3.4-1.4-3.4-3.2C686,481.1,686.7,480.2,687.5,479.5z M689.5,483.8
			c0.7,0,1.2-0.3,1.5-0.6v-0.2l-2.3-2.3h-0.2c-0.5,0.3-0.8,0.8-0.8,1.4v0.1C687.7,483,688.4,483.8,689.5,483.8z"/>
		<path class="st7" d="M708.8,474.8v1.6h-5v2.8h4.6v1.6h-4.6v2.9h5.1v1.6h-6.8v-10.4H708.8z"/>
		<path class="st7" d="M712.2,474.8l2.3,3.9h0.2l2.3-3.9h1.9l-3,5v0.2l3,5.1H717l-2.3-4h-0.2l-2.3,4h-2l3-5.1v-0.2l-3-5H712.2z"/>
		<path class="st7" d="M724.3,474.6c2.6,0,4,1.5,4,3.8v0.3h-1.7v-0.3c0-1.3-0.7-2.2-2.3-2.2c-1.6,0-2.5,1-2.5,2.6v2.5
			c0,1.6,0.9,2.6,2.5,2.6c1.6,0,2.3-0.9,2.3-2.2v-0.3h1.7v0.3c0,2.3-1.4,3.8-4,3.8c-2.6,0-4.2-1.5-4.2-4.2v-2.3
			C720.1,476.2,721.7,474.6,724.3,474.6z"/>
		<path class="st7" d="M737.1,474.8v1.6h-5v2.8h4.6v1.6H732v2.9h5.1v1.6h-6.8v-10.4H737.1z"/>
		<path class="st7" d="M740.9,474.8v8.8h5v1.6h-6.7v-10.4H740.9z"/>
	</g>
</g>
<g>
	<line class="st8" x1="395.5" y1="65.3" x2="395.5" y2="79.2"/>
	<g>
		<polygon class="st4" points="391.2,75.7 391.9,74.9 395.5,78.8 399.1,74.9 399.9,75.7 395.5,80.3 		"/>
	</g>
</g>
<g>
	<line class="st8" x1="561.2" y1="64.6" x2="561.2" y2="78.4"/>
	<g>
		<polygon class="st4" points="556.8,74.9 557.6,74.2 561.2,78 564.8,74.2 565.5,74.9 561.2,79.6 		"/>
	</g>
</g>
<g>
	<line class="st8" x1="228.1" y1="64.9" x2="228.1" y2="78.8"/>
	<g>
		<polygon class="st4" points="223.8,75.3 224.5,74.5 228.1,78.3 231.7,74.5 232.5,75.3 228.1,79.9 		"/>
	</g>
</g>
<g>
	<path class="st1" d="M355.7,100.1c1.5,0,2.5,0.6,3.6,1.9l-0.9,0.6c-0.8-1.1-1.7-1.5-2.7-1.5c-0.9,0-1.6,0.4-1.6,1.1
		c0,0.8,0.8,0.9,1.7,1.1l0.7,0.1c1.7,0.3,2.9,0.7,2.9,2.1c0,1.4-1.3,2.3-3.2,2.3c-2,0-3.2-1.2-3.8-2.4l1-0.5
		c0.5,1.2,1.5,1.9,2.8,1.9c1.2,0,2-0.5,2-1.3c0-0.8-0.9-0.9-1.9-1.1l-0.7-0.1c-1.6-0.2-2.7-0.7-2.7-2.1
		C353,100.9,354.2,100.1,355.7,100.1z"/>
	<path class="st1" d="M364.7,100.1c2.1,0,3.5,1.5,3.5,3.6v0.6h-5.9c0.1,1.5,1.1,2.4,2.6,2.4c1.2,0,1.8-0.6,2.2-1.4l1,0.5
		c-0.5,0.9-1.4,1.9-3.2,1.9c-2.3,0-3.8-1.7-3.8-3.9C361.1,101.7,362.6,100.1,364.7,100.1z M367,103.4c0-1.4-0.9-2.3-2.3-2.3
		c-1.4,0-2.3,0.8-2.4,2.3H367z"/>
	<path class="st1" d="M371.6,107.5h-1.1V97.2h1.1V107.5z"/>
	<path class="st1" d="M377.6,100.1c2.1,0,3.5,1.5,3.5,3.6v0.6h-5.9c0.1,1.5,1.1,2.4,2.6,2.4c1.2,0,1.8-0.6,2.2-1.4l1,0.5
		c-0.5,0.9-1.4,1.9-3.2,1.9c-2.3,0-3.8-1.7-3.8-3.9C374,101.7,375.5,100.1,377.6,100.1z M379.9,103.4c0-1.4-0.9-2.3-2.3-2.3
		c-1.4,0-2.3,0.8-2.4,2.3H379.9z"/>
	<path class="st1" d="M386.6,100.1c1.9,0,3.2,1.2,3.5,2.8l-1.1,0.2c-0.1-1.1-1-2-2.3-2c-1.5,0-2.6,1.1-2.6,2.8
		c0,1.6,1.1,2.8,2.6,2.8c1.5,0,2.1-0.9,2.3-2l1.1,0.2c-0.3,1.4-1.4,2.8-3.5,2.8c-2.2,0-3.8-1.6-3.8-3.8
		C382.9,101.7,384.5,100.1,386.6,100.1z"/>
	<path class="st1" d="M393.6,100.3v-2.6h1.1v2.6h2.3v1h-2.3v4.8c0,0.3,0.1,0.4,0.4,0.4h1.5v1h-1.9c-0.7,0-1.1-0.4-1.1-1.1v-5.1h-2.2
		v-1H393.6z"/>
	<path class="st4" d="M411.3,100.3v7.2h-1.1v-6.2h-3.2v6.2h-1.1v-6.2h-2.2v-1h2.2v-2c0-0.7,0.4-1.2,1.1-1.2h1.7v1h-1.3
		c-0.3,0-0.4,0.1-0.4,0.4v1.7H411.3z M411.7,98.1c0,0.5-0.4,1-1,1c-0.6,0-1-0.4-1-1s0.4-1,1-1C411.2,97.1,411.7,97.5,411.7,98.1z"/>
	<path class="st4" d="M415.2,101.4h0.2c0.3-0.7,0.8-1.1,1.9-1.1h0.9v1.1h-1.2c-1.1,0-1.7,0.6-1.7,1.8v4.4h-1.1v-7.2h1.1V101.4z"/>
	<path class="st4" d="M422.6,100.1c1.5,0,2.5,0.6,3.6,1.9l-0.9,0.6c-0.8-1.1-1.7-1.5-2.7-1.5c-0.9,0-1.6,0.4-1.6,1.1
		c0,0.8,0.8,0.9,1.7,1.1l0.7,0.1c1.7,0.3,2.9,0.7,2.9,2.1c0,1.4-1.3,2.3-3.2,2.3c-2,0-3.2-1.2-3.8-2.4l1-0.5
		c0.5,1.2,1.5,1.9,2.8,1.9c1.2,0,2-0.5,2-1.3c0-0.8-0.9-0.9-1.9-1.1l-0.7-0.1c-1.6-0.2-2.7-0.7-2.7-2.1
		C419.9,100.9,421.1,100.1,422.6,100.1z"/>
	<path class="st4" d="M429.8,100.3v-2.6h1.1v2.6h2.3v1h-2.3v4.8c0,0.3,0.1,0.4,0.4,0.4h1.5v1h-1.9c-0.7,0-1.1-0.4-1.1-1.1v-5.1h-2.2
		v-1H429.8z"/>
	<path class="st4" d="M363.3,113l0,10.4h-1.2v-9.2h-0.2l-2.1,3.3h-1.4l3-4.5H363.3z"/>
	<path class="st4" d="M369.7,112.8c2.3,0,3.8,1.5,3.8,4.2v2.3c0,2.7-1.4,4.2-3.8,4.2c-2.4,0-3.8-1.5-3.8-4.2v-2.3
		C365.9,114.4,367.3,112.8,369.7,112.8z M367.1,119.4c0,2,0.9,3.1,2.6,3.1c1.7,0,2.6-1.1,2.6-3.1V117c0-2-0.9-3.1-2.6-3.1
		c-1.7,0-2.6,1.1-2.6,3.1V119.4z"/>
	<path class="st4" d="M379.5,112.8c2.3,0,3.8,1.5,3.8,4.2v2.3c0,2.7-1.4,4.2-3.8,4.2c-2.4,0-3.8-1.5-3.8-4.2v-2.3
		C375.7,114.4,377.1,112.8,379.5,112.8z M376.9,119.4c0,2,0.9,3.1,2.6,3.1c1.7,0,2.6-1.1,2.6-3.1V117c0-2-0.9-3.1-2.6-3.1
		c-1.7,0-2.6,1.1-2.6,3.1V119.4z"/>
	<path class="st4" d="M392.1,117.3h0.2c0.3-0.7,0.8-1.1,1.9-1.1h0.9v1.1h-1.2c-1.1,0-1.7,0.6-1.7,1.8v4.4H391v-7.2h1.1V117.3z"/>
	<path class="st4" d="M399.8,116c2.1,0,3.5,1.5,3.5,3.6v0.6h-5.9c0.1,1.5,1.1,2.4,2.6,2.4c1.2,0,1.8-0.6,2.2-1.4l1,0.5
		c-0.5,0.9-1.4,1.9-3.2,1.9c-2.3,0-3.8-1.7-3.8-3.9C396.2,117.6,397.7,116,399.8,116z M402.1,119.2c0-1.4-0.9-2.3-2.3-2.3
		c-1.4,0-2.3,0.8-2.4,2.3H402.1z"/>
	<path class="st4" d="M408.1,116c1.5,0,2.5,0.6,3.6,1.9l-0.9,0.6c-0.8-1.1-1.7-1.5-2.7-1.5c-0.9,0-1.6,0.4-1.6,1.1
		c0,0.8,0.8,0.9,1.7,1.1l0.7,0.1c1.7,0.3,2.9,0.7,2.9,2.1c0,1.4-1.3,2.3-3.2,2.3c-2,0-3.2-1.2-3.8-2.4l1-0.5
		c0.5,1.2,1.5,1.9,2.8,1.9c1.2,0,2-0.5,2-1.3c0-0.8-0.9-0.9-1.9-1.1l-0.7-0.1c-1.6-0.2-2.7-0.7-2.7-2.1
		C405.4,116.7,406.6,116,408.1,116z"/>
	<path class="st4" d="M419.5,123.4v-1.3h-0.2c-0.4,0.7-1.1,1.4-2.5,1.4c-1.5,0-2.8-1-2.8-3v-4.4h1.1v4.3c0,1.4,0.8,2.1,2,2.1
		c1.4,0,2.4-0.9,2.4-2.6v-3.7h1.1v7.2H419.5z"/>
	<path class="st4" d="M424.5,123.4h-1.1V113h1.1V123.4z"/>
	<path class="st4" d="M428.6,116.2v-2.6h1.1v2.6h2.3v1h-2.3v4.8c0,0.3,0.1,0.4,0.4,0.4h1.5v1h-1.9c-0.7,0-1.1-0.4-1.1-1.1v-5.1h-2.2
		v-1H428.6z"/>
</g>
<g>
	<path class="st1" d="M188.7,99.9c1.5,0,2.5,0.6,3.6,1.9l-0.9,0.6c-0.8-1.1-1.7-1.5-2.7-1.5c-0.9,0-1.6,0.4-1.6,1.1
		c0,0.8,0.8,0.9,1.7,1.1l0.7,0.1c1.7,0.3,2.9,0.7,2.9,2.1c0,1.4-1.3,2.3-3.2,2.3c-2,0-3.2-1.2-3.8-2.4l1-0.5
		c0.5,1.2,1.5,1.9,2.8,1.9c1.2,0,2-0.5,2-1.3c0-0.8-0.9-0.9-1.9-1.1l-0.7-0.1c-1.6-0.2-2.7-0.7-2.7-2.1
		C186,100.7,187.2,99.9,188.7,99.9z"/>
	<path class="st1" d="M197.7,99.9c2.1,0,3.5,1.5,3.5,3.6v0.6h-5.9c0.1,1.5,1.1,2.4,2.6,2.4c1.2,0,1.8-0.6,2.2-1.4l1,0.5
		c-0.5,0.9-1.4,1.9-3.2,1.9c-2.3,0-3.8-1.7-3.8-3.9C194.1,101.5,195.7,99.9,197.7,99.9z M200.1,103.2c0-1.4-0.9-2.3-2.3-2.3
		c-1.4,0-2.3,0.8-2.4,2.3H200.1z"/>
	<path class="st1" d="M204.7,107.3h-1.1V97h1.1V107.3z"/>
	<path class="st1" d="M210.6,99.9c2.1,0,3.5,1.5,3.5,3.6v0.6h-5.9c0.1,1.5,1.1,2.4,2.6,2.4c1.2,0,1.8-0.6,2.2-1.4l1,0.5
		c-0.5,0.9-1.4,1.9-3.2,1.9c-2.3,0-3.8-1.7-3.8-3.9C207,101.5,208.5,99.9,210.6,99.9z M212.9,103.2c0-1.4-0.9-2.3-2.3-2.3
		c-1.4,0-2.3,0.8-2.4,2.3H212.9z"/>
	<path class="st1" d="M219.6,99.9c1.9,0,3.2,1.2,3.5,2.8l-1.1,0.2c-0.1-1.1-1-2-2.3-2c-1.5,0-2.6,1.1-2.6,2.8c0,1.6,1.1,2.8,2.6,2.8
		c1.5,0,2.1-0.9,2.3-2l1.1,0.2c-0.3,1.4-1.4,2.8-3.5,2.8c-2.2,0-3.8-1.6-3.8-3.8C215.9,101.5,217.5,99.9,219.6,99.9z"/>
	<path class="st1" d="M226.6,100.1v-2.6h1.1v2.6h2.3v1h-2.3v4.8c0,0.3,0.1,0.4,0.4,0.4h1.5v1h-1.9c-0.7,0-1.1-0.4-1.1-1.1v-5.1h-2.2
		v-1H226.6z"/>
	<path class="st4" d="M244.3,100.1v7.2h-1.1v-6.2h-3.2v6.2h-1.1v-6.2h-2.2v-1h2.2v-2c0-0.7,0.4-1.2,1.1-1.2h1.7v1h-1.3
		c-0.3,0-0.4,0.1-0.4,0.4v1.7H244.3z M244.7,97.8c0,0.5-0.4,1-1,1c-0.6,0-1-0.4-1-1s0.4-1,1-1C244.3,96.9,244.7,97.3,244.7,97.8z"/>
	<path class="st4" d="M248.2,101.2h0.2c0.3-0.7,0.8-1.1,1.9-1.1h0.9v1.1h-1.2c-1.1,0-1.7,0.6-1.7,1.8v4.4h-1.1v-7.2h1.1V101.2z"/>
	<path class="st4" d="M255.6,99.9c1.5,0,2.5,0.6,3.6,1.9l-0.9,0.6c-0.8-1.1-1.7-1.5-2.7-1.5c-0.9,0-1.6,0.4-1.6,1.1
		c0,0.8,0.8,0.9,1.7,1.1l0.7,0.1c1.7,0.3,2.9,0.7,2.9,2.1c0,1.4-1.3,2.3-3.2,2.3c-2,0-3.2-1.2-3.8-2.4l1-0.5
		c0.5,1.2,1.5,1.9,2.8,1.9c1.2,0,2-0.5,2-1.3c0-0.8-0.9-0.9-1.9-1.1l-0.7-0.1c-1.6-0.2-2.7-0.7-2.7-2.1
		C252.9,100.7,254.1,99.9,255.6,99.9z"/>
	<path class="st4" d="M262.8,100.1v-2.6h1.1v2.6h2.3v1h-2.3v4.8c0,0.3,0.1,0.4,0.4,0.4h1.5v1h-1.9c-0.7,0-1.1-0.4-1.1-1.1v-5.1h-2.2
		v-1H262.8z"/>
	<path class="st4" d="M196.4,112.8l0,10.4h-1.2V114H195l-2.1,3.3h-1.4l3-4.5H196.4z"/>
	<path class="st4" d="M202.7,112.6c2.3,0,3.8,1.5,3.8,4.2v2.3c0,2.7-1.4,4.2-3.8,4.2c-2.4,0-3.8-1.5-3.8-4.2v-2.3
		C198.9,114.2,200.3,112.6,202.7,112.6z M200.1,119.2c0,2,0.9,3.1,2.6,3.1c1.7,0,2.6-1.1,2.6-3.1v-2.4c0-2-0.9-3.1-2.6-3.1
		c-1.7,0-2.6,1.1-2.6,3.1V119.2z"/>
	<path class="st4" d="M212.5,112.6c2.3,0,3.8,1.5,3.8,4.2v2.3c0,2.7-1.4,4.2-3.8,4.2c-2.4,0-3.8-1.5-3.8-4.2v-2.3
		C208.7,114.2,210.1,112.6,212.5,112.6z M209.9,119.2c0,2,0.9,3.1,2.6,3.1c1.7,0,2.6-1.1,2.6-3.1v-2.4c0-2-0.9-3.1-2.6-3.1
		c-1.7,0-2.6,1.1-2.6,3.1V119.2z"/>
	<path class="st4" d="M225.1,117.1h0.2c0.3-0.7,0.8-1.1,1.9-1.1h0.9v1.1h-1.2c-1.1,0-1.7,0.6-1.7,1.8v4.4H224V116h1.1V117.1z"/>
	<path class="st4" d="M232.9,115.8c2.1,0,3.5,1.5,3.5,3.6v0.6h-5.9c0.1,1.5,1.1,2.4,2.6,2.4c1.2,0,1.8-0.6,2.2-1.4l1,0.5
		c-0.5,0.9-1.4,1.9-3.2,1.9c-2.3,0-3.8-1.7-3.8-3.9C229.3,117.4,230.8,115.8,232.9,115.8z M235.2,119c0-1.4-0.9-2.3-2.3-2.3
		c-1.4,0-2.3,0.8-2.4,2.3H235.2z"/>
	<path class="st4" d="M241.1,115.8c1.5,0,2.5,0.6,3.6,1.9l-0.9,0.6c-0.8-1.1-1.7-1.5-2.7-1.5c-0.9,0-1.6,0.4-1.6,1.1
		c0,0.8,0.8,0.9,1.7,1.1l0.7,0.1c1.7,0.3,2.9,0.7,2.9,2.1c0,1.4-1.3,2.3-3.2,2.3c-2,0-3.2-1.2-3.8-2.4l1-0.5
		c0.5,1.2,1.5,1.9,2.8,1.9c1.2,0,2-0.5,2-1.3c0-0.8-0.9-0.9-1.9-1.1l-0.7-0.1c-1.6-0.2-2.7-0.7-2.7-2.1
		C238.4,116.5,239.6,115.8,241.1,115.8z"/>
	<path class="st4" d="M252.5,123.2v-1.3h-0.2c-0.4,0.7-1.1,1.4-2.5,1.4c-1.5,0-2.8-1-2.8-3V116h1.1v4.3c0,1.4,0.8,2.1,2,2.1
		c1.4,0,2.4-0.9,2.4-2.6V116h1.1v7.2H252.5z"/>
	<path class="st4" d="M257.6,123.2h-1.1v-10.4h1.1V123.2z"/>
	<path class="st4" d="M261.7,116v-2.6h1.1v2.6h2.3v1h-2.3v4.8c0,0.3,0.1,0.4,0.4,0.4h1.5v1h-1.9c-0.7,0-1.1-0.4-1.1-1.1V117h-2.2v-1
		H261.7z"/>
</g>
<g>
	<path class="st1" d="M521.8,101.3c1.5,0,2.5,0.6,3.6,1.9l-0.9,0.6c-0.8-1.1-1.7-1.5-2.7-1.5c-0.9,0-1.6,0.4-1.6,1.1
		c0,0.8,0.8,0.9,1.7,1.1l0.7,0.1c1.7,0.3,2.9,0.7,2.9,2.1c0,1.4-1.3,2.3-3.2,2.3c-2,0-3.2-1.2-3.8-2.4l1-0.5
		c0.5,1.2,1.5,1.9,2.8,1.9c1.2,0,2-0.5,2-1.3c0-0.8-0.9-0.9-1.9-1.1l-0.7-0.1c-1.6-0.2-2.7-0.7-2.7-2.1
		C519.1,102,520.3,101.3,521.8,101.3z"/>
	<path class="st1" d="M530.8,101.3c2.1,0,3.5,1.5,3.5,3.6v0.6h-5.9c0.1,1.5,1.1,2.4,2.6,2.4c1.2,0,1.8-0.6,2.2-1.4l1,0.5
		c-0.5,0.9-1.4,1.9-3.2,1.9c-2.3,0-3.8-1.7-3.8-3.9C527.2,102.9,528.7,101.3,530.8,101.3z M533.1,104.5c0-1.4-0.9-2.3-2.3-2.3
		c-1.4,0-2.3,0.8-2.4,2.3H533.1z"/>
	<path class="st1" d="M537.7,108.7h-1.1V98.3h1.1V108.7z"/>
	<path class="st1" d="M543.7,101.3c2.1,0,3.5,1.5,3.5,3.6v0.6h-5.9c0.1,1.5,1.1,2.4,2.6,2.4c1.2,0,1.8-0.6,2.2-1.4l1,0.5
		c-0.5,0.9-1.4,1.9-3.2,1.9c-2.3,0-3.8-1.7-3.8-3.9C540.1,102.9,541.6,101.3,543.7,101.3z M546,104.5c0-1.4-0.9-2.3-2.3-2.3
		c-1.4,0-2.3,0.8-2.4,2.3H546z"/>
	<path class="st1" d="M552.7,101.3c1.9,0,3.2,1.2,3.5,2.8l-1.1,0.2c-0.1-1.1-1-2-2.3-2c-1.5,0-2.6,1.1-2.6,2.8
		c0,1.6,1.1,2.8,2.6,2.8c1.5,0,2.1-0.9,2.3-2l1.1,0.2c-0.3,1.4-1.4,2.8-3.5,2.8c-2.2,0-3.8-1.6-3.8-3.8
		C549,102.9,550.6,101.3,552.7,101.3z"/>
	<path class="st1" d="M559.7,101.5v-2.6h1.1v2.6h2.3v1h-2.3v4.8c0,0.3,0.1,0.4,0.4,0.4h1.5v1h-1.9c-0.7,0-1.1-0.4-1.1-1.1v-5.1h-2.2
		v-1H559.7z"/>
	<path class="st4" d="M577.4,101.5v7.2h-1.1v-6.2H573v6.2h-1.1v-6.2h-2.2v-1h2.2v-2c0-0.7,0.4-1.2,1.1-1.2h1.7v1h-1.3
		c-0.3,0-0.4,0.1-0.4,0.4v1.7H577.4z M577.8,99.2c0,0.5-0.4,1-1,1c-0.6,0-1-0.4-1-1s0.4-1,1-1C577.4,98.3,577.8,98.7,577.8,99.2z"/>
	<path class="st4" d="M581.3,102.6h0.2c0.3-0.7,0.8-1.1,1.9-1.1h0.9v1.1H583c-1.1,0-1.7,0.6-1.7,1.8v4.4h-1.1v-7.2h1.1V102.6z"/>
	<path class="st4" d="M588.7,101.3c1.5,0,2.5,0.6,3.6,1.9l-0.9,0.6c-0.8-1.1-1.7-1.5-2.7-1.5c-0.9,0-1.6,0.4-1.6,1.1
		c0,0.8,0.8,0.9,1.7,1.1l0.7,0.1c1.7,0.3,2.9,0.7,2.9,2.1c0,1.4-1.3,2.3-3.2,2.3c-2,0-3.2-1.2-3.8-2.4l1-0.5
		c0.5,1.2,1.5,1.9,2.8,1.9c1.2,0,2-0.5,2-1.3c0-0.8-0.9-0.9-1.9-1.1l-0.7-0.1c-1.6-0.2-2.7-0.7-2.7-2.1
		C586,102,587.2,101.3,588.7,101.3z"/>
	<path class="st4" d="M595.9,101.5v-2.6h1.1v2.6h2.3v1H597v4.8c0,0.3,0.1,0.4,0.4,0.4h1.5v1H597c-0.7,0-1.1-0.4-1.1-1.1v-5.1h-2.2
		v-1H595.9z"/>
	<path class="st4" d="M529.5,114.2l0,10.4h-1.2v-9.2h-0.2l-2.1,3.3h-1.4l3-4.5H529.5z"/>
	<path class="st4" d="M535.8,114c2.3,0,3.8,1.5,3.8,4.2v2.3c0,2.7-1.4,4.2-3.8,4.2c-2.4,0-3.8-1.5-3.8-4.2v-2.3
		C532,115.5,533.4,114,535.8,114z M533.2,120.6c0,2,0.9,3.1,2.6,3.1c1.7,0,2.6-1.1,2.6-3.1v-2.4c0-2-0.9-3.1-2.6-3.1
		c-1.7,0-2.6,1.1-2.6,3.1V120.6z"/>
	<path class="st4" d="M545.6,114c2.3,0,3.8,1.5,3.8,4.2v2.3c0,2.7-1.4,4.2-3.8,4.2c-2.4,0-3.8-1.5-3.8-4.2v-2.3
		C541.8,115.5,543.2,114,545.6,114z M543,120.6c0,2,0.9,3.1,2.6,3.1c1.7,0,2.6-1.1,2.6-3.1v-2.4c0-2-0.9-3.1-2.6-3.1
		c-1.7,0-2.6,1.1-2.6,3.1V120.6z"/>
	<path class="st4" d="M558.2,118.4h0.2c0.3-0.7,0.8-1.1,1.9-1.1h0.9v1.1H560c-1.1,0-1.7,0.6-1.7,1.8v4.4h-1.1v-7.2h1.1V118.4z"/>
	<path class="st4" d="M565.9,117.1c2.1,0,3.5,1.5,3.5,3.6v0.6h-5.9c0.1,1.5,1.1,2.4,2.6,2.4c1.2,0,1.8-0.6,2.2-1.4l1,0.5
		c-0.5,0.9-1.4,1.9-3.2,1.9c-2.3,0-3.8-1.7-3.8-3.9C562.3,118.8,563.9,117.1,565.9,117.1z M568.3,120.4c0-1.4-0.9-2.3-2.3-2.3
		c-1.4,0-2.3,0.8-2.4,2.3H568.3z"/>
	<path class="st4" d="M574.2,117.2c1.5,0,2.5,0.6,3.6,1.9l-0.9,0.6c-0.8-1.1-1.7-1.5-2.7-1.5c-0.9,0-1.6,0.4-1.6,1.1
		c0,0.8,0.8,0.9,1.7,1.1l0.7,0.1c1.7,0.3,2.9,0.7,2.9,2.1c0,1.4-1.3,2.3-3.2,2.3c-2,0-3.2-1.2-3.8-2.4l1-0.5
		c0.5,1.2,1.5,1.9,2.8,1.9c1.2,0,2-0.5,2-1.3c0-0.8-0.9-0.9-1.9-1.1l-0.7-0.1c-1.6-0.2-2.7-0.7-2.7-2.1
		C571.5,117.9,572.7,117.2,574.2,117.2z"/>
	<path class="st4" d="M585.6,124.6v-1.3h-0.2c-0.4,0.7-1.1,1.4-2.5,1.4c-1.5,0-2.8-1-2.8-3v-4.4h1.1v4.3c0,1.4,0.8,2.1,2,2.1
		c1.4,0,2.4-0.9,2.4-2.6v-3.7h1.1v7.2H585.6z"/>
	<path class="st4" d="M590.6,124.6h-1.1v-10.4h1.1V124.6z"/>
	<path class="st4" d="M594.7,117.4v-2.6h1.1v2.6h2.3v1h-2.3v4.8c0,0.3,0.1,0.4,0.4,0.4h1.5v1h-1.9c-0.7,0-1.1-0.4-1.1-1.1v-5.1h-2.2
		v-1H594.7z"/>
</g>
<rect y="240.2" class="st0" width="659.1" height="303.1"/>
<g>
	<rect x="13.3" y="251.9" class="st1" width="134.5" height="22.1"/>
	<g>
		<path class="st2" d="M24.9,258.9c2.3,0,3.6,1.2,3.6,3.5v1.8c0,2.3-1.3,3.5-3.6,3.5H22v-8.9h2.9V258.9z M23.4,266.4h1.4
			c1.5,0,2.1-0.7,2.1-2.2v-1.9c0-1.5-0.6-2.2-2.1-2.2h-1.4V266.4z"/>
		<path class="st2" d="M34.4,258.9l2.6,8.9h-1.6l-0.6-2h-3.4l-0.6,2h-1.6l2.6-8.9H34.4z M34.5,264.4l-1.3-4.2h-0.1l-1.3,4.2H34.5z"
			/>
		<path class="st2" d="M44,258.9v1.4h-2.8v7.5h-1.5v-7.5h-2.8v-1.4H44z"/>
		<path class="st2" d="M49.1,258.9l2.6,8.9h-1.6l-0.6-2h-3.4l-0.6,2h-1.6l2.6-8.9H49.1z M49.2,264.4l-1.3-4.2h-0.1l-1.3,4.2H49.2z"
			/>
		<path class="st2" d="M63.1,258.9v1.4h-4.3v2.4h4v1.4h-3.9v2.4h4.3v1.4h-5.8V259h5.7V258.9z"/>
		<path class="st2" d="M66,258.9l2,3.4h0.2l1.9-3.4h1.7l-2.5,4.3v0.2l2.5,4.4h-1.7l-2-3.4h-0.2l-2,3.4h-1.7l2.6-4.4v-0.2l-2.5-4.3
			H66z"/>
		<path class="st2" d="M76.9,258.9c1.7,0,2.8,1.1,2.8,2.8c0,1.7-1.2,2.8-2.8,2.8h-2.1v3.4h-1.4v-8.9H76.9L76.9,258.9z M74.9,263h1.9
			c1,0,1.5-0.5,1.5-1.4c0-0.8-0.5-1.4-1.5-1.4h-1.9V263z"/>
		<path class="st2" d="M82.7,258.9v7.5h4.2v1.4h-5.7v-8.9H82.7L82.7,258.9z"/>
		<path class="st2" d="M91.8,258.7c2.2,0,3.6,1.4,3.6,3.7v1.9c0,2.3-1.4,3.7-3.6,3.7c-2.2,0-3.6-1.4-3.6-3.7v-1.9
			C88.2,260.1,89.6,258.7,91.8,258.7z M89.7,264.3c0,1.4,0.6,2.2,2.1,2.2c1.5,0,2.1-0.8,2.1-2.2v-2c0-1.4-0.7-2.2-2.1-2.2
			c-1.4,0-2.1,0.8-2.1,2.2V264.3z"/>
		<path class="st2" d="M101.8,264.2l1.9,3.6H102l-1.8-3.5h-1.6v3.5h-1.5v-8.9h3.8c1.7,0,2.8,1.1,2.8,2.8
			C103.8,262.9,102.9,263.9,101.8,264.2z M98.6,262.9h2.2c1,0,1.5-0.5,1.5-1.4c0-0.8-0.5-1.4-1.5-1.4h-2.2V262.9z"/>
		<path class="st2" d="M109.7,258.9l2.6,8.9h-1.6l-0.6-2h-3.4l-0.6,2h-1.6l2.6-8.9H109.7z M109.8,264.4l-1.3-4.2h-0.1l-1.3,4.2
			H109.8z"/>
		<path class="st2" d="M119.4,258.9v1.4h-2.8v7.5h-1.5v-7.5h-2.8v-1.4H119.4z"/>
		<path class="st2" d="M122.4,258.9v8.9h-1.5v-8.9H122.4z"/>
		<path class="st2" d="M127.8,258.7c2.2,0,3.6,1.4,3.6,3.7v1.9c0,2.3-1.4,3.7-3.6,3.7s-3.6-1.4-3.6-3.7v-1.9
			C124.2,260.1,125.6,258.7,127.8,258.7z M125.7,264.3c0,1.4,0.6,2.2,2.1,2.2c1.5,0,2.1-0.8,2.1-2.2v-2c0-1.4-0.7-2.2-2.1-2.2
			c-1.4,0-2.1,0.8-2.1,2.2V264.3z"/>
		<path class="st2" d="M135.8,258.9l2.4,7.5h0.1v-7.5h1.5v8.9h-2.6l-2.4-7.5h-0.1v7.5h-1.5v-8.9H135.8z"/>
	</g>
</g>
<g>
	<rect x="13.4" y="570.1" class="st1" width="107.3" height="22.1"/>
	<g>
		<path class="st2" d="M21.8,576.6l2.1,7.5h0.1l2.1-7.5h1.6l-2.6,8.9h-2.3l-2.6-8.9H21.8z"/>
		<path class="st2" d="M30.7,576.6v8.9h-1.5v-8.9H30.7z"/>
		<path class="st2" d="M39.1,579.2v0.4h-1.5v-0.3c0-1.1-0.7-1.6-1.8-1.6c-1,0-1.6,0.5-1.6,1.2c0,0.8,0.6,1.1,1.8,1.3l0.3,0.1
			c1.7,0.4,2.8,1.1,2.8,2.6c0,1.7-1.4,2.8-3.2,2.8c-2.2,0-3.6-1.3-3.6-3.3v-0.3h1.5v0.3c0,1.3,0.7,2,2.1,2c1.2,0,1.7-0.6,1.7-1.4
			c0-0.8-0.6-1.2-1.8-1.4l-0.3-0.1c-1.7-0.4-2.9-1-2.9-2.6c0-1.6,1.4-2.5,3.1-2.5C37.7,576.4,39.1,577.4,39.1,579.2z"/>
		<path class="st2" d="M42.5,576.6v5.8c0,1.2,0.6,1.9,1.9,1.9c1.3,0,1.9-0.6,1.9-1.9v-5.8h1.5v5.8c0,2-1.3,3.3-3.4,3.3
			c-2.1,0-3.4-1.2-3.4-3.3v-5.8H42.5z"/>
		<path class="st2" d="M54.1,576.6l2.6,8.9h-1.6l-0.6-2h-3.4l-0.6,2h-1.6l2.6-8.9H54.1z M54.2,582.1l-1.3-4.2h-0.1l-1.3,4.2H54.2z"
			/>
		<path class="st2" d="M59.6,576.6v7.5h4.2v1.4h-5.7v-8.9H59.6z"/>
		<path class="st2" d="M66.9,576.6v8.9h-1.5v-8.9H66.9z"/>
		<path class="st2" d="M75,576.6v1.3l-4.6,6.2H75v1.4h-6.4v-1.3l4.6-6.2h-4.3v-1.4H75z"/>
		<path class="st2" d="M81.1,576.6l2.6,8.9h-1.6l-0.6-2h-3.4l-0.6,2h-1.6l2.6-8.9H81.1z M81.2,582.1l-1.3-4.2h-0.1l-1.3,4.2H81.2z"
			/>
		<path class="st2" d="M90.9,576.6v1.4h-2.8v7.5h-1.5V578h-2.8v-1.4H90.9z"/>
		<path class="st2" d="M93.8,576.6v8.9h-1.5v-8.9H93.8z"/>
		<path class="st2" d="M99.2,576.4c2.2,0,3.6,1.4,3.6,3.7v1.9c0,2.3-1.4,3.7-3.6,3.7s-3.6-1.4-3.6-3.7v-1.9
			C95.6,577.7,97,576.4,99.2,576.4z M97.1,582.1c0,1.4,0.6,2.2,2.1,2.2s2.1-0.8,2.1-2.2v-2c0-1.4-0.7-2.2-2.1-2.2
			c-1.4,0-2.1,0.8-2.1,2.2V582.1z"/>
		<path class="st2" d="M107.3,576.6l2.4,7.5h0.1v-7.5h1.5v8.9h-2.6l-2.4-7.5h-0.1v7.5h-1.5v-8.9H107.3z"/>
	</g>
</g>
<g>
	<path class="st8" d="M400.1,250.4"/>
</g>
<g>
	<path class="st1" d="M349.2,260.4v7.2H348v-6.2h-3.2v6.2h-1.1v-6.2h-2.2v-1h2.2v-2c0-0.7,0.4-1.2,1.1-1.2h1.7v1h-1.3
		c-0.3,0-0.4,0.1-0.4,0.4v1.7H349.2z M349.6,258.1c0,0.5-0.4,1-1,1c-0.6,0-1-0.4-1-1s0.4-1,1-1C349.2,257.2,349.6,257.6,349.6,258.1
		z"/>
	<path class="st1" d="M353.1,267.6H352v-10.4h1.1V267.6z"/>
	<path class="st1" d="M357.2,260.4v-2.6h1.1v2.6h2.3v1h-2.3v4.8c0,0.3,0.1,0.4,0.4,0.4h1.5v1h-1.9c-0.7,0-1.1-0.4-1.1-1.1v-5.1H355
		v-1H357.2z"/>
	<path class="st1" d="M365.9,260.2c2.1,0,3.5,1.5,3.5,3.6v0.6h-5.9c0.1,1.5,1.1,2.4,2.6,2.4c1.2,0,1.8-0.6,2.2-1.4l1,0.5
		c-0.5,0.9-1.4,1.9-3.2,1.9c-2.3,0-3.8-1.7-3.8-3.9C362.3,261.8,363.8,260.2,365.9,260.2z M368.2,263.5c0-1.4-0.9-2.3-2.3-2.3
		c-1.4,0-2.3,0.8-2.4,2.3H368.2z"/>
	<path class="st1" d="M372.8,261.5h0.2c0.3-0.7,0.8-1.1,1.9-1.1h0.9v1.1h-1.2c-1.1,0-1.7,0.6-1.7,1.8v4.4h-1.1v-7.2h1.1V261.5z"/>
	<path class="st4" d="M386.2,260.2c2.2,0,3.7,1.6,3.7,3.8c0,2.2-1.5,3.8-3.7,3.8c-2.2,0-3.7-1.6-3.7-3.8
		C382.5,261.8,384,260.2,386.2,260.2z M386.2,266.8c1.5,0,2.6-1.1,2.6-2.8c0-1.7-1-2.8-2.6-2.8c-1.5,0-2.6,1.1-2.6,2.8
		C383.6,265.7,384.7,266.8,386.2,266.8z"/>
	<path class="st4" d="M393.3,260.4v1.3h0.2c0.4-0.7,1.1-1.4,2.5-1.4c1.5,0,2.9,1,2.9,3v4.4h-1.1v-4.3c0-1.4-0.8-2.1-2-2.1
		c-1.4,0-2.4,0.9-2.4,2.6v3.7h-1.1v-7.2H393.3z"/>
	<path class="st4" d="M402.8,267.6h-1.1v-10.4h1.1V267.6z"/>
	<path class="st4" d="M412.3,260.4l-4.4,10.2h-1.2l1.3-2.9l-3.1-7.3h1.2l2.4,5.8h0.2l2.4-5.8H412.3z"/>
	<path class="st4" d="M420.9,260.4v-2.6h1.1v2.6h2.3v1H422v4.8c0,0.3,0.1,0.4,0.4,0.4h1.5v1H422c-0.7,0-1.1-0.4-1.1-1.1v-5.1h-2.2
		v-1H420.9z"/>
	<path class="st4" d="M427.6,257.3v4.4h0.2c0.4-0.7,1.1-1.4,2.5-1.4c1.5,0,2.9,1,2.9,3v4.4h-1.1v-4.3c0-1.4-0.8-2.1-2-2.1
		c-1.4,0-2.4,0.9-2.4,2.6v3.7h-1.1v-10.4H427.6z"/>
	<path class="st4" d="M439.1,260.2c2.1,0,3.5,1.5,3.5,3.6v0.6h-5.9c0.1,1.5,1.1,2.4,2.6,2.4c1.2,0,1.8-0.6,2.2-1.4l1,0.5
		c-0.5,0.9-1.4,1.9-3.2,1.9c-2.3,0-3.8-1.7-3.8-3.9C435.5,261.8,437,260.2,439.1,260.2z M441.4,263.5c0-1.4-0.9-2.3-2.3-2.3
		c-1.4,0-2.3,0.8-2.4,2.3H441.4z"/>
	<path class="st4" d="M360.3,276.1c1.5,0,2.5,0.6,3.6,1.9l-0.9,0.6c-0.8-1.1-1.7-1.5-2.7-1.5c-0.9,0-1.6,0.4-1.6,1.1
		c0,0.8,0.8,0.9,1.7,1.1l0.7,0.1c1.7,0.3,2.9,0.7,2.9,2.1c0,1.4-1.3,2.3-3.2,2.3c-2,0-3.2-1.2-3.8-2.4l1-0.5
		c0.5,1.2,1.5,1.9,2.8,1.9c1.2,0,2-0.5,2-1.3c0-0.8-0.9-0.9-1.9-1.1l-0.7-0.1c-1.6-0.2-2.7-0.7-2.7-2.1
		C357.6,276.8,358.8,276.1,360.3,276.1z"/>
	<path class="st4" d="M366.2,276.3h1.1v1.2h0.2c0.4-0.7,1.1-1.5,2.6-1.5c1.9,0,3.4,1.6,3.4,3.8c0,2.3-1.5,3.8-3.4,3.8
		c-1.5,0-2.2-0.7-2.6-1.4h-0.2v4.2h-1.1V276.3z M372.4,279.9c0-1.8-1-2.8-2.6-2.8c-1.5,0-2.6,1.1-2.6,2.8c0,1.7,1,2.8,2.6,2.8
		C371.4,282.7,372.4,281.7,372.4,279.9z"/>
	<path class="st4" d="M379,276.1c2.1,0,3.5,1.5,3.5,3.6v0.6h-5.9c0.1,1.5,1.1,2.4,2.6,2.4c1.2,0,1.8-0.6,2.2-1.4l1,0.5
		c-0.5,0.9-1.4,1.9-3.2,1.9c-2.3,0-3.8-1.7-3.8-3.9C375.4,277.7,376.9,276.1,379,276.1z M381.4,279.3c0-1.4-0.9-2.3-2.3-2.3
		c-1.4,0-2.3,0.8-2.4,2.3H381.4z"/>
	<path class="st4" d="M387.9,276.1c2.1,0,3.5,1.5,3.5,3.6v0.6h-5.9c0.1,1.5,1.1,2.4,2.6,2.4c1.2,0,1.8-0.6,2.2-1.4l1,0.5
		c-0.5,0.9-1.4,1.9-3.2,1.9c-2.3,0-3.8-1.7-3.8-3.9C384.3,277.7,385.9,276.1,387.9,276.1z M390.3,279.3c0-1.4-0.9-2.3-2.3-2.3
		c-1.4,0-2.3,0.8-2.4,2.3H390.3z"/>
	<path class="st4" d="M397,276.1c1.9,0,3.2,1.2,3.5,2.8l-1.1,0.2c-0.1-1.1-1-2-2.3-2c-1.5,0-2.6,1.1-2.6,2.8c0,1.6,1.1,2.8,2.6,2.8
		c1.5,0,2.1-0.9,2.3-2l1.1,0.2c-0.3,1.4-1.4,2.8-3.5,2.8c-2.2,0-3.8-1.6-3.8-3.8C393.3,277.7,394.9,276.1,397,276.1z"/>
	<path class="st4" d="M403.9,273.1v4.4h0.2c0.4-0.7,1.1-1.4,2.5-1.4c1.5,0,2.9,1,2.9,3v4.4h-1.1v-4.3c0-1.4-0.8-2.1-2-2.1
		c-1.4,0-2.4,0.9-2.4,2.6v3.7h-1.1v-10.4H403.9z"/>
	<path class="st4" d="M415.3,276.1c2.1,0,3.5,1.5,3.5,3.6v0.6h-5.9c0.1,1.5,1.1,2.4,2.6,2.4c1.2,0,1.8-0.6,2.2-1.4l1,0.5
		c-0.5,0.9-1.4,1.9-3.2,1.9c-2.3,0-3.8-1.7-3.8-3.9C411.7,277.7,413.2,276.1,415.3,276.1z M417.6,279.3c0-1.4-0.9-2.3-2.3-2.3
		c-1.4,0-2.3,0.8-2.4,2.3H417.6z"/>
	<path class="st4" d="M423.6,276.1c1.5,0,2.5,0.6,3.6,1.9l-0.9,0.6c-0.8-1.1-1.7-1.5-2.7-1.5c-0.9,0-1.6,0.4-1.6,1.1
		c0,0.8,0.8,0.9,1.7,1.1l0.7,0.1c1.7,0.3,2.9,0.7,2.9,2.1c0,1.4-1.3,2.3-3.2,2.3c-2,0-3.2-1.2-3.8-2.4l1-0.5
		c0.5,1.2,1.5,1.9,2.8,1.9c1.2,0,2-0.5,2-1.3c0-0.8-0.9-0.9-1.9-1.1l-0.7-0.1c-1.6-0.2-2.7-0.7-2.7-2.1
		C420.8,276.8,422.1,276.1,423.6,276.1z"/>
</g>
<g>
	<path class="st1" d="M340.1,180.3c2.1,0,3.5,1.5,3.5,3.6v0.6h-5.9c0.1,1.5,1.1,2.4,2.6,2.4c1.2,0,1.8-0.6,2.2-1.4l1,0.5
		c-0.5,0.9-1.4,1.9-3.2,1.9c-2.3,0-3.8-1.7-3.8-3.9C336.5,182,338,180.3,340.1,180.3z M342.4,183.6c0-1.4-0.9-2.3-2.3-2.3
		c-1.4,0-2.3,0.8-2.4,2.3H342.4z"/>
	<path class="st1" d="M346.4,180.5l2.2,2.8h0.2l2.1-2.8h1.4l-2.8,3.5l2.9,3.7H351l-2.2-3h-0.2l-2.3,3h-1.4l2.9-3.7l-2.8-3.5H346.4z"
		/>
	<path class="st1" d="M355.9,180.5v-2.6h1.1v2.6h2.3v1h-2.3v4.8c0,0.3,0.1,0.4,0.4,0.4h1.5v1H357c-0.7,0-1.1-0.4-1.1-1.1v-5.1h-2.2
		v-1H355.9z"/>
	<path class="st1" d="M362.6,181.6h0.2c0.3-0.7,0.8-1.1,1.9-1.1h0.9v1.1h-1.2c-1.1,0-1.7,0.6-1.7,1.8v4.4h-1.1v-7.2h1.1V181.6z"/>
	<path class="st1" d="M370.8,180.3c2,0,3.1,1.1,3.1,2.9v4.6h-1.1v-1.2h-0.2c-0.4,0.7-1.2,1.4-2.7,1.4c-1.6,0-2.7-0.8-2.7-2.1
		c0-1.3,1.1-2,2.8-2.2l2.9-0.3v-0.3c0-1.1-0.7-1.8-2-1.8s-2.1,0.7-2.5,1.6l-1-0.5C367.8,181.4,369,180.3,370.8,180.3z M370,187
		c1.8,0,2.8-1,2.8-2.5v-0.1l-2.7,0.3c-1,0.1-1.8,0.4-1.8,1.2C368.3,186.6,369,187,370,187z"/>
	<path class="st1" d="M379.9,180.3c1.9,0,3.2,1.2,3.5,2.8l-1.1,0.2c-0.1-1.1-1-2-2.3-2c-1.5,0-2.6,1.1-2.6,2.8
		c0,1.6,1.1,2.8,2.6,2.8c1.5,0,2.1-0.9,2.3-2l1.1,0.2c-0.3,1.4-1.4,2.8-3.5,2.8c-2.2,0-3.8-1.6-3.8-3.8
		C376.2,181.9,377.8,180.3,379.9,180.3z"/>
	<path class="st1" d="M386.9,180.5v-2.6h1.1v2.6h2.3v1H388v4.8c0,0.3,0.1,0.4,0.4,0.4h1.5v1H388c-0.7,0-1.1-0.4-1.1-1.1v-5.1h-2.2
		v-1H386.9z"/>
	<path class="st4" d="M403.2,187.8v-1.3H403c-0.4,0.7-1.1,1.4-2.5,1.4c-1.5,0-2.8-1-2.8-3v-4.4h1.1v4.3c0,1.4,0.8,2.1,2,2.1
		c1.4,0,2.4-0.9,2.4-2.6v-3.7h1.1v7.2H403.2z"/>
	<path class="st4" d="M408.2,181.6h0.2c0.3-0.7,0.8-1.1,1.9-1.1h0.9v1.1H410c-1.1,0-1.7,0.6-1.7,1.8v4.4h-1.1v-7.2h1.1V181.6z"/>
	<path class="st4" d="M414.3,187.8h-1.1v-10.4h1.1V187.8z"/>
	<path class="st4" d="M417.8,185.9c0.6,0,1,0.4,1,1v1.5c0,0.7-0.5,1.1-1.1,1.1h-0.9v-0.7h0.8c0.3,0,0.4-0.1,0.4-0.4v-0.5
		c-0.1,0-0.1,0-0.3,0c-0.5,0-1-0.4-1-1C416.8,186.3,417.3,185.9,417.8,185.9z"/>
	<path class="st4" d="M427.9,180.5v-2.6h1.1v2.6h2.3v1H429v4.8c0,0.3,0.1,0.4,0.4,0.4h1.5v1H429c-0.7,0-1.1-0.4-1.1-1.1v-5.1h-2.2
		v-1H427.9z"/>
	<path class="st4" d="M434.1,177.3c0.5,0,1,0.4,1,1s-0.4,1-1,1s-1-0.4-1-1S433.5,177.3,434.1,177.3z M434.6,187.8h-1.1v-7.2h1.1
		V187.8z"/>
	<path class="st4" d="M438.7,180.5v-2.6h1.1v2.6h2.3v1h-2.3v4.8c0,0.3,0.1,0.4,0.4,0.4h1.5v1h-1.9c-0.7,0-1.1-0.4-1.1-1.1v-5.1h-2.2
		v-1H438.7z"/>
	<path class="st4" d="M445.5,187.8h-1.1v-10.4h1.1V187.8z"/>
	<path class="st4" d="M451.4,180.3c2.1,0,3.5,1.5,3.5,3.6v0.6H449c0.1,1.5,1.1,2.4,2.6,2.4c1.2,0,1.8-0.6,2.2-1.4l1,0.5
		c-0.5,0.9-1.4,1.9-3.2,1.9c-2.3,0-3.8-1.7-3.8-3.9C447.8,182,449.3,180.3,451.4,180.3z M453.8,183.6c0-1.4-0.9-2.3-2.3-2.3
		c-1.4,0-2.3,0.8-2.4,2.3H453.8z"/>
	<path class="st4" d="M362.7,196.2c2,0,3.1,1.1,3.1,2.9v4.6h-1.1v-1.2h-0.2c-0.4,0.7-1.2,1.4-2.7,1.4c-1.6,0-2.7-0.8-2.7-2.1
		c0-1.3,1.1-2,2.8-2.2l2.9-0.3V199c0-1.1-0.7-1.8-2-1.8s-2.1,0.7-2.5,1.6l-1-0.5C359.8,197.3,360.9,196.2,362.7,196.2z M362,202.9
		c1.8,0,2.8-1,2.8-2.5v-0.1l-2.7,0.3c-1,0.1-1.8,0.4-1.8,1.2C360.3,202.5,361,202.9,362,202.9z"/>
	<path class="st4" d="M369.7,196.4v1.3h0.2c0.4-0.7,1.1-1.4,2.5-1.4c1.5,0,2.9,1,2.9,3v4.4h-1.1v-4.3c0-1.4-0.8-2.1-2-2.1
		c-1.4,0-2.4,0.9-2.4,2.6v3.7h-1.1v-7.2H369.7z"/>
	<path class="st4" d="M384.9,203.7h-1.1v-1.2h-0.2c-0.4,0.7-1.1,1.5-2.6,1.5c-1.9,0-3.4-1.6-3.4-3.8c0-2.3,1.5-3.8,3.4-3.8
		c1.5,0,2.2,0.7,2.6,1.4h0.2v-4.4h1.1V203.7z M378.7,200c0,1.8,1.1,2.8,2.6,2.8c1.5,0,2.6-1.1,2.6-2.8c0-1.7-1-2.8-2.6-2.8
		C379.7,197.2,378.7,198.3,378.7,200z"/>
	<path class="st4" d="M393.4,196.4l2.3,6.1h0.2l2.3-6.1h1.2l-2.8,7.2H395l-2.8-7.2H393.4z"/>
	<path class="st4" d="M402,193.2c0.5,0,1,0.4,1,1s-0.4,1-1,1c-0.5,0-1-0.4-1-1S401.5,193.2,402,193.2z M402.6,203.7h-1.1v-7.2h1.1
		V203.7z"/>
	<path class="st4" d="M408.5,196.2c2.1,0,3.5,1.5,3.5,3.6v0.6h-5.9c0.1,1.5,1.1,2.4,2.6,2.4c1.2,0,1.8-0.6,2.2-1.4l1,0.5
		c-0.5,0.9-1.4,1.9-3.2,1.9c-2.3,0-3.8-1.7-3.8-3.9C404.9,197.9,406.4,196.2,408.5,196.2z M410.8,199.5c0-1.4-0.9-2.3-2.3-2.3
		c-1.4,0-2.3,0.8-2.4,2.3H410.8z"/>
	<path class="st4" d="M414.9,196.4l1.3,6h0.2l1.6-6h1.7l1.6,6h0.2l1.3-6h1.2l-1.7,7.2h-1.7l-1.6-6h-0.2l-1.6,6h-1.7l-1.7-7.2H414.9z
		"/>
	<path class="st4" d="M428.8,196.2c1.5,0,2.5,0.6,3.6,1.9l-0.9,0.6c-0.8-1.1-1.7-1.5-2.7-1.5c-0.9,0-1.6,0.4-1.6,1.1
		c0,0.8,0.8,0.9,1.7,1.1l0.7,0.1c1.7,0.3,2.9,0.7,2.9,2.1c0,1.4-1.3,2.3-3.2,2.3c-2,0-3.2-1.2-3.8-2.4l1-0.5
		c0.5,1.2,1.5,1.9,2.8,1.9c1.2,0,2-0.5,2-1.3c0-0.8-0.9-0.9-1.9-1.1l-0.7-0.1c-1.6-0.2-2.7-0.7-2.7-2.1
		C426,197,427.3,196.2,428.8,196.2z"/>
</g>
<g>
	<path class="st1" d="M322.9,337.8c0.5,0,1,0.4,1,1s-0.4,1-1,1s-1-0.4-1-1S322.4,337.8,322.9,337.8z M323.5,348.3h-1.1v-7.2h1.1
		V348.3z"/>
	<path class="st1" d="M333.2,348.3h-1.1v-1.2h-0.2c-0.4,0.7-1.1,1.5-2.6,1.5c-1.9,0-3.4-1.6-3.4-3.8s1.5-3.8,3.4-3.8
		c1.5,0,2.2,0.7,2.6,1.4h0.2v-4.4h1.1V348.3z M327,344.7c0,1.8,1.1,2.8,2.6,2.8c1.5,0,2.6-1.1,2.6-2.8c0-1.7-1-2.8-2.6-2.8
		C328,341.9,327,342.9,327,344.7z"/>
	<path class="st1" d="M339.1,340.8c2.1,0,3.5,1.5,3.5,3.6v0.6h-5.9c0.1,1.5,1.1,2.4,2.6,2.4c1.2,0,1.8-0.6,2.2-1.4l1,0.5
		c-0.5,0.9-1.4,1.9-3.2,1.9c-2.3,0-3.8-1.7-3.8-3.9C335.5,342.5,337,340.8,339.1,340.8z M341.4,344.1c0-1.4-0.9-2.3-2.3-2.3
		c-1.4,0-2.3,0.8-2.4,2.3H341.4z"/>
	<path class="st1" d="M346,341.1v1.3h0.2c0.4-0.7,1.1-1.4,2.5-1.4c1.5,0,2.9,1,2.9,3v4.4h-1.1V344c0-1.4-0.8-2.1-2-2.1
		c-1.4,0-2.4,0.9-2.4,2.6v3.7h-1.1v-7.2H346z"/>
	<path class="st1" d="M355.5,341.1v-2.6h1.1v2.6h2.3v1h-2.3v4.8c0,0.3,0.1,0.4,0.4,0.4h1.5v1h-1.9c-0.7,0-1.1-0.4-1.1-1.1v-5.1h-2.2
		v-1H355.5z"/>
	<path class="st1" d="M361.7,337.8c0.5,0,1,0.4,1,1s-0.4,1-1,1s-1-0.4-1-1S361.1,337.8,361.7,337.8z M362.2,348.3h-1.1v-7.2h1.1
		V348.3z"/>
	<path class="st1" d="M366.4,341.1v-2c0-0.7,0.4-1.2,1.1-1.2h1.9v1h-1.5c-0.3,0-0.4,0.1-0.4,0.4v1.7h2.2v1h-2.2v6.2h-1.1v-6.2h-2.2
		v-1H366.4z"/>
	<path class="st1" d="M378.5,341.1l-4.4,10.2h-1.2l1.3-2.9l-3.1-7.3h1.2l2.4,5.8h0.2l2.4-5.8H378.5z"/>
	<path class="st4" d="M387.1,341.1v-2.6h1.1v2.6h2.3v1h-2.3v4.8c0,0.3,0.1,0.4,0.4,0.4h1.5v1h-1.9c-0.7,0-1.1-0.4-1.1-1.1v-5.1h-2.2
		v-1H387.1z"/>
	<path class="st4" d="M393.8,337.9v4.4h0.2c0.4-0.7,1.1-1.4,2.5-1.4c1.5,0,2.9,1,2.9,3v4.4h-1.1V344c0-1.4-0.8-2.1-2-2.1
		c-1.4,0-2.4,0.9-2.4,2.6v3.7h-1.1v-10.4H393.8z"/>
	<path class="st4" d="M405.3,340.8c2.1,0,3.5,1.5,3.5,3.6v0.6h-5.9c0.1,1.5,1.1,2.4,2.6,2.4c1.2,0,1.8-0.6,2.2-1.4l1,0.5
		c-0.5,0.9-1.4,1.9-3.2,1.9c-2.3,0-3.8-1.7-3.8-3.9C401.7,342.5,403.2,340.8,405.3,340.8z M407.6,344.1c0-1.4-0.9-2.3-2.3-2.3
		c-1.4,0-2.3,0.8-2.4,2.3H407.6z"/>
	<path class="st4" d="M417.4,341.1v1.3h0.2c0.4-0.7,1.1-1.4,2.5-1.4c1.5,0,2.9,1,2.9,3v4.4h-1.1V344c0-1.4-0.8-2.1-2-2.1
		c-1.4,0-2.4,0.9-2.4,2.6v3.7h-1.1v-7.2H417.4z"/>
	<path class="st4" d="M428.9,340.9c2,0,3.1,1.1,3.1,2.9v4.6h-1.1v-1.2h-0.2c-0.4,0.7-1.2,1.4-2.7,1.4c-1.6,0-2.7-0.8-2.7-2.1
		c0-1.3,1.1-2,2.8-2.2l2.9-0.3v-0.3c0-1.1-0.7-1.8-2-1.8c-1.3,0-2.1,0.7-2.5,1.6l-1-0.5C425.9,341.9,427.1,340.9,428.9,340.9z
		 M428.1,347.5c1.8,0,2.8-1,2.8-2.5v-0.1l-2.7,0.3c-1,0.1-1.8,0.4-1.8,1.2C426.4,347.1,427.1,347.5,428.1,347.5z"/>
	<path class="st4" d="M435.9,341.1v1h0.2c0.4-0.7,1.1-1.1,2-1.1c1.1,0,1.7,0.5,2.1,1.3h0.2c0.4-0.7,1.1-1.3,2.2-1.3
		c1.4,0,2.5,0.9,2.5,2.4v5h-1.1v-4.9c0-0.9-0.7-1.5-1.6-1.5c-1,0-1.8,0.7-1.8,1.9v4.5h-1.1v-4.9c0-0.9-0.6-1.5-1.6-1.5
		c-1,0-1.8,0.7-1.8,1.9v4.5h-1.1v-7.2H435.9z"/>
	<path class="st4" d="M450.9,340.8c2.1,0,3.5,1.5,3.5,3.6v0.6h-5.9c0.1,1.5,1.1,2.4,2.6,2.4c1.2,0,1.8-0.6,2.2-1.4l1,0.5
		c-0.5,0.9-1.4,1.9-3.2,1.9c-2.3,0-3.8-1.7-3.8-3.9C447.3,342.5,448.8,340.8,450.9,340.8z M453.2,344.1c0-1.4-0.9-2.3-2.3-2.3
		c-1.4,0-2.3,0.8-2.4,2.3H453.2z"/>
	<path class="st4" d="M459.2,340.9c1.5,0,2.5,0.6,3.6,1.9l-0.9,0.6c-0.8-1.1-1.7-1.5-2.7-1.5c-0.9,0-1.6,0.4-1.6,1.1
		c0,0.8,0.8,0.9,1.7,1.1l0.7,0.1c1.7,0.3,2.9,0.7,2.9,2.1s-1.3,2.3-3.2,2.3c-2,0-3.2-1.2-3.8-2.4l1-0.5c0.5,1.2,1.5,1.9,2.8,1.9
		c1.2,0,2-0.5,2-1.3c0-0.8-0.9-0.9-1.9-1.1l-0.7-0.1c-1.6-0.2-2.7-0.7-2.7-2.1C456.4,341.6,457.7,340.9,459.2,340.9z"/>
	<path class="st4" d="M339.9,356.7c2.2,0,3.7,1.6,3.7,3.8s-1.5,3.8-3.7,3.8c-2.2,0-3.7-1.6-3.7-3.8S337.7,356.7,339.9,356.7z
		 M339.9,363.4c1.5,0,2.6-1.1,2.6-2.8s-1-2.8-2.6-2.8c-1.5,0-2.6,1.1-2.6,2.8C337.3,362.3,338.3,363.4,339.9,363.4z"/>
	<path class="st4" d="M347.2,356.9v-2c0-0.7,0.4-1.2,1.1-1.2h1.9v1h-1.5c-0.3,0-0.4,0.1-0.4,0.4v1.7h2.2v1h-2.2v6.2h-1.1v-6.2H345
		v-1H347.2z"/>
	<path class="st4" d="M359.1,356.9v-2.6h1.1v2.6h2.3v1h-2.3v4.8c0,0.3,0.1,0.4,0.4,0.4h1.5v1h-1.9c-0.7,0-1.1-0.4-1.1-1.1v-5.1h-2.2
		v-1H359.1z"/>
	<path class="st4" d="M365.8,353.8v4.4h0.2c0.4-0.7,1.1-1.4,2.5-1.4c1.5,0,2.9,1,2.9,3v4.4h-1.1v-4.3c0-1.4-0.8-2.1-2-2.1
		c-1.4,0-2.4,0.9-2.4,2.6v3.7h-1.1v-10.4H365.8z"/>
	<path class="st4" d="M377.2,356.7c2.1,0,3.5,1.5,3.5,3.6v0.6h-5.9c0.1,1.5,1.1,2.4,2.6,2.4c1.2,0,1.8-0.6,2.2-1.4l1,0.5
		c-0.5,0.9-1.4,1.9-3.2,1.9c-2.3,0-3.8-1.7-3.8-3.9C373.6,358.4,375.1,356.7,377.2,356.7z M379.6,360c0-1.4-0.9-2.3-2.3-2.3
		c-1.4,0-2.3,0.8-2.4,2.3H379.6z"/>
	<path class="st4" d="M390.8,356.7c1.5,0,2.5,0.6,3.6,1.9l-0.9,0.6c-0.8-1.1-1.7-1.5-2.7-1.5c-0.9,0-1.6,0.4-1.6,1.1
		c0,0.8,0.8,0.9,1.7,1.1l0.7,0.1c1.7,0.3,2.9,0.7,2.9,2.1s-1.3,2.3-3.2,2.3c-2,0-3.2-1.2-3.8-2.4l1-0.5c0.5,1.2,1.5,1.9,2.8,1.9
		c1.2,0,2-0.5,2-1.3c0-0.8-0.9-0.9-1.9-1.1l-0.7-0.1c-1.6-0.2-2.7-0.7-2.7-2.1C388.1,357.5,389.3,356.7,390.8,356.7z"/>
	<path class="st4" d="M396.7,356.9h1.1v1.2h0.2c0.4-0.7,1.1-1.5,2.6-1.5c1.9,0,3.4,1.6,3.4,3.8s-1.5,3.8-3.4,3.8
		c-1.5,0-2.2-0.7-2.6-1.4h-0.2v4.2h-1.1V356.9z M402.9,360.6c0-1.8-1-2.8-2.6-2.8c-1.5,0-2.6,1.1-2.6,2.8c0,1.7,1,2.8,2.6,2.8
		C401.9,363.4,402.9,362.3,402.9,360.6z"/>
	<path class="st4" d="M409.5,356.7c2.1,0,3.5,1.5,3.5,3.6v0.6h-5.9c0.1,1.5,1.1,2.4,2.6,2.4c1.2,0,1.8-0.6,2.2-1.4l1,0.5
		c-0.5,0.9-1.4,1.9-3.2,1.9c-2.3,0-3.8-1.7-3.8-3.9C405.9,358.4,407.5,356.7,409.5,356.7z M411.9,360c0-1.4-0.9-2.3-2.3-2.3
		c-1.4,0-2.3,0.8-2.4,2.3H411.9z"/>
	<path class="st4" d="M418.5,356.7c2,0,3.1,1.1,3.1,2.9v4.6h-1.1V363h-0.2c-0.4,0.7-1.2,1.4-2.7,1.4c-1.6,0-2.7-0.8-2.7-2.1
		c0-1.3,1.1-2,2.8-2.2l2.9-0.3v-0.3c0-1.1-0.7-1.8-2-1.8c-1.3,0-2.1,0.7-2.5,1.6l-1-0.5C415.5,357.8,416.7,356.7,418.5,356.7z
		 M417.7,363.4c1.8,0,2.8-1,2.8-2.5v-0.1l-2.7,0.3c-1,0.1-1.8,0.4-1.8,1.2C416,363,416.7,363.4,417.7,363.4z"/>
	<path class="st4" d="M427.9,359.8l3.3,4.4h-1.4l-2.7-3.7l-1.6,1.4v2.3h-1.1v-10.4h1.1v6.5h0.2l3.9-3.4h1.7L427.9,359.8z"/>
	<path class="st4" d="M435.8,356.7c2.1,0,3.5,1.5,3.5,3.6v0.6h-5.9c0.1,1.5,1.1,2.4,2.6,2.4c1.2,0,1.8-0.6,2.2-1.4l1,0.5
		c-0.5,0.9-1.4,1.9-3.2,1.9c-2.3,0-3.8-1.7-3.8-3.9C432.2,358.4,433.7,356.7,435.8,356.7z M438.1,360c0-1.4-0.9-2.3-2.3-2.3
		c-1.4,0-2.3,0.8-2.4,2.3H438.1z"/>
	<path class="st4" d="M442.6,358h0.2c0.3-0.7,0.8-1.1,1.9-1.1h0.9v1.1h-1.2c-1.1,0-1.7,0.6-1.7,1.8v4.4h-1.1v-7.2h1.1V358z"/>
	<path class="st4" d="M450.1,356.7c1.5,0,2.5,0.6,3.6,1.9l-0.9,0.6c-0.8-1.1-1.7-1.5-2.7-1.5c-0.9,0-1.6,0.4-1.6,1.1
		c0,0.8,0.8,0.9,1.7,1.1l0.7,0.1c1.7,0.3,2.9,0.7,2.9,2.1s-1.3,2.3-3.2,2.3c-2,0-3.2-1.2-3.8-2.4l1-0.5c0.5,1.2,1.5,1.9,2.8,1.9
		c1.2,0,2-0.5,2-1.3c0-0.8-0.9-0.9-1.9-1.1l-0.7-0.1c-1.6-0.2-2.7-0.7-2.7-2.1C447.3,357.5,448.6,356.7,450.1,356.7z"/>
</g>
<g>
	<path class="st1" d="M301.5,419.7c1.5,0,2.5,0.6,3.6,1.9l-0.9,0.6c-0.8-1.1-1.7-1.5-2.7-1.5c-0.9,0-1.6,0.4-1.6,1.1
		c0,0.8,0.8,0.9,1.7,1.1l0.7,0.1c1.7,0.3,2.9,0.7,2.9,2.1s-1.3,2.3-3.2,2.3c-2,0-3.2-1.2-3.8-2.4l1-0.5c0.5,1.2,1.5,1.9,2.8,1.9
		c1.2,0,2-0.5,2-1.3c0-0.8-0.9-0.9-1.9-1.1l-0.7-0.1c-1.6-0.2-2.7-0.7-2.7-2.1C298.8,420.5,300,419.7,301.5,419.7z"/>
	<path class="st1" d="M312.9,427.1v-1.3h-0.2c-0.4,0.7-1.1,1.4-2.5,1.4c-1.5,0-2.8-1-2.8-3v-4.4h1.1v4.3c0,1.4,0.8,2.1,2,2.1
		c1.4,0,2.4-0.9,2.4-2.6v-3.7h1.1v7.2H312.9z"/>
	<path class="st1" d="M317.9,419.9v1h0.2c0.4-0.7,1.1-1.1,2-1.1c1.1,0,1.7,0.5,2.1,1.3h0.2c0.4-0.7,1.1-1.3,2.2-1.3
		c1.4,0,2.5,0.9,2.5,2.4v5h-1.1v-4.9c0-0.9-0.7-1.5-1.6-1.5c-1,0-1.8,0.7-1.8,1.9v4.5h-1.1v-4.9c0-0.9-0.6-1.5-1.6-1.5
		c-1,0-1.8,0.7-1.8,1.9v4.5h-1.1v-7.2H317.9z"/>
	<path class="st4" d="M336.3,419.9v-2.6h1.1v2.6h2.3v1h-2.3v4.8c0,0.3,0.1,0.4,0.4,0.4h1.5v1h-1.9c-0.7,0-1.1-0.4-1.1-1.1v-5.1h-2.2
		v-1H336.3z"/>
	<path class="st4" d="M343.1,416.8v4.4h0.2c0.4-0.7,1.1-1.4,2.5-1.4c1.5,0,2.9,1,2.9,3v4.4h-1.1v-4.3c0-1.4-0.8-2.1-2-2.1
		c-1.4,0-2.4,0.9-2.4,2.6v3.7h-1.1v-10.4H343.1z"/>
	<path class="st4" d="M354.5,419.7c2.1,0,3.5,1.5,3.5,3.6v0.6h-5.9c0.1,1.5,1.1,2.4,2.6,2.4c1.2,0,1.8-0.6,2.2-1.4l1,0.5
		c-0.5,0.9-1.4,1.9-3.2,1.9c-2.3,0-3.8-1.7-3.8-3.9C350.9,421.3,352.4,419.7,354.5,419.7z M356.8,423c0-1.4-0.9-2.3-2.3-2.3
		c-1.4,0-2.3,0.8-2.4,2.3H356.8z"/>
	<path class="st4" d="M366.6,419.9v1.3h0.2c0.4-0.7,1.1-1.4,2.5-1.4c1.5,0,2.9,1,2.9,3v4.4H371v-4.3c0-1.4-0.8-2.1-2-2.1
		c-1.4,0-2.4,0.9-2.4,2.6v3.7h-1.1v-7.2H366.6z"/>
	<path class="st4" d="M380.3,427.1v-1.3h-0.2c-0.4,0.7-1.1,1.4-2.5,1.4c-1.5,0-2.8-1-2.8-3v-4.4h1.1v4.3c0,1.4,0.8,2.1,2,2.1
		c1.4,0,2.4-0.9,2.4-2.6v-3.7h1.1v7.2H380.3z"/>
	<path class="st4" d="M385.4,419.9v1h0.2c0.4-0.7,1.1-1.1,2-1.1c1.1,0,1.7,0.5,2.1,1.3h0.2c0.4-0.7,1.1-1.3,2.2-1.3
		c1.4,0,2.5,0.9,2.5,2.4v5h-1.1v-4.9c0-0.9-0.7-1.5-1.6-1.5c-1,0-1.8,0.7-1.8,1.9v4.5h-1.1v-4.9c0-0.9-0.6-1.5-1.6-1.5
		c-1,0-1.8,0.7-1.8,1.9v4.5h-1.1v-7.2H385.4z"/>
	<path class="st4" d="M398.4,416.8v4.4h0.2c0.4-0.7,1.1-1.5,2.6-1.5c1.9,0,3.4,1.6,3.4,3.8s-1.5,3.8-3.4,3.8c-1.5,0-2.2-0.7-2.6-1.4
		h-0.2v1.2h-1.1v-10.4H398.4z M398.4,423.5c0,1.7,1,2.8,2.6,2.8c1.5,0,2.6-1,2.6-2.8c0-1.8-1-2.8-2.6-2.8
		C399.4,420.7,398.4,421.8,398.4,423.5z"/>
	<path class="st4" d="M410.1,419.7c2.1,0,3.5,1.5,3.5,3.6v0.6h-5.9c0.1,1.5,1.1,2.4,2.6,2.4c1.2,0,1.8-0.6,2.2-1.4l1,0.5
		c-0.5,0.9-1.4,1.9-3.2,1.9c-2.3,0-3.8-1.7-3.8-3.9C406.5,421.3,408,419.7,410.1,419.7z M412.4,423c0-1.4-0.9-2.3-2.3-2.3
		c-1.4,0-2.3,0.8-2.4,2.3H412.4z"/>
	<path class="st4" d="M417,421h0.2c0.3-0.7,0.8-1.1,1.9-1.1h0.9v1.1h-1.2c-1.1,0-1.7,0.6-1.7,1.8v4.4h-1.1v-7.2h1.1V421z"/>
	<path class="st4" d="M430.4,419.7c2.2,0,3.7,1.6,3.7,3.8s-1.5,3.8-3.7,3.8c-2.2,0-3.7-1.6-3.7-3.8S428.2,419.7,430.4,419.7z
		 M430.4,426.3c1.5,0,2.6-1.1,2.6-2.8s-1-2.8-2.6-2.8c-1.5,0-2.6,1.1-2.6,2.8C427.8,425.2,428.8,426.3,430.4,426.3z"/>
	<path class="st4" d="M437.7,419.9v-2c0-0.7,0.4-1.2,1.1-1.2h1.9v1h-1.5c-0.3,0-0.4,0.1-0.4,0.4v1.7h2.2v1h-2.2v6.2h-1.1v-6.2h-2.2
		v-1H437.7z"/>
	<path class="st4" d="M448.8,419.9l2.3,6.1h0.2l2.3-6.1h1.2l-2.8,7.2h-1.6l-2.8-7.2H448.8z"/>
	<path class="st4" d="M457.4,416.7c0.5,0,1,0.4,1,1s-0.4,1-1,1s-1-0.4-1-1S456.8,416.7,457.4,416.7z M457.9,427.1h-1.1v-7.2h1.1
		V427.1z"/>
	<path class="st4" d="M463.9,419.7c2.1,0,3.5,1.5,3.5,3.6v0.6h-5.9c0.1,1.5,1.1,2.4,2.6,2.4c1.2,0,1.8-0.6,2.2-1.4l1,0.5
		c-0.5,0.9-1.4,1.9-3.2,1.9c-2.3,0-3.8-1.7-3.8-3.9C460.3,421.3,461.8,419.7,463.9,419.7z M466.2,423c0-1.4-0.9-2.3-2.3-2.3
		c-1.4,0-2.3,0.8-2.4,2.3H466.2z"/>
	<path class="st4" d="M470.2,419.9l1.3,6h0.2l1.6-6h1.7l1.6,6h0.2l1.3-6h1.2l-1.7,7.2h-1.7l-1.6-6h-0.2l-1.6,6h-1.7l-1.7-7.2H470.2z
		"/>
	<path class="st4" d="M484.1,419.7c1.5,0,2.5,0.6,3.6,1.9l-0.9,0.6c-0.8-1.1-1.7-1.5-2.7-1.5c-0.9,0-1.6,0.4-1.6,1.1
		c0,0.8,0.8,0.9,1.7,1.1l0.7,0.1c1.7,0.3,2.9,0.7,2.9,2.1s-1.3,2.3-3.2,2.3c-2,0-3.2-1.2-3.8-2.4l1-0.5c0.5,1.2,1.5,1.9,2.8,1.9
		c1.2,0,2-0.5,2-1.3c0-0.8-0.9-0.9-1.9-1.1l-0.7-0.1c-1.6-0.2-2.7-0.7-2.7-2.1C481.4,420.5,482.6,419.7,484.1,419.7z"/>
	<path class="st4" d="M269.7,435.6c2.2,0,3.7,1.6,3.7,3.8s-1.5,3.8-3.7,3.8c-2.2,0-3.7-1.6-3.7-3.8S267.5,435.6,269.7,435.6z
		 M269.7,442.2c1.5,0,2.6-1.1,2.6-2.8s-1-2.8-2.6-2.8c-1.5,0-2.6,1.1-2.6,2.8C267.1,441.1,268.2,442.2,269.7,442.2z"/>
	<path class="st4" d="M277,435.8v-2c0-0.7,0.4-1.2,1.1-1.2h1.9v1h-1.5c-0.3,0-0.4,0.1-0.4,0.4v1.7h2.2v1h-2.2v6.2H277v-6.2h-2.2v-1
		H277z"/>
	<path class="st4" d="M288.9,435.8v-2.6h1.1v2.6h2.3v1H290v4.8c0,0.3,0.1,0.4,0.4,0.4h1.5v1H290c-0.7,0-1.1-0.4-1.1-1.1v-5.1h-2.2
		v-1H288.9z"/>
	<path class="st4" d="M295.7,432.6v4.4h0.2c0.4-0.7,1.1-1.4,2.5-1.4c1.5,0,2.9,1,2.9,3v4.4h-1.1v-4.3c0-1.4-0.8-2.1-2-2.1
		c-1.4,0-2.4,0.9-2.4,2.6v3.7h-1.1v-10.4H295.7z"/>
	<path class="st4" d="M307.1,435.6c2.1,0,3.5,1.5,3.5,3.6v0.6h-5.9c0.1,1.5,1.1,2.4,2.6,2.4c1.2,0,1.8-0.6,2.2-1.4l1,0.5
		c-0.5,0.9-1.4,1.9-3.2,1.9c-2.3,0-3.8-1.7-3.8-3.9C303.5,437.2,305,435.6,307.1,435.6z M309.4,438.8c0-1.4-0.9-2.3-2.3-2.3
		c-1.4,0-2.3,0.8-2.4,2.3H309.4z"/>
	<path class="st4" d="M318.6,435.8l2.3,6.1h0.2l2.3-6.1h1.2l-2.8,7.2h-1.6l-2.8-7.2H318.6z"/>
	<path class="st4" d="M327.1,432.6c0.5,0,1,0.4,1,1s-0.4,1-1,1s-1-0.4-1-1S326.6,432.6,327.1,432.6z M327.7,443h-1.1v-7.2h1.1V443z"
		/>
	<path class="st4" d="M337.4,443h-1.1v-1.2h-0.2c-0.4,0.7-1.1,1.5-2.6,1.5c-1.9,0-3.4-1.6-3.4-3.8s1.5-3.8,3.4-3.8
		c1.5,0,2.2,0.7,2.6,1.4h0.2v-4.4h1.1V443z M331.2,439.4c0,1.8,1.1,2.8,2.6,2.8c1.5,0,2.6-1.1,2.6-2.8c0-1.7-1-2.8-2.6-2.8
		C332.2,436.6,331.2,437.6,331.2,439.4z"/>
	<path class="st4" d="M343.4,435.6c2.1,0,3.5,1.5,3.5,3.6v0.6h-5.9c0.1,1.5,1.1,2.4,2.6,2.4c1.2,0,1.8-0.6,2.2-1.4l1,0.5
		c-0.5,0.9-1.4,1.9-3.2,1.9c-2.3,0-3.8-1.7-3.8-3.9C339.8,437.2,341.3,435.6,343.4,435.6z M345.7,438.8c0-1.4-0.9-2.3-2.3-2.3
		c-1.4,0-2.3,0.8-2.4,2.3H345.7z"/>
	<path class="st4" d="M352.4,435.6c2.2,0,3.7,1.6,3.7,3.8s-1.5,3.8-3.7,3.8c-2.2,0-3.7-1.6-3.7-3.8S350.2,435.6,352.4,435.6z
		 M352.4,442.2c1.5,0,2.6-1.1,2.6-2.8s-1-2.8-2.6-2.8c-1.5,0-2.6,1.1-2.6,2.8C349.8,441.1,350.8,442.2,352.4,442.2z"/>
	<path class="st4" d="M360.9,435.6c1.5,0,2.5,0.6,3.6,1.9l-0.9,0.6c-0.8-1.1-1.7-1.5-2.7-1.5c-0.9,0-1.6,0.4-1.6,1.1
		c0,0.8,0.8,0.9,1.7,1.1l0.7,0.1c1.7,0.3,2.9,0.7,2.9,2.1s-1.3,2.3-3.2,2.3c-2,0-3.2-1.2-3.8-2.4l1-0.5c0.5,1.2,1.5,1.9,2.8,1.9
		c1.2,0,2-0.5,2-1.3c0-0.8-0.9-0.9-1.9-1.1l-0.7-0.1c-1.6-0.2-2.7-0.7-2.7-2.1C358.1,436.3,359.4,435.6,360.9,435.6z"/>
	<path class="st4" d="M375.2,435.6c2.2,0,3.7,1.6,3.7,3.8s-1.5,3.8-3.7,3.8c-2.2,0-3.7-1.6-3.7-3.8S373,435.6,375.2,435.6z
		 M375.2,442.2c1.5,0,2.6-1.1,2.6-2.8s-1-2.8-2.6-2.8c-1.5,0-2.6,1.1-2.6,2.8C372.6,441.1,373.6,442.2,375.2,442.2z"/>
	<path class="st4" d="M382.5,435.8v-2c0-0.7,0.4-1.2,1.1-1.2h1.9v1H384c-0.3,0-0.4,0.1-0.4,0.4v1.7h2.2v1h-2.2v6.2h-1.1v-6.2h-2.2
		v-1H382.5z"/>
	<path class="st4" d="M394.4,435.8v-2.6h1.1v2.6h2.3v1h-2.3v4.8c0,0.3,0.1,0.4,0.4,0.4h1.5v1h-1.9c-0.7,0-1.1-0.4-1.1-1.1v-5.1h-2.2
		v-1H394.4z"/>
	<path class="st4" d="M401.1,432.6v4.4h0.2c0.4-0.7,1.1-1.4,2.5-1.4c1.5,0,2.9,1,2.9,3v4.4h-1.1v-4.3c0-1.4-0.8-2.1-2-2.1
		c-1.4,0-2.4,0.9-2.4,2.6v3.7H400v-10.4H401.1z"/>
	<path class="st4" d="M412.5,435.6c2.1,0,3.5,1.5,3.5,3.6v0.6h-5.9c0.1,1.5,1.1,2.4,2.6,2.4c1.2,0,1.8-0.6,2.2-1.4l1,0.5
		c-0.5,0.9-1.4,1.9-3.2,1.9c-2.3,0-3.8-1.7-3.8-3.9C408.9,437.2,410.5,435.6,412.5,435.6z M414.9,438.8c0-1.4-0.9-2.3-2.3-2.3
		c-1.4,0-2.3,0.8-2.4,2.3H414.9z"/>
	<path class="st4" d="M426.1,435.6c1.5,0,2.5,0.6,3.6,1.9l-0.9,0.6c-0.8-1.1-1.7-1.5-2.7-1.5c-0.9,0-1.6,0.4-1.6,1.1
		c0,0.8,0.8,0.9,1.7,1.1l0.7,0.1c1.7,0.3,2.9,0.7,2.9,2.1s-1.3,2.3-3.2,2.3c-2,0-3.2-1.2-3.8-2.4l1-0.5c0.5,1.2,1.5,1.9,2.8,1.9
		c1.2,0,2-0.5,2-1.3c0-0.8-0.9-0.9-1.9-1.1l-0.7-0.1c-1.6-0.2-2.7-0.7-2.7-2.1C423.4,436.3,424.6,435.6,426.1,435.6z"/>
	<path class="st4" d="M435.2,435.6c2,0,3.1,1.1,3.1,2.9v4.6h-1.1v-1.2H437c-0.4,0.7-1.2,1.4-2.7,1.4c-1.6,0-2.7-0.8-2.7-2.1
		c0-1.3,1.1-2,2.8-2.2l2.9-0.3v-0.3c0-1.1-0.7-1.8-2-1.8c-1.3,0-2.1,0.7-2.5,1.6l-1-0.5C432.3,436.6,433.4,435.6,435.2,435.6z
		 M434.5,442.3c1.8,0,2.8-1,2.8-2.5v-0.1l-2.7,0.3c-1,0.1-1.8,0.4-1.8,1.2C432.8,441.9,433.5,442.3,434.5,442.3z"/>
	<path class="st4" d="M442.2,435.8v1h0.2c0.4-0.7,1.1-1.1,2-1.1c1.1,0,1.7,0.5,2.1,1.3h0.2c0.4-0.7,1.1-1.3,2.2-1.3
		c1.4,0,2.5,0.9,2.5,2.4v5h-1.1v-4.9c0-0.9-0.7-1.5-1.6-1.5c-1,0-1.8,0.7-1.8,1.9v4.5h-1.1v-4.9c0-0.9-0.6-1.5-1.6-1.5
		c-1,0-1.8,0.7-1.8,1.9v4.5h-1.1v-7.2H442.2z"/>
	<path class="st4" d="M457.2,435.6c2.1,0,3.5,1.5,3.5,3.6v0.6h-5.9c0.1,1.5,1.1,2.4,2.6,2.4c1.2,0,1.8-0.6,2.2-1.4l1,0.5
		c-0.5,0.9-1.4,1.9-3.2,1.9c-2.3,0-3.8-1.7-3.8-3.9C453.6,437.2,455.1,435.6,457.2,435.6z M459.5,438.8c0-1.4-0.9-2.3-2.3-2.3
		c-1.4,0-2.3,0.8-2.4,2.3H459.5z"/>
	<path class="st4" d="M470.8,435.6c1.5,0,2.5,0.6,3.6,1.9l-0.9,0.6c-0.8-1.1-1.7-1.5-2.7-1.5c-0.9,0-1.6,0.4-1.6,1.1
		c0,0.8,0.8,0.9,1.7,1.1l0.7,0.1c1.7,0.3,2.9,0.7,2.9,2.1s-1.3,2.3-3.2,2.3c-2,0-3.2-1.2-3.8-2.4l1-0.5c0.5,1.2,1.5,1.9,2.8,1.9
		c1.2,0,2-0.5,2-1.3c0-0.8-0.9-0.9-1.9-1.1l-0.7-0.1c-1.6-0.2-2.7-0.7-2.7-2.1C468.1,436.3,469.3,435.6,470.8,435.6z"/>
	<path class="st4" d="M476.7,435.8h1.1v1.2h0.2c0.4-0.7,1.1-1.5,2.6-1.5c1.9,0,3.4,1.6,3.4,3.8s-1.5,3.8-3.4,3.8
		c-1.5,0-2.2-0.7-2.6-1.4h-0.2v4.2h-1.1V435.8z M482.9,439.4c0-1.8-1-2.8-2.6-2.8c-1.5,0-2.6,1.1-2.6,2.8c0,1.7,1,2.8,2.6,2.8
		C481.9,442.2,482.9,441.2,482.9,439.4z"/>
	<path class="st4" d="M489.5,435.6c2.1,0,3.5,1.5,3.5,3.6v0.6h-5.9c0.1,1.5,1.1,2.4,2.6,2.4c1.2,0,1.8-0.6,2.2-1.4l1,0.5
		c-0.5,0.9-1.4,1.9-3.2,1.9c-2.3,0-3.8-1.7-3.8-3.9C485.9,437.2,487.4,435.6,489.5,435.6z M491.8,438.8c0-1.4-0.9-2.3-2.3-2.3
		c-1.4,0-2.3,0.8-2.4,2.3H491.8z"/>
	<path class="st4" d="M498.5,435.6c2,0,3.1,1.1,3.1,2.9v4.6h-1.1v-1.2h-0.2c-0.4,0.7-1.2,1.4-2.7,1.4c-1.6,0-2.7-0.8-2.7-2.1
		c0-1.3,1.1-2,2.8-2.2l2.9-0.3v-0.3c0-1.1-0.7-1.8-2-1.8c-1.3,0-2.1,0.7-2.5,1.6l-1-0.5C495.5,436.6,496.7,435.6,498.5,435.6z
		 M497.7,442.3c1.8,0,2.8-1,2.8-2.5v-0.1l-2.7,0.3c-1,0.1-1.8,0.4-1.8,1.2C496,441.9,496.7,442.3,497.7,442.3z"/>
	<path class="st4" d="M507.9,438.6l3.3,4.4h-1.4l-2.7-3.7l-1.6,1.4v2.3h-1.1v-10.4h1.1v6.5h0.2l3.9-3.4h1.7L507.9,438.6z"/>
	<path class="st4" d="M515.8,435.6c2.1,0,3.5,1.5,3.5,3.6v0.6h-5.9c0.1,1.5,1.1,2.4,2.6,2.4c1.2,0,1.8-0.6,2.2-1.4l1,0.5
		c-0.5,0.9-1.4,1.9-3.2,1.9c-2.3,0-3.8-1.7-3.8-3.9C512.2,437.2,513.7,435.6,515.8,435.6z M518.1,438.8c0-1.4-0.9-2.3-2.3-2.3
		c-1.4,0-2.3,0.8-2.4,2.3H518.1z"/>
	<path class="st4" d="M522.6,436.9h0.2c0.3-0.7,0.8-1.1,1.9-1.1h0.9v1.1h-1.2c-1.1,0-1.7,0.6-1.7,1.8v4.4h-1.1v-7.2h1.1V436.9z"/>
</g>
<g>
	<path class="st1" d="M334.4,499.7v7.2h-1.1v-6.2H330v6.2h-1.1v-6.2h-2.2v-1h2.2v-2c0-0.7,0.4-1.2,1.1-1.2h1.7v1h-1.3
		c-0.3,0-0.4,0.1-0.4,0.4v1.7H334.4z M334.8,497.4c0,0.5-0.4,1-1,1c-0.6,0-1-0.4-1-1s0.4-1,1-1C334.4,496.5,334.8,496.9,334.8,497.4
		z"/>
	<path class="st1" d="M338.3,506.9h-1.1v-10.4h1.1V506.9z"/>
	<path class="st1" d="M342.4,499.7v-2.6h1.1v2.6h2.3v1h-2.3v4.8c0,0.3,0.1,0.4,0.4,0.4h1.5v1h-1.9c-0.7,0-1.1-0.4-1.1-1.1v-5.1h-2.2
		v-1H342.4z"/>
	<path class="st1" d="M351.1,499.5c2.1,0,3.5,1.5,3.5,3.6v0.6h-5.9c0.1,1.5,1.1,2.4,2.6,2.4c1.2,0,1.8-0.6,2.2-1.4l1,0.5
		c-0.5,0.9-1.4,1.9-3.2,1.9c-2.3,0-3.8-1.7-3.8-3.9C347.5,501.1,349,499.5,351.1,499.5z M353.4,502.7c0-1.4-0.9-2.3-2.3-2.3
		c-1.4,0-2.3,0.8-2.4,2.3H353.4z"/>
	<path class="st1" d="M358,500.8h0.2c0.3-0.7,0.8-1.1,1.9-1.1h0.9v1.1h-1.2c-1.1,0-1.7,0.6-1.7,1.8v4.4h-1.1v-7.2h1.1V500.8z"/>
	<path class="st4" d="M369.5,499.7v-2.6h1.1v2.6h2.3v1h-2.3v4.8c0,0.3,0.1,0.4,0.4,0.4h1.5v1h-1.9c-0.7,0-1.1-0.4-1.1-1.1v-5.1h-2.2
		v-1H369.5z"/>
	<path class="st4" d="M376.2,496.5v4.4h0.2c0.4-0.7,1.1-1.4,2.5-1.4c1.5,0,2.9,1,2.9,3v4.4h-1.1v-4.3c0-1.4-0.8-2.1-2-2.1
		c-1.4,0-2.4,0.9-2.4,2.6v3.7h-1.1v-10.4H376.2z"/>
	<path class="st4" d="M387.6,499.5c2.1,0,3.5,1.5,3.5,3.6v0.6h-5.9c0.1,1.5,1.1,2.4,2.6,2.4c1.2,0,1.8-0.6,2.2-1.4l1,0.5
		c-0.5,0.9-1.4,1.9-3.2,1.9c-2.3,0-3.8-1.7-3.8-3.9C384,501.1,385.6,499.5,387.6,499.5z M390,502.7c0-1.4-0.9-2.3-2.3-2.3
		c-1.4,0-2.3,0.8-2.4,2.3H390z"/>
	<path class="st4" d="M401.2,499.5c1.5,0,2.5,0.6,3.6,1.9l-0.9,0.6c-0.8-1.1-1.7-1.5-2.7-1.5c-0.9,0-1.6,0.4-1.6,1.1
		c0,0.8,0.8,0.9,1.7,1.1l0.7,0.1c1.7,0.3,2.9,0.7,2.9,2.1s-1.3,2.3-3.2,2.3c-2,0-3.2-1.2-3.8-2.4l1-0.5c0.5,1.2,1.5,1.9,2.8,1.9
		c1.2,0,2-0.5,2-1.3c0-0.8-0.9-0.9-1.9-1.1l-0.7-0.1c-1.6-0.2-2.7-0.7-2.7-2.1C398.5,500.2,399.7,499.5,401.2,499.5z"/>
	<path class="st4" d="M407.1,499.7h1.1v1.2h0.2c0.4-0.7,1.1-1.5,2.6-1.5c1.9,0,3.4,1.6,3.4,3.8s-1.5,3.8-3.4,3.8
		c-1.5,0-2.2-0.7-2.6-1.4h-0.2v4.2h-1.1V499.7z M413.3,503.3c0-1.8-1-2.8-2.6-2.8c-1.5,0-2.6,1.1-2.6,2.8c0,1.7,1,2.8,2.6,2.8
		C412.3,506.1,413.3,505.1,413.3,503.3z"/>
	<path class="st4" d="M419.9,499.5c2.1,0,3.5,1.5,3.5,3.6v0.6h-5.9c0.1,1.5,1.1,2.4,2.6,2.4c1.2,0,1.8-0.6,2.2-1.4l1,0.5
		c-0.5,0.9-1.4,1.9-3.2,1.9c-2.3,0-3.8-1.7-3.8-3.9C416.3,501.1,417.9,499.5,419.9,499.5z M422.3,502.7c0-1.4-0.9-2.3-2.3-2.3
		c-1.4,0-2.3,0.8-2.4,2.3H422.3z"/>
	<path class="st4" d="M428.9,499.5c2,0,3.1,1.1,3.1,2.9v4.6h-1.1v-1.2h-0.2c-0.4,0.7-1.2,1.4-2.7,1.4c-1.6,0-2.7-0.8-2.7-2.1
		c0-1.3,1.1-2,2.8-2.2l2.9-0.3v-0.3c0-1.1-0.7-1.8-2-1.8c-1.3,0-2.1,0.7-2.5,1.6l-1-0.5C425.9,500.5,427.1,499.5,428.9,499.5z
		 M428.1,506.2c1.8,0,2.8-1,2.8-2.5v-0.1l-2.7,0.3c-1,0.1-1.8,0.4-1.8,1.2C426.4,505.7,427.1,506.2,428.1,506.2z"/>
	<path class="st4" d="M438.3,502.5l3.3,4.4h-1.4l-2.7-3.7l-1.6,1.4v2.3h-1.1v-10.4h1.1v6.5h0.2l3.9-3.4h1.7L438.3,502.5z"/>
	<path class="st4" d="M446.2,499.5c2.1,0,3.5,1.5,3.5,3.6v0.6h-5.9c0.1,1.5,1.1,2.4,2.6,2.4c1.2,0,1.8-0.6,2.2-1.4l1,0.5
		c-0.5,0.9-1.4,1.9-3.2,1.9c-2.3,0-3.8-1.7-3.8-3.9C442.6,501.1,444.1,499.5,446.2,499.5z M448.5,502.7c0-1.4-0.9-2.3-2.3-2.3
		c-1.4,0-2.3,0.8-2.4,2.3H448.5z"/>
	<path class="st4" d="M453,500.8h0.2c0.3-0.7,0.8-1.1,1.9-1.1h0.9v1.1h-1.2c-1.1,0-1.7,0.6-1.7,1.8v4.4H452v-7.2h1.1V500.8z"/>
	<path class="st4" d="M460.5,499.5c1.5,0,2.5,0.6,3.6,1.9l-0.9,0.6c-0.8-1.1-1.7-1.5-2.7-1.5c-0.9,0-1.6,0.4-1.6,1.1
		c0,0.8,0.8,0.9,1.7,1.1l0.7,0.1c1.7,0.3,2.9,0.7,2.9,2.1s-1.3,2.3-3.2,2.3c-2,0-3.2-1.2-3.8-2.4l1-0.5c0.5,1.2,1.5,1.9,2.8,1.9
		c1.2,0,2-0.5,2-1.3c0-0.8-0.9-0.9-1.9-1.1l-0.7-0.1c-1.6-0.2-2.7-0.7-2.7-2.1C457.7,500.2,459,499.5,460.5,499.5z"/>
	<path class="st4" d="M295.2,515.6l1.3,6h0.2l1.6-6h1.7l1.6,6h0.2l1.3-6h1.2l-1.7,7.2h-1.7l-1.6-6h-0.2l-1.6,6h-1.7l-1.7-7.2H295.2z
		"/>
	<path class="st4" d="M307.1,512.3c0.5,0,1,0.4,1,1s-0.4,1-1,1s-1-0.4-1-1S306.6,512.3,307.1,512.3z M307.7,522.8h-1.1v-7.2h1.1
		V522.8z"/>
	<path class="st4" d="M311.8,515.6v-2.6h1.1v2.6h2.3v1h-2.3v4.8c0,0.3,0.1,0.4,0.4,0.4h1.5v1h-1.9c-0.7,0-1.1-0.4-1.1-1.1v-5.1h-2.2
		v-1H311.8z"/>
	<path class="st4" d="M318.6,512.4v4.4h0.2c0.4-0.7,1.1-1.4,2.5-1.4c1.5,0,2.9,1,2.9,3v4.4H323v-4.3c0-1.4-0.8-2.1-2-2.1
		c-1.4,0-2.4,0.9-2.4,2.6v3.7h-1.1v-10.4H318.6z"/>
	<path class="st4" d="M333.2,515.6v1h0.2c0.4-0.7,1.1-1.1,2-1.1c1.1,0,1.7,0.5,2.1,1.3h0.2c0.4-0.7,1.1-1.3,2.2-1.3
		c1.4,0,2.5,0.9,2.5,2.4v5h-1.1v-4.9c0-0.9-0.7-1.5-1.6-1.5c-1,0-1.8,0.7-1.8,1.9v4.5h-1.1v-4.9c0-0.9-0.6-1.5-1.6-1.5
		c-1,0-1.8,0.7-1.8,1.9v4.5h-1.1v-7.2H333.2z"/>
	<path class="st4" d="M348.3,515.3c2.2,0,3.7,1.6,3.7,3.8s-1.5,3.8-3.7,3.8c-2.2,0-3.7-1.6-3.7-3.8S346.1,515.3,348.3,515.3z
		 M348.3,522c1.5,0,2.6-1.1,2.6-2.8s-1-2.8-2.6-2.8c-1.5,0-2.6,1.1-2.6,2.8C345.7,520.9,346.7,522,348.3,522z"/>
	<path class="st4" d="M355.4,516.6h0.2c0.3-0.7,0.8-1.1,1.9-1.1h0.9v1.1h-1.2c-1.1,0-1.7,0.6-1.7,1.8v4.4h-1.1v-7.2h1.1V516.6z"/>
	<path class="st4" d="M363.1,515.3c2.1,0,3.5,1.5,3.5,3.6v0.6h-5.9c0.1,1.5,1.1,2.4,2.6,2.4c1.2,0,1.8-0.6,2.2-1.4l1,0.5
		c-0.5,0.9-1.4,1.9-3.2,1.9c-2.3,0-3.8-1.7-3.8-3.9C359.5,517,361,515.3,363.1,515.3z M365.4,518.6c0-1.4-0.9-2.3-2.3-2.3
		c-1.4,0-2.3,0.8-2.4,2.3H365.4z"/>
	<path class="st4" d="M375.4,515.6v-2.6h1.1v2.6h2.3v1h-2.3v4.8c0,0.3,0.1,0.4,0.4,0.4h1.5v1h-1.9c-0.7,0-1.1-0.4-1.1-1.1v-5.1h-2.2
		v-1H375.4z"/>
	<path class="st4" d="M382.2,512.4v4.4h0.2c0.4-0.7,1.1-1.4,2.5-1.4c1.5,0,2.9,1,2.9,3v4.4h-1.1v-4.3c0-1.4-0.8-2.1-2-2.1
		c-1.4,0-2.4,0.9-2.4,2.6v3.7H381v-10.4H382.2z"/>
	<path class="st4" d="M393.7,515.3c2,0,3.1,1.1,3.1,2.9v4.6h-1.1v-1.2h-0.2c-0.4,0.7-1.2,1.4-2.7,1.4c-1.6,0-2.7-0.8-2.7-2.1
		c0-1.3,1.1-2,2.8-2.2l2.9-0.3v-0.3c0-1.1-0.7-1.8-2-1.8s-2.1,0.7-2.5,1.6l-1-0.5C390.7,516.4,391.9,515.3,393.7,515.3z M392.9,522
		c1.8,0,2.8-1,2.8-2.5v-0.1l-2.7,0.3c-1,0.1-1.8,0.4-1.8,1.2C391.2,521.6,391.9,522,392.9,522z"/>
	<path class="st4" d="M400.6,515.6v1.3h0.2c0.4-0.7,1.1-1.4,2.5-1.4c1.5,0,2.9,1,2.9,3v4.4h-1.1v-4.3c0-1.4-0.8-2.1-2-2.1
		c-1.4,0-2.4,0.9-2.4,2.6v3.7h-1.1v-7.2H400.6z"/>
	<path class="st4" d="M418,512.4l0,10.4h-1.2v-9.2h-0.2l-2.1,3.3h-1.4l3-4.5H418z"/>
	<path class="st4" d="M427.2,515.6v1h0.2c0.4-0.7,1.1-1.1,2-1.1c1.1,0,1.7,0.5,2.1,1.3h0.2c0.4-0.7,1.1-1.3,2.2-1.3
		c1.4,0,2.5,0.9,2.5,2.4v5h-1.1v-4.9c0-0.9-0.7-1.5-1.6-1.5c-1,0-1.8,0.7-1.8,1.9v4.5h-1.1v-4.9c0-0.9-0.6-1.5-1.6-1.5
		c-1,0-1.8,0.7-1.8,1.9v4.5h-1.1v-7.2H427.2z"/>
	<path class="st4" d="M440.2,522.8h-1.1v-10.4h1.1V522.8z"/>
	<path class="st4" d="M444.1,515.6v1.3h0.2c0.4-0.7,1.1-1.4,2.5-1.4c1.5,0,2.9,1,2.9,3v4.4h-1.1v-4.3c0-1.4-0.8-2.1-2-2.1
		c-1.4,0-2.4,0.9-2.4,2.6v3.7H443v-7.2H444.1z"/>
	<path class="st4" d="M458.1,515.6l2.3,6.1h0.2l2.3-6.1h1.2l-2.8,7.2h-1.6l-2.8-7.2H458.1z"/>
	<path class="st4" d="M466.7,512.3c0.5,0,1,0.4,1,1s-0.4,1-1,1s-1-0.4-1-1S466.2,512.3,466.7,512.3z M467.3,522.8h-1.1v-7.2h1.1
		V522.8z"/>
	<path class="st4" d="M473.2,515.3c2.1,0,3.5,1.5,3.5,3.6v0.6h-5.9c0.1,1.5,1.1,2.4,2.6,2.4c1.2,0,1.8-0.6,2.2-1.4l1,0.5
		c-0.5,0.9-1.4,1.9-3.2,1.9c-2.3,0-3.8-1.7-3.8-3.9C469.6,517,471.1,515.3,473.2,515.3z M475.6,518.6c0-1.4-0.9-2.3-2.3-2.3
		c-1.4,0-2.3,0.8-2.4,2.3H475.6z"/>
	<path class="st4" d="M479.6,515.6l1.3,6h0.2l1.6-6h1.7l1.6,6h0.2l1.3-6h1.2l-1.7,7.2h-1.7l-1.6-6h-0.2l-1.6,6h-1.7l-1.7-7.2H479.6z
		"/>
	<path class="st4" d="M493.5,515.3c1.5,0,2.5,0.6,3.6,1.9l-0.9,0.6c-0.8-1.1-1.7-1.5-2.7-1.5c-0.9,0-1.6,0.4-1.6,1.1
		c0,0.8,0.8,0.9,1.7,1.1l0.7,0.1c1.7,0.3,2.9,0.7,2.9,2.1s-1.3,2.3-3.2,2.3c-2,0-3.2-1.2-3.8-2.4l1-0.5c0.5,1.2,1.5,1.9,2.8,1.9
		c1.2,0,2-0.5,2-1.3c0-0.8-0.9-0.9-1.9-1.1l-0.7-0.1c-1.6-0.2-2.7-0.7-2.7-2.1C490.7,516.1,492,515.3,493.5,515.3z"/>
</g>
<g>
	<line class="st8" x1="395.9" y1="225.2" x2="395.9" y2="239.1"/>
	<g>
		<polygon class="st4" points="391.5,235.6 392.3,234.8 395.9,238.6 399.4,234.8 400.2,235.6 395.9,240.2 		"/>
	</g>
</g>
<g>
	<line class="st8" x1="395.6" y1="304.2" x2="395.6" y2="318.1"/>
	<g>
		<polygon class="st4" points="391.3,314.6 392,313.8 395.6,317.6 399.1,313.8 400,314.6 395.6,319.2 		"/>
	</g>
</g>
<g>
	<line class="st8" x1="395.6" y1="384.7" x2="395.6" y2="398.6"/>
	<g>
		<polygon class="st4" points="391.3,395.1 392,394.4 395.6,398.2 399.1,394.4 400,395.1 395.6,399.8 		"/>
	</g>
</g>
<g>
	<line class="st8" x1="395.6" y1="463.9" x2="395.6" y2="477.8"/>
	<g>
		<polygon class="st4" points="391.2,474.3 392,473.6 395.6,477.4 399.1,473.6 399.9,474.3 395.6,479 		"/>
	</g>
</g>
<g>
	<line class="st8" x1="395.3" y1="543.3" x2="395.3" y2="557.1"/>
	<g>
		<polygon class="st4" points="391,553.7 391.7,552.9 395.3,556.7 398.8,552.9 399.7,553.7 395.3,558.3 		"/>
	</g>
</g>
<line class="st6" x1="672.4" y1="567.6" x2="672.4" y2="614.6"/>
<g>
	<g>
		<path class="st3" d="M688.2,583.6V594h-1.7v-10.4H688.2z"/>
		<path class="st3" d="M692.4,583.6v8.8h5v1.6h-6.7v-10.4H692.4z"/>
		<path class="st3" d="M700.9,583.6v8.8h5v1.6h-6.7v-10.4H700.9z"/>
		<path class="st3" d="M709.3,583.6v6.8c0,1.4,0.8,2.2,2.3,2.2c1.5,0,2.3-0.8,2.3-2.2v-6.8h1.7v6.8c0,2.4-1.4,3.8-4,3.8
			c-2.5,0-4-1.4-4-3.8v-6.8H709.3z"/>
		<path class="st3" d="M725.3,586.7v0.5h-1.7v-0.3c0-1.3-0.8-1.9-2.1-1.9c-1.1,0-1.8,0.6-1.8,1.4c0,1,0.8,1.2,2.1,1.5l0.4,0.1
			c2,0.4,3.2,1.2,3.2,3.1c0,2-1.6,3.2-3.8,3.2c-2.5,0-4.2-1.4-4.2-3.8V590h1.7v0.3c0,1.5,0.8,2.3,2.5,2.3c1.3,0,2-0.7,2-1.6
			c0-0.9-0.7-1.3-2.1-1.6l-0.4-0.1c-2-0.4-3.3-1.2-3.3-3.1c0-1.8,1.6-2.9,3.5-2.9C723.6,583.4,725.3,584.5,725.3,586.7z"/>
		<path class="st3" d="M734.9,583.6v1.6h-3.2v8.8h-1.7v-8.8h-3.2v-1.6H734.9z"/>
		<path class="st3" d="M742,589.8l2.2,4.2h-1.9l-2.1-4h-1.9v4h-1.7v-10.4h4.4c1.9,0,3.3,1.3,3.3,3.2
			C744.3,588.3,743.4,589.5,742,589.8z M738.4,588.3h2.6c1.1,0,1.7-0.6,1.7-1.6c0-1-0.6-1.6-1.7-1.6h-2.6V588.3z"/>
		<path class="st3" d="M751.3,583.6l3.1,10.4h-1.8l-0.7-2.4H748l-0.7,2.4h-1.8l3.1-10.4H751.3z M751.4,590L750,585h-0.2l-1.4,4.9
			H751.4z"/>
		<path class="st3" d="M762.6,583.6v1.6h-3.2v8.8h-1.7v-8.8h-3.2v-1.6H762.6z"/>
		<path class="st3" d="M767.9,583.4c2.6,0,4.2,1.6,4.2,4.3v2.3c0,2.7-1.6,4.3-4.2,4.3c-2.6,0-4.2-1.6-4.2-4.3v-2.3
			C763.8,585,765.3,583.4,767.9,583.4z M765.5,590c0,1.7,0.8,2.7,2.4,2.7c1.7,0,2.4-1,2.4-2.7v-2.4c0-1.7-0.8-2.7-2.4-2.7
			c-1.6,0-2.4,1-2.4,2.7V590z"/>
		<path class="st3" d="M779.6,589.8l2.2,4.2h-1.9l-2.1-4h-1.9v4h-1.7v-10.4h4.4c1.9,0,3.3,1.3,3.3,3.2
			C781.9,588.3,781,589.5,779.6,589.8z M775.9,588.3h2.6c1.1,0,1.7-0.6,1.7-1.6c0-1-0.6-1.6-1.7-1.6h-2.6V588.3z"/>
	</g>
	<g>
		<path class="st7" d="M688.2,583.6V594h-1.7v-10.4H688.2z"/>
		<path class="st7" d="M692.4,583.6v8.8h5v1.6h-6.7v-10.4H692.4z"/>
		<path class="st7" d="M700.9,583.6v8.8h5v1.6h-6.7v-10.4H700.9z"/>
		<path class="st7" d="M709.3,583.6v6.8c0,1.4,0.8,2.2,2.3,2.2c1.5,0,2.3-0.8,2.3-2.2v-6.8h1.7v6.8c0,2.4-1.4,3.8-4,3.8
			c-2.5,0-4-1.4-4-3.8v-6.8H709.3z"/>
		<path class="st7" d="M725.3,586.7v0.5h-1.7v-0.3c0-1.3-0.8-1.9-2.1-1.9c-1.1,0-1.8,0.6-1.8,1.4c0,1,0.8,1.2,2.1,1.5l0.4,0.1
			c2,0.4,3.2,1.2,3.2,3.1c0,2-1.6,3.2-3.8,3.2c-2.5,0-4.2-1.4-4.2-3.8V590h1.7v0.3c0,1.5,0.8,2.3,2.5,2.3c1.3,0,2-0.7,2-1.6
			c0-0.9-0.7-1.3-2.1-1.6l-0.4-0.1c-2-0.4-3.3-1.2-3.3-3.1c0-1.8,1.6-2.9,3.5-2.9C723.6,583.4,725.3,584.5,725.3,586.7z"/>
		<path class="st7" d="M734.9,583.6v1.6h-3.2v8.8h-1.7v-8.8h-3.2v-1.6H734.9z"/>
		<path class="st7" d="M742,589.8l2.2,4.2h-1.9l-2.1-4h-1.9v4h-1.7v-10.4h4.4c1.9,0,3.3,1.3,3.3,3.2
			C744.3,588.3,743.4,589.5,742,589.8z M738.4,588.3h2.6c1.1,0,1.7-0.6,1.7-1.6c0-1-0.6-1.6-1.7-1.6h-2.6V588.3z"/>
		<path class="st7" d="M751.3,583.6l3.1,10.4h-1.8l-0.7-2.4H748l-0.7,2.4h-1.8l3.1-10.4H751.3z M751.4,590L750,585h-0.2l-1.4,4.9
			H751.4z"/>
		<path class="st7" d="M762.6,583.6v1.6h-3.2v8.8h-1.7v-8.8h-3.2v-1.6H762.6z"/>
		<path class="st7" d="M767.9,583.4c2.6,0,4.2,1.6,4.2,4.3v2.3c0,2.7-1.6,4.3-4.2,4.3c-2.6,0-4.2-1.6-4.2-4.3v-2.3
			C763.8,585,765.3,583.4,767.9,583.4z M765.5,590c0,1.7,0.8,2.7,2.4,2.7c1.7,0,2.4-1,2.4-2.7v-2.4c0-1.7-0.8-2.7-2.4-2.7
			c-1.6,0-2.4,1-2.4,2.7V590z"/>
		<path class="st7" d="M779.6,589.8l2.2,4.2h-1.9l-2.1-4h-1.9v4h-1.7v-10.4h4.4c1.9,0,3.3,1.3,3.3,3.2
			C781.9,588.3,781,589.5,779.6,589.8z M775.9,588.3h2.6c1.1,0,1.7-0.6,1.7-1.6c0-1-0.6-1.6-1.7-1.6h-2.6V588.3z"/>
	</g>
</g>
<g>
	<path class="st4" d="M338.8,580.2v1h0.2c0.4-0.7,1.1-1.1,2-1.1c1.1,0,1.7,0.5,2.1,1.3h0.2c0.4-0.7,1.1-1.3,2.2-1.3
		c1.4,0,2.5,0.9,2.5,2.4v5h-1.1v-4.9c0-0.9-0.7-1.5-1.6-1.5c-1,0-1.8,0.7-1.8,1.9v4.5h-1.1v-4.9c0-0.9-0.6-1.5-1.6-1.5
		c-1,0-1.8,0.7-1.8,1.9v4.5h-1.1v-7.2H338.8z"/>
	<path class="st4" d="M353.9,580c2.2,0,3.7,1.6,3.7,3.8c0,2.2-1.5,3.8-3.7,3.8c-2.2,0-3.7-1.6-3.7-3.8
		C350.2,581.6,351.8,580,353.9,580z M353.9,586.6c1.5,0,2.6-1.1,2.6-2.8c0-1.7-1-2.8-2.6-2.8c-1.5,0-2.6,1.1-2.6,2.8
		C351.4,585.5,352.4,586.6,353.9,586.6z"/>
	<path class="st4" d="M362.4,580c1.5,0,2.5,0.6,3.6,1.9l-0.9,0.6c-0.8-1.1-1.7-1.5-2.7-1.5c-0.9,0-1.6,0.4-1.6,1.1
		c0,0.8,0.8,0.9,1.7,1.1l0.7,0.1c1.7,0.3,2.9,0.7,2.9,2.1c0,1.4-1.3,2.3-3.2,2.3c-2,0-3.2-1.2-3.8-2.4l1-0.5
		c0.5,1.2,1.5,1.9,2.8,1.9c1.2,0,2-0.5,2-1.3c0-0.8-0.9-0.9-1.9-1.1l-0.7-0.1c-1.6-0.2-2.7-0.7-2.7-2.1
		C359.7,580.7,360.9,580,362.4,580z"/>
	<path class="st4" d="M369.6,580.2v-2.6h1.1v2.6h2.3v1h-2.3v4.8c0,0.3,0.1,0.4,0.4,0.4h1.5v1h-1.9c-0.7,0-1.1-0.4-1.1-1.1v-5.1h-2.2
		v-1H369.6z"/>
	<path class="st4" d="M381,577c0.5,0,1,0.4,1,1s-0.4,1-1,1s-1-0.4-1-1S380.5,577,381,577z M381.6,587.4h-1.1v-7.2h1.1V587.4z"/>
	<path class="st4" d="M385.5,580.2v1.3h0.2c0.4-0.7,1.1-1.4,2.5-1.4c1.5,0,2.9,1,2.9,3v4.4H390v-4.3c0-1.4-0.8-2.1-2-2.1
		c-1.4,0-2.4,0.9-2.4,2.6v3.7h-1.1v-7.2H385.5z"/>
	<path class="st4" d="M395,580.2v-2c0-0.7,0.4-1.2,1.1-1.2h1.7v1h-1.3c-0.3,0-0.4,0.1-0.4,0.4v1.7h2v1h-2v6.2H395v-6.2h-2.2v-1H395z
		 M400.5,577v10.4h-1.1V577H400.5z"/>
	<path class="st4" d="M408.8,587.4v-1.3h-0.2c-0.4,0.7-1.1,1.4-2.5,1.4c-1.5,0-2.8-1-2.8-3v-4.4h1.1v4.3c0,1.4,0.8,2.1,2,2.1
		c1.4,0,2.4-0.9,2.4-2.6v-3.7h1.1v7.2H408.8z"/>
	<path class="st4" d="M415.8,580c2.1,0,3.5,1.5,3.5,3.6v0.6h-5.9c0.1,1.5,1.1,2.4,2.6,2.4c1.2,0,1.8-0.6,2.2-1.4l1,0.5
		c-0.5,0.9-1.4,1.9-3.2,1.9c-2.3,0-3.8-1.7-3.8-3.9C412.2,581.6,413.7,580,415.8,580z M418.2,583.2c0-1.4-0.9-2.3-2.3-2.3
		c-1.4,0-2.3,0.8-2.4,2.3H418.2z"/>
	<path class="st4" d="M422.7,580.2v1.3h0.2c0.4-0.7,1.1-1.4,2.5-1.4c1.5,0,2.9,1,2.9,3v4.4h-1.1v-4.3c0-1.4-0.8-2.1-2-2.1
		c-1.4,0-2.4,0.9-2.4,2.6v3.7h-1.1v-7.2H422.7z"/>
	<path class="st4" d="M432.2,580.2v-2.6h1.1v2.6h2.3v1h-2.3v4.8c0,0.3,0.1,0.4,0.4,0.4h1.5v1h-1.9c-0.7,0-1.1-0.4-1.1-1.1v-5.1H430
		v-1H432.2z"/>
	<path class="st4" d="M438.4,577c0.5,0,1,0.4,1,1s-0.4,1-1,1s-1-0.4-1-1S437.8,577,438.4,577z M438.9,587.4h-1.1v-7.2h1.1V587.4z"/>
	<path class="st4" d="M445,580c2,0,3.1,1.1,3.1,2.9v4.6H447v-1.2h-0.2c-0.4,0.7-1.2,1.4-2.7,1.4c-1.6,0-2.7-0.8-2.7-2.1
		c0-1.3,1.1-2,2.8-2.2l2.9-0.3v-0.3c0-1.1-0.7-1.8-2-1.8c-1.3,0-2.1,0.7-2.5,1.6l-1-0.5C442,581,443.2,580,445,580z M444.2,586.7
		c1.8,0,2.8-1,2.8-2.5V584l-2.7,0.3c-1,0.1-1.8,0.4-1.8,1.2C442.5,586.2,443.2,586.7,444.2,586.7z"/>
	<path class="st4" d="M452,587.4h-1.1V577h1.1V587.4z"/>
	<path class="st4" d="M365,595.9c1.5,0,2.5,0.6,3.6,1.9l-0.9,0.6c-0.8-1.1-1.7-1.5-2.7-1.5c-0.9,0-1.6,0.4-1.6,1.1
		c0,0.8,0.8,0.9,1.7,1.1l0.7,0.1c1.7,0.3,2.9,0.7,2.9,2.1c0,1.4-1.3,2.3-3.2,2.3c-2,0-3.2-1.2-3.8-2.4l1-0.5
		c0.5,1.2,1.5,1.9,2.8,1.9c1.2,0,2-0.5,2-1.3c0-0.8-0.9-0.9-1.9-1.1l-0.7-0.1c-1.6-0.2-2.7-0.7-2.7-2.1
		C362.2,596.6,363.5,595.9,365,595.9z"/>
	<path class="st4" d="M370.8,596.1h1.1v1.2h0.2c0.4-0.7,1.1-1.5,2.6-1.5c1.9,0,3.4,1.6,3.4,3.8c0,2.3-1.5,3.8-3.4,3.8
		c-1.5,0-2.2-0.7-2.6-1.4H372v4.2h-1.1V596.1z M377.1,599.7c0-1.8-1-2.8-2.6-2.8c-1.5,0-2.6,1.1-2.6,2.8c0,1.7,1,2.8,2.6,2.8
		C376,602.5,377.1,601.4,377.1,599.7z"/>
	<path class="st4" d="M383.7,595.8c2.1,0,3.5,1.5,3.5,3.6v0.6h-5.9c0.1,1.5,1.1,2.4,2.6,2.4c1.2,0,1.8-0.6,2.2-1.4l1,0.5
		c-0.5,0.9-1.4,1.9-3.2,1.9c-2.3,0-3.8-1.7-3.8-3.9C380.1,597.5,381.6,595.8,383.7,595.8z M386,599.1c0-1.4-0.9-2.3-2.3-2.3
		c-1.4,0-2.3,0.8-2.4,2.3H386z"/>
	<path class="st4" d="M392.6,595.9c2,0,3.1,1.1,3.1,2.9v4.6h-1.1v-1.2h-0.2c-0.4,0.7-1.2,1.4-2.7,1.4c-1.6,0-2.7-0.8-2.7-2.1
		c0-1.3,1.1-2,2.8-2.2l2.9-0.3v-0.3c0-1.1-0.7-1.8-2-1.8s-2.1,0.7-2.5,1.6l-1-0.5C389.7,596.9,390.8,595.9,392.6,595.9z
		 M391.9,602.5c1.8,0,2.8-1,2.8-2.5v-0.1l-2.7,0.3c-1,0.1-1.8,0.4-1.8,1.2C390.2,602.1,390.9,602.5,391.9,602.5z"/>
	<path class="st4" d="M402.1,598.9l3.3,4.4H404l-2.7-3.7l-1.6,1.4v2.3h-1.1v-10.4h1.1v6.5h0.2l3.9-3.4h1.7L402.1,598.9z"/>
	<path class="st4" d="M409.9,595.8c2.1,0,3.5,1.5,3.5,3.6v0.6h-5.9c0.1,1.5,1.1,2.4,2.6,2.4c1.2,0,1.8-0.6,2.2-1.4l1,0.5
		c-0.5,0.9-1.4,1.9-3.2,1.9c-2.3,0-3.8-1.7-3.8-3.9C406.3,597.5,407.8,595.8,409.9,595.8z M412.2,599.1c0-1.4-0.9-2.3-2.3-2.3
		c-1.4,0-2.3,0.8-2.4,2.3H412.2z"/>
	<path class="st4" d="M416.8,597.1h0.2c0.3-0.7,0.8-1.1,1.9-1.1h0.9v1.1h-1.2c-1.1,0-1.7,0.6-1.7,1.8v4.4h-1.1v-7.2h1.1V597.1z"/>
	<path class="st4" d="M424.2,595.9c1.5,0,2.5,0.6,3.6,1.9l-0.9,0.6c-0.8-1.1-1.7-1.5-2.7-1.5c-0.9,0-1.6,0.4-1.6,1.1
		c0,0.8,0.8,0.9,1.7,1.1l0.7,0.1c1.7,0.3,2.9,0.7,2.9,2.1c0,1.4-1.3,2.3-3.2,2.3c-2,0-3.2-1.2-3.8-2.4l1-0.5
		c0.5,1.2,1.5,1.9,2.8,1.9c1.2,0,2-0.5,2-1.3c0-0.8-0.9-0.9-1.9-1.1l-0.7-0.1c-1.6-0.2-2.7-0.7-2.7-2.1
		C421.5,596.6,422.7,595.9,424.2,595.9z"/>
</g>
<rect x="328.7" y="570.7" class="st5" width="132.7" height="40"/>
<g>
	<g>
		<polyline class="st8" points="562.4,144.5 562.4,151.9 395.3,151.9 227.9,151.9 227.9,142.9 		"/>
		<g>
			<g>
				<line class="st8" x1="395.3" y1="162.4" x2="395.3" y2="151.9"/>
				<g>
					<polygon class="st4" points="399.4,159.1 398.7,158.4 395.3,162 392,158.4 391.2,159.1 395.3,163.5 					"/>
				</g>
			</g>
		</g>
	</g>
	<line class="st8" x1="395.3" y1="142.9" x2="395.3" y2="151.9"/>
</g>
<line class="st6" x1="672.8" y1="408.5" x2="672.8" y2="533.3"/>
<line class="st6" x1="672.8" y1="249.5" x2="672.8" y2="374.3"/>
<g>
	<g>
		<path class="st3" d="M690.9,178.1c2.6,0,4.2,1.6,4.2,4.3v2.3c0,2.7-1.6,4.3-4.2,4.3c-2.6,0-4.2-1.6-4.2-4.3v-2.3
			C686.7,179.7,688.3,178.1,690.9,178.1z M688.4,184.7c0,1.7,0.8,2.7,2.4,2.7c1.7,0,2.4-1,2.4-2.7v-2.4c0-1.7-0.8-2.7-2.4-2.7
			c-1.6,0-2.4,1-2.4,2.7V184.7z"/>
		<path class="st3" d="M701.3,178.3c1.9,0,3.3,1.3,3.3,3.2c0,1.9-1.4,3.2-3.3,3.2h-2.4v4h-1.7v-10.4H701.3z M698.9,183.2h2.3
			c1.1,0,1.7-0.6,1.7-1.6c0-1-0.6-1.6-1.7-1.6h-2.3V183.2z"/>
		<path class="st3" d="M713.1,178.3v1.6h-5v2.8h4.6v1.6h-4.6v2.9h5.1v1.6h-6.8v-10.4H713.1z"/>
		<path class="st3" d="M718.4,178.3l2.8,8.8h0.2v-8.8h1.7v10.4h-3.1l-2.8-8.8H717v8.8h-1.7v-10.4H718.4z"/>
		<path class="st3" d="M735.8,184.6l2.2,4.2h-1.9l-2.1-4h-1.9v4h-1.7v-10.4h4.4c1.9,0,3.3,1.3,3.3,3.2
			C738.1,183.1,737.2,184.2,735.8,184.6z M732.1,183.1h2.6c1.1,0,1.7-0.6,1.7-1.6c0-1-0.6-1.6-1.7-1.6h-2.6V183.1z"/>
		<path class="st3" d="M746.9,178.3v1.6h-5v2.8h4.6v1.6h-4.6v2.9h5.1v1.6h-6.8v-10.4H746.9z"/>
		<path class="st3" d="M755.5,178.3v1.6h-4.8v2.8h4.5v1.6h-4.5v4.4H749v-10.4H755.5z"/>
		<path class="st3" d="M759.1,178.3v10.4h-1.7v-10.4H759.1z"/>
		<path class="st3" d="M764.7,178.3l2.8,8.8h0.2v-8.8h1.7v10.4h-3.1l-2.8-8.8h-0.2v8.8h-1.7v-10.4H764.7z"/>
		<path class="st3" d="M778.7,178.3v1.6h-5v2.8h4.6v1.6h-4.6v2.9h5.1v1.6h-6.8v-10.4H778.7z"/>
		<path class="st3" d="M688.1,200.9v-0.2c-0.4-0.6-0.7-1.2-0.7-1.9v-0.1c0-1.7,1.3-2.8,3.1-2.8c1.9,0,3.1,1.2,3.1,2.9v0.3H692v-0.3
			c0-0.8-0.5-1.4-1.4-1.4c-0.9,0-1.4,0.5-1.4,1.2v0.1c0,0.8,0.6,1.4,1.7,2.4l1.7,1.7h0.3l1.4-2.4h1.8l-2.1,3.6v0.3l2.2,2.2h-2.2
			l-0.9-0.9h-0.2c-0.7,0.7-1.5,1.2-2.7,1.2c-2.1,0-3.4-1.4-3.4-3.2C686.6,202.4,687.3,201.5,688.1,200.9z M690.1,205.2
			c0.7,0,1.2-0.3,1.5-0.6v-0.2l-2.3-2.3h-0.2c-0.5,0.3-0.8,0.8-0.8,1.4v0.1C688.4,204.3,689.1,205.2,690.1,205.2z"/>
		<path class="st3" d="M709.5,196.1v1.6h-5v2.8h4.6v1.6h-4.6v2.9h5.1v1.6h-6.8v-10.4H709.5z"/>
		<path class="st3" d="M712.9,196.1l2.3,3.9h0.2l2.3-3.9h1.9l-3,5v0.2l3,5.1h-1.9l-2.3-4h-0.2l-2.3,4h-2l3-5.1v-0.2l-3-5H712.9z"/>
		<path class="st3" d="M724.9,195.9c2.6,0,4,1.5,4,3.8v0.3h-1.7v-0.3c0-1.3-0.7-2.2-2.3-2.2c-1.6,0-2.5,1-2.5,2.6v2.5
			c0,1.6,0.9,2.6,2.5,2.6c1.6,0,2.3-0.9,2.3-2.2v-0.3h1.7v0.3c0,2.3-1.4,3.8-4,3.8c-2.6,0-4.2-1.5-4.2-4.2v-2.3
			C720.7,197.5,722.3,195.9,724.9,195.9z"/>
		<path class="st3" d="M737.7,196.1v1.6h-5v2.8h4.6v1.6h-4.6v2.9h5.1v1.6H731v-10.4H737.7z"/>
		<path class="st3" d="M741.5,196.1v8.8h5v1.6h-6.7v-10.4H741.5z"/>
	</g>
	<g>
		<path class="st7" d="M690.9,178.1c2.6,0,4.2,1.6,4.2,4.3v2.3c0,2.7-1.6,4.3-4.2,4.3c-2.6,0-4.2-1.6-4.2-4.3v-2.3
			C686.7,179.7,688.3,178.1,690.9,178.1z M688.4,184.7c0,1.7,0.8,2.7,2.4,2.7c1.7,0,2.4-1,2.4-2.7v-2.4c0-1.7-0.8-2.7-2.4-2.7
			c-1.6,0-2.4,1-2.4,2.7V184.7z"/>
		<path class="st7" d="M701.3,178.3c1.9,0,3.3,1.3,3.3,3.2c0,1.9-1.4,3.2-3.3,3.2h-2.4v4h-1.7v-10.4H701.3z M698.9,183.2h2.3
			c1.1,0,1.7-0.6,1.7-1.6c0-1-0.6-1.6-1.7-1.6h-2.3V183.2z"/>
		<path class="st7" d="M713.1,178.3v1.6h-5v2.8h4.6v1.6h-4.6v2.9h5.1v1.6h-6.8v-10.4H713.1z"/>
		<path class="st7" d="M718.4,178.3l2.8,8.8h0.2v-8.8h1.7v10.4h-3.1l-2.8-8.8H717v8.8h-1.7v-10.4H718.4z"/>
		<path class="st7" d="M735.8,184.6l2.2,4.2h-1.9l-2.1-4h-1.9v4h-1.7v-10.4h4.4c1.9,0,3.3,1.3,3.3,3.2
			C738.1,183.1,737.2,184.2,735.8,184.6z M732.1,183.1h2.6c1.1,0,1.7-0.6,1.7-1.6c0-1-0.6-1.6-1.7-1.6h-2.6V183.1z"/>
		<path class="st7" d="M746.9,178.3v1.6h-5v2.8h4.6v1.6h-4.6v2.9h5.1v1.6h-6.8v-10.4H746.9z"/>
		<path class="st7" d="M755.5,178.3v1.6h-4.8v2.8h4.5v1.6h-4.5v4.4H749v-10.4H755.5z"/>
		<path class="st7" d="M759.1,178.3v10.4h-1.7v-10.4H759.1z"/>
		<path class="st7" d="M764.7,178.3l2.8,8.8h0.2v-8.8h1.7v10.4h-3.1l-2.8-8.8h-0.2v8.8h-1.7v-10.4H764.7z"/>
		<path class="st7" d="M778.7,178.3v1.6h-5v2.8h4.6v1.6h-4.6v2.9h5.1v1.6h-6.8v-10.4H778.7z"/>
		<path class="st7" d="M688.1,200.9v-0.2c-0.4-0.6-0.7-1.2-0.7-1.9v-0.1c0-1.7,1.3-2.8,3.1-2.8c1.9,0,3.1,1.2,3.1,2.9v0.3H692v-0.3
			c0-0.8-0.5-1.4-1.4-1.4c-0.9,0-1.4,0.5-1.4,1.2v0.1c0,0.8,0.6,1.4,1.7,2.4l1.7,1.7h0.3l1.4-2.4h1.8l-2.1,3.6v0.3l2.2,2.2h-2.2
			l-0.9-0.9h-0.2c-0.7,0.7-1.5,1.2-2.7,1.2c-2.1,0-3.4-1.4-3.4-3.2C686.6,202.4,687.3,201.5,688.1,200.9z M690.1,205.2
			c0.7,0,1.2-0.3,1.5-0.6v-0.2l-2.3-2.3h-0.2c-0.5,0.3-0.8,0.8-0.8,1.4v0.1C688.4,204.3,689.1,205.2,690.1,205.2z"/>
		<path class="st7" d="M709.5,196.1v1.6h-5v2.8h4.6v1.6h-4.6v2.9h5.1v1.6h-6.8v-10.4H709.5z"/>
		<path class="st7" d="M712.9,196.1l2.3,3.9h0.2l2.3-3.9h1.9l-3,5v0.2l3,5.1h-1.9l-2.3-4h-0.2l-2.3,4h-2l3-5.1v-0.2l-3-5H712.9z"/>
		<path class="st7" d="M724.9,195.9c2.6,0,4,1.5,4,3.8v0.3h-1.7v-0.3c0-1.3-0.7-2.2-2.3-2.2c-1.6,0-2.5,1-2.5,2.6v2.5
			c0,1.6,0.9,2.6,2.5,2.6c1.6,0,2.3-0.9,2.3-2.2v-0.3h1.7v0.3c0,2.3-1.4,3.8-4,3.8c-2.6,0-4.2-1.5-4.2-4.2v-2.3
			C720.7,197.5,722.3,195.9,724.9,195.9z"/>
		<path class="st7" d="M737.7,196.1v1.6h-5v2.8h4.6v1.6h-4.6v2.9h5.1v1.6H731v-10.4H737.7z"/>
		<path class="st7" d="M741.5,196.1v8.8h5v1.6h-6.7v-10.4H741.5z"/>
	</g>
</g>
<line class="st6" x1="672.8" y1="168.5" x2="672.8" y2="215.5"/>
</svg>
