<svg id="Livello_1" data-name="Livello 1" xmlns="http://www.w3.org/2000/svg" viewBox="0 0 830 529.99"><defs><style>.cls-1{fill:#f6f6f6;}.cls-2,.cls-5,.cls-9{fill:none;stroke-miterlimit:10;}.cls-2{stroke:#e73f20;}.cls-3{fill:#b3b2b2;}.cls-4{fill:#c7c6c6;}.cls-5{stroke:#c7c6c6;}.cls-6{fill:#e73f20;}.cls-7{fill:#fff;}.cls-8{fill:#1e1e1c;}.cls-9{stroke:#1e1e1c;}</style></defs><title>Tavola disegno 1</title><rect class="cls-1" x="0.01" y="453.35" width="621.8" height="61.7"/><rect class="cls-1" x="0.01" y="-0.02" width="621.8" height="212.29"/><line class="cls-2" x1="329.34" y1="45.71" x2="390.28" y2="45.71"/><path class="cls-3" d="M650.2,280.47a3.67,3.67,0,0,1,3.93,4v2.13c0,2.55-1.47,4-3.93,4s-3.92-1.49-3.92-4V284.5A3.67,3.67,0,0,1,650.2,280.47Zm-2.29,6.22c0,1.57.74,2.5,2.29,2.5s2.3-1,2.3-2.5v-2.24c0-1.57-.8-2.51-2.3-2.51s-2.29,1-2.29,2.51Z"/><path class="cls-3" d="M660.06,280.66a3,3,0,1,1,0,6h-2.3v3.76h-1.62v-9.81Zm-2.3,4.57h2.13a1.54,1.54,0,1,0,0-3.08h-2.13Z"/><path class="cls-3" d="M671.23,280.66v1.49H666.5v2.65h4.34v1.48H666.5V289h4.8v1.49h-6.43v-9.81Z"/><path class="cls-3" d="M676.17,280.66l2.65,8.31H679v-8.31h1.62v9.81h-2.94L675,282.16h-.17v8.31h-1.62v-9.81Z"/><path class="cls-3" d="M692.6,286.55l2.08,3.92h-1.79l-1.95-3.83h-1.78v3.83h-1.62v-9.81h4.2a2.88,2.88,0,0,1,3.08,3A2.83,2.83,0,0,1,692.6,286.55Zm-3.44-1.39h2.41a1.51,1.51,0,1,0,0-3h-2.41Z"/><path class="cls-3" d="M703.08,280.66v1.49h-4.73v2.65h4.34v1.48h-4.34V289h4.8v1.49h-6.43v-9.81Z"/><path class="cls-3" d="M711.27,280.66v1.49h-4.55v2.66H711v1.48h-4.29v4.18H705.1v-9.81Z"/><path class="cls-3" d="M714.66,280.66v9.81H713v-9.81Z"/><path class="cls-3" d="M720,280.66l2.65,8.31h.17v-8.31h1.62v9.81h-2.94l-2.63-8.31h-.17v8.31H717v-9.81Z"/><path class="cls-3" d="M733.14,280.66v1.49h-4.73v2.65h4.34v1.48h-4.34V289h4.8v1.49h-6.43v-9.81Z"/><path class="cls-3" d="M647.61,302v-.21A2.94,2.94,0,0,1,647,300v-.09a2.69,2.69,0,0,1,3-2.63,2.72,2.72,0,0,1,3,2.76v.29h-1.64v-.25a1.24,1.24,0,0,0-1.36-1.32,1.18,1.18,0,0,0-1.3,1.18V300c0,.76.6,1.33,1.58,2.31l1.58,1.57H652l1.36-2.3h1.74l-2,3.36v.24l2.11,2.1h-2.1l-.88-.88H652a3.4,3.4,0,0,1-2.55,1.09,3,3,0,0,1-3.24-3A3.18,3.18,0,0,1,647.61,302Zm1.89,4a2,2,0,0,0,1.46-.6v-.23L648.8,303h-.21a1.66,1.66,0,0,0-.74,1.35v.05A1.58,1.58,0,0,0,649.5,306Z"/><path class="cls-3" d="M667.77,297.46V299H663v2.65h4.34v1.48H663v2.7h4.8v1.49h-6.42v-9.81Z"/><path class="cls-3" d="M671,297.46l2.17,3.69h.18l2.16-3.69h1.83l-2.81,4.77v.18l2.86,4.86h-1.84l-2.2-3.78h-.18l-2.2,3.78H669.1l2.87-4.86v-.18l-2.83-4.77Z"/><path class="cls-3" d="M682.36,297.27c2.43,0,3.77,1.4,3.77,3.54v.3H684.5v-.28a1.92,1.92,0,0,0-2.14-2.09,2.22,2.22,0,0,0-2.32,2.45v2.35a2.17,2.17,0,0,0,2.32,2.45,1.89,1.89,0,0,0,2.14-2.08v-.28h1.63v.26c0,2.17-1.29,3.57-3.77,3.57a3.64,3.64,0,0,1-4-4v-2.21A3.67,3.67,0,0,1,682.36,297.27Z"/><path class="cls-3" d="M694.43,297.46V299H689.7v2.65H694v1.48H689.7v2.7h4.8v1.49h-6.43v-9.81Z"/><path class="cls-3" d="M698.07,297.46v8.32h4.68v1.49h-6.31v-9.81Z"/><path class="cls-4" d="M650.2,280.47a3.67,3.67,0,0,1,3.93,4v2.13c0,2.55-1.47,4-3.93,4s-3.92-1.49-3.92-4V284.5A3.67,3.67,0,0,1,650.2,280.47Zm-2.29,6.22c0,1.57.74,2.5,2.29,2.5s2.3-1,2.3-2.5v-2.24c0-1.57-.8-2.51-2.3-2.51s-2.29,1-2.29,2.51Z"/><path class="cls-4" d="M660.06,280.66a3,3,0,1,1,0,6h-2.3v3.76h-1.62v-9.81Zm-2.3,4.57h2.13a1.54,1.54,0,1,0,0-3.08h-2.13Z"/><path class="cls-4" d="M671.23,280.66v1.49H666.5v2.65h4.34v1.48H666.5V289h4.8v1.49h-6.43v-9.81Z"/><path class="cls-4" d="M676.17,280.66l2.65,8.31H679v-8.31h1.62v9.81h-2.94L675,282.16h-.17v8.31h-1.62v-9.81Z"/><path class="cls-4" d="M692.6,286.55l2.08,3.92h-1.79l-1.95-3.83h-1.78v3.83h-1.62v-9.81h4.2a2.88,2.88,0,0,1,3.08,3A2.83,2.83,0,0,1,692.6,286.55Zm-3.44-1.39h2.41a1.51,1.51,0,1,0,0-3h-2.41Z"/><path class="cls-4" d="M703.08,280.66v1.49h-4.73v2.65h4.34v1.48h-4.34V289h4.8v1.49h-6.43v-9.81Z"/><path class="cls-4" d="M711.27,280.66v1.49h-4.55v2.66H711v1.48h-4.29v4.18H705.1v-9.81Z"/><path class="cls-4" d="M714.66,280.66v9.81H713v-9.81Z"/><path class="cls-4" d="M720,280.66l2.65,8.31h.17v-8.31h1.62v9.81h-2.94l-2.63-8.31h-.17v8.31H717v-9.81Z"/><path class="cls-4" d="M733.14,280.66v1.49h-4.73v2.65h4.34v1.48h-4.34V289h4.8v1.49h-6.43v-9.81Z"/><path class="cls-4" d="M647.61,302v-.21A2.94,2.94,0,0,1,647,300v-.09a2.69,2.69,0,0,1,3-2.63,2.72,2.72,0,0,1,3,2.76v.29h-1.64v-.25a1.24,1.24,0,0,0-1.36-1.32,1.18,1.18,0,0,0-1.3,1.18V300c0,.76.6,1.33,1.58,2.31l1.58,1.57H652l1.36-2.3h1.74l-2,3.36v.24l2.11,2.1h-2.1l-.88-.88H652a3.4,3.4,0,0,1-2.55,1.09,3,3,0,0,1-3.24-3A3.18,3.18,0,0,1,647.61,302Zm1.89,4a2,2,0,0,0,1.46-.6v-.23L648.8,303h-.21a1.66,1.66,0,0,0-.74,1.35v.05A1.58,1.58,0,0,0,649.5,306Z"/><path class="cls-4" d="M667.77,297.46V299H663v2.65h4.34v1.48H663v2.7h4.8v1.49h-6.42v-9.81Z"/><path class="cls-4" d="M671,297.46l2.17,3.69h.18l2.16-3.69h1.83l-2.81,4.77v.18l2.86,4.86h-1.84l-2.2-3.78h-.18l-2.2,3.78H669.1l2.87-4.86v-.18l-2.83-4.77Z"/><path class="cls-4" d="M682.36,297.27c2.43,0,3.77,1.4,3.77,3.54v.3H684.5v-.28a1.92,1.92,0,0,0-2.14-2.09,2.22,2.22,0,0,0-2.32,2.45v2.35a2.17,2.17,0,0,0,2.32,2.45,1.89,1.89,0,0,0,2.14-2.08v-.28h1.63v.26c0,2.17-1.29,3.57-3.77,3.57a3.64,3.64,0,0,1-4-4v-2.21A3.67,3.67,0,0,1,682.36,297.27Z"/><path class="cls-4" d="M694.43,297.46V299H689.7v2.65H694v1.48H689.7v2.7h4.8v1.49h-6.43v-9.81Z"/><path class="cls-4" d="M698.07,297.46v8.32h4.68v1.49h-6.31v-9.81Z"/><line class="cls-5" x1="633.14" y1="235.29" x2="633.14" y2="353.14"/><rect class="cls-1" x="0.04" y="226.61" width="621.77" height="211.99"/><rect class="cls-6" x="10.91" y="237.39" width="127" height="20.9"/><path class="cls-7" d="M21.81,244c2.2,0,3.4,1.1,3.4,3.3V249c0,2.2-1.2,3.3-3.4,3.3h-2.7v-8.4h2.7Zm-1.4,7.1h1.3c1.4,0,2-.7,2-2.1v-1.8c0-1.4-.6-2.1-2-2.1h-1.3Z"/><path class="cls-7" d="M30.81,244l2.5,8.4h-1.5l-.6-1.9H28l-.6,1.9h-1.5l2.5-8.4Zm.1,5.2-1.2-4h-.1l-1.2,4Z"/><path class="cls-7" d="M39.91,244v1.3h-2.6v7.1h-1.4v-7.1h-2.6V244Z"/><path class="cls-7" d="M44.71,244l2.5,8.4h-1.5l-.6-1.9h-3.2l-.6,1.9h-1.5l2.5-8.4Zm.1,5.2-1.2-4h-.1l-1.2,4Z"/><path class="cls-7" d="M57.91,244v1.3h-4.1v2.3h3.8v1.3h-3.7v2.3H58v1.3h-5.5v-8.4h5.4Z"/><path class="cls-7" d="M60.61,244l1.9,3.2h.2l1.8-3.2h1.6l-2.4,4.1v.2l2.4,4.2h-1.6l-1.9-3.2h-.2l-1.9,3.2h-1.6l2.5-4.2v-.2L59,244Z"/><path class="cls-7" d="M70.91,244a2.42,2.42,0,0,1,2.6,2.6,2.47,2.47,0,0,1-2.6,2.6h-2v3.2h-1.3V244Zm-1.9,3.9h1.8a1.3,1.3,0,1,0,0-2.6H69Z"/><path class="cls-7" d="M76.41,244v7.1h4v1.3H75V244Z"/><path class="cls-7" d="M85,243.79a3.18,3.18,0,0,1,3.4,3.5v1.8a3.4,3.4,0,1,1-6.8,0v-1.8A3.18,3.18,0,0,1,85,243.79Zm-2,5.3c0,1.3.6,2.1,2,2.1s2-.8,2-2.1v-1.9a2,2,0,1,0-4,0Z"/><path class="cls-7" d="M94.41,249l1.8,3.4h-1.6l-1.7-3.3h-1.5v3.3H90V244h3.6a2.42,2.42,0,0,1,2.6,2.6A2.28,2.28,0,0,1,94.41,249Zm-3-1.2h2.1a1.3,1.3,0,1,0,0-2.6h-2.1Z"/><path class="cls-7" d="M101.91,244l2.5,8.4h-1.5l-.6-1.9h-3.2l-.6,1.9H97l2.5-8.4Zm.1,5.2-1.2-4h-.1l-1.2,4Z"/><path class="cls-7" d="M111.11,244v1.3h-2.6v7.1h-1.4v-7.1h-2.6V244Z"/><path class="cls-7" d="M113.91,244v8.4h-1.4V244Z"/><path class="cls-7" d="M119,243.79a3.18,3.18,0,0,1,3.4,3.5v1.8a3.4,3.4,0,1,1-6.8,0v-1.8A3.18,3.18,0,0,1,119,243.79Zm-2,5.3c0,1.3.6,2.1,2,2.1s2-.8,2-2.1v-1.9a2,2,0,1,0-4,0Z"/><path class="cls-7" d="M126.61,244l2.3,7.1h.1V244h1.4v8.4h-2.5l-2.3-7.1h-.1v7.1h-1.4V244Z"/><line class="cls-5" x1="633.11" y1="8.48" x2="633.11" y2="128.18"/><path class="cls-3" d="M646.19,46.07a3.68,3.68,0,0,1,3.95-4c2.4,0,3.74,1.39,3.74,3.62v.11h-1.62v-.13a1.92,1.92,0,0,0-2.12-2.13A2.22,2.22,0,0,0,647.82,46v2.35a2.18,2.18,0,0,0,2.32,2.45,1.87,1.87,0,0,0,2.12-2.1v-.13h-2.51V47.12h4.13v1.54c0,2.25-1.31,3.61-3.74,3.61a3.64,3.64,0,0,1-3.95-4Z"/><path class="cls-3" d="M659.45,42.07a3.68,3.68,0,0,1,3.93,4v2.13c0,2.55-1.47,4-3.93,4s-3.92-1.48-3.92-4V46.11A3.67,3.67,0,0,1,659.45,42.07Zm-2.29,6.22c0,1.57.74,2.51,2.29,2.51s2.3-1,2.3-2.51V46.05c0-1.57-.8-2.51-2.3-2.51s-2.29,1-2.29,2.51Z"/><path class="cls-3" d="M669,42.07a3.68,3.68,0,0,1,3.92,4v2.13c0,2.55-1.47,4-3.92,4s-3.93-1.48-3.93-4V46.11A3.68,3.68,0,0,1,669,42.07Zm-2.3,6.22c0,1.57.74,2.51,2.3,2.51s2.29-1,2.29-2.51V46.05c0-1.57-.8-2.51-2.29-2.51s-2.3,1-2.3,2.51Z"/><path class="cls-3" d="M674.52,46.07a3.67,3.67,0,0,1,4-4,3.38,3.38,0,0,1,3.74,3.62v.11h-1.63v-.13a1.91,1.91,0,0,0-2.11-2.13A2.22,2.22,0,0,0,676.14,46v2.35a2.18,2.18,0,0,0,2.33,2.45,1.87,1.87,0,0,0,2.11-2.1v-.13h-2.51V47.12h4.14v1.54c0,2.25-1.32,3.61-3.74,3.61a3.64,3.64,0,0,1-4-4Z"/><path class="cls-3" d="M685.84,42.27v8.32h4.68v1.48h-6.3v-9.8Z"/><path class="cls-3" d="M698.57,42.27v1.48h-4.73V46.4h4.34v1.49h-4.34v2.7h4.8v1.48h-6.43v-9.8Z"/><path class="cls-3" d="M708.06,42.27l2.65,8.31h.17V42.27h1.62v9.8h-2.94l-2.63-8.3h-.17v8.3h-1.63v-9.8Z"/><path class="cls-3" d="M721.24,42.27v1.48H716.5V46.4h4.34v1.49H716.5v2.7h4.81v1.48h-6.43v-9.8Z"/><path class="cls-3" d="M724.24,42.27l1.15,8.28h.17L727,42.27h2.58l1.49,8.28h.17l1.14-8.28h1.64l-1.44,9.8H729.9l-1.48-8.27h-.17l-1.49,8.27h-2.7l-1.46-9.8Z"/><path class="cls-3" d="M742.57,45.17v.43H741v-.32c0-1.19-.8-1.76-2-1.76-1,0-1.73.53-1.73,1.3s.72,1.16,2,1.46l.38.08c1.92.42,3.07,1.16,3.07,2.9,0,1.89-1.51,3-3.56,3-2.39,0-3.92-1.34-3.92-3.57v-.38h1.61v.29a2.07,2.07,0,0,0,2.34,2.22c1.25,0,1.92-.67,1.92-1.5s-.67-1.23-2-1.5l-.38-.08c-1.89-.42-3.14-1.1-3.14-2.9s1.49-2.78,3.35-2.78C741,42.07,742.57,43.18,742.57,45.17Z"/><path class="cls-3" d="M646.78,57a.65.65,0,1,1-.66.65A.64.64,0,0,1,646.78,57Zm.38,7h-.76V59.2h.76Z"/><path class="cls-3" d="M649.8,59.2v.87h.14a1.75,1.75,0,0,1,1.71-1,1.84,1.84,0,0,1,1.92,2v2.94h-.76V61.19a1.24,1.24,0,0,0-1.37-1.4,1.57,1.57,0,0,0-1.62,1.78v2.5h-.76V59.2Z"/><path class="cls-3" d="M657.61,59.06a2.25,2.25,0,0,1,2.32,1.88l-.76.15a1.46,1.46,0,0,0-1.56-1.32,1.88,1.88,0,0,0,0,3.75,1.49,1.49,0,0,0,1.56-1.33l.76.15a2.27,2.27,0,0,1-2.32,1.87,2.58,2.58,0,0,1,0-5.15Z"/><path class="cls-3" d="M663.67,59.06a2.58,2.58,0,1,1-2.49,2.58A2.43,2.43,0,0,1,663.67,59.06Zm0,4.46a1.88,1.88,0,1,0-1.73-1.88A1.7,1.7,0,0,0,663.67,63.52Z"/><path class="cls-3" d="M672.37,59.2v4.7A2.22,2.22,0,0,1,670,66.21a2.79,2.79,0,0,1-2.51-1.36l.7-.39A1.9,1.9,0,0,0,670,65.52a1.53,1.53,0,0,0,1.65-1.68v-.7h-.12a1.87,1.87,0,0,1-1.77,1,2.54,2.54,0,0,1,0-5,1.86,1.86,0,0,1,1.77,1h.14V59.2Zm-.76,2.39a1.72,1.72,0,1,0-1.71,1.83A1.67,1.67,0,0,0,671.61,61.59Z"/><path class="cls-3" d="M675,59.2v.87h.14a1.75,1.75,0,0,1,1.71-1,1.85,1.85,0,0,1,1.92,2v2.94H678V61.19a1.24,1.24,0,0,0-1.36-1.4A1.57,1.57,0,0,0,675,61.57v2.5h-.76V59.2Z"/><path class="cls-3" d="M681,57a.65.65,0,1,1-.66.65A.64.64,0,0,1,681,57Zm.38,7h-.76V59.2h.76Z"/><path class="cls-3" d="M684.16,59.2V57.44h.77V59.2h1.54v.67h-1.54v3.25c0,.19.08.29.26.29h1v.66h-1.28a.71.71,0,0,1-.75-.76V59.87h-1.48V59.2Z"/><path class="cls-3" d="M690.08,59.06a2.58,2.58,0,1,1-2.49,2.58A2.43,2.43,0,0,1,690.08,59.06Zm0,4.46a1.88,1.88,0,1,0-1.73-1.88A1.7,1.7,0,0,0,690.08,63.52Z"/><path class="cls-3" d="M698.4,59.2v.66h.14a1.49,1.49,0,0,1,1.38-.74,1.42,1.42,0,0,1,1.38.86h.14a1.53,1.53,0,0,1,1.48-.86,1.58,1.58,0,0,1,1.66,1.61v3.34h-.77V60.79a1,1,0,0,0-1.11-1,1.16,1.16,0,0,0-1.2,1.28v3h-.77V60.79a1,1,0,0,0-1.07-1,1.18,1.18,0,0,0-1.24,1.28v3h-.76V59.2Z"/><path class="cls-3" d="M708.6,59.06a2.58,2.58,0,1,1-2.49,2.58A2.43,2.43,0,0,1,708.6,59.06Zm0,4.46a1.88,1.88,0,1,0-1.73-1.88A1.7,1.7,0,0,0,708.6,63.52Z"/><path class="cls-3" d="M717.3,64.07h-.74v-.83h-.14a1.86,1.86,0,0,1-1.77,1,2.59,2.59,0,0,1,0-5.15,1.88,1.88,0,0,1,1.77,1h.12v-3h.76Zm-4.19-2.43a1.72,1.72,0,1,0,1.72-1.89A1.69,1.69,0,0,0,713.11,61.64Z"/><path class="cls-3" d="M721.31,59.05a2.28,2.28,0,0,1,2.36,2.43v.41h-4a1.63,1.63,0,0,0,1.71,1.65,1.57,1.57,0,0,0,1.51-1l.67.35a2.32,2.32,0,0,1-2.16,1.29,2.47,2.47,0,0,1-2.53-2.61A2.43,2.43,0,0,1,721.31,59.05Zm1.56,2.21a1.45,1.45,0,0,0-1.56-1.53,1.55,1.55,0,0,0-1.62,1.53Z"/><path class="cls-3" d="M648.51,71.05a2.27,2.27,0,0,1,2.35,2.43v.41h-4a1.64,1.64,0,0,0,1.72,1.65,1.56,1.56,0,0,0,1.5-1l.67.35a2.31,2.31,0,0,1-2.16,1.29,2.47,2.47,0,0,1-2.53-2.61A2.44,2.44,0,0,1,648.51,71.05Zm1.55,2.21a1.44,1.44,0,0,0-1.55-1.53,1.55,1.55,0,0,0-1.63,1.53Z"/><path class="cls-3" d="M653.15,71.2v.87h.14a1.75,1.75,0,0,1,1.71-.95,1.85,1.85,0,0,1,1.92,2v2.94h-.77V73.19a1.24,1.24,0,0,0-1.36-1.4,1.57,1.57,0,0,0-1.62,1.78v2.5h-.76V71.2Z"/><path class="cls-3" d="M663.4,71.2v4.7A2.22,2.22,0,0,1,661,78.21a2.79,2.79,0,0,1-2.51-1.36l.7-.39A1.9,1.9,0,0,0,661,77.52a1.53,1.53,0,0,0,1.66-1.68v-.7h-.13a1.86,1.86,0,0,1-1.77,1,2.54,2.54,0,0,1,0-5,1.85,1.85,0,0,1,1.77,1h.14V71.2Zm-.75,2.39a1.72,1.72,0,1,0-1.72,1.83A1.67,1.67,0,0,0,662.65,73.59Z"/><path class="cls-3" d="M666.07,76.07h-.76v-7h.76Z"/><path class="cls-3" d="M668.35,69a.65.65,0,1,1-.66.65A.64.64,0,0,1,668.35,69Zm.38,7H668V71.2h.76Z"/><path class="cls-3" d="M672.37,71.06a2.91,2.91,0,0,1,2.41,1.29l-.59.4a2.19,2.19,0,0,0-1.81-1c-.63,0-1.09.26-1.09.75s.53.63,1.13.72l.46.07c1.12.17,1.92.46,1.92,1.4s-.86,1.56-2.12,1.56a2.69,2.69,0,0,1-2.53-1.59l.69-.35a1.9,1.9,0,0,0,1.86,1.27c.8,0,1.33-.34,1.33-.87s-.61-.63-1.24-.72l-.46-.07c-1.07-.15-1.8-.49-1.8-1.41S671.37,71.06,672.37,71.06Z"/><path class="cls-3" d="M677.1,69.08v3h.12a1.75,1.75,0,0,1,1.71-.95,1.85,1.85,0,0,1,1.92,2v2.94h-.77V73.19a1.24,1.24,0,0,0-1.36-1.4,1.57,1.57,0,0,0-1.62,1.78v2.5h-.76v-7Z"/><path class="cls-3" d="M687,76.07h-.76v-7H687Z"/><path class="cls-3" d="M691,71.06A1.89,1.89,0,0,1,693.15,73v3.07h-.75v-.81h-.14a1.89,1.89,0,0,1-1.83.95c-1.06,0-1.82-.56-1.82-1.43s.73-1.34,1.86-1.45l1.92-.18V73c0-.74-.5-1.21-1.37-1.21a1.69,1.69,0,0,0-1.67,1.09l-.67-.31A2.53,2.53,0,0,1,691,71.06Zm-.51,4.5a1.66,1.66,0,0,0,1.86-1.69v-.1l-1.82.17c-.68.06-1.19.27-1.19.82S689.85,75.56,690.53,75.56Z"/><path class="cls-3" d="M695.74,71.2v.87h.14a1.74,1.74,0,0,1,1.7-.95,1.85,1.85,0,0,1,1.93,2v2.94h-.77V73.19a1.24,1.24,0,0,0-1.36-1.4,1.57,1.57,0,0,0-1.62,1.78v2.5H695V71.2Z"/><path class="cls-3" d="M706,71.2v4.7a2.23,2.23,0,0,1-2.37,2.31,2.79,2.79,0,0,1-2.5-1.36l.7-.39a1.9,1.9,0,0,0,1.76,1.06,1.53,1.53,0,0,0,1.65-1.68v-.7h-.12a1.89,1.89,0,0,1-1.78,1,2.54,2.54,0,0,1,0-5,1.88,1.88,0,0,1,1.78,1h.14V71.2Zm-.76,2.39a1.72,1.72,0,1,0-1.71,1.83A1.67,1.67,0,0,0,705.23,73.59Z"/><path class="cls-3" d="M711.6,76.07v-.86h-.14a1.75,1.75,0,0,1-1.71,1,1.84,1.84,0,0,1-1.91-2v-3h.76v2.89A1.23,1.23,0,0,0,710,75.48a1.56,1.56,0,0,0,1.62-1.77V71.2h.77v4.87Z"/><path class="cls-3" d="M716.42,71.06A1.89,1.89,0,0,1,718.53,73v3.07h-.75v-.81h-.14a1.9,1.9,0,0,1-1.83.95c-1.06,0-1.82-.56-1.82-1.43s.73-1.34,1.86-1.45l1.92-.18V73c0-.74-.5-1.21-1.37-1.21a1.69,1.69,0,0,0-1.67,1.09l-.67-.31A2.53,2.53,0,0,1,716.42,71.06Zm-.51,4.5a1.66,1.66,0,0,0,1.86-1.69v-.1l-1.82.17c-.68.06-1.19.27-1.19.82S715.23,75.56,715.91,75.56Z"/><path class="cls-3" d="M725,71.2v4.7a2.23,2.23,0,0,1-2.37,2.31,2.79,2.79,0,0,1-2.5-1.36l.7-.39a1.89,1.89,0,0,0,1.75,1.06,1.53,1.53,0,0,0,1.66-1.68v-.7h-.12a1.89,1.89,0,0,1-1.78,1,2.54,2.54,0,0,1,0-5,1.88,1.88,0,0,1,1.78,1h.14V71.2Zm-.76,2.39a1.72,1.72,0,1,0-1.72,1.83A1.67,1.67,0,0,0,724.26,73.59Z"/><path class="cls-3" d="M729,71.05a2.28,2.28,0,0,1,2.36,2.43v.41h-4a1.63,1.63,0,0,0,1.71,1.65,1.57,1.57,0,0,0,1.51-1l.67.35a2.33,2.33,0,0,1-2.17,1.29,2.47,2.47,0,0,1-2.52-2.61A2.43,2.43,0,0,1,729,71.05Zm1.56,2.21A1.45,1.45,0,0,0,729,71.73a1.55,1.55,0,0,0-1.62,1.53Z"/><path class="cls-3" d="M647.31,83.2V81.86a.72.72,0,0,1,.76-.78h1.25v.67h-1c-.18,0-.27.09-.27.29V83.2h1.51v.67h-1.51v4.2h-.76v-4.2h-1.48V83.2Z"/><path class="cls-3" d="M651.67,83.93h.14a1.16,1.16,0,0,1,1.26-.75h.61v.74h-.84a1.06,1.06,0,0,0-1.14,1.22v2.93h-.76V83.2h.73Z"/><path class="cls-3" d="M656.94,83.06a2.58,2.58,0,1,1-2.49,2.58A2.42,2.42,0,0,1,656.94,83.06Zm0,4.46a1.88,1.88,0,1,0-1.73-1.88A1.69,1.69,0,0,0,656.94,87.52Z"/><path class="cls-3" d="M661.74,83.2v.66h.14a1.49,1.49,0,0,1,1.38-.74,1.42,1.42,0,0,1,1.38.86h.14a1.53,1.53,0,0,1,1.48-.86,1.58,1.58,0,0,1,1.66,1.61v3.34h-.77V84.79a1,1,0,0,0-1.11-1,1.16,1.16,0,0,0-1.2,1.28v3h-.76V84.79a1,1,0,0,0-1.08-1,1.18,1.18,0,0,0-1.24,1.28v3H661V83.2Z"/><path class="cls-3" d="M675.56,80.94a2.21,2.21,0,0,1,2.37,2.25c0,1.41-1,2-2.36,2.43-1.12.34-1.72.59-1.72,1.55v.16h4v.74H673v-.8c0-1.39.86-1.92,2.19-2.31s1.9-.79,1.9-1.8a1.42,1.42,0,0,0-1.55-1.47,1.55,1.55,0,0,0-1.71,1.68v.21H673v-.26A2.32,2.32,0,0,1,675.56,80.94Z"/><path class="cls-3" d="M681.89,80.94c1.57,0,2.55,1,2.55,2.86v1.56c0,1.83-1,2.85-2.55,2.85s-2.57-1-2.57-2.85V83.8C679.32,82,680.28,80.94,681.89,80.94Zm-1.75,4.45c0,1.32.58,2.07,1.75,2.07s1.73-.75,1.73-2.07V83.77c0-1.32-.58-2.08-1.73-2.08s-1.75.76-1.75,2.08Z"/><path class="cls-3" d="M688.76,81.08v7h-.82V81.88h-.12l-1.42,2.22h-.93l2-3Z"/><path class="cls-3" d="M692.94,80.94a2.21,2.21,0,0,1,2.37,2.25c0,1.41-1,2-2.36,2.43-1.12.34-1.72.59-1.72,1.55v.16h4v.74H690.4v-.8c0-1.39.86-1.92,2.19-2.31,1.18-.35,1.9-.79,1.9-1.8a1.42,1.42,0,0,0-1.55-1.47,1.55,1.55,0,0,0-1.71,1.68v.21h-.82v-.26A2.32,2.32,0,0,1,692.94,80.94Z"/><path class="cls-3" d="M701.3,83.2V81.44h.77V83.2h1.54v.67h-1.54v3.25c0,.19.08.29.26.29h1v.66h-1.28a.71.71,0,0,1-.75-.76V83.87h-1.48V83.2Z"/><path class="cls-3" d="M707.22,83.06a2.58,2.58,0,1,1-2.49,2.58A2.43,2.43,0,0,1,707.22,83.06Zm0,4.46a1.88,1.88,0,1,0-1.73-1.88A1.7,1.7,0,0,0,707.22,87.52Z"/><path class="cls-3" d="M717.07,80.94a2.21,2.21,0,0,1,2.37,2.25c0,1.41-1,2-2.36,2.43-1.12.34-1.72.59-1.72,1.55v.16h4v.74h-4.87v-.8c0-1.39.86-1.92,2.19-2.31,1.18-.35,1.9-.79,1.9-1.8a1.42,1.42,0,0,0-1.55-1.47,1.55,1.55,0,0,0-1.71,1.68v.21h-.82v-.26A2.32,2.32,0,0,1,717.07,80.94Z"/><path class="cls-3" d="M723.4,80.94c1.57,0,2.55,1,2.55,2.86v1.56c0,1.83-1,2.85-2.55,2.85s-2.57-1-2.57-2.85V83.8C720.83,82,721.79,80.94,723.4,80.94Zm-1.75,4.45c0,1.32.58,2.07,1.75,2.07s1.73-.75,1.73-2.07V83.77c0-1.32-.58-2.08-1.73-2.08s-1.75.76-1.75,2.08Z"/><path class="cls-3" d="M730.27,81.08l0,7h-.81V81.88h-.12L727.9,84.1H727l2-3Z"/><path class="cls-3" d="M734.39,80.94c1.45,0,2.39.77,2.39,1.87a1.63,1.63,0,0,1-1.22,1.57v.12a1.72,1.72,0,0,1,1.35,1.71c0,1.19-1,2-2.52,2s-2.53-.81-2.53-2a1.72,1.72,0,0,1,1.34-1.71v-.12A1.62,1.62,0,0,1,732,82.81C732,81.71,732.92,80.94,734.39,80.94Zm0,6.52c1,0,1.7-.46,1.7-1.31s-.7-1.33-1.7-1.33-1.71.48-1.71,1.33S733.37,87.46,734.39,87.46Zm0-3.39c.93,0,1.57-.45,1.57-1.19s-.64-1.19-1.57-1.19-1.58.45-1.58,1.19S733.45,84.07,734.39,84.07Z"/><path class="cls-4" d="M646.19,46.07a3.68,3.68,0,0,1,3.95-4c2.4,0,3.74,1.39,3.74,3.62v.11h-1.62v-.13a1.92,1.92,0,0,0-2.12-2.13A2.22,2.22,0,0,0,647.82,46v2.35a2.18,2.18,0,0,0,2.32,2.45,1.87,1.87,0,0,0,2.12-2.1v-.13h-2.51V47.12h4.13v1.54c0,2.25-1.31,3.61-3.74,3.61a3.64,3.64,0,0,1-3.95-4Z"/><path class="cls-4" d="M659.45,42.07a3.68,3.68,0,0,1,3.93,4v2.13c0,2.55-1.47,4-3.93,4s-3.92-1.48-3.92-4V46.11A3.67,3.67,0,0,1,659.45,42.07Zm-2.29,6.22c0,1.57.74,2.51,2.29,2.51s2.3-1,2.3-2.51V46.05c0-1.57-.8-2.51-2.3-2.51s-2.29,1-2.29,2.51Z"/><path class="cls-4" d="M669,42.07a3.68,3.68,0,0,1,3.92,4v2.13c0,2.55-1.47,4-3.92,4s-3.93-1.48-3.93-4V46.11A3.68,3.68,0,0,1,669,42.07Zm-2.3,6.22c0,1.57.74,2.51,2.3,2.51s2.29-1,2.29-2.51V46.05c0-1.57-.8-2.51-2.29-2.51s-2.3,1-2.3,2.51Z"/><path class="cls-4" d="M674.52,46.07a3.67,3.67,0,0,1,4-4,3.38,3.38,0,0,1,3.74,3.62v.11h-1.63v-.13a1.91,1.91,0,0,0-2.11-2.13A2.22,2.22,0,0,0,676.14,46v2.35a2.18,2.18,0,0,0,2.33,2.45,1.87,1.87,0,0,0,2.11-2.1v-.13h-2.51V47.12h4.14v1.54c0,2.25-1.32,3.61-3.74,3.61a3.64,3.64,0,0,1-4-4Z"/><path class="cls-4" d="M685.84,42.27v8.32h4.68v1.48h-6.3v-9.8Z"/><path class="cls-4" d="M698.57,42.27v1.48h-4.73V46.4h4.34v1.49h-4.34v2.7h4.8v1.48h-6.43v-9.8Z"/><path class="cls-4" d="M708.06,42.27l2.65,8.31h.17V42.27h1.62v9.8h-2.94l-2.63-8.3h-.17v8.3h-1.63v-9.8Z"/><path class="cls-4" d="M721.24,42.27v1.48H716.5V46.4h4.34v1.49H716.5v2.7h4.81v1.48h-6.43v-9.8Z"/><path class="cls-4" d="M724.24,42.27l1.15,8.28h.17L727,42.27h2.58l1.49,8.28h.17l1.14-8.28h1.64l-1.44,9.8H729.9l-1.48-8.27h-.17l-1.49,8.27h-2.7l-1.46-9.8Z"/><path class="cls-4" d="M742.57,45.17v.43H741v-.32c0-1.19-.8-1.76-2-1.76-1,0-1.73.53-1.73,1.3s.72,1.16,2,1.46l.38.08c1.92.42,3.07,1.16,3.07,2.9,0,1.89-1.51,3-3.56,3-2.39,0-3.92-1.34-3.92-3.57v-.38h1.61v.29a2.07,2.07,0,0,0,2.34,2.22c1.25,0,1.92-.67,1.92-1.5s-.67-1.23-2-1.5l-.38-.08c-1.89-.42-3.14-1.1-3.14-2.9s1.49-2.78,3.35-2.78C741,42.07,742.57,43.18,742.57,45.17Z"/><path class="cls-4" d="M646.78,57a.65.65,0,1,1-.66.65A.64.64,0,0,1,646.78,57Zm.38,7h-.76V59.2h.76Z"/><path class="cls-4" d="M649.8,59.2v.87h.14a1.75,1.75,0,0,1,1.71-1,1.84,1.84,0,0,1,1.92,2v2.94h-.76V61.19a1.24,1.24,0,0,0-1.37-1.4,1.57,1.57,0,0,0-1.62,1.78v2.5h-.76V59.2Z"/><path class="cls-4" d="M657.61,59.06a2.25,2.25,0,0,1,2.32,1.88l-.76.15a1.46,1.46,0,0,0-1.56-1.32,1.88,1.88,0,0,0,0,3.75,1.49,1.49,0,0,0,1.56-1.33l.76.15a2.27,2.27,0,0,1-2.32,1.87,2.58,2.58,0,0,1,0-5.15Z"/><path class="cls-4" d="M663.67,59.06a2.58,2.58,0,1,1-2.49,2.58A2.43,2.43,0,0,1,663.67,59.06Zm0,4.46a1.88,1.88,0,1,0-1.73-1.88A1.7,1.7,0,0,0,663.67,63.52Z"/><path class="cls-4" d="M672.37,59.2v4.7A2.22,2.22,0,0,1,670,66.21a2.79,2.79,0,0,1-2.51-1.36l.7-.39A1.9,1.9,0,0,0,670,65.52a1.53,1.53,0,0,0,1.65-1.68v-.7h-.12a1.87,1.87,0,0,1-1.77,1,2.54,2.54,0,0,1,0-5,1.86,1.86,0,0,1,1.77,1h.14V59.2Zm-.76,2.39a1.72,1.72,0,1,0-1.71,1.83A1.67,1.67,0,0,0,671.61,61.59Z"/><path class="cls-4" d="M675,59.2v.87h.14a1.75,1.75,0,0,1,1.71-1,1.85,1.85,0,0,1,1.92,2v2.94H678V61.19a1.24,1.24,0,0,0-1.36-1.4A1.57,1.57,0,0,0,675,61.57v2.5h-.76V59.2Z"/><path class="cls-4" d="M681,57a.65.65,0,1,1-.66.65A.64.64,0,0,1,681,57Zm.38,7h-.76V59.2h.76Z"/><path class="cls-4" d="M684.16,59.2V57.44h.77V59.2h1.54v.67h-1.54v3.25c0,.19.08.29.26.29h1v.66h-1.28a.71.71,0,0,1-.75-.76V59.87h-1.48V59.2Z"/><path class="cls-4" d="M690.08,59.06a2.58,2.58,0,1,1-2.49,2.58A2.43,2.43,0,0,1,690.08,59.06Zm0,4.46a1.88,1.88,0,1,0-1.73-1.88A1.7,1.7,0,0,0,690.08,63.52Z"/><path class="cls-4" d="M698.4,59.2v.66h.14a1.49,1.49,0,0,1,1.38-.74,1.42,1.42,0,0,1,1.38.86h.14a1.53,1.53,0,0,1,1.48-.86,1.58,1.58,0,0,1,1.66,1.61v3.34h-.77V60.79a1,1,0,0,0-1.11-1,1.16,1.16,0,0,0-1.2,1.28v3h-.77V60.79a1,1,0,0,0-1.07-1,1.18,1.18,0,0,0-1.24,1.28v3h-.76V59.2Z"/><path class="cls-4" d="M708.6,59.06a2.58,2.58,0,1,1-2.49,2.58A2.43,2.43,0,0,1,708.6,59.06Zm0,4.46a1.88,1.88,0,1,0-1.73-1.88A1.7,1.7,0,0,0,708.6,63.52Z"/><path class="cls-4" d="M717.3,64.07h-.74v-.83h-.14a1.86,1.86,0,0,1-1.77,1,2.59,2.59,0,0,1,0-5.15,1.88,1.88,0,0,1,1.77,1h.12v-3h.76Zm-4.19-2.43a1.72,1.72,0,1,0,1.72-1.89A1.69,1.69,0,0,0,713.11,61.64Z"/><path class="cls-4" d="M721.31,59.05a2.28,2.28,0,0,1,2.36,2.43v.41h-4a1.63,1.63,0,0,0,1.71,1.65,1.57,1.57,0,0,0,1.51-1l.67.35a2.32,2.32,0,0,1-2.16,1.29,2.47,2.47,0,0,1-2.53-2.61A2.43,2.43,0,0,1,721.31,59.05Zm1.56,2.21a1.45,1.45,0,0,0-1.56-1.53,1.55,1.55,0,0,0-1.62,1.53Z"/><path class="cls-4" d="M648.51,71.05a2.27,2.27,0,0,1,2.35,2.43v.41h-4a1.64,1.64,0,0,0,1.72,1.65,1.56,1.56,0,0,0,1.5-1l.67.35a2.31,2.31,0,0,1-2.16,1.29,2.47,2.47,0,0,1-2.53-2.61A2.44,2.44,0,0,1,648.51,71.05Zm1.55,2.21a1.44,1.44,0,0,0-1.55-1.53,1.55,1.55,0,0,0-1.63,1.53Z"/><path class="cls-4" d="M653.15,71.2v.87h.14a1.75,1.75,0,0,1,1.71-.95,1.85,1.85,0,0,1,1.92,2v2.94h-.77V73.19a1.24,1.24,0,0,0-1.36-1.4,1.57,1.57,0,0,0-1.62,1.78v2.5h-.76V71.2Z"/><path class="cls-4" d="M663.4,71.2v4.7A2.22,2.22,0,0,1,661,78.21a2.79,2.79,0,0,1-2.51-1.36l.7-.39A1.9,1.9,0,0,0,661,77.52a1.53,1.53,0,0,0,1.66-1.68v-.7h-.13a1.86,1.86,0,0,1-1.77,1,2.54,2.54,0,0,1,0-5,1.85,1.85,0,0,1,1.77,1h.14V71.2Zm-.75,2.39a1.72,1.72,0,1,0-1.72,1.83A1.67,1.67,0,0,0,662.65,73.59Z"/><path class="cls-4" d="M666.07,76.07h-.76v-7h.76Z"/><path class="cls-4" d="M668.35,69a.65.65,0,1,1-.66.65A.64.64,0,0,1,668.35,69Zm.38,7H668V71.2h.76Z"/><path class="cls-4" d="M672.37,71.06a2.91,2.91,0,0,1,2.41,1.29l-.59.4a2.19,2.19,0,0,0-1.81-1c-.63,0-1.09.26-1.09.75s.53.63,1.13.72l.46.07c1.12.17,1.92.46,1.92,1.4s-.86,1.56-2.12,1.56a2.69,2.69,0,0,1-2.53-1.59l.69-.35a1.9,1.9,0,0,0,1.86,1.27c.8,0,1.33-.34,1.33-.87s-.61-.63-1.24-.72l-.46-.07c-1.07-.15-1.8-.49-1.8-1.41S671.37,71.06,672.37,71.06Z"/><path class="cls-4" d="M677.1,69.08v3h.12a1.75,1.75,0,0,1,1.71-.95,1.85,1.85,0,0,1,1.92,2v2.94h-.77V73.19a1.24,1.24,0,0,0-1.36-1.4,1.57,1.57,0,0,0-1.62,1.78v2.5h-.76v-7Z"/><path class="cls-4" d="M687,76.07h-.76v-7H687Z"/><path class="cls-4" d="M691,71.06A1.89,1.89,0,0,1,693.15,73v3.07h-.75v-.81h-.14a1.89,1.89,0,0,1-1.83.95c-1.06,0-1.82-.56-1.82-1.43s.73-1.34,1.86-1.45l1.92-.18V73c0-.74-.5-1.21-1.37-1.21a1.69,1.69,0,0,0-1.67,1.09l-.67-.31A2.53,2.53,0,0,1,691,71.06Zm-.51,4.5a1.66,1.66,0,0,0,1.86-1.69v-.1l-1.82.17c-.68.06-1.19.27-1.19.82S689.85,75.56,690.53,75.56Z"/><path class="cls-4" d="M695.74,71.2v.87h.14a1.74,1.74,0,0,1,1.7-.95,1.85,1.85,0,0,1,1.93,2v2.94h-.77V73.19a1.24,1.24,0,0,0-1.36-1.4,1.57,1.57,0,0,0-1.62,1.78v2.5H695V71.2Z"/><path class="cls-4" d="M706,71.2v4.7a2.23,2.23,0,0,1-2.37,2.31,2.79,2.79,0,0,1-2.5-1.36l.7-.39a1.9,1.9,0,0,0,1.76,1.06,1.53,1.53,0,0,0,1.65-1.68v-.7h-.12a1.89,1.89,0,0,1-1.78,1,2.54,2.54,0,0,1,0-5,1.88,1.88,0,0,1,1.78,1h.14V71.2Zm-.76,2.39a1.72,1.72,0,1,0-1.71,1.83A1.67,1.67,0,0,0,705.23,73.59Z"/><path class="cls-4" d="M711.6,76.07v-.86h-.14a1.75,1.75,0,0,1-1.71,1,1.84,1.84,0,0,1-1.91-2v-3h.76v2.89A1.23,1.23,0,0,0,710,75.48a1.56,1.56,0,0,0,1.62-1.77V71.2h.77v4.87Z"/><path class="cls-4" d="M716.42,71.06A1.89,1.89,0,0,1,718.53,73v3.07h-.75v-.81h-.14a1.9,1.9,0,0,1-1.83.95c-1.06,0-1.82-.56-1.82-1.43s.73-1.34,1.86-1.45l1.92-.18V73c0-.74-.5-1.21-1.37-1.21a1.69,1.69,0,0,0-1.67,1.09l-.67-.31A2.53,2.53,0,0,1,716.42,71.06Zm-.51,4.5a1.66,1.66,0,0,0,1.86-1.69v-.1l-1.82.17c-.68.06-1.19.27-1.19.82S715.23,75.56,715.91,75.56Z"/><path class="cls-4" d="M725,71.2v4.7a2.23,2.23,0,0,1-2.37,2.31,2.79,2.79,0,0,1-2.5-1.36l.7-.39a1.89,1.89,0,0,0,1.75,1.06,1.53,1.53,0,0,0,1.66-1.68v-.7h-.12a1.89,1.89,0,0,1-1.78,1,2.54,2.54,0,0,1,0-5,1.88,1.88,0,0,1,1.78,1h.14V71.2Zm-.76,2.39a1.72,1.72,0,1,0-1.72,1.83A1.67,1.67,0,0,0,724.26,73.59Z"/><path class="cls-4" d="M729,71.05a2.28,2.28,0,0,1,2.36,2.43v.41h-4a1.63,1.63,0,0,0,1.71,1.65,1.57,1.57,0,0,0,1.51-1l.67.35a2.33,2.33,0,0,1-2.17,1.29,2.47,2.47,0,0,1-2.52-2.61A2.43,2.43,0,0,1,729,71.05Zm1.56,2.21A1.45,1.45,0,0,0,729,71.73a1.55,1.55,0,0,0-1.62,1.53Z"/><path class="cls-4" d="M647.31,83.2V81.86a.72.72,0,0,1,.76-.78h1.25v.67h-1c-.18,0-.27.09-.27.29V83.2h1.51v.67h-1.51v4.2h-.76v-4.2h-1.48V83.2Z"/><path class="cls-4" d="M651.67,83.93h.14a1.16,1.16,0,0,1,1.26-.75h.61v.74h-.84a1.06,1.06,0,0,0-1.14,1.22v2.93h-.76V83.2h.73Z"/><path class="cls-4" d="M656.94,83.06a2.58,2.58,0,1,1-2.49,2.58A2.42,2.42,0,0,1,656.94,83.06Zm0,4.46a1.88,1.88,0,1,0-1.73-1.88A1.69,1.69,0,0,0,656.94,87.52Z"/><path class="cls-4" d="M661.74,83.2v.66h.14a1.49,1.49,0,0,1,1.38-.74,1.42,1.42,0,0,1,1.38.86h.14a1.53,1.53,0,0,1,1.48-.86,1.58,1.58,0,0,1,1.66,1.61v3.34h-.77V84.79a1,1,0,0,0-1.11-1,1.16,1.16,0,0,0-1.2,1.28v3h-.76V84.79a1,1,0,0,0-1.08-1,1.18,1.18,0,0,0-1.24,1.28v3H661V83.2Z"/><path class="cls-4" d="M675.56,80.94a2.21,2.21,0,0,1,2.37,2.25c0,1.41-1,2-2.36,2.43-1.12.34-1.72.59-1.72,1.55v.16h4v.74H673v-.8c0-1.39.86-1.92,2.19-2.31s1.9-.79,1.9-1.8a1.42,1.42,0,0,0-1.55-1.47,1.55,1.55,0,0,0-1.71,1.68v.21H673v-.26A2.32,2.32,0,0,1,675.56,80.94Z"/><path class="cls-4" d="M681.89,80.94c1.57,0,2.55,1,2.55,2.86v1.56c0,1.83-1,2.85-2.55,2.85s-2.57-1-2.57-2.85V83.8C679.32,82,680.28,80.94,681.89,80.94Zm-1.75,4.45c0,1.32.58,2.07,1.75,2.07s1.73-.75,1.73-2.07V83.77c0-1.32-.58-2.08-1.73-2.08s-1.75.76-1.75,2.08Z"/><path class="cls-4" d="M688.76,81.08v7h-.82V81.88h-.12l-1.42,2.22h-.93l2-3Z"/><path class="cls-4" d="M692.94,80.94a2.21,2.21,0,0,1,2.37,2.25c0,1.41-1,2-2.36,2.43-1.12.34-1.72.59-1.72,1.55v.16h4v.74H690.4v-.8c0-1.39.86-1.92,2.19-2.31,1.18-.35,1.9-.79,1.9-1.8a1.42,1.42,0,0,0-1.55-1.47,1.55,1.55,0,0,0-1.71,1.68v.21h-.82v-.26A2.32,2.32,0,0,1,692.94,80.94Z"/><path class="cls-4" d="M701.3,83.2V81.44h.77V83.2h1.54v.67h-1.54v3.25c0,.19.08.29.26.29h1v.66h-1.28a.71.71,0,0,1-.75-.76V83.87h-1.48V83.2Z"/><path class="cls-4" d="M707.22,83.06a2.58,2.58,0,1,1-2.49,2.58A2.43,2.43,0,0,1,707.22,83.06Zm0,4.46a1.88,1.88,0,1,0-1.73-1.88A1.7,1.7,0,0,0,707.22,87.52Z"/><path class="cls-4" d="M717.07,80.94a2.21,2.21,0,0,1,2.37,2.25c0,1.41-1,2-2.36,2.43-1.12.34-1.72.59-1.72,1.55v.16h4v.74h-4.87v-.8c0-1.39.86-1.92,2.19-2.31,1.18-.35,1.9-.79,1.9-1.8a1.42,1.42,0,0,0-1.55-1.47,1.55,1.55,0,0,0-1.71,1.68v.21h-.82v-.26A2.32,2.32,0,0,1,717.07,80.94Z"/><path class="cls-4" d="M723.4,80.94c1.57,0,2.55,1,2.55,2.86v1.56c0,1.83-1,2.85-2.55,2.85s-2.57-1-2.57-2.85V83.8C720.83,82,721.79,80.94,723.4,80.94Zm-1.75,4.45c0,1.32.58,2.07,1.75,2.07s1.73-.75,1.73-2.07V83.77c0-1.32-.58-2.08-1.73-2.08s-1.75.76-1.75,2.08Z"/><path class="cls-4" d="M730.27,81.08l0,7h-.81V81.88h-.12L727.9,84.1H727l2-3Z"/><path class="cls-4" d="M734.39,80.94c1.45,0,2.39.77,2.39,1.87a1.63,1.63,0,0,1-1.22,1.57v.12a1.72,1.72,0,0,1,1.35,1.71c0,1.19-1,2-2.52,2s-2.53-.81-2.53-2a1.72,1.72,0,0,1,1.34-1.71v-.12A1.62,1.62,0,0,1,732,82.81C732,81.71,732.92,80.94,734.39,80.94Zm0,6.52c1,0,1.7-.46,1.7-1.31s-.7-1.33-1.7-1.33-1.71.48-1.71,1.33S733.37,87.46,734.39,87.46Zm0-3.39c.93,0,1.57-.45,1.57-1.19s-.64-1.19-1.57-1.19-1.58.45-1.58,1.19S733.45,84.07,734.39,84.07Z"/><rect class="cls-6" x="10.9" y="10.8" width="118.9" height="20.9"/><path class="cls-7" d="M20.6,17c2.2,0,3.4,1.1,3.4,3.3V22c0,2.2-1.2,3.3-3.4,3.3H17.9V16.9h2.7Zm-1.4,7.1h1.4c1.4,0,2-.7,2-2.1V20.2c0-1.4-.6-2.1-2-2.1H19.3v6Z"/><path class="cls-7" d="M29.6,17l2.5,8.4H30.6L30,23.5H26.8l-.6,1.9H24.7L27.2,17Zm.1,5.2-1.2-4h-.1l-1.2,4Z"/><path class="cls-7" d="M38.8,17v1.3H36.2v7.1H34.8V18.3H32.2V17Z"/><path class="cls-7" d="M43.5,17,46,25.4H44.5l-.6-1.9H40.7l-.6,1.9H38.6L41.1,17Zm.1,5.2-1.2-4h-.1l-1.2,4Z"/><path class="cls-7" d="M54.3,16.8c2.1,0,3.2,1.2,3.2,3v.3H56.1v-.2a1.63,1.63,0,0,0-1.8-1.8,1.87,1.87,0,0,0-2,2.1v2a1.87,1.87,0,0,0,2,2.1,1.59,1.59,0,0,0,1.8-1.8v-.2h1.5v.2a2.87,2.87,0,0,1-3.2,3.1A3.1,3.1,0,0,1,51,22.2V20.3A3.06,3.06,0,0,1,54.3,16.8Z"/><path class="cls-7" d="M62.3,16.8a3.18,3.18,0,0,1,3.4,3.5v1.8a3.4,3.4,0,1,1-6.8,0V20.3A3.18,3.18,0,0,1,62.3,16.8Zm-2,5.4c0,1.3.6,2.1,2,2.1s2-.8,2-2.1V20.3a2,2,0,1,0-4,0Z"/><path class="cls-7" d="M68.8,17v7.1h4v1.3H67.4V17Z"/><path class="cls-7" d="M75.6,17v7.1h4v1.3H74.2V17Z"/><path class="cls-7" d="M86.5,17v1.3H82.4v2.3h3.7v1.3H82.4v2.3h4.1v1.3H81V17.1h5.5Z"/><path class="cls-7" d="M91.3,16.8c2.1,0,3.2,1.2,3.2,3v.3H93.1v-.2a1.63,1.63,0,0,0-1.8-1.8,1.87,1.87,0,0,0-2,2.1v2a1.87,1.87,0,0,0,2,2.1,1.59,1.59,0,0,0,1.8-1.8v-.2h1.4v.2a2.87,2.87,0,0,1-3.2,3.1,3.1,3.1,0,0,1-3.4-3.4V20.3A3.18,3.18,0,0,1,91.3,16.8Z"/><path class="cls-7" d="M102.1,17v1.3H99.5v7.1H98.1V18.3H95.5V17Z"/><path class="cls-7" d="M104.9,17v8.4h-1.4V17Z"/><path class="cls-7" d="M110,16.8a3.18,3.18,0,0,1,3.4,3.5v1.8a3.4,3.4,0,1,1-6.8,0V20.3A3.18,3.18,0,0,1,110,16.8Zm-2,5.4c0,1.3.6,2.1,2,2.1s2-.8,2-2.1V20.3a2,2,0,1,0-4,0Z"/><path class="cls-7" d="M117.6,17l2.3,7.1h.1V17h1.4v8.4h-2.5l-2.3-7.1h-.1v7.1h-1.4V17Z"/><path class="cls-3" d="M350.8,26.54V23.71h-.12a1.89,1.89,0,0,1-1.78,1,2.38,2.38,0,0,1-2.31-2.58,2.38,2.38,0,0,1,2.31-2.58,1.88,1.88,0,0,1,1.78,1h.14v-.84h.74v6.88Zm0-4.44a1.73,1.73,0,1,0-3.44,0,1.73,1.73,0,1,0,3.44,0Z"/><path class="cls-3" d="M356.77,24.54v-.87h-.14a1.75,1.75,0,0,1-1.71,1,1.84,1.84,0,0,1-1.92-2v-3h.76v2.89a1.24,1.24,0,0,0,1.37,1.4,1.57,1.57,0,0,0,1.62-1.78V19.66h.77v4.88Z"/><path class="cls-3" d="M361.12,19.51a2.28,2.28,0,0,1,2.36,2.43v.41h-4A1.64,1.64,0,0,0,361.21,24a1.56,1.56,0,0,0,1.51-1l.67.35a2.32,2.32,0,0,1-2.17,1.3,2.48,2.48,0,0,1-2.53-2.62A2.44,2.44,0,0,1,361.12,19.51Zm1.56,2.21a1.45,1.45,0,0,0-1.56-1.53,1.55,1.55,0,0,0-1.63,1.53Z"/><path class="cls-3" d="M365.35,20.39h.14a1.16,1.16,0,0,1,1.26-.75h.61v.74h-.84a1.06,1.06,0,0,0-1.14,1.22v2.94h-.76V19.66h.73Z"/><path class="cls-3" d="M373.16,19.66l-3,6.88h-.83l.86-1.93-2.12-4.95H369l1.63,3.91h.12l1.63-3.91Z"/><path class="cls-8" d="M330.6,32.71V30.83a1,1,0,0,1,1.07-1.09h1.75v.93H332c-.25,0-.37.13-.37.41v1.63h2.11v.93h-2.11v5.9H330.6v-5.9h-2.07v-.93Z"/><path class="cls-8" d="M338.57,32.49a3.2,3.2,0,0,1,3.3,3.41v.57h-5.59a2.3,2.3,0,0,0,2.41,2.31,2.18,2.18,0,0,0,2.12-1.36l.94.5a3.25,3.25,0,0,1-3,1.82,3.48,3.48,0,0,1-3.55-3.67A3.42,3.42,0,0,1,338.57,32.49Zm2.18,3.1a2,2,0,0,0-2.18-2.14,2.18,2.18,0,0,0-2.29,2.14Z"/><path class="cls-8" d="M345.06,32.71v.92h.2a2.08,2.08,0,0,1,1.93-1,2,2,0,0,1,1.95,1.21h.19a2.16,2.16,0,0,1,2.08-1.21,2.21,2.21,0,0,1,2.32,2.26v4.69h-1.08V34.93a1.38,1.38,0,0,0-1.55-1.41,1.62,1.62,0,0,0-1.68,1.79v4.23h-1.08V34.93a1.36,1.36,0,0,0-1.51-1.41,1.65,1.65,0,0,0-1.74,1.79v4.23H344V32.71Z"/><path class="cls-8" d="M356.84,29.67a.91.91,0,1,1-.93.91A.9.9,0,0,1,356.84,29.67Zm.53,9.87H356.3V32.71h1.07Z"/><path class="cls-8" d="M361.06,32.71v1.21h.2a2.46,2.46,0,0,1,2.4-1.33,2.6,2.6,0,0,1,2.7,2.82v4.13h-1.08v-4a1.74,1.74,0,0,0-1.92-2A2.2,2.2,0,0,0,361.09,36v3.52H360V32.71Z"/><path class="cls-8" d="M369.45,29.67a.91.91,0,1,1,0,1.82.91.91,0,1,1,0-1.82Zm.53,9.87h-1.06V32.71H370Z"/><path class="cls-8" d="M375.08,32.51a4.09,4.09,0,0,1,3.39,1.81l-.83.56a3.06,3.06,0,0,0-2.55-1.46c-.88,0-1.52.36-1.52,1s.74.88,1.58,1l.64.1c1.59.23,2.71.64,2.71,2s-1.21,2.2-3,2.2A3.78,3.78,0,0,1,372,37.5l1-.5a2.66,2.66,0,0,0,2.6,1.8c1.12,0,1.88-.49,1.88-1.23s-.86-.89-1.75-1l-.65-.1c-1.5-.21-2.52-.69-2.52-2S373.68,32.51,375.08,32.51Z"/><path class="cls-8" d="M381.67,32.71v.92h.2a2.08,2.08,0,0,1,1.93-1,2,2,0,0,1,1.95,1.21h.19A2.16,2.16,0,0,1,388,32.59a2.21,2.21,0,0,1,2.32,2.26v4.69h-1.08V34.93a1.38,1.38,0,0,0-1.55-1.41A1.62,1.62,0,0,0,386,35.31v4.23H385V34.93a1.36,1.36,0,0,0-1.51-1.41,1.65,1.65,0,0,0-1.74,1.79v4.23h-1.06V32.71Z"/><path class="cls-6" d="M331.55,94.27a4.09,4.09,0,0,1,3.39,1.81l-.82.56a3.08,3.08,0,0,0-2.55-1.46c-.89,0-1.53.36-1.53,1s.74.88,1.58,1l.65.1c1.58.23,2.7.64,2.7,2s-1.2,2.2-3,2.2a3.8,3.8,0,0,1-3.55-2.24l1-.49a2.68,2.68,0,0,0,2.6,1.79c1.13,0,1.88-.49,1.88-1.23s-.85-.89-1.75-1l-.64-.1c-1.5-.21-2.52-.69-2.52-2S330.15,94.27,331.55,94.27Z"/><path class="cls-6" d="M340.06,94.25a3.2,3.2,0,0,1,3.31,3.41v.57h-5.59a2.3,2.3,0,0,0,2.41,2.31,2.19,2.19,0,0,0,2.12-1.35l.93.49a3.25,3.25,0,0,1-3,1.82,3.48,3.48,0,0,1-3.54-3.67A3.42,3.42,0,0,1,340.06,94.25Zm2.19,3.1a2,2,0,0,0-2.19-2.14,2.18,2.18,0,0,0-2.28,2.14Z"/><path class="cls-6" d="M346.59,101.3h-1.07V91.5h1.07Z"/><path class="cls-6" d="M352.2,94.25a3.2,3.2,0,0,1,3.31,3.41v.57h-5.59a2.29,2.29,0,0,0,2.41,2.31,2.16,2.16,0,0,0,2.11-1.35l.94.49a3.25,3.25,0,0,1-3,1.82,3.47,3.47,0,0,1-3.54-3.67A3.42,3.42,0,0,1,352.2,94.25Zm2.19,3.1a2,2,0,0,0-2.19-2.14,2.17,2.17,0,0,0-2.28,2.14Z"/><path class="cls-6" d="M360.74,94.27A3.16,3.16,0,0,1,364,96.9l-1.07.21a2.06,2.06,0,0,0-2.2-1.85,2.64,2.64,0,0,0,0,5.26,2.1,2.1,0,0,0,2.2-1.87l1.06.21a3.19,3.19,0,0,1-3.26,2.64,3.62,3.62,0,0,1,0-7.23Z"/><path class="cls-6" d="M367.33,94.46V92h1.08v2.46h2.17v.94h-2.17V100c0,.28.12.4.37.4h1.41v.94h-1.8a1,1,0,0,1-1.06-1.08V95.4h-2.07v-.94Z"/><path class="cls-8" d="M380.62,94.27a2.66,2.66,0,0,1,3,2.72v4.31h-1v-1.15h-.2a2.66,2.66,0,0,1-2.57,1.35c-1.49,0-2.55-.79-2.55-2s1-1.88,2.6-2l2.71-.25v-.27c0-1-.7-1.69-1.94-1.69a2.38,2.38,0,0,0-2.34,1.52l-.93-.43A3.53,3.53,0,0,1,380.62,94.27Zm-.71,6.32a2.34,2.34,0,0,0,2.62-2.38v-.15L380,98.3c-.95.09-1.66.38-1.66,1.15S379,100.59,379.91,100.59Z"/><path class="cls-8" d="M387.23,101.3h-1.07V91.5h1.07Z"/><path class="cls-8" d="M391,101.3h-1.06V91.5H391Z"/><path class="cls-8" d="M321.51,111.26V108.8h1.08v2.46h2.17v.94h-2.17v4.56c0,.28.12.4.37.4h1.41v.94h-1.81a1,1,0,0,1-1.05-1.08V112.2h-2.07v-.94Z"/><path class="cls-8" d="M327.9,108.29v4.19h.17a2.44,2.44,0,0,1,2.39-1.33,2.6,2.6,0,0,1,2.7,2.82v4.13h-1.07v-4a1.74,1.74,0,0,0-1.92-2,2.2,2.2,0,0,0-2.27,2.49v3.52h-1.07v-9.81Z"/><path class="cls-8" d="M338.68,111.05a3.2,3.2,0,0,1,3.3,3.41V115H336.4a2.28,2.28,0,0,0,2.41,2.31,2.17,2.17,0,0,0,2.11-1.35l.94.49a3.25,3.25,0,0,1-3,1.82,3.47,3.47,0,0,1-3.54-3.67A3.41,3.41,0,0,1,338.68,111.05Zm2.18,3.1a2,2,0,0,0-2.18-2.14,2.17,2.17,0,0,0-2.28,2.14Z"/><path class="cls-8" d="M352.1,111.07a2.66,2.66,0,0,1,3,2.72v4.31H354V117h-.19a2.69,2.69,0,0,1-2.58,1.35c-1.48,0-2.55-.79-2.55-2s1-1.88,2.61-2L354,114v-.27c0-1-.7-1.69-1.93-1.69a2.37,2.37,0,0,0-2.34,1.52l-.94-.43A3.54,3.54,0,0,1,352.1,111.07Zm-.71,6.32A2.34,2.34,0,0,0,354,115v-.14l-2.56.24c-1,.09-1.67.38-1.67,1.15S350.44,117.39,351.39,117.39Z"/><path class="cls-8" d="M358.67,112.29h.2a1.62,1.62,0,0,1,1.76-1.05h.86v1h-1.18a1.49,1.49,0,0,0-1.6,1.71v4.12h-1.06v-6.84h1Z"/><path class="cls-8" d="M364.82,111.26V108.8h1.07v2.46h2.18v.94h-2.18v4.56c0,.28.12.4.37.4h1.41v.94h-1.8a1,1,0,0,1-1.05-1.08V112.2h-2.08v-.94Z"/><path class="cls-8" d="M370.67,108.22a.92.92,0,1,1-.93.92A.91.91,0,0,1,370.67,108.22Zm.53,9.88h-1.06v-6.84h1.06Z"/><path class="cls-8" d="M376.94,111.07a3.15,3.15,0,0,1,3.26,2.63l-1.06.21a2.07,2.07,0,0,0-2.2-1.85,2.64,2.64,0,0,0,0,5.26,2.1,2.1,0,0,0,2.2-1.87l1.06.21A3.19,3.19,0,0,1,377,118.3a3.62,3.62,0,0,1,0-7.23Z"/><path class="cls-8" d="M383.45,118.1h-1.07v-9.81h1.07Z"/><path class="cls-8" d="M389.06,111.05a3.2,3.2,0,0,1,3.31,3.41V115h-5.59a2.3,2.3,0,0,0,2.41,2.31,2.19,2.19,0,0,0,2.12-1.35l.93.49a3.25,3.25,0,0,1-3,1.82,3.48,3.48,0,0,1-3.54-3.67A3.42,3.42,0,0,1,389.06,111.05Zm2.19,3.1a2,2,0,0,0-2.19-2.14,2.18,2.18,0,0,0-2.28,2.14Z"/><path class="cls-8" d="M396.88,111.07a4.11,4.11,0,0,1,3.39,1.81l-.83.56a3.08,3.08,0,0,0-2.55-1.46c-.88,0-1.53.36-1.53,1s.74.88,1.59,1l.64.1c1.58.23,2.7.64,2.7,2s-1.2,2.2-3,2.2a3.78,3.78,0,0,1-3.54-2.24l1-.49a2.68,2.68,0,0,0,2.61,1.79c1.12,0,1.87-.49,1.87-1.24s-.85-.88-1.75-1l-.64-.1c-1.5-.21-2.52-.69-2.52-2S395.47,111.07,396.88,111.07Z"/><path class="cls-6" d="M418,170.41a3.2,3.2,0,0,1,3.31,3.41v.57h-5.59a2.28,2.28,0,0,0,2.41,2.31,2.17,2.17,0,0,0,2.11-1.36l.94.49a3.24,3.24,0,0,1-3,1.83,3.47,3.47,0,0,1-3.54-3.67A3.41,3.41,0,0,1,418,170.41Zm2.19,3.1a2,2,0,0,0-2.19-2.14,2.17,2.17,0,0,0-2.28,2.14Z"/><path class="cls-6" d="M424.06,170.62l2,2.65h.17l2-2.65h1.32L427,174l2.73,3.5h-1.33l-2.11-2.8h-.17l-2.13,2.8h-1.32l2.74-3.5-2.62-3.34Z"/><path class="cls-6" d="M433,170.62v-2.46h1.08v2.46h2.17v.94h-2.17v4.56c0,.28.12.4.37.4h1.41v.94h-1.8a1,1,0,0,1-1.06-1.08v-4.82h-2.07v-.94Z"/><path class="cls-6" d="M439.35,171.65h.19a1.63,1.63,0,0,1,1.77-1.05h.85v1H441a1.49,1.49,0,0,0-1.6,1.71v4.12h-1.07v-6.84h1Z"/><path class="cls-6" d="M447,170.43a2.66,2.66,0,0,1,3,2.72v4.31H449v-1.15h-.19a2.69,2.69,0,0,1-2.58,1.35c-1.49,0-2.55-.79-2.55-2s1-1.88,2.61-2l2.7-.25v-.27c0-1-.7-1.7-1.93-1.7a2.36,2.36,0,0,0-2.34,1.53l-.94-.43A3.53,3.53,0,0,1,447,170.43Zm-.71,6.32a2.34,2.34,0,0,0,2.62-2.39v-.14l-2.56.24c-1,.09-1.67.38-1.67,1.15S445.37,176.75,446.32,176.75Z"/><path class="cls-6" d="M455.66,170.43a3.15,3.15,0,0,1,3.26,2.63l-1.06.21a2.07,2.07,0,0,0-2.2-1.85,2.64,2.64,0,0,0,0,5.26,2.08,2.08,0,0,0,2.19-1.87L459,175a3.2,3.2,0,0,1-3.26,2.64,3.62,3.62,0,0,1,0-7.23Z"/><path class="cls-6" d="M462.25,170.62v-2.46h1.08v2.46h2.17v.94h-2.17v4.56c0,.28.11.4.36.4h1.42v.94H463.3a1,1,0,0,1-1.05-1.08v-4.82h-2.07v-.94Z"/><path class="cls-8" d="M473.72,170.62v-2.46h1.07v2.46H477v.94h-2.18v4.56c0,.28.12.4.37.4h1.41v.94h-1.8a1,1,0,0,1-1-1.08v-4.82h-2.08v-.94Z"/><path class="cls-8" d="M480.1,167.65v4.19h.17a2.45,2.45,0,0,1,2.39-1.33,2.6,2.6,0,0,1,2.71,2.82v4.13h-1.08v-4.05a1.74,1.74,0,0,0-1.92-2,2.2,2.2,0,0,0-2.27,2.49v3.52H479v-9.81Z"/><path class="cls-8" d="M490.88,170.41a3.2,3.2,0,0,1,3.31,3.41v.57H488.6A2.28,2.28,0,0,0,491,176.7a2.17,2.17,0,0,0,2.11-1.36l.94.49a3.24,3.24,0,0,1-3,1.83,3.47,3.47,0,0,1-3.54-3.67A3.42,3.42,0,0,1,490.88,170.41Zm2.19,3.1a2,2,0,0,0-2.19-2.14,2.17,2.17,0,0,0-2.28,2.14Z"/><path class="cls-8" d="M403.55,187.42h1v1.18h.2a2.62,2.62,0,0,1,2.49-1.37,3.64,3.64,0,0,1,0,7.23,2.64,2.64,0,0,1-2.49-1.36h-.17v4h-1.06Zm5.88,3.42a2.42,2.42,0,1,0-2.41,2.65A2.38,2.38,0,0,0,409.43,190.84Z"/><path class="cls-8" d="M413.74,188.45h.2a1.62,1.62,0,0,1,1.76-1h.86v1h-1.18a1.49,1.49,0,0,0-1.6,1.71v4.12h-1.06v-6.84h1Z"/><path class="cls-8" d="M421,187.21a3.2,3.2,0,0,1,3.3,3.41v.57h-5.59a2.3,2.3,0,0,0,2.41,2.31,2.18,2.18,0,0,0,2.12-1.36l.94.49a3.25,3.25,0,0,1-3,1.83,3.48,3.48,0,0,1-3.55-3.67A3.42,3.42,0,0,1,421,187.21Zm2.18,3.1a2,2,0,0,0-2.18-2.14,2.17,2.17,0,0,0-2.29,2.14Z"/><path class="cls-8" d="M426.82,187.42l2.14,5.79h.17l2.14-5.79h1.16l-2.63,6.84h-1.51l-2.64-6.84Z"/><path class="cls-8" d="M434.92,184.38a.92.92,0,1,1-.92.91A.91.91,0,0,1,434.92,184.38Zm.53,9.88h-1.06v-6.84h1.06Z"/><path class="cls-8" d="M441.07,187.21a3.2,3.2,0,0,1,3.31,3.41v.57h-5.59a2.28,2.28,0,0,0,2.41,2.31,2.17,2.17,0,0,0,2.11-1.36l.94.49a3.24,3.24,0,0,1-3,1.83,3.47,3.47,0,0,1-3.54-3.67A3.41,3.41,0,0,1,441.07,187.21Zm2.18,3.1a2,2,0,0,0-2.18-2.14,2.16,2.16,0,0,0-2.28,2.14Z"/><path class="cls-8" d="M447.07,187.42l1.26,5.69h.19l1.5-5.69h1.58l1.5,5.69h.18l1.26-5.69h1.12L454,194.26H452.4l-1.5-5.69h-.18l-1.53,5.69h-1.61L446,187.42Z"/><path class="cls-8" d="M463.26,184.38a.92.92,0,1,1,0,1.83.92.92,0,1,1,0-1.83Zm.53,9.88h-1.06v-6.84h1.06Z"/><path class="cls-8" d="M467.49,187.42v.93h.19a2.11,2.11,0,0,1,1.94-1,2,2,0,0,1,1.94,1.21h.2a2.14,2.14,0,0,1,2.07-1.21,2.21,2.21,0,0,1,2.33,2.26v4.69h-1.08v-4.61a1.39,1.39,0,0,0-1.56-1.41,1.62,1.62,0,0,0-1.68,1.79v4.23h-1.08v-4.61a1.36,1.36,0,0,0-1.51-1.41,1.65,1.65,0,0,0-1.74,1.79v4.23h-1.06v-6.84Z"/><path class="cls-8" d="M481.77,187.23a2.66,2.66,0,0,1,3,2.72v4.31h-1.05v-1.15h-.2a2.69,2.69,0,0,1-2.58,1.35c-1.48,0-2.55-.79-2.55-2s1-1.88,2.61-2l2.7-.25v-.27c0-1-.7-1.7-1.93-1.7a2.37,2.37,0,0,0-2.34,1.53l-.94-.43A3.55,3.55,0,0,1,481.77,187.23Zm-.72,6.32a2.34,2.34,0,0,0,2.62-2.39V191l-2.56.24c-.95.09-1.67.38-1.67,1.15S480.1,193.55,481.05,193.55Z"/><path class="cls-8" d="M493.82,187.42V194a3.12,3.12,0,0,1-3.32,3.25,3.89,3.89,0,0,1-3.51-1.91l1-.54a2.65,2.65,0,0,0,2.46,1.48,2.15,2.15,0,0,0,2.33-2.35v-1h-.17a2.62,2.62,0,0,1-2.49,1.38,3.56,3.56,0,0,1,0-7.09,2.62,2.62,0,0,1,2.49,1.37h.2v-1.18Zm-1.06,3.35a2.41,2.41,0,1,0-2.41,2.57A2.35,2.35,0,0,0,492.76,190.77Z"/><path class="cls-8" d="M499.44,187.21a3.2,3.2,0,0,1,3.3,3.41v.57h-5.59a2.3,2.3,0,0,0,2.41,2.31,2.18,2.18,0,0,0,2.12-1.36l.93.49a3.23,3.23,0,0,1-3,1.83,3.48,3.48,0,0,1-3.55-3.67A3.42,3.42,0,0,1,499.44,187.21Zm2.18,3.1a2,2,0,0,0-2.18-2.14,2.17,2.17,0,0,0-2.29,2.14Z"/><path class="cls-8" d="M507.25,187.23a4.09,4.09,0,0,1,3.39,1.81l-.83.56a3.06,3.06,0,0,0-2.55-1.46c-.88,0-1.53.36-1.53,1.05s.75.88,1.59,1l.64.1c1.58.23,2.7.64,2.7,2s-1.2,2.2-3,2.2a3.77,3.77,0,0,1-3.54-2.25l1-.49a2.68,2.68,0,0,0,2.61,1.8c1.12,0,1.88-.49,1.88-1.24s-.86-.88-1.76-1l-.64-.1c-1.5-.21-2.52-.69-2.52-2S505.85,187.23,507.25,187.23Z"/><path class="cls-6" d="M226.39,170.29a3.19,3.19,0,0,1,3.31,3.4v.57h-5.59a2.29,2.29,0,0,0,2.41,2.32,2.18,2.18,0,0,0,2.11-1.36l.94.49a3.25,3.25,0,0,1-3,1.82,3.47,3.47,0,0,1-3.54-3.67A3.41,3.41,0,0,1,226.39,170.29Zm2.19,3.09a2,2,0,0,0-2.19-2.14,2.17,2.17,0,0,0-2.28,2.14Z"/><path class="cls-6" d="M232.41,170.5l2,2.64h.17l2-2.64h1.31l-2.62,3.33,2.74,3.5h-1.34l-2.11-2.8h-.17l-2.13,2.8H231l2.73-3.5-2.62-3.33Z"/><path class="cls-6" d="M241.36,170.5V168h1.07v2.47h2.18v.94h-2.18V176c0,.28.12.4.37.4h1.41v.94h-1.8a1,1,0,0,1-1-1.08v-4.81h-2.08v-.94Z"/><path class="cls-6" d="M247.7,171.52h.19a1.64,1.64,0,0,1,1.77-1.05h.85v1h-1.17a1.49,1.49,0,0,0-1.6,1.71v4.12h-1.06V170.5h1Z"/><path class="cls-6" d="M255.39,170.3a2.65,2.65,0,0,1,3,2.72v4.31H257.3v-1.15h-.19a2.69,2.69,0,0,1-2.58,1.35c-1.48,0-2.55-.79-2.55-2s1-1.88,2.61-2l2.7-.25V173c0-1-.7-1.69-1.93-1.69a2.37,2.37,0,0,0-2.34,1.52l-.94-.43A3.54,3.54,0,0,1,255.39,170.3Zm-.72,6.32a2.34,2.34,0,0,0,2.62-2.38v-.14l-2.56.23c-1,.09-1.67.38-1.67,1.15S253.72,176.62,254.67,176.62Z"/><path class="cls-6" d="M264,170.3a3.15,3.15,0,0,1,3.26,2.63l-1.06.21a2.07,2.07,0,0,0-2.2-1.85,2.64,2.64,0,0,0,0,5.26,2.1,2.1,0,0,0,2.2-1.87l1.06.21a3.19,3.19,0,0,1-3.26,2.64,3.62,3.62,0,0,1,0-7.23Z"/><path class="cls-6" d="M270.6,170.5V168h1.08v2.47h2.17v.94h-2.17V176c0,.28.11.4.36.4h1.42v.94h-1.81a1,1,0,0,1-1-1.08v-4.81h-2.07v-.94Z"/><path class="cls-8" d="M282.07,170.5V168h1.08v2.47h2.17v.94h-2.17V176c0,.28.11.4.36.4h1.42v.94h-1.81a1,1,0,0,1-1.05-1.08v-4.81H280v-.94Z"/><path class="cls-8" d="M288.45,167.53v4.18h.17a2.46,2.46,0,0,1,2.4-1.33,2.6,2.6,0,0,1,2.7,2.82v4.13h-1.08v-4.05a1.74,1.74,0,0,0-1.92-2,2.21,2.21,0,0,0-2.27,2.5v3.51h-1.06v-9.8Z"/><path class="cls-8" d="M299.23,170.29a3.19,3.19,0,0,1,3.31,3.4v.57H297a2.3,2.3,0,0,0,2.41,2.32,2.17,2.17,0,0,0,2.11-1.36l.94.49a3.25,3.25,0,0,1-3,1.82,3.47,3.47,0,0,1-3.54-3.67A3.41,3.41,0,0,1,299.23,170.29Zm2.19,3.09a2,2,0,0,0-2.19-2.14,2.17,2.17,0,0,0-2.28,2.14Z"/><path class="cls-8" d="M238.59,187.1a4.09,4.09,0,0,1,3.39,1.81l-.82.56a3.1,3.1,0,0,0-2.55-1.46c-.89,0-1.53.37-1.53,1.05s.74.88,1.58,1l.65.1c1.58.24,2.7.64,2.7,2s-1.2,2.2-3,2.2a3.78,3.78,0,0,1-3.55-2.24l1-.49a2.68,2.68,0,0,0,2.6,1.79c1.13,0,1.88-.49,1.88-1.23s-.85-.89-1.75-1l-.64-.1c-1.5-.21-2.52-.69-2.52-2S237.19,187.1,238.59,187.1Z"/><path class="cls-8" d="M247.19,187.1a3.62,3.62,0,1,1-3.49,3.61A3.4,3.4,0,0,1,247.19,187.1Zm0,6.25a2.64,2.64,0,1,0-2.42-2.64A2.39,2.39,0,0,0,247.19,193.35Z"/><path class="cls-8" d="M258.07,194.13v-1.22h-.2a2.45,2.45,0,0,1-2.39,1.35,2.59,2.59,0,0,1-2.69-2.82V187.3h1.06v4a1.75,1.75,0,0,0,1.92,2,2.2,2.2,0,0,0,2.27-2.5V187.3h1.08v6.83Z"/><path class="cls-8" d="M262.78,188.32h.2a1.62,1.62,0,0,1,1.76-1h.86v1h-1.18c-1,0-1.59.58-1.59,1.71v4.12h-1.07V187.3h1Z"/><path class="cls-8" d="M270.2,187.1a3.16,3.16,0,0,1,3.27,2.63l-1.07.21a2.06,2.06,0,0,0-2.2-1.85,2.64,2.64,0,0,0,0,5.26,2.09,2.09,0,0,0,2.2-1.87l1.07.21a3.2,3.2,0,0,1-3.27,2.64,3.62,3.62,0,0,1,0-7.23Z"/><path class="cls-8" d="M278.6,187.09a3.19,3.19,0,0,1,3.31,3.4v.57h-5.59a2.3,2.3,0,0,0,2.41,2.32,2.19,2.19,0,0,0,2.12-1.36l.93.49a3.25,3.25,0,0,1-3,1.82,3.47,3.47,0,0,1-3.54-3.67A3.41,3.41,0,0,1,278.6,187.09Zm2.19,3.09A2,2,0,0,0,278.6,188a2.17,2.17,0,0,0-2.28,2.14Z"/><path class="cls-8" d="M286.42,187.1a4.11,4.11,0,0,1,3.39,1.81l-.83.56a3.1,3.1,0,0,0-2.55-1.46c-.88,0-1.53.37-1.53,1.05s.75.88,1.59,1l.64.1c1.58.24,2.7.64,2.7,2s-1.2,2.2-3,2.2a3.77,3.77,0,0,1-3.54-2.24l1-.49a2.69,2.69,0,0,0,2.61,1.79c1.12,0,1.87-.49,1.87-1.23s-.85-.89-1.75-1l-.64-.1c-1.5-.21-2.52-.69-2.52-2S285,187.1,286.42,187.1Z"/><rect class="cls-8" x="359.39" y="61.51" width="1" height="13.1"/><polygon class="cls-8" points="355.79 71.31 356.49 70.61 359.89 74.21 363.29 70.61 363.99 71.31 359.89 75.71 355.79 71.31"/><polygon class="cls-8" points="458.38 152.61 457.38 152.61 457.38 143.26 262.91 143.26 262.91 152.61 261.91 152.61 261.91 142.26 458.38 142.26 458.38 152.61"/><polygon class="cls-8" points="266.5 149.3 265.77 148.62 262.41 152.23 259.05 148.62 258.32 149.3 262.41 153.7 266.5 149.3"/><polygon class="cls-8" points="453.79 149.3 454.53 148.62 457.88 152.23 461.24 148.62 461.97 149.3 457.88 153.7 453.79 149.3"/><rect class="cls-8" x="359.55" y="134.23" width="1" height="8.53"/><line class="cls-5" x1="633.11" y1="159.84" x2="633.11" y2="204.23"/><path class="cls-3" d="M650.9,167.23a2.59,2.59,0,0,1,2.9,2.63,2.12,2.12,0,0,1-1.63,2.17v.17a2.16,2.16,0,0,1,1.65,2.18,2.63,2.63,0,0,1-2.9,2.65h-4.27v-9.8Zm-2.63,4.14h2.49a1.31,1.31,0,0,0,1.49-1.34c0-.86-.6-1.32-1.5-1.32h-2.48Zm0,4.18h2.49a1.35,1.35,0,1,0,0-2.69h-2.51Z"/><path class="cls-3" d="M662.16,167.23v1.48h-4.73v2.65h4.34v1.48h-4.34v2.71h4.8V177H655.8v-9.8Z"/><path class="cls-3" d="M668.89,167.23l2.89,9.8h-1.69l-.65-2.27h-3.68L665.1,177h-1.7l2.9-9.8Zm.14,6.05-1.35-4.67h-.17l-1.35,4.67Z"/><path class="cls-3" d="M674.83,167.23v6.45a2.13,2.13,0,0,0,4.26,0v-6.45h1.62v6.41c0,2.26-1.36,3.59-3.75,3.59s-3.76-1.33-3.76-3.59v-6.41Z"/><path class="cls-3" d="M690.09,167.23v1.48H687V177H685.4v-8.32h-3.07v-1.48Z"/><path class="cls-3" d="M693.38,167.23V177h-1.63v-9.8Z"/><path class="cls-3" d="M701.94,167.23v1.48h-4.56v2.66h4.29v1.49h-4.29V177h-1.62v-9.8Z"/><path class="cls-3" d="M705.28,167.23v6.45a2.13,2.13,0,0,0,4.26,0v-6.45h1.62v6.41c0,2.26-1.36,3.59-3.75,3.59s-3.76-1.33-3.76-3.59v-6.41Z"/><path class="cls-3" d="M715.12,167.23v8.32h4.68V177h-6.3v-9.8Z"/><path class="cls-3" d="M653.51,186.93v.43h-1.6V187c0-1.19-.8-1.77-2-1.77-1,0-1.74.54-1.74,1.31s.73,1.16,2,1.45l.38.09c1.92.42,3.07,1.16,3.07,2.9s-1.52,3-3.56,3c-2.4,0-3.92-1.35-3.92-3.57v-.38h1.61v.29a2.07,2.07,0,0,0,2.34,2.22c1.24,0,1.92-.68,1.92-1.5s-.68-1.24-1.95-1.5l-.38-.09c-1.89-.42-3.14-1.09-3.14-2.9s1.49-2.77,3.35-2.77C652,183.83,653.51,184.94,653.51,186.93Z"/><path class="cls-3" d="M659.22,183.83a3.67,3.67,0,0,1,3.92,4V190c0,2.55-1.47,4-3.92,4s-3.92-1.49-3.92-4v-2.13A3.66,3.66,0,0,1,659.22,183.83Zm-2.3,6.22c0,1.57.75,2.51,2.3,2.51s2.3-1,2.3-2.51v-2.24c0-1.57-.8-2.51-2.3-2.51a2.2,2.2,0,0,0-2.3,2.51Z"/><path class="cls-3" d="M666.74,184v6.45a2.13,2.13,0,0,0,4.26,0V184h1.62v6.41c0,2.26-1.36,3.59-3.75,3.59s-3.76-1.33-3.76-3.59V184Z"/><path class="cls-3" d="M678.88,184a2.89,2.89,0,0,1,3.08,3,2.92,2.92,0,0,1-3.08,3h-2.3v3.75H675V184Zm-2.3,4.56h2.13a1.54,1.54,0,1,0,0-3.08h-2.13Z"/><path class="cls-4" d="M650.9,167.23a2.59,2.59,0,0,1,2.9,2.63,2.12,2.12,0,0,1-1.63,2.17v.17a2.16,2.16,0,0,1,1.65,2.18,2.63,2.63,0,0,1-2.9,2.65h-4.27v-9.8Zm-2.63,4.14h2.49a1.31,1.31,0,0,0,1.49-1.34c0-.86-.6-1.32-1.5-1.32h-2.48Zm0,4.18h2.49a1.35,1.35,0,1,0,0-2.69h-2.51Z"/><path class="cls-4" d="M662.16,167.23v1.48h-4.73v2.65h4.34v1.48h-4.34v2.71h4.8V177H655.8v-9.8Z"/><path class="cls-4" d="M668.89,167.23l2.89,9.8h-1.69l-.65-2.27h-3.68L665.1,177h-1.7l2.9-9.8Zm.14,6.05-1.35-4.67h-.17l-1.35,4.67Z"/><path class="cls-4" d="M674.83,167.23v6.45a2.13,2.13,0,0,0,4.26,0v-6.45h1.62v6.41c0,2.26-1.36,3.59-3.75,3.59s-3.76-1.33-3.76-3.59v-6.41Z"/><path class="cls-4" d="M690.09,167.23v1.48H687V177H685.4v-8.32h-3.07v-1.48Z"/><path class="cls-4" d="M693.38,167.23V177h-1.63v-9.8Z"/><path class="cls-4" d="M701.94,167.23v1.48h-4.56v2.66h4.29v1.49h-4.29V177h-1.62v-9.8Z"/><path class="cls-4" d="M705.28,167.23v6.45a2.13,2.13,0,0,0,4.26,0v-6.45h1.62v6.41c0,2.26-1.36,3.59-3.75,3.59s-3.76-1.33-3.76-3.59v-6.41Z"/><path class="cls-4" d="M715.12,167.23v8.32h4.68V177h-6.3v-9.8Z"/><path class="cls-4" d="M653.51,186.93v.43h-1.6V187c0-1.19-.8-1.77-2-1.77-1,0-1.74.54-1.74,1.31s.73,1.16,2,1.45l.38.09c1.92.42,3.07,1.16,3.07,2.9s-1.52,3-3.56,3c-2.4,0-3.92-1.35-3.92-3.57v-.38h1.61v.29a2.07,2.07,0,0,0,2.34,2.22c1.24,0,1.92-.68,1.92-1.5s-.68-1.24-1.95-1.5l-.38-.09c-1.89-.42-3.14-1.09-3.14-2.9s1.49-2.77,3.35-2.77C652,183.83,653.51,184.94,653.51,186.93Z"/><path class="cls-4" d="M659.22,183.83a3.67,3.67,0,0,1,3.92,4V190c0,2.55-1.47,4-3.92,4s-3.92-1.49-3.92-4v-2.13A3.66,3.66,0,0,1,659.22,183.83Zm-2.3,6.22c0,1.57.75,2.51,2.3,2.51s2.3-1,2.3-2.51v-2.24c0-1.57-.8-2.51-2.3-2.51a2.2,2.2,0,0,0-2.3,2.51Z"/><path class="cls-4" d="M666.74,184v6.45a2.13,2.13,0,0,0,4.26,0V184h1.62v6.41c0,2.26-1.36,3.59-3.75,3.59s-3.76-1.33-3.76-3.59V184Z"/><path class="cls-4" d="M678.88,184a2.89,2.89,0,0,1,3.08,3,2.92,2.92,0,0,1-3.08,3h-2.3v3.75H675V184Zm-2.3,4.56h2.13a1.54,1.54,0,1,0,0-3.08h-2.13Z"/><line class="cls-5" x1="633.11" y1="385.93" x2="633.11" y2="430.32"/><path class="cls-3" d="M649.5,393.92l2.29,8.12H652l2.28-8.12h2.86v9.81h-1.6v-8.08h-.17l-2.25,8.08h-2.41l-2.26-8.08h-.17v8.08h-1.59v-9.81Z"/><path class="cls-3" d="M664.19,393.92l2.89,9.81h-1.7l-.64-2.27h-3.69l-.66,2.27H658.7l2.9-9.81Zm.14,6.06L663,395.31h-.17L661.46,400Z"/><path class="cls-3" d="M671.61,393.92l2.65,8.31h.17v-8.31h1.62v9.81h-2.94l-2.63-8.31h-.17v8.31h-1.63v-9.81Z"/><path class="cls-3" d="M680,393.92v6.46a2.13,2.13,0,0,0,4.26,0v-6.46h1.62v6.42c0,2.25-1.36,3.59-3.75,3.59s-3.76-1.34-3.76-3.59v-6.42Z"/><path class="cls-3" d="M692.81,393.92l2.88,9.81H694l-.65-2.27h-3.68l-.66,2.27h-1.69l2.89-9.81ZM693,400l-1.36-4.67h-.17L690.07,400Z"/><path class="cls-3" d="M698.92,393.92v8.33h4.68v1.48h-6.3v-9.81Z"/><path class="cls-3" d="M651.37,410.72l2.88,9.81h-1.69l-.65-2.27h-3.68l-.66,2.27h-1.69l2.9-9.81Zm.14,6.06-1.36-4.67H650l-1.34,4.67Z"/><path class="cls-3" d="M658.79,410.72l2.64,8.31h.17v-8.31h1.63v9.81h-3l-2.63-8.31h-.17v8.31h-1.62v-9.81Z"/><path class="cls-3" d="M670.32,410.72l2.89,9.81h-1.7l-.64-2.27h-3.68l-.66,2.27h-1.7l2.9-9.81Zm.14,6.06-1.36-4.67h-.16l-1.35,4.67Z"/><path class="cls-3" d="M676.44,410.72V419h4.68v1.49h-6.31v-9.81Z"/><path class="cls-3" d="M681.8,410.72l2.31,4.36h.21l2.3-4.36h1.85L685,417.06v3.47H683.4v-3.47L680,410.72Z"/><path class="cls-3" d="M696.34,413.62v.44h-1.6v-.32c0-1.2-.8-1.77-2-1.77-1,0-1.74.53-1.74,1.3s.73,1.17,2,1.46l.37.08c1.92.42,3.07,1.17,3.07,2.9,0,1.9-1.51,3-3.56,3-2.39,0-3.92-1.35-3.92-3.58v-.37h1.61v.29a2.06,2.06,0,0,0,2.34,2.21c1.25,0,1.92-.67,1.92-1.5s-.67-1.23-2-1.49l-.37-.09c-1.9-.42-3.14-1.09-3.14-2.9s1.48-2.77,3.35-2.77C694.79,410.53,696.34,411.63,696.34,413.62Z"/><path class="cls-3" d="M700.11,410.72v9.81h-1.62v-9.81Z"/><path class="cls-3" d="M709.36,413.62v.44h-1.6v-.32c0-1.2-.8-1.77-2-1.77-1,0-1.74.53-1.74,1.3s.73,1.17,2,1.46l.37.08c1.92.42,3.07,1.17,3.07,2.9,0,1.9-1.51,3-3.56,3-2.39,0-3.92-1.35-3.92-3.58v-.37h1.61v.29a2.06,2.06,0,0,0,2.34,2.21c1.25,0,1.92-.67,1.92-1.5s-.67-1.23-2-1.49l-.37-.09c-1.9-.42-3.14-1.09-3.14-2.9s1.48-2.77,3.35-2.77C707.81,410.53,709.36,411.63,709.36,413.62Z"/><path class="cls-4" d="M649.5,393.92l2.29,8.12H652l2.28-8.12h2.86v9.81h-1.6v-8.08h-.17l-2.25,8.08h-2.41l-2.26-8.08h-.17v8.08h-1.59v-9.81Z"/><path class="cls-4" d="M664.19,393.92l2.89,9.81h-1.7l-.64-2.27h-3.69l-.66,2.27H658.7l2.9-9.81Zm.14,6.06L663,395.31h-.17L661.46,400Z"/><path class="cls-4" d="M671.61,393.92l2.65,8.31h.17v-8.31h1.62v9.81h-2.94l-2.63-8.31h-.17v8.31h-1.63v-9.81Z"/><path class="cls-4" d="M680,393.92v6.46a2.13,2.13,0,0,0,4.26,0v-6.46h1.62v6.42c0,2.25-1.36,3.59-3.75,3.59s-3.76-1.34-3.76-3.59v-6.42Z"/><path class="cls-4" d="M692.81,393.92l2.88,9.81H694l-.65-2.27h-3.68l-.66,2.27h-1.69l2.89-9.81ZM693,400l-1.36-4.67h-.17L690.07,400Z"/><path class="cls-4" d="M698.92,393.92v8.33h4.68v1.48h-6.3v-9.81Z"/><path class="cls-4" d="M651.37,410.72l2.88,9.81h-1.69l-.65-2.27h-3.68l-.66,2.27h-1.69l2.9-9.81Zm.14,6.06-1.36-4.67H650l-1.34,4.67Z"/><path class="cls-4" d="M658.79,410.72l2.64,8.31h.17v-8.31h1.63v9.81h-3l-2.63-8.31h-.17v8.31h-1.62v-9.81Z"/><path class="cls-4" d="M670.32,410.72l2.89,9.81h-1.7l-.64-2.27h-3.68l-.66,2.27h-1.7l2.9-9.81Zm.14,6.06-1.36-4.67h-.16l-1.35,4.67Z"/><path class="cls-4" d="M676.44,410.72V419h4.68v1.49h-6.31v-9.81Z"/><path class="cls-4" d="M681.8,410.72l2.31,4.36h.21l2.3-4.36h1.85L685,417.06v3.47H683.4v-3.47L680,410.72Z"/><path class="cls-4" d="M696.34,413.62v.44h-1.6v-.32c0-1.2-.8-1.77-2-1.77-1,0-1.74.53-1.74,1.3s.73,1.17,2,1.46l.37.08c1.92.42,3.07,1.17,3.07,2.9,0,1.9-1.51,3-3.56,3-2.39,0-3.92-1.35-3.92-3.58v-.37h1.61v.29a2.06,2.06,0,0,0,2.34,2.21c1.25,0,1.92-.67,1.92-1.5s-.67-1.23-2-1.49l-.37-.09c-1.9-.42-3.14-1.09-3.14-2.9s1.48-2.77,3.35-2.77C694.79,410.53,696.34,411.63,696.34,413.62Z"/><path class="cls-4" d="M700.11,410.72v9.81h-1.62v-9.81Z"/><path class="cls-4" d="M709.36,413.62v.44h-1.6v-.32c0-1.2-.8-1.77-2-1.77-1,0-1.74.53-1.74,1.3s.73,1.17,2,1.46l.37.08c1.92.42,3.07,1.17,3.07,2.9,0,1.9-1.51,3-3.56,3-2.39,0-3.92-1.35-3.92-3.58v-.37h1.61v.29a2.06,2.06,0,0,0,2.34,2.21c1.25,0,1.92-.67,1.92-1.5s-.67-1.23-2-1.49l-.37-.09c-1.9-.42-3.14-1.09-3.14-2.9s1.48-2.77,3.35-2.77C707.81,410.53,709.36,411.63,709.36,413.62Z"/><rect class="cls-8" x="261.88" y="212.75" width="1" height="13.1"/><polygon class="cls-8" points="258.28 222.55 258.98 221.85 262.38 225.45 265.78 221.85 266.48 222.55 262.38 226.95 258.28 222.55"/><rect class="cls-8" x="457.38" y="212.75" width="1" height="13.1"/><polygon class="cls-8" points="453.78 222.55 454.48 221.85 457.88 225.45 461.18 221.85 461.98 222.55 457.88 226.95 453.78 222.55"/><rect class="cls-8" x="261.88" y="286.17" width="1" height="13.1"/><polygon class="cls-8" points="258.28 295.97 258.98 295.27 262.38 298.87 265.78 295.27 266.48 295.97 262.38 300.37 258.28 295.97"/><path class="cls-6" d="M227.43,321.3a3.62,3.62,0,1,1-3.49,3.62A3.41,3.41,0,0,1,227.43,321.3Zm0,6.25a2.63,2.63,0,1,0-2.43-2.63A2.38,2.38,0,0,0,227.43,327.55Z"/><path class="cls-6" d="M234.13,322.52h.2a1.62,1.62,0,0,1,1.76-1H237v1h-1.18a1.49,1.49,0,0,0-1.6,1.71v4.11h-1.06V321.5h1Z"/><path class="cls-6" d="M245,328.33h-1v-1.17h-.2a2.63,2.63,0,0,1-2.49,1.37,3.64,3.64,0,0,1,0-7.23,2.64,2.64,0,0,1,2.49,1.36h.17v-4.13H245Zm-5.88-3.41a2.42,2.42,0,1,0,2.41-2.65A2.37,2.37,0,0,0,239.1,324.92Z"/><path class="cls-6" d="M250.6,321.29a3.19,3.19,0,0,1,3.3,3.4v.58h-5.59a2.3,2.3,0,0,0,2.41,2.31,2.19,2.19,0,0,0,2.12-1.36l.94.49a3.25,3.25,0,0,1-3,1.82,3.48,3.48,0,0,1-3.55-3.67A3.42,3.42,0,0,1,250.6,321.29Zm2.18,3.09a2,2,0,0,0-2.18-2.14,2.18,2.18,0,0,0-2.29,2.14Z"/><path class="cls-6" d="M257.08,322.52h.19a1.64,1.64,0,0,1,1.77-1h.85v1h-1.17a1.49,1.49,0,0,0-1.6,1.71v4.11h-1.06V321.5h1Z"/><path class="cls-8" d="M267.94,321.5V319H269v2.47h2.17v.94H269V327c0,.28.11.41.36.41h1.42v.93H269a1,1,0,0,1-1.05-1.08v-4.81h-2.07v-.94Z"/><path class="cls-8" d="M274.33,318.53v4.19h.16a2.44,2.44,0,0,1,2.4-1.33,2.59,2.59,0,0,1,2.7,2.81v4.13h-1.08v-4a1.74,1.74,0,0,0-1.92-2,2.2,2.2,0,0,0-2.26,2.5v3.51h-1.07v-9.8Z"/><path class="cls-8" d="M285.11,321.29a3.19,3.19,0,0,1,3.3,3.4v.58h-5.59a2.3,2.3,0,0,0,2.41,2.31,2.19,2.19,0,0,0,2.12-1.36l.94.49a3.25,3.25,0,0,1-3,1.82,3.48,3.48,0,0,1-3.55-3.67A3.42,3.42,0,0,1,285.11,321.29Zm2.18,3.09a2,2,0,0,0-2.18-2.14,2.18,2.18,0,0,0-2.29,2.14Z"/><path class="cls-8" d="M291.6,321.5v.92h.2a2.07,2.07,0,0,1,1.93-1,2,2,0,0,1,1.95,1.2h.19a2.15,2.15,0,0,1,2.08-1.2,2.21,2.21,0,0,1,2.32,2.25v4.69h-1.08v-4.6a1.39,1.39,0,0,0-1.55-1.42A1.62,1.62,0,0,0,296,324.1v4.23h-1.08v-4.6a1.37,1.37,0,0,0-1.51-1.42,1.66,1.66,0,0,0-1.74,1.79v4.23h-1.07V321.5Z"/><path class="cls-8" d="M238.11,333.53v4.14h.17a2.64,2.64,0,0,1,2.5-1.37,3.64,3.64,0,0,1,0,7.23,2.65,2.65,0,0,1-2.5-1.36h-.19v1.16h-1v-9.8Zm0,6.39a2.42,2.42,0,1,0,2.41-2.65A2.38,2.38,0,0,0,238.11,339.92Z"/><path class="cls-8" d="M252.44,336.5l-4.13,9.63h-1.17l1.21-2.7-3-6.93h1.16l2.29,5.47H249l2.29-5.47Z"/><path class="cls-8" d="M265.68,336.5l-4.13,9.63h-1.16l1.2-2.7-3-6.93h1.17l2.28,5.47h.17l2.28-5.47Z"/><path class="cls-8" d="M270.46,336.29a3.19,3.19,0,0,1,3.3,3.4v.58h-5.59a2.3,2.3,0,0,0,2.41,2.31,2.19,2.19,0,0,0,2.12-1.36l.94.49a3.26,3.26,0,0,1-3,1.82,3.48,3.48,0,0,1-3.55-3.67A3.42,3.42,0,0,1,270.46,336.29Zm2.18,3.09a2,2,0,0,0-2.18-2.14,2.18,2.18,0,0,0-2.29,2.14Z"/><path class="cls-8" d="M278.9,336.3a2.66,2.66,0,0,1,3,2.72v4.31h-1.05v-1.14h-.2a2.7,2.7,0,0,1-2.58,1.34c-1.48,0-2.55-.78-2.55-2s1-1.87,2.61-2l2.7-.25V339c0-1-.7-1.69-1.93-1.69a2.38,2.38,0,0,0-2.34,1.52l-.94-.43A3.57,3.57,0,0,1,278.9,336.3Zm-.72,6.32a2.33,2.33,0,0,0,2.62-2.38v-.14l-2.56.24c-.95.08-1.67.37-1.67,1.14S277.23,342.62,278.18,342.62Z"/><path class="cls-8" d="M285.46,337.52h.2a1.62,1.62,0,0,1,1.76-1h.86v1H287.1a1.49,1.49,0,0,0-1.6,1.71v4.11h-1.06V336.5h1Z"/><path class="cls-6" d="M204.7,245.33v6.83h-1.08v-5.9h-3v5.9h-1.07v-5.9h-2.07v-.93h2.07v-1.88a1,1,0,0,1,1.07-1.09h1.64v.93H201c-.25,0-.38.13-.38.41v1.63Zm.4-2.13a.94.94,0,1,1-.93-.91A.91.91,0,0,1,205.1,243.2Z"/><path class="cls-6" d="M208.42,252.16h-1.06v-9.8h1.06Z"/><path class="cls-6" d="M212.3,245.33v-2.47h1.08v2.47h2.17v.93h-2.17v4.56c0,.28.11.4.37.4h1.41v.94h-1.81a1,1,0,0,1-1-1.08v-4.82h-2.07v-.93Z"/><path class="cls-6" d="M220.51,245.12a3.19,3.19,0,0,1,3.3,3.4v.57h-5.59a2.3,2.3,0,0,0,2.41,2.31,2.19,2.19,0,0,0,2.12-1.35l.94.49a3.25,3.25,0,0,1-3,1.82,3.48,3.48,0,0,1-3.55-3.67A3.41,3.41,0,0,1,220.51,245.12Zm2.18,3.09a2,2,0,0,0-2.18-2.14,2.18,2.18,0,0,0-2.29,2.14Z"/><path class="cls-6" d="M227,246.35h.19a1.64,1.64,0,0,1,1.77-1h.85v1h-1.17A1.49,1.49,0,0,0,227,248v4.12H226v-6.83h1Z"/><path class="cls-8" d="M239.07,245.13a4.11,4.11,0,0,1,3.39,1.81l-.83.56a3.05,3.05,0,0,0-2.55-1.46c-.88,0-1.52.36-1.52,1.05s.74.88,1.58,1l.65.1c1.58.23,2.7.64,2.7,2s-1.21,2.2-3,2.2a3.8,3.8,0,0,1-3.55-2.24l1-.49a2.68,2.68,0,0,0,2.6,1.79c1.12,0,1.88-.49,1.88-1.23s-.85-.89-1.75-1l-.65-.1c-1.49-.21-2.52-.69-2.52-2S237.67,245.13,239.07,245.13Z"/><path class="cls-8" d="M247.67,245.13a3.62,3.62,0,1,1-3.49,3.61A3.4,3.4,0,0,1,247.67,245.13Zm0,6.25a2.64,2.64,0,1,0-2.43-2.64A2.39,2.39,0,0,0,247.67,251.38Z"/><path class="cls-8" d="M258.55,252.16v-1.22h-.2a2.47,2.47,0,0,1-2.4,1.35,2.58,2.58,0,0,1-2.68-2.82v-4.14h1.06v4a1.74,1.74,0,0,0,1.92,2,2.2,2.2,0,0,0,2.27-2.49v-3.51h1.08v6.83Z"/><path class="cls-8" d="M263.26,246.35h.2a1.62,1.62,0,0,1,1.76-1h.86v1H264.9a1.49,1.49,0,0,0-1.6,1.71v4.12h-1.06v-6.83h1Z"/><path class="cls-8" d="M270.68,245.13a3.16,3.16,0,0,1,3.27,2.63l-1.07.21a2.06,2.06,0,0,0-2.2-1.85,2.64,2.64,0,0,0,0,5.26,2.1,2.1,0,0,0,2.2-1.87l1.06.21a3.19,3.19,0,0,1-3.26,2.64,3.62,3.62,0,0,1,0-7.23Z"/><path class="cls-8" d="M279.08,245.12a3.19,3.19,0,0,1,3.31,3.4v.57H276.8a2.29,2.29,0,0,0,2.41,2.31,2.16,2.16,0,0,0,2.11-1.35l.94.49a3.25,3.25,0,0,1-3,1.82,3.47,3.47,0,0,1-3.54-3.67A3.41,3.41,0,0,1,279.08,245.12Zm2.19,3.09a2,2,0,0,0-2.19-2.14,2.17,2.17,0,0,0-2.28,2.14Z"/><path class="cls-8" d="M286.89,245.13a4.09,4.09,0,0,1,3.39,1.81l-.82.56a3.08,3.08,0,0,0-2.55-1.46c-.88,0-1.53.36-1.53,1.05s.74.88,1.58,1l.65.1c1.58.23,2.7.64,2.7,2s-1.2,2.2-3,2.2a3.81,3.81,0,0,1-3.55-2.24l1-.49a2.68,2.68,0,0,0,2.61,1.79c1.12,0,1.87-.49,1.87-1.23s-.85-.89-1.75-1l-.64-.1c-1.5-.21-2.52-.69-2.52-2S285.49,245.13,286.89,245.13Z"/><path class="cls-8" d="M298,245.33l1.26,5.68h.18l1.5-5.68h1.58L304,251h.18l1.26-5.68h1.12L305,252.16h-1.64l-1.5-5.69h-.18l-1.53,5.69H298.5l-1.63-6.83Z"/><path class="cls-8" d="M309.25,242.29a.91.91,0,1,1-.92.91A.91.91,0,0,1,309.25,242.29Zm.53,9.87h-1.06v-6.83h1.06Z"/><path class="cls-8" d="M313.66,245.33v-2.47h1.08v2.47h2.17v.93h-2.17v4.56c0,.28.11.4.36.4h1.42v.94h-1.81a1,1,0,0,1-1-1.08v-4.82h-2.07v-.93Z"/><path class="cls-8" d="M320,242.36v4.18h.17a2.46,2.46,0,0,1,2.4-1.33,2.6,2.6,0,0,1,2.7,2.82v4.13h-1.08v-4a1.74,1.74,0,0,0-1.92-2,2.2,2.2,0,0,0-2.27,2.49v3.52H319v-9.8Z"/><path class="cls-8" d="M188.39,260.33v.92h.2a2.08,2.08,0,0,1,1.93-1,2,2,0,0,1,1.95,1.21h.19a2.16,2.16,0,0,1,2.08-1.21,2.22,2.22,0,0,1,2.32,2.26v4.69H196v-4.61a1.38,1.38,0,0,0-1.55-1.41,1.62,1.62,0,0,0-1.68,1.79v4.23h-1.08v-4.61a1.36,1.36,0,0,0-1.51-1.41,1.65,1.65,0,0,0-1.74,1.79v4.23h-1.07v-6.83Z"/><path class="cls-8" d="M202.67,260.13a3.62,3.62,0,1,1-3.49,3.61A3.41,3.41,0,0,1,202.67,260.13Zm0,6.25a2.64,2.64,0,1,0-2.42-2.64A2.39,2.39,0,0,0,202.67,266.38Z"/><path class="cls-8" d="M209.38,261.35h.19a1.63,1.63,0,0,1,1.77-1.05h.85v1H211a1.49,1.49,0,0,0-1.6,1.71v4.12h-1.07v-6.83h1Z"/><path class="cls-8" d="M216.67,260.12a3.19,3.19,0,0,1,3.31,3.4v.57h-5.59a2.28,2.28,0,0,0,2.41,2.31,2.17,2.17,0,0,0,2.11-1.35l.94.49a3.25,3.25,0,0,1-3,1.82,3.47,3.47,0,0,1-3.54-3.67A3.41,3.41,0,0,1,216.67,260.12Zm2.19,3.09a2,2,0,0,0-2.19-2.14,2.17,2.17,0,0,0-2.28,2.14Z"/><path class="cls-8" d="M228.28,260.33v-2.47h1.07v2.47h2.18v.93h-2.18v4.56c0,.28.12.4.37.4h1.41v.94h-1.8a1,1,0,0,1-1.05-1.08v-4.82H226.2v-.93Z"/><path class="cls-8" d="M234.66,257.36v4.18h.17a2.45,2.45,0,0,1,2.39-1.33,2.6,2.6,0,0,1,2.71,2.82v4.13h-1.08v-4.05a1.74,1.74,0,0,0-1.92-2,2.2,2.2,0,0,0-2.27,2.49v3.52H233.6v-9.8Z"/><path class="cls-8" d="M245.52,260.13a2.66,2.66,0,0,1,3,2.72v4.31h-1.05V266h-.19a2.69,2.69,0,0,1-2.58,1.35c-1.48,0-2.55-.79-2.55-2s1-1.88,2.61-2l2.7-.25v-.27c0-1-.7-1.69-1.93-1.69a2.37,2.37,0,0,0-2.34,1.52l-.94-.43A3.54,3.54,0,0,1,245.52,260.13Zm-.71,6.32a2.34,2.34,0,0,0,2.62-2.38v-.15l-2.56.24c-1,.09-1.67.38-1.67,1.15S243.86,266.45,244.81,266.45Z"/><path class="cls-8" d="M252.1,260.33v1.21h.2a2.46,2.46,0,0,1,2.4-1.33,2.6,2.6,0,0,1,2.7,2.82v4.13h-1.08v-4.05a1.74,1.74,0,0,0-1.92-2,2.2,2.2,0,0,0-2.27,2.49v3.52h-1.06v-6.83Z"/><path class="cls-8" d="M268.54,257.36v9.8h-1.15v-8.68h-.17l-2,3.11h-1.3l2.8-4.23Z"/><path class="cls-8" d="M274.52,257.16c2.21,0,3.58,1.44,3.58,4v2.18c0,2.56-1.34,4-3.58,4s-3.6-1.45-3.6-4v-2.18C270.92,258.6,272.26,257.16,274.52,257.16Zm-2.45,6.23c0,1.85.81,2.92,2.45,2.92s2.44-1.07,2.44-2.92v-2.27c0-1.85-.82-2.91-2.44-2.91s-2.45,1.06-2.45,2.91Z"/><path class="cls-8" d="M288.45,260.13a2.66,2.66,0,0,1,3,2.72v4.31h-1.05V266h-.2a2.69,2.69,0,0,1-2.58,1.35c-1.48,0-2.55-.79-2.55-2s1-1.88,2.61-2l2.7-.25v-.27c0-1-.7-1.69-1.93-1.69a2.38,2.38,0,0,0-2.34,1.52l-.94-.43A3.55,3.55,0,0,1,288.45,260.13Zm-.72,6.32a2.33,2.33,0,0,0,2.62-2.38v-.15l-2.56.24c-1,.09-1.67.38-1.67,1.15S286.78,266.45,287.73,266.45Z"/><path class="cls-8" d="M295,261.35h.2A1.62,1.62,0,0,1,297,260.3h.86v1h-1.18c-1,0-1.59.58-1.59,1.71v4.12H294v-6.83h1Z"/><path class="cls-8" d="M301.16,260.33v-2.47h1.08v2.47h2.17v.93h-2.17v4.56c0,.28.11.4.36.4H304v.94h-1.81a1,1,0,0,1-1-1.08v-4.82h-2.07v-.93Z"/><path class="cls-8" d="M307,257.29a.91.91,0,1,1-.92.91A.91.91,0,0,1,307,257.29Zm.53,9.87h-1.06v-6.83h1.06Z"/><path class="cls-8" d="M313.28,260.13a3.16,3.16,0,0,1,3.27,2.63l-1.07.21a2.06,2.06,0,0,0-2.2-1.85,2.64,2.64,0,0,0,0,5.26,2.1,2.1,0,0,0,2.2-1.87l1.07.21a3.2,3.2,0,0,1-3.27,2.64,3.62,3.62,0,0,1,0-7.23Z"/><path class="cls-8" d="M319.79,267.16h-1.06v-9.8h1.06Z"/><path class="cls-8" d="M325.41,260.12a3.19,3.19,0,0,1,3.3,3.4v.57h-5.59a2.3,2.3,0,0,0,2.41,2.31,2.19,2.19,0,0,0,2.12-1.35l.94.49a3.25,3.25,0,0,1-3,1.82,3.48,3.48,0,0,1-3.55-3.67A3.41,3.41,0,0,1,325.41,260.12Zm2.18,3.09a2,2,0,0,0-2.18-2.14,2.18,2.18,0,0,0-2.29,2.14Z"/><path class="cls-8" d="M333.22,260.13a4.11,4.11,0,0,1,3.39,1.81l-.83.56a3.06,3.06,0,0,0-2.55-1.46c-.88,0-1.52.36-1.52,1s.74.88,1.58,1l.64.1c1.59.23,2.71.64,2.71,2s-1.21,2.2-3,2.2a3.78,3.78,0,0,1-3.54-2.24l1-.49a2.67,2.67,0,0,0,2.6,1.79c1.12,0,1.88-.49,1.88-1.23s-.86-.89-1.75-1l-.65-.1c-1.5-.21-2.52-.69-2.52-2S331.82,260.13,333.22,260.13Z"/><path class="cls-6" d="M423,244.81a3.62,3.62,0,1,1-3.49,3.62A3.41,3.41,0,0,1,423,244.81Zm0,6.25a2.63,2.63,0,1,0-2.43-2.63A2.38,2.38,0,0,0,423,251.06Z"/><path class="cls-6" d="M429.73,246h.2a1.63,1.63,0,0,1,1.76-1.05h.86v1h-1.18a1.49,1.49,0,0,0-1.6,1.71v4.12h-1.06V245h1Z"/><path class="cls-6" d="M440.58,251.85h-1v-1.18h-.2a2.62,2.62,0,0,1-2.49,1.37,3.64,3.64,0,0,1,0-7.23,2.64,2.64,0,0,1,2.49,1.36h.17V242h1.06Zm-5.88-3.42a2.42,2.42,0,1,0,2.41-2.65A2.36,2.36,0,0,0,434.7,248.43Z"/><path class="cls-6" d="M446.2,244.8a3.19,3.19,0,0,1,3.3,3.4v.58h-5.59a2.3,2.3,0,0,0,2.41,2.31,2.19,2.19,0,0,0,2.12-1.36l.94.49a3.26,3.26,0,0,1-3,1.82,3.48,3.48,0,0,1-3.55-3.67A3.42,3.42,0,0,1,446.2,244.8Zm2.18,3.1a2,2,0,0,0-2.18-2.15,2.18,2.18,0,0,0-2.29,2.15Z"/><path class="cls-6" d="M452.68,246h.19a1.64,1.64,0,0,1,1.77-1.05h.85v1h-1.18c-1,0-1.59.57-1.59,1.71v4.12h-1.07V245h1Z"/><path class="cls-8" d="M463.54,245v-2.47h1.08V245h2.17V246h-2.17v4.55c0,.28.11.41.36.41h1.42v.94h-1.81a1,1,0,0,1-1-1.08V246h-2.07V245Z"/><path class="cls-8" d="M469.92,242v4.19h.17a2.46,2.46,0,0,1,2.4-1.33,2.59,2.59,0,0,1,2.7,2.81v4.14h-1.08v-4a1.74,1.74,0,0,0-1.92-2,2.2,2.2,0,0,0-2.27,2.49v3.52h-1.06V242Z"/><path class="cls-8" d="M480.71,244.8a3.19,3.19,0,0,1,3.3,3.4v.58h-5.59a2.3,2.3,0,0,0,2.41,2.31,2.19,2.19,0,0,0,2.12-1.36l.93.49a3.24,3.24,0,0,1-3,1.82,3.48,3.48,0,0,1-3.55-3.67A3.42,3.42,0,0,1,480.71,244.8Zm2.18,3.1a2,2,0,0,0-2.18-2.15,2.18,2.18,0,0,0-2.29,2.15Z"/><path class="cls-8" d="M487.2,245v.92h.2a2.07,2.07,0,0,1,1.93-1,2,2,0,0,1,1.95,1.2h.19a2.14,2.14,0,0,1,2.07-1.2,2.21,2.21,0,0,1,2.33,2.25v4.7h-1.08v-4.61a1.39,1.39,0,0,0-1.55-1.42,1.62,1.62,0,0,0-1.68,1.8v4.23h-1.08v-4.61a1.37,1.37,0,0,0-1.52-1.42,1.66,1.66,0,0,0-1.73,1.8v4.23h-1.07V245Z"/><path class="cls-8" d="M433.71,257v4.15h.17a2.62,2.62,0,0,1,2.49-1.38,3.64,3.64,0,0,1,0,7.23,2.63,2.63,0,0,1-2.49-1.36h-.19v1.17h-1V257Zm0,6.39a2.42,2.42,0,1,0,2.41-2.65A2.39,2.39,0,0,0,433.71,263.43Z"/><path class="cls-8" d="M448,260l-4.13,9.64h-1.17l1.21-2.71L441,260h1.16l2.28,5.48h.17l2.29-5.48Z"/><path class="cls-8" d="M461.28,260l-4.13,9.64H456l1.2-2.71-3-6.93h1.16l2.29,5.48h.17l2.28-5.48Z"/><path class="cls-8" d="M466.05,259.8a3.19,3.19,0,0,1,3.31,3.4v.58h-5.59a2.29,2.29,0,0,0,2.41,2.31,2.19,2.19,0,0,0,2.12-1.36l.93.49a3.25,3.25,0,0,1-3,1.82,3.47,3.47,0,0,1-3.54-3.67A3.41,3.41,0,0,1,466.05,259.8Zm2.19,3.1a2,2,0,0,0-2.19-2.15,2.18,2.18,0,0,0-2.28,2.15Z"/><path class="cls-8" d="M474.5,259.81a2.66,2.66,0,0,1,3,2.72v4.32h-1.05V265.7h-.2a2.68,2.68,0,0,1-2.58,1.34c-1.48,0-2.55-.78-2.55-2s1-1.87,2.61-2l2.7-.25v-.27c0-1-.7-1.69-1.93-1.69a2.37,2.37,0,0,0-2.34,1.53l-.94-.44A3.56,3.56,0,0,1,474.5,259.81Zm-.72,6.32a2.34,2.34,0,0,0,2.62-2.38v-.14l-2.56.24c-.95.08-1.67.38-1.67,1.15S472.83,266.13,473.78,266.13Z"/><path class="cls-8" d="M481.06,261h.2a1.63,1.63,0,0,1,1.76-1h.86v1H482.7a1.49,1.49,0,0,0-1.6,1.71v4.12H480V260h1Z"/><path class="cls-6" d="M417.06,399.32a3.15,3.15,0,0,1,3.26,2.63l-1.06.21a2.07,2.07,0,0,0-2.2-1.85,2.63,2.63,0,0,0,0,5.25,2.09,2.09,0,0,0,2.2-1.86l1.06.21a3.18,3.18,0,0,1-3.26,2.63,3.61,3.61,0,0,1,0-7.22Z"/><path class="cls-6" d="M423.57,406.35H422.5v-9.81h1.07Z"/><path class="cls-6" d="M431.43,406.35v-1.22h-.2a2.46,2.46,0,0,1-2.4,1.34,2.58,2.58,0,0,1-2.69-2.81v-4.15h1.07v4.05a1.74,1.74,0,0,0,1.92,2A2.2,2.2,0,0,0,431.4,403v-3.52h1.08v6.84Z"/><path class="cls-6" d="M437.56,399.32a4.1,4.1,0,0,1,3.39,1.8l-.83.56a3.09,3.09,0,0,0-2.55-1.45c-.88,0-1.53.36-1.53,1s.75.88,1.59,1l.64.09c1.58.24,2.7.65,2.7,2s-1.2,2.19-3,2.19a3.77,3.77,0,0,1-3.54-2.24l1-.49a2.68,2.68,0,0,0,2.61,1.8c1.12,0,1.88-.49,1.88-1.24s-.86-.88-1.76-1l-.64-.1c-1.5-.21-2.52-.69-2.52-2S436.15,399.32,437.56,399.32Z"/><path class="cls-6" d="M444.33,399.51v-2.46h1.08v2.46h2.17v.94h-2.17V405c0,.28.11.41.36.41h1.42v.94h-1.81a1,1,0,0,1-1.05-1.08v-4.82h-2.07v-.94Z"/><path class="cls-6" d="M452.54,399.3a3.2,3.2,0,0,1,3.3,3.41v.57h-5.59a2.3,2.3,0,0,0,2.41,2.31,2.18,2.18,0,0,0,2.12-1.36l.94.49a3.24,3.24,0,0,1-3,1.82,3.47,3.47,0,0,1-3.55-3.66A3.42,3.42,0,0,1,452.54,399.3Zm2.18,3.1a2,2,0,0,0-2.18-2.14,2.17,2.17,0,0,0-2.29,2.14Z"/><path class="cls-6" d="M459,400.54h.19a1.63,1.63,0,0,1,1.77-1.05h.85v1h-1.17a1.49,1.49,0,0,0-1.6,1.71v4.12H458v-6.84h1Z"/><path class="cls-8" d="M469.88,399.51v-2.46H471v2.46h2.17v.94H471V405c0,.28.11.41.36.41h1.42v.94h-1.81a1,1,0,0,1-1.05-1.08v-4.82h-2.07v-.94Z"/><path class="cls-8" d="M476.26,396.54v4.19h.17a2.46,2.46,0,0,1,2.4-1.33,2.6,2.6,0,0,1,2.7,2.82v4.13h-1.08V402.3a1.74,1.74,0,0,0-1.92-2,2.2,2.2,0,0,0-2.27,2.49v3.52H475.2v-9.81Z"/><path class="cls-8" d="M487.05,399.3a3.2,3.2,0,0,1,3.3,3.41v.57h-5.59a2.3,2.3,0,0,0,2.41,2.31,2.18,2.18,0,0,0,2.12-1.36l.94.49a3.25,3.25,0,0,1-3,1.82,3.47,3.47,0,0,1-3.55-3.66A3.42,3.42,0,0,1,487.05,399.3Zm2.18,3.1a2,2,0,0,0-2.18-2.14,2.17,2.17,0,0,0-2.29,2.14Z"/><path class="cls-8" d="M493.54,399.51v.93h.2a2.08,2.08,0,0,1,1.93-1,2,2,0,0,1,1.95,1.21h.19a2.16,2.16,0,0,1,2.08-1.21,2.21,2.21,0,0,1,2.32,2.26v4.69h-1.08v-4.61a1.38,1.38,0,0,0-1.55-1.41,1.61,1.61,0,0,0-1.68,1.79v4.23h-1.08v-4.61a1.37,1.37,0,0,0-1.52-1.41,1.65,1.65,0,0,0-1.73,1.79v4.23H492.5v-6.84Z"/><path class="cls-8" d="M392.57,411.54v4.15h.17a2.62,2.62,0,0,1,2.49-1.37,3.63,3.63,0,0,1,0,7.22,2.64,2.64,0,0,1-2.49-1.35h-.19v1.16h-1v-9.81Zm0,6.39a2.42,2.42,0,1,0,2.41-2.65A2.38,2.38,0,0,0,392.57,417.93Z"/><path class="cls-8" d="M406.9,414.51l-4.13,9.64H401.6l1.21-2.7-3-6.94H401l2.28,5.48h.17l2.29-5.48Z"/><path class="cls-8" d="M415,414.51v-2.46h1.08v2.46h2.17v.94h-2.17V420c0,.28.11.41.36.41h1.42v.94h-1.81a1,1,0,0,1-1.05-1.08v-4.82h-2.07v-.94Z"/><path class="cls-8" d="M426.68,414.51l-4.13,9.64h-1.16l1.2-2.7-3-6.94h1.16l2.29,5.48h.16l2.29-5.48Z"/><path class="cls-8" d="M428.64,414.51h1v1.18h.2a2.62,2.62,0,0,1,2.49-1.37,3.63,3.63,0,0,1,0,7.22,2.64,2.64,0,0,1-2.49-1.35h-.17v4h-1.06Zm5.88,3.42a2.42,2.42,0,1,0-2.41,2.65A2.38,2.38,0,0,0,434.52,417.93Z"/><path class="cls-8" d="M440.76,414.3a3.2,3.2,0,0,1,3.31,3.41v.57h-5.59a2.29,2.29,0,0,0,2.41,2.31,2.17,2.17,0,0,0,2.11-1.36l.94.49a3.23,3.23,0,0,1-3,1.82,3.47,3.47,0,0,1-3.54-3.66A3.42,3.42,0,0,1,440.76,414.3Zm2.19,3.1a2,2,0,0,0-2.19-2.14,2.16,2.16,0,0,0-2.28,2.14Z"/><path class="cls-8" d="M454.19,414.32a3.61,3.61,0,1,1-3.49,3.61A3.4,3.4,0,0,1,454.19,414.32Zm0,6.24a2.63,2.63,0,1,0-2.43-2.63A2.38,2.38,0,0,0,454.19,420.56Z"/><path class="cls-8" d="M461.07,414.51v-1.87a1,1,0,0,1,1.07-1.1h1.75v.94h-1.37c-.25,0-.38.13-.38.41v1.62h2.11v.94h-2.11v5.9h-1.07v-5.9H459v-.94Z"/><path class="cls-8" d="M474.17,414.32a3.15,3.15,0,0,1,3.26,2.63l-1.07.21a2.05,2.05,0,0,0-2.19-1.85,2.63,2.63,0,0,0,0,5.25,2.08,2.08,0,0,0,2.2-1.86l1.07.21a3.19,3.19,0,0,1-3.27,2.63,3.61,3.61,0,0,1,0-7.22Z"/><path class="cls-8" d="M482.65,414.32a3.61,3.61,0,1,1-3.49,3.61A3.4,3.4,0,0,1,482.65,414.32Zm0,6.24a2.63,2.63,0,1,0-2.42-2.63A2.38,2.38,0,0,0,482.65,420.56Z"/><path class="cls-8" d="M489.37,414.51v1.22h.19a2.46,2.46,0,0,1,2.4-1.33,2.6,2.6,0,0,1,2.7,2.82v4.13h-1.08V417.3a1.74,1.74,0,0,0-1.91-2,2.2,2.2,0,0,0-2.27,2.49v3.52h-1.07v-6.84Z"/><path class="cls-8" d="M498.3,414.51v-2.46h1.08v2.46h2.17v.94h-2.17V420c0,.28.11.41.36.41h1.42v.94h-1.81a1,1,0,0,1-1.05-1.08v-4.82h-2.07v-.94Z"/><path class="cls-8" d="M506.51,414.3a3.2,3.2,0,0,1,3.3,3.41v.57h-5.59a2.3,2.3,0,0,0,2.41,2.31,2.18,2.18,0,0,0,2.12-1.36l.94.49a3.25,3.25,0,0,1-3,1.82,3.47,3.47,0,0,1-3.55-3.66A3.42,3.42,0,0,1,506.51,414.3Zm2.18,3.1a2,2,0,0,0-2.18-2.14,2.17,2.17,0,0,0-2.29,2.14Z"/><path class="cls-8" d="M513,414.51v1.22h.2a2.44,2.44,0,0,1,2.39-1.33,2.6,2.6,0,0,1,2.7,2.82v4.13h-1.07V417.3a1.74,1.74,0,0,0-1.92-2,2.2,2.2,0,0,0-2.27,2.49v3.52H512v-6.84Z"/><path class="cls-8" d="M521.93,414.51v-2.46H523v2.46h2.17v.94H523V420c0,.28.11.41.36.41h1.42v.94H523a1,1,0,0,1-1.05-1.08v-4.82h-2.07v-.94Z"/><line class="cls-5" x1="633.12" y1="461.39" x2="633.12" y2="505.78"/><path class="cls-3" d="M650,469.59c2.42,0,3.77,1.4,3.77,3.54v.3h-1.63v-.28a1.92,1.92,0,0,0-2.14-2.09,2.22,2.22,0,0,0-2.33,2.45v2.35a2.18,2.18,0,0,0,2.33,2.45,1.89,1.89,0,0,0,2.14-2.08V476h1.63v.26c0,2.18-1.29,3.58-3.77,3.58a3.65,3.65,0,0,1-3.95-4v-2.21A3.67,3.67,0,0,1,650,469.59Z"/><path class="cls-3" d="M657.37,469.78v4.15h4v-4.15H663v9.81h-1.62v-4.17h-4v4.17h-1.62v-9.81Z"/><path class="cls-3" d="M670.07,469.78l2.89,9.81h-1.7l-.64-2.27h-3.69l-.65,2.27h-1.7l2.9-9.81Zm.14,6.06-1.36-4.67h-.17l-1.34,4.67Z"/><path class="cls-3" d="M679.62,475.67l2.09,3.92h-1.8L678,475.77h-1.78v3.82h-1.63v-9.81h4.21a2.89,2.89,0,0,1,3.08,3A2.84,2.84,0,0,1,679.62,475.67Zm-3.43-1.39h2.41a1.51,1.51,0,1,0,0-3h-2.41Z"/><path class="cls-3" d="M690.72,469.78v1.49h-3.06v8.32H686v-8.32H683v-1.49Z"/><path class="cls-3" d="M694,469.78v9.81h-1.63v-9.81Z"/><path class="cls-3" d="M700,469.59c2.43,0,3.77,1.4,3.77,3.54v.3h-1.62v-.28a1.92,1.92,0,0,0-2.15-2.09,2.22,2.22,0,0,0-2.32,2.45v2.35a2.18,2.18,0,0,0,2.32,2.45,1.89,1.89,0,0,0,2.15-2.08V476h1.62v.26c0,2.18-1.29,3.58-3.77,3.58a3.65,3.65,0,0,1-4-4v-2.21A3.67,3.67,0,0,1,700,469.59Z"/><path class="cls-3" d="M707.27,469.78v6.46a2.13,2.13,0,0,0,4.26,0v-6.46h1.62v6.42c0,2.26-1.36,3.59-3.75,3.59s-3.76-1.33-3.76-3.59v-6.42Z"/><path class="cls-3" d="M717.11,469.78v8.32h4.68v1.49h-6.31v-9.81Z"/><path class="cls-3" d="M728.2,469.78l2.88,9.81h-1.69l-.64-2.27h-3.69l-.66,2.27h-1.69l2.9-9.81Zm.14,6.06L727,471.17h-.17l-1.34,4.67Z"/><path class="cls-3" d="M738.9,469.78v1.49h-3.07v8.32H734.2v-8.32h-3.06v-1.49Z"/><path class="cls-3" d="M743.91,469.59a3.67,3.67,0,0,1,3.92,4v2.13c0,2.55-1.47,4-3.92,4s-3.93-1.49-3.93-4v-2.13A3.67,3.67,0,0,1,743.91,469.59Zm-2.3,6.22c0,1.57.74,2.5,2.3,2.5s2.29-1,2.29-2.5v-2.24c0-1.57-.8-2.51-2.29-2.51s-2.3,1-2.3,2.51Z"/><path class="cls-3" d="M754.9,475.67l2.08,3.92h-1.79l-2-3.82h-1.78v3.82h-1.62v-9.81H754a2.89,2.89,0,0,1,3.08,3A2.83,2.83,0,0,1,754.9,475.67Zm-3.44-1.39h2.41a1.51,1.51,0,1,0,0-3h-2.41Z"/><path class="cls-3" d="M647.42,491.07v-.21a3,3,0,0,1-.65-1.75V489a3,3,0,0,1,5.94.13v.29h-1.64v-.25a1.25,1.25,0,0,0-1.36-1.32,1.18,1.18,0,0,0-1.3,1.18v.06c0,.77.6,1.33,1.59,2.31l1.58,1.57h.24l1.35-2.3h1.74l-2,3.36v.24l2.12,2.1h-2.1l-.88-.88h-.23a3.39,3.39,0,0,1-2.55,1.09,3,3,0,0,1-3.23-3A3.18,3.18,0,0,1,647.42,491.07Zm1.89,4a2,2,0,0,0,1.46-.6v-.23l-2.16-2.12h-.21a1.63,1.63,0,0,0-.74,1.34v.06A1.58,1.58,0,0,0,649.31,495.1Z"/><path class="cls-3" d="M662.85,486.58v9.81h-1.63v-9.81Z"/><path class="cls-3" d="M666.85,486.58v8.32h4.68v1.49h-6.31v-9.81Z"/><path class="cls-3" d="M674.84,486.58v8.32h4.68v1.49h-6.3v-9.81Z"/><path class="cls-3" d="M682.79,486.58V493a2.13,2.13,0,0,0,4.26,0v-6.46h1.63V493c0,2.25-1.36,3.59-3.76,3.59s-3.75-1.34-3.75-3.59v-6.42Z"/><path class="cls-3" d="M697.88,489.48v.44h-1.6v-.32c0-1.19-.8-1.77-2-1.77-1,0-1.74.53-1.74,1.3s.73,1.17,2,1.46l.37.08c1.92.42,3.07,1.17,3.07,2.9,0,1.9-1.51,3-3.56,3-2.39,0-3.92-1.35-3.92-3.58v-.37h1.61v.29a2.06,2.06,0,0,0,2.34,2.21c1.25,0,1.92-.67,1.92-1.5s-.67-1.23-1.95-1.49l-.37-.09c-1.9-.42-3.14-1.09-3.14-2.9s1.48-2.77,3.35-2.77C696.33,486.39,697.88,487.49,697.88,489.48Z"/><path class="cls-3" d="M707,486.58v1.49h-3.07v8.32h-1.62v-8.32h-3.07v-1.49Z"/><path class="cls-3" d="M713.67,492.47l2.08,3.92H714l-2-3.82h-1.78v3.82h-1.62v-9.81h4.2a2.88,2.88,0,0,1,3.08,3A2.83,2.83,0,0,1,713.67,492.47Zm-3.44-1.39h2.41a1.51,1.51,0,1,0,0-3h-2.41Z"/><path class="cls-3" d="M722.44,486.58l2.89,9.81h-1.69l-.65-2.27h-3.68l-.66,2.27H717l2.9-9.81Zm.14,6.06L721.23,488h-.17l-1.35,4.67Z"/><path class="cls-3" d="M733.14,486.58v1.49h-3.07v8.32h-1.62v-8.32h-3.07v-1.49Z"/><path class="cls-3" d="M738.15,486.39a3.67,3.67,0,0,1,3.92,4v2.13c0,2.55-1.47,4-3.92,4s-3.92-1.49-3.92-4v-2.13A3.66,3.66,0,0,1,738.15,486.39Zm-2.3,6.22c0,1.57.75,2.5,2.3,2.5s2.3-1,2.3-2.5v-2.24c0-1.57-.8-2.51-2.3-2.51a2.2,2.2,0,0,0-2.3,2.51Z"/><path class="cls-3" d="M749.14,492.47l2.09,3.92h-1.79l-2-3.82h-1.78v3.82h-1.62v-9.81h4.2a2.88,2.88,0,0,1,3.08,3A2.84,2.84,0,0,1,749.14,492.47Zm-3.43-1.39h2.41a1.51,1.51,0,1,0,0-3h-2.41Z"/><path class="cls-4" d="M650,469.59c2.42,0,3.77,1.4,3.77,3.54v.3h-1.63v-.28a1.92,1.92,0,0,0-2.14-2.09,2.22,2.22,0,0,0-2.33,2.45v2.35a2.18,2.18,0,0,0,2.33,2.45,1.89,1.89,0,0,0,2.14-2.08V476h1.63v.26c0,2.18-1.29,3.58-3.77,3.58a3.65,3.65,0,0,1-3.95-4v-2.21A3.67,3.67,0,0,1,650,469.59Z"/><path class="cls-4" d="M657.37,469.78v4.15h4v-4.15H663v9.81h-1.62v-4.17h-4v4.17h-1.62v-9.81Z"/><path class="cls-4" d="M670.07,469.78l2.89,9.81h-1.7l-.64-2.27h-3.69l-.65,2.27h-1.7l2.9-9.81Zm.14,6.06-1.36-4.67h-.17l-1.34,4.67Z"/><path class="cls-4" d="M679.62,475.67l2.09,3.92h-1.8L678,475.77h-1.78v3.82h-1.63v-9.81h4.21a2.89,2.89,0,0,1,3.08,3A2.84,2.84,0,0,1,679.62,475.67Zm-3.43-1.39h2.41a1.51,1.51,0,1,0,0-3h-2.41Z"/><path class="cls-4" d="M690.72,469.78v1.49h-3.06v8.32H686v-8.32H683v-1.49Z"/><path class="cls-4" d="M694,469.78v9.81h-1.63v-9.81Z"/><path class="cls-4" d="M700,469.59c2.43,0,3.77,1.4,3.77,3.54v.3h-1.62v-.28a1.92,1.92,0,0,0-2.15-2.09,2.22,2.22,0,0,0-2.32,2.45v2.35a2.18,2.18,0,0,0,2.32,2.45,1.89,1.89,0,0,0,2.15-2.08V476h1.62v.26c0,2.18-1.29,3.58-3.77,3.58a3.65,3.65,0,0,1-4-4v-2.21A3.67,3.67,0,0,1,700,469.59Z"/><path class="cls-4" d="M707.27,469.78v6.46a2.13,2.13,0,0,0,4.26,0v-6.46h1.62v6.42c0,2.26-1.36,3.59-3.75,3.59s-3.76-1.33-3.76-3.59v-6.42Z"/><path class="cls-4" d="M717.11,469.78v8.32h4.68v1.49h-6.31v-9.81Z"/><path class="cls-4" d="M728.2,469.78l2.88,9.81h-1.69l-.64-2.27h-3.69l-.66,2.27h-1.69l2.9-9.81Zm.14,6.06L727,471.17h-.17l-1.34,4.67Z"/><path class="cls-4" d="M738.9,469.78v1.49h-3.07v8.32H734.2v-8.32h-3.06v-1.49Z"/><path class="cls-4" d="M743.91,469.59a3.67,3.67,0,0,1,3.92,4v2.13c0,2.55-1.47,4-3.92,4s-3.93-1.49-3.93-4v-2.13A3.67,3.67,0,0,1,743.91,469.59Zm-2.3,6.22c0,1.57.74,2.5,2.3,2.5s2.29-1,2.29-2.5v-2.24c0-1.57-.8-2.51-2.29-2.51s-2.3,1-2.3,2.51Z"/><path class="cls-4" d="M754.9,475.67l2.08,3.92h-1.79l-2-3.82h-1.78v3.82h-1.62v-9.81H754a2.89,2.89,0,0,1,3.08,3A2.83,2.83,0,0,1,754.9,475.67Zm-3.44-1.39h2.41a1.51,1.51,0,1,0,0-3h-2.41Z"/><path class="cls-4" d="M647.42,491.07v-.21a3,3,0,0,1-.65-1.75V489a3,3,0,0,1,5.94.13v.29h-1.64v-.25a1.25,1.25,0,0,0-1.36-1.32,1.18,1.18,0,0,0-1.3,1.18v.06c0,.77.6,1.33,1.59,2.31l1.58,1.57h.24l1.35-2.3h1.74l-2,3.36v.24l2.12,2.1h-2.1l-.88-.88h-.23a3.39,3.39,0,0,1-2.55,1.09,3,3,0,0,1-3.23-3A3.18,3.18,0,0,1,647.42,491.07Zm1.89,4a2,2,0,0,0,1.46-.6v-.23l-2.16-2.12h-.21a1.63,1.63,0,0,0-.74,1.34v.06A1.58,1.58,0,0,0,649.31,495.1Z"/><path class="cls-4" d="M662.85,486.58v9.81h-1.63v-9.81Z"/><path class="cls-4" d="M666.85,486.58v8.32h4.68v1.49h-6.31v-9.81Z"/><path class="cls-4" d="M674.84,486.58v8.32h4.68v1.49h-6.3v-9.81Z"/><path class="cls-4" d="M682.79,486.58V493a2.13,2.13,0,0,0,4.26,0v-6.46h1.63V493c0,2.25-1.36,3.59-3.76,3.59s-3.75-1.34-3.75-3.59v-6.42Z"/><path class="cls-4" d="M697.88,489.48v.44h-1.6v-.32c0-1.19-.8-1.77-2-1.77-1,0-1.74.53-1.74,1.3s.73,1.17,2,1.46l.37.08c1.92.42,3.07,1.17,3.07,2.9,0,1.9-1.51,3-3.56,3-2.39,0-3.92-1.35-3.92-3.58v-.37h1.61v.29a2.06,2.06,0,0,0,2.34,2.21c1.25,0,1.92-.67,1.92-1.5s-.67-1.23-1.95-1.49l-.37-.09c-1.9-.42-3.14-1.09-3.14-2.9s1.48-2.77,3.35-2.77C696.33,486.39,697.88,487.49,697.88,489.48Z"/><path class="cls-4" d="M707,486.58v1.49h-3.07v8.32h-1.62v-8.32h-3.07v-1.49Z"/><path class="cls-4" d="M713.67,492.47l2.08,3.92H714l-2-3.82h-1.78v3.82h-1.62v-9.81h4.2a2.88,2.88,0,0,1,3.08,3A2.83,2.83,0,0,1,713.67,492.47Zm-3.44-1.39h2.41a1.51,1.51,0,1,0,0-3h-2.41Z"/><path class="cls-4" d="M722.44,486.58l2.89,9.81h-1.69l-.65-2.27h-3.68l-.66,2.27H717l2.9-9.81Zm.14,6.06L721.23,488h-.17l-1.35,4.67Z"/><path class="cls-4" d="M733.14,486.58v1.49h-3.07v8.32h-1.62v-8.32h-3.07v-1.49Z"/><path class="cls-4" d="M738.15,486.39a3.67,3.67,0,0,1,3.92,4v2.13c0,2.55-1.47,4-3.92,4s-3.92-1.49-3.92-4v-2.13A3.66,3.66,0,0,1,738.15,486.39Zm-2.3,6.22c0,1.57.75,2.5,2.3,2.5s2.3-1,2.3-2.5v-2.24c0-1.57-.8-2.51-2.3-2.51a2.2,2.2,0,0,0-2.3,2.51Z"/><path class="cls-4" d="M749.14,492.47l2.09,3.92h-1.79l-2-3.82h-1.78v3.82h-1.62v-9.81h4.2a2.88,2.88,0,0,1,3.08,3A2.84,2.84,0,0,1,749.14,492.47Zm-3.43-1.39h2.41a1.51,1.51,0,1,0,0-3h-2.41Z"/><path class="cls-8" d="M393.11,479.81h-1v-1.18h-.19a2.63,2.63,0,0,1-2.5,1.37,3.63,3.63,0,0,1,0-7.22,2.64,2.64,0,0,1,2.5,1.36H392V470h1.07Zm-5.88-3.42a2.42,2.42,0,1,0,2.41-2.65A2.36,2.36,0,0,0,387.23,476.39Z"/><path class="cls-8" d="M396.3,469.93a.91.91,0,1,1-.93.91A.9.9,0,0,1,396.3,469.93Zm.53,9.88h-1.06V473h1.06Z"/><path class="cls-8" d="M408.05,473v.94h-2.12v5.9h-1.08v-5.9h-3v5.9h-1.07v-5.9h-2.07V473h2.07V471.1a1,1,0,0,1,1.07-1.1h1.75v.94h-1.37c-.25,0-.38.13-.38.41V473h3V471.1a1,1,0,0,1,1.07-1.1h1.76v.94h-1.37c-.25,0-.38.13-.38.41V473Z"/><path class="cls-8" d="M412.83,472.76a3.2,3.2,0,0,1,3.31,3.41v.57h-5.59a2.29,2.29,0,0,0,2.41,2.31,2.16,2.16,0,0,0,2.11-1.36l.94.49a3.23,3.23,0,0,1-3,1.82,3.47,3.47,0,0,1-3.54-3.67A3.41,3.41,0,0,1,412.83,472.76Zm2.19,3.1a2,2,0,0,0-2.19-2.14,2.17,2.17,0,0,0-2.28,2.14Z"/><path class="cls-8" d="M419.31,474h.2a1.62,1.62,0,0,1,1.76-1.05h.86v1H421c-1,0-1.59.58-1.59,1.71v4.12h-1.07V473h1Z"/><path class="cls-8" d="M426.61,472.76a3.2,3.2,0,0,1,3.3,3.41v.57h-5.58a2.28,2.28,0,0,0,2.4,2.31,2.17,2.17,0,0,0,2.12-1.36l.94.49a3.23,3.23,0,0,1-3,1.82,3.47,3.47,0,0,1-3.54-3.67A3.41,3.41,0,0,1,426.61,472.76Zm2.18,3.1a2,2,0,0,0-2.18-2.14,2.16,2.16,0,0,0-2.28,2.14Z"/><path class="cls-8" d="M433.1,473v1.22h.2a2.46,2.46,0,0,1,2.4-1.33,2.6,2.6,0,0,1,2.7,2.82v4.13h-1.08v-4.05a1.74,1.74,0,0,0-1.92-2,2.2,2.2,0,0,0-2.27,2.49v3.52h-1.06V473Z"/><path class="cls-8" d="M444,472.78a3.15,3.15,0,0,1,3.26,2.63l-1.06.21a2.07,2.07,0,0,0-2.2-1.85,2.63,2.63,0,0,0,0,5.25,2.09,2.09,0,0,0,2.2-1.86l1.06.21a3.18,3.18,0,0,1-3.26,2.63,3.61,3.61,0,0,1,0-7.22Z"/><path class="cls-8" d="M452.44,472.76a3.2,3.2,0,0,1,3.3,3.41v.57h-5.58a2.28,2.28,0,0,0,2.4,2.31,2.17,2.17,0,0,0,2.12-1.36l.94.49a3.23,3.23,0,0,1-3,1.82,3.48,3.48,0,0,1-3.55-3.67A3.42,3.42,0,0,1,452.44,472.76Zm2.18,3.1a2,2,0,0,0-2.18-2.14,2.16,2.16,0,0,0-2.28,2.14Z"/><path class="cls-8" d="M460.25,472.78a4.1,4.1,0,0,1,3.39,1.8l-.83.56a3.08,3.08,0,0,0-2.55-1.45c-.88,0-1.52.36-1.52,1.05s.74.88,1.58,1l.64.09c1.59.24,2.71.65,2.71,2s-1.21,2.19-3,2.19a3.77,3.77,0,0,1-3.54-2.24l1-.49a2.66,2.66,0,0,0,2.6,1.8c1.12,0,1.88-.49,1.88-1.24s-.86-.88-1.75-1l-.65-.1c-1.5-.21-2.52-.69-2.52-2S458.85,472.78,460.25,472.78Z"/><path class="cls-8" d="M471.8,470v4.15H472a2.62,2.62,0,0,1,2.49-1.37,3.63,3.63,0,0,1,0,7.22,2.64,2.64,0,0,1-2.49-1.35h-.2v1.16h-1V470Zm0,6.39a2.42,2.42,0,1,0,2.41-2.65A2.38,2.38,0,0,0,471.8,476.39Z"/><path class="cls-8" d="M482.86,472.76a3.2,3.2,0,0,1,3.31,3.41v.57h-5.59a2.28,2.28,0,0,0,2.41,2.31,2.17,2.17,0,0,0,2.11-1.36l.94.49a3.23,3.23,0,0,1-3,1.82,3.47,3.47,0,0,1-3.54-3.67A3.41,3.41,0,0,1,482.86,472.76Zm2.18,3.1a2,2,0,0,0-2.18-2.14,2.16,2.16,0,0,0-2.28,2.14Z"/><path class="cls-8" d="M489.47,473v-2.46h1.08V473h2.17v.94h-2.17v4.55c0,.28.11.41.36.41h1.41v.94h-1.8a1,1,0,0,1-1-1.08v-4.82h-2.08V473Z"/><path class="cls-8" d="M495.4,473l1.26,5.69h.19l1.49-5.69h1.59l1.5,5.69h.18l1.26-5.69H504l-1.63,6.84h-1.63l-1.5-5.69H499l-1.52,5.69h-1.61L494.28,473Z"/><path class="cls-8" d="M509,472.76a3.2,3.2,0,0,1,3.31,3.41v.57h-5.59a2.28,2.28,0,0,0,2.41,2.31,2.17,2.17,0,0,0,2.11-1.36l.94.49a3.23,3.23,0,0,1-3,1.82,3.47,3.47,0,0,1-3.54-3.67A3.41,3.41,0,0,1,509,472.76Zm2.19,3.1a2,2,0,0,0-2.19-2.14,2.16,2.16,0,0,0-2.28,2.14Z"/><path class="cls-8" d="M517.43,472.76a3.2,3.2,0,0,1,3.3,3.41v.57h-5.59a2.3,2.3,0,0,0,2.41,2.31,2.18,2.18,0,0,0,2.12-1.36l.94.49a3.24,3.24,0,0,1-3,1.82,3.48,3.48,0,0,1-3.55-3.67A3.42,3.42,0,0,1,517.43,472.76Zm2.18,3.1a2,2,0,0,0-2.18-2.14,2.17,2.17,0,0,0-2.29,2.14Z"/><path class="cls-8" d="M523.92,473v1.22h.2a2.44,2.44,0,0,1,2.39-1.33,2.6,2.6,0,0,1,2.7,2.82v4.13h-1.07v-4.05a1.74,1.74,0,0,0-1.92-2,2.2,2.2,0,0,0-2.27,2.49v3.52h-1.07V473Z"/><path class="cls-8" d="M380.69,484.93a.91.91,0,1,1-.92.91A.91.91,0,0,1,380.69,484.93Zm.54,9.88h-1.07V488h1.07Z"/><path class="cls-8" d="M384.92,488v.93h.2a2.08,2.08,0,0,1,1.93-1,2,2,0,0,1,1.95,1.21h.2a2.13,2.13,0,0,1,2.07-1.21,2.21,2.21,0,0,1,2.32,2.26v4.69h-1.07V490.2a1.39,1.39,0,0,0-1.56-1.41,1.62,1.62,0,0,0-1.68,1.79v4.23H388.2V490.2a1.36,1.36,0,0,0-1.51-1.41,1.65,1.65,0,0,0-1.74,1.79v4.23h-1.06V488Z"/><path class="cls-8" d="M399.2,487.78a2.65,2.65,0,0,1,3,2.71v4.32h-1.05v-1.15h-.19a2.68,2.68,0,0,1-2.58,1.34c-1.49,0-2.55-.78-2.55-2s1-1.88,2.61-2l2.7-.25v-.27c0-1-.7-1.7-1.93-1.7a2.36,2.36,0,0,0-2.34,1.53l-.94-.43A3.54,3.54,0,0,1,399.2,487.78Zm-.71,6.31a2.33,2.33,0,0,0,2.62-2.38v-.14l-2.56.24c-1,.09-1.67.38-1.67,1.15S397.54,494.09,398.49,494.09Z"/><path class="cls-8" d="M411.26,488v6.59a3.12,3.12,0,0,1-3.32,3.25,3.93,3.93,0,0,1-3.52-1.91l1-.54a2.68,2.68,0,0,0,2.47,1.48,2.15,2.15,0,0,0,2.33-2.35v-1H410a2.64,2.64,0,0,1-2.5,1.38,3.56,3.56,0,0,1,0-7.09,2.63,2.63,0,0,1,2.5,1.37h.19V488Zm-1.06,3.35a2.42,2.42,0,1,0-4.82,0,2.41,2.41,0,1,0,4.82,0Z"/><path class="cls-8" d="M416.87,487.76a3.2,3.2,0,0,1,3.31,3.41v.57h-5.59a2.28,2.28,0,0,0,2.41,2.31,2.17,2.17,0,0,0,2.11-1.36l.94.49a3.23,3.23,0,0,1-3,1.82,3.47,3.47,0,0,1-3.54-3.67A3.41,3.41,0,0,1,416.87,487.76Zm2.19,3.1a2,2,0,0,0-2.19-2.14,2.16,2.16,0,0,0-2.28,2.14Z"/><path class="cls-8" d="M424.68,487.78a4.07,4.07,0,0,1,3.39,1.8l-.82.56a3.09,3.09,0,0,0-2.55-1.45c-.89,0-1.53.36-1.53,1.05s.74.88,1.58,1l.65.09c1.58.24,2.7.65,2.7,2s-1.2,2.19-3,2.19a3.78,3.78,0,0,1-3.55-2.24l1-.49a2.68,2.68,0,0,0,2.61,1.8c1.12,0,1.87-.49,1.87-1.24s-.85-.88-1.75-1l-.64-.1c-1.5-.21-2.52-.69-2.52-2S423.28,487.78,424.68,487.78Z"/><path class="cls-8" d="M438.21,487.78a3.61,3.61,0,1,1-3.49,3.61A3.4,3.4,0,0,1,438.21,487.78Zm0,6.24a2.63,2.63,0,1,0-2.43-2.63A2.38,2.38,0,0,0,438.21,494Z"/><path class="cls-8" d="M444.21,488l2.14,5.79h.17l2.15-5.79h1.16l-2.63,6.84h-1.52L443.05,488Z"/><path class="cls-8" d="M454.6,487.76a3.2,3.2,0,0,1,3.31,3.41v.57h-5.59a2.28,2.28,0,0,0,2.41,2.31,2.17,2.17,0,0,0,2.11-1.36l.94.49a3.23,3.23,0,0,1-3,1.82,3.47,3.47,0,0,1-3.54-3.67A3.41,3.41,0,0,1,454.6,487.76Zm2.19,3.1a2,2,0,0,0-2.19-2.14,2.16,2.16,0,0,0-2.28,2.14Z"/><path class="cls-8" d="M461.08,489h.2A1.62,1.62,0,0,1,463,488h.86v1h-1.18a1.49,1.49,0,0,0-1.6,1.71v4.12h-1.06V488h1Z"/><path class="cls-8" d="M472,488v-2.46H473V488h2.18v.94H473v4.55c0,.28.12.41.37.41h1.41v.94H473a1,1,0,0,1-1.05-1.08v-4.82h-2.08V488Z"/><path class="cls-8" d="M478.33,485v4.19h.17a2.45,2.45,0,0,1,2.39-1.33,2.6,2.6,0,0,1,2.71,2.82v4.13h-1.08v-4.05a1.74,1.74,0,0,0-1.92-2,2.2,2.2,0,0,0-2.27,2.49v3.52h-1.06V485Z"/><path class="cls-8" d="M489.11,487.76a3.2,3.2,0,0,1,3.31,3.41v.57h-5.59a2.28,2.28,0,0,0,2.41,2.31,2.17,2.17,0,0,0,2.11-1.36l.94.49a3.23,3.23,0,0,1-3,1.82,3.47,3.47,0,0,1-3.54-3.67A3.41,3.41,0,0,1,489.11,487.76Zm2.19,3.1a2,2,0,0,0-2.19-2.14,2.16,2.16,0,0,0-2.28,2.14Z"/><path class="cls-8" d="M505.86,488l-4.14,9.64h-1.16l1.21-2.7-3-6.94H500l2.28,5.48h.17l2.28-5.48Z"/><path class="cls-8" d="M510.63,487.76a3.2,3.2,0,0,1,3.3,3.41v.57h-5.58a2.28,2.28,0,0,0,2.4,2.31,2.17,2.17,0,0,0,2.12-1.36l.94.49a3.23,3.23,0,0,1-3,1.82,3.48,3.48,0,0,1-3.55-3.67A3.42,3.42,0,0,1,510.63,487.76Zm2.18,3.1a2,2,0,0,0-2.18-2.14,2.16,2.16,0,0,0-2.28,2.14Z"/><path class="cls-8" d="M519.07,487.78a2.65,2.65,0,0,1,3,2.71v4.32h-1v-1.15h-.2a2.66,2.66,0,0,1-2.57,1.34c-1.49,0-2.55-.78-2.55-2s1-1.88,2.6-2l2.71-.25v-.27c0-1-.71-1.7-1.94-1.7a2.38,2.38,0,0,0-2.34,1.53l-.94-.43A3.55,3.55,0,0,1,519.07,487.78Zm-.71,6.31a2.33,2.33,0,0,0,2.62-2.38v-.14l-2.57.24c-.95.09-1.66.38-1.66,1.15S517.4,494.09,518.36,494.09Z"/><path class="cls-8" d="M525.64,489h.19A1.63,1.63,0,0,1,527.6,488h.85v1h-1.18a1.49,1.49,0,0,0-1.59,1.71v4.12h-1.07V488h1Z"/><path class="cls-8" d="M532.65,487.78a4.1,4.1,0,0,1,3.39,1.8l-.83.56a3.08,3.08,0,0,0-2.55-1.45c-.88,0-1.52.36-1.52,1.05s.74.88,1.58,1l.64.09c1.59.24,2.71.65,2.71,2s-1.21,2.19-3,2.19a3.77,3.77,0,0,1-3.54-2.24l1-.49a2.67,2.67,0,0,0,2.6,1.8c1.12,0,1.88-.49,1.88-1.24s-.86-.88-1.75-1l-.65-.1c-1.49-.21-2.52-.69-2.52-2S531.25,487.78,532.65,487.78Z"/><path class="cls-8" d="M217.54,473v.93h.2a2.08,2.08,0,0,1,1.93-1,2,2,0,0,1,2,1.21h.19a2.16,2.16,0,0,1,2.08-1.21,2.21,2.21,0,0,1,2.32,2.26v4.69h-1.08V475.2a1.38,1.38,0,0,0-1.55-1.41,1.62,1.62,0,0,0-1.68,1.79v4.23h-1.08V475.2a1.36,1.36,0,0,0-1.51-1.41,1.65,1.65,0,0,0-1.74,1.79v4.23h-1.06V473Z"/><path class="cls-8" d="M231.82,472.78a2.65,2.65,0,0,1,3,2.71v4.32h-1v-1.15h-.19A2.68,2.68,0,0,1,231,480c-1.49,0-2.55-.78-2.55-2s1-1.88,2.6-2l2.71-.25v-.27c0-1-.7-1.7-1.94-1.7a2.36,2.36,0,0,0-2.33,1.53l-.94-.43A3.53,3.53,0,0,1,231.82,472.78Zm-.71,6.31a2.33,2.33,0,0,0,2.62-2.38v-.14l-2.57.24c-.95.09-1.66.38-1.66,1.15S230.16,479.09,231.11,479.09Z"/><path class="cls-8" d="M237.9,469.93a.91.91,0,1,1-.93.91A.9.9,0,0,1,237.9,469.93Zm.53,9.88h-1.06V473h1.06Z"/><path class="cls-8" d="M242.13,473v1.22h.19a2.46,2.46,0,0,1,2.4-1.33,2.6,2.6,0,0,1,2.7,2.82v4.13h-1.08v-4.05a1.74,1.74,0,0,0-1.92-2,2.2,2.2,0,0,0-2.27,2.49v3.52h-1.06V473Z"/><path class="cls-8" d="M257.34,472.78a4.07,4.07,0,0,1,3.39,1.8l-.82.56a3.09,3.09,0,0,0-2.55-1.45c-.88,0-1.53.36-1.53,1.05s.74.88,1.58,1l.65.09c1.58.24,2.7.65,2.7,2s-1.2,2.19-3,2.19a3.79,3.79,0,0,1-3.55-2.24l1-.49a2.68,2.68,0,0,0,2.61,1.8c1.12,0,1.87-.49,1.87-1.24s-.85-.88-1.75-1l-.64-.1c-1.5-.21-2.52-.69-2.52-2S255.94,472.78,257.34,472.78Z"/><path class="cls-8" d="M265.94,472.78a3.61,3.61,0,1,1-3.49,3.61A3.4,3.4,0,0,1,265.94,472.78Zm0,6.24a2.63,2.63,0,1,0-2.42-2.63A2.38,2.38,0,0,0,265.94,479Z"/><path class="cls-8" d="M276.82,479.81v-1.22h-.2a2.46,2.46,0,0,1-2.39,1.34,2.58,2.58,0,0,1-2.69-2.81V473h1.06v4a1.74,1.74,0,0,0,1.92,2,2.2,2.2,0,0,0,2.27-2.49V473h1.08v6.84Z"/><path class="cls-8" d="M281.54,474h.19A1.63,1.63,0,0,1,283.5,473h.85v1h-1.18a1.49,1.49,0,0,0-1.59,1.71v4.12h-1.07V473h1Z"/><path class="cls-8" d="M289,472.78a3.15,3.15,0,0,1,3.26,2.63l-1.06.21a2.07,2.07,0,0,0-2.2-1.85,2.63,2.63,0,0,0,0,5.25,2.08,2.08,0,0,0,2.2-1.86l1.07.21A3.19,3.19,0,0,1,289,480a3.61,3.61,0,0,1,0-7.22Z"/><path class="cls-8" d="M297.36,472.76a3.2,3.2,0,0,1,3.3,3.41v.57h-5.59a2.3,2.3,0,0,0,2.41,2.31,2.18,2.18,0,0,0,2.12-1.36l.94.49a3.24,3.24,0,0,1-3,1.82,3.48,3.48,0,0,1-3.55-3.67A3.42,3.42,0,0,1,297.36,472.76Zm2.18,3.1a2,2,0,0,0-2.18-2.14,2.17,2.17,0,0,0-2.29,2.14Z"/><path class="cls-8" d="M305.17,472.78a4.1,4.1,0,0,1,3.39,1.8l-.83.56a3.08,3.08,0,0,0-2.55-1.45c-.88,0-1.53.36-1.53,1.05s.75.88,1.59,1l.64.09c1.58.24,2.7.65,2.7,2s-1.2,2.19-3,2.19a3.77,3.77,0,0,1-3.54-2.24l1-.49a2.68,2.68,0,0,0,2.61,1.8c1.12,0,1.88-.49,1.88-1.24s-.86-.88-1.75-1l-.65-.1c-1.5-.21-2.52-.69-2.52-2S303.77,472.78,305.17,472.78Z"/><path class="cls-8" d="M215.14,487.78a3.61,3.61,0,1,1-3.49,3.61A3.4,3.4,0,0,1,215.14,487.78Zm0,6.24a2.63,2.63,0,1,0-2.43-2.63A2.37,2.37,0,0,0,215.14,494Z"/><path class="cls-8" d="M221.14,488l2.14,5.79h.17l2.14-5.79h1.17l-2.64,6.84h-1.51L220,488Z"/><path class="cls-8" d="M231.53,487.76a3.2,3.2,0,0,1,3.3,3.41v.57h-5.58a2.28,2.28,0,0,0,2.41,2.31,2.17,2.17,0,0,0,2.11-1.36l.94.49a3.23,3.23,0,0,1-3,1.82,3.47,3.47,0,0,1-3.54-3.67A3.41,3.41,0,0,1,231.53,487.76Zm2.18,3.1a2,2,0,0,0-2.18-2.14,2.16,2.16,0,0,0-2.28,2.14Z"/><path class="cls-8" d="M238,489h.2A1.62,1.62,0,0,1,240,488h.86v1h-1.18a1.49,1.49,0,0,0-1.6,1.71v4.12H237V488h1Z"/><path class="cls-8" d="M248.87,488v-2.46H250V488h2.17v.94H250v4.55c0,.28.11.41.37.41h1.41v.94h-1.81a1,1,0,0,1-1-1.08v-4.82H246.8V488Z"/><path class="cls-8" d="M255.26,485v4.19h.17a2.44,2.44,0,0,1,2.39-1.33,2.6,2.6,0,0,1,2.7,2.82v4.13h-1.07v-4.05a1.74,1.74,0,0,0-1.92-2,2.2,2.2,0,0,0-2.27,2.49v3.52h-1.07V485Z"/><path class="cls-8" d="M266,487.76a3.2,3.2,0,0,1,3.3,3.41v.57h-5.58a2.28,2.28,0,0,0,2.4,2.31,2.17,2.17,0,0,0,2.12-1.36l.94.49a3.23,3.23,0,0,1-3,1.82,3.48,3.48,0,0,1-3.55-3.67A3.42,3.42,0,0,1,266,487.76Zm2.18,3.1a2,2,0,0,0-2.18-2.14,2.16,2.16,0,0,0-2.28,2.14Z"/><path class="cls-8" d="M282.78,488l-4.13,9.64h-1.16l1.2-2.7-3-6.94h1.17l2.28,5.48h.17l2.28-5.48Z"/><path class="cls-8" d="M287.56,487.76a3.2,3.2,0,0,1,3.3,3.41v.57h-5.59a2.3,2.3,0,0,0,2.41,2.31,2.18,2.18,0,0,0,2.12-1.36l.94.49a3.24,3.24,0,0,1-3,1.82,3.48,3.48,0,0,1-3.55-3.67A3.42,3.42,0,0,1,287.56,487.76Zm2.18,3.1a2,2,0,0,0-2.18-2.14,2.17,2.17,0,0,0-2.29,2.14Z"/><path class="cls-8" d="M296,487.78a2.65,2.65,0,0,1,3,2.71v4.32h-1.05v-1.15h-.2a2.68,2.68,0,0,1-2.58,1.34c-1.48,0-2.55-.78-2.55-2s1-1.88,2.61-2l2.7-.25v-.27c0-1-.7-1.7-1.93-1.7a2.37,2.37,0,0,0-2.34,1.53l-.94-.43A3.55,3.55,0,0,1,296,487.78Zm-.72,6.31a2.33,2.33,0,0,0,2.62-2.38v-.14l-2.56.24c-.95.09-1.67.38-1.67,1.15S294.33,494.09,295.28,494.09Z"/><path class="cls-8" d="M302.56,489h.2a1.62,1.62,0,0,1,1.76-1.05h.86v1H304.2a1.49,1.49,0,0,0-1.6,1.71v4.12h-1.06V488h1Z"/><path class="cls-8" d="M309.58,487.78a4.1,4.1,0,0,1,3.39,1.8l-.83.56a3.08,3.08,0,0,0-2.55-1.45c-.88,0-1.53.36-1.53,1.05s.75.88,1.59,1l.64.09c1.59.24,2.71.65,2.71,2s-1.21,2.19-3,2.19a3.77,3.77,0,0,1-3.54-2.24l1-.49a2.68,2.68,0,0,0,2.61,1.8c1.12,0,1.88-.49,1.88-1.24s-.86-.88-1.75-1l-.65-.1c-1.5-.21-2.52-.69-2.52-2S308.18,487.78,309.58,487.78Z"/><line class="cls-9" x1="458.05" y1="286.5" x2="458.05" y2="376.91"/><polygon class="cls-8" points="453.96 373.6 454.69 372.91 458.05 376.52 461.41 372.91 462.14 373.6 458.05 377.99 453.96 373.6"/><line class="cls-9" x1="262.58" y1="362.8" x2="262.58" y2="452.22"/><polygon class="cls-8" points="258.49 448.9 259.22 448.22 262.58 451.83 265.93 448.22 266.67 448.9 262.58 453.3 258.49 448.9"/><rect class="cls-8" x="457.41" y="438.95" width="1" height="13.1"/><polygon class="cls-8" points="453.81 448.75 454.51 448.05 457.91 451.65 461.21 448.05 462.01 448.75 457.91 453.15 453.81 448.75"/><rect class="cls-2" x="202.57" y="464.38" width="118.13" height="37.8"/><rect class="cls-2" x="371.67" y="464.28" width="172.75" height="37.8"/></svg>