<?xml version="1.0" encoding="utf-8"?>
<!-- Generator: Adobe Illustrator 23.0.1, SVG Export Plug-In . SVG Version: 6.00 Build 0)  -->
<svg version="1.1" id="Livello_1" xmlns="http://www.w3.org/2000/svg" xmlns:xlink="http://www.w3.org/1999/xlink" x="0px" y="0px"
	 viewBox="0 0 830.1 481.5" style="enable-background:new 0 0 830.1 481.5;" xml:space="preserve">
<style type="text/css">
	.st0{fill:none;stroke:#C6C6C6;stroke-miterlimit:10;}
	.st1{fill:#F6F6F6;}
	.st2{fill:#FF3603;}
	.st3{fill:#FFFFFF;}
	.st4{fill:none;stroke:#1D1D1B;stroke-miterlimit:10;}
	.st5{fill:#1D1D1B;}
	.st6{fill:none;stroke:#FF3603;stroke-miterlimit:10;}
	.st7{fill:#B2B2B2;}
	.st8{fill:#C6C6C6;}
</style>
<title>Tavola disegno 1</title>
<line class="st0" x1="670.3" y1="251.4" x2="670.3" y2="368.5"/>
<rect y="240.3" class="st1" width="657.4" height="143.8"/>
<rect x="10.2" y="252.8" class="st2" width="134.5" height="22.1"/>
<g>
	<path class="st3" d="M21.7,260.3c2.3,0,3.6,1.2,3.6,3.5v1.8c0,2.3-1.3,3.5-3.6,3.5h-2.9v-8.9h2.9V260.3z M20.2,267.8h1.4
		c1.5,0,2.1-0.7,2.1-2.2v-1.9c0-1.5-0.6-2.2-2.1-2.2h-1.4V267.8z"/>
	<path class="st3" d="M31.3,260.3l2.6,8.9h-1.6l-0.6-2h-3.4l-0.6,2h-1.6l2.6-8.9H31.3z M31.4,265.8l-1.3-4.2H30l-1.3,4.2H31.4z"/>
	<path class="st3" d="M40.9,260.3v1.4h-2.8v7.5h-1.5v-7.5h-2.8v-1.4H40.9z"/>
	<path class="st3" d="M46,260.3l2.6,8.9H47l-0.6-2H43l-0.6,2h-1.6l2.6-8.9H46z M46.1,265.8l-1.3-4.2h-0.1l-1.3,4.2H46.1z"/>
	<path class="st3" d="M59.9,260.3v1.4h-4.3v2.4h4v1.4h-3.9v2.4H60v1.4h-5.8v-8.9L59.9,260.3L59.9,260.3z"/>
	<path class="st3" d="M62.8,260.3l2,3.4H65l1.9-3.4h1.7l-2.5,4.3v0.2l2.5,4.4h-1.7l-2-3.4h-0.2l-2,3.4H61l2.6-4.4v-0.2l-2.5-4.3
		H62.8z"/>
	<path class="st3" d="M73.7,260.3c1.7,0,2.8,1.1,2.8,2.8c0,1.7-1.2,2.8-2.8,2.8h-2.1v3.4h-1.4v-8.9L73.7,260.3L73.7,260.3z
		 M71.7,264.5h1.9c1,0,1.5-0.5,1.5-1.4c0-0.8-0.5-1.4-1.5-1.4h-1.9V264.5z"/>
	<path class="st3" d="M79.5,260.3v7.5h4.2v1.4H78v-8.9H79.5L79.5,260.3z"/>
	<path class="st3" d="M88.6,260.1c2.2,0,3.6,1.4,3.6,3.7v1.9c0,2.3-1.4,3.7-3.6,3.7S85,268,85,265.7v-1.9
		C85,261.5,86.4,260.1,88.6,260.1z M86.5,265.7c0,1.4,0.6,2.2,2.1,2.2s2.1-0.8,2.1-2.2v-2c0-1.4-0.7-2.2-2.1-2.2s-2.1,0.8-2.1,2.2
		V265.7z"/>
	<path class="st3" d="M98.6,265.6l1.9,3.6h-1.7l-1.8-3.5h-1.6v3.5h-1.5v-8.9h3.8c1.7,0,2.8,1.1,2.8,2.8
		C100.6,264.4,99.7,265.3,98.6,265.6z M95.4,264.4h2.2c1,0,1.5-0.5,1.5-1.4c0-0.8-0.5-1.4-1.5-1.4h-2.2V264.4z"/>
	<path class="st3" d="M106.5,260.3l2.6,8.9h-1.6l-0.6-2h-3.4l-0.6,2h-1.6l2.6-8.9H106.5z M106.6,265.8l-1.3-4.2h-0.1l-1.3,4.2H106.6
		z"/>
	<path class="st3" d="M116.3,260.3v1.4h-2.8v7.5H112v-7.5h-2.8v-1.4H116.3z"/>
	<path class="st3" d="M119.2,260.3v8.9h-1.5v-8.9H119.2z"/>
	<path class="st3" d="M124.6,260.1c2.2,0,3.6,1.4,3.6,3.7v1.9c0,2.3-1.4,3.7-3.6,3.7s-3.6-1.4-3.6-3.7v-1.9
		C121,261.5,122.4,260.1,124.6,260.1z M122.5,265.7c0,1.4,0.6,2.2,2.1,2.2s2.1-0.8,2.1-2.2v-2c0-1.4-0.7-2.2-2.1-2.2
		s-2.1,0.8-2.1,2.2V265.7z"/>
	<path class="st3" d="M132.7,260.3l2.4,7.5h0.1v-7.5h1.5v8.9H134l-2.4-7.5h-0.1v7.5H130v-8.9H132.7z"/>
</g>
<g>
	<g>
		<line class="st4" x1="379.6" y1="303.9" x2="379.6" y2="318"/>
		<g>
			<polygon class="st5" points="375.5,314.7 376.3,314 379.6,317.6 383,314 383.7,314.7 379.6,319.1 			"/>
		</g>
		<line class="st4" x1="379.6" y1="384.2" x2="379.6" y2="398.4"/>
		<g>
			<polygon class="st5" points="375.5,395.1 376.3,394.4 379.6,398 383,394.4 383.7,395.1 379.6,399.5 			"/>
		</g>
	</g>
</g>
<rect class="st1" width="658.4" height="224.7"/>
<line class="st6" x1="353.1" y1="48.4" x2="404.3" y2="48.4"/>
<rect x="10.2" y="11.5" class="st2" width="125.9" height="22.1"/>
<g>
	<path class="st3" d="M20.5,18c2.3,0,3.6,1.2,3.6,3.5v1.8c0,2.3-1.3,3.5-3.6,3.5h-2.9v-8.9h2.9V18z M19,25.5h1.5
		c1.5,0,2.1-0.7,2.1-2.2v-1.9c0-1.5-0.6-2.2-2.1-2.2h-1.4v6.4L19,25.5L19,25.5z"/>
	<path class="st3" d="M30,18l2.6,8.9H31l-0.6-2H27l-0.6,2h-1.6l2.6-8.9H30z M30.1,23.5l-1.3-4.2h-0.1l-1.3,4.2H30.1z"/>
	<path class="st3" d="M39.7,18v1.4H37v7.5h-1.5v-7.5h-2.8V18H39.7z"/>
	<path class="st3" d="M44.7,18l2.6,8.9h-1.6l-0.6-2h-3.4l-0.6,2h-1.6l2.6-8.9H44.7z M44.8,23.5l-1.3-4.2h-0.1l-1.3,4.2H44.8z"/>
	<path class="st3" d="M56.1,17.8c2.2,0,3.4,1.3,3.4,3.2v0.3H58v-0.2c0-1.2-0.6-1.9-1.9-1.9c-1.4,0-2.1,0.8-2.1,2.2v2.1
		c0,1.4,0.7,2.2,2.1,2.2S58,25,58,23.8v-0.2h1.6v0.2c0,2-1.2,3.3-3.4,3.3s-3.6-1.3-3.6-3.6v-2C52.5,19.2,53.9,17.8,56.1,17.8z"/>
	<path class="st3" d="M64.6,17.8c2.2,0,3.6,1.4,3.6,3.7v1.9c0,2.3-1.4,3.7-3.6,3.7c-2.2,0-3.6-1.4-3.6-3.7v-1.9
		C61,19.2,62.4,17.8,64.6,17.8z M62.5,23.5c0,1.4,0.6,2.2,2.1,2.2s2.1-0.8,2.1-2.2v-2c0-1.4-0.7-2.2-2.1-2.2s-2.1,0.8-2.1,2.2V23.5z
		"/>
	<path class="st3" d="M71.5,18v7.5h4.2v1.4H70V18H71.5z"/>
	<path class="st3" d="M78.7,18v7.5h4.2v1.4h-5.7V18H78.7z"/>
	<path class="st3" d="M90.2,18v1.4h-4.3v2.4h3.9v1.4h-3.9v2.4h4.3V27h-5.8v-8.9h5.8V18z"/>
	<path class="st3" d="M95.3,17.8c2.2,0,3.4,1.3,3.4,3.2v0.3h-1.5v-0.2c0-1.2-0.6-1.9-1.9-1.9c-1.4,0-2.1,0.8-2.1,2.2v2.1
		c0,1.4,0.7,2.2,2.1,2.2s1.9-0.7,1.9-1.9v-0.2h1.5v0.2c0,2-1.2,3.3-3.4,3.3c-2.2,0-3.6-1.3-3.6-3.6v-2
		C91.7,19.2,93.1,17.8,95.3,17.8z"/>
	<path class="st3" d="M106.7,18v1.4H104v7.5h-1.5v-7.5h-2.8V18H106.7z"/>
	<path class="st3" d="M109.7,18v8.9h-1.5V18H109.7z"/>
	<path class="st3" d="M115.1,17.8c2.2,0,3.6,1.4,3.6,3.7v1.9c0,2.3-1.4,3.7-3.6,3.7s-3.6-1.4-3.6-3.7v-1.9
		C111.5,19.2,112.9,17.8,115.1,17.8z M113,23.5c0,1.4,0.6,2.2,2.1,2.2s2.1-0.8,2.1-2.2v-2c0-1.4-0.7-2.2-2.1-2.2s-2.1,0.8-2.1,2.2
		V23.5z"/>
	<path class="st3" d="M123.1,18l2.4,7.5h0.1V18h1.5v8.9h-2.6l-2.4-7.5H122v7.5h-1.5V18H123.1z"/>
</g>
<line class="st0" x1="670.1" y1="8.8" x2="670.1" y2="135.4"/>
<g>
	<g>
		<path class="st7" d="M689.5,69.8v1.6h-4.8v2.8h4.5v1.6h-4.5v4.4H683V69.8H689.5z"/>
		<path class="st7" d="M695.4,69.8l3.1,10.4h-1.8l-0.7-2.4h-3.9l-0.7,2.4h-1.8l3.1-10.4H695.4z M695.6,76.2l-1.4-4.9H694l-1.4,4.9
			H695.6z"/>
		<path class="st7" d="M703.8,69.6c2.6,0,4,1.5,4,3.7v0.3H706v-0.3c0-1.3-0.7-2.2-2.3-2.2s-2.5,1-2.5,2.6v2.5c0,1.6,0.9,2.6,2.5,2.6
			s2.3-0.9,2.3-2.2v-0.3h1.7v0.3c0,2.3-1.4,3.8-4,3.8c-2.5,0-4.2-1.5-4.2-4.2v-2.3C699.6,71.2,701.2,69.6,703.8,69.6z"/>
		<path class="st7" d="M716.5,69.8v1.6h-5v2.8h4.6v1.6h-4.6v2.9h5.1v1.6h-6.8V69.8H716.5z"/>
		<path class="st7" d="M723.2,69.8c1.8,0,3.1,1,3.1,2.8c0,1.2-0.7,2-1.7,2.3V75c1,0.3,1.7,1.1,1.7,2.3c0,1.7-1.3,2.8-3.1,2.8h-4.5
			V69.8H723.2z M720.4,74.2h2.6c0.9,0,1.6-0.5,1.6-1.4s-0.6-1.4-1.6-1.4h-2.6V74.2z M720.4,78.6h2.6c0.9,0,1.6-0.5,1.6-1.4
			s-0.6-1.4-1.6-1.4h-2.7v2.8H720.4z"/>
		<path class="st7" d="M732.1,69.6c2.6,0,4.1,1.6,4.1,4.3v2.3c0,2.7-1.6,4.3-4.1,4.3c-2.6,0-4.1-1.6-4.1-4.3v-2.3
			C728,71.2,729.6,69.6,732.1,69.6z M729.7,76.1c0,1.7,0.8,2.7,2.4,2.7c1.7,0,2.4-1,2.4-2.7v-2.4c0-1.7-0.8-2.7-2.4-2.7
			c-1.6,0-2.4,1-2.4,2.7V76.1z"/>
		<path class="st7" d="M742.2,69.6c2.6,0,4.1,1.6,4.1,4.3v2.3c0,2.7-1.6,4.3-4.1,4.3c-2.6,0-4.1-1.6-4.1-4.3v-2.3
			C738,71.2,739.6,69.6,742.2,69.6z M739.8,76.1c0,1.7,0.8,2.7,2.4,2.7c1.7,0,2.4-1,2.4-2.7v-2.4c0-1.7-0.8-2.7-2.4-2.7
			c-1.6,0-2.4,1-2.4,2.7V76.1z"/>
		<path class="st7" d="M752.7,74l4.4,6.1H755l-3.5-5l-1.3,1.2v3.8h-1.7V69.8h1.7v4.3h0.2l4.5-4.3h2.3L752.7,74z"/>
	</g>
	<g>
		<path class="st8" d="M689.5,69.8v1.6h-4.8v2.8h4.5v1.6h-4.5v4.4H683V69.8H689.5z"/>
		<path class="st8" d="M695.4,69.8l3.1,10.4h-1.8l-0.7-2.4h-3.9l-0.7,2.4h-1.8l3.1-10.4H695.4z M695.6,76.2l-1.4-4.9H694l-1.4,4.9
			H695.6z"/>
		<path class="st8" d="M703.8,69.6c2.6,0,4,1.5,4,3.7v0.3H706v-0.3c0-1.3-0.7-2.2-2.3-2.2s-2.5,1-2.5,2.6v2.5c0,1.6,0.9,2.6,2.5,2.6
			s2.3-0.9,2.3-2.2v-0.3h1.7v0.3c0,2.3-1.4,3.8-4,3.8c-2.5,0-4.2-1.5-4.2-4.2v-2.3C699.6,71.2,701.2,69.6,703.8,69.6z"/>
		<path class="st8" d="M716.5,69.8v1.6h-5v2.8h4.6v1.6h-4.6v2.9h5.1v1.6h-6.8V69.8H716.5z"/>
		<path class="st8" d="M723.2,69.8c1.8,0,3.1,1,3.1,2.8c0,1.2-0.7,2-1.7,2.3V75c1,0.3,1.7,1.1,1.7,2.3c0,1.7-1.3,2.8-3.1,2.8h-4.5
			V69.8H723.2z M720.4,74.2h2.6c0.9,0,1.6-0.5,1.6-1.4s-0.6-1.4-1.6-1.4h-2.6V74.2z M720.4,78.6h2.6c0.9,0,1.6-0.5,1.6-1.4
			s-0.6-1.4-1.6-1.4h-2.7v2.8H720.4z"/>
		<path class="st8" d="M732.1,69.6c2.6,0,4.1,1.6,4.1,4.3v2.3c0,2.7-1.6,4.3-4.1,4.3c-2.6,0-4.1-1.6-4.1-4.3v-2.3
			C728,71.2,729.6,69.6,732.1,69.6z M729.7,76.1c0,1.7,0.8,2.7,2.4,2.7c1.7,0,2.4-1,2.4-2.7v-2.4c0-1.7-0.8-2.7-2.4-2.7
			c-1.6,0-2.4,1-2.4,2.7V76.1z"/>
		<path class="st8" d="M742.2,69.6c2.6,0,4.1,1.6,4.1,4.3v2.3c0,2.7-1.6,4.3-4.1,4.3c-2.6,0-4.1-1.6-4.1-4.3v-2.3
			C738,71.2,739.6,69.6,742.2,69.6z M739.8,76.1c0,1.7,0.8,2.7,2.4,2.7c1.7,0,2.4-1,2.4-2.7v-2.4c0-1.7-0.8-2.7-2.4-2.7
			c-1.6,0-2.4,1-2.4,2.7V76.1z"/>
		<path class="st8" d="M752.7,74l4.4,6.1H755l-3.5-5l-1.3,1.2v3.8h-1.7V69.8h1.7v4.3h0.2l4.5-4.3h2.3L752.7,74z"/>
	</g>
</g>
<g>
	<path class="st7" d="M369.9,29v-3h-0.1c-0.3,0.5-0.8,1-1.9,1c-1.4,0-2.4-1.1-2.4-2.7s1.1-2.7,2.4-2.7c1.1,0,1.6,0.5,1.9,1h0.1v-0.9
		h0.8V29H369.9z M369.9,24.3c0-1.2-0.7-2-1.8-2c-1.1,0-1.8,0.8-1.8,2c0,1.3,0.8,2,1.8,2C369.2,26.3,369.9,25.6,369.9,24.3z"/>
	<path class="st7" d="M376.2,26.9V26h-0.1c-0.3,0.5-0.8,1-1.8,1c-1.1,0-2-0.7-2-2.1v-3.1h0.8v3.1c0,1,0.6,1.5,1.5,1.5
		c1,0,1.7-0.7,1.7-1.9v-2.7h0.8V27h-0.9V26.9z"/>
	<path class="st7" d="M380.8,21.6c1.5,0,2.5,1,2.5,2.6v0.4h-4.2c0.1,1.1,0.8,1.7,1.8,1.7c0.8,0,1.3-0.4,1.6-1l0.7,0.4
		c-0.4,0.7-1,1.4-2.3,1.4c-1.6,0-2.7-1.2-2.7-2.8C378.2,22.8,379.3,21.6,380.8,21.6z M382.5,23.9c0-1-0.7-1.6-1.7-1.6
		s-1.6,0.6-1.7,1.6H382.5z"/>
	<path class="st7" d="M385.3,22.5h0.1c0.2-0.5,0.6-0.8,1.3-0.8h0.6v0.8h-0.9c-0.8,0-1.2,0.4-1.2,1.3v3.1h-0.8v-5.2h0.8v0.8H385.3z"
		/>
	<path class="st7" d="M393.6,21.8l-3.1,7.3h-0.9l0.9-2l-2.2-5.2h0.9l1.7,4.1h0.1l1.7-4.1L393.6,21.8L393.6,21.8z"/>
	<path class="st5" d="M338.8,35.4c2,0,3.1,1.1,3.1,2.9v4.6h-1.1v-1.2h-0.2c-0.4,0.7-1.2,1.4-2.7,1.4c-1.6,0-2.7-0.8-2.7-2.1
		s1.1-2,2.8-2.1l2.9-0.3v-0.3c0-1.1-0.7-1.8-2-1.8s-2.1,0.7-2.5,1.6l-1-0.5C335.8,36.4,337,35.4,338.8,35.4z M338,42
		c1.7,0,2.8-1,2.8-2.5v-0.1l-2.7,0.3c-1,0.1-1.8,0.4-1.8,1.2C336.3,41.6,337,42,338,42z"/>
	<path class="st5" d="M345.8,35.6v1.3h0.2c0.4-0.7,1.1-1.4,2.5-1.4c1.5,0,2.9,1,2.9,3v4.4h-1.1v-4.3c0-1.4-0.8-2.1-2-2.1
		c-1.4,0-2.4,0.9-2.4,2.6v3.7h-1.1v-7.2H345.8z"/>
	<path class="st5" d="M355.2,35.6V33h1.1v2.6h2.3v1h-2.3v4.8c0,0.3,0.1,0.4,0.4,0.4h1.5v1h-1.9c-0.7,0-1.1-0.4-1.1-1.1v-5.1H353v-1
		C353,35.6,355.2,35.6,355.2,35.6z"/>
	<path class="st5" d="M361.4,32.4c0.5,0,1,0.4,1,1s-0.4,1-1,1s-1-0.4-1-1S360.9,32.4,361.4,32.4z M362,42.8h-1.1v-7.2h1.1V42.8z"/>
	<path class="st5" d="M366.1,35.6v-2c0-0.7,0.4-1.2,1.1-1.2h1.9v1h-1.5c-0.3,0-0.4,0.1-0.4,0.4v1.7h2.2v1h-2.2v6.2h-1.1v-6.2h-2.2
		v-1L366.1,35.6L366.1,35.6z"/>
	<path class="st5" d="M374.6,35.3c2.1,0,3.5,1.5,3.5,3.6v0.6h-5.9c0.1,1.5,1.1,2.4,2.5,2.4c1.2,0,1.8-0.6,2.2-1.4l1,0.5
		c-0.5,0.9-1.4,1.9-3.2,1.9c-2.3,0-3.7-1.7-3.7-3.9C371,37,372.5,35.3,374.6,35.3z M376.9,38.6c0-1.4-0.9-2.3-2.3-2.3
		s-2.3,0.8-2.4,2.3H376.9z"/>
	<path class="st5" d="M381.4,35.6v1h0.2c0.4-0.7,1.1-1.1,2-1.1c1.1,0,1.7,0.5,2.1,1.3h0.2c0.4-0.7,1.1-1.3,2.2-1.3
		c1.4,0,2.5,0.9,2.5,2.4v5h-1.1V38c0-0.9-0.7-1.5-1.6-1.5c-1,0-1.8,0.7-1.8,1.9v4.5H385V38c0-0.9-0.6-1.5-1.6-1.5s-1.8,0.7-1.8,1.9
		v4.5h-1.1v-7.2h0.9V35.6z"/>
	<path class="st5" d="M393.9,32.4c0.5,0,1,0.4,1,1s-0.4,1-1,1s-1-0.4-1-1S393.4,32.4,393.9,32.4z M394.5,42.8h-1.1v-7.2h1.1V42.8z"
		/>
	<path class="st5" d="M398.4,35.6v1.3h0.2c0.4-0.7,1.1-1.4,2.5-1.4c1.5,0,2.9,1,2.9,3v4.4h-1.1v-4.3c0-1.4-0.8-2.1-2-2.1
		c-1.4,0-2.4,0.9-2.4,2.6v3.7h-1.1v-7.2H398.4z"/>
	<path class="st5" d="M407.3,32.4c0.5,0,1,0.4,1,1s-0.4,1-1,1s-1-0.4-1-1S406.7,32.4,407.3,32.4z M407.8,42.8h-1.1v-7.2h1.1V42.8z"
		/>
	<path class="st5" d="M413.2,35.4c1.5,0,2.5,0.6,3.6,1.9l-0.9,0.6c-0.8-1.1-1.7-1.5-2.7-1.5c-0.9,0-1.6,0.4-1.6,1.1
		c0,0.8,0.8,0.9,1.7,1.1l0.7,0.1c1.7,0.3,2.9,0.7,2.9,2.1c0,1.4-1.3,2.3-3.2,2.3c-2,0-3.2-1.2-3.7-2.4l1-0.5
		c0.5,1.2,1.5,1.9,2.8,1.9c1.2,0,2-0.5,2-1.3s-0.9-0.9-1.9-1.1l-0.7-0.1c-1.6-0.2-2.7-0.7-2.7-2.1C410.5,36.1,411.7,35.4,413.2,35.4
		z"/>
	<path class="st5" d="M420.4,35.6V33h1.1v2.6h2.3v1h-2.3v4.8c0,0.3,0.1,0.4,0.4,0.4h1.5v1h-1.9c-0.7,0-1.1-0.4-1.1-1.1v-5.1h-2.2v-1
		C418.2,35.6,420.4,35.6,420.4,35.6z"/>
</g>
<g>
	<line class="st4" x1="379.6" y1="65.1" x2="379.6" y2="79"/>
	<g>
		<polygon class="st5" points="375.2,75.5 376,74.7 379.6,78.6 383.2,74.7 383.9,75.5 379.6,80.1 		"/>
	</g>
</g>
<g>
	<line class="st4" x1="379.6" y1="144.7" x2="379.6" y2="158.6"/>
	<g>
		<polygon class="st5" points="375.2,155.1 376,154.4 379.6,158.2 383.2,154.4 383.9,155.1 379.6,159.8 		"/>
	</g>
</g>
<g>
	<line class="st4" x1="379.6" y1="224.7" x2="379.6" y2="238.6"/>
	<g>
		<polygon class="st5" points="375.2,235.1 376,234.3 379.6,238.1 383.2,234.3 383.9,235.1 379.6,239.7 		"/>
	</g>
</g>
<g>
	<path class="st2" d="M266,100.8c1.5,0,2.5,0.6,3.6,1.9l-0.9,0.6c-0.8-1.1-1.7-1.5-2.7-1.5c-0.9,0-1.6,0.4-1.6,1.1
		c0,0.8,0.8,0.9,1.7,1.1l0.7,0.1c1.7,0.3,2.9,0.7,2.9,2.1s-1.3,2.3-3.2,2.3c-2,0-3.2-1.2-3.7-2.4l1-0.5c0.5,1.2,1.5,1.9,2.8,1.9
		c1.2,0,2-0.5,2-1.3s-0.9-0.9-1.9-1.1L266,105c-1.6-0.2-2.7-0.7-2.7-2.1C263.3,101.6,264.5,100.8,266,100.8z"/>
	<path class="st2" d="M275,100.8c2.1,0,3.5,1.5,3.5,3.6v0.6h-5.9c0.1,1.5,1.1,2.4,2.5,2.4c1.2,0,1.8-0.6,2.2-1.4l1,0.5
		c-0.5,0.9-1.4,1.9-3.2,1.9c-2.3,0-3.7-1.7-3.7-3.9C271.4,102.5,272.9,100.8,275,100.8z M277.3,104.1c0-1.4-0.9-2.3-2.3-2.3
		s-2.3,0.8-2.4,2.3H277.3z"/>
	<path class="st2" d="M281.9,108.3h-1.1V97.9h1.1V108.3z"/>
	<path class="st2" d="M287.9,100.8c2.1,0,3.5,1.5,3.5,3.6v0.6h-5.9c0.1,1.5,1.1,2.4,2.5,2.4c1.2,0,1.8-0.6,2.2-1.4l1,0.5
		c-0.5,0.9-1.4,1.9-3.2,1.9c-2.3,0-3.7-1.7-3.7-3.9C284.3,102.5,285.8,100.8,287.9,100.8z M290.2,104.1c0-1.4-0.9-2.3-2.3-2.3
		s-2.3,0.8-2.4,2.3H290.2z"/>
	<path class="st2" d="M296.9,100.8c1.9,0,3.2,1.2,3.5,2.8l-1.1,0.2c-0.1-1.1-1-2-2.3-2c-1.5,0-2.6,1.1-2.6,2.8
		c0,1.6,1.1,2.8,2.6,2.8s2.1-0.9,2.3-2l1.1,0.2c-0.3,1.4-1.4,2.8-3.5,2.8c-2.2,0-3.8-1.6-3.8-3.8S294.8,100.8,296.9,100.8z"/>
	<path class="st2" d="M303.9,101.1v-2.6h1.1v2.6h2.3v1H305v4.8c0,0.3,0.1,0.4,0.4,0.4h1.5v1H305c-0.7,0-1.1-0.4-1.1-1.1V102h-2.2v-1
		L303.9,101.1L303.9,101.1z"/>
	<path class="st5" d="M316,101.1v-2.6h1.1v2.6h2.3v1h-2.3v4.8c0,0.3,0.1,0.4,0.4,0.4h1.5v1h-1.9c-0.7,0-1.1-0.4-1.1-1.1V102h-2.2v-1
		L316,101.1L316,101.1z"/>
	<path class="st5" d="M322.8,97.9v4.4h0.2c0.4-0.7,1.1-1.4,2.5-1.4c1.5,0,2.9,1,2.9,3v4.4h-1.1V104c0-1.4-0.8-2.1-2-2.1
		c-1.4,0-2.4,0.9-2.4,2.6v3.7h-1.1V97.9H322.8z"/>
	<path class="st5" d="M334.2,100.8c2.1,0,3.5,1.5,3.5,3.6v0.6h-5.9c0.1,1.5,1.1,2.4,2.5,2.4c1.2,0,1.8-0.6,2.2-1.4l1,0.5
		c-0.5,0.9-1.4,1.9-3.2,1.9c-2.3,0-3.7-1.7-3.7-3.9C330.6,102.5,332.1,100.8,334.2,100.8z M336.5,104.1c0-1.4-0.9-2.3-2.3-2.3
		s-2.3,0.8-2.4,2.3H336.5z"/>
	<path class="st5" d="M346.3,97.9v4.4h0.2c0.4-0.7,1.1-1.5,2.6-1.5c1.9,0,3.4,1.6,3.4,3.8s-1.5,3.8-3.4,3.8c-1.5,0-2.2-0.7-2.6-1.4
		h-0.2v1.2h-1.1V97.9H346.3z M346.3,104.7c0,1.7,1,2.8,2.5,2.8s2.5-1,2.5-2.8c0-1.7-1-2.8-2.5-2.8
		C347.3,101.9,346.3,103,346.3,104.7z"/>
	<path class="st5" d="M355.5,97.8c0.5,0,1,0.4,1,1s-0.4,1-1,1s-1-0.4-1-1S354.9,97.8,355.5,97.8z M356,108.3h-1.1v-7.2h1.1V108.3z"
		/>
	<path class="st5" d="M365.7,101.1v7c0,2-1.3,3.4-3.5,3.4c-1.9,0-3-0.9-3.7-2l1-0.6c0.4,0.8,1.3,1.6,2.6,1.6c1.4,0,2.5-0.8,2.5-2.5
		v-1.1h-0.2c-0.4,0.7-1.1,1.5-2.6,1.5c-1.9,0-3.4-1.5-3.4-3.7s1.5-3.7,3.4-3.7c1.5,0,2.2,0.7,2.6,1.5h0.2v-1.2h1.1V101.1z
		 M364.6,104.6c0-1.7-1-2.7-2.5-2.7s-2.5,1-2.5,2.7s1.1,2.7,2.5,2.7C363.6,107.3,364.6,106.3,364.6,104.6z"/>
	<path class="st5" d="M375.4,101.1v7c0,2-1.3,3.4-3.5,3.4c-1.9,0-3-0.9-3.7-2l1-0.6c0.4,0.8,1.3,1.6,2.6,1.6c1.4,0,2.5-0.8,2.5-2.5
		v-1.1h-0.2c-0.4,0.7-1.1,1.5-2.6,1.5c-1.9,0-3.4-1.5-3.4-3.7s1.5-3.7,3.4-3.7c1.5,0,2.2,0.7,2.6,1.5h0.2v-1.2h1.1V101.1z
		 M374.3,104.6c0-1.7-1-2.7-2.5-2.7s-2.5,1-2.5,2.7s1.1,2.7,2.5,2.7C373.3,107.3,374.3,106.3,374.3,104.6z"/>
	<path class="st5" d="M381.4,100.8c2.1,0,3.5,1.5,3.5,3.6v0.6H379c0.1,1.5,1.1,2.4,2.5,2.4c1.2,0,1.8-0.6,2.2-1.4l1,0.5
		c-0.5,0.9-1.4,1.9-3.2,1.9c-2.3,0-3.7-1.7-3.7-3.9C377.8,102.5,379.3,100.8,381.4,100.8z M383.7,104.1c0-1.4-0.9-2.3-2.3-2.3
		s-2.3,0.8-2.4,2.3H383.7z"/>
	<path class="st5" d="M389.7,100.8c1.5,0,2.5,0.6,3.6,1.9l-0.9,0.6c-0.8-1.1-1.7-1.5-2.7-1.5c-0.9,0-1.6,0.4-1.6,1.1
		c0,0.8,0.8,0.9,1.7,1.1l0.7,0.1c1.7,0.3,2.9,0.7,2.9,2.1s-1.3,2.3-3.2,2.3c-2,0-3.2-1.2-3.7-2.4l1-0.5c0.5,1.2,1.5,1.9,2.8,1.9
		c1.2,0,2-0.5,2-1.3s-0.9-0.9-1.9-1.1l-0.7-0.1c-1.6-0.2-2.7-0.7-2.7-2.1C386.9,101.6,388.2,100.8,389.7,100.8z"/>
	<path class="st5" d="M396.8,101.1v-2.6h1.1v2.6h2.3v1H398v4.8c0,0.3,0.1,0.4,0.4,0.4h1.5v1H398c-0.7,0-1.1-0.4-1.1-1.1V102h-2.2v-1
		L396.8,101.1L396.8,101.1z"/>
	<path class="st5" d="M414.6,101.1v7c0,2-1.3,3.4-3.5,3.4c-1.9,0-3-0.9-3.7-2l1-0.6c0.4,0.8,1.3,1.6,2.6,1.6c1.4,0,2.5-0.8,2.5-2.5
		v-1.1h-0.2c-0.4,0.7-1.1,1.5-2.6,1.5c-1.9,0-3.4-1.5-3.4-3.7s1.5-3.7,3.4-3.7c1.5,0,2.2,0.7,2.6,1.5h0.2v-1.2h1.1V101.1z
		 M413.4,104.6c0-1.7-1-2.7-2.5-2.7s-2.5,1-2.5,2.7s1.1,2.7,2.5,2.7C412.4,107.3,413.4,106.3,413.4,104.6z"/>
	<path class="st5" d="M418.5,102.1h0.2c0.3-0.7,0.8-1.1,1.9-1.1h0.9v1.1h-1.2c-1.1,0-1.7,0.6-1.7,1.8v4.4h-1.1v-7.2h1.1L418.5,102.1
		L418.5,102.1z"/>
	<path class="st5" d="M426.3,100.8c2.1,0,3.7,1.6,3.7,3.8s-1.5,3.8-3.7,3.8s-3.7-1.6-3.7-3.8S424.1,100.8,426.3,100.8z M426.3,107.5
		c1.5,0,2.5-1.1,2.5-2.8s-1-2.8-2.5-2.8s-2.6,1.1-2.6,2.8C423.7,106.4,424.7,107.5,426.3,107.5z"/>
	<path class="st5" d="M437.8,108.3V107h-0.2c-0.4,0.7-1.1,1.4-2.5,1.4c-1.5,0-2.8-1-2.8-3V101h1.1v4.3c0,1.4,0.8,2.1,2,2.1
		c1.4,0,2.4-0.9,2.4-2.6v-3.7h1.1v7.2H437.8z"/>
	<path class="st5" d="M441.7,101.1h1.1v1.2h0.2c0.4-0.7,1.1-1.5,2.6-1.5c1.9,0,3.4,1.6,3.4,3.8s-1.5,3.8-3.4,3.8
		c-1.5,0-2.2-0.7-2.6-1.4h-0.2v4.2h-1.1V101.1z M447.9,104.7c0-1.7-1-2.8-2.5-2.8s-2.5,1.1-2.5,2.8c0,1.7,1,2.8,2.5,2.8
		S447.9,106.4,447.9,104.7z"/>
	<path class="st5" d="M456.6,101.1h1.1v1.2h0.2c0.4-0.7,1.1-1.5,2.6-1.5c1.9,0,3.4,1.6,3.4,3.8s-1.5,3.8-3.4,3.8
		c-1.5,0-2.2-0.7-2.6-1.4h-0.2v4.2h-1.1V101.1z M462.9,104.7c0-1.7-1-2.8-2.5-2.8s-2.5,1.1-2.5,2.8c0,1.7,1,2.8,2.5,2.8
		C461.8,107.5,462.9,106.4,462.9,104.7z"/>
	<path class="st5" d="M469.5,100.8c2,0,3.1,1.1,3.1,2.9v4.6h-1.1v-1.2h-0.2c-0.4,0.7-1.2,1.4-2.7,1.4c-1.6,0-2.7-0.8-2.7-2.1
		c0-1.3,1.1-2,2.8-2.1l2.9-0.3v-0.3c0-1.1-0.7-1.8-2-1.8s-2.1,0.7-2.5,1.6l-1-0.5C466.5,101.9,467.7,100.8,469.5,100.8z
		 M468.7,107.5c1.7,0,2.8-1,2.8-2.5v-0.1l-2.7,0.3c-1,0.1-1.8,0.4-1.8,1.2C467,107.1,467.7,107.5,468.7,107.5z"/>
	<path class="st5" d="M482.3,101.1v7c0,2-1.3,3.4-3.5,3.4c-1.9,0-3-0.9-3.7-2l1-0.6c0.4,0.8,1.3,1.6,2.6,1.6c1.4,0,2.5-0.8,2.5-2.5
		v-1.1H481c-0.4,0.7-1.1,1.5-2.6,1.5c-1.9,0-3.4-1.5-3.4-3.7s1.5-3.7,3.4-3.7c1.5,0,2.2,0.7,2.6,1.5h0.2v-1.2h1.1V101.1z
		 M481.1,104.6c0-1.7-1-2.7-2.5-2.7s-2.5,1-2.5,2.7s1.1,2.7,2.5,2.7C480.1,107.3,481.1,106.3,481.1,104.6z"/>
	<path class="st5" d="M488.2,100.8c2.1,0,3.5,1.5,3.5,3.6v0.6h-5.9c0.1,1.5,1.1,2.4,2.5,2.4c1.2,0,1.8-0.6,2.2-1.4l1,0.5
		c-0.5,0.9-1.4,1.9-3.2,1.9c-2.3,0-3.7-1.7-3.7-3.9C484.6,102.5,486.1,100.8,488.2,100.8z M490.5,104.1c0-1.4-0.9-2.3-2.3-2.3
		s-2.3,0.8-2.4,2.3H490.5z"/>
	<path class="st5" d="M494.7,100.7c0.6,0,1,0.4,1,1s-0.4,1-1,1s-1-0.4-1-1S494.1,100.7,494.7,100.7z M494.7,106.4c0.6,0,1,0.4,1,1
		s-0.4,1-1,1s-1-0.4-1-1C493.6,106.9,494.1,106.4,494.7,106.4z"/>
	<path class="st5" d="M288.1,117.2c-0.6,0-1-0.4-1-1v-1.5c0-0.7,0.5-1.1,1.1-1.1h0.9v0.7h-0.8c-0.3,0-0.4,0.1-0.4,0.4v0.5
		c0,0,0.1,0,0.3,0c0.5,0,1,0.4,1,1S288.7,117.2,288.1,117.2z M290.6,117.2c-0.6,0-1-0.4-1-1v-1.5c0-0.7,0.5-1.1,1.1-1.1h0.9v0.7
		h-0.8c-0.3,0-0.4,0.1-0.4,0.4v0.5c0.1,0,0.1,0,0.3,0c0.5,0,1,0.4,1,1S291.1,117.2,290.6,117.2z"/>
	<path class="st5" d="M301.4,113.8v1.1h-3.5v9.3h-1.2v-9.3h-3.5v-1.1H301.4z"/>
	<path class="st5" d="M304.5,113.8v4.4h0.2c0.4-0.7,1.1-1.4,2.5-1.4c1.5,0,2.9,1,2.9,3v4.4H309v-4.3c0-1.4-0.8-2.1-2-2.1
		c-1.4,0-2.4,0.9-2.4,2.6v3.7h-1.1v-10.4h1V113.8z"/>
	<path class="st5" d="M315.9,116.7c2.1,0,3.5,1.5,3.5,3.6v0.6h-5.9c0.1,1.5,1.1,2.4,2.5,2.4c1.2,0,1.8-0.6,2.2-1.4l1,0.5
		c-0.5,0.9-1.4,1.9-3.2,1.9c-2.3,0-3.7-1.7-3.7-3.9C312.3,118.4,313.9,116.7,315.9,116.7z M318.3,120c0-1.4-0.9-2.3-2.3-2.3
		s-2.3,0.8-2.4,2.3H318.3z"/>
	<path class="st5" d="M331.4,113.8l3.4,10.4h-1.3l-0.8-2.6h-4.4l-0.8,2.6h-1.3l3.4-10.4H331.4z M332.3,120.4l-1.8-5.6h-0.2l-1.8,5.6
		H332.3z"/>
	<path class="st5" d="M337.9,116.9v1.3h0.2c0.4-0.7,1.1-1.4,2.5-1.4c1.5,0,2.9,1,2.9,3v4.4h-1.1v-4.3c0-1.4-0.8-2.1-2-2.1
		c-1.4,0-2.4,0.9-2.4,2.6v3.7h-1.1v-7.2H337.9z"/>
	<path class="st5" d="M347.3,116.9v-2.6h1.1v2.6h2.3v1h-2.3v4.8c0,0.3,0.1,0.4,0.4,0.4h1.5v1h-1.9c-0.7,0-1.1-0.4-1.1-1.1v-5.1h-2.2
		v-1C345.1,116.9,347.3,116.9,347.3,116.9z"/>
	<path class="st5" d="M353.5,113.7c0.5,0,1,0.4,1,1s-0.4,1-1,1s-1-0.4-1-1S353,113.7,353.5,113.7z M354.1,124.2H353V117h1.1V124.2z"
		/>
	<path class="st5" d="M368.5,113.8v1.1h-5.2v3.5h4.9v1.1h-4.9v4.7h-1.2v-10.4C362.1,113.8,368.5,113.8,368.5,113.8z"/>
	<path class="st5" d="M373.7,116.7c2.1,0,3.5,1.5,3.5,3.6v0.6h-5.9c0.1,1.5,1.1,2.4,2.5,2.4c1.2,0,1.8-0.6,2.2-1.4l1,0.5
		c-0.5,0.9-1.4,1.9-3.2,1.9c-2.3,0-3.7-1.7-3.7-3.9C370.1,118.4,371.6,116.7,373.7,116.7z M376,120c0-1.4-0.9-2.3-2.3-2.3
		s-2.3,0.8-2.4,2.3H376z"/>
	<path class="st5" d="M380.6,116.9v1h0.2c0.4-0.7,1.1-1.1,2-1.1c1.1,0,1.7,0.5,2.1,1.3h0.2c0.4-0.7,1.1-1.3,2.2-1.3
		c1.4,0,2.5,0.9,2.5,2.4v5h-1.1v-4.9c0-0.9-0.7-1.5-1.6-1.5c-1,0-1.8,0.7-1.8,1.9v4.5h-1.1v-4.9c0-0.9-0.6-1.5-1.6-1.5
		s-1.8,0.7-1.8,1.9v4.5h-1.1V117h0.9V116.9z"/>
	<path class="st5" d="M393.1,113.7c0.5,0,1,0.4,1,1s-0.4,1-1,1s-1-0.4-1-1S392.5,113.7,393.1,113.7z M393.6,124.2h-1.1V117h1.1
		V124.2z"/>
	<path class="st5" d="M397.6,116.9v1.3h0.2c0.4-0.7,1.1-1.4,2.5-1.4c1.5,0,2.9,1,2.9,3v4.4H402v-4.3c0-1.4-0.8-2.1-2-2.1
		c-1.4,0-2.4,0.9-2.4,2.6v3.7h-1.1v-7.2H397.6z"/>
	<path class="st5" d="M406.4,113.7c0.5,0,1,0.4,1,1s-0.4,1-1,1s-1-0.4-1-1S405.9,113.7,406.4,113.7z M407,124.2h-1.1V117h1.1V124.2z
		"/>
	<path class="st5" d="M412.4,116.7c1.5,0,2.5,0.6,3.6,1.9l-0.9,0.6c-0.8-1.1-1.7-1.5-2.7-1.5c-0.9,0-1.6,0.4-1.6,1.1
		c0,0.8,0.8,0.9,1.7,1.1l0.7,0.1c1.7,0.3,2.9,0.7,2.9,2.1s-1.3,2.3-3.2,2.3c-2,0-3.2-1.2-3.7-2.4l1-0.5c0.5,1.2,1.5,1.9,2.8,1.9
		c1.2,0,2-0.5,2-1.3s-0.9-0.9-1.9-1.1l-0.7-0.1c-1.6-0.2-2.7-0.7-2.7-2.1C409.7,117.5,410.9,116.7,412.4,116.7z"/>
	<path class="st5" d="M419.6,116.9v-2.6h1.1v2.6h2.3v1h-2.3v4.8c0,0.3,0.1,0.4,0.4,0.4h1.5v1h-1.9c-0.7,0-1.1-0.4-1.1-1.1v-5.1h-2.2
		v-1C417.4,116.9,419.6,116.9,419.6,116.9z"/>
	<path class="st5" d="M434.6,113.8c1.8,0,3.1,1,3.1,2.7c0,1.3-0.8,2.1-1.8,2.3v0.2c0.9,0.2,1.8,1,1.8,2.3c0,1.7-1.3,2.8-3.1,2.8
		h-4.2v-10.4L434.6,113.8L434.6,113.8z M431.6,118.4h2.9c1.2,0,2-0.7,2-1.8c0-1-0.8-1.7-2-1.7h-2.9V118.4z M431.6,123.1h2.9
		c1.2,0,2-0.7,2-1.8c0-1.1-0.7-1.8-2-1.8h-2.9V123.1z"/>
	<path class="st5" d="M443.4,116.7c2,0,3.1,1.1,3.1,2.9v4.6h-1.1V123h-0.2c-0.4,0.7-1.2,1.4-2.7,1.4c-1.6,0-2.7-0.8-2.7-2.1
		c0-1.3,1.1-2,2.8-2.1l2.9-0.3v-0.3c0-1.1-0.7-1.8-2-1.8s-2.1,0.7-2.5,1.6l-1-0.5C440.4,117.8,441.6,116.7,443.4,116.7z
		 M442.6,123.4c1.7,0,2.8-1,2.8-2.5v-0.1l-2.7,0.3c-1,0.1-1.8,0.4-1.8,1.2C440.9,123,441.6,123.4,442.6,123.4z"/>
	<path class="st5" d="M450.3,116.9v1.3h0.2c0.4-0.7,1.1-1.4,2.5-1.4c1.5,0,2.9,1,2.9,3v4.4h-1.1v-4.3c0-1.4-0.8-2.1-2-2.1
		c-1.4,0-2.4,0.9-2.4,2.6v3.7h-1.1v-7.2H450.3z"/>
	<path class="st5" d="M462.2,119.8l3.3,4.4h-1.4l-2.7-3.7l-1.6,1.4v2.3h-1.1v-10.4h1.1v6.5h0.2l3.9-3.4h1.7L462.2,119.8z"/>
	<path class="st5" d="M468.2,113.6c0.6,0,1,0.4,1,1v1.5c0,0.7-0.5,1.1-1.1,1.1h-0.9v-0.7h0.8c0.3,0,0.4-0.1,0.4-0.4v-0.5
		c-0.1,0-0.1,0-0.3,0c-0.5,0-1-0.4-1-1C467.2,114,467.7,113.6,468.2,113.6z M470.7,113.6c0.6,0,1,0.4,1,1v1.5c0,0.7-0.5,1.1-1.1,1.1
		h-0.9v-0.7h0.8c0.3,0,0.4-0.1,0.4-0.4v-0.5c0,0-0.1,0-0.3,0c-0.5,0-1-0.4-1-1S470.1,113.6,470.7,113.6z"/>
</g>
<g>
	<path class="st2" d="M322.8,181.2c2.1,0,3.5,1.5,3.5,3.6v0.6h-5.9c0.1,1.5,1.1,2.4,2.5,2.4c1.2,0,1.8-0.6,2.2-1.4l1,0.5
		c-0.5,0.9-1.4,1.9-3.2,1.9c-2.3,0-3.7-1.7-3.7-3.9C319.2,182.9,320.7,181.2,322.8,181.2z M325.1,184.5c0-1.4-0.9-2.3-2.3-2.3
		s-2.3,0.8-2.4,2.3H325.1z"/>
	<path class="st2" d="M329.2,181.4l2.1,2.8h0.2l2.1-2.8h1.4l-2.8,3.5l2.9,3.7h-1.4l-2.2-3h-0.2l-2.3,3h-1.4l2.9-3.7l-2.8-3.5H329.2z
		"/>
	<path class="st2" d="M338.7,181.4v-2.6h1.1v2.6h2.3v1h-2.3v4.8c0,0.3,0.1,0.4,0.4,0.4h1.5v1h-1.9c-0.7,0-1.1-0.4-1.1-1.1v-5.1h-2.2
		v-1L338.7,181.4L338.7,181.4z"/>
	<path class="st2" d="M345.4,182.5h0.2c0.3-0.7,0.8-1.1,1.9-1.1h0.9v1.1h-1.2c-1.1,0-1.7,0.6-1.7,1.8v4.4h-1.1v-7.2h1.1L345.4,182.5
		L345.4,182.5z"/>
	<path class="st2" d="M353.5,181.2c2,0,3.1,1.1,3.1,2.9v4.6h-1.1v-1.2h-0.2c-0.4,0.7-1.2,1.4-2.7,1.4c-1.6,0-2.7-0.8-2.7-2.1
		s1.1-2,2.8-2.1l2.9-0.3V184c0-1.1-0.7-1.8-2-1.8s-2.1,0.7-2.5,1.6l-1-0.5C350.6,182.3,351.7,181.2,353.5,181.2z M352.8,187.9
		c1.7,0,2.8-1,2.8-2.5v-0.1l-2.7,0.3c-1,0.1-1.8,0.4-1.8,1.2C351.1,187.5,351.8,187.9,352.8,187.9z"/>
	<path class="st2" d="M362.7,181.2c1.9,0,3.2,1.2,3.5,2.8l-1.1,0.2c-0.1-1.1-1-2-2.3-2c-1.5,0-2.6,1.1-2.6,2.8
		c0,1.6,1.1,2.8,2.6,2.8s2.1-0.9,2.3-2l1.1,0.2c-0.3,1.4-1.4,2.8-3.5,2.8c-2.2,0-3.8-1.6-3.8-3.8S360.5,181.2,362.7,181.2z"/>
	<path class="st2" d="M369.6,181.4v-2.6h1.1v2.6h2.3v1h-2.3v4.8c0,0.3,0.1,0.4,0.4,0.4h1.5v1h-1.9c-0.7,0-1.1-0.4-1.1-1.1v-5.1h-2.2
		v-1L369.6,181.4L369.6,181.4z"/>
	<path class="st5" d="M381.8,181.4v-2.6h1.1v2.6h2.3v1h-2.3v4.8c0,0.3,0.1,0.4,0.4,0.4h1.5v1h-1.9c-0.7,0-1.1-0.4-1.1-1.1v-5.1h-2.2
		v-1L381.8,181.4L381.8,181.4z"/>
	<path class="st5" d="M388.5,178.3v4.4h0.2c0.4-0.7,1.1-1.4,2.5-1.4c1.5,0,2.9,1,2.9,3v4.4H393v-4.3c0-1.4-0.8-2.1-2-2.1
		c-1.4,0-2.4,0.9-2.4,2.6v3.7h-1.1v-10.4h1V178.3z"/>
	<path class="st5" d="M400,181.2c2.1,0,3.5,1.5,3.5,3.6v0.6h-5.9c0.1,1.5,1.1,2.4,2.5,2.4c1.2,0,1.8-0.6,2.2-1.4l1,0.5
		c-0.5,0.9-1.4,1.9-3.2,1.9c-2.3,0-3.7-1.7-3.7-3.9C396.4,182.9,397.9,181.2,400,181.2z M402.3,184.5c0-1.4-0.9-2.3-2.3-2.3
		s-2.3,0.8-2.4,2.3H402.3z"/>
	<path class="st5" d="M417.8,181.4v7.2h-1.1v-6.2h-3.2v6.2h-1.1v-6.2h-2.2v-1h2.2v-2c0-0.7,0.4-1.2,1.1-1.2h1.7v1h-1.3
		c-0.3,0-0.4,0.1-0.4,0.4v1.7h4.3V181.4z M418.2,179.2c0,0.5-0.4,1-1,1s-1-0.4-1-1s0.4-1,1-1C417.8,178.2,418.2,178.6,418.2,179.2z"
		/>
	<path class="st5" d="M421.7,182.5h0.2c0.3-0.7,0.8-1.1,1.9-1.1h0.9v1.1h-1.2c-1.1,0-1.7,0.6-1.7,1.8v4.4h-1.1v-7.2h1.1L421.7,182.5
		L421.7,182.5z"/>
	<path class="st5" d="M429.1,181.2c1.5,0,2.5,0.6,3.6,1.9l-0.9,0.6c-0.8-1.1-1.7-1.5-2.7-1.5c-0.9,0-1.6,0.4-1.6,1.1
		c0,0.8,0.8,0.9,1.7,1.1l0.7,0.1c1.7,0.3,2.9,0.7,2.9,2.1c0,1.4-1.3,2.3-3.2,2.3c-2,0-3.2-1.2-3.7-2.4l1-0.5
		c0.5,1.2,1.5,1.9,2.8,1.9c1.2,0,2-0.5,2-1.3s-0.9-0.9-1.9-1.1l-0.7-0.1c-1.6-0.2-2.7-0.7-2.7-2.1
		C426.4,182,427.6,181.2,429.1,181.2z"/>
	<path class="st5" d="M436.3,181.4v-2.6h1.1v2.6h2.3v1h-2.3v4.8c0,0.3,0.1,0.4,0.4,0.4h1.5v1h-1.9c-0.7,0-1.1-0.4-1.1-1.1v-5.1h-2.2
		v-1L436.3,181.4L436.3,181.4z"/>
	<path class="st5" d="M338.4,193.9c2.1,0,3.5,1.3,3.5,3.3c0,2.1-1.5,3-3.5,3.6c-1.7,0.5-2.5,0.9-2.5,2.3v0.2h6v1.1h-7.2v-1.2
		c0-2.1,1.3-2.8,3.2-3.4c1.8-0.5,2.8-1.2,2.8-2.7c0-1.4-1-2.2-2.3-2.2c-1.6,0-2.5,0.9-2.5,2.5v0.3h-1.2v-0.4
		C334.6,195.3,336.2,193.9,338.4,193.9z"/>
	<path class="st5" d="M350.9,194.2v1.1l-3.3,2.9v0.2h0.4c1.7,0,3.1,1.2,3.1,3.1c0,2-1.6,3.3-3.6,3.3c-2.3,0-3.8-1.3-3.8-3.5v-0.6
		h1.2v0.6c0,1.6,1,2.4,2.6,2.4c1.5,0,2.4-1,2.4-2.3c0-1.4-1-2.1-2.3-2.1H346v-1.1l3.2-2.8h-5.3v-1.1L350.9,194.2L350.9,194.2z"/>
	<path class="st5" d="M356.8,193.9c2.3,0,3.8,1.5,3.8,4.2v2.3c0,2.7-1.4,4.2-3.8,4.2s-3.8-1.5-3.8-4.2v-2.3
		C353,195.5,354.5,193.9,356.8,193.9z M354.3,200.5c0,2,0.9,3.1,2.6,3.1s2.6-1.1,2.6-3.1v-2.4c0-2-0.9-3.1-2.6-3.1s-2.6,1.1-2.6,3.1
		V200.5z"/>
	<path class="st5" d="M368.9,194.1c0.5,0,1,0.4,1,1s-0.4,1-1,1s-1-0.4-1-1S368.4,194.1,368.9,194.1z M369.5,204.5h-1.1v-7.2h1.1
		V204.5z"/>
	<path class="st5" d="M373.4,197.3v1h0.2c0.4-0.7,1.1-1.1,2-1.1c1.1,0,1.7,0.5,2.1,1.3h0.2c0.4-0.7,1.1-1.3,2.2-1.3
		c1.4,0,2.5,0.9,2.5,2.4v5h-1.1v-4.9c0-0.9-0.7-1.5-1.6-1.5c-1,0-1.8,0.7-1.8,1.9v4.5H377v-4.9c0-0.9-0.6-1.5-1.6-1.5
		s-1.8,0.7-1.8,1.9v4.5h-1.1v-7.2L373.4,197.3L373.4,197.3z"/>
	<path class="st5" d="M388.5,197.1c2,0,3.1,1.1,3.1,2.9v4.6h-1.1v-1.2h-0.2c-0.4,0.7-1.2,1.4-2.7,1.4c-1.6,0-2.7-0.8-2.7-2.1
		s1.1-2,2.8-2.1l2.9-0.3V200c0-1.1-0.7-1.8-2-1.8s-2.1,0.7-2.5,1.6l-1-0.5C385.6,198.1,386.7,197.1,388.5,197.1z M387.8,203.8
		c1.7,0,2.8-1,2.8-2.5v-0.1l-2.7,0.3c-1,0.1-1.8,0.4-1.8,1.2C386.1,203.4,386.8,203.8,387.8,203.8z"/>
	<path class="st5" d="M401.3,197.3v7c0,2-1.3,3.4-3.5,3.4c-1.9,0-3-0.9-3.7-2l1-0.6c0.4,0.8,1.3,1.6,2.6,1.6c1.4,0,2.5-0.8,2.5-2.5
		v-1.1H400c-0.4,0.7-1.1,1.5-2.6,1.5c-1.9,0-3.4-1.5-3.4-3.7s1.5-3.7,3.4-3.7c1.5,0,2.2,0.7,2.6,1.5h0.2v-1.2h1.1V197.3z
		 M400.2,200.8c0-1.7-1-2.7-2.5-2.7s-2.5,1-2.5,2.7s1.1,2.7,2.5,2.7S400.2,202.5,400.2,200.8z"/>
	<path class="st5" d="M407.2,197.1c2.1,0,3.5,1.5,3.5,3.6v0.6h-5.9c0.1,1.5,1.1,2.4,2.5,2.4c1.2,0,1.8-0.6,2.2-1.4l1,0.5
		c-0.5,0.9-1.4,1.9-3.2,1.9c-2.3,0-3.7-1.7-3.7-3.9C403.6,198.7,405.1,197.1,407.2,197.1z M409.5,200.3c0-1.4-0.9-2.3-2.3-2.3
		s-2.3,0.8-2.4,2.3H409.5z"/>
	<path class="st5" d="M415.5,197.1c1.5,0,2.5,0.6,3.6,1.9l-0.9,0.6c-0.8-1.1-1.7-1.5-2.7-1.5c-0.9,0-1.6,0.4-1.6,1.1
		c0,0.8,0.8,0.9,1.7,1.1l0.7,0.1c1.7,0.3,2.9,0.7,2.9,2.1c0,1.4-1.3,2.3-3.2,2.3c-2,0-3.2-1.2-3.7-2.4l1-0.5
		c0.5,1.2,1.5,1.9,2.8,1.9c1.2,0,2-0.5,2-1.3s-0.9-0.9-1.9-1.1l-0.7-0.1c-1.6-0.2-2.7-0.7-2.7-2.1
		C412.8,197.8,414,197.1,415.5,197.1z"/>
</g>
<g>
	<path class="st2" d="M349.1,268.7H348v-1.2h-0.2c-0.4,0.7-1.1,1.5-2.6,1.5c-1.9,0-3.4-1.6-3.4-3.8s1.5-3.8,3.4-3.8
		c1.5,0,2.2,0.7,2.6,1.4h0.2v-4.4h1.1V268.7z M342.9,265.1c0,1.7,1.1,2.8,2.5,2.8c1.5,0,2.5-1.1,2.5-2.8c0-1.7-1-2.8-2.5-2.8
		C343.9,262.3,342.9,263.3,342.9,265.1z"/>
	<path class="st2" d="M355,261.2c2.1,0,3.5,1.5,3.5,3.6v0.6h-5.9c0.1,1.5,1.1,2.4,2.5,2.4c1.2,0,1.8-0.6,2.2-1.4l1,0.5
		c-0.5,0.9-1.4,1.9-3.2,1.9c-2.3,0-3.7-1.7-3.7-3.9C351.4,262.9,352.9,261.2,355,261.2z M357.3,264.5c0-1.4-0.9-2.3-2.3-2.3
		s-2.3,0.8-2.4,2.3H357.3z"/>
	<path class="st2" d="M361.9,268.7h-1.1v-10.4h1.1V268.7z"/>
	<path class="st2" d="M367.9,261.2c2.1,0,3.5,1.5,3.5,3.6v0.6h-5.9c0.1,1.5,1.1,2.4,2.5,2.4c1.2,0,1.8-0.6,2.2-1.4l1,0.5
		c-0.5,0.9-1.4,1.9-3.2,1.9c-2.3,0-3.7-1.7-3.7-3.9C364.3,262.9,365.8,261.2,367.9,261.2z M370.2,264.5c0-1.4-0.9-2.3-2.3-2.3
		s-2.3,0.8-2.4,2.3H370.2z"/>
	<path class="st2" d="M374.9,261.5v-2.6h1.1v2.6h2.3v1H376v4.8c0,0.3,0.1,0.4,0.4,0.4h1.5v1H376c-0.7,0-1.1-0.4-1.1-1.1v-5.1h-2.2
		v-1L374.9,261.5L374.9,261.5z"/>
	<path class="st2" d="M383.6,261.2c2.1,0,3.5,1.5,3.5,3.6v0.6h-5.9c0.1,1.5,1.1,2.4,2.5,2.4c1.2,0,1.8-0.6,2.2-1.4l1,0.5
		c-0.5,0.9-1.4,1.9-3.2,1.9c-2.3,0-3.7-1.7-3.7-3.9C380,262.9,381.5,261.2,383.6,261.2z M385.9,264.5c0-1.4-0.9-2.3-2.3-2.3
		s-2.3,0.8-2.4,2.3H385.9z"/>
	<path class="st5" d="M395.8,261.5v-2.6h1.1v2.6h2.3v1H397v4.8c0,0.3,0.1,0.4,0.4,0.4h1.5v1H397c-0.7,0-1.1-0.4-1.1-1.1v-5.1h-2.2
		v-1L395.8,261.5L395.8,261.5z"/>
	<path class="st5" d="M402.6,258.3v4.4h0.2c0.4-0.7,1.1-1.4,2.5-1.4c1.5,0,2.9,1,2.9,3v4.4H407v-4.3c0-1.4-0.8-2.1-2-2.1
		c-1.4,0-2.4,0.9-2.4,2.6v3.7h-1.1v-10.4L402.6,258.3L402.6,258.3z"/>
	<path class="st5" d="M414,261.2c2.1,0,3.5,1.5,3.5,3.6v0.6h-5.9c0.1,1.5,1.1,2.4,2.5,2.4c1.2,0,1.8-0.6,2.2-1.4l1,0.5
		c-0.5,0.9-1.4,1.9-3.2,1.9c-2.3,0-3.7-1.7-3.7-3.9C410.4,262.9,411.9,261.2,414,261.2z M416.3,264.5c0-1.4-0.9-2.3-2.3-2.3
		s-2.3,0.8-2.4,2.3H416.3z"/>
	<path class="st5" d="M348.5,284.6h-1.1v-1.2h-0.2c-0.4,0.7-1.1,1.5-2.6,1.5c-1.9,0-3.4-1.6-3.4-3.8s1.5-3.8,3.4-3.8
		c1.5,0,2.2,0.7,2.6,1.4h0.2v-4.4h1.1V284.6z M342.3,280.9c0,1.7,1.1,2.8,2.5,2.8c1.5,0,2.5-1.1,2.5-2.8c0-1.7-1-2.8-2.5-2.8
		S342.3,279.2,342.3,280.9z"/>
	<path class="st5" d="M356.8,284.6v-1.3h-0.2c-0.4,0.7-1.1,1.4-2.5,1.4c-1.5,0-2.8-1-2.8-3v-4.4h1.1v4.3c0,1.4,0.8,2.1,2,2.1
		c1.4,0,2.4-0.9,2.4-2.6v-3.7h1.1v7.2H356.8z"/>
	<path class="st5" d="M360.7,277.3h1.1v1.2h0.2c0.4-0.7,1.1-1.5,2.6-1.5c1.9,0,3.4,1.6,3.4,3.8s-1.5,3.8-3.4,3.8
		c-1.5,0-2.2-0.7-2.6-1.4h-0.2v4.2h-1.1V277.3z M367,280.9c0-1.7-1-2.8-2.5-2.8s-2.5,1.1-2.5,2.8c0,1.7,1,2.8,2.5,2.8
		C365.9,283.8,367,282.7,367,280.9z"/>
	<path class="st5" d="M371.6,284.6h-1.1v-10.4h1.1V284.6z"/>
	<path class="st5" d="M375,274.1c0.5,0,1,0.4,1,1s-0.4,1-1,1s-1-0.4-1-1S374.4,274.1,375,274.1z M375.5,284.6h-1.1v-7.2h1.1V284.6z"
		/>
	<path class="st5" d="M381.6,277.1c1.9,0,3.2,1.2,3.5,2.8l-1.1,0.2c-0.1-1.1-1-2-2.3-2c-1.5,0-2.6,1.1-2.6,2.8
		c0,1.6,1.1,2.8,2.6,2.8s2.1-0.9,2.3-2l1.1,0.2c-0.3,1.4-1.4,2.8-3.5,2.8c-2.2,0-3.8-1.6-3.8-3.8S379.5,277.1,381.6,277.1z"/>
	<path class="st5" d="M390.5,277.1c2,0,3.1,1.1,3.1,2.9v4.6h-1.1v-1.2h-0.2c-0.4,0.7-1.2,1.4-2.7,1.4c-1.6,0-2.7-0.8-2.7-2.1
		c0-1.3,1.1-2,2.8-2.1l2.9-0.3V280c0-1.1-0.7-1.8-2-1.8s-2.1,0.7-2.5,1.6l-1-0.5C387.6,278.2,388.7,277.1,390.5,277.1z M389.8,283.8
		c1.7,0,2.8-1,2.8-2.5v-0.1l-2.7,0.3c-1,0.1-1.8,0.4-1.8,1.2C388.1,283.4,388.8,283.8,389.8,283.8z"/>
	<path class="st5" d="M397.5,277.3v-2.6h1.1v2.6h2.3v1h-2.3v4.8c0,0.3,0.1,0.4,0.4,0.4h1.5v1h-1.9c-0.7,0-1.1-0.4-1.1-1.1v-5.1h-2.2
		v-1L397.5,277.3L397.5,277.3z"/>
	<path class="st5" d="M406.2,277.1c2.1,0,3.5,1.5,3.5,3.6v0.6h-5.9c0.1,1.5,1.1,2.4,2.5,2.4c1.2,0,1.8-0.6,2.2-1.4l1,0.5
		c-0.5,0.9-1.4,1.9-3.2,1.9c-2.3,0-3.7-1.7-3.7-3.9C402.6,278.8,404.1,277.1,406.2,277.1z M408.5,280.4c0-1.4-0.9-2.3-2.3-2.3
		s-2.3,0.8-2.4,2.3H408.5z"/>
	<path class="st5" d="M414.5,277.1c1.5,0,2.5,0.6,3.6,1.9l-0.9,0.6c-0.8-1.1-1.7-1.5-2.7-1.5c-0.9,0-1.6,0.4-1.6,1.1
		c0,0.8,0.8,0.9,1.7,1.1l0.7,0.1c1.7,0.3,2.9,0.7,2.9,2.1s-1.3,2.3-3.2,2.3c-2,0-3.2-1.2-3.7-2.4l1-0.5c0.5,1.2,1.5,1.9,2.8,1.9
		c1.2,0,2-0.5,2-1.3s-0.9-0.9-1.9-1.1l-0.7-0.1c-1.6-0.2-2.7-0.7-2.7-2.1C411.8,277.9,413,277.1,414.5,277.1z"/>
</g>
<g>
	<path class="st2" d="M307.2,340c1.9,0,3.2,1.2,3.5,2.8l-1.1,0.2c-0.1-1.1-1-2-2.3-2c-1.5,0-2.6,1.1-2.6,2.8c0,1.6,1.1,2.8,2.6,2.8
		s2.1-0.9,2.3-2l1.1,0.2c-0.3,1.4-1.4,2.8-3.5,2.8c-2.2,0-3.8-1.6-3.8-3.8S305.1,340,307.2,340z"/>
	<path class="st2" d="M314.1,347.5H313v-10.4h1.1V347.5z"/>
	<path class="st2" d="M322.4,347.5v-1.3h-0.2c-0.4,0.7-1.1,1.4-2.5,1.4c-1.5,0-2.8-1-2.8-3v-4.4h1.1v4.3c0,1.4,0.8,2.1,2,2.1
		c1.4,0,2.4-0.9,2.4-2.6v-3.7h1.1v7.2H322.4z"/>
	<path class="st2" d="M328.9,340c1.5,0,2.5,0.6,3.6,1.9l-0.9,0.6c-0.8-1.1-1.7-1.5-2.7-1.5c-0.9,0-1.6,0.4-1.6,1.1
		c0,0.8,0.8,0.9,1.7,1.1l0.7,0.1c1.7,0.3,2.9,0.7,2.9,2.1s-1.3,2.3-3.2,2.3c-2,0-3.2-1.2-3.7-2.4l1-0.5c0.5,1.2,1.5,1.9,2.8,1.9
		c1.2,0,2-0.5,2-1.3s-0.9-0.9-1.9-1.1l-0.7-0.1c-1.6-0.2-2.7-0.7-2.7-2.1C326.2,340.8,327.5,340,328.9,340z"/>
	<path class="st2" d="M336.1,340.2v-2.6h1.1v2.6h2.3v1h-2.3v4.8c0,0.3,0.1,0.4,0.4,0.4h1.5v1h-1.9c-0.7,0-1.1-0.4-1.1-1.1v-5.1h-2.2
		v-1L336.1,340.2L336.1,340.2z"/>
	<path class="st2" d="M344.8,340c2.1,0,3.5,1.5,3.5,3.6v0.6h-5.9c0.1,1.5,1.1,2.4,2.5,2.4c1.2,0,1.8-0.6,2.2-1.4l1,0.5
		c-0.5,0.9-1.4,1.9-3.2,1.9c-2.3,0-3.7-1.7-3.7-3.9C341.2,341.7,342.7,340,344.8,340z M347.1,343.3c0-1.4-0.9-2.3-2.3-2.3
		s-2.3,0.8-2.4,2.3H347.1z"/>
	<path class="st2" d="M351.7,341.3h0.2c0.3-0.7,0.8-1.1,1.9-1.1h0.9v1.1h-1.2c-1.1,0-1.7,0.6-1.7,1.8v4.4h-1.1v-7.2h1.1L351.7,341.3
		L351.7,341.3z"/>
	<path class="st2" d="M357.2,337c0.5,0,1,0.4,1,1s-0.4,1-1,1s-1-0.4-1-1S356.7,337,357.2,337z M357.8,347.5h-1.1v-7.2h1.1V347.5z"/>
	<path class="st2" d="M366.5,340.2v0.9l-4.8,5.3h4.9v1h-6.4v-0.9l4.8-5.3h-4.6v-1H366.5z"/>
	<path class="st2" d="M371.8,340c2.1,0,3.5,1.5,3.5,3.6v0.6h-5.9c0.1,1.5,1.1,2.4,2.5,2.4c1.2,0,1.8-0.6,2.2-1.4l1,0.5
		c-0.5,0.9-1.4,1.9-3.2,1.9c-2.3,0-3.7-1.7-3.7-3.9C368.2,341.7,369.7,340,371.8,340z M374.1,343.3c0-1.4-0.9-2.3-2.3-2.3
		s-2.3,0.8-2.4,2.3H374.1z"/>
	<path class="st5" d="M386,340c2,0,3.1,1.1,3.1,2.9v4.6H388v-1.2h-0.2c-0.4,0.7-1.2,1.4-2.7,1.4c-1.6,0-2.7-0.8-2.7-2.1
		c0-1.3,1.1-2,2.8-2.1l2.9-0.3v-0.3c0-1.1-0.7-1.8-2-1.8s-2.1,0.7-2.5,1.6l-1-0.5C383.1,341.1,384.2,340,386,340z M385.3,346.7
		c1.7,0,2.8-1,2.8-2.5V344l-2.7,0.3c-1,0.1-1.8,0.4-1.8,1.2C383.6,346.3,384.3,346.7,385.3,346.7z"/>
	<path class="st5" d="M395.2,340c1.9,0,3.2,1.2,3.5,2.8l-1.1,0.2c-0.1-1.1-1-2-2.3-2c-1.5,0-2.6,1.1-2.6,2.8c0,1.6,1.1,2.8,2.6,2.8
		s2.1-0.9,2.3-2l1.1,0.2c-0.3,1.4-1.4,2.8-3.5,2.8c-2.2,0-3.8-1.6-3.8-3.8S393,340,395.2,340z"/>
	<path class="st5" d="M404.2,340c1.9,0,3.2,1.2,3.5,2.8l-1.1,0.2c-0.1-1.1-1-2-2.3-2c-1.5,0-2.6,1.1-2.6,2.8c0,1.6,1.1,2.8,2.6,2.8
		s2.1-0.9,2.3-2l1.1,0.2c-0.3,1.4-1.4,2.8-3.5,2.8c-2.2,0-3.8-1.6-3.8-3.8S402.1,340,404.2,340z"/>
	<path class="st5" d="M413.2,340c2.1,0,3.7,1.6,3.7,3.8s-1.5,3.8-3.7,3.8s-3.7-1.6-3.7-3.8S411,340,413.2,340z M413.2,346.6
		c1.5,0,2.5-1.1,2.5-2.8s-1-2.8-2.5-2.8s-2.6,1.1-2.6,2.8C410.6,345.6,411.6,346.6,413.2,346.6z"/>
	<path class="st5" d="M420.3,341.3h0.2c0.3-0.7,0.8-1.1,1.9-1.1h0.9v1.1H422c-1.1,0-1.7,0.6-1.7,1.8v4.4h-1.1v-7.2h1.1V341.3z"/>
	<path class="st5" d="M431.8,347.5h-1.1v-1.2h-0.2c-0.4,0.7-1.1,1.5-2.6,1.5c-1.9,0-3.4-1.6-3.4-3.8s1.5-3.8,3.4-3.8
		c1.5,0,2.2,0.7,2.6,1.4h0.2v-4.4h1.1V347.5z M425.5,343.8c0,1.7,1.1,2.8,2.5,2.8c1.5,0,2.5-1.1,2.5-2.8c0-1.7-1-2.8-2.5-2.8
		C426.6,341,425.5,342.1,425.5,343.8z"/>
	<path class="st5" d="M435.1,337c0.5,0,1,0.4,1,1s-0.4,1-1,1c-0.5,0-1-0.4-1-1S434.6,337,435.1,337z M435.7,347.5h-1.1v-7.2h1.1
		V347.5z"/>
	<path class="st5" d="M439.6,340.2v1.3h0.2c0.4-0.7,1.1-1.4,2.5-1.4c1.5,0,2.9,1,2.9,3v4.4h-1.1v-4.3c0-1.4-0.8-2.1-2-2.1
		c-1.4,0-2.4,0.9-2.4,2.6v3.7h-1.1v-7.2H439.6z"/>
	<path class="st5" d="M454.8,340.2v7c0,2-1.3,3.4-3.5,3.4c-1.9,0-3-0.9-3.7-2l1-0.6c0.4,0.8,1.3,1.6,2.6,1.6c1.4,0,2.5-0.8,2.5-2.5
		V346h-0.2c-0.4,0.7-1.1,1.5-2.6,1.5c-1.9,0-3.4-1.5-3.4-3.7s1.5-3.7,3.4-3.7c1.5,0,2.2,0.7,2.6,1.5h0.2v-1.2h1.1V340.2z
		 M453.7,343.8c0-1.7-1-2.7-2.5-2.7s-2.5,1-2.5,2.7s1.1,2.7,2.5,2.7C452.7,346.5,453.7,345.4,453.7,343.8z"/>
	<path class="st5" d="M307.3,358v-2.6h1.1v2.6h2.3v1h-2.3v4.8c0,0.3,0.1,0.4,0.4,0.4h1.5v1h-1.9c-0.7,0-1.1-0.4-1.1-1.1V359h-2.2v-1
		H307.3z"/>
	<path class="st5" d="M316,357.8c2.1,0,3.7,1.6,3.7,3.8s-1.5,3.8-3.7,3.8s-3.7-1.6-3.7-3.8S313.9,357.8,316,357.8z M316,364.4
		c1.5,0,2.5-1.1,2.5-2.8s-1-2.8-2.5-2.8s-2.6,1.1-2.6,2.8C313.5,363.3,314.5,364.4,316,364.4z"/>
	<path class="st5" d="M328.6,358v-2.6h1.1v2.6h2.3v1h-2.3v4.8c0,0.3,0.1,0.4,0.4,0.4h1.5v1h-1.9c-0.7,0-1.1-0.4-1.1-1.1V359h-2.2v-1
		H328.6z"/>
	<path class="st5" d="M335.3,354.9v4.4h0.2c0.4-0.7,1.1-1.4,2.5-1.4c1.5,0,2.9,1,2.9,3v4.4h-1.1V361c0-1.4-0.8-2.1-2-2.1
		c-1.4,0-2.4,0.9-2.4,2.6v3.7h-1.1v-10.4L335.3,354.9L335.3,354.9z"/>
	<path class="st5" d="M346.7,357.8c2.1,0,3.5,1.5,3.5,3.6v0.6h-5.9c0.1,1.5,1.1,2.4,2.5,2.4c1.2,0,1.8-0.6,2.2-1.4l1,0.5
		c-0.5,0.9-1.4,1.9-3.2,1.9c-2.3,0-3.7-1.7-3.7-3.9C343.1,359.4,344.6,357.8,346.7,357.8z M349,361.1c0-1.4-0.9-2.3-2.3-2.3
		s-2.3,0.8-2.4,2.3H349z"/>
	<path class="st5" d="M353.1,354.8c0.5,0,1,0.4,1,1s-0.4,1-1,1s-1-0.4-1-1S352.5,354.8,353.1,354.8z M353.6,365.2h-1.1V358h1.1
		V365.2z"/>
	<path class="st5" d="M357.5,359.1h0.2c0.3-0.7,0.8-1.1,1.9-1.1h0.9v1.1h-1.2c-1.1,0-1.7,0.6-1.7,1.8v4.4h-1.1V358h1.1L357.5,359.1
		L357.5,359.1z"/>
	<path class="st5" d="M371,357.8c2,0,3.1,1.1,3.1,2.9v4.6H373V364h-0.2c-0.4,0.7-1.2,1.4-2.7,1.4c-1.6,0-2.7-0.8-2.7-2.1
		c0-1.3,1.1-2,2.8-2.1l2.9-0.3v-0.3c0-1.1-0.7-1.8-2-1.8s-2.1,0.7-2.5,1.6l-1-0.5C368,358.9,369.2,357.8,371,357.8z M370.2,364.5
		c1.7,0,2.8-1,2.8-2.5v-0.1l-2.7,0.3c-1,0.1-1.8,0.4-1.8,1.2C368.5,364.1,369.2,364.5,370.2,364.5z"/>
	<path class="st5" d="M377.9,359.1h0.2c0.3-0.7,0.8-1.1,1.9-1.1h0.9v1.1h-1.2c-1.1,0-1.7,0.6-1.7,1.8v4.4h-1.1V358h1.1L377.9,359.1
		L377.9,359.1z"/>
	<path class="st5" d="M389.4,358v7c0,2-1.3,3.4-3.5,3.4c-1.9,0-3-0.9-3.7-2l1-0.6c0.4,0.8,1.3,1.6,2.6,1.6c1.4,0,2.5-0.8,2.5-2.5
		v-1.1h-0.2c-0.4,0.7-1.1,1.5-2.6,1.5c-1.9,0-3.4-1.5-3.4-3.7s1.5-3.7,3.4-3.7c1.5,0,2.2,0.7,2.6,1.5h0.2V358H389.4z M388.3,361.5
		c0-1.7-1-2.7-2.5-2.7s-2.5,1-2.5,2.7s1.1,2.7,2.5,2.7C387.2,364.3,388.3,363.2,388.3,361.5z"/>
	<path class="st5" d="M397.7,365.2v-1.3h-0.2c-0.4,0.7-1.1,1.4-2.5,1.4c-1.5,0-2.8-1-2.8-3V358h1.1v4.3c0,1.4,0.8,2.1,2,2.1
		c1.4,0,2.4-0.9,2.4-2.6V358h1.1v7.2H397.7z"/>
	<path class="st5" d="M402.7,358v1h0.2c0.4-0.7,1.1-1.1,2-1.1c1.1,0,1.7,0.5,2.1,1.3h0.2c0.4-0.7,1.1-1.3,2.2-1.3
		c1.4,0,2.5,0.9,2.5,2.4v5h-1.1v-4.9c0-0.9-0.7-1.5-1.6-1.5c-1,0-1.8,0.7-1.8,1.9v4.5h-1.1v-4.9c0-0.9-0.6-1.5-1.6-1.5
		s-1.8,0.7-1.8,1.9v4.5h-1.1V358H402.7z"/>
	<path class="st5" d="M417.8,357.8c2.1,0,3.5,1.5,3.5,3.6v0.6h-5.9c0.1,1.5,1.1,2.4,2.5,2.4c1.2,0,1.8-0.6,2.2-1.4l1,0.5
		c-0.5,0.9-1.4,1.9-3.2,1.9c-2.3,0-3.7-1.7-3.7-3.9C414.2,359.4,415.7,357.8,417.8,357.8z M420.1,361.1c0-1.4-0.9-2.3-2.3-2.3
		s-2.3,0.8-2.4,2.3H420.1z"/>
	<path class="st5" d="M424.6,358v1.3h0.2c0.4-0.7,1.1-1.4,2.5-1.4c1.5,0,2.9,1,2.9,3v4.4h-1.1V361c0-1.4-0.8-2.1-2-2.1
		c-1.4,0-2.4,0.9-2.4,2.6v3.7h-1.1V358H424.6z"/>
	<path class="st5" d="M434.1,358v-2.6h1.1v2.6h2.3v1h-2.3v4.8c0,0.3,0.1,0.4,0.4,0.4h1.5v1h-1.9c-0.7,0-1.1-0.4-1.1-1.1V359h-2.2v-1
		H434.1z"/>
	<path class="st5" d="M442.3,357.8c1.5,0,2.5,0.6,3.6,1.9l-0.9,0.6c-0.8-1.1-1.7-1.5-2.7-1.5c-0.9,0-1.6,0.4-1.6,1.1
		c0,0.8,0.8,0.9,1.7,1.1l0.7,0.1c1.7,0.3,2.9,0.7,2.9,2.1s-1.3,2.3-3.2,2.3c-2,0-3.2-1.2-3.7-2.4l1-0.5c0.5,1.2,1.5,1.9,2.8,1.9
		c1.2,0,2-0.5,2-1.3s-0.9-0.9-1.9-1.1l-0.7-0.1c-1.6-0.2-2.7-0.7-2.7-2.1C439.6,358.6,440.8,357.8,442.3,357.8z"/>
</g>
<line class="st0" x1="670.1" y1="169" x2="670.1" y2="216"/>
<g>
	<g>
		<path class="st7" d="M687.4,178.6c1.8,0,3.1,1,3.1,2.8c0,1.2-0.7,2-1.7,2.3v0.2c1,0.3,1.7,1.1,1.7,2.3c0,1.7-1.3,2.8-3.1,2.8h-4.5
			v-10.4L687.4,178.6L687.4,178.6z M684.6,183h2.6c0.9,0,1.6-0.5,1.6-1.4s-0.6-1.4-1.6-1.4h-2.6V183z M684.6,187.4h2.6
			c0.9,0,1.6-0.5,1.6-1.4s-0.6-1.4-1.6-1.4h-2.7v2.8H684.6z"/>
		<path class="st7" d="M699.3,178.6v1.6h-5v2.8h4.6v1.6h-4.6v2.9h5.1v1.6h-6.8v-10.4h6.7V178.6z"/>
		<path class="st7" d="M706.5,178.6l3.1,10.4h-1.8l-0.7-2.4h-3.9l-0.7,2.4h-1.8l3.1-10.4H706.5z M706.6,185l-1.4-4.9H705l-1.4,4.9
			H706.6z"/>
		<path class="st7" d="M712.8,178.6v6.8c0,1.4,0.8,2.2,2.3,2.2s2.3-0.8,2.3-2.2v-6.8h1.7v6.8c0,2.4-1.4,3.8-4,3.8
			c-2.5,0-4-1.4-4-3.8v-6.8H712.8z"/>
		<path class="st7" d="M728.9,178.6v1.6h-3.2v8.8H724v-8.8h-3.2v-1.6H728.9z"/>
		<path class="st7" d="M732.4,178.6V189h-1.7v-10.4H732.4z"/>
		<path class="st7" d="M741.5,178.6v1.6h-4.8v2.8h4.5v1.6h-4.5v4.4H735v-10.4L741.5,178.6L741.5,178.6z"/>
		<path class="st7" d="M745,178.6v6.8c0,1.4,0.8,2.2,2.3,2.2s2.3-0.8,2.3-2.2v-6.8h1.7v6.8c0,2.4-1.4,3.8-4,3.8c-2.5,0-4-1.4-4-3.8
			v-6.8H745z"/>
		<path class="st7" d="M755.4,178.6v8.8h4.9v1.6h-6.7v-10.4L755.4,178.6L755.4,178.6z"/>
		<path class="st7" d="M690.2,199.4v0.5h-1.7v-0.3c0-1.3-0.8-1.9-2.1-1.9c-1.1,0-1.8,0.6-1.8,1.4c0,1,0.8,1.2,2.1,1.5l0.4,0.1
			c2,0.4,3.2,1.2,3.2,3.1c0,2-1.6,3.2-3.8,3.2c-2.5,0-4.1-1.4-4.1-3.8v-0.4h1.7v0.3c0,1.5,0.8,2.3,2.5,2.3c1.3,0,2-0.7,2-1.6
			c0-0.9-0.7-1.3-2.1-1.6l-0.4-0.1c-2-0.4-3.3-1.2-3.3-3.1c0-1.8,1.6-2.9,3.5-2.9C688.6,196.2,690.2,197.3,690.2,199.4z"/>
		<path class="st7" d="M696.2,196.2c2.6,0,4.1,1.6,4.1,4.3v2.3c0,2.7-1.6,4.3-4.1,4.3c-2.6,0-4.1-1.6-4.1-4.3v-2.3
			C692.1,197.8,693.7,196.2,696.2,196.2z M693.8,202.7c0,1.7,0.8,2.7,2.4,2.7c1.7,0,2.4-1,2.4-2.7v-2.4c0-1.7-0.8-2.7-2.4-2.7
			c-1.6,0-2.4,1-2.4,2.7V202.7z"/>
		<path class="st7" d="M704.2,196.4v6.8c0,1.4,0.8,2.2,2.3,2.2s2.3-0.8,2.3-2.2v-6.8h1.7v6.8c0,2.4-1.4,3.8-4,3.8
			c-2.5,0-4-1.4-4-3.8v-6.8H704.2z"/>
		<path class="st7" d="M717,196.4c1.9,0,3.3,1.3,3.3,3.2s-1.4,3.2-3.3,3.2h-2.4v4h-1.7v-10.4H717z M714.6,201.2h2.3
			c1.1,0,1.7-0.6,1.7-1.6s-0.6-1.6-1.7-1.6h-2.3V201.2z"/>
	</g>
	<g>
		<path class="st8" d="M687.4,178.6c1.8,0,3.1,1,3.1,2.8c0,1.2-0.7,2-1.7,2.3v0.2c1,0.3,1.7,1.1,1.7,2.3c0,1.7-1.3,2.8-3.1,2.8h-4.5
			v-10.4L687.4,178.6L687.4,178.6z M684.6,183h2.6c0.9,0,1.6-0.5,1.6-1.4s-0.6-1.4-1.6-1.4h-2.6V183z M684.6,187.4h2.6
			c0.9,0,1.6-0.5,1.6-1.4s-0.6-1.4-1.6-1.4h-2.7v2.8H684.6z"/>
		<path class="st8" d="M699.3,178.6v1.6h-5v2.8h4.6v1.6h-4.6v2.9h5.1v1.6h-6.8v-10.4h6.7V178.6z"/>
		<path class="st8" d="M706.5,178.6l3.1,10.4h-1.8l-0.7-2.4h-3.9l-0.7,2.4h-1.8l3.1-10.4H706.5z M706.6,185l-1.4-4.9H705l-1.4,4.9
			H706.6z"/>
		<path class="st8" d="M712.8,178.6v6.8c0,1.4,0.8,2.2,2.3,2.2s2.3-0.8,2.3-2.2v-6.8h1.7v6.8c0,2.4-1.4,3.8-4,3.8
			c-2.5,0-4-1.4-4-3.8v-6.8H712.8z"/>
		<path class="st8" d="M728.9,178.6v1.6h-3.2v8.8H724v-8.8h-3.2v-1.6H728.9z"/>
		<path class="st8" d="M732.4,178.6V189h-1.7v-10.4H732.4z"/>
		<path class="st8" d="M741.5,178.6v1.6h-4.8v2.8h4.5v1.6h-4.5v4.4H735v-10.4L741.5,178.6L741.5,178.6z"/>
		<path class="st8" d="M745,178.6v6.8c0,1.4,0.8,2.2,2.3,2.2s2.3-0.8,2.3-2.2v-6.8h1.7v6.8c0,2.4-1.4,3.8-4,3.8c-2.5,0-4-1.4-4-3.8
			v-6.8H745z"/>
		<path class="st8" d="M755.4,178.6v8.8h4.9v1.6h-6.7v-10.4L755.4,178.6L755.4,178.6z"/>
		<path class="st8" d="M690.2,199.4v0.5h-1.7v-0.3c0-1.3-0.8-1.9-2.1-1.9c-1.1,0-1.8,0.6-1.8,1.4c0,1,0.8,1.2,2.1,1.5l0.4,0.1
			c2,0.4,3.2,1.2,3.2,3.1c0,2-1.6,3.2-3.8,3.2c-2.5,0-4.1-1.4-4.1-3.8v-0.4h1.7v0.3c0,1.5,0.8,2.3,2.5,2.3c1.3,0,2-0.7,2-1.6
			c0-0.9-0.7-1.3-2.1-1.6l-0.4-0.1c-2-0.4-3.3-1.2-3.3-3.1c0-1.8,1.6-2.9,3.5-2.9C688.6,196.2,690.2,197.3,690.2,199.4z"/>
		<path class="st8" d="M696.2,196.2c2.6,0,4.1,1.6,4.1,4.3v2.3c0,2.7-1.6,4.3-4.1,4.3c-2.6,0-4.1-1.6-4.1-4.3v-2.3
			C692.1,197.8,693.7,196.2,696.2,196.2z M693.8,202.7c0,1.7,0.8,2.7,2.4,2.7c1.7,0,2.4-1,2.4-2.7v-2.4c0-1.7-0.8-2.7-2.4-2.7
			c-1.6,0-2.4,1-2.4,2.7V202.7z"/>
		<path class="st8" d="M704.2,196.4v6.8c0,1.4,0.8,2.2,2.3,2.2s2.3-0.8,2.3-2.2v-6.8h1.7v6.8c0,2.4-1.4,3.8-4,3.8
			c-2.5,0-4-1.4-4-3.8v-6.8H704.2z"/>
		<path class="st8" d="M717,196.4c1.9,0,3.3,1.3,3.3,3.2s-1.4,3.2-3.3,3.2h-2.4v4h-1.7v-10.4H717z M714.6,201.2h2.3
			c1.1,0,1.7-0.6,1.7-1.6s-0.6-1.6-1.7-1.6h-2.3V201.2z"/>
	</g>
</g>
<g>
	<g>
		<path class="st7" d="M688,261l2.4,8.6h0.2l2.4-8.6h3v10.4h-1.7v-8.5h-0.2l-2.4,8.5h-2.5l-2.4-8.5h-0.2v8.5H685V261H688z"/>
		<path class="st7" d="M703.6,261l3.1,10.4h-1.8l-0.7-2.4h-3.9l-0.7,2.4h-1.8l3.1-10.4H703.6z M703.7,267.4l-1.4-4.9h-0.2l-1.4,4.9
			H703.7z"/>
		<path class="st7" d="M711.4,261l2.8,8.8h0.2V261h1.7v10.4H713l-2.8-8.8H710v8.8h-1.7V261H711.4z"/>
		<path class="st7" d="M720.3,261v6.8c0,1.4,0.8,2.2,2.3,2.2s2.3-0.8,2.3-2.2V261h1.7v6.8c0,2.4-1.4,3.8-4,3.8c-2.5,0-4-1.4-4-3.8
			V261H720.3z"/>
		<path class="st7" d="M733.9,261l3.1,10.4h-1.8l-0.7-2.4h-3.9l-0.7,2.4h-1.8l3.1-10.4H733.9z M734,267.4l-1.4-4.9h-0.2l-1.4,4.9
			H734z"/>
		<path class="st7" d="M740.3,261v8.8h4.9v1.6h-6.7V261H740.3z"/>
		<path class="st7" d="M690,278.8l3.1,10.4h-1.8l-0.7-2.4h-3.9l-0.7,2.4h-1.8l3.1-10.4H690z M690.1,285.2l-1.4-4.9h-0.2l-1.4,4.9
			H690.1z"/>
		<path class="st7" d="M697.8,278.8l2.8,8.8h0.2v-8.8h1.7v10.4h-3.1l-2.8-8.8h-0.2v8.8h-1.7v-10.4H697.8z"/>
		<path class="st7" d="M710.1,278.8l3.1,10.4h-1.8l-0.7-2.4h-3.9l-0.7,2.4h-1.8l3.1-10.4H710.1z M710.2,285.2l-1.4-4.9h-0.2
			l-1.4,4.9H710.2z"/>
		<path class="st7" d="M716.5,278.8v8.8h4.9v1.6h-6.7v-10.4H716.5z"/>
		<path class="st7" d="M722.2,278.8l2.4,4.6h0.2l2.4-4.6h2l-3.6,6.7v3.7h-1.7v-3.7l-3.6-6.7H722.2z"/>
		<path class="st7" d="M737.6,281.9v0.5h-1.7V282c0-1.3-0.8-1.9-2.1-1.9c-1.1,0-1.8,0.6-1.8,1.4c0,1,0.8,1.2,2.1,1.5l0.4,0.1
			c2,0.4,3.2,1.2,3.2,3.1c0,2-1.6,3.2-3.8,3.2c-2.5,0-4.1-1.4-4.1-3.8v-0.4h1.7v0.3c0,1.5,0.8,2.3,2.5,2.3c1.3,0,2-0.7,2-1.6
			s-0.7-1.3-2.1-1.6l-0.4-0.1c-2-0.4-3.3-1.2-3.3-3.1c0-1.8,1.6-2.9,3.5-2.9C736,278.6,737.6,279.8,737.6,281.9z"/>
		<path class="st7" d="M741.6,278.8v10.4h-1.7v-10.4H741.6z"/>
		<path class="st7" d="M751.4,281.9v0.5h-1.7V282c0-1.3-0.8-1.9-2.1-1.9c-1.1,0-1.8,0.6-1.8,1.4c0,1,0.8,1.2,2.1,1.5l0.4,0.1
			c2,0.4,3.2,1.2,3.2,3.1c0,2-1.6,3.2-3.8,3.2c-2.5,0-4.1-1.4-4.1-3.8v-0.4h1.7v0.3c0,1.5,0.8,2.3,2.5,2.3c1.3,0,2-0.7,2-1.6
			s-0.7-1.3-2.1-1.6l-0.4-0.1c-2-0.4-3.3-1.2-3.3-3.1c0-1.8,1.6-2.9,3.5-2.9C749.7,278.6,751.4,279.8,751.4,281.9z"/>
	</g>
	<g>
		<path class="st8" d="M688,261l2.4,8.6h0.2l2.4-8.6h3v10.4h-1.7v-8.5h-0.2l-2.4,8.5h-2.5l-2.4-8.5h-0.2v8.5H685V261H688z"/>
		<path class="st8" d="M703.6,261l3.1,10.4h-1.8l-0.7-2.4h-3.9l-0.7,2.4h-1.8l3.1-10.4H703.6z M703.7,267.4l-1.4-4.9h-0.2l-1.4,4.9
			H703.7z"/>
		<path class="st8" d="M711.4,261l2.8,8.8h0.2V261h1.7v10.4H713l-2.8-8.8H710v8.8h-1.7V261H711.4z"/>
		<path class="st8" d="M720.3,261v6.8c0,1.4,0.8,2.2,2.3,2.2s2.3-0.8,2.3-2.2V261h1.7v6.8c0,2.4-1.4,3.8-4,3.8c-2.5,0-4-1.4-4-3.8
			V261H720.3z"/>
		<path class="st8" d="M733.9,261l3.1,10.4h-1.8l-0.7-2.4h-3.9l-0.7,2.4h-1.8l3.1-10.4H733.9z M734,267.4l-1.4-4.9h-0.2l-1.4,4.9
			H734z"/>
		<path class="st8" d="M740.3,261v8.8h4.9v1.6h-6.7V261H740.3z"/>
		<path class="st8" d="M690,278.8l3.1,10.4h-1.8l-0.7-2.4h-3.9l-0.7,2.4h-1.8l3.1-10.4H690z M690.1,285.2l-1.4-4.9h-0.2l-1.4,4.9
			H690.1z"/>
		<path class="st8" d="M697.8,278.8l2.8,8.8h0.2v-8.8h1.7v10.4h-3.1l-2.8-8.8h-0.2v8.8h-1.7v-10.4H697.8z"/>
		<path class="st8" d="M710.1,278.8l3.1,10.4h-1.8l-0.7-2.4h-3.9l-0.7,2.4h-1.8l3.1-10.4H710.1z M710.2,285.2l-1.4-4.9h-0.2
			l-1.4,4.9H710.2z"/>
		<path class="st8" d="M716.5,278.8v8.8h4.9v1.6h-6.7v-10.4H716.5z"/>
		<path class="st8" d="M722.2,278.8l2.4,4.6h0.2l2.4-4.6h2l-3.6,6.7v3.7h-1.7v-3.7l-3.6-6.7H722.2z"/>
		<path class="st8" d="M737.6,281.9v0.5h-1.7V282c0-1.3-0.8-1.9-2.1-1.9c-1.1,0-1.8,0.6-1.8,1.4c0,1,0.8,1.2,2.1,1.5l0.4,0.1
			c2,0.4,3.2,1.2,3.2,3.1c0,2-1.6,3.2-3.8,3.2c-2.5,0-4.1-1.4-4.1-3.8v-0.4h1.7v0.3c0,1.5,0.8,2.3,2.5,2.3c1.3,0,2-0.7,2-1.6
			s-0.7-1.3-2.1-1.6l-0.4-0.1c-2-0.4-3.3-1.2-3.3-3.1c0-1.8,1.6-2.9,3.5-2.9C736,278.6,737.6,279.8,737.6,281.9z"/>
		<path class="st8" d="M741.6,278.8v10.4h-1.7v-10.4H741.6z"/>
		<path class="st8" d="M751.4,281.9v0.5h-1.7V282c0-1.3-0.8-1.9-2.1-1.9c-1.1,0-1.8,0.6-1.8,1.4c0,1,0.8,1.2,2.1,1.5l0.4,0.1
			c2,0.4,3.2,1.2,3.2,3.1c0,2-1.6,3.2-3.8,3.2c-2.5,0-4.1-1.4-4.1-3.8v-0.4h1.7v0.3c0,1.5,0.8,2.3,2.5,2.3c1.3,0,2-0.7,2-1.6
			s-0.7-1.3-2.1-1.6l-0.4-0.1c-2-0.4-3.3-1.2-3.3-3.1c0-1.8,1.6-2.9,3.5-2.9C749.7,278.6,751.4,279.8,751.4,281.9z"/>
	</g>
</g>
<line class="st0" x1="670.1" y1="409.2" x2="670.1" y2="456.2"/>
<g>
	<g>
		<path class="st7" d="M682.6,420.3c0-2.6,1.6-4.2,4.2-4.2c2.5,0,4,1.5,4,3.8v0.1H689v-0.1c0-1.4-0.7-2.3-2.2-2.3
			c-1.6,0-2.5,1-2.5,2.6v2.5c0,1.6,0.9,2.6,2.5,2.6s2.2-0.9,2.2-2.2V423h-2.7v-1.5h4.4v1.6c0,2.4-1.4,3.8-4,3.8
			c-2.5,0-4.2-1.5-4.2-4.2L682.6,420.3L682.6,420.3z"/>
		<path class="st7" d="M699.6,416.2v1.6h-5v2.8h4.6v1.6h-4.6v2.9h5.1v1.6h-6.8v-10.4h6.7V416.2z"/>
		<path class="st7" d="M705.9,416.2c1.9,0,3.3,1.3,3.3,3.2c0,1.9-1.4,3.2-3.3,3.2h-2.4v4h-1.7v-10.4L705.9,416.2L705.9,416.2z
			 M703.5,421.1h2.3c1.1,0,1.7-0.6,1.7-1.6s-0.6-1.6-1.7-1.6h-2.3V421.1z"/>
		<path class="st7" d="M712.7,416.2v4.4h4.2v-4.4h1.7v10.4h-1.7v-4.4h-4.2v4.4H711v-10.4H712.7z"/>
		<path class="st7" d="M722.9,416.2v10.4h-1.7v-10.4H722.9z"/>
		<path class="st7" d="M684,438.8v-0.2c-0.4-0.6-0.7-1.2-0.7-1.9v-0.1c0-1.7,1.3-2.8,3.1-2.8c1.9,0,3.1,1.2,3.1,2.9v0.3h-1.7v-0.3
			c0-0.8-0.5-1.4-1.4-1.4s-1.4,0.5-1.4,1.2v0.1c0,0.8,0.6,1.4,1.7,2.4l1.7,1.7h0.3l1.4-2.4h1.8l-2.1,3.6v0.3l2.2,2.2h-2.2l-0.9-0.9
			h-0.2c-0.7,0.7-1.5,1.2-2.7,1.2c-2.1,0-3.4-1.4-3.4-3.2C682.5,440.3,683.2,439.4,684,438.8z M686,443c0.7,0,1.2-0.3,1.5-0.6v-0.2
			l-2.3-2.3H685c-0.5,0.3-0.8,0.8-0.8,1.4v0.1C684.3,442.2,684.9,443,686,443z"/>
		<path class="st7" d="M700.3,434v10.4h-1.7V434H700.3z"/>
		<path class="st7" d="M704.6,434v8.8h4.9v1.6h-6.7V434H704.6z"/>
		<path class="st7" d="M713,434v8.8h4.9v1.6h-6.7V434H713z"/>
		<path class="st7" d="M721.5,434v6.8c0,1.4,0.8,2.2,2.3,2.2s2.3-0.8,2.3-2.2V434h1.7v6.8c0,2.4-1.4,3.8-4,3.8c-2.5,0-4-1.4-4-3.8
			V434H721.5z"/>
		<path class="st7" d="M737.4,437.1v0.5h-1.7v-0.3c0-1.3-0.8-1.9-2.1-1.9c-1.1,0-1.8,0.6-1.8,1.4c0,1,0.8,1.2,2.1,1.5l0.4,0.1
			c2,0.4,3.2,1.2,3.2,3.1c0,2-1.6,3.2-3.8,3.2c-2.5,0-4.1-1.4-4.1-3.8v-0.4h1.7v0.3c0,1.5,0.8,2.3,2.5,2.3c1.3,0,2-0.7,2-1.6
			s-0.7-1.3-2.1-1.6l-0.4-0.1c-2-0.4-3.3-1.2-3.3-3.1c0-1.8,1.6-2.9,3.5-2.9C735.8,433.8,737.4,435,737.4,437.1z"/>
		<path class="st7" d="M747,434v1.6h-3.2v8.8h-1.7v-8.8h-3.2V434H747z"/>
		<path class="st7" d="M754.1,440.2l2.2,4.1h-1.9l-2.1-4h-1.9v4h-1.7V434h4.4c1.9,0,3.3,1.3,3.3,3.2
			C756.5,438.8,755.5,439.9,754.1,440.2z M750.5,438.8h2.5c1.1,0,1.7-0.6,1.7-1.6s-0.6-1.6-1.7-1.6h-2.5V438.8z"/>
		<path class="st7" d="M763.4,434l3.1,10.4h-1.8L764,442h-3.9l-0.7,2.4h-1.8l3.1-10.4H763.4z M763.6,440.4l-1.4-4.9H762l-1.4,4.9
			H763.6z"/>
		<path class="st7" d="M774.8,434v1.6h-3.2v8.8h-1.7v-8.8h-3.2V434H774.8z"/>
		<path class="st7" d="M780.1,433.8c2.6,0,4.1,1.6,4.1,4.3v2.3c0,2.7-1.6,4.3-4.1,4.3c-2.6,0-4.1-1.6-4.1-4.3v-2.3
			C775.9,435.4,777.5,433.8,780.1,433.8z M777.6,440.4c0,1.7,0.8,2.7,2.4,2.7c1.7,0,2.4-1,2.4-2.7V438c0-1.7-0.8-2.7-2.4-2.7
			c-1.6,0-2.4,1-2.4,2.7V440.4z"/>
		<path class="st7" d="M791.7,440.2l2.2,4.1H792l-2.1-4H788v4h-1.7V434h4.4c1.9,0,3.3,1.3,3.3,3.2
			C794.1,438.8,793.1,439.9,791.7,440.2z M788.1,438.8h2.5c1.1,0,1.7-0.6,1.7-1.6s-0.6-1.6-1.7-1.6h-2.5V438.8z"/>
	</g>
	<g>
		<path class="st8" d="M682.6,420.3c0-2.6,1.6-4.2,4.2-4.2c2.5,0,4,1.5,4,3.8v0.1H689v-0.1c0-1.4-0.7-2.3-2.2-2.3
			c-1.6,0-2.5,1-2.5,2.6v2.5c0,1.6,0.9,2.6,2.5,2.6s2.2-0.9,2.2-2.2V423h-2.7v-1.5h4.4v1.6c0,2.4-1.4,3.8-4,3.8
			c-2.5,0-4.2-1.5-4.2-4.2L682.6,420.3L682.6,420.3z"/>
		<path class="st8" d="M699.6,416.2v1.6h-5v2.8h4.6v1.6h-4.6v2.9h5.1v1.6h-6.8v-10.4h6.7V416.2z"/>
		<path class="st8" d="M705.9,416.2c1.9,0,3.3,1.3,3.3,3.2c0,1.9-1.4,3.2-3.3,3.2h-2.4v4h-1.7v-10.4L705.9,416.2L705.9,416.2z
			 M703.5,421.1h2.3c1.1,0,1.7-0.6,1.7-1.6s-0.6-1.6-1.7-1.6h-2.3V421.1z"/>
		<path class="st8" d="M712.7,416.2v4.4h4.2v-4.4h1.7v10.4h-1.7v-4.4h-4.2v4.4H711v-10.4H712.7z"/>
		<path class="st8" d="M722.9,416.2v10.4h-1.7v-10.4H722.9z"/>
		<path class="st8" d="M684,438.8v-0.2c-0.4-0.6-0.7-1.2-0.7-1.9v-0.1c0-1.7,1.3-2.8,3.1-2.8c1.9,0,3.1,1.2,3.1,2.9v0.3h-1.7v-0.3
			c0-0.8-0.5-1.4-1.4-1.4s-1.4,0.5-1.4,1.2v0.1c0,0.8,0.6,1.4,1.7,2.4l1.7,1.7h0.3l1.4-2.4h1.8l-2.1,3.6v0.3l2.2,2.2h-2.2l-0.9-0.9
			h-0.2c-0.7,0.7-1.5,1.2-2.7,1.2c-2.1,0-3.4-1.4-3.4-3.2C682.5,440.3,683.2,439.4,684,438.8z M686,443c0.7,0,1.2-0.3,1.5-0.6v-0.2
			l-2.3-2.3H685c-0.5,0.3-0.8,0.8-0.8,1.4v0.1C684.3,442.2,684.9,443,686,443z"/>
		<path class="st8" d="M700.3,434v10.4h-1.7V434H700.3z"/>
		<path class="st8" d="M704.6,434v8.8h4.9v1.6h-6.7V434H704.6z"/>
		<path class="st8" d="M713,434v8.8h4.9v1.6h-6.7V434H713z"/>
		<path class="st8" d="M721.5,434v6.8c0,1.4,0.8,2.2,2.3,2.2s2.3-0.8,2.3-2.2V434h1.7v6.8c0,2.4-1.4,3.8-4,3.8c-2.5,0-4-1.4-4-3.8
			V434H721.5z"/>
		<path class="st8" d="M737.4,437.1v0.5h-1.7v-0.3c0-1.3-0.8-1.9-2.1-1.9c-1.1,0-1.8,0.6-1.8,1.4c0,1,0.8,1.2,2.1,1.5l0.4,0.1
			c2,0.4,3.2,1.2,3.2,3.1c0,2-1.6,3.2-3.8,3.2c-2.5,0-4.1-1.4-4.1-3.8v-0.4h1.7v0.3c0,1.5,0.8,2.3,2.5,2.3c1.3,0,2-0.7,2-1.6
			s-0.7-1.3-2.1-1.6l-0.4-0.1c-2-0.4-3.3-1.2-3.3-3.1c0-1.8,1.6-2.9,3.5-2.9C735.8,433.8,737.4,435,737.4,437.1z"/>
		<path class="st8" d="M747,434v1.6h-3.2v8.8h-1.7v-8.8h-3.2V434H747z"/>
		<path class="st8" d="M754.1,440.2l2.2,4.1h-1.9l-2.1-4h-1.9v4h-1.7V434h4.4c1.9,0,3.3,1.3,3.3,3.2
			C756.5,438.8,755.5,439.9,754.1,440.2z M750.5,438.8h2.5c1.1,0,1.7-0.6,1.7-1.6s-0.6-1.6-1.7-1.6h-2.5V438.8z"/>
		<path class="st8" d="M763.4,434l3.1,10.4h-1.8L764,442h-3.9l-0.7,2.4h-1.8l3.1-10.4H763.4z M763.6,440.4l-1.4-4.9H762l-1.4,4.9
			H763.6z"/>
		<path class="st8" d="M774.8,434v1.6h-3.2v8.8h-1.7v-8.8h-3.2V434H774.8z"/>
		<path class="st8" d="M780.1,433.8c2.6,0,4.1,1.6,4.1,4.3v2.3c0,2.7-1.6,4.3-4.1,4.3c-2.6,0-4.1-1.6-4.1-4.3v-2.3
			C775.9,435.4,777.5,433.8,780.1,433.8z M777.6,440.4c0,1.7,0.8,2.7,2.4,2.7c1.7,0,2.4-1,2.4-2.7V438c0-1.7-0.8-2.7-2.4-2.7
			c-1.6,0-2.4,1-2.4,2.7V440.4z"/>
		<path class="st8" d="M791.7,440.2l2.2,4.1H792l-2.1-4H788v4h-1.7V434h4.4c1.9,0,3.3,1.3,3.3,3.2
			C794.1,438.8,793.1,439.9,791.7,440.2z M788.1,438.8h2.5c1.1,0,1.7-0.6,1.7-1.6s-0.6-1.6-1.7-1.6h-2.5V438.8z"/>
	</g>
</g>
<rect y="399.6" class="st1" width="657.4" height="65.3"/>
<rect x="11.3" y="411.3" class="st2" width="107.2" height="22.1"/>
<g>
	<path class="st3" d="M19.8,418.8l2.1,7.5H22l2.1-7.5h1.6l-2.6,8.9h-2.3l-2.6-8.9H19.8z"/>
	<path class="st3" d="M28.7,418.8v8.9h-1.5v-8.9H28.7z"/>
	<path class="st3" d="M37,421.4v0.4h-1.5v-0.3c0-1.1-0.7-1.6-1.8-1.6c-1,0-1.6,0.5-1.6,1.2c0,0.8,0.6,1.1,1.8,1.3l0.3,0.1
		c1.7,0.4,2.8,1.1,2.8,2.6c0,1.7-1.4,2.8-3.2,2.8c-2.2,0-3.6-1.3-3.6-3.3v-0.3h1.5v0.3c0,1.3,0.7,2,2.1,2c1.2,0,1.7-0.6,1.7-1.4
		s-0.6-1.2-1.8-1.4l-0.3-0.1c-1.7-0.4-2.9-1-2.9-2.6s1.4-2.5,3.1-2.5C35.6,418.5,37,419.6,37,421.4z"/>
	<path class="st3" d="M40.4,418.8v5.8c0,1.2,0.6,1.9,1.9,1.9c1.3,0,1.9-0.6,1.9-1.9v-5.8h1.5v5.8c0,2-1.3,3.3-3.4,3.3
		c-2.1,0-3.4-1.2-3.4-3.3v-5.8H40.4z"/>
	<path class="st3" d="M52.1,418.8l2.6,8.9h-1.6l-0.6-2h-3.4l-0.6,2h-1.6l2.6-8.9H52.1z M52.2,424.3l-1.3-4.2h-0.1l-1.3,4.2H52.2z"/>
	<path class="st3" d="M57.6,418.8v7.5h4.2v1.4h-5.7v-8.9H57.6z"/>
	<path class="st3" d="M64.9,418.8v8.9h-1.5v-8.9H64.9z"/>
	<path class="st3" d="M72.9,418.8v1.3l-4.6,6.2h4.6v1.4h-6.4v-1.3l4.6-6.2h-4.3v-1.4H72.9z"/>
	<path class="st3" d="M79.1,418.8l2.6,8.9h-1.6l-0.6-2h-3.4l-0.6,2h-1.6l2.6-8.9H79.1z M79.2,424.3l-1.3-4.2h-0.1l-1.3,4.2H79.2z"/>
	<path class="st3" d="M88.8,418.8v1.4H86v7.5h-1.5v-7.5h-2.8v-1.4H88.8z"/>
	<path class="st3" d="M91.8,418.8v8.9h-1.5v-8.9H91.8z"/>
	<path class="st3" d="M97.2,418.5c2.2,0,3.6,1.4,3.6,3.7v1.9c0,2.3-1.4,3.7-3.6,3.7s-3.6-1.4-3.6-3.7v-1.9
		C93.6,419.9,94.9,418.5,97.2,418.5z M95,424.3c0,1.4,0.6,2.2,2.1,2.2s2.1-0.8,2.1-2.2v-2c0-1.4-0.7-2.2-2.1-2.2s-2.1,0.8-2.1,2.2
		V424.3z"/>
	<path class="st3" d="M105.2,418.8l2.4,7.5h0.1v-7.5h1.5v8.9h-2.6l-2.4-7.5H104v7.5h-1.5v-8.9H105.2z"/>
</g>
<rect x="266.9" y="412.7" class="st6" width="227.4" height="40"/>
<g>
	<path class="st5" d="M285.8,421.6c2,0,3.1,1.1,3.1,2.9v4.6h-1.1v-1.2h-0.2c-0.4,0.7-1.2,1.4-2.7,1.4c-1.6,0-2.7-0.8-2.7-2.1
		c0-1.3,1.1-2,2.8-2.1l2.9-0.3v-0.3c0-1.1-0.7-1.8-2-1.8s-2.1,0.7-2.5,1.6l-1-0.5C282.8,422.7,284,421.6,285.8,421.6z M285,428.3
		c1.7,0,2.8-1,2.8-2.5v-0.1l-2.7,0.3c-1,0.1-1.8,0.4-1.8,1.2C283.3,427.9,284,428.3,285,428.3z"/>
	<path class="st5" d="M292.7,422.9h0.2c0.3-0.7,0.8-1.1,1.9-1.1h0.9v1.1h-1.2c-1.1,0-1.7,0.6-1.7,1.8v4.4h-1.1v-7.2h1.1L292.7,422.9
		L292.7,422.9z"/>
	<path class="st5" d="M304.2,421.8v7c0,2-1.3,3.4-3.5,3.4c-1.9,0-3-0.9-3.7-2l1-0.6c0.4,0.8,1.3,1.6,2.6,1.6c1.4,0,2.5-0.8,2.5-2.5
		v-1.1h-0.2c-0.4,0.7-1.1,1.5-2.6,1.5c-1.9,0-3.4-1.5-3.4-3.7s1.5-3.7,3.4-3.7c1.5,0,2.2,0.7,2.6,1.5h0.2V422h1.1V421.8z
		 M303.1,425.4c0-1.7-1-2.7-2.5-2.7s-2.5,1-2.5,2.7s1.1,2.7,2.5,2.7S303.1,427,303.1,425.4z"/>
	<path class="st5" d="M312.5,429v-1.3h-0.2c-0.4,0.7-1.1,1.4-2.5,1.4c-1.5,0-2.8-1-2.8-3v-4.4h1.1v4.3c0,1.4,0.8,2.1,2,2.1
		c1.4,0,2.4-0.9,2.4-2.6v-3.7h1.1v7.2H312.5z"/>
	<path class="st5" d="M317.5,421.8v1h0.2c0.4-0.7,1.1-1.1,2-1.1c1.1,0,1.7,0.5,2.1,1.3h0.2c0.4-0.7,1.1-1.3,2.2-1.3
		c1.4,0,2.5,0.9,2.5,2.4v5h-1.1v-4.9c0-0.9-0.7-1.5-1.6-1.5c-1,0-1.8,0.7-1.8,1.9v4.5H321v-4.9c0-0.9-0.6-1.5-1.6-1.5
		s-1.8,0.7-1.8,1.9v4.5h-1.1v-7.2L317.5,421.8L317.5,421.8z"/>
	<path class="st5" d="M332.5,421.6c2.1,0,3.5,1.5,3.5,3.6v0.6h-5.9c0.1,1.5,1.1,2.4,2.5,2.4c1.2,0,1.8-0.6,2.2-1.4l1,0.5
		c-0.5,0.9-1.4,1.9-3.2,1.9c-2.3,0-3.7-1.7-3.7-3.9C328.9,423.3,330.5,421.6,332.5,421.6z M334.9,424.9c0-1.4-0.9-2.3-2.3-2.3
		s-2.3,0.8-2.4,2.3H334.9z"/>
	<path class="st5" d="M339.4,421.8v1.3h0.2c0.4-0.7,1.1-1.4,2.5-1.4c1.5,0,2.9,1,2.9,3v4.4h-1.1v-4.3c0-1.4-0.8-2.1-2-2.1
		c-1.4,0-2.4,0.9-2.4,2.6v3.7h-1.1v-7.2H339.4z"/>
	<path class="st5" d="M348.9,421.8v-2.6h1.1v2.6h2.3v1H350v4.8c0,0.3,0.1,0.4,0.4,0.4h1.5v1H350c-0.7,0-1.1-0.4-1.1-1.1v-5.1h-2.2
		v-1L348.9,421.8L348.9,421.8z"/>
	<path class="st5" d="M357.1,421.6c1.5,0,2.5,0.6,3.6,1.9l-0.9,0.6c-0.8-1.1-1.7-1.5-2.7-1.5c-0.9,0-1.6,0.4-1.6,1.1
		c0,0.8,0.8,0.9,1.7,1.1l0.7,0.1c1.7,0.3,2.9,0.7,2.9,2.1s-1.3,2.3-3.2,2.3c-2,0-3.2-1.2-3.7-2.4l1-0.5c0.5,1.2,1.5,1.9,2.8,1.9
		c1.2,0,2-0.5,2-1.3s-0.9-0.9-1.9-1.1l-0.7-0.1c-1.6-0.2-2.7-0.7-2.7-2.1C354.4,422.4,355.6,421.6,357.1,421.6z"/>
	<path class="st5" d="M371.4,421.6c2.1,0,3.7,1.6,3.7,3.8s-1.5,3.8-3.7,3.8s-3.7-1.6-3.7-3.8S369.2,421.6,371.4,421.6z M371.4,428.2
		c1.5,0,2.5-1.1,2.5-2.8s-1-2.8-2.5-2.8s-2.6,1.1-2.6,2.8S369.9,428.2,371.4,428.2z"/>
	<path class="st5" d="M378.7,421.8v-2c0-0.7,0.4-1.2,1.1-1.2h1.9v1h-1.5c-0.3,0-0.4,0.1-0.4,0.4v1.7h2.2v1h-2.2v6.2h-1.1v-6.2h-2.2
		v-1h2.2V421.8z"/>
	<path class="st5" d="M392.5,421.6c2,0,3.1,1.1,3.1,2.9v4.6h-1.1v-1.2h-0.2c-0.4,0.7-1.2,1.4-2.7,1.4c-1.6,0-2.7-0.8-2.7-2.1
		c0-1.3,1.1-2,2.8-2.1l2.9-0.3v-0.3c0-1.1-0.7-1.8-2-1.8s-2.1,0.7-2.5,1.6l-1-0.5C389.6,422.7,390.7,421.6,392.5,421.6z
		 M391.8,428.3c1.7,0,2.8-1,2.8-2.5v-0.1l-2.7,0.3c-1,0.1-1.8,0.4-1.8,1.2C390.1,427.9,390.8,428.3,391.8,428.3z"/>
	<path class="st5" d="M399.5,421.8v1.3h0.2c0.4-0.7,1.1-1.4,2.5-1.4c1.5,0,2.9,1,2.9,3v4.4H404v-4.3c0-1.4-0.8-2.1-2-2.1
		c-1.4,0-2.4,0.9-2.4,2.6v3.7h-1.1v-7.2H399.5z"/>
	<path class="st5" d="M408.9,421.8v-2.6h1.1v2.6h2.3v1H410v4.8c0,0.3,0.1,0.4,0.4,0.4h1.5v1H410c-0.7,0-1.1-0.4-1.1-1.1v-5.1h-2.2
		v-1L408.9,421.8L408.9,421.8z"/>
	<path class="st5" d="M415.1,418.6c0.5,0,1,0.4,1,1s-0.4,1-1,1c-0.5,0-1-0.4-1-1S414.6,418.6,415.1,418.6z M415.7,429h-1.1v-7.2h1.1
		V429z"/>
	<path class="st5" d="M419.9,421.8v-2c0-0.7,0.4-1.2,1.1-1.2h1.9v1h-1.5c-0.3,0-0.4,0.1-0.4,0.4v1.7h2.2v1H421v6.2h-1.1v-6.2h-2.2
		v-1h2.2V421.8z"/>
	<path class="st5" d="M428.3,421.6c2.1,0,3.5,1.5,3.5,3.6v0.6h-5.9c0.1,1.5,1.1,2.4,2.5,2.4c1.2,0,1.8-0.6,2.2-1.4l1,0.5
		c-0.5,0.9-1.4,1.9-3.2,1.9c-2.3,0-3.7-1.7-3.7-3.9C424.7,423.3,426.2,421.6,428.3,421.6z M430.6,424.9c0-1.4-0.9-2.3-2.3-2.3
		s-2.3,0.8-2.4,2.3H430.6z"/>
	<path class="st5" d="M435.2,421.8v1h0.2c0.4-0.7,1.1-1.1,2-1.1c1.1,0,1.7,0.5,2.1,1.3h0.2c0.4-0.7,1.1-1.3,2.2-1.3
		c1.4,0,2.5,0.9,2.5,2.4v5h-1.1v-4.9c0-0.9-0.7-1.5-1.6-1.5c-1,0-1.8,0.7-1.8,1.9v4.5h-1.1v-4.9c0-0.9-0.6-1.5-1.6-1.5
		s-1.8,0.7-1.8,1.9v4.5h-1.1v-7.2L435.2,421.8L435.2,421.8z"/>
	<path class="st5" d="M447.6,418.6c0.5,0,1,0.4,1,1s-0.4,1-1,1c-0.5,0-1-0.4-1-1S447.1,418.6,447.6,418.6z M448.2,429h-1.1v-7.2h1.1
		V429z"/>
	<path class="st5" d="M452.1,421.8v1.3h0.2c0.4-0.7,1.1-1.4,2.5-1.4c1.5,0,2.9,1,2.9,3v4.4h-1.1v-4.3c0-1.4-0.8-2.1-2-2.1
		c-1.4,0-2.4,0.9-2.4,2.6v3.7H451v-7.2H452.1z"/>
	<path class="st5" d="M461,418.6c0.5,0,1,0.4,1,1s-0.4,1-1,1c-0.5,0-1-0.4-1-1S460.4,418.6,461,418.6z M461.6,429h-1.1v-7.2h1.1V429
		z"/>
	<path class="st5" d="M466.9,421.6c1.5,0,2.5,0.6,3.6,1.9l-0.9,0.6c-0.8-1.1-1.7-1.5-2.7-1.5c-0.9,0-1.6,0.4-1.6,1.1
		c0,0.8,0.8,0.9,1.7,1.1l0.7,0.1c1.7,0.3,2.9,0.7,2.9,2.1s-1.3,2.3-3.2,2.3c-2,0-3.2-1.2-3.7-2.4l1-0.5c0.5,1.2,1.5,1.9,2.8,1.9
		c1.2,0,2-0.5,2-1.3s-0.9-0.9-1.9-1.1l-0.7-0.1c-1.6-0.2-2.7-0.7-2.7-2.1C464.2,422.4,465.5,421.6,466.9,421.6z"/>
	<path class="st5" d="M474.1,421.8v-2.6h1.1v2.6h2.3v1h-2.3v4.8c0,0.3,0.1,0.4,0.4,0.4h1.5v1h-1.9c-0.7,0-1.1-0.4-1.1-1.1v-5.1h-2.2
		v-1L474.1,421.8L474.1,421.8z"/>
	<path class="st5" d="M322.7,439.6l2.3,6.1h0.2l2.3-6.1h1.2l-2.8,7.2h-1.6l-2.8-7.2H322.7z"/>
	<path class="st5" d="M331.3,436.4c0.5,0,1,0.4,1,1s-0.4,1-1,1s-1-0.4-1-1S330.8,436.4,331.3,436.4z M331.9,446.8h-1.1v-7.2h1.1
		V446.8z"/>
	<path class="st5" d="M337.3,439.4c1.5,0,2.5,0.6,3.6,1.9l-0.9,0.6c-0.8-1.1-1.7-1.5-2.7-1.5c-0.9,0-1.6,0.4-1.6,1.1
		c0,0.8,0.8,0.9,1.7,1.1l0.7,0.1c1.7,0.3,2.9,0.7,2.9,2.1s-1.3,2.3-3.2,2.3c-2,0-3.2-1.2-3.7-2.4l1-0.5c0.5,1.2,1.5,1.9,2.8,1.9
		c1.2,0,2-0.5,2-1.3s-0.9-0.9-1.9-1.1l-0.7-0.1c-1.6-0.2-2.7-0.7-2.7-2.1C334.5,440.1,335.8,439.4,337.3,439.4z"/>
	<path class="st5" d="M348.6,446.8v-1.3h-0.2c-0.4,0.7-1.1,1.4-2.5,1.4c-1.5,0-2.8-1-2.8-3v-4.4h1.1v4.3c0,1.4,0.8,2.1,2,2.1
		c1.4,0,2.4-0.9,2.4-2.6v-3.7h1.1v7.2H348.6z"/>
	<path class="st5" d="M355.8,439.4c2,0,3.1,1.1,3.1,2.9v4.6h-1.1v-1.2h-0.2c-0.4,0.7-1.2,1.4-2.7,1.4c-1.6,0-2.7-0.8-2.7-2.1
		c0-1.3,1.1-2,2.8-2.1l2.9-0.3v-0.3c0-1.1-0.7-1.8-2-1.8s-2.1,0.7-2.5,1.6l-1-0.5C352.8,440.4,354,439.4,355.8,439.4z M355,446.1
		c1.7,0,2.8-1,2.8-2.5v-0.1l-2.7,0.3c-1,0.1-1.8,0.4-1.8,1.2C353.3,445.7,354,446.1,355,446.1z"/>
	<path class="st5" d="M362.8,446.8h-1.1v-10.4h1.1V446.8z"/>
	<path class="st5" d="M371.9,446.8h-1.1v-10.4h1.1V446.8z"/>
	<path class="st5" d="M378,439.4c2,0,3.1,1.1,3.1,2.9v4.6H380v-1.2h-0.2c-0.4,0.7-1.2,1.4-2.7,1.4c-1.6,0-2.7-0.8-2.7-2.1
		c0-1.3,1.1-2,2.8-2.1l2.9-0.3v-0.3c0-1.1-0.7-1.8-2-1.8s-2.1,0.7-2.5,1.6l-1-0.5C375,440.4,376.2,439.4,378,439.4z M377.2,446.1
		c1.7,0,2.8-1,2.8-2.5v-0.1l-2.7,0.3c-1,0.1-1.8,0.4-1.8,1.2C375.5,445.7,376.2,446.1,377.2,446.1z"/>
	<path class="st5" d="M384.9,439.6v1.3h0.2c0.4-0.7,1.1-1.4,2.5-1.4c1.5,0,2.9,1,2.9,3v4.4h-1.1v-4.3c0-1.4-0.8-2.1-2-2.1
		c-1.4,0-2.4,0.9-2.4,2.6v3.7h-1.1v-7.2H384.9z"/>
	<path class="st5" d="M400.1,439.6v7c0,2-1.3,3.4-3.5,3.4c-1.9,0-3-0.9-3.7-2l1-0.6c0.4,0.8,1.3,1.6,2.6,1.6c1.4,0,2.5-0.8,2.5-2.5
		v-1.1h-0.2c-0.4,0.7-1.1,1.5-2.6,1.5c-1.9,0-3.4-1.5-3.4-3.7s1.5-3.7,3.4-3.7c1.5,0,2.2,0.7,2.6,1.5h0.2v-1.2h1.1V439.6z
		 M399,443.1c0-1.7-1-2.7-2.5-2.7s-2.5,1-2.5,2.7s1.1,2.7,2.5,2.7C398,445.9,399,444.8,399,443.1z"/>
	<path class="st5" d="M408.4,446.8v-1.3h-0.2c-0.4,0.7-1.1,1.4-2.5,1.4c-1.5,0-2.8-1-2.8-3v-4.4h1.1v4.3c0,1.4,0.8,2.1,2,2.1
		c1.4,0,2.4-0.9,2.4-2.6v-3.7h1.1v7.2H408.4z"/>
	<path class="st5" d="M415.6,439.4c2,0,3.1,1.1,3.1,2.9v4.6h-1.1v-1.2h-0.2c-0.4,0.7-1.2,1.4-2.7,1.4c-1.6,0-2.7-0.8-2.7-2.1
		c0-1.3,1.1-2,2.8-2.1l2.9-0.3v-0.3c0-1.1-0.7-1.8-2-1.8s-2.1,0.7-2.5,1.6l-1-0.5C412.6,440.4,413.8,439.4,415.6,439.4z
		 M414.8,446.1c1.7,0,2.8-1,2.8-2.5v-0.1l-2.7,0.3c-1,0.1-1.8,0.4-1.8,1.2C413.1,445.7,413.8,446.1,414.8,446.1z"/>
	<path class="st5" d="M428.3,439.6v7c0,2-1.3,3.4-3.5,3.4c-1.9,0-3-0.9-3.7-2l1-0.6c0.4,0.8,1.3,1.6,2.6,1.6c1.4,0,2.5-0.8,2.5-2.5
		v-1.1H427c-0.4,0.7-1.1,1.5-2.6,1.5c-1.9,0-3.4-1.5-3.4-3.7s1.5-3.7,3.4-3.7c1.5,0,2.2,0.7,2.6,1.5h0.2v-1.2h1.1V439.6z
		 M427.2,443.1c0-1.7-1-2.7-2.5-2.7s-2.5,1-2.5,2.7s1.1,2.7,2.5,2.7C426.2,445.9,427.2,444.8,427.2,443.1z"/>
	<path class="st5" d="M434.3,439.4c2.1,0,3.5,1.5,3.5,3.6v0.6h-5.9c0.1,1.5,1.1,2.4,2.5,2.4c1.2,0,1.8-0.6,2.2-1.4l1,0.5
		c-0.5,0.9-1.4,1.9-3.2,1.9c-2.3,0-3.7-1.7-3.7-3.9C430.7,441,432.2,439.4,434.3,439.4z M436.6,442.7c0-1.4-0.9-2.3-2.3-2.3
		s-2.3,0.8-2.4,2.3H436.6z"/>
</g>
</svg>
