<svg id="Livello_1" data-name="Livello 1" xmlns="http://www.w3.org/2000/svg" viewBox="0 0 830 432.5"><defs><style>.cls-1,.cls-50,.cls-51{fill:none;stroke-miterlimit:10;}.cls-1{stroke:#c6c6c6;}.cls-12,.cls-15,.cls-2,.cls-20,.cls-31,.cls-32,.cls-40,.cls-54,.cls-57,.cls-58,.cls-69,.cls-8,.cls-9{font-size:14px;}.cls-15,.cls-2,.cls-29,.cls-9{fill:#b2b2b2;}.cls-12,.cls-15,.cls-2,.cls-20,.cls-8,.cls-9{font-family:SpaceGrotesk-SemiBold, Space Grotesk;}.cls-11,.cls-15,.cls-2,.cls-20,.cls-31,.cls-34,.cls-39,.cls-40,.cls-54,.cls-8{letter-spacing:0.04em;}.cls-12,.cls-15,.cls-20,.cls-3,.cls-69,.cls-9{font-weight:700;}.cls-13,.cls-29,.cls-4,.cls-59,.cls-7,.cls-70{font-size:10px;}.cls-13,.cls-29,.cls-32,.cls-4,.cls-40,.cls-54,.cls-57,.cls-58,.cls-62,.cls-63,.cls-64,.cls-65,.cls-66,.cls-67,.cls-68,.cls-7,.cls-72,.cls-73,.cls-74,.cls-75{font-family:SpaceGrotesk-Regular, Space Grotesk;}.cls-27,.cls-4,.cls-57,.cls-59,.cls-73{letter-spacing:0.04em;}.cls-5{letter-spacing:0.04em;}.cls-6,.cls-7{letter-spacing:0.04em;}.cls-12,.cls-20,.cls-8{fill:#c6c6c6;}.cls-12,.cls-19,.cls-32,.cls-43,.cls-48,.cls-9{letter-spacing:0.04em;}.cls-10,.cls-36{letter-spacing:0.03em;}.cls-13{letter-spacing:0.02em;}.cls-14,.cls-72{letter-spacing:0.01em;}.cls-16,.cls-46{letter-spacing:0.03em;}.cls-17{letter-spacing:-0.1em;}.cls-18{letter-spacing:0.01em;}.cls-21{letter-spacing:0.04em;}.cls-22{letter-spacing:-0.02em;}.cls-23{letter-spacing:0.03em;}.cls-24{letter-spacing:0.03em;}.cls-25{letter-spacing:-0.02em;}.cls-26{letter-spacing:0.02em;}.cls-28{fill:#f6f6f6;}.cls-30,.cls-67{letter-spacing:0.03em;}.cls-31,.cls-35,.cls-36,.cls-43,.cls-46,.cls-47,.cls-54,.cls-59,.cls-70{fill:#1d1d1b;}.cls-32,.cls-39,.cls-40,.cls-48,.cls-52,.cls-57{fill:#ff3603;}.cls-33{letter-spacing:0.04em;}.cls-34,.cls-42{fill:#8e7cf0;}.cls-37{letter-spacing:0.01em;}.cls-38{letter-spacing:0.03em;}.cls-41{letter-spacing:0.03em;}.cls-44{letter-spacing:0.01em;}.cls-45{letter-spacing:0.03em;}.cls-47{letter-spacing:0.01em;}.cls-49{fill:#6d6d6d;}.cls-50{stroke:#1d1d1b;}.cls-51{stroke:#ff3603;}.cls-53{fill:#fff;}.cls-55{letter-spacing:0em;}.cls-56{letter-spacing:0.04em;}.cls-58,.cls-69{fill:#e74013;letter-spacing:0.04em;}.cls-59,.cls-70{font-family:SpaceGrotesk-Medium, Space Grotesk;}.cls-60,.cls-66{letter-spacing:0.04em;}.cls-61,.cls-62,.cls-70{letter-spacing:0.04em;}.cls-63{letter-spacing:0.03em;}.cls-65{letter-spacing:0.03em;}.cls-68{letter-spacing:0.04em;}.cls-69{font-family:SpaceGrotesk-Bold, Space Grotesk;}.cls-71{letter-spacing:0.03em;}.cls-74{letter-spacing:0.02em;}.cls-75{letter-spacing:0.03em;}</style></defs><title>Tavola disegno 1</title><line class="cls-1" x1="634.28" y1="8.27" x2="634.28" y2="52.66"/><line class="cls-1" x1="634.42" y1="83.89" x2="634.42" y2="128.28"/><text class="cls-2" transform="translate(645.45 23.16)"><tspan class="cls-3">GOOGLE SEARCH</tspan><tspan class="cls-4"><tspan x="0" y="12">Incogni</tspan><tspan class="cls-5" x="36.89" y="12">t</tspan><tspan class="cls-6" x="41.51" y="12">o mode</tspan></tspan><tspan class="cls-7"><tspan x="0" y="24">english language</tspan></tspan></text><text class="cls-8" transform="translate(645.45 23.16)"><tspan class="cls-3">GOOGLE SEARCH</tspan><tspan class="cls-4"><tspan x="0" y="12">Incogni</tspan><tspan class="cls-5" x="36.89" y="12">t</tspan><tspan class="cls-6" x="41.51" y="12">o mode</tspan></tspan><tspan class="cls-7"><tspan x="0" y="24">english language</tspan></tspan></text><text class="cls-9" transform="translate(645.64 102.59)">BE<tspan class="cls-10" x="17.53" y="0">A</tspan><tspan class="cls-11" x="26.6" y="0">UTIFUL</tspan><tspan x="0" y="16.8">SOUP</tspan></text><text class="cls-12" transform="translate(645.64 102.59)">BE<tspan class="cls-10" x="17.53" y="0">A</tspan><tspan class="cls-11" x="26.6" y="0">UTIFUL</tspan><tspan x="0" y="16.8">SOUP</tspan></text><line class="cls-1" x1="634.28" y1="159.62" x2="634.28" y2="204.01"/><text class="cls-2" transform="translate(645.51 174.82)"><tspan class="cls-3">OPEN REFINE</tspan><tspan class="cls-13"><tspan x="0" y="12">Ex</tspan><tspan class="cls-6" x="11.73" y="12">cluding </tspan></tspan><tspan class="cls-7"><tspan x="0" y="24">ecomme</tspan><tspan class="cls-14" x="41.88" y="24">r</tspan><tspan x="45.71" y="24">ce</tspan></tspan></text><text class="cls-8" transform="translate(645.51 174.82)"><tspan class="cls-3">OPEN REFINE</tspan><tspan class="cls-13"><tspan x="0" y="12">Ex</tspan><tspan class="cls-6" x="11.73" y="12">cluding </tspan></tspan><tspan class="cls-7"><tspan x="0" y="24">ecomme</tspan><tspan class="cls-14" x="41.88" y="24">r</tspan><tspan x="45.71" y="24">ce</tspan></tspan></text><line class="cls-1" x1="634.28" y1="234.44" x2="634.28" y2="278.83"/><text class="cls-15" transform="translate(645.51 253.24)">MAN<tspan class="cls-16" x="31.78" y="0">U</tspan><tspan x="41.44" y="0">AL</tspan><tspan x="0" y="16.8">ANA</tspan><tspan class="cls-17" x="28.17" y="16.8">L</tspan><tspan class="cls-18" x="34.2" y="16.8">Y</tspan><tspan class="cls-19" x="42.83" y="16.8">SIS</tspan></text><text class="cls-20" transform="translate(645.51 253.24)">MAN<tspan class="cls-16" x="31.78" y="0">U</tspan><tspan x="41.44" y="0">AL</tspan><tspan x="0" y="16.8">ANA</tspan><tspan class="cls-17" x="28.17" y="16.8">L</tspan><tspan class="cls-18" x="34.2" y="16.8">Y</tspan><tspan class="cls-19" x="42.83" y="16.8">SIS</tspan></text><line class="cls-1" x1="634.28" y1="310.53" x2="634.28" y2="354.92"/><text class="cls-15" transform="translate(645.51 329.32)">CHA<tspan class="cls-21" x="28.11" y="0">R</tspan><tspan class="cls-19" x="37.23" y="0">TICUL</tspan><tspan class="cls-22" x="77.03" y="0">A</tspan><tspan class="cls-23" x="85.4" y="0">T</tspan><tspan x="93.9" y="0">OR</tspan><tspan x="0" y="16.8">&amp; ILLU</tspan><tspan class="cls-24" x="44.56" y="16.8">S</tspan><tspan class="cls-19" x="53.45" y="16.8">T</tspan><tspan class="cls-21" x="62.16" y="16.8">R</tspan><tspan class="cls-25" x="71.27" y="16.8">A</tspan><tspan class="cls-26" x="79.65" y="16.8">T</tspan><tspan class="cls-27" x="88.14" y="16.8">OR</tspan></text><text class="cls-20" transform="translate(645.51 329.32)">CHA<tspan class="cls-21" x="28.11" y="0">R</tspan><tspan class="cls-19" x="37.23" y="0">TICUL</tspan><tspan class="cls-22" x="77.03" y="0">A</tspan><tspan class="cls-23" x="85.4" y="0">T</tspan><tspan x="93.9" y="0">OR</tspan><tspan x="0" y="16.8">&amp; ILLU</tspan><tspan class="cls-24" x="44.56" y="16.8">S</tspan><tspan class="cls-19" x="53.45" y="16.8">T</tspan><tspan class="cls-21" x="62.16" y="16.8">R</tspan><tspan class="cls-25" x="71.27" y="16.8">A</tspan><tspan class="cls-26" x="79.65" y="16.8">T</tspan><tspan class="cls-27" x="88.14" y="16.8">OR</tspan></text><rect class="cls-28" width="622.4" height="136.7"/><rect class="cls-28" y="150.9" width="622.4" height="136"/><text class="cls-29" transform="translate(284.47 22.39)">que<tspan class="cls-30" x="17.71" y="0">r</tspan><tspan x="21.71" y="0">y 01</tspan><tspan class="cls-31"><tspan x="-42.28" y="16.8">H</tspan><tspan class="cls-16" x="-32.69" y="16.8">a</tspan><tspan class="cls-21" x="-24.25" y="16.8">t</tspan><tspan class="cls-19" x="-17.78" y="16.8">e against men</tspan></tspan></text><text class="cls-29" transform="translate(479 22.39)">que<tspan class="cls-30" x="17.71" y="0">r</tspan><tspan x="21.71" y="0">y 02</tspan><tspan class="cls-31"><tspan x="-51.42" y="16.8">H</tspan><tspan class="cls-16" x="-41.83" y="16.8">a</tspan><tspan class="cls-21" x="-33.38" y="16.8">t</tspan><tspan class="cls-19" x="-26.92" y="16.8">e against </tspan><tspan class="cls-21" x="44.83" y="16.8">w</tspan><tspan class="cls-19" x="56.1" y="16.8">omen</tspan></tspan></text><text class="cls-32" transform="translate(266.72 101.09)">sc<tspan class="cls-33" x="16.52" y="0">r</tspan><tspan x="22.19" y="0">aping</tspan><tspan class="cls-34" x="61.73" y="0"> </tspan><tspan class="cls-35" x="66.65" y="0">fi</tspan><tspan class="cls-36" x="75.75" y="0">r</tspan><tspan class="cls-35" x="81.35" y="0">st</tspan><tspan class="cls-35"><tspan x="0" y="16.8">100 </tspan><tspan class="cls-37" x="29.79" y="16.8">r</tspan><tspan class="cls-38" x="35.15" y="16.8">e</tspan><tspan class="cls-11" x="43.48" y="16.8">sults</tspan><tspan class="cls-39" x="78.62" y="16.8">1</tspan></tspan></text><text class="cls-40" transform="translate(455.79 177.06)">fil<tspan class="cls-41" x="12.82" y="0">t</tspan><tspan x="19.29" y="0">ering</tspan><tspan class="cls-42" x="55.23" y="0" xml:space="preserve"> f</tspan><tspan class="cls-43" x="60.16" y="0">i</tspan><tspan class="cls-36" x="69.26" y="0">r</tspan><tspan class="cls-43" x="74.86" y="0">st</tspan><tspan class="cls-35"><tspan x="8.78" y="16.8">50 </tspan><tspan class="cls-44" x="31.78" y="16.8">r</tspan><tspan class="cls-45" x="37.14" y="16.8">e</tspan><tspan class="cls-19" x="45.47" y="16.8">sults</tspan></tspan></text><text class="cls-40" transform="translate(260.59 176.1)">fil<tspan class="cls-41" x="12.82" y="0">t</tspan><tspan x="19.29" y="0">ering</tspan><tspan class="cls-42" x="55.23" y="0" xml:space="preserve"> f</tspan><tspan class="cls-43" x="60.16" y="0">i</tspan><tspan class="cls-36" x="69.26" y="0">r</tspan><tspan class="cls-43" x="74.86" y="0">st</tspan><tspan class="cls-35"><tspan x="8.78" y="16.8">50 </tspan><tspan class="cls-44" x="31.78" y="16.8">r</tspan><tspan class="cls-45" x="37.14" y="16.8">e</tspan><tspan class="cls-19" x="45.47" y="16.8">sults</tspan></tspan></text><path d="M238.15,96.23v19.12h20.94V96.23Zm19.71,1.27v2.68H239.38V97.5Zm-18.48,16.58V101.44h18.48v12.64Z"/><path d="M240.25,98.18h1.23v1.27h-1.23Z"/><path d="M242.16,98.18h1.22v1.27h-1.22Z"/><path d="M244.07,98.18h1.22v1.27h-1.22Z"/><path d="M241.71,103.17h1.91v1.27h-1.91Z"/><path d="M245,103.17h10.49v1.27H245Z"/><path d="M241.71,105.83h1.91v1.27h-1.91Z"/><path d="M245,105.83h10.49v1.27H245Z"/><path d="M241.71,108.49h1.91v1.27h-1.91Z"/><path d="M245,108.49h10.49v1.27H245Z"/><path d="M241.71,111.15h1.91v1.27h-1.91Z"/><path d="M245,111.15h10.49v1.27H245Z"/><text class="cls-32" transform="translate(462.16 101.14)">sc<tspan class="cls-33" x="16.52" y="0">r</tspan><tspan x="22.19" y="0">aping </tspan><tspan class="cls-35" x="66.65" y="0">fi</tspan><tspan class="cls-36" x="75.75" y="0">r</tspan><tspan class="cls-35" x="81.35" y="0">st</tspan><tspan class="cls-35"><tspan x="0" y="16.8">100 </tspan><tspan class="cls-37" x="29.79" y="16.8">r</tspan><tspan class="cls-38" x="35.15" y="16.8">e</tspan><tspan class="cls-11" x="43.48" y="16.8">sults</tspan><tspan class="cls-39" x="78.62" y="16.8">1</tspan></tspan></text><path d="M433.59,96.28V115.4h20.94V96.28Zm19.72,1.27v2.68H434.82V97.55Zm-18.49,16.58V101.49h18.49v12.64Z"/><path d="M435.69,98.23h1.23v1.26h-1.23Z"/><path d="M437.6,98.23h1.23v1.26H437.6Z"/><path d="M439.51,98.23h1.23v1.26h-1.23Z"/><path d="M437.16,103.22h1.91v1.27h-1.91Z"/><path d="M440.48,103.22H451v1.27H440.48Z"/><path d="M437.16,105.88h1.91v1.27h-1.91Z"/><path d="M440.48,105.88H451v1.27H440.48Z"/><path d="M437.16,108.54h1.91v1.27h-1.91Z"/><path d="M440.48,108.54H451v1.27H440.48Z"/><path d="M437.16,111.2h1.91v1.27h-1.91Z"/><path d="M440.48,111.2H451v1.27H440.48Z"/><text class="cls-40" transform="translate(231.85 252.36)">clus<tspan class="cls-21" x="29.13" y="0">t</tspan><tspan class="cls-19" x="35.6" y="0">ering</tspan><tspan class="cls-35" x="71.54" y="0"> </tspan><tspan class="cls-46" x="76.47" y="0">b</tspan><tspan class="cls-35" x="85.5" y="0">y sou</tspan><tspan class="cls-47" x="124.35" y="0">r</tspan><tspan class="cls-35" x="129.71" y="0">ce</tspan><tspan class="cls-35"><tspan x="21.48" y="16.8">&amp; orie</tspan><tspan class="cls-10" x="63.09" y="16.8">n</tspan><tspan class="cls-19" x="71.84" y="16.8">t</tspan><tspan class="cls-10" x="78.38" y="16.8">a</tspan><tspan class="cls-19" x="86.82" y="16.8">tion</tspan><tspan class="cls-48" x="114.69" y="16.8">2</tspan><tspan x="120.24" y="16.8"> </tspan></tspan></text><text class="cls-40" transform="translate(427.31 252.36)">clus<tspan class="cls-21" x="29.13" y="0">t</tspan><tspan class="cls-19" x="35.6" y="0">ering</tspan><tspan class="cls-35" x="71.54" y="0"> </tspan><tspan class="cls-46" x="76.47" y="0">b</tspan><tspan class="cls-35" x="85.5" y="0">y sou</tspan><tspan class="cls-47" x="124.35" y="0">r</tspan><tspan class="cls-35" x="129.71" y="0">ce</tspan><tspan class="cls-35"><tspan x="21.48" y="16.8">&amp; orie</tspan><tspan class="cls-10" x="63.09" y="16.8">n</tspan><tspan class="cls-19" x="71.84" y="16.8">t</tspan><tspan class="cls-10" x="78.38" y="16.8">a</tspan><tspan class="cls-19" x="86.82" y="16.8">tion</tspan><tspan class="cls-48" x="114.69" y="16.8">2</tspan><tspan class="cls-49" x="120.24" y="16.8"> </tspan></tspan></text><rect class="cls-28" y="301.6" width="621.2" height="61.7"/><line class="cls-50" x1="304.8" y1="60.9" x2="304.8" y2="74"/><polygon class="cls-35" points="300.7 70.7 301.4 70 304.8 73.6 308.2 70 308.9 70.7 304.8 75.1 300.7 70.7"/><line class="cls-50" x1="500.2" y1="60.9" x2="500.2" y2="74"/><polygon class="cls-35" points="496.1 70.7 496.8 70 500.2 73.6 503.6 70 504.3 70.7 500.2 75.1 496.1 70.7"/><line class="cls-50" x1="304.7" y1="136.7" x2="304.7" y2="149.8"/><polygon class="cls-35" points="300.6 146.5 301.3 145.8 304.7 149.4 308.1 145.8 308.8 146.5 304.7 150.9 300.6 146.5"/><line class="cls-50" x1="500.2" y1="136.7" x2="500.2" y2="149.8"/><polygon class="cls-35" points="496.1 146.5 496.8 145.8 500.2 149.4 503.5 145.8 504.3 146.5 500.2 150.9 496.1 146.5"/><line class="cls-50" x1="304.8" y1="212.6" x2="304.8" y2="225.6"/><polygon class="cls-35" points="300.7 222.3 301.4 221.6 304.8 225.3 308.1 221.6 308.9 222.3 304.8 226.7 300.7 222.3"/><line class="cls-50" x1="500.2" y1="212.6" x2="500.2" y2="225.6"/><polygon class="cls-35" points="496.1 222.3 496.8 221.6 500.2 225.3 503.5 221.6 504.3 222.3 500.2 226.7 496.1 222.3"/><line class="cls-51" x1="251.4" y1="45.7" x2="358.2" y2="45.7"/><line class="cls-51" x1="438.9" y1="45.7" x2="561.1" y2="45.7"/><rect class="cls-51" x="277.2" y="312.55" width="250.3" height="37.8"/><rect class="cls-52" x="10.9" y="10.9" width="118.9" height="20.9"/><path class="cls-53" d="M20.6,17c2.2,0,3.4,1.1,3.4,3.3V22c0,2.2-1.2,3.3-3.4,3.3H17.9V16.9h2.7Zm-1.4,7.1h1.4c1.4,0,2-.7,2-2.1V20.2c0-1.4-.6-2.1-2-2.1H19.3v6Z"/><path class="cls-53" d="M29.6,17l2.5,8.4H30.6L30,23.5H26.8l-.6,1.9H24.7L27.2,17Zm.1,5.2-1.2-4h-.1l-1.2,4Z"/><path class="cls-53" d="M38.8,17v1.3H36.2v7.1H34.8V18.3H32.2V17Z"/><path class="cls-53" d="M43.5,17,46,25.4H44.5l-.6-1.9H40.7l-.6,1.9H38.6L41.1,17Zm.1,5.2-1.2-4h-.1l-1.2,4Z"/><path class="cls-53" d="M54.3,16.8c2.1,0,3.2,1.2,3.2,3v.3H56.1v-.2a1.63,1.63,0,0,0-1.8-1.8,1.87,1.87,0,0,0-2,2.1v2a1.87,1.87,0,0,0,2,2.1,1.59,1.59,0,0,0,1.8-1.8v-.2h1.5v.2a2.87,2.87,0,0,1-3.2,3.1A3.1,3.1,0,0,1,51,22.2V20.3A3.06,3.06,0,0,1,54.3,16.8Z"/><path class="cls-53" d="M62.3,16.8a3.18,3.18,0,0,1,3.4,3.5v1.8a3.4,3.4,0,1,1-6.8,0V20.3A3.18,3.18,0,0,1,62.3,16.8Zm-2,5.4c0,1.3.6,2.1,2,2.1s2-.8,2-2.1V20.3a2,2,0,1,0-4,0Z"/><path class="cls-53" d="M68.8,17v7.1h4v1.3H67.4V17Z"/><path class="cls-53" d="M75.6,17v7.1h4v1.3H74.2V17Z"/><path class="cls-53" d="M86.5,17v1.3H82.4v2.3h3.7v1.3H82.4v2.3h4.1v1.3H81V17.1h5.5Z"/><path class="cls-53" d="M91.3,16.8c2.1,0,3.2,1.2,3.2,3v.3H93.1v-.2a1.63,1.63,0,0,0-1.8-1.8,1.87,1.87,0,0,0-2,2.1v2a1.87,1.87,0,0,0,2,2.1,1.59,1.59,0,0,0,1.8-1.8v-.2h1.4v.2a2.87,2.87,0,0,1-3.2,3.1,3.1,3.1,0,0,1-3.4-3.4V20.3A3.18,3.18,0,0,1,91.3,16.8Z"/><path class="cls-53" d="M102.1,17v1.3H99.5v7.1H98.1V18.3H95.5V17Z"/><path class="cls-53" d="M104.9,17v8.4h-1.4V17Z"/><path class="cls-53" d="M110,16.8a3.18,3.18,0,0,1,3.4,3.5v1.8a3.4,3.4,0,1,1-6.8,0V20.3A3.18,3.18,0,0,1,110,16.8Zm-2,5.4c0,1.3.6,2.1,2,2.1s2-.8,2-2.1V20.3a2,2,0,1,0-4,0Z"/><path class="cls-53" d="M117.6,17l2.3,7.1h.1V17h1.4v8.4h-2.5l-2.3-7.1h-.1v7.1h-1.4V17Z"/><rect class="cls-52" x="10.9" y="161.8" width="127" height="20.9"/><path class="cls-53" d="M21.8,168.9c2.2,0,3.4,1.1,3.4,3.3v1.7c0,2.2-1.2,3.3-3.4,3.3H19.1v-8.4h2.7ZM20.4,176h1.3c1.4,0,2-.7,2-2.1v-1.8c0-1.4-.6-2.1-2-2.1H20.4Z"/><path class="cls-53" d="M30.8,168.9l2.5,8.4H31.8l-.6-1.9H28l-.6,1.9H25.9l2.5-8.4Zm.1,5.2-1.2-4h-.1l-1.2,4Z"/><path class="cls-53" d="M39.9,168.9v1.3H37.3v7.1H35.9v-7.1H33.3v-1.3Z"/><path class="cls-53" d="M44.7,168.9l2.5,8.4H45.7l-.6-1.9H41.9l-.6,1.9H39.8l2.5-8.4Zm.1,5.2-1.2-4h-.1l-1.2,4Z"/><path class="cls-53" d="M57.9,168.9v1.3H53.8v2.3h3.8v1.3H53.9v2.3H58v1.3H52.5V169h5.4Z"/><path class="cls-53" d="M60.6,168.9l1.9,3.2h.2l1.8-3.2h1.6L63.7,173v.2l2.4,4.2H64.5l-1.9-3.2h-.2l-1.9,3.2H58.9l2.5-4.2V173L59,168.9Z"/><path class="cls-53" d="M70.9,168.9a2.42,2.42,0,0,1,2.6,2.6,2.47,2.47,0,0,1-2.6,2.6h-2v3.2H67.6v-8.4ZM69,172.8h1.8a1.3,1.3,0,1,0,0-2.6H69Z"/><path class="cls-53" d="M76.4,168.9V176h4v1.3H75v-8.4Z"/><path class="cls-53" d="M85,168.7a3.18,3.18,0,0,1,3.4,3.5V174a3.4,3.4,0,1,1-6.8,0v-1.8A3.18,3.18,0,0,1,85,168.7ZM83,174c0,1.3.6,2.1,2,2.1s2-.8,2-2.1v-1.9a2,2,0,1,0-4,0Z"/><path class="cls-53" d="M94.4,173.9l1.8,3.4H94.6L92.9,174H91.4v3.3H90v-8.4h3.6a2.42,2.42,0,0,1,2.6,2.6A2.28,2.28,0,0,1,94.4,173.9Zm-3-1.2h2.1a1.3,1.3,0,1,0,0-2.6H91.4Z"/><path class="cls-53" d="M101.9,168.9l2.5,8.4h-1.5l-.6-1.9H99.1l-.6,1.9H97l2.5-8.4Zm.1,5.2-1.2-4h-.1l-1.2,4Z"/><path class="cls-53" d="M111.1,168.9v1.3h-2.6v7.1h-1.4v-7.1h-2.6v-1.3Z"/><path class="cls-53" d="M113.9,168.9v8.4h-1.4v-8.4Z"/><path class="cls-53" d="M119,168.7a3.18,3.18,0,0,1,3.4,3.5V174a3.4,3.4,0,1,1-6.8,0v-1.8A3.18,3.18,0,0,1,119,168.7Zm-2,5.3c0,1.3.6,2.1,2,2.1s2-.8,2-2.1v-1.9a2,2,0,1,0-4,0Z"/><path class="cls-53" d="M126.6,168.9l2.3,7.1h.1v-7.1h1.4v8.4h-2.5l-2.3-7.1h-.1v7.1h-1.4v-8.4Z"/><rect class="cls-52" x="10.95" y="312.55" width="101.3" height="20.9"/><path class="cls-53" d="M19,319.55l2,7.1h.1l2-7.1h1.5l-2.5,8.4h-2.2l-2.5-8.4Z"/><path class="cls-53" d="M27.35,319.55V328H26v-8.4Z"/><path class="cls-53" d="M35.25,322.05v.4h-1.4v-.3c0-1-.7-1.5-1.7-1.5s-1.5.5-1.5,1.1c0,.8.6,1,1.7,1.2l.3.1c1.6.4,2.6,1,2.6,2.5s-1.3,2.6-3,2.6c-2.1,0-3.4-1.2-3.4-3.1v-.3h1.4v.3a1.77,1.77,0,0,0,2,1.9c1.1,0,1.6-.6,1.6-1.3s-.6-1.1-1.7-1.3l-.3-.1c-1.6-.4-2.7-.9-2.7-2.5s1.3-2.4,2.9-2.4C34,319.35,35.25,320.35,35.25,322.05Z"/><path class="cls-53" d="M38.45,319.55v5.5a1.63,1.63,0,0,0,1.8,1.8,1.59,1.59,0,0,0,1.8-1.8v-5.5h1.4v5.5a2.92,2.92,0,0,1-3.2,3.1,2.87,2.87,0,0,1-3.2-3.1v-5.5Z"/><path class="cls-53" d="M49.45,319.55,52,328h-1.5l-.6-1.9h-3.2l-.6,1.9h-1.5l2.5-8.4Zm.1,5.2-1.2-4h-.1l-1.2,4Z"/><path class="cls-53" d="M54.65,319.55v7.1h4V328h-5.4v-8.4Z"/><path class="cls-53" d="M61.55,319.55V328h-1.4v-8.4Z"/><path class="cls-53" d="M69.15,319.55v1.2l-4.3,5.9h4.3V328h-6v-1.2l4.3-5.9h-4.1v-1.3Z"/><path class="cls-53" d="M75,319.55l2.5,8.4H76l-.6-1.9h-3.2l-.6,1.9h-1.5l2.5-8.4Zm.1,5.2-1.2-4h-.1l-1.2,4Z"/><path class="cls-53" d="M84.15,319.55v1.3h-2.6V328h-1.4v-7.1h-2.6v-1.3Z"/><path class="cls-53" d="M87,319.55V328h-1.4v-8.4Z"/><path class="cls-53" d="M92.05,319.35a3.18,3.18,0,0,1,3.4,3.5v1.8a3.4,3.4,0,1,1-6.8,0v-1.8A3.18,3.18,0,0,1,92.05,319.35Zm-2,5.4c0,1.3.6,2.1,2,2.1s2-.8,2-2.1v-1.9a2,2,0,1,0-4,0Z"/><path class="cls-53" d="M99.65,319.55l2.3,7.1h.1v-7.1h1.4V328H101l-2.3-7.1h-.1V328h-1.4v-8.4Z"/><line class="cls-50" x1="402.2" y1="293.3" x2="402.2" y2="303.2"/><polygon class="cls-35" points="398.1 299.9 398.9 299.2 402.2 302.8 405.6 299.2 406.3 299.9 402.2 304.3 398.1 299.9"/><polyline class="cls-50" points="305.4 284.8 305.4 293.3 402.1 293.3 500.2 293.3 500.2 284.8"/><text class="cls-54" transform="translate(291.86 327.98)">gende<tspan class="cls-55" x="44.06" y="0">r</tspan><tspan class="cls-19" x="49.29" y="0">-</tspan><tspan class="cls-56" x="56.29" y="0">b</tspan><tspan class="cls-19" x="65.41" y="0">ased h</tspan><tspan class="cls-16" x="113.38" y="0">a</tspan><tspan class="cls-21" x="121.83" y="0">t</tspan><tspan class="cls-19" x="128.29" y="0">e orie</tspan><tspan class="cls-10" x="168.24" y="0">n</tspan><tspan class="cls-19" x="176.99" y="0">t</tspan><tspan class="cls-16" x="183.52" y="0">a</tspan><tspan x="191.97" y="0">tion</tspan><tspan class="cls-41"><tspan x="3.34" y="16.8">o</tspan><tspan class="cls-11" x="11.99" y="16.8">f sou</tspan><tspan class="cls-44" x="48.88" y="16.8">r</tspan><tspan class="cls-11" x="54.24" y="16.8">c</tspan><tspan class="cls-45" x="62.77" y="16.8">e</tspan><tspan class="cls-19" x="71.1" y="16.8">s and their typology</tspan></tspan></text><text class="cls-57" transform="translate(231.81 385.32)">1</text><text class="cls-58" transform="translate(235.96 380.66) scale(0.58)"> </text><text class="cls-59" transform="translate(238.84 385.32)">sc<tspan class="cls-60" x="11.73" y="0">r</tspan><tspan class="cls-61" x="15.84" y="0">aping</tspan><tspan class="cls-62" x="-7.03" y="12">Titl</tspan><tspan class="cls-63" x="9.26" y="12">e</tspan><tspan class="cls-64" x="15.15" y="12">, d</tspan><tspan class="cls-65" x="28.05" y="12">e</tspan><tspan class="cls-64" x="34" y="12">scri</tspan><tspan class="cls-66" x="52.56" y="12">p</tspan><tspan class="cls-64" x="59.06" y="12">tion, d</tspan><tspan class="cls-67" x="91.87" y="12">a</tspan><tspan class="cls-66" x="97.9" y="12">t</tspan><tspan class="cls-63" x="102.52" y="12">e</tspan><tspan class="cls-64" x="108.41" y="12">,</tspan><tspan class="cls-62" x="-7.03" y="24">url </tspan><tspan class="cls-67" x="9.6" y="24">(</tspan><tspan class="cls-64" x="13.93" y="24">domains / full </tspan><tspan class="cls-68" x="88.27" y="24">p</tspan><tspan class="cls-67" x="94.78" y="24">a</tspan><tspan class="cls-64" x="100.81" y="24">th)</tspan></text><text class="cls-57" transform="translate(380.53 385.32)">2</text><text class="cls-69" transform="translate(386.08 380.66) scale(0.58)"> </text><text class="cls-70" transform="translate(388.61 385.32)">orie<tspan class="cls-30" x="19.06" y="0">n</tspan><tspan x="25.32" y="0">t</tspan><tspan class="cls-71" x="29.88" y="0">a</tspan><tspan x="35.86" y="0">tion</tspan><tspan class="cls-64" x="-8.07" y="12">P</tspan><tspan class="cls-72" x="-1.8" y="12">r</tspan><tspan class="cls-66" x="2.03" y="12">o</tspan><tspan class="cls-73" x="8.21" y="12">-male / P</tspan><tspan class="cls-72" x="55.25" y="12">r</tspan><tspan class="cls-66" x="59.08" y="12">o</tspan><tspan class="cls-74" x="65.27" y="12">-</tspan><tspan class="cls-66" x="70.08" y="12">f</tspan><tspan class="cls-64" x="74.58" y="12">emale</tspan><tspan class="cls-73" x="-8.07" y="24">poi</tspan><tspan class="cls-67" x="7.37" y="24">n</tspan><tspan class="cls-73" x="13.62" y="24">t </tspan><tspan class="cls-75" x="21.81" y="24">o</tspan><tspan class="cls-73" x="27.99" y="24">f vi</tspan><tspan class="cls-75" x="44.45" y="24">e</tspan><tspan class="cls-64" x="50.41" y="24">w</tspan></text></svg>