<svg id="Livello_1" data-name="Livello 1" xmlns="http://www.w3.org/2000/svg" viewBox="0 0 830 849.49"><defs><style>.cls-1,.cls-12,.cls-31,.cls-41,.cls-45,.cls-47,.cls-58{fill:#b2b2b2;}.cls-1{opacity:0.1;}.cls-2,.cls-4,.cls-53{fill:none;}.cls-2{stroke:#c6c6c6;}.cls-12,.cls-13,.cls-2,.cls-4,.cls-53{stroke-miterlimit:10;}.cls-3{fill:#f6f6f6;}.cls-12,.cls-13,.cls-4{stroke:#1d1d1b;}.cls-11,.cls-20,.cls-21,.cls-22,.cls-26,.cls-27,.cls-29,.cls-32,.cls-35,.cls-36,.cls-39,.cls-5,.cls-54,.cls-57{fill:#1d1d1b;}.cls-14,.cls-17,.cls-25,.cls-32,.cls-35,.cls-36,.cls-39,.cls-41,.cls-44,.cls-45,.cls-46,.cls-47,.cls-50,.cls-54,.cls-57,.cls-58,.cls-6,.cls-63{font-size:14px;}.cls-14,.cls-17,.cls-25,.cls-51,.cls-6{fill:#ff3603;}.cls-14,.cls-17,.cls-25,.cls-31,.cls-43,.cls-54,.cls-57,.cls-6{font-family:SpaceGrotesk-Regular, Space Grotesk;}.cls-6{letter-spacing:0.02em;}.cls-14,.cls-22,.cls-32,.cls-41,.cls-44,.cls-47,.cls-50,.cls-54,.cls-7{letter-spacing:0.04em;}.cls-29,.cls-39,.cls-8{letter-spacing:0.03em;}.cls-35,.cls-58,.cls-63,.cls-9{letter-spacing:0.04em;}.cls-10,.cls-11,.cls-25,.cls-36,.cls-45,.cls-46,.cls-57{letter-spacing:0.04em;}.cls-13,.cls-52{fill:#fff;}.cls-15{letter-spacing:0.01em;}.cls-16,.cls-20{letter-spacing:0.03em;}.cls-17,.cls-26,.cls-28{letter-spacing:0.04em;}.cls-18,.cls-21{letter-spacing:0.03em;}.cls-19{letter-spacing:0.03em;}.cls-23{letter-spacing:0.04em;}.cls-24{letter-spacing:0.03em;}.cls-27,.cls-38{letter-spacing:0.01em;}.cls-30{letter-spacing:0.04em;}.cls-31,.cls-43{font-size:10px;}.cls-33{letter-spacing:0.01em;}.cls-34{letter-spacing:0.03em;}.cls-37{letter-spacing:0.03em;}.cls-40{letter-spacing:0.06em;}.cls-41,.cls-44,.cls-45,.cls-46,.cls-47,.cls-50,.cls-58,.cls-63{font-family:SpaceGrotesk-SemiBold, Space Grotesk;}.cls-42,.cls-45,.cls-46,.cls-47,.cls-50,.cls-58,.cls-63{font-weight:700;}.cls-43{letter-spacing:0.04em;}.cls-44,.cls-46,.cls-50,.cls-63{fill:#c6c6c6;}.cls-48{letter-spacing:-0.1em;}.cls-49{letter-spacing:0.01em;}.cls-53{stroke:#ff3603;}.cls-55{letter-spacing:0.01em;}.cls-56{letter-spacing:0.03em;}.cls-59{letter-spacing:0.02em;}.cls-60{letter-spacing:0.03em;}.cls-61{letter-spacing:-0.02em;}.cls-62{letter-spacing:0.02em;}</style></defs><title>Tavola disegno 1 copia</title><rect class="cls-1" x="0.41" y="-0.52" width="620.32" height="212.56"/><line class="cls-2" x1="634.5" y1="8" x2="634.5" y2="52.4"/><rect class="cls-3" x="0.21" y="226.97" width="621.14" height="288.5"/><line class="cls-4" x1="187.33" y1="136.16" x2="187.33" y2="149.32"/><polygon class="cls-5" points="183.24 146 183.97 145.32 187.33 148.94 190.69 145.32 191.42 146 187.33 150.4 183.24 146"/><line class="cls-4" x1="296.78" y1="136.16" x2="296.78" y2="149.24"/><polygon class="cls-5" points="292.69 145.93 293.42 145.25 296.78 148.86 300.14 145.25 300.87 145.93 296.78 150.33 292.69 145.93"/><line class="cls-4" x1="406.03" y1="136.16" x2="406.03" y2="149.43"/><polygon class="cls-5" points="401.94 146.12 402.67 145.44 406.03 149.05 409.39 145.44 410.12 146.12 406.03 150.52 401.94 146.12"/><line class="cls-4" x1="350.86" y1="287.02" x2="350.86" y2="300.3"/><polygon class="cls-5" points="346.77 296.99 347.5 296.31 350.86 299.92 354.21 296.31 354.95 296.99 350.86 301.39 346.77 296.99"/><line class="cls-4" x1="515.3" y1="362.79" x2="515.3" y2="376.06"/><polygon class="cls-5" points="511.21 372.75 511.95 372.07 515.3 375.68 518.66 372.07 519.39 372.75 515.3 377.15 511.21 372.75"/><line class="cls-4" x1="515.6" y1="136.16" x2="515.6" y2="149.2"/><polygon class="cls-5" points="511.51 145.89 512.25 145.21 515.6 148.82 518.96 145.21 519.69 145.89 515.6 150.29 511.51 145.89"/><text class="cls-6" transform="translate(173.62 178.19)">e<tspan class="cls-7" x="8.13" y="0">xt</tspan><tspan class="cls-8" x="23.24" y="0">r</tspan><tspan class="cls-7" x="28.91" y="0">a</tspan><tspan class="cls-9" x="37.49" y="0">c</tspan><tspan class="cls-10" x="45.95" y="0">t</tspan><tspan class="cls-11"><tspan x="0" y="15">timeline</tspan></tspan></text><rect class="cls-12" x="322.59" y="247.21" width="7.61" height="4.22"/><rect class="cls-13" x="322.59" y="251.43" width="7.61" height="4.22"/><rect class="cls-13" x="307.37" y="259.86" width="7.61" height="4.22"/><rect class="cls-13" x="314.98" y="259.86" width="7.61" height="4.22"/><rect class="cls-13" x="322.59" y="255.64" width="7.61" height="4.22"/><rect class="cls-13" x="322.59" y="259.86" width="7.61" height="4.22"/><rect class="cls-12" x="302.91" y="243.92" width="7.61" height="4.22"/><rect class="cls-12" x="310.52" y="243.92" width="7.61" height="4.22"/><rect class="cls-13" x="302.91" y="248.14" width="7.61" height="4.22"/><rect class="cls-13" x="310.52" y="248.14" width="7.61" height="4.22"/><rect class="cls-12" x="318.13" y="243.92" width="7.61" height="4.22"/><rect class="cls-13" x="318.13" y="248.14" width="7.61" height="4.22"/><rect class="cls-13" x="302.91" y="252.36" width="7.61" height="4.22"/><rect class="cls-13" x="310.52" y="252.36" width="7.61" height="4.22"/><rect class="cls-13" x="302.91" y="256.58" width="7.61" height="4.22"/><rect class="cls-13" x="310.52" y="256.58" width="7.61" height="4.22"/><rect class="cls-13" x="318.13" y="252.36" width="7.61" height="4.22"/><rect class="cls-13" x="318.13" y="256.58" width="7.61" height="4.22"/><text class="cls-14" transform="translate(336.58 251.86)">me<tspan class="cls-15" x="20.69" y="0">r</tspan><tspan x="26.05" y="0">ge</tspan><tspan class="cls-5"><tspan x="0" y="15">d</tspan><tspan class="cls-16" x="9.17" y="15">a</tspan><tspan x="17.61" y="15">tas</tspan><tspan class="cls-8" x="40.73" y="15">e</tspan><tspan x="49.07" y="15">ts</tspan></tspan></text><text class="cls-17" transform="translate(272.8 326.68)">c<tspan class="cls-18" x="8.47" y="0">a</tspan><tspan class="cls-8" x="16.91" y="0">t</tspan><tspan class="cls-10" x="23.38" y="0">egori</tspan><tspan class="cls-19" x="59.15" y="0">z</tspan><tspan class="cls-10" x="66.79" y="0">e </tspan><tspan class="cls-11" x="80.14" y="0">the </tspan><tspan class="cls-20" x="108.9" y="0">ev</tspan><tspan class="cls-11" x="125.07" y="0">e</tspan><tspan class="cls-21" x="133.49" y="0">n</tspan><tspan class="cls-11" x="142.24" y="0">ts</tspan><tspan class="cls-22"><tspan x="31.88" y="15">in </tspan><tspan class="cls-23" x="49.42" y="15">c</tspan><tspan class="cls-16" x="57.89" y="15">a</tspan><tspan class="cls-8" x="66.33" y="15">t</tspan><tspan x="72.8" y="15">egori</tspan><tspan class="cls-24" x="108.57" y="15">e</tspan><tspan class="cls-10" x="116.9" y="15">s</tspan></tspan></text><text class="cls-25" transform="translate(470.43 326.68)">sele<tspan class="cls-9" x="28.55" y="0">c</tspan><tspan x="37" y="0">t </tspan><tspan class="cls-5" x="48.47" y="0">online</tspan><tspan class="cls-26"><tspan x="7.01" y="15">c</tspan><tspan class="cls-7" x="15.48" y="15">am</tspan><tspan x="36.34" y="15">p</tspan><tspan class="cls-7" x="45.46" y="15">aigns</tspan></tspan></text><text class="cls-14" transform="translate(444.95 404.08)">map<tspan class="cls-11" x="30.03" y="0" xml:space="preserve"> their </tspan><tspan class="cls-27" x="73.19" y="0">r</tspan><tspan class="cls-11" x="78.55" y="0">el</tspan><tspan class="cls-20" x="90.69" y="0">ev</tspan><tspan class="cls-5" x="106.86" y="0">ance</tspan><tspan class="cls-20"><tspan x="-6.35" y="15">ov</tspan><tspan class="cls-7" x="10.13" y="15">er the </tspan><tspan class="cls-15" x="57.98" y="15">r</tspan><tspan class="cls-10" x="63.34" y="15">ece</tspan><tspan class="cls-18" x="88.7" y="15">n</tspan><tspan class="cls-7" x="97.45" y="15">t </tspan><tspan x="108.91" y="15">y</tspan><tspan class="cls-28" x="117.09" y="15">e</tspan><tspan class="cls-7" x="125.44" y="15">a</tspan><tspan class="cls-18" x="134.03" y="15">r</tspan><tspan class="cls-10" x="139.63" y="15">s</tspan></tspan></text><text class="cls-14" transform="translate(436.67 480.39)">conne<tspan class="cls-9" x="43.44" y="0">c</tspan><tspan x="51.9" y="0">t</tspan><tspan class="cls-11" x="58.44" y="0" xml:space="preserve"> them </tspan><tspan class="cls-29" x="104.41" y="0">t</tspan><tspan class="cls-5" x="110.88" y="0">o their</tspan><tspan class="cls-26"><tspan x="22.07" y="15">ca</tspan><tspan class="cls-30" x="39.07" y="15">us</tspan><tspan class="cls-18" x="55.95" y="15">a</tspan><tspan class="cls-10" x="64.39" y="15">ti</tspan><tspan class="cls-16" x="74.65" y="15">v</tspan><tspan class="cls-10" x="82.55" y="15">e </tspan><tspan class="cls-16" x="95.89" y="15">ev</tspan><tspan class="cls-10" x="112.06" y="15">e</tspan><tspan class="cls-18" x="120.48" y="15">n</tspan><tspan class="cls-7" x="129.23" y="15">t</tspan></tspan></text><rect class="cls-12" x="148.02" y="173.34" width="6.82" height="3.78"/><rect class="cls-12" x="154.84" y="173.34" width="6.82" height="3.78"/><rect class="cls-12" x="161.66" y="173.34" width="6.82" height="3.78"/><rect class="cls-13" x="148.02" y="177.12" width="6.82" height="3.78"/><rect class="cls-13" x="154.84" y="177.12" width="6.82" height="3.78"/><rect class="cls-13" x="161.66" y="177.12" width="6.82" height="3.78"/><rect class="cls-13" x="148.02" y="180.91" width="6.82" height="3.78"/><rect class="cls-13" x="154.84" y="180.91" width="6.82" height="3.78"/><rect class="cls-13" x="148.02" y="184.69" width="6.82" height="3.78"/><rect class="cls-13" x="154.84" y="184.69" width="6.82" height="3.78"/><rect class="cls-13" x="161.66" y="180.91" width="6.82" height="3.78"/><rect class="cls-13" x="161.66" y="184.69" width="6.82" height="3.78"/><text class="cls-6" transform="translate(283.47 177.45)">e<tspan class="cls-7" x="8.13" y="0">xt</tspan><tspan class="cls-8" x="23.24" y="0">r</tspan><tspan class="cls-7" x="28.91" y="0">a</tspan><tspan class="cls-9" x="37.49" y="0">c</tspan><tspan class="cls-10" x="45.95" y="0">t</tspan><tspan class="cls-11"><tspan x="0" y="15">timeline</tspan></tspan></text><rect class="cls-12" x="255.87" y="172.6" width="6.82" height="3.78"/><rect class="cls-12" x="262.7" y="172.6" width="6.82" height="3.78"/><rect class="cls-12" x="269.52" y="172.6" width="6.82" height="3.78"/><rect class="cls-13" x="255.87" y="176.38" width="6.82" height="3.78"/><rect class="cls-13" x="262.7" y="176.38" width="6.82" height="3.78"/><rect class="cls-13" x="269.52" y="176.38" width="6.82" height="3.78"/><rect class="cls-13" x="255.87" y="180.17" width="6.82" height="3.78"/><rect class="cls-13" x="262.7" y="180.17" width="6.82" height="3.78"/><rect class="cls-13" x="255.87" y="183.95" width="6.82" height="3.78"/><rect class="cls-13" x="262.7" y="183.95" width="6.82" height="3.78"/><rect class="cls-13" x="269.52" y="180.17" width="6.82" height="3.78"/><rect class="cls-13" x="269.52" y="183.95" width="6.82" height="3.78"/><rect class="cls-12" x="473.52" y="173.33" width="6.82" height="3.78"/><rect class="cls-12" x="480.34" y="173.33" width="6.82" height="3.78"/><rect class="cls-12" x="487.16" y="173.33" width="6.82" height="3.78"/><rect class="cls-13" x="473.52" y="177.12" width="6.82" height="3.78"/><rect class="cls-13" x="480.34" y="177.12" width="6.82" height="3.78"/><rect class="cls-13" x="487.16" y="177.12" width="6.82" height="3.78"/><rect class="cls-13" x="473.52" y="180.9" width="6.82" height="3.78"/><rect class="cls-13" x="480.34" y="180.9" width="6.82" height="3.78"/><rect class="cls-13" x="473.52" y="184.69" width="6.82" height="3.78"/><rect class="cls-13" x="480.34" y="184.69" width="6.82" height="3.78"/><rect class="cls-13" x="487.16" y="180.9" width="6.82" height="3.78"/><rect class="cls-13" x="487.16" y="184.69" width="6.82" height="3.78"/><rect class="cls-12" x="364.14" y="173.33" width="6.82" height="3.78"/><rect class="cls-12" x="370.96" y="173.33" width="6.82" height="3.78"/><rect class="cls-12" x="377.79" y="173.33" width="6.82" height="3.78"/><rect class="cls-13" x="364.14" y="177.11" width="6.82" height="3.78"/><rect class="cls-13" x="370.96" y="177.11" width="6.82" height="3.78"/><rect class="cls-13" x="377.79" y="177.11" width="6.82" height="3.78"/><rect class="cls-13" x="364.14" y="180.9" width="6.82" height="3.78"/><rect class="cls-13" x="370.96" y="180.9" width="6.82" height="3.78"/><rect class="cls-13" x="364.14" y="184.68" width="6.82" height="3.78"/><rect class="cls-13" x="370.96" y="184.68" width="6.82" height="3.78"/><rect class="cls-13" x="377.79" y="180.9" width="6.82" height="3.78"/><rect class="cls-13" x="377.79" y="184.68" width="6.82" height="3.78"/><text class="cls-6" transform="translate(391.07 178.17)">e<tspan class="cls-7" x="8.13" y="0">xt</tspan><tspan class="cls-8" x="23.24" y="0">r</tspan><tspan class="cls-7" x="28.91" y="0">a</tspan><tspan class="cls-9" x="37.49" y="0">c</tspan><tspan class="cls-10" x="45.95" y="0">t</tspan><tspan class="cls-11"><tspan x="0" y="15">timeline</tspan></tspan></text><text class="cls-6" transform="translate(500.97 178.17)">e<tspan class="cls-7" x="8.13" y="0">xt</tspan><tspan class="cls-8" x="23.24" y="0">r</tspan><tspan class="cls-7" x="28.91" y="0">a</tspan><tspan class="cls-9" x="37.49" y="0">c</tspan><tspan class="cls-10" x="45.95" y="0">t</tspan><tspan class="cls-11"><tspan x="0" y="15">timeline</tspan></tspan></text><text class="cls-31" transform="translate(164.76 92.29)">Wikipedia<tspan class="cls-32"><tspan x="-13.23" y="15">fi</tspan><tspan class="cls-18" x="-4.13" y="15">r</tspan><tspan x="1.47" y="15">s</tspan><tspan class="cls-33" x="9.46" y="15">t</tspan><tspan class="cls-34" x="15.58" y="15">-</tspan><tspan class="cls-9" x="22.41" y="15">w</tspan><tspan class="cls-15" x="33.68" y="15">a</tspan><tspan class="cls-16" x="41.88" y="15">v</tspan><tspan class="cls-10" x="49.78" y="15">e</tspan></tspan><tspan class="cls-35"><tspan x="-9.31" y="30">f</tspan><tspan class="cls-10" x="-3.03" y="30">eminism</tspan></tspan></text><text class="cls-31" transform="translate(274.29 92.29)">Wikipedia<tspan class="cls-36"><tspan x="-17.8" y="15">timeline </tspan><tspan class="cls-9" x="42.83" y="15">o</tspan><tspan class="cls-7" x="51.48" y="15">f </tspan></tspan><tspan class="cls-32"><tspan x="-12.23" y="30">2nd</tspan><tspan class="cls-37" x="14.57" y="30">-</tspan><tspan class="cls-9" x="21.4" y="30">w</tspan><tspan class="cls-15" x="32.67" y="30">a</tspan><tspan class="cls-16" x="40.88" y="30">v</tspan><tspan x="48.77" y="30">e</tspan></tspan></text><text class="cls-31" transform="translate(383.83 93.68)">Wikipedia<tspan class="cls-36"><tspan x="-15.67" y="15">thi</tspan><tspan class="cls-38" x="3.48" y="15">r</tspan><tspan class="cls-7" x="8.84" y="15">d</tspan><tspan class="cls-34" x="18.01" y="15">-</tspan><tspan class="cls-9" x="24.85" y="15">w</tspan><tspan class="cls-15" x="36.12" y="15">a</tspan><tspan class="cls-16" x="44.32" y="15">v</tspan><tspan x="52.22" y="15">e</tspan></tspan><tspan class="cls-35"><tspan x="-9.31" y="30">f</tspan><tspan class="cls-10" x="-3.03" y="30">eminism</tspan></tspan></text><text class="cls-31" transform="translate(493.37 92.98)">Wikipedia<tspan class="cls-39"><tspan x="-21.56" y="15">t</tspan><tspan class="cls-7" x="-15.09" y="15">ou</tspan><tspan class="cls-40" x="2.52" y="15">r</tspan><tspan class="cls-10" x="8.47" y="15">th</tspan><tspan class="cls-34" x="23.9" y="15">-</tspan><tspan class="cls-9" x="30.73" y="15">w</tspan><tspan class="cls-15" x="42" y="15">a</tspan><tspan class="cls-16" x="50.21" y="15">v</tspan><tspan class="cls-7" x="58.1" y="15">e</tspan></tspan><tspan class="cls-35"><tspan x="-9.31" y="30">f</tspan><tspan class="cls-10" x="-3.03" y="30">eminism</tspan></tspan></text><line class="cls-2" x1="634.5" y1="8.47" x2="634.5" y2="128.8"/><text class="cls-31" transform="translate(328.45 25.83)">Wikipedia<tspan class="cls-32"><tspan x="-10.18" y="15">Feminism</tspan></tspan></text><text class="cls-41" transform="translate(645.67 64.36)"><tspan class="cls-42">GOOGLE SEARCH</tspan><tspan class="cls-43"><tspan x="0" y="12">English language</tspan></tspan></text><text class="cls-44" transform="translate(645.67 64.36)"><tspan class="cls-42">GOOGLE SEARCH</tspan><tspan class="cls-43"><tspan x="0" y="12">English language</tspan></tspan></text><line class="cls-2" x1="634.5" y1="159.82" x2="634.5" y2="204.22"/><text class="cls-45" transform="translate(645.73 178.02)">BE<tspan class="cls-18" x="17.53" y="0">A</tspan><tspan class="cls-7" x="26.6" y="0">UTIFUL</tspan><tspan x="0" y="16.8">SOUP</tspan></text><text class="cls-46" transform="translate(645.73 178.02)">BE<tspan class="cls-18" x="17.53" y="0">A</tspan><tspan class="cls-7" x="26.6" y="0">UTIFUL</tspan><tspan x="0" y="16.8">SOUP</tspan></text><text class="cls-47" transform="translate(645.73 290.06)">MAN<tspan class="cls-16" x="31.78" y="0">U</tspan><tspan x="41.44" y="0">AL </tspan><tspan x="0" y="16.8">ANA</tspan><tspan class="cls-48" x="28.17" y="16.8">L</tspan><tspan class="cls-49" x="34.2" y="16.8">Y</tspan><tspan class="cls-10" x="42.83" y="16.8">SIS</tspan></text><text class="cls-50" transform="translate(645.73 290.06)">MAN<tspan class="cls-16" x="31.78" y="0">U</tspan><tspan x="41.44" y="0">AL </tspan><tspan x="0" y="16.8">ANA</tspan><tspan class="cls-48" x="28.17" y="16.8">L</tspan><tspan class="cls-49" x="34.2" y="16.8">Y</tspan><tspan class="cls-10" x="42.83" y="16.8">SIS</tspan></text><polyline class="cls-4" points="187.22 74.95 187.22 65.1 296.76 65.1 296.76 74.95"/><polygon class="cls-5" points="191.31 71.64 190.58 70.96 187.22 74.57 183.87 70.96 183.13 71.64 187.22 76.04 191.31 71.64"/><polygon class="cls-5" points="292.67 71.64 293.4 70.96 296.76 74.57 300.12 70.96 300.85 71.64 296.76 76.04 292.67 71.64"/><polyline class="cls-4" points="406.3 74.95 406.3 65.1 515.83 65.1 515.83 74.95"/><polygon class="cls-5" points="410.38 71.64 409.65 70.96 406.3 74.57 402.94 70.96 402.21 71.64 406.3 76.04 410.38 71.64"/><polygon class="cls-5" points="511.74 71.64 512.47 70.96 515.83 74.57 519.19 70.96 519.92 71.64 515.83 76.04 511.74 71.64"/><polyline class="cls-4" points="296.76 65.1 351.47 65.1 406.3 65.1"/><line class="cls-4" x1="351.47" y1="56.57" x2="351.47" y2="65.1"/><line class="cls-4" x1="350.65" y1="218.4" x2="350.65" y2="228.3"/><polygon class="cls-5" points="346.55 225 347.35 224.3 350.65 227.9 354.05 224.3 354.75 225 350.65 229.4 346.55 225"/><polyline class="cls-4" points="296.78 209.89 296.78 218.4 350.55 218.4 406.03 218.4 406.03 209.9"/><polyline class="cls-4" points="406.03 218.4 456.38 218.4 507.45 218.4 507.45 209.9"/><polyline class="cls-4" points="187.33 209.9 187.33 218.4 242.45 218.4 296.78 218.4"/><text class="cls-47" transform="translate(642.97 403.53)">GOOGLE<tspan x="0" y="16.8">TRENDS</tspan></text><text class="cls-50" transform="translate(642.97 403.53)">GOOGLE<tspan x="0" y="16.8">TRENDS</tspan></text><line class="cls-2" x1="634.52" y1="235.28" x2="634.53" y2="353.13"/><line class="cls-2" x1="634.53" y1="385.68" x2="634.53" y2="430.07"/><rect class="cls-51" x="10.9" y="10.9" width="118.9" height="20.9"/><path class="cls-52" d="M20.6,17c2.2,0,3.4,1.1,3.4,3.3V22c0,2.2-1.2,3.3-3.4,3.3H17.9V16.9h2.7Zm-1.4,7.1h1.4c1.4,0,2-.7,2-2.1V20.2c0-1.4-.6-2.1-2-2.1H19.3v6Z"/><path class="cls-52" d="M29.6,17l2.5,8.4H30.6L30,23.5H26.8l-.6,1.9H24.7L27.2,17Zm.1,5.2-1.2-4h-.1l-1.2,4Z"/><path class="cls-52" d="M38.8,17v1.3H36.2v7.1H34.8V18.3H32.2V17Z"/><path class="cls-52" d="M43.5,17,46,25.4H44.5l-.6-1.9H40.7l-.6,1.9H38.6L41.1,17Zm.1,5.2-1.2-4h-.1l-1.2,4Z"/><path class="cls-52" d="M54.3,16.8c2.1,0,3.2,1.2,3.2,3v.3H56.1v-.2a1.63,1.63,0,0,0-1.8-1.8,1.87,1.87,0,0,0-2,2.1v2a1.87,1.87,0,0,0,2,2.1,1.59,1.59,0,0,0,1.8-1.8v-.2h1.5v.2a2.87,2.87,0,0,1-3.2,3.1A3.1,3.1,0,0,1,51,22.2V20.3A3.06,3.06,0,0,1,54.3,16.8Z"/><path class="cls-52" d="M62.3,16.8a3.18,3.18,0,0,1,3.4,3.5v1.8a3.4,3.4,0,1,1-6.8,0V20.3A3.18,3.18,0,0,1,62.3,16.8Zm-2,5.4c0,1.3.6,2.1,2,2.1s2-.8,2-2.1V20.3a2,2,0,1,0-4,0Z"/><path class="cls-52" d="M68.8,17v7.1h4v1.3H67.4V17Z"/><path class="cls-52" d="M75.6,17v7.1h4v1.3H74.2V17Z"/><path class="cls-52" d="M86.5,17v1.3H82.4v2.3h3.7v1.3H82.4v2.3h4.1v1.3H81V17.1h5.5Z"/><path class="cls-52" d="M91.3,16.8c2.1,0,3.2,1.2,3.2,3v.3H93.1v-.2a1.63,1.63,0,0,0-1.8-1.8,1.87,1.87,0,0,0-2,2.1v2a1.87,1.87,0,0,0,2,2.1,1.59,1.59,0,0,0,1.8-1.8v-.2h1.4v.2a2.87,2.87,0,0,1-3.2,3.1,3.1,3.1,0,0,1-3.4-3.4V20.3A3.18,3.18,0,0,1,91.3,16.8Z"/><path class="cls-52" d="M102.1,17v1.3H99.5v7.1H98.1V18.3H95.5V17Z"/><path class="cls-52" d="M104.9,17v8.4h-1.4V17Z"/><path class="cls-52" d="M110,16.8a3.18,3.18,0,0,1,3.4,3.5v1.8a3.4,3.4,0,1,1-6.8,0V20.3A3.18,3.18,0,0,1,110,16.8Zm-2,5.4c0,1.3.6,2.1,2,2.1s2-.8,2-2.1V20.3a2,2,0,1,0-4,0Z"/><path class="cls-52" d="M117.6,17l2.3,7.1h.1V17h1.4v8.4h-2.5l-2.3-7.1h-.1v7.1h-1.4V17Z"/><rect class="cls-51" x="10.9" y="237.18" width="127" height="20.9"/><path class="cls-52" d="M21.8,244.27c2.2,0,3.4,1.11,3.4,3.3v1.7c0,2.2-1.2,3.3-3.4,3.3H19.1v-8.39h2.7Zm-1.4,7.11h1.3c1.4,0,2-.7,2-2.11v-1.8c0-1.4-.6-2.1-2-2.1H20.4Z"/><path class="cls-52" d="M30.8,244.27l2.5,8.4H31.8l-.6-1.9H28l-.6,1.9H25.9l2.5-8.4Zm.1,5.2-1.2-4h-.1l-1.2,4Z"/><path class="cls-52" d="M39.9,244.27v1.3H37.3v7.11H35.9v-7.11H33.3v-1.3Z"/><path class="cls-52" d="M44.7,244.27l2.5,8.4H45.7l-.6-1.9H41.9l-.6,1.9H39.8l2.5-8.4Zm.1,5.2-1.2-4h-.1l-1.2,4Z"/><path class="cls-52" d="M57.9,244.27v1.3H53.8v2.31h3.8v1.3H53.9v2.3H58v1.3H52.5v-8.4h5.4Z"/><path class="cls-52" d="M60.6,244.27l1.9,3.2h.2l1.8-3.2h1.6l-2.4,4.11v.19l2.4,4.2H64.5l-1.9-3.2h-.2l-1.9,3.2H58.9l2.5-4.2v-.19L59,244.27Z"/><path class="cls-52" d="M70.9,244.27a2.42,2.42,0,0,1,2.6,2.61,2.47,2.47,0,0,1-2.6,2.6h-2v3.2H67.6v-8.4h3.3ZM69,248.18h1.8a1.31,1.31,0,1,0,0-2.61H69Z"/><path class="cls-52" d="M76.4,244.27v7.11h4v1.3H75v-8.4h1.4Z"/><path class="cls-52" d="M85,244.07a3.19,3.19,0,0,1,3.4,3.5v1.81a3.4,3.4,0,1,1-6.8,0v-1.81A3.19,3.19,0,0,1,85,244.07Zm-2,5.31c0,1.3.6,2.1,2,2.1s2-.8,2-2.1v-1.9a2,2,0,1,0-4,0Z"/><path class="cls-52" d="M94.4,249.27l1.8,3.4H94.6l-1.7-3.3H91.4v3.3H90v-8.4h3.6a2.42,2.42,0,0,1,2.6,2.61A2.28,2.28,0,0,1,94.4,249.27Zm-3-1.2h2.1a1.3,1.3,0,1,0,0-2.6H91.4Z"/><path class="cls-52" d="M101.9,244.27l2.5,8.4h-1.5l-.6-1.9H99.1l-.6,1.9H97l2.5-8.4Zm.1,5.2-1.2-4h-.1l-1.2,4Z"/><path class="cls-52" d="M111.1,244.27v1.3h-2.6v7.11h-1.4v-7.11h-2.6v-1.3Z"/><path class="cls-52" d="M113.9,244.27v8.4h-1.4v-8.4Z"/><path class="cls-52" d="M119,244.07a3.19,3.19,0,0,1,3.4,3.5v1.81a3.4,3.4,0,1,1-6.8,0v-1.81A3.19,3.19,0,0,1,119,244.07Zm-2,5.31c0,1.3.6,2.1,2,2.1s2-.8,2-2.1v-1.9a2,2,0,1,0-4,0Z"/><path class="cls-52" d="M126.6,244.27l2.3,7.11h.1v-7.11h1.4v8.4h-2.5l-2.3-7.1h-.1v7.1h-1.4v-8.4Z"/><text class="cls-47" transform="translate(642.8 480.39)">GOOGLE<tspan class="cls-10"><tspan x="0" y="16.8">SEARCH</tspan></tspan></text><text class="cls-50" transform="translate(642.8 480.39)">GOOGLE<tspan class="cls-10"><tspan x="0" y="16.8">SEARCH</tspan></tspan></text><line class="cls-2" x1="634.53" y1="462.27" x2="634.53" y2="506.66"/><line class="cls-4" x1="515.4" y1="209.89" x2="515.4" y2="300.3"/><polygon class="cls-5" points="511.31 296.99 512.04 296.31 515.4 299.92 518.75 296.31 519.49 296.99 515.4 301.39 511.31 296.99"/><line class="cls-4" x1="350.86" y1="360.07" x2="350.86" y2="528.95"/><polygon class="cls-5" points="346.77 525.64 347.5 524.95 350.86 528.57 354.21 524.95 354.95 525.64 350.86 530.03 346.77 525.64"/><line class="cls-4" x1="515.3" y1="439.05" x2="515.3" y2="452.15"/><polygon class="cls-5" points="511.2 448.85 511.9 448.15 515.3 451.75 518.6 448.15 519.4 448.85 515.3 453.25 511.2 448.85"/><rect class="cls-3" x="0.03" y="530.03" width="621.2" height="61.7"/><rect class="cls-53" x="271.85" y="540.98" width="156.66" height="37.8"/><rect class="cls-53" x="451.42" y="540.98" width="125.48" height="37.8"/><text class="cls-54" transform="translate(307.75 556.21)">di<tspan class="cls-8" x="12.89" y="0">ff</tspan><tspan x="23.28" y="0">e</tspan><tspan class="cls-55" x="31.7" y="0">r</tspan><tspan x="37.06" y="0">enc</tspan><tspan class="cls-56" x="62.89" y="0">e</tspan><tspan x="71.22" y="0">s </tspan><tspan x="-30.78" y="15">b</tspan><tspan class="cls-8" x="-21.61" y="15">e</tspan><tspan x="-13.26" y="15">t</tspan><tspan class="cls-9" x="-6.73" y="15">w</tspan><tspan class="cls-10" x="4.54" y="15">een the phas</tspan><tspan class="cls-24" x="98.59" y="15">e</tspan><tspan class="cls-10" x="106.92" y="15">s</tspan></text><text class="cls-57" transform="translate(477.86 556.21)">timeline <tspan class="cls-9" x="60.63" y="0">o</tspan><tspan class="cls-7" x="69.29" y="0">f</tspan><tspan x="-15.49" y="15">online a</tspan><tspan class="cls-9" x="40.38" y="15">c</tspan><tspan class="cls-7" x="48.84" y="15">tivism</tspan></text><text class="cls-58" transform="translate(642.8 555.46)">R<tspan class="cls-59" x="9.11" y="0">A</tspan><tspan class="cls-10" x="18.05" y="0">W G</tspan><tspan class="cls-8" x="44.48" y="0">R</tspan><tspan class="cls-7" x="53.59" y="0">APHS</tspan><tspan class="cls-7"><tspan x="0" y="16.8">&amp; ILLU</tspan><tspan class="cls-60" x="44.56" y="16.8">S</tspan><tspan class="cls-10" x="53.45" y="16.8">T</tspan><tspan class="cls-9" x="62.16" y="16.8">R</tspan><tspan class="cls-61" x="71.27" y="16.8">A</tspan><tspan class="cls-62" x="79.65" y="16.8">T</tspan><tspan class="cls-30" x="88.14" y="16.8">OR</tspan></tspan></text><text class="cls-63" transform="translate(642.8 555.46)">R<tspan class="cls-59" x="9.11" y="0">A</tspan><tspan class="cls-10" x="18.05" y="0">W G</tspan><tspan class="cls-8" x="44.48" y="0">R</tspan><tspan class="cls-7" x="53.59" y="0">APHS</tspan><tspan class="cls-7"><tspan x="0" y="16.8">&amp; ILLU</tspan><tspan class="cls-60" x="44.56" y="16.8">S</tspan><tspan class="cls-10" x="53.45" y="16.8">T</tspan><tspan class="cls-9" x="62.16" y="16.8">R</tspan><tspan class="cls-61" x="71.27" y="16.8">A</tspan><tspan class="cls-62" x="79.65" y="16.8">T</tspan><tspan class="cls-30" x="88.14" y="16.8">OR</tspan></tspan></text><line class="cls-2" x1="634.36" y1="537.62" x2="634.36" y2="582.01"/><rect class="cls-51" x="10.78" y="541.48" width="101.3" height="20.9"/><path class="cls-52" d="M18.78,548.48l2,7.1h.1l2-7.1h1.5l-2.5,8.4h-2.2l-2.5-8.4Z"/><path class="cls-52" d="M27.18,548.48v8.4h-1.4v-8.4Z"/><path class="cls-52" d="M35.08,551v.4h-1.4v-.3c0-1-.7-1.5-1.7-1.5s-1.5.5-1.5,1.1c0,.8.6,1,1.7,1.2l.3.1c1.6.4,2.6,1,2.6,2.5s-1.3,2.6-3,2.6c-2.1,0-3.4-1.2-3.4-3.1v-.3h1.4v.3a1.77,1.77,0,0,0,2,1.9c1.1,0,1.6-.6,1.6-1.3s-.6-1.1-1.7-1.3l-.3-.1c-1.6-.4-2.7-.9-2.7-2.5s1.3-2.4,2.9-2.4C33.78,548.28,35.08,549.28,35.08,551Z"/><path class="cls-52" d="M38.28,548.48V554a1.63,1.63,0,0,0,1.8,1.8,1.59,1.59,0,0,0,1.8-1.8v-5.5h1.4V554a2.92,2.92,0,0,1-3.2,3.1,2.87,2.87,0,0,1-3.2-3.1v-5.5Z"/><path class="cls-52" d="M49.28,548.48l2.5,8.4h-1.5l-.6-1.9h-3.2l-.6,1.9h-1.5l2.5-8.4Zm.1,5.2-1.2-4h-.1l-1.2,4Z"/><path class="cls-52" d="M54.48,548.48v7.1h4v1.3h-5.4v-8.4Z"/><path class="cls-52" d="M61.38,548.48v8.4H60v-8.4Z"/><path class="cls-52" d="M69,548.48v1.2l-4.3,5.9H69v1.3H63v-1.2l4.3-5.9h-4.1v-1.3Z"/><path class="cls-52" d="M74.78,548.48l2.5,8.4h-1.5l-.6-1.9H72l-.6,1.9h-1.5l2.5-8.4Zm.1,5.2-1.2-4h-.1l-1.2,4Z"/><path class="cls-52" d="M84,548.48v1.3h-2.6v7.1H80v-7.1h-2.6v-1.3Z"/><path class="cls-52" d="M86.78,548.48v8.4h-1.4v-8.4Z"/><path class="cls-52" d="M91.88,548.28a3.18,3.18,0,0,1,3.4,3.5v1.8a3.4,3.4,0,1,1-6.8,0v-1.8A3.18,3.18,0,0,1,91.88,548.28Zm-2,5.4c0,1.3.6,2.1,2,2.1s2-.8,2-2.1v-1.9a2,2,0,1,0-4,0Z"/><path class="cls-52" d="M99.48,548.48l2.3,7.1h.1v-7.1h1.4v8.4h-2.5l-2.3-7.1h-.1v7.1H97v-8.4Z"/><line class="cls-4" x1="515.3" y1="515.47" x2="515.3" y2="528.57"/><polygon class="cls-5" points="511.2 525.27 511.9 524.57 515.3 528.17 518.6 524.57 519.4 525.27 515.3 529.67 511.2 525.27"/></svg>